<svg xmlns:svg="http://www.w3.org/2000/svg" xmlns="http://www.w3.org/2000/svg" width="800.0" height="240.0">
    <g transform="scale(4.777065241928987, -4.777065241928987)   translate(46.586000706918924,-36.47989011695894)" stroke-width="0.20933354462544418" fill="none">
       <!-- hidden lines -->
       <g stroke="rgb(160,160,160)" fill="none" stroke-dasharray="0.20933354462544418,0.20933354462544418">
			<path d="M2.359645890915043,-4.071777674218877 L43.22991160027488,23.314366808151156 "/>
			<path d="M-2.511472799872758,-4.323482898717108 L-2.3746122995242778,-4.399661915403001 L-2.2350233225086082,-4.470785633216693 L-2.0928662593311214,-4.536772329594641 L-1.9483044512791647,-4.597546184512899 L-1.8015040027396805,-4.653037367605829 L-1.6526335903419662,-4.703182118402585 L-1.50186426914488,-4.747922819589146 L-1.3493692760911857,-4.787208063211768 L-1.19532383095486,-4.82099270974573 L-1.0399049350101017,-4.849237939961558 L-0.8832911676533495,-4.871911299529074 L-0.7256624812120132,-4.888986736308081 L-0.5671999941756749,-4.900444630282779 L-0.40808578308735144,-4.906271816105558 L-0.2485026733339326,-4.906461598224237 L-0.08863402907618223,-4.901013758575399 L0.07133645744032346,-4.889934556834936 L0.2312249769512329,-4.873236723225564 L0.39084781437390914,-4.850939443889546 L0.5500215598997078,-4.823068338843431 L0.708563319735489,-4.789655432540146 L0.8662909262522169,-4.750739117072265 L1.023023147299177,-4.706364108058733 L1.1785798944433197,-4.656581393265732 L1.3327824298944408,-4.6014481740207245 L1.4854535718784534,-4.541027799486994 L1.6364178982227617,-4.475389693874195 L1.7855019479198182,-4.4046092766685705 L1.9325344204372659,-4.328767875974446 L2.0773463725456525,-4.247952635066642 L2.219771412437548,-4.162256412261106 L2.359645890915033,-4.071777674218883 "/>
			<path d="M43.22991160027489,23.31436680815115 L43.360019278153025,23.40446776942263 L43.48755563662175,23.498680849556926 L43.61238896115395,23.596908748996118 L43.73439032880949,23.69905002183506 L43.85343374138174,23.80499918059072 L43.969396255523556,23.914646805145484 L44.08215810971832,24.027879655751956 L44.19160284796495,24.1445807899825 L44.29761744004904,24.264629683502775 L44.400092398275994,24.38790235454453 L44.498921890545674,24.514271491949064 L44.594003849651536,24.64360658664921 L44.685240078691706,24.775774066453927 L44.7725363524828,24.910637433996417 L44.85580251487203,25.04805740770323 L44.93495257184691,25.187892065638767 L45.00990478034645,25.329996992076687 L45.08058173268226,25.474225426646765 L45.14691043648206,25.620428415903227 L45.2088223900734,25.768454967158 L45.266253653229434,25.918152204420018 L45.31914491320392,26.06936552627951 L45.36744154598704,26.221938765574258 L45.41109367271897,26.37571435067289 L45.450056211202764,26.530533468208645 L45.48428892246348,26.686236227095577 L45.51375645230543,26.842661823657753 L45.53842836782458,26.999648707700963 L45.558279188838455,27.157034749355397 L45.57328841420108,27.314657406516993 L45.583440542975744,27.47235389271451 L45.58872509044376,27.629961345228985 L45.58913659893267,27.787316993291938 L45.584674643452715,27.94425832618861 L45.57534383213576,28.100623261092622 L45.561153801476166,28.25625031045874 L45.54211920637862,28.410978748800837 L45.518259705023134,28.564648778682866 L45.48959993856283,28.717101695751335 L45.456169505675554,28.868180052638927 L45.41800293199548,29.017727821569927 L45.37513963445646,29.16559055549958 L45.327623880583715,29.311615547620892 L45.27550474277611,29.45565198907422 L45.21883604762608,29.59755112469672 L45.157676320329685,29.737166406650818 L45.09208872424408,29.874353645773034 L45.02214099565487,30.008971160486894 L44.94790537382076,30.14087992312605 L44.86945852636768,30.26994370351661 L44.78688147010951,30.396029209670264 L44.700259487377075,30.519006225443025 L44.609682037941916,30.638747745017312 L44.51524266662579,30.755130104068577 L44.41703890669123,30.868033107480922 L44.315172179113056,30.9773401534799 L44.20974768783476,31.08293835405424 L44.10087431111807,31.184718651542102 L43.9886644890977,31.282575931261583 L43.873234107657666,31.376409130068982 L43.75470237874888,31.466121340732848 L43.633191717271764,31.55161991201596 L43.508827614650926,31.632816544361848 L43.381738509232626,31.709627381087124 "/>
			<path d="M1.3573945660918,1.3860033014188335 L1.3149679295257328,1.429458060255016 L1.2710634581068778,1.4713063137958153 L1.2257304941473932,1.5115010306222727 L1.1790199853796273,1.5499970376529075 L1.1309844276981926,1.5867510709117667 L1.0816778061621333,1.6217218241509093 L1.0311555343234775,1.6548699952726915 L0.9794743919503828,1.686158330499668 "/>
			<path d="M0.9794743919503759,1.6861583304996721 L0.9018346373007535,1.7285421757199517 L0.8220222840184879,1.7667618114365091 L0.7402296070533734,1.8007251631992582 L0.6566536521284119,1.8303504103189636 L0.571495761039406,1.8555661829804495 L0.48496108660493975,1.8763117341787332 L0.3972580984352677,1.8925370860638826 L0.30859808071076456,1.9042031503420334 L0.21919462317982952,1.9112818224425123 L0.12926310660247353,1.9137560492242118 L0.039020183879201364,1.9116198700580975 L-0.05131674188480018,1.904878431186888 L-0.14153004112278544,1.8935479733273044 L-0.23140238209513952,1.8776557925447608 L-0.3207172544605713,1.857240174494754 L-0.409259490868493,1.8323503021893623 L-0.4968157853160158,1.8030461375110651 L-0.5831752070207888,1.7693982767593144 L-0.6681297085717327,1.7314877805778657 L-0.7514746271334762,1.6894059786725872 L-0.8330091774970523,1.6432542497901994 L-0.9125369357890509,1.5931437774879935 L-0.9898663126739381,1.5391952822829054 L-1.0648110149095449,1.4815387308252133 L-1.1371904941438051,1.420313022797497 L-1.2068303818715496,1.3556656562931333 L-1.2735629095035081,1.2877523724804725 L-1.3372273125355378,1.2167367804087181 L-1.3976702178443905,1.1427899628594043 L-1.4547460131770018,1.0660900641929845 L-1.5083171979431684,0.9868218611834625 L-1.5582547144665067,0.9051763178749632 L-1.6044382588957018,0.8213501255326215 L-1.6467565710270233,0.7355452287960975 L-1.6851077023399008,0.6479683391772508 L-1.719399261599839,0.5588304370740009 L-1.7495486374369948,0.4683462635000745 L-1.7754831973642022,0.37673380275509016 L-1.7971404627549983,0.28421375728128495 L-1.814468259360104,0.19100901597200415 L-1.8274248429997622,0.0973441172128332 L-1.835979000129122,0.0034447079489583476 L-1.8401101230344032,-0.09046299991808582 L-1.839808259478683,-0.18415277449470457 L-1.8350741366777084,-0.2773989089076876 L-1.8259191595479654,-0.3699767650518372 L-1.812365383231242,-0.4616633147628394 L-1.7944454599618553,-0.5522376771116495 L-1.7722025604045613,-0.6414816505259895 L-1.745690269652642,-0.7291802384570542 L-1.7149724581367205,-0.8151221673250301 L-1.680123127755301,-0.8991003954956507 L-1.641226233597714,-0.9809126120616285 L-1.59837548168895,-1.0603617242273522 L-1.55167410324364,-1.1372563321226945 L-1.5012346059730164,-1.2114111899020634 L-1.447178503043982,-1.2826476520178698 L-1.3896360203432492,-1.3507941035932993 L-1.3287457827517692,-1.4156863738575833 L-1.2646544801852542,-1.4771681316477636 L-1.197516514205323,-1.535091262024157 L-1.1274936260526136,-1.5893162230922189 L-1.0547545069979658,-1.6397123821711919 L-0.9794743919503899,-1.686158330499664 "/>
			<path d="M-0.9794743919503757,-1.6861583304996721 L-0.9266924612148091,-1.7155516662424988 L-0.8728690614165768,-1.7430169686187287 L-0.8180646823169361,-1.7685233705781607 L-0.7623409161568075,-1.7920422065929598 L-0.7057603884359551,-1.813547044873591 L-0.6483866875309299,-1.8330137170743468 L-0.5902842932308783,-1.8504203454550936 L-0.5315185042715347,-1.865747367468705 "/>
			<path d="M7.253791244415103,7.065222189419367 L7.153310070239829,6.993339713271115 L7.05704454028661,6.9151957360826435 L6.965392228868126,6.831112990591578 L6.87873165781598,6.741438736505142 L6.797420733194673,6.646543326325951 L6.721795267158211,6.546818675805126 L6.652167591054018,6.442676645339715 L6.5888252655020185,6.334547338999197 L6.5320298927762295,6.222877328206078 L6.482016036393686,6.108127807406696 L6.438990252372782,5.990772689349308 L6.403130236161911,5.87129664783589 L6.374584088761554,5.750193116031041 L6.353469705070725,5.627962248594941 L6.339874286983889,5.505108856056689 L6.333853983249245,5.382140319959013 L6.335433657575751,5.2595644973847575 L6.344606785946606,5.137887623519407 L6.361335483563288,5.017612220911998 L6.385550661308844,4.899235024069135 L6.4171523110842905,4.783244927953479 L6.456009918839629,4.6701209688593694 L6.501963003593733,4.5603303460044975 L6.55482178021691,4.454326492008427 L6.614367943238914,4.352547200226837 L6.680355568445251,4.255412816675536 L6.7525121285382514,4.163324504011571 L6.830539618668219,4.076662584741154 L6.871655170266752,4.035479286517163 L6.9141157871862635,3.9957849704968957 L6.9578776177742085,3.9576206314062983 L7.00289546653582,3.921025683871413 L7.049122840810245,3.8860379217125054 L7.0965119987863226,3.8526934789120926 L7.14501399880845,3.8210267922971943 L7.194578749921579,3.7910705659743407 "/>
			<path d="M7.194578749921593,3.7910705659743327 L7.2473606806571595,3.7616772302315056 L7.301184080455392,3.734211927855276 L7.355988459555032,3.7087055258958443 L7.411712225715161,3.685186689881045 L7.468292753436013,3.6636818516004137 L7.525666454341038,3.644215179399658 L7.583768848641089,3.6268085510189114 L7.642534637600432,3.6114815290052995 "/>
			<path d="M34.05360713357968,23.294918887314843 L34.01118049701362,23.338373646151027 L33.967276025594764,23.38022189969183 L33.921943061635275,23.420416616518285 L33.87523255286751,23.458912623548922 L33.82719699518607,23.49566665680778 L33.77789037365001,23.530637410046925 L33.72736810181136,23.56378558116871 L33.67568695943826,23.595073916395688 "/>
			<path d="M33.67568695943825,23.59507391639569 L33.62231136430235,23.62478373290319 L33.56787166326623,23.65252198285053 L33.51243040862701,23.678256794437928 L33.45605130348675,23.70195859785605 L33.398799128556355,23.72360015926229 L33.340739667721245,23.743156612073026 L33.28193963245438,23.760605485535784 L33.22246658516344,23.77592673054861 L33.162388861560274,23.789102742696855 L33.10177549214182,23.800118382481024 L33.04069612287268,23.808960992712358 L32.97922093516056,23.81562041305617 L32.91742056521639,23.820088991706303 L32.85536602289194,23.822361594177185 L32.79312861008811,23.82243560920347 L32.73077983882759,23.820310951740424 L32.66839134908615,23.815990063061644 L32.60603482647689,23.809477907953987 L32.54378191988205,23.80078196901294 L32.48170415912699,23.789912238044955 L32.41987287279104,23.776881204586676 L32.358359106249516,23.7617038415542 L32.2972335400412,23.744397588038925 L32.23656640865498,23.724982329269654 L32.17642741982905,23.7034803737641 L32.11688567445528,23.679916427695947 L32.058009587181004,23.654317566506954 L31.99986680779915,23.62671320379676 L31.942524143517343,23.597135057526053 L31.886047482195075,23.56561711357201 L31.830501716637237,23.53219558667785 L31.775950670031026,23.496908878841392 "/>
			<path d="M31.77595067003101,23.496908878841385 L7.253791244415101,7.065222189419366 "/>
			<path d="M42.22766027545164,28.77214778378887 L42.18523363888558,28.81560254262505 L42.14132916746672,28.85745079616585 L42.09599620350724,28.897645512992305 L42.049285694739474,28.93614152002294 L42.00125013705804,28.9728955532818 L41.95194351552198,29.00786630652094 L41.90142124368332,29.041014477642722 L41.84974010131023,29.072302812869697 "/>
			<path d="M41.849740101310225,29.0723028128697 L41.7721003466606,29.11468665808998 L41.692287993378336,29.152906293806538 L41.61049531641322,29.186869645569285 L41.52691936148826,29.216494892688992 L41.44176147039926,29.241710665350478 L41.35522679596479,29.262456216548763 L41.267523807795115,29.27868156843391 L41.178863790070615,29.290347632712063 L41.08946033253968,29.29742630481254 L40.99952881596232,29.29990053159424 L40.90928589323905,29.297764352428125 L40.81894896747505,29.291022913556915 L40.728735668237064,29.279692455697333 L40.63886332726471,29.26380027491479 L40.54954845489928,29.243384656864784 L40.461006218491356,29.21849478455939 L40.37344992404383,29.189190619881092 L40.28709050233906,29.155542759129343 L40.202136000788116,29.117632262947893 L40.11879108222637,29.075550461042617 L40.037256531862795,29.029398732160228 L39.9577287735708,28.979288259858023 L39.88039939668591,28.925339764652932 L39.805454694450304,28.867683213195242 L39.73307521521605,28.806457505167526 L39.6634353274883,28.741810138663162 L39.59670279985634,28.6738968548505 L39.53303839682431,28.602881262778745 L39.472595491515456,28.52893444522943 L39.41551969618285,28.452234546563012 L39.36194851141668,28.37296634355349 L39.31201099489334,28.291320800244993 L39.265827450464144,28.20749460790265 L39.22350913833282,28.121689711166127 L39.18515800701995,28.03411282154728 L39.15086644776001,27.94497491944403 L39.120717071922854,27.854490745870102 L39.094782511995646,27.76287828512512 L39.07312524660485,27.670358239651314 L39.055797449999744,27.57715349834203 L39.04284086636009,27.483488599582863 L39.03428670923073,27.389589190318986 L39.03015558632545,27.295681482451943 L39.03045744988117,27.201991707875322 L39.03519157268214,27.10874557346234 L39.044346549811884,27.01616771731819 L39.0579003261286,26.92448116760719 L39.07582024939799,26.83390680525838 L39.09806314895529,26.74466283184404 L39.12457543970721,26.656964243912974 L39.15529325122313,26.571022315045 L39.19014258160455,26.487044086874377 L39.229039475762136,26.4052318703084 L39.2718902276709,26.325782758142676 L39.31859160611621,26.248888150247332 L39.36903110338683,26.174733292467966 L39.42308720631587,26.103496830352157 L39.4806296890166,26.03535037877673 L39.54151992660808,25.970458108512446 L39.60561122917459,25.908976350722263 L39.67274919515452,25.85105322034587 L39.74277208330724,25.79682825927781 L39.81551120236188,25.746432100198838 L39.89079131740946,25.699986151870363 "/>
			<path d="M39.89079131740947,25.699986151870355 L39.94357324814504,25.67059281612753 L39.997396647943276,25.6431275137513 L40.05220102704291,25.617621111791866 L40.10792479320304,25.594102275777068 L40.164505320923894,25.572597437496437 L40.22187902182892,25.55313076529568 L40.279981416128976,25.535724136914933 L40.33874720508832,25.52039711490132 "/>
			<path d="M1.8053504537706413,1.2064142644498013 L0.9794743919503758,1.6861583304996723 "/>
			<path d="M-0.15359833013011037,-2.1659023965495434 L-0.9794743919503758,-1.6861583304996723 "/>
			<path d="M8.02045481174186,3.311326499924462 L7.194578749921594,3.791070565974333 "/>
			<path d="M34.50156302125853,23.115329850345823 L33.67568695943826,23.595073916395695 "/>
			<path d="M42.67561616313049,28.592558746819833 L41.849740101310225,29.072302812869705 "/>
			<path d="M40.71666737922973,25.22024208582048 L39.890791317409466,25.699986151870352 "/>

       </g>

       <!-- solid lines -->
       <g stroke="rgb(0,0,0)" fill="none">
			<path d="M3.1855219527353085,-4.551521740268749 L44.05578766209515,22.83462274210128 "/>
			<path d="M-2.359645890915042,4.071777674218878 L-2.489753568793176,3.9816767129473973 L-2.617289927261897,3.8874636328131036 L-2.742123251794097,3.7892357333739133 L-2.864124619449638,3.687094460534971 L-2.9831680320218865,3.581145301779313 L-3.0991305461637007,3.471497677224547 L-3.2118924003584723,3.358264826618074 L-3.321337138605102,3.2415636923875315 L-3.427351730689183,3.1215147988672562 L-3.5298266889161436,2.998242127825503 L-3.62865618118582,2.871872990420966 L-3.723738140291687,2.742537895720824 L-3.8149743693318543,2.6103704159161096 L-3.9022706431229524,2.475507048373615 L-3.9855368055121825,2.3380870746668 L-4.0646868624870525,2.198252416731263 L-4.1396390709866,2.0561474902933443 L-4.210316023322409,1.9119190557232648 L-4.276644727122212,1.7657160664668008 L-4.338556680713548,1.6176895152120294 L-4.395987943869584,1.4679922779500156 L-4.448879203844069,1.316778956090523 L-4.497175836627195,1.1642057167957718 L-4.540827963359122,1.0104301316971422 L-4.579790501842911,0.855611014161386 L-4.6140232131036285,0.6999082552744524 L-4.643490742945579,0.5434826587122756 L-4.668162658464728,0.3864957746690689 L-4.688013479478604,0.22910973301463633 L-4.70302270484123,0.0714870758530386 L-4.713174833615892,-0.08620941034447904 L-4.718459381083907,-0.2438168628589532 L-4.718870889572817,-0.401172510921906 L-4.714408934092867,-0.5581138438185818 L-4.70507812277591,-0.714478778722597 L-4.690888092116314,-0.8701058280887106 L-4.6718534970187715,-1.024834266430807 L-4.6479939956632865,-1.1785042963128367 L-4.619334229202986,-1.3309572133813077 L-4.585903796315704,-1.4820355702688968 L-4.547737222635634,-1.6315833391998973 L-4.5048739250966126,-1.7794460731295514 L-4.457358171223866,-1.9254710652508655 L-4.405239033416256,-2.069507506704192 L-4.348570338266228,-2.2114066423266907 L-4.287410610969837,-2.351021924280788 L-4.221823014884231,-2.488209163403009 L-4.151875286295021,-2.6228266781168648 L-4.07763966446091,-2.7547354407560207 L-3.999192817007833,-2.883799221146581 L-3.9166157607496617,-3.0098847273002383 L-3.829993778017225,-3.132861743072997 L-3.7394163285820694,-3.252603262647284 L-3.644976957265942,-3.3689856216985468 L-3.5467731973313805,-3.481888625110894 L-3.4449064697532044,-3.5911956711098734 L-3.339481978474916,-3.696793871684208 L-3.2306086017582194,-3.798574169172074 L-3.118398779737849,-3.896431448891555 L-3.0029683982978175,-3.990264647698952 L-2.8844366693890358,-4.079976858362818 L-2.762926007911914,-4.165475429645929 L-2.6385619052910756,-4.246672061991821 L-2.5114727998727946,-4.323482898717087 "/>
			<path d="M-1.5337698290947768,3.592033608169007 L-1.6638775069729106,3.5019326468975263 L-1.7914138654416316,3.4077195667632325 L-1.9162471899738316,3.309491667324042 L-2.0382485576293727,3.2073503944851 L-2.157291970201621,3.101401235729442 L-2.2732544843434352,2.991753611174676 L-2.386016338538207,2.878520760568203 L-2.4954610767848364,2.7618196263376604 L-2.601475668868918,2.641770732817385 L-2.703950627095878,2.518498061775632 L-2.8027801193655546,2.392128924371095 L-2.8978620784714217,2.262793829670953 L-2.989098307511589,2.1306263498662386 L-3.076394581302687,1.9957629823237437 L-3.159660743691917,1.858343008616929 L-3.238810800666787,1.7185083506813918 L-3.313763009166334,1.5764034242434732 L-3.384439961502143,1.4321749896733937 L-3.450768665301947,1.2859720004169297 L-3.512680618893283,1.1379454491621583 L-3.5701118820493187,0.9882482119001446 L-3.623003142023804,0.8370348900406519 L-3.671299774806929,0.6844616507459007 L-3.714951901538857,0.5306860656472712 L-3.753914440022646,0.37586694811151483 L-3.788147151283363,0.2201641892245813 L-3.8176146811253133,0.0637385926624045 L-3.8422865966444624,-0.0932482913808022 L-3.8621374176583387,-0.2506343330352348 L-3.8771466430209642,-0.40825699019683254 L-3.887298771795627,-0.5659534763943501 L-3.8925833192636414,-0.7235609289088243 L-3.8929948277525517,-0.880916576971777 L-3.8885328722726014,-1.0378579098684528 L-3.8792020609556443,-1.194222844772468 L-3.8650120302960485,-1.3498498941385817 L-3.845977435198506,-1.504578332480678 L-3.822117933843021,-1.6582483623627078 L-3.7934581673827203,-1.8107012794311788 L-3.7600277344954387,-1.9617796363187678 L-3.7218611608153687,-2.1113274052497686 L-3.678997863276347,-2.2591901391794225 L-3.631482109403601,-2.4052151313007366 L-3.579362971595991,-2.549251572754063 L-3.5226942764459626,-2.691150708376562 L-3.4615345491495715,-2.8307659903306592 L-3.395946953063966,-2.96795322945288 L-3.3259992244747556,-3.102570744166736 L-3.2517636026406445,-3.234479506805892 L-3.1733167551875674,-3.363543287196452 L-3.0907396989293963,-3.4896287933501093 L-3.0041177161969594,-3.612605809122868 L-2.913540266761804,-3.732347328697155 L-2.8191008954456764,-3.848729687748418 L-2.720897135511115,-3.961632691160765 L-2.619030407932939,-4.070939737159745 L-2.5136059166546505,-4.176537937734079 L-2.404732539937954,-4.2783182352219455 L-2.2925227179175836,-4.376175514941426 L-2.177092336477552,-4.470008713748824 L-2.0585606075687704,-4.55972092441269 L-1.9370499460916486,-4.645219495695801 L-1.8126858434708102,-4.726416128041692 L-1.6855967380525292,-4.803226964766958 "/>
			<path d="M-1.6855967380524928,-4.80322696476698 L-1.5487362377040124,-4.879405981452872 L-1.4091472606883428,-4.950529699266564 L-1.266990197510856,-5.016516395644513 L-1.1224283894588993,-5.07729025056277 L-0.9756279409194151,-5.1327814336557 L-0.8267575285217008,-5.182926184452456 L-0.6759882073246146,-5.227666885639017 L-0.5234932142709203,-5.2669521292616395 L-0.36944776913459454,-5.300736775795602 L-0.21402887318983632,-5.3289820060114295 L-0.05741510583308407,-5.351655365578946 L0.10021358060825225,-5.368730802357953 L0.2586760676445905,-5.380188696332651 L0.41779027873291397,-5.386015882155429 L0.5773733884863328,-5.386205664274109 L0.7372420327440832,-5.38075782462527 L0.8972125192605889,-5.369678622884807 L1.0571010387714983,-5.352980789275436 L1.2167238761941745,-5.330683509939417 L1.3758976217199732,-5.302812404893302 L1.5344393815557544,-5.269399498590017 L1.6921669880724823,-5.230483183122137 L1.8488992091194425,-5.186108174108605 L2.004455956263585,-5.136325459315604 L2.1586584917147063,-5.081192240070596 L2.311329633698719,-5.020771865536865 L2.462293960043027,-4.955133759924067 L2.6113780097400836,-4.884353342718442 L2.7584104822575313,-4.808511942024317 L2.903222434365918,-4.727696701116513 L3.0456474742578132,-4.642000478310978 L3.1855219527352983,-4.551521740268755 "/>
			<path d="M43.381738509232605,31.709627381087138 L43.24487800888413,31.78580639777303 L43.10528903186846,31.85693011558672 L42.96313196869097,31.92291681196467 L42.81857016063901,31.983690666882925 L42.67176971209953,32.039181849975854 L42.52289929970182,32.08932660077261 L42.37212997850473,32.13406730195918 L42.21963498545104,32.17335254558179 L42.06558954031471,32.20713719211576 L41.91017064436995,32.23538242233158 L41.7535568770132,32.2580557818991 L41.59592819057186,32.27513121867811 L41.43746570353552,32.286589112652806 L41.27835149244721,32.29241629847559 L41.11876838269379,32.29260608059427 L40.95889973843603,32.28715824094543 L40.798929251919525,32.276079039204966 L40.63904073240862,32.259381205595595 L40.47941789498594,32.23708392625957 L40.320244149460144,32.20921282121346 L40.16170238962436,32.17579991491017 L40.00397478310764,32.13688359944229 L39.84724256206068,32.092508590428764 L39.69168581491653,32.04272587563576 L39.53748327946541,31.987592656390753 L39.3848121374814,31.927172281857022 L39.23384781113709,31.861534176244227 L39.08476376144004,31.7907537590386 L38.937731288922585,31.714912358344478 L38.7929193368142,31.634097117436674 L38.650494296922304,31.548400894631136 L38.510619818444844,31.457922156588936 "/>
			<path d="M44.055787662095156,22.834622742101278 L44.18589533997329,22.92472370337276 L44.31343169844202,23.018936783507055 L44.438265022974214,23.117164682946246 L44.56026639062976,23.219305955785188 L44.67930980320201,23.325255114540848 L44.79527231734382,23.434902739095612 L44.90803417153859,23.548135589702085 L45.01747890978522,23.66483672393263 L45.123493501869305,23.784885617452908 L45.22596846009626,23.908158288494658 L45.32479795236594,24.034527425899192 L45.4198799114718,24.163862520599338 L45.51111614051197,24.296030000404052 L45.59841241430307,24.430893367946545 L45.6816785766923,24.568313341653358 L45.760828633667174,24.708147999588896 L45.83578084216672,24.850252926026815 L45.90645779450253,24.994481360596893 L45.97278649830233,25.140684349853355 L46.03469845189367,25.28871090110813 L46.0921297150497,25.438408138370146 L46.14502097502419,25.589621460229637 L46.19331760780731,25.742194699524386 L46.23696973453924,25.89597028462302 L46.27593227302303,26.050789402158777 L46.310164984283745,26.206492161045706 L46.3396325141257,26.36291775760788 L46.36430442964485,26.51990464165109 L46.38415525065872,26.677290683305525 L46.39916447602135,26.83491334046712 L46.40931660479601,26.992609826664637 L46.41460115226403,27.150217279179113 L46.415012660752936,27.307572927242067 L46.41055070527298,27.46451426013874 L46.401219893956025,27.620879195042754 L46.38702986329643,27.776506244408868 L46.36799526819889,27.931234682750965 L46.3441357668434,28.084904712632994 L46.3154760003831,28.237357629701464 L46.28204556749582,28.388435986589055 L46.24387899381575,28.537983755520056 L46.20101569627673,28.68584648944971 L46.15349994240398,28.83187148157102 L46.101380804596374,28.97590792302435 L46.044712109446344,29.11780705864685 L45.98355238214995,29.257422340600947 L45.917964786064346,29.394609579723163 L45.84801705747514,29.529227094437022 L45.77378143564103,29.66113585707618 L45.69533458818795,29.79019963746674 L45.61275753192978,29.916285143620392 L45.52613554919734,30.039262159393154 L45.43555809976218,30.159003678967444 L45.341118728446055,30.275386038018706 L45.2429149685115,30.38828904143105 L45.14104824093332,30.49759608743003 L45.03562374965503,30.603194288004367 L44.926750372938336,30.70497458549223 L44.81454055091797,30.80283186521171 L44.69911016947793,30.89666506401911 L44.58057844056915,30.986377274682976 L44.45906777909203,31.071875845966087 L44.33470367647119,31.153072478311977 L44.20761457105289,31.229883315037256 "/>
			<path d="M44.20761457105287,31.229883315037263 L44.070754070704396,31.306062331723158 L43.931165093688726,31.37718604953685 L43.78900803051124,31.443172745914797 L43.64444622245928,31.503946600833054 L43.4976457739198,31.559437783925986 L43.34877536152209,31.60958253472274 L43.198006040325,31.654323235909303 L43.045511047271305,31.693608479531925 L42.89146560213498,31.727393126065888 L42.736046706190216,31.755638356281715 L42.57943293883347,31.77831171584923 L42.42180425239213,31.795387152628237 L42.26334176535579,31.806845046602938 L42.104227554267474,31.81267223242571 L41.944644444514054,31.812862014544393 L41.7847758002563,31.807414174895555 L41.62480531373979,31.79633497315509 L41.464916794228884,31.77963713954572 L41.30529395680621,31.757339860209704 L41.14612021128041,31.729468755163587 L40.98757845144463,31.696055848860304 L40.829850844927904,31.657139533392424 L40.673118623880946,31.61276452437889 L40.5175618767368,31.562981809585892 L40.36335934128568,31.50784859034088 L40.210688199301664,31.44742821580715 L40.059723872957356,31.381790110194352 L39.910639823260304,31.31100969298873 L39.76360735074285,31.235168292294603 L39.61879539863447,31.1543530513868 L39.47637035874257,31.06865682858127 L39.33649588026511,30.97817809053906 "/>
			<path d="M38.5106198184448,31.457922156588907 L-2.35964589091504,4.071777674218875 "/>
			<path d="M1.5939403626650341,1.0680596348124303 L1.5414870755119132,1.1529116521857532 L1.4844634599397293,1.2343454217045464 L1.4230385842818771,1.3121195017913783 L1.3573945660918056,1.3860033014188282 "/>
			<path d="M-0.5315185042715337,-1.8657473674687053 L-0.46543321073124716,-1.88033593059264 L-0.39870035603260223,-1.8923083664500995 L-0.3314127861601419,-1.901648017689925 L-0.26366411887831664,-1.908341889976439 L-0.1955486134802985,-1.9123806700685757 L-0.1271610396442293,-1.913758738777471 L-0.05859654557936811,-1.912474178784487 L0.010049474354417498,-1.9085287773087947 L0.07868151236962972,-1.901928023620801 L0.14720408013193187,-1.8926811014048786 L0.21552184161387566,-1.8808008759820303 L0.28353974573672003,-1.8663038764102584 L0.3511631586158016,-1.849210272487547 L0.4182979952254572,-1.8295438466894514 L0.48485085030031516,-1.8073319610803376 L0.5507291282908306,-1.7826055192443142 L0.6158411721922546,-1.7553989232888116 L0.6800963910677998,-1.7257500259806413 L0.7434053860885778,-1.69370007808112 L0.8056800749149414,-1.6592936709535375 L0.8668338142461927,-1.622578674522818 L0.9267815203681344,-1.5836061706736861 L0.9854397875307643,-1.5424303821800112 L1.0427270039913974,-1.4991085972642026 L1.0985634655617744,-1.4537010898916236 L1.152871486501171,-1.4062710359109118 L1.2055755076012276,-1.3568844251568892 L1.2566022013121096,-1.3056099696383467 L1.3058805737637538,-1.2525190079384458 L1.3533420635402331,-1.197685405960744 L1.3989206370698377,-1.1411854541589417 L1.4425528804981398,-1.083097761393327 L1.4841780879162256,-1.0235031455616057 L1.523738345821339,-0.9624845211562767 L1.561178613692426,-0.9001267839049982 L1.5964468005684802,-0.8365166926544444 L1.629493837523133,-0.77174274866199 L1.6602737459346673,-0.7058950724631617 L1.6887437014564628,-0.639065278486177 L1.7148640935988702,-0.5713463475880162 L1.7385985808396205,-0.5028324976893686 L1.759914141186092,-0.4336190526884452 L1.7787811181190873,-0.36380230983603423 L1.7951732618542,-0.29347940575632137 L1.8090677658633605,-0.22274818129988416 L1.8204452986057513,-0.15170704541689006 L1.8292900304239437,-0.0804548382398923 L1.835589655567833,-0.00909069356671921 L1.8393354093157337,0.06228609906521709 L1.8405220801688094,0.13357623252129258 L1.8391480171018766,0.20468052023652605 L1.83521513186049,0.2755000342146874 L1.8287288963011123,0.3459362426676508 L1.8196983347780775,0.4158911471035073 L1.8081360115879288,0.48526741867269263 L1.794058013488606,0.5539685335824387 L1.7774839273178042,0.6218989073911425 L1.7584368127416408,0.688964027995807 L1.7369431701715476,0.7550705871275264 L1.713032903894024,0.8201266101720719 L1.6867392804645507,0.8840415841349478 L1.65809888242355,0.9467265835728865 L1.6271515573987876,1.0080943943165679 L1.5939403626650375,1.0680596348124247 "/>
			<path d="M9.094315039328835,3.8892356035286433 L33.616474464944744,20.320922292950662 "/>
			<path d="M7.642534637600434,3.6114815290052995 L7.733116466388987,3.5921802146823043 L7.8248464910362685,3.577787553257292 L7.91748584723301,3.5683410231147183 L8.010793302777277,3.5638652229495715 L8.104525885741348,3.5643718077125492 L8.19843951716883,3.569859458260657 L8.292289646654464,3.580313884792243 L8.385831889151579,3.595707864057538 L8.478822661348959,3.616001310247798 L8.571019815959986,3.641141379378454 L8.662183272272404,3.671062606894461 L8.752075641316718,3.7056870781395137 L8.840462844025327,3.7449246312452433 L8.927114720772693,3.788673091912056 L9.011805630709313,3.836818539470258 L9.094315039328832,3.8892356035286397 "/>
			<path d="M33.616474464944744,20.320922292950655 L33.70408352213119,20.383069905759026 L33.788544605783535,20.449983328908566 L33.86959391104186,20.521453565717525 L33.94697828935899,20.597257386800322 L34.02045603918199,20.677158027299857 L34.089797660880244,20.76090592639637 L34.15478657356222,20.848239506783088 L34.215219791541905,20.93888599167402 L34.27090855834219,21.03256225679212 L34.32167893625486,21.128975714676645 L34.36737234961578,21.227825228547786 L34.40784608009849,21.328802052874092 L34.44297371247909,21.431590797705017 L34.47264552948024,21.535870413756584 L34.49676885446095,21.641315195173334 L34.51526834088184,21.747595796834556 L34.528086207641664,21.8543802630274 L34.53518241955028,21.96133506427383 L34.53653481237408,22.06812613907309 L34.532139162063544,22.1744199373059 L34.5220091979466,22.279884462041363 L34.50617655984659,22.38419030649271 L34.48469069925872,22.48701168288296 L34.45761872489389,22.588027440007078 L34.425045193071945,22.686922066312224 L34.38707184361941,22.783386675363243 L34.34381728209638,22.877119970615308 L34.29541660934517,22.967829186480365 L34.24202099951772,23.05523100274809 L34.18379722789991,23.139052429505274 L34.120927150007326,23.21903165978961 L34.05360713357969,23.294918887314836 "/>
			<path d="M42.464206072024886,28.45420411718246 L42.41175278487176,28.539056134555782 L42.354729169299574,28.620489904074578 L42.293304293641725,28.69826398416141 L42.22766027545165,28.772147783788864 "/>
			<path d="M40.33874720508832,25.52039711490132 L40.40483249862861,25.50580855177739 L40.47156535332725,25.49383611591993 L40.53885292319971,25.484496464680102 L40.60660159048154,25.477802592393587 L40.67471709587955,25.473763812301453 L40.74310466971562,25.472385743592557 L40.811669163780486,25.473670303585543 L40.880315183714266,25.477615705061233 L40.94894722172948,25.484216458749227 L41.017469789491784,25.49346338096515 L41.08578755097373,25.505343606388 L41.153805455096574,25.51984060595977 L41.22142886797565,25.53693420988248 L41.28856370458531,25.556600635680578 L41.35511655966017,25.57881252128969 L41.42099483765068,25.603538963125715 L41.486106881552104,25.630745559081216 L41.55036210042765,25.660394456389387 L41.61367109544843,25.69244440428891 L41.675945784274795,25.72685081141649 L41.73709952360604,25.76356580784721 L41.79704722972799,25.802538311696342 L41.855705496890614,25.843714100190017 L41.91299271335125,25.887035885105828 L41.96882917492162,25.932443392478405 L42.02313719586102,25.979873446459116 L42.07584121696108,26.02926005721314 L42.12686791067196,26.08053451273168 L42.1761462831236,26.133625474431582 L42.22360777290008,26.188459076409284 L42.269186346429684,26.24495902821109 L42.31281858985799,26.303046720976702 L42.354443797276076,26.362641336808423 L42.39400405518119,26.42365996121375 L42.431444323052276,26.48601769846503 L42.46671250992833,26.549627789715586 L42.499759546882984,26.61440173370804 L42.530539455294516,26.680249409906867 L42.559009410816316,26.747079203883853 L42.58512980295872,26.814798134782013 L42.60886429019947,26.88331198468066 L42.63017985054594,26.952525429681582 L42.649046827478934,27.022342172533996 L42.66543897121405,27.092665076613706 L42.67933347522321,27.163396301070144 L42.690711007965604,27.23443743695314 L42.69955573978379,27.305689644130137 L42.70585536492768,27.37705378880331 L42.709601118675586,27.448430581435247 L42.71078778952866,27.51972071489132 L42.709413726461726,27.590825002606554 L42.705480841220336,27.661644516584715 L42.698994605660964,27.73208072503768 L42.68996404413792,27.802035629473536 L42.678401720947775,27.87141190104272 L42.66432372284846,27.940113015952466 L42.64774963667765,28.00804338976117 L42.62870252210149,28.075108510365837 L42.6072088795314,28.141215069497555 L42.583298613253874,28.2062710925421 L42.5570049898244,28.270186066504976 L42.5283645917834,28.332871065942914 L42.49741726675864,28.394238876686597 L42.464206072024886,28.454204117182453 "/>
			<path d="M39.33649588026507,30.978178090539036 L-1.5337698290947728,3.592033608169004 "/>
			<path d="M2.4198164244852993,0.5883155687625596 L2.4566180603353116,0.5215244116810773 L2.49061248717791,0.4530096405073069 L2.5217411859700314,0.382889198657776 L2.5499505708202737,0.3112837935994807 L2.575192081233281,0.238316689060369 L2.5974222657032624,0.16411349283940185 L2.6166028565127393,0.08880194058145802 L2.632700835607759,0.01251167588929819 L2.645688491436183,-0.06462597284888555 L2.655543466651197,-0.14247821853216264 L2.6622487965979276,-0.22091104393062894 L2.6657929385169186,-0.29978943238675343 L2.6661697914141884,-0.37897760023716903 L2.663378706563667,-0.45833923055481224 L2.657424488623933,-0.5377377078090393 L2.648317387367329,-0.617036353039766 L2.636073080035687,-0.6960986591407972 L2.6207126443530515,-0.7747885258473239 L2.6022625222418387,-0.8529704940230685 L2.580754474304907,-0.9305099788437722 L2.5562255251518846,-1.007273501475618 L2.5287178996638793,-1.0831289188497641 L2.4982789503062808,-1.1579456511374528 L2.464961075614779,-1.23159490653411 L2.428821629994933,-1.3039499029654857 L2.3899228249905407,-1.374886086334182 L2.3483316221907975,-1.4442813449308756 L2.304119617960569,-1.5120162196411375 L2.2573629201922287,-1.5779741095859963 L2.208142017291209,-1.6420414728422466 L2.156541639620805,-1.7041080218969782 L2.1026506136447476,-1.7640669134998646 L2.0465617090186137,-1.8218149325863915 L1.988371478893316,-1.8772526699554182 L1.9281800937055644,-1.9302846933952056 L1.866091168741419,-1.9808197119633382 L1.8022115857697805,-2.0287707331377347 L1.7366513090528488,-2.07405521256823 L1.669523196050294,-2.116595196170935 L1.6009428031429813,-2.156317454320774 L1.5310281867106907,-2.193153607911197 L1.4598996999062663,-2.2270402460640577 L1.387679785476032,-2.2579190352870304 L1.3144927649831084,-2.2857368198906665 L1.2404646247964866,-2.3104457134922165 L1.1657227992142496,-2.3320031814487114 L1.0903959510942838,-2.350372114077394 L1.014613750370112,-2.365520890537457 L0.9385066508331185,-2.377423433263125 L0.8622056655654126,-2.3860592528543694 L0.7858421414099107,-2.3914134833479874 L0.7095475328658783,-2.393476907808325 L0.6334531757991474,-2.3922459741935893 L0.5576900613565489,-2.3877228014704435 L0.48238861047375914,-2.3799151759663513 L0.40767844936472464,-2.368836537965959 L0.3336881863791414,-2.3545059585745736 L0.2605451906121221,-2.336948106888585 L0.18837537264715243,-2.316193207529331 L0.1173029678097709,-2.2922769886135117 L0.047450322305091164,-2.2652406202497173 L-0.02106231739268516,-2.2351306436669525 L-0.08811701153621909,-2.2019988910971406 L-0.15359833013010316,-2.1659023965495474 "/>
			<path d="M-0.15359833013011004,-2.1659023965495434 L-0.22887844517769973,-2.1194564482210634 L-0.3016175642323484,-2.06906028914209 L-0.3716404523850583,-2.0148353280740277 L-0.4387784183649883,-1.956912197697635 L-0.5028697209315023,-1.8954304399074555 L-0.563759958522982,-1.8305381696431722 L-0.6213024412237154,-1.7623917180677426 L-0.6753585441527501,-1.6911552559519358 L-0.7257980414233742,-1.6170003981725662 L-0.7724994198686841,-1.540105790277224 L-0.8153501717774483,-1.4606566781115 L-0.8542470659350354,-1.3788444615455222 L-0.8890963963164547,-1.294866233374902 L-0.9198142078323763,-1.2089243045069251 L-0.9463264985842961,-1.1212257165758597 L-0.9685693981415899,-1.0319817431615212 L-0.9864893214109764,-0.9414073808127121 L-1.0000430977277,-0.849720831101709 L-1.0091980748574425,-0.7571429749575593 L-1.0139321976584177,-0.6638968405445766 L-1.0142340612141378,-0.5702070659679577 L-1.0101029383088567,-0.47629935810091334 L-1.0015487811794967,-0.3823999488370388 L-0.9885921975398388,-0.28873505007786776 L-0.9712644009347329,-0.19553030876858685 L-0.9496071355439368,-0.10301026329478163 L-0.9236725756167297,-0.011397802549797331 L-0.8935231997795738,0.07908637102412902 L-0.8592316405196356,0.16822427312737892 L-0.8208805092067584,0.25580116274622583 L-0.7785621970754368,0.34160605948274986 L-0.7323786526462417,0.4254322518250914 L-0.6824411361229035,0.5070777951335907 L-0.6288699513567368,0.5863459981431127 L-0.5717941560241253,0.6630458968095325 L-0.5113512507152731,0.7369927143588464 L-0.4476868476832434,0.8080083064306007 L-0.3809543200512846,0.8759215902432618 L-0.31131443232354017,0.9405689567476254 L-0.23893495308928014,1.0017946647753417 L-0.16399025085367347,1.0594512162330338 L-0.08666087396878608,1.1133997114381222 L-0.007133115676787316,1.1635101837403279 L0.07440143468678839,1.2096619126227157 L0.15774635324853203,1.2517437145279944 L0.24270085479947612,1.2896542107094429 L0.3290602765042481,1.3233020714611934 L0.4166165709517716,1.352606236139491 L0.5051588073596951,1.377496108444883 L0.594473679725126,1.3979117264948902 L0.6843460206974791,1.4138039072774333 L0.7745593199354646,1.425134365137017 L0.8648962456994662,1.4318758040082264 L0.9551391684227383,1.4340119831743405 L1.0450706850000944,1.4315377563926415 L1.1344741425310283,1.4244590842921623 L1.223134160255531,1.4127930200140115 L1.3108371484252028,1.3965676681288626 L1.3973718228596694,1.375822116930579 L1.4825297139486766,1.3506063442690928 L1.5661056688736397,1.320981097149387 L1.6478983458387533,1.287017745386638 L1.7277106991210183,1.2487981096700809 L1.8053504537706269,1.2064142644498093 "/>
			<path d="M1.805350453770641,1.206414264449801 L1.8981557448605084,1.1483438485545834 L1.9870043820346812,1.084265876492536 L2.0715685186373483,1.0144167925077114 L2.1515361175875976,0.9390543359343775 L2.226612102779336,0.858456590152844 L2.296519447896126,0.7729209564768607 L2.3610001986232794,0.6827630567588858 L2.419816424485299,0.5883155687625603 "/>
			<path d="M9.9201911011491,3.409491537478772 L34.44235052676501,19.84117822690079 "/>
			<path d="M8.079667306235368,6.585478123369495 L7.979186132060095,6.513595647221243 L7.882920602106876,6.435451670032772 L7.791268290688391,6.351368924541706 L7.704607719636245,6.26169467045527 L7.623296795014938,6.166799260276079 L7.547671328978477,6.067074609755254 L7.478043652874283,5.962932579289843 L7.414701327322284,5.854803272949326 L7.357905954596495,5.743133262156206 L7.3078920982139515,5.628383741356824 L7.264866314193047,5.5110286232994365 L7.229006297982177,5.391552581786018 L7.2004601505818195,5.27044904998117 L7.17934576689099,5.14821818254507 L7.1657503488041545,5.025364790006818 L7.1597300450695105,4.902396253909141 L7.161309719396017,4.779820431334886 L7.170482847766872,4.658143557469535 L7.187211545383553,4.537868154862126 L7.21142672312911,4.419490958019264 L7.243028372904556,4.303500861903608 L7.281885980659895,4.190376902809498 L7.327839065413999,4.080586279954626 L7.380697842037176,3.974582425958556 L7.44024400505918,3.872803134176966 L7.506231630265517,3.7756687506256643 L7.578388190358517,3.6835804379617 L7.656415680488484,3.5969185186912824 L7.697531232087018,3.555735220467292 L7.739991849006529,3.516040904447024 L7.783753679594474,3.4778765653564268 L7.828771528356086,3.4412816178215415 L7.8749989026305105,3.406293855662634 L7.922388060606588,3.372949412862221 L7.970890060628715,3.341282726247323 L8.020454811741844,3.311326499924469 "/>
			<path d="M8.020454811741859,3.311326499924461 L8.073830406877766,3.2816166834169627 L8.128270107913877,3.253878433469623 L8.183711362553098,3.2281436218822233 L8.24009046769336,3.204441818464103 L8.297342642623759,3.1828002570578597 L8.355402103458868,3.1632438042471254 L8.41420213872573,3.1457949307843664 L8.473675186016672,3.130473685771544 L8.533752909619839,3.1172976736232982 L8.594366279038296,3.1062820338391255 L8.655445648307428,3.0974394236077942 L8.716920836019549,3.0907800032639816 L8.778721205963722,3.086311424613849 L8.840775748288168,3.0840388221429658 L8.903013161092,3.0839648071166805 L8.965361932352524,3.0860894645797274 L9.02775042209396,3.090410353258508 L9.090106944703216,3.096922508366163 L9.152359851298058,3.10561844730721 L9.214437612053121,3.116488178275195 L9.276268898389075,3.1295192117334762 L9.337782664930598,3.1446965747659497 L9.398908231138913,3.1620028282812274 L9.459575362525129,3.1814180870504973 L9.519714351351066,3.202920042556051 L9.579256096724832,3.226483988624206 L9.638132183999112,3.252082849813197 L9.696274963380963,3.279687212523391 L9.753617627662768,3.309265358794099 L9.810094288985038,3.3407833027481426 L9.865640054542878,3.3742048296423013 L9.920191101149097,3.409491537478768 "/>
			<path d="M34.44235052676501,19.841178226900784 L34.54283170094028,19.913060703049037 L34.639097230893505,19.99120468023751 L34.73074954231199,20.075287425728575 L34.81741011336413,20.16496167981501 L34.89872103798544,20.259857089994203 L34.9743465040219,20.359581740515026 L35.04397418012609,20.46372377098044 L35.10731650567809,20.571853077320956 L35.16411187840389,20.683523088114075 L35.21412573478643,20.798272608913457 L35.25715151880733,20.915627726970843 L35.2930115350182,21.035103768484262 L35.32155768241856,21.15620730028911 L35.34267206610939,21.27843816772521 L35.35626748419622,21.401291560263463 L35.36228778793087,21.52426009636114 L35.36070811360436,21.646835918935395 L35.351534985233506,21.768512792800745 L35.33480628761683,21.888788195408154 L35.31059110987127,22.007165392251018 L35.27898946009582,22.12315548836667 L35.24013185234048,22.23627944746078 L35.19417876758638,22.346070070315655 L35.141319990963204,22.452073924311723 L35.0817738279412,22.553853216093312 L35.01578620273486,22.650987599644615 L34.94362964264186,22.74307591230858 L34.86560215251189,22.829737831578996 L34.82448660091336,22.870921129802987 L34.78202598399385,22.910615445823257 L34.73826415340591,22.948779784913853 L34.69324630464429,22.98537473244874 L34.64701893036987,23.020362494607646 L34.59962977239379,23.05370693740806 L34.551127772371665,23.085373624022957 L34.50156302125853,23.115329850345816 "/>
			<path d="M34.50156302125852,23.11532985034582 L34.448187426122615,23.145039666853318 L34.3937477250865,23.172777916800655 L34.33830647044728,23.198512728388057 L34.28192736530702,23.222214531806177 L34.22467519037662,23.24385609321242 L34.16661572954151,23.263412546023154 L34.10781569427465,23.280861419485912 L34.048342646983706,23.296182664498737 L33.98826492338054,23.30935867664698 L33.927651553962086,23.320374316431156 L33.86657218469295,23.329216926662486 L33.80509699698083,23.335876347006298 L33.743296627036656,23.34034492565643 L33.68124208471221,23.342617528127313 L33.61900467190838,23.3426915431536 L33.556655900647854,23.340566885690553 L33.49426741090642,23.336245997011773 L33.43191088829716,23.329733841904115 L33.36965798170232,23.32103790296307 L33.30758022094726,23.310168171995084 L33.245748934611306,23.297137138536804 L33.18423516806978,23.28195977550433 L33.123109601861465,23.264653521989054 L33.06244247047525,23.245238263219782 L33.002303481649314,23.22373630771423 L32.94276173627555,23.200172361646075 L32.88388564900127,23.174573500457083 L32.82574286961942,23.14696913774689 L32.76840020533761,23.11739099147618 L32.71192354401534,23.08587304752214 L32.656377778457504,23.05245152062798 L32.60182673185129,23.01716481279152 "/>
			<path d="M32.601826731851276,23.017164812791513 L8.079667306235368,6.585478123369494 "/>
			<path d="M43.29008213384515,27.97446005113259 L43.326883769695165,27.907668894051106 L43.36087819653776,27.839154122877336 L43.392006895329885,27.769033681027803 L43.42021628018013,27.697428275969507 L43.44545779059313,27.624461171430397 L43.467687975063114,27.55025797520943 L43.48686856587259,27.474946422951486 L43.502966544967606,27.398656158259325 L43.51595420079603,27.32151850952114 L43.525809176011045,27.243666263837866 L43.53251450595778,27.165233438439397 L43.53605864787677,27.086355049983275 L43.53643550077404,27.007166882132857 L43.53364441592352,26.927805251815215 L43.52769019798379,26.84840677456099 L43.51858309672718,26.769108129330263 L43.506338789395535,26.69004582322923 L43.490978353712904,26.611355956522704 L43.47252823160169,26.53317398834696 L43.45102018366476,26.455634503526255 L43.42649123451174,26.37887098089441 L43.39898360902373,26.303015563520262 L43.36854465966613,26.228198831232575 L43.33522678497463,26.15454957583592 L43.299087339354784,26.082194579404543 L43.26018853435039,26.011258396035846 L43.21859733155065,25.941863137439153 L43.17438532732042,25.87412826272889 L43.12762862955208,25.80817037278403 L43.07840772665106,25.74410300952778 L43.026807348980654,25.68203646047305 L42.9729163230046,25.622077568870164 L42.91682741837847,25.564329549783636 L42.85863718825317,25.50889181241461 L42.79844580306541,25.455859788974823 L42.73635687810127,25.40532477040669 L42.67247729512963,25.357373749232295 L42.6069170184127,25.3120892698018 L42.53978890541015,25.269549286199094 L42.471208512502834,25.229827028049254 L42.40129389607054,25.19299087445883 L42.330165409266115,25.15910423630597 L42.25794549483588,25.128225447082997 L42.184758474342956,25.100407662479363 L42.11073033415634,25.07569876887781 L42.0359885085741,25.054141300921316 L41.960661660454136,25.035772368292633 L41.884879459729966,25.02062359183257 L41.80877236019297,25.008721049106903 L41.73247137492526,25.00008522951566 L41.656107850769764,24.99473099902204 L41.57981324222573,24.992667574561704 L41.503718885158996,24.99389850817644 L41.4279557707164,24.998421680899586 L41.35265431983361,25.006229306403675 L41.27794415872457,25.01730794440407 L41.20395389573899,25.031638523795454 L41.130810899971976,25.049196375481444 L41.058641082007,25.069951274840697 L40.98756867716962,25.093867493756516 L40.917716031664945,25.12090386212031 L40.849203391967166,25.151013838703076 L40.78214869782363,25.184145591272888 L40.71666737922975,25.22024208582048 "/>
			<path d="M40.71666737922974,25.220242085820484 L40.64138726418215,25.266688034148963 L40.568648145127504,25.317084193227938 L40.49862525697479,25.371309154296 L40.43148729099486,25.42923228467239 L40.36739598842835,25.49071404246257 L40.30650575083687,25.555606312726855 L40.24896326813614,25.623752764302285 L40.1949071652071,25.69498922641809 L40.144467667936475,25.76914408419746 L40.09776628949117,25.846038692092804 L40.0549155375824,25.925487804258527 L40.016018643424815,26.007300020824506 L39.981169313043395,26.091278248995124 L39.950451501527475,26.177220177863102 L39.92393921077556,26.264918765794167 L39.90169631121826,26.354162739208505 L39.88377638794888,26.444737101557315 L39.87022261163215,26.53642365126832 L39.861067634502405,26.629001507412468 L39.856333511701436,26.72224764182545 L39.856031648145716,26.815937416402072 L39.860162771050994,26.909845124269115 L39.868716928180355,27.003744533532988 L39.88167351182001,27.09740943229216 L39.89900130842512,27.190614173601443 L39.92065857381591,27.283134219075247 L39.94659313374312,27.37474667982023 L39.976742509580276,27.465230853394157 L40.01103406884022,27.554368755497407 L40.04938520015309,27.641945645116255 L40.09170351228441,27.727750541852778 L40.13788705671361,27.811576734195118 L40.187824573236945,27.893222277503618 L40.241395758003115,27.97249048051314 L40.29847155333572,28.04919037917956 L40.35891445864458,28.123137196728873 L40.422578861676605,28.19415278880063 L40.48931138930857,28.26206607261329 L40.55895127703631,28.326713439117654 L40.63133075627057,28.38793914714537 L40.70627545850618,28.44559569860306 L40.78360483539107,28.49954419380815 L40.86313259368306,28.549654666110357 L40.94466714404664,28.595806394992742 L41.02801206260838,28.63788819689802 L41.11296656415933,28.67579869307947 L41.1993259858641,28.70944655383122 L41.28688228031162,28.738750718509518 L41.37542451671955,28.763640590814912 L41.464739389084976,28.784056208864918 L41.55461173005733,28.79994838964746 L41.64482502929531,28.811278847507044 L41.73516195505932,28.818020286378253 L41.82540487778259,28.82015646554437 L41.91533639435995,28.817682238762668 L42.00473985189088,28.81060356666219 L42.09339986961538,28.79893750238404 L42.181102857785056,28.78271215049889 L42.26763753221952,28.761966599300607 L42.35279542330853,28.73675082663912 L42.43637137823349,28.707125579519413 L42.5181640551986,28.673162227756666 L42.59797640848087,28.634942592040108 L42.67561616313048,28.592558746819837 "/>
			<path d="M42.67561616313049,28.59255874681983 L42.76842145422036,28.53448833092461 L42.85727009139453,28.470410358862562 L42.9418342279972,28.400561274877738 L43.021801826947446,28.325198818304404 L43.096877812139184,28.244601072522872 L43.16678515725598,28.159065438846888 L43.23126590798313,28.068907539128915 L43.29008213384515,27.97446005113259 "/>
			<path d="M-2.359645890915043,4.071777674218877 L-1.5337698290947777,3.592033608169006 "/>
			<path d="M38.5106198184448,31.457922156588907 L39.33649588026507,30.978178090539036 "/>
			<path d="M9.094315039328835,3.8892356035286433 L9.9201911011491,3.409491537478772 "/>
			<path d="M33.616474464944744,20.32092229295066 L34.44235052676501,19.841178226900787 "/>
			<path d="M-1.6855967380524932,-4.80322696476698 L-2.5114727998727586,-4.323482898717108 "/>
			<path d="M44.20761457105287,31.229883315037267 L43.381738509232605,31.709627381087138 "/>

       </g>
    </g>
    <g transform="translate(20,210.0)" stroke="rgb(0,0,255)">
        <line x1="30" y1="-30" x2="75" y2="-33" stroke-width="3" stroke="#000000"/>
         <text x="80" y="-30" style="stroke:#000000">X </text>

        <line x1="30" y1="-30" x2="30" y2="-75" stroke-width="3" stroke="#000000"/>
         <text x="25" y="-85" style="stroke:#000000">Y </text>

        <line x1="30" y1="-30" x2="58" y2="-15" stroke-width="3" stroke="#000000"/>
         <text x="65" y="-5" style="stroke:#000000">Z </text>
        <!--
            <line x1="0" y1="0" x2="4.777065241928987" y2="0" stroke-width="3" />
            <text x="0" y="20" style="stroke:#000000">1  mm </text>
        -->
    </g>
</svg>