<svg xmlns:svg="http://www.w3.org/2000/svg" xmlns="http://www.w3.org/2000/svg" width="400.0" height="50.0">
    <g transform="scale(3.75, -3.75)   translate(5.0,-5.0)" stroke-width="0.26666666666666666" fill="none">
       <!-- hidden lines -->
       <g stroke="rgb(160,160,160)" fill="none" stroke-dasharray="0.26666666666666666,0.26666666666666666">
			<path d="M0.0,-5.0 L40.0,-5.0 "/>
			<path d="M3.061616997868383e-16,5.0 L-0.1987825754846274,4.996046986136509 L-0.39725083485857066,4.98419419507348 L-0.5950909590095222,4.964460368509867 L-0.7919901220360728,4.936876709681667 L-0.9876369858897609,4.901486834023181 L-1.1817221926645216,4.858346700202051 L-1.3739388537551234,4.807524521637103 L-1.563983035111132,4.749100658638914 L-1.7515542378191173,4.683167491343641 L-1.9363558732532007,4.609829273641035 L-2.1180957320426366,4.529201968327618 L-2.2964864461148866,4.441413063745661 L-2.471245943083612,4.346601372197914 L-2.6420978922630955,4.244916810456821 L-2.808772141603853,4.136520162715287 L-2.9710051448585517,4.021582826353825 L-3.1285403783027994,3.9002865409260608 L-3.2811287463518783,3.77282310079115 L-3.4285289754320667,3.6393940518474692 L-3.5705079954837498,3.5002103728471257 L-3.7068413084930922,3.3554921417951817 L-3.8373133434695417,3.205468187961098 L-3.9617177973078737,3.050375730052619 L-4.079857960995808,2.890460001124238 L-4.191547030651385,2.7259738608133337 L-4.2966084028983085,2.5571773955171055 L-4.394875954112171,2.3843375071425243 L-4.486194303096064,2.207727491079553 L-4.570419056770176,2.027626604064962 L-4.647417038486939,1.8443196226200311 L-4.717066498610675,1.65809639276033 L-4.779257307028807,1.469251371689595 L-4.8338911272901885,1.2780831622023632 L-4.880881572095256,1.0848940405315792 L-4.920154339892106,0.8899894783877395 L-4.951647332362511,0.6936776599453287 L-4.975310752612138,0.49626899454029477 L-4.991107183909666,0.29807562584908553 L-4.9990116488503284,0.09941093832533625 L-4.999011648850328,-0.0994109383253661 L-4.991107183909664,-0.29807562584911534 L-4.975310752612136,-0.4962689945403245 L-4.951647332362507,-0.6936776599453582 L-4.9201543398921,-0.8899894783877689 L-4.88088157209525,-1.0848940405316085 L-4.833891127290181,-1.278083162202392 L-4.779257307028798,-1.4692513716896236 L-4.717066498610666,-1.6580963927603585 L-4.647417038486927,-1.8443196226200589 L-4.570419056770164,-2.0276266040649897 L-4.486194303096051,-2.2077274910795794 L-4.394875954112157,-2.3843375071425505 L-4.296608402898293,-2.5571773955171317 L-4.191547030651369,-2.725973860813359 L-4.07985796099579,-2.8904600011242625 L-3.9617177973078554,-3.050375730052642 L-3.837313343469523,-3.2054681879611207 L-3.7068413084930723,-3.355492141795204 L-3.5705079954837293,-3.500210372847147 L-3.4285289754320454,-3.63939405184749 L-3.281128746351856,-3.77282310079117 L-3.128540378302778,-3.9002865409260776 L-2.9710051448585295,-4.021582826353841 L-2.8087721416038303,-4.1365201627153025 L-2.642097892263072,-4.244916810456835 L-2.471245943083588,-4.346601372197927 L-2.2964864461148617,-4.441413063745674 L-2.1180957320426117,-4.52920196832763 L-1.9363558732531752,-4.609829273641045 L-1.7515542378190905,-4.683167491343651 L-1.5639830351111037,-4.749100658638924 L-1.3739388537550936,-4.807524521637111 L-1.1817221926644903,-4.858346700202059 L-0.9876369858897284,-4.901486834023188 L-0.791990122036039,-4.936876709681673 L-0.595090959009487,-4.964460368509871 L-0.3972508348585343,-4.984194195073482 L-0.1987825754845898,-4.996046986136511 L3.904954378714512e-14,-5.0 "/>
			<path d="M40.0,-5.0 L40.19878257548463,-4.996046986136509 L40.397250834858575,-4.98419419507348 L40.595090959009525,-4.964460368509867 L40.791990122036076,-4.936876709681667 L40.987636985889765,-4.9014868340231805 L41.18172219266453,-4.858346700202049 L41.37393885375513,-4.8075245216371005 L41.56398303511114,-4.749100658638912 L41.75155423781913,-4.683167491343638 L41.93635587325321,-4.609829273641031 L42.11809573204265,-4.529201968327613 L42.2964864461149,-4.441413063745657 L42.47124594308362,-4.3466013721979095 L42.6420978922631,-4.244916810456815 L42.80877214160386,-4.136520162715281 L42.97100514485856,-4.021582826353819 L43.12854037830281,-3.900286540926054 L43.28112874635189,-3.7728231007911432 L43.42852897543207,-3.6393940518474626 L43.57050799548376,-3.5002103728471177 L43.7068413084931,-3.3554921417951737 L43.837313343469546,-3.20546818796109 L43.961717797307884,-3.0503757300526106 L44.07985796099581,-2.8904600011242296 L44.19154703065139,-2.725973860813325 L44.296608402898315,-2.5571773955170967 L44.39487595411218,-2.384337507142515 L44.48619430309607,-2.2077274910795435 L44.57041905677018,-2.0276266040649524 L44.64741703848694,-1.8443196226200214 L44.71706649861068,-1.6580963927603203 L44.779257307028814,-1.469251371689585 L44.83389112729019,-1.278083162202353 L44.88088157209526,-1.084894040531569 L44.92015433989211,-0.8899894783877292 L44.95164733236251,-0.6936776599453183 L44.97531075261214,-0.49626899454028434 L44.99110718390967,-0.2980756258490751 L44.99901164885033,-0.09941093832532576 L44.99901164885033,0.0994109383253766 L44.99110718390966,0.29807562584912584 L44.97531075261213,0.4962689945403349 L44.951647332362505,0.6936776599453687 L44.9201543398921,0.8899894783877792 L44.88088157209525,1.0848940405316188 L44.83389112729018,1.2780831622024023 L44.77925730702879,1.4692513716896336 L44.71706649861066,1.6580963927603685 L44.64741703848692,1.8443196226200687 L44.57041905677016,2.027626604064999 L44.48619430309605,2.2077274910795888 L44.39487595411215,2.38433750714256 L44.296608402898286,2.5571773955171406 L44.191547030651364,2.725973860813368 L44.07985796099578,2.890460001124271 L43.96171779730785,3.0503757300526506 L43.83731334346952,3.205468187961129 L43.70684130849307,3.3554921417952115 L43.57050799548372,3.5002103728471545 L43.42852897543204,3.639394051847497 L43.28112874635185,3.7728231007911766 L43.128540378302766,3.900286540926086 L42.97100514485852,4.021582826353848 L42.80877214160382,4.13652016271531 L42.64209789226306,4.244916810456842 L42.471245943083574,4.346601372197934 L42.29648644611485,4.44141306374568 L42.1180957320426,4.5292019683276346 L41.93635587325316,4.609829273641051 L41.75155423781908,4.683167491343656 L41.56398303511109,4.749100658638928 L41.37393885375508,4.807524521637116 L41.18172219266448,4.858346700202062 L40.987636985889715,4.90148683402319 L40.791990122036026,4.936876709681675 L40.595090959009475,4.964460368509873 L40.397250834858525,4.984194195073483 L40.19878257548458,4.996046986136512 L39.99999999999995,5.0 "/>
			<path d="M40.0,5.0 L0.0,5.0 "/>
			<path d="M1.95,0.0 L1.9460740191201746,0.12367664333030079 L1.934311885020051,0.24685528446881105 L1.914760959662278,0.36903992650279993 L1.8874999677228947,0.48973857500310447 L1.8526386795948435,0.6084652191120499 L1.8103174693813415,0.7247417885376386 L1.7607067496589115,0.8381000785738846 L1.7040062852860807,0.948083635395914 L1.6404443890208034,1.0542495940384151 L1.5702770021855643,1.1561704616565487 L1.493786664082007,1.2534358388887514 L1.4112813743048869,1.3456540723901182 L1.3230933525364077,1.4324538318821898 L1.2295777008148188,1.5134856053689258 L1.1311109736638365,1.5884231064981544 L1.0280896618404796,1.656964588401553 L0.9209285958067313,1.718834058722785 L0.8100592753536785,1.7737823909413106 L0.6959281321041502,1.821588327516958 L0.5789947318901361,1.862059370815944 L0.4597299242433832,1.8950325582309062 L0.3386139464505143,1.9203751183738056 L0.21613448980697164,1.9379850056994454 L0.09278473585629768,1.9477913114068655 L-0.03093862947787522,1.9497545489640564 L-0.15453741587073722,1.9438668131062875 L-0.27751393463290575,1.930151811667819 L-0.3993730027271215,1.9086647701188184 L-0.5196239366955678,1.879492209191887 L-0.6377825284689718,1.8427515964936036 L-0.7533729951016005,1.7985908735039338 L-0.8659298945812596,1.747187859868105 L-0.9750000000000004,1.688749537379655 L-1.0801441245389156,1.6235112165378038 L-1.180938889918451,1.5517355890351219 L-1.276978431193307,1.4737116699908026 L-1.367876031027328,1.389753634188781 L-1.4532656768677232,1.300199551006767 L-1.5328035347484372,1.2054100231301779 L-1.6061693337881757,1.1057667345324003 L-1.673067655808207,1.0016709135681392 L-1.7332291248771028,0.8935417173684466 L-1.7864114919925373,0.7818145440428925 L-1.832400610532523,0.6669392794850494 L-1.8710112985482714,0.5493784858407829 L-1.902088084426545,0.42960553893374864 L-1.9255058329189698,0.30810272214802625 L-1.9411702490175156,0.18535928444314972 L-1.949018257647211,0.061869470321225 L-1.9490182576472106,-0.061869470321239246 L-1.9411702490175142,-0.18535928444316388 L-1.9255058329189678,-0.30810272214804035 L-1.9020880844265418,-0.4296055389337625 L-1.8710112985482674,-0.5493784858407965 L-1.8324006105325181,-0.6669392794850628 L-1.7864114919925318,-0.7818145440429056 L-1.733229124877096,-0.8935417173684592 L-1.6730676558081998,-1.0016709135681514 L-1.6061693337881677,-1.105766734532412 L-1.5328035347484286,-1.2054100231301892 L-1.4532656768677137,-1.3001995510067774 L-1.3678760310273177,-1.389753634188791 L-1.2769784311932963,-1.4737116699908117 L-1.1809388899184403,-1.5517355890351299 L-1.0801441245389052,-1.6235112165378107 L-0.9749999999999902,-1.6887495373796608 L-0.8659298945812499,-1.7471878598681096 L-0.7533729951015913,-1.7985908735039378 L-0.6377825284689629,-1.8427515964936068 L-0.5196239366955592,-1.8794922091918895 L-0.39937300272711307,-1.9086647701188202 L-0.27751393463289764,-1.93015181166782 L-0.1545374158707295,-1.9438668131062882 L-0.030938629477867907,-1.9497545489640564 L0.09278473585630456,-1.9477913114068652 L0.21613448980697805,-1.9379850056994448 L0.33861394645052023,-1.9203751183738045 L0.45972992424338865,-1.8950325582309049 L0.578994731890141,-1.8620593708159425 L0.6959281321041546,-1.8215883275169564 L0.8100592753536824,-1.773782390941309 L0.9209285958067347,-1.718834058722783 L1.0280896618404827,-1.6569645884015514 L1.1311109736638387,-1.5884231064981529 L1.2295777008148208,-1.5134856053689243 L1.3230933525364093,-1.4324538318821884 L1.411281374304888,-1.3456540723901171 L1.4937866640820079,-1.2534358388887508 L1.5702770021855645,-1.1561704616565482 L1.6404443890208034,-1.054249594038415 L1.7040062852860807,-0.9480836353959142 L1.760706749658911,-0.8381000785738852 L1.810317469381341,-0.7247417885376397 L1.8526386795948429,-0.6084652191120514 L1.8874999677228943,-0.4897385750031064 L1.9147609596622777,-0.3690399265028024 L1.9343118850200505,-0.24685528446881408 L1.9460740191201744,-0.12367664333030427 L1.95,-3.941508088497956e-15 "/>
			<path d="M11.95,0.0 L11.946074019120175,0.12367664333030079 L11.934311885020051,0.24685528446881105 L11.914760959662278,0.36903992650279993 L11.887499967722896,0.48973857500310447 L11.852638679594843,0.6084652191120499 L11.810317469381342,0.7247417885376386 L11.760706749658912,0.8381000785738846 L11.70400628528608,0.948083635395914 L11.640444389020804,1.0542495940384151 L11.570277002185565,1.1561704616565487 L11.493786664082007,1.2534358388887514 L11.411281374304886,1.3456540723901182 L11.323093352536407,1.4324538318821898 L11.229577700814819,1.5134856053689258 L11.131110973663837,1.5884231064981544 L11.028089661840479,1.656964588401553 L10.920928595806732,1.718834058722785 L10.810059275353678,1.7737823909413106 L10.69592813210415,1.821588327516958 L10.578994731890136,1.862059370815944 L10.459729924243383,1.8950325582309062 L10.338613946450515,1.9203751183738056 L10.216134489806972,1.9379850056994454 L10.092784735856299,1.9477913114068655 L9.969061370522125,1.9497545489640564 L9.845462584129264,1.9438668131062875 L9.722486065367095,1.930151811667819 L9.600626997272878,1.9086647701188184 L9.480376063304432,1.879492209191887 L9.362217471531029,1.8427515964936036 L9.2466270048984,1.7985908735039338 L9.13407010541874,1.747187859868105 L9.025,1.688749537379655 L8.919855875461085,1.6235112165378038 L8.819061110081549,1.5517355890351219 L8.723021568806693,1.4737116699908026 L8.632123968972673,1.389753634188781 L8.546734323132277,1.300199551006767 L8.467196465251563,1.2054100231301779 L8.393830666211825,1.1057667345324003 L8.326932344191793,1.0016709135681392 L8.266770875122898,0.8935417173684466 L8.213588508007463,0.7818145440428925 L8.167599389467476,0.6669392794850494 L8.128988701451728,0.5493784858407829 L8.097911915573455,0.42960553893374864 L8.07449416708103,0.30810272214802625 L8.058829750982484,0.18535928444314972 L8.05098174235279,0.061869470321225 L8.05098174235279,-0.061869470321239246 L8.058829750982486,-0.18535928444316388 L8.074494167081031,-0.30810272214804035 L8.097911915573459,-0.4296055389337625 L8.128988701451732,-0.5493784858407965 L8.167599389467481,-0.6669392794850628 L8.213588508007469,-0.7818145440429056 L8.266770875122905,-0.8935417173684592 L8.3269323441918,-1.0016709135681514 L8.393830666211832,-1.105766734532412 L8.467196465251572,-1.2054100231301892 L8.546734323132286,-1.3001995510067774 L8.632123968972682,-1.389753634188791 L8.723021568806704,-1.4737116699908117 L8.81906111008156,-1.5517355890351299 L8.919855875461096,-1.6235112165378107 L9.02500000000001,-1.6887495373796608 L9.13407010541875,-1.7471878598681096 L9.246627004898409,-1.7985908735039378 L9.362217471531038,-1.8427515964936068 L9.48037606330444,-1.8794922091918895 L9.600626997272887,-1.9086647701188202 L9.722486065367102,-1.93015181166782 L9.84546258412927,-1.9438668131062882 L9.969061370522132,-1.9497545489640564 L10.092784735856304,-1.9477913114068652 L10.216134489806977,-1.9379850056994448 L10.33861394645052,-1.9203751183738045 L10.459729924243389,-1.8950325582309049 L10.578994731890141,-1.8620593708159425 L10.695928132104154,-1.8215883275169564 L10.810059275353682,-1.773782390941309 L10.920928595806735,-1.718834058722783 L11.028089661840482,-1.6569645884015514 L11.131110973663839,-1.5884231064981529 L11.22957770081482,-1.5134856053689243 L11.323093352536409,-1.4324538318821884 L11.411281374304888,-1.3456540723901171 L11.493786664082007,-1.2534358388887508 L11.570277002185565,-1.1561704616565482 L11.640444389020804,-1.054249594038415 L11.70400628528608,-0.9480836353959142 L11.760706749658912,-0.8381000785738852 L11.81031746938134,-0.7247417885376397 L11.852638679594843,-0.6084652191120514 L11.887499967722894,-0.4897385750031064 L11.914760959662278,-0.3690399265028024 L11.934311885020051,-0.24685528446881408 L11.946074019120175,-0.12367664333030427 L11.95,-3.941508088497956e-15 "/>
			<path d="M21.95,0.0 L21.946074019120175,0.12367664333030079 L21.93431188502005,0.24685528446881105 L21.914760959662278,0.36903992650279993 L21.887499967722896,0.48973857500310447 L21.852638679594843,0.6084652191120499 L21.810317469381342,0.7247417885376386 L21.76070674965891,0.8381000785738846 L21.70400628528608,0.948083635395914 L21.640444389020804,1.0542495940384151 L21.570277002185563,1.1561704616565487 L21.493786664082005,1.2534358388887514 L21.411281374304888,1.3456540723901182 L21.323093352536407,1.4324538318821898 L21.22957770081482,1.5134856053689258 L21.131110973663837,1.5884231064981544 L21.02808966184048,1.656964588401553 L20.920928595806732,1.718834058722785 L20.81005927535368,1.7737823909413106 L20.69592813210415,1.821588327516958 L20.578994731890138,1.862059370815944 L20.459729924243383,1.8950325582309062 L20.338613946450515,1.9203751183738056 L20.216134489806972,1.9379850056994454 L20.0927847358563,1.9477913114068655 L19.969061370522123,1.9497545489640564 L19.845462584129262,1.9438668131062875 L19.722486065367093,1.930151811667819 L19.60062699727288,1.9086647701188184 L19.480376063304433,1.879492209191887 L19.36221747153103,1.8427515964936036 L19.2466270048984,1.7985908735039338 L19.13407010541874,1.747187859868105 L19.025,1.688749537379655 L18.919855875461085,1.6235112165378038 L18.81906111008155,1.5517355890351219 L18.723021568806693,1.4737116699908026 L18.63212396897267,1.389753634188781 L18.546734323132277,1.300199551006767 L18.46719646525156,1.2054100231301779 L18.393830666211823,1.1057667345324003 L18.326932344191793,1.0016709135681392 L18.266770875122898,0.8935417173684466 L18.21358850800746,0.7818145440428925 L18.167599389467476,0.6669392794850494 L18.12898870145173,0.5493784858407829 L18.097911915573455,0.42960553893374864 L18.07449416708103,0.30810272214802625 L18.058829750982483,0.18535928444314972 L18.05098174235279,0.061869470321225 L18.05098174235279,-0.061869470321239246 L18.058829750982486,-0.18535928444316388 L18.07449416708103,-0.30810272214804035 L18.09791191557346,-0.4296055389337625 L18.128988701451732,-0.5493784858407965 L18.167599389467483,-0.6669392794850628 L18.21358850800747,-0.7818145440429056 L18.266770875122905,-0.8935417173684592 L18.3269323441918,-1.0016709135681514 L18.393830666211834,-1.105766734532412 L18.467196465251572,-1.2054100231301892 L18.546734323132288,-1.3001995510067774 L18.63212396897268,-1.389753634188791 L18.723021568806704,-1.4737116699908117 L18.81906111008156,-1.5517355890351299 L18.919855875461096,-1.6235112165378107 L19.02500000000001,-1.6887495373796608 L19.13407010541875,-1.7471878598681096 L19.246627004898407,-1.7985908735039378 L19.362217471531036,-1.8427515964936068 L19.48037606330444,-1.8794922091918895 L19.600626997272887,-1.9086647701188202 L19.722486065367104,-1.93015181166782 L19.84546258412927,-1.9438668131062882 L19.969061370522134,-1.9497545489640564 L20.092784735856306,-1.9477913114068652 L20.21613448980698,-1.9379850056994448 L20.338613946450522,-1.9203751183738045 L20.459729924243387,-1.8950325582309049 L20.57899473189014,-1.8620593708159425 L20.695928132104154,-1.8215883275169564 L20.810059275353684,-1.773782390941309 L20.920928595806735,-1.718834058722783 L21.028089661840482,-1.6569645884015514 L21.131110973663837,-1.5884231064981529 L21.229577700814822,-1.5134856053689243 L21.32309335253641,-1.4324538318821884 L21.411281374304888,-1.3456540723901171 L21.49378666408201,-1.2534358388887508 L21.570277002185563,-1.1561704616565482 L21.640444389020804,-1.054249594038415 L21.70400628528608,-0.9480836353959142 L21.76070674965891,-0.8381000785738852 L21.810317469381342,-0.7247417885376397 L21.852638679594843,-0.6084652191120514 L21.887499967722896,-0.4897385750031064 L21.914760959662278,-0.3690399265028024 L21.93431188502005,-0.24685528446881408 L21.946074019120175,-0.12367664333030427 L21.95,-3.941508088497956e-15 "/>
			<path d="M31.95,0.0 L31.946074019120175,0.12367664333030079 L31.93431188502005,0.24685528446881105 L31.914760959662278,0.36903992650279993 L31.887499967722896,0.48973857500310447 L31.852638679594843,0.6084652191120499 L31.810317469381342,0.7247417885376386 L31.76070674965891,0.8381000785738846 L31.70400628528608,0.948083635395914 L31.640444389020804,1.0542495940384151 L31.570277002185563,1.1561704616565487 L31.493786664082005,1.2534358388887514 L31.411281374304888,1.3456540723901182 L31.323093352536407,1.4324538318821898 L31.22957770081482,1.5134856053689258 L31.131110973663837,1.5884231064981544 L31.02808966184048,1.656964588401553 L30.920928595806732,1.718834058722785 L30.81005927535368,1.7737823909413106 L30.69592813210415,1.821588327516958 L30.578994731890138,1.862059370815944 L30.459729924243383,1.8950325582309062 L30.338613946450515,1.9203751183738056 L30.216134489806972,1.9379850056994454 L30.0927847358563,1.9477913114068655 L29.969061370522123,1.9497545489640564 L29.845462584129262,1.9438668131062875 L29.722486065367093,1.930151811667819 L29.60062699727288,1.9086647701188184 L29.480376063304433,1.879492209191887 L29.36221747153103,1.8427515964936036 L29.2466270048984,1.7985908735039338 L29.13407010541874,1.747187859868105 L29.025,1.688749537379655 L28.919855875461085,1.6235112165378038 L28.81906111008155,1.5517355890351219 L28.723021568806693,1.4737116699908026 L28.63212396897267,1.389753634188781 L28.546734323132277,1.300199551006767 L28.46719646525156,1.2054100231301779 L28.393830666211823,1.1057667345324003 L28.326932344191793,1.0016709135681392 L28.266770875122898,0.8935417173684466 L28.21358850800746,0.7818145440428925 L28.167599389467476,0.6669392794850494 L28.12898870145173,0.5493784858407829 L28.097911915573455,0.42960553893374864 L28.07449416708103,0.30810272214802625 L28.058829750982483,0.18535928444314972 L28.05098174235279,0.061869470321225 L28.05098174235279,-0.061869470321239246 L28.058829750982486,-0.18535928444316388 L28.07449416708103,-0.30810272214804035 L28.09791191557346,-0.4296055389337625 L28.128988701451732,-0.5493784858407965 L28.167599389467483,-0.6669392794850628 L28.21358850800747,-0.7818145440429056 L28.266770875122905,-0.8935417173684592 L28.3269323441918,-1.0016709135681514 L28.393830666211834,-1.105766734532412 L28.467196465251572,-1.2054100231301892 L28.546734323132288,-1.3001995510067774 L28.63212396897268,-1.389753634188791 L28.723021568806704,-1.4737116699908117 L28.81906111008156,-1.5517355890351299 L28.919855875461096,-1.6235112165378107 L29.02500000000001,-1.6887495373796608 L29.13407010541875,-1.7471878598681096 L29.246627004898407,-1.7985908735039378 L29.362217471531036,-1.8427515964936068 L29.48037606330444,-1.8794922091918895 L29.600626997272887,-1.9086647701188202 L29.722486065367104,-1.93015181166782 L29.84546258412927,-1.9438668131062882 L29.969061370522134,-1.9497545489640564 L30.092784735856306,-1.9477913114068652 L30.21613448980698,-1.9379850056994448 L30.338613946450522,-1.9203751183738045 L30.459729924243387,-1.8950325582309049 L30.57899473189014,-1.8620593708159425 L30.695928132104154,-1.8215883275169564 L30.810059275353684,-1.773782390941309 L30.920928595806735,-1.718834058722783 L31.028089661840482,-1.6569645884015514 L31.131110973663837,-1.5884231064981529 L31.229577700814822,-1.5134856053689243 L31.32309335253641,-1.4324538318821884 L31.411281374304888,-1.3456540723901171 L31.49378666408201,-1.2534358388887508 L31.570277002185563,-1.1561704616565482 L31.640444389020804,-1.054249594038415 L31.70400628528608,-0.9480836353959142 L31.76070674965891,-0.8381000785738852 L31.810317469381342,-0.7247417885376397 L31.852638679594843,-0.6084652191120514 L31.887499967722896,-0.4897385750031064 L31.914760959662278,-0.3690399265028024 L31.93431188502005,-0.24685528446881408 L31.946074019120175,-0.12367664333030427 L31.95,-3.941508088497956e-15 "/>
			<path d="M41.95,0.0 L41.946074019120175,0.12367664333030079 L41.93431188502005,0.24685528446881105 L41.91476095966228,0.36903992650279993 L41.887499967722896,0.48973857500310447 L41.85263867959485,0.6084652191120499 L41.81031746938134,0.7247417885376386 L41.76070674965891,0.8381000785738846 L41.704006285286084,0.948083635395914 L41.6404443890208,1.0542495940384151 L41.57027700218556,1.1561704616565487 L41.49378666408201,1.2534358388887514 L41.411281374304885,1.3456540723901182 L41.32309335253641,1.4324538318821898 L41.22957770081482,1.5134856053689258 L41.13111097366384,1.5884231064981544 L41.02808966184048,1.656964588401553 L40.92092859580673,1.718834058722785 L40.81005927535368,1.7737823909413106 L40.69592813210415,1.821588327516958 L40.578994731890134,1.862059370815944 L40.45972992424338,1.8950325582309062 L40.338613946450515,1.9203751183738056 L40.21613448980697,1.9379850056994454 L40.0927847358563,1.9477913114068655 L39.96906137052213,1.9497545489640564 L39.845462584129265,1.9438668131062875 L39.72248606536709,1.930151811667819 L39.600626997272876,1.9086647701188184 L39.48037606330443,1.879492209191887 L39.362217471531025,1.8427515964936036 L39.2466270048984,1.7985908735039338 L39.13407010541874,1.747187859868105 L39.025,1.688749537379655 L38.91985587546108,1.6235112165378038 L38.81906111008155,1.5517355890351219 L38.72302156880669,1.4737116699908026 L38.63212396897267,1.389753634188781 L38.54673432313228,1.300199551006767 L38.46719646525156,1.2054100231301779 L38.39383066621183,1.1057667345324003 L38.326932344191796,1.0016709135681392 L38.266770875122894,0.8935417173684466 L38.21358850800746,0.7818145440428925 L38.167599389467476,0.6669392794850494 L38.12898870145173,0.5493784858407829 L38.097911915573455,0.42960553893374864 L38.07449416708103,0.30810272214802625 L38.05882975098248,0.18535928444314972 L38.05098174235279,0.061869470321225 L38.05098174235279,-0.061869470321239246 L38.05882975098248,-0.18535928444316388 L38.074494167081035,-0.30810272214804035 L38.097911915573455,-0.4296055389337625 L38.12898870145173,-0.5493784858407965 L38.16759938946748,-0.6669392794850628 L38.21358850800747,-0.7818145440429056 L38.2667708751229,-0.8935417173684592 L38.3269323441918,-1.0016709135681514 L38.393830666211834,-1.105766734532412 L38.46719646525157,-1.2054100231301892 L38.546734323132284,-1.3001995510067774 L38.632123968972685,-1.389753634188791 L38.7230215688067,-1.4737116699908117 L38.81906111008156,-1.5517355890351299 L38.919855875461096,-1.6235112165378107 L39.02500000000001,-1.6887495373796608 L39.13407010541875,-1.7471878598681096 L39.24662700489841,-1.7985908735039378 L39.36221747153104,-1.8427515964936068 L39.48037606330444,-1.8794922091918895 L39.60062699727289,-1.9086647701188202 L39.7224860653671,-1.93015181166782 L39.84546258412927,-1.9438668131062882 L39.969061370522134,-1.9497545489640564 L40.092784735856306,-1.9477913114068652 L40.216134489806976,-1.9379850056994448 L40.33861394645052,-1.9203751183738045 L40.45972992424339,-1.8950325582309049 L40.57899473189014,-1.8620593708159425 L40.69592813210416,-1.8215883275169564 L40.81005927535368,-1.773782390941309 L40.920928595806735,-1.718834058722783 L41.02808966184048,-1.6569645884015514 L41.13111097366384,-1.5884231064981529 L41.22957770081482,-1.5134856053689243 L41.32309335253641,-1.4324538318821884 L41.411281374304885,-1.3456540723901171 L41.49378666408201,-1.2534358388887508 L41.57027700218556,-1.1561704616565482 L41.6404443890208,-1.054249594038415 L41.704006285286084,-0.9480836353959142 L41.76070674965891,-0.8381000785738852 L41.81031746938134,-0.7247417885376397 L41.85263867959484,-0.6084652191120514 L41.887499967722896,-0.4897385750031064 L41.914760959662274,-0.3690399265028024 L41.93431188502005,-0.24685528446881408 L41.946074019120175,-0.12367664333030427 L41.95,-3.941508088497956e-15 "/>

       </g>

       <!-- solid lines -->
       <g stroke="rgb(0,0,0)" fill="none">
			<path d="M0.0,-5.0 L40.0,-5.0 "/>
			<path d="M3.061616997868383e-16,5.0 L-0.1987825754846274,4.996046986136509 L-0.39725083485857066,4.98419419507348 L-0.5950909590095222,4.964460368509867 L-0.7919901220360728,4.936876709681667 L-0.9876369858897609,4.901486834023181 L-1.1817221926645216,4.858346700202051 L-1.3739388537551234,4.807524521637103 L-1.563983035111132,4.749100658638914 L-1.7515542378191173,4.683167491343641 L-1.9363558732532007,4.609829273641035 L-2.1180957320426366,4.529201968327618 L-2.2964864461148866,4.441413063745661 L-2.471245943083612,4.346601372197914 L-2.6420978922630955,4.244916810456821 L-2.808772141603853,4.136520162715287 L-2.9710051448585517,4.021582826353825 L-3.1285403783027994,3.9002865409260608 L-3.2811287463518783,3.77282310079115 L-3.4285289754320667,3.6393940518474692 L-3.5705079954837498,3.5002103728471257 L-3.7068413084930922,3.3554921417951817 L-3.8373133434695417,3.205468187961098 L-3.9617177973078737,3.050375730052619 L-4.079857960995808,2.890460001124238 L-4.191547030651385,2.7259738608133337 L-4.2966084028983085,2.5571773955171055 L-4.394875954112171,2.3843375071425243 L-4.486194303096064,2.207727491079553 L-4.570419056770176,2.027626604064962 L-4.647417038486939,1.8443196226200311 L-4.717066498610675,1.65809639276033 L-4.779257307028807,1.469251371689595 L-4.8338911272901885,1.2780831622023632 L-4.880881572095256,1.0848940405315792 L-4.920154339892106,0.8899894783877395 L-4.951647332362511,0.6936776599453287 L-4.975310752612138,0.49626899454029477 L-4.991107183909666,0.29807562584908553 L-4.9990116488503284,0.09941093832533625 L-4.999011648850328,-0.0994109383253661 L-4.991107183909664,-0.29807562584911534 L-4.975310752612136,-0.4962689945403245 L-4.951647332362507,-0.6936776599453582 L-4.9201543398921,-0.8899894783877689 L-4.88088157209525,-1.0848940405316085 L-4.833891127290181,-1.278083162202392 L-4.779257307028798,-1.4692513716896236 L-4.717066498610666,-1.6580963927603585 L-4.647417038486927,-1.8443196226200589 L-4.570419056770164,-2.0276266040649897 L-4.486194303096051,-2.2077274910795794 L-4.394875954112157,-2.3843375071425505 L-4.296608402898293,-2.5571773955171317 L-4.191547030651369,-2.725973860813359 L-4.07985796099579,-2.8904600011242625 L-3.9617177973078554,-3.050375730052642 L-3.837313343469523,-3.2054681879611207 L-3.7068413084930723,-3.355492141795204 L-3.5705079954837293,-3.500210372847147 L-3.4285289754320454,-3.63939405184749 L-3.281128746351856,-3.77282310079117 L-3.128540378302778,-3.9002865409260776 L-2.9710051448585295,-4.021582826353841 L-2.8087721416038303,-4.1365201627153025 L-2.642097892263072,-4.244916810456835 L-2.471245943083588,-4.346601372197927 L-2.2964864461148617,-4.441413063745674 L-2.1180957320426117,-4.52920196832763 L-1.9363558732531752,-4.609829273641045 L-1.7515542378190905,-4.683167491343651 L-1.5639830351111037,-4.749100658638924 L-1.3739388537550936,-4.807524521637111 L-1.1817221926644903,-4.858346700202059 L-0.9876369858897284,-4.901486834023188 L-0.791990122036039,-4.936876709681673 L-0.595090959009487,-4.964460368509871 L-0.3972508348585343,-4.984194195073482 L-0.1987825754845898,-4.996046986136511 L3.904954378714512e-14,-5.0 "/>
			<path d="M40.0,-5.0 L40.19878257548463,-4.996046986136509 L40.397250834858575,-4.98419419507348 L40.595090959009525,-4.964460368509867 L40.791990122036076,-4.936876709681667 L40.987636985889765,-4.9014868340231805 L41.18172219266453,-4.858346700202049 L41.37393885375513,-4.8075245216371005 L41.56398303511114,-4.749100658638912 L41.75155423781913,-4.683167491343638 L41.93635587325321,-4.609829273641031 L42.11809573204265,-4.529201968327613 L42.2964864461149,-4.441413063745657 L42.47124594308362,-4.3466013721979095 L42.6420978922631,-4.244916810456815 L42.80877214160386,-4.136520162715281 L42.97100514485856,-4.021582826353819 L43.12854037830281,-3.900286540926054 L43.28112874635189,-3.7728231007911432 L43.42852897543207,-3.6393940518474626 L43.57050799548376,-3.5002103728471177 L43.7068413084931,-3.3554921417951737 L43.837313343469546,-3.20546818796109 L43.961717797307884,-3.0503757300526106 L44.07985796099581,-2.8904600011242296 L44.19154703065139,-2.725973860813325 L44.296608402898315,-2.5571773955170967 L44.39487595411218,-2.384337507142515 L44.48619430309607,-2.2077274910795435 L44.57041905677018,-2.0276266040649524 L44.64741703848694,-1.8443196226200214 L44.71706649861068,-1.6580963927603203 L44.779257307028814,-1.469251371689585 L44.83389112729019,-1.278083162202353 L44.88088157209526,-1.084894040531569 L44.92015433989211,-0.8899894783877292 L44.95164733236251,-0.6936776599453183 L44.97531075261214,-0.49626899454028434 L44.99110718390967,-0.2980756258490751 L44.99901164885033,-0.09941093832532576 L44.99901164885033,0.0994109383253766 L44.99110718390966,0.29807562584912584 L44.97531075261213,0.4962689945403349 L44.951647332362505,0.6936776599453687 L44.9201543398921,0.8899894783877792 L44.88088157209525,1.0848940405316188 L44.83389112729018,1.2780831622024023 L44.77925730702879,1.4692513716896336 L44.71706649861066,1.6580963927603685 L44.64741703848692,1.8443196226200687 L44.57041905677016,2.027626604064999 L44.48619430309605,2.2077274910795888 L44.39487595411215,2.38433750714256 L44.296608402898286,2.5571773955171406 L44.191547030651364,2.725973860813368 L44.07985796099578,2.890460001124271 L43.96171779730785,3.0503757300526506 L43.83731334346952,3.205468187961129 L43.70684130849307,3.3554921417952115 L43.57050799548372,3.5002103728471545 L43.42852897543204,3.639394051847497 L43.28112874635185,3.7728231007911766 L43.128540378302766,3.900286540926086 L42.97100514485852,4.021582826353848 L42.80877214160382,4.13652016271531 L42.64209789226306,4.244916810456842 L42.471245943083574,4.346601372197934 L42.29648644611485,4.44141306374568 L42.1180957320426,4.5292019683276346 L41.93635587325316,4.609829273641051 L41.75155423781908,4.683167491343656 L41.56398303511109,4.749100658638928 L41.37393885375508,4.807524521637116 L41.18172219266448,4.858346700202062 L40.987636985889715,4.90148683402319 L40.791990122036026,4.936876709681675 L40.595090959009475,4.964460368509873 L40.397250834858525,4.984194195073483 L40.19878257548458,4.996046986136512 L39.99999999999995,5.0 "/>
			<path d="M40.0,5.0 L0.0,5.0 "/>
			<path d="M1.95,0.0 L1.9460740191201746,0.12367664333030079 L1.934311885020051,0.24685528446881105 L1.914760959662278,0.36903992650279993 L1.8874999677228947,0.48973857500310447 L1.8526386795948435,0.6084652191120499 L1.8103174693813415,0.7247417885376386 L1.7607067496589115,0.8381000785738846 L1.7040062852860807,0.948083635395914 L1.6404443890208034,1.0542495940384151 L1.5702770021855643,1.1561704616565487 L1.493786664082007,1.2534358388887514 L1.4112813743048869,1.3456540723901182 L1.3230933525364077,1.4324538318821898 L1.2295777008148188,1.5134856053689258 L1.1311109736638365,1.5884231064981544 L1.0280896618404796,1.656964588401553 L0.9209285958067313,1.718834058722785 L0.8100592753536785,1.7737823909413106 L0.6959281321041502,1.821588327516958 L0.5789947318901361,1.862059370815944 L0.4597299242433832,1.8950325582309062 L0.3386139464505143,1.9203751183738056 L0.21613448980697164,1.9379850056994454 L0.09278473585629768,1.9477913114068655 L-0.03093862947787522,1.9497545489640564 L-0.15453741587073722,1.9438668131062875 L-0.27751393463290575,1.930151811667819 L-0.3993730027271215,1.9086647701188184 L-0.5196239366955678,1.879492209191887 L-0.6377825284689718,1.8427515964936036 L-0.7533729951016005,1.7985908735039338 L-0.8659298945812596,1.747187859868105 L-0.9750000000000004,1.688749537379655 L-1.0801441245389156,1.6235112165378038 L-1.180938889918451,1.5517355890351219 L-1.276978431193307,1.4737116699908026 L-1.367876031027328,1.389753634188781 L-1.4532656768677232,1.300199551006767 L-1.5328035347484372,1.2054100231301779 L-1.6061693337881757,1.1057667345324003 L-1.673067655808207,1.0016709135681392 L-1.7332291248771028,0.8935417173684466 L-1.7864114919925373,0.7818145440428925 L-1.832400610532523,0.6669392794850494 L-1.8710112985482714,0.5493784858407829 L-1.902088084426545,0.42960553893374864 L-1.9255058329189698,0.30810272214802625 L-1.9411702490175156,0.18535928444314972 L-1.949018257647211,0.061869470321225 L-1.9490182576472106,-0.061869470321239246 L-1.9411702490175142,-0.18535928444316388 L-1.9255058329189678,-0.30810272214804035 L-1.9020880844265418,-0.4296055389337625 L-1.8710112985482674,-0.5493784858407965 L-1.8324006105325181,-0.6669392794850628 L-1.7864114919925318,-0.7818145440429056 L-1.733229124877096,-0.8935417173684592 L-1.6730676558081998,-1.0016709135681514 L-1.6061693337881677,-1.105766734532412 L-1.5328035347484286,-1.2054100231301892 L-1.4532656768677137,-1.3001995510067774 L-1.3678760310273177,-1.389753634188791 L-1.2769784311932963,-1.4737116699908117 L-1.1809388899184403,-1.5517355890351299 L-1.0801441245389052,-1.6235112165378107 L-0.9749999999999902,-1.6887495373796608 L-0.8659298945812499,-1.7471878598681096 L-0.7533729951015913,-1.7985908735039378 L-0.6377825284689629,-1.8427515964936068 L-0.5196239366955592,-1.8794922091918895 L-0.39937300272711307,-1.9086647701188202 L-0.27751393463289764,-1.93015181166782 L-0.1545374158707295,-1.9438668131062882 L-0.030938629477867907,-1.9497545489640564 L0.09278473585630456,-1.9477913114068652 L0.21613448980697805,-1.9379850056994448 L0.33861394645052023,-1.9203751183738045 L0.45972992424338865,-1.8950325582309049 L0.578994731890141,-1.8620593708159425 L0.6959281321041546,-1.8215883275169564 L0.8100592753536824,-1.773782390941309 L0.9209285958067347,-1.718834058722783 L1.0280896618404827,-1.6569645884015514 L1.1311109736638387,-1.5884231064981529 L1.2295777008148208,-1.5134856053689243 L1.3230933525364093,-1.4324538318821884 L1.411281374304888,-1.3456540723901171 L1.4937866640820079,-1.2534358388887508 L1.5702770021855645,-1.1561704616565482 L1.6404443890208034,-1.054249594038415 L1.7040062852860807,-0.9480836353959142 L1.760706749658911,-0.8381000785738852 L1.810317469381341,-0.7247417885376397 L1.8526386795948429,-0.6084652191120514 L1.8874999677228943,-0.4897385750031064 L1.9147609596622777,-0.3690399265028024 L1.9343118850200505,-0.24685528446881408 L1.9460740191201744,-0.12367664333030427 L1.95,-3.941508088497956e-15 "/>
			<path d="M11.95,0.0 L11.946074019120175,0.12367664333030079 L11.934311885020051,0.24685528446881105 L11.914760959662278,0.36903992650279993 L11.887499967722896,0.48973857500310447 L11.852638679594843,0.6084652191120499 L11.810317469381342,0.7247417885376386 L11.760706749658912,0.8381000785738846 L11.70400628528608,0.948083635395914 L11.640444389020804,1.0542495940384151 L11.570277002185565,1.1561704616565487 L11.493786664082007,1.2534358388887514 L11.411281374304886,1.3456540723901182 L11.323093352536407,1.4324538318821898 L11.229577700814819,1.5134856053689258 L11.131110973663837,1.5884231064981544 L11.028089661840479,1.656964588401553 L10.920928595806732,1.718834058722785 L10.810059275353678,1.7737823909413106 L10.69592813210415,1.821588327516958 L10.578994731890136,1.862059370815944 L10.459729924243383,1.8950325582309062 L10.338613946450515,1.9203751183738056 L10.216134489806972,1.9379850056994454 L10.092784735856299,1.9477913114068655 L9.969061370522125,1.9497545489640564 L9.845462584129264,1.9438668131062875 L9.722486065367095,1.930151811667819 L9.600626997272878,1.9086647701188184 L9.480376063304432,1.879492209191887 L9.362217471531029,1.8427515964936036 L9.2466270048984,1.7985908735039338 L9.13407010541874,1.747187859868105 L9.025,1.688749537379655 L8.919855875461085,1.6235112165378038 L8.819061110081549,1.5517355890351219 L8.723021568806693,1.4737116699908026 L8.632123968972673,1.389753634188781 L8.546734323132277,1.300199551006767 L8.467196465251563,1.2054100231301779 L8.393830666211825,1.1057667345324003 L8.326932344191793,1.0016709135681392 L8.266770875122898,0.8935417173684466 L8.213588508007463,0.7818145440428925 L8.167599389467476,0.6669392794850494 L8.128988701451728,0.5493784858407829 L8.097911915573455,0.42960553893374864 L8.07449416708103,0.30810272214802625 L8.058829750982484,0.18535928444314972 L8.05098174235279,0.061869470321225 L8.05098174235279,-0.061869470321239246 L8.058829750982486,-0.18535928444316388 L8.074494167081031,-0.30810272214804035 L8.097911915573459,-0.4296055389337625 L8.128988701451732,-0.5493784858407965 L8.167599389467481,-0.6669392794850628 L8.213588508007469,-0.7818145440429056 L8.266770875122905,-0.8935417173684592 L8.3269323441918,-1.0016709135681514 L8.393830666211832,-1.105766734532412 L8.467196465251572,-1.2054100231301892 L8.546734323132286,-1.3001995510067774 L8.632123968972682,-1.389753634188791 L8.723021568806704,-1.4737116699908117 L8.81906111008156,-1.5517355890351299 L8.919855875461096,-1.6235112165378107 L9.02500000000001,-1.6887495373796608 L9.13407010541875,-1.7471878598681096 L9.246627004898409,-1.7985908735039378 L9.362217471531038,-1.8427515964936068 L9.48037606330444,-1.8794922091918895 L9.600626997272887,-1.9086647701188202 L9.722486065367102,-1.93015181166782 L9.84546258412927,-1.9438668131062882 L9.969061370522132,-1.9497545489640564 L10.092784735856304,-1.9477913114068652 L10.216134489806977,-1.9379850056994448 L10.33861394645052,-1.9203751183738045 L10.459729924243389,-1.8950325582309049 L10.578994731890141,-1.8620593708159425 L10.695928132104154,-1.8215883275169564 L10.810059275353682,-1.773782390941309 L10.920928595806735,-1.718834058722783 L11.028089661840482,-1.6569645884015514 L11.131110973663839,-1.5884231064981529 L11.22957770081482,-1.5134856053689243 L11.323093352536409,-1.4324538318821884 L11.411281374304888,-1.3456540723901171 L11.493786664082007,-1.2534358388887508 L11.570277002185565,-1.1561704616565482 L11.640444389020804,-1.054249594038415 L11.70400628528608,-0.9480836353959142 L11.760706749658912,-0.8381000785738852 L11.81031746938134,-0.7247417885376397 L11.852638679594843,-0.6084652191120514 L11.887499967722894,-0.4897385750031064 L11.914760959662278,-0.3690399265028024 L11.934311885020051,-0.24685528446881408 L11.946074019120175,-0.12367664333030427 L11.95,-3.941508088497956e-15 "/>
			<path d="M21.95,0.0 L21.946074019120175,0.12367664333030079 L21.93431188502005,0.24685528446881105 L21.914760959662278,0.36903992650279993 L21.887499967722896,0.48973857500310447 L21.852638679594843,0.6084652191120499 L21.810317469381342,0.7247417885376386 L21.76070674965891,0.8381000785738846 L21.70400628528608,0.948083635395914 L21.640444389020804,1.0542495940384151 L21.570277002185563,1.1561704616565487 L21.493786664082005,1.2534358388887514 L21.411281374304888,1.3456540723901182 L21.323093352536407,1.4324538318821898 L21.22957770081482,1.5134856053689258 L21.131110973663837,1.5884231064981544 L21.02808966184048,1.656964588401553 L20.920928595806732,1.718834058722785 L20.81005927535368,1.7737823909413106 L20.69592813210415,1.821588327516958 L20.578994731890138,1.862059370815944 L20.459729924243383,1.8950325582309062 L20.338613946450515,1.9203751183738056 L20.216134489806972,1.9379850056994454 L20.0927847358563,1.9477913114068655 L19.969061370522123,1.9497545489640564 L19.845462584129262,1.9438668131062875 L19.722486065367093,1.930151811667819 L19.60062699727288,1.9086647701188184 L19.480376063304433,1.879492209191887 L19.36221747153103,1.8427515964936036 L19.2466270048984,1.7985908735039338 L19.13407010541874,1.747187859868105 L19.025,1.688749537379655 L18.919855875461085,1.6235112165378038 L18.81906111008155,1.5517355890351219 L18.723021568806693,1.4737116699908026 L18.63212396897267,1.389753634188781 L18.546734323132277,1.300199551006767 L18.46719646525156,1.2054100231301779 L18.393830666211823,1.1057667345324003 L18.326932344191793,1.0016709135681392 L18.266770875122898,0.8935417173684466 L18.21358850800746,0.7818145440428925 L18.167599389467476,0.6669392794850494 L18.12898870145173,0.5493784858407829 L18.097911915573455,0.42960553893374864 L18.07449416708103,0.30810272214802625 L18.058829750982483,0.18535928444314972 L18.05098174235279,0.061869470321225 L18.05098174235279,-0.061869470321239246 L18.058829750982486,-0.18535928444316388 L18.07449416708103,-0.30810272214804035 L18.09791191557346,-0.4296055389337625 L18.128988701451732,-0.5493784858407965 L18.167599389467483,-0.6669392794850628 L18.21358850800747,-0.7818145440429056 L18.266770875122905,-0.8935417173684592 L18.3269323441918,-1.0016709135681514 L18.393830666211834,-1.105766734532412 L18.467196465251572,-1.2054100231301892 L18.546734323132288,-1.3001995510067774 L18.63212396897268,-1.389753634188791 L18.723021568806704,-1.4737116699908117 L18.81906111008156,-1.5517355890351299 L18.919855875461096,-1.6235112165378107 L19.02500000000001,-1.6887495373796608 L19.13407010541875,-1.7471878598681096 L19.246627004898407,-1.7985908735039378 L19.362217471531036,-1.8427515964936068 L19.48037606330444,-1.8794922091918895 L19.600626997272887,-1.9086647701188202 L19.722486065367104,-1.93015181166782 L19.84546258412927,-1.9438668131062882 L19.969061370522134,-1.9497545489640564 L20.092784735856306,-1.9477913114068652 L20.21613448980698,-1.9379850056994448 L20.338613946450522,-1.9203751183738045 L20.459729924243387,-1.8950325582309049 L20.57899473189014,-1.8620593708159425 L20.695928132104154,-1.8215883275169564 L20.810059275353684,-1.773782390941309 L20.920928595806735,-1.718834058722783 L21.028089661840482,-1.6569645884015514 L21.131110973663837,-1.5884231064981529 L21.229577700814822,-1.5134856053689243 L21.32309335253641,-1.4324538318821884 L21.411281374304888,-1.3456540723901171 L21.49378666408201,-1.2534358388887508 L21.570277002185563,-1.1561704616565482 L21.640444389020804,-1.054249594038415 L21.70400628528608,-0.9480836353959142 L21.76070674965891,-0.8381000785738852 L21.810317469381342,-0.7247417885376397 L21.852638679594843,-0.6084652191120514 L21.887499967722896,-0.4897385750031064 L21.914760959662278,-0.3690399265028024 L21.93431188502005,-0.24685528446881408 L21.946074019120175,-0.12367664333030427 L21.95,-3.941508088497956e-15 "/>
			<path d="M31.95,0.0 L31.946074019120175,0.12367664333030079 L31.93431188502005,0.24685528446881105 L31.914760959662278,0.36903992650279993 L31.887499967722896,0.48973857500310447 L31.852638679594843,0.6084652191120499 L31.810317469381342,0.7247417885376386 L31.76070674965891,0.8381000785738846 L31.70400628528608,0.948083635395914 L31.640444389020804,1.0542495940384151 L31.570277002185563,1.1561704616565487 L31.493786664082005,1.2534358388887514 L31.411281374304888,1.3456540723901182 L31.323093352536407,1.4324538318821898 L31.22957770081482,1.5134856053689258 L31.131110973663837,1.5884231064981544 L31.02808966184048,1.656964588401553 L30.920928595806732,1.718834058722785 L30.81005927535368,1.7737823909413106 L30.69592813210415,1.821588327516958 L30.578994731890138,1.862059370815944 L30.459729924243383,1.8950325582309062 L30.338613946450515,1.9203751183738056 L30.216134489806972,1.9379850056994454 L30.0927847358563,1.9477913114068655 L29.969061370522123,1.9497545489640564 L29.845462584129262,1.9438668131062875 L29.722486065367093,1.930151811667819 L29.60062699727288,1.9086647701188184 L29.480376063304433,1.879492209191887 L29.36221747153103,1.8427515964936036 L29.2466270048984,1.7985908735039338 L29.13407010541874,1.747187859868105 L29.025,1.688749537379655 L28.919855875461085,1.6235112165378038 L28.81906111008155,1.5517355890351219 L28.723021568806693,1.4737116699908026 L28.63212396897267,1.389753634188781 L28.546734323132277,1.300199551006767 L28.46719646525156,1.2054100231301779 L28.393830666211823,1.1057667345324003 L28.326932344191793,1.0016709135681392 L28.266770875122898,0.8935417173684466 L28.21358850800746,0.7818145440428925 L28.167599389467476,0.6669392794850494 L28.12898870145173,0.5493784858407829 L28.097911915573455,0.42960553893374864 L28.07449416708103,0.30810272214802625 L28.058829750982483,0.18535928444314972 L28.05098174235279,0.061869470321225 L28.05098174235279,-0.061869470321239246 L28.058829750982486,-0.18535928444316388 L28.07449416708103,-0.30810272214804035 L28.09791191557346,-0.4296055389337625 L28.128988701451732,-0.5493784858407965 L28.167599389467483,-0.6669392794850628 L28.21358850800747,-0.7818145440429056 L28.266770875122905,-0.8935417173684592 L28.3269323441918,-1.0016709135681514 L28.393830666211834,-1.105766734532412 L28.467196465251572,-1.2054100231301892 L28.546734323132288,-1.3001995510067774 L28.63212396897268,-1.389753634188791 L28.723021568806704,-1.4737116699908117 L28.81906111008156,-1.5517355890351299 L28.919855875461096,-1.6235112165378107 L29.02500000000001,-1.6887495373796608 L29.13407010541875,-1.7471878598681096 L29.246627004898407,-1.7985908735039378 L29.362217471531036,-1.8427515964936068 L29.48037606330444,-1.8794922091918895 L29.600626997272887,-1.9086647701188202 L29.722486065367104,-1.93015181166782 L29.84546258412927,-1.9438668131062882 L29.969061370522134,-1.9497545489640564 L30.092784735856306,-1.9477913114068652 L30.21613448980698,-1.9379850056994448 L30.338613946450522,-1.9203751183738045 L30.459729924243387,-1.8950325582309049 L30.57899473189014,-1.8620593708159425 L30.695928132104154,-1.8215883275169564 L30.810059275353684,-1.773782390941309 L30.920928595806735,-1.718834058722783 L31.028089661840482,-1.6569645884015514 L31.131110973663837,-1.5884231064981529 L31.229577700814822,-1.5134856053689243 L31.32309335253641,-1.4324538318821884 L31.411281374304888,-1.3456540723901171 L31.49378666408201,-1.2534358388887508 L31.570277002185563,-1.1561704616565482 L31.640444389020804,-1.054249594038415 L31.70400628528608,-0.9480836353959142 L31.76070674965891,-0.8381000785738852 L31.810317469381342,-0.7247417885376397 L31.852638679594843,-0.6084652191120514 L31.887499967722896,-0.4897385750031064 L31.914760959662278,-0.3690399265028024 L31.93431188502005,-0.24685528446881408 L31.946074019120175,-0.12367664333030427 L31.95,-3.941508088497956e-15 "/>
			<path d="M41.95,0.0 L41.946074019120175,0.12367664333030079 L41.93431188502005,0.24685528446881105 L41.91476095966228,0.36903992650279993 L41.887499967722896,0.48973857500310447 L41.85263867959485,0.6084652191120499 L41.81031746938134,0.7247417885376386 L41.76070674965891,0.8381000785738846 L41.704006285286084,0.948083635395914 L41.6404443890208,1.0542495940384151 L41.57027700218556,1.1561704616565487 L41.49378666408201,1.2534358388887514 L41.411281374304885,1.3456540723901182 L41.32309335253641,1.4324538318821898 L41.22957770081482,1.5134856053689258 L41.13111097366384,1.5884231064981544 L41.02808966184048,1.656964588401553 L40.92092859580673,1.718834058722785 L40.81005927535368,1.7737823909413106 L40.69592813210415,1.821588327516958 L40.578994731890134,1.862059370815944 L40.45972992424338,1.8950325582309062 L40.338613946450515,1.9203751183738056 L40.21613448980697,1.9379850056994454 L40.0927847358563,1.9477913114068655 L39.96906137052213,1.9497545489640564 L39.845462584129265,1.9438668131062875 L39.72248606536709,1.930151811667819 L39.600626997272876,1.9086647701188184 L39.48037606330443,1.879492209191887 L39.362217471531025,1.8427515964936036 L39.2466270048984,1.7985908735039338 L39.13407010541874,1.747187859868105 L39.025,1.688749537379655 L38.91985587546108,1.6235112165378038 L38.81906111008155,1.5517355890351219 L38.72302156880669,1.4737116699908026 L38.63212396897267,1.389753634188781 L38.54673432313228,1.300199551006767 L38.46719646525156,1.2054100231301779 L38.39383066621183,1.1057667345324003 L38.326932344191796,1.0016709135681392 L38.266770875122894,0.8935417173684466 L38.21358850800746,0.7818145440428925 L38.167599389467476,0.6669392794850494 L38.12898870145173,0.5493784858407829 L38.097911915573455,0.42960553893374864 L38.07449416708103,0.30810272214802625 L38.05882975098248,0.18535928444314972 L38.05098174235279,0.061869470321225 L38.05098174235279,-0.061869470321239246 L38.05882975098248,-0.18535928444316388 L38.074494167081035,-0.30810272214804035 L38.097911915573455,-0.4296055389337625 L38.12898870145173,-0.5493784858407965 L38.16759938946748,-0.6669392794850628 L38.21358850800747,-0.7818145440429056 L38.2667708751229,-0.8935417173684592 L38.3269323441918,-1.0016709135681514 L38.393830666211834,-1.105766734532412 L38.46719646525157,-1.2054100231301892 L38.546734323132284,-1.3001995510067774 L38.632123968972685,-1.389753634188791 L38.7230215688067,-1.4737116699908117 L38.81906111008156,-1.5517355890351299 L38.919855875461096,-1.6235112165378107 L39.02500000000001,-1.6887495373796608 L39.13407010541875,-1.7471878598681096 L39.24662700489841,-1.7985908735039378 L39.36221747153104,-1.8427515964936068 L39.48037606330444,-1.8794922091918895 L39.60062699727289,-1.9086647701188202 L39.7224860653671,-1.93015181166782 L39.84546258412927,-1.9438668131062882 L39.969061370522134,-1.9497545489640564 L40.092784735856306,-1.9477913114068652 L40.216134489806976,-1.9379850056994448 L40.33861394645052,-1.9203751183738045 L40.45972992424339,-1.8950325582309049 L40.57899473189014,-1.8620593708159425 L40.69592813210416,-1.8215883275169564 L40.81005927535368,-1.773782390941309 L40.920928595806735,-1.718834058722783 L41.02808966184048,-1.6569645884015514 L41.13111097366384,-1.5884231064981529 L41.22957770081482,-1.5134856053689243 L41.32309335253641,-1.4324538318821884 L41.411281374304885,-1.3456540723901171 L41.49378666408201,-1.2534358388887508 L41.57027700218556,-1.1561704616565482 L41.6404443890208,-1.054249594038415 L41.704006285286084,-0.9480836353959142 L41.76070674965891,-0.8381000785738852 L41.81031746938134,-0.7247417885376397 L41.85263867959484,-0.6084652191120514 L41.887499967722896,-0.4897385750031064 L41.914760959662274,-0.3690399265028024 L41.93431188502005,-0.24685528446881408 L41.946074019120175,-0.12367664333030427 L41.95,-3.941508088497956e-15 "/>

       </g>
    </g>
    
</svg>