<svg xmlns:svg="http://www.w3.org/2000/svg" xmlns="http://www.w3.org/2000/svg" width="800.0" height="240.0">
    <g transform="scale(5.589574475916859, -5.589574475916859)   translate(40.500190821947804,-30.394080231987818)" stroke-width="0.17890449520058857" fill="none">
       <!-- hidden lines -->
       <g stroke="rgb(160,160,160)" fill="none" stroke-dasharray="0.17890449520058857,0.17890449520058857">
			<path d="M2.359645890915043,-4.071777674218877 L35.055858458402916,17.837137911677146 "/>
			<path d="M-2.511472799872758,-4.323482898717108 L-2.3746122995242778,-4.399661915403001 L-2.2350233225086082,-4.470785633216693 L-2.0928662593311214,-4.536772329594641 L-1.9483044512791647,-4.597546184512899 L-1.8015040027396805,-4.653037367605829 L-1.6526335903419662,-4.703182118402585 L-1.50186426914488,-4.747922819589146 L-1.3493692760911857,-4.787208063211768 L-1.19532383095486,-4.82099270974573 L-1.0399049350101017,-4.849237939961558 L-0.8832911676533495,-4.871911299529074 L-0.7256624812120132,-4.888986736308081 L-0.5671999941756749,-4.900444630282779 L-0.40808578308735144,-4.906271816105558 L-0.2485026733339326,-4.906461598224237 L-0.08863402907618223,-4.901013758575399 L0.07133645744032346,-4.889934556834936 L0.2312249769512329,-4.873236723225564 L0.39084781437390914,-4.850939443889546 L0.5500215598997078,-4.823068338843431 L0.708563319735489,-4.789655432540146 L0.8662909262522169,-4.750739117072265 L1.023023147299177,-4.706364108058733 L1.1785798944433197,-4.656581393265732 L1.3327824298944408,-4.6014481740207245 L1.4854535718784534,-4.541027799486994 L1.6364178982227617,-4.475389693874195 L1.7855019479198182,-4.4046092766685705 L1.9325344204372659,-4.328767875974446 L2.0773463725456525,-4.247952635066642 L2.219771412437548,-4.162256412261106 L2.359645890915033,-4.071777674218883 "/>
			<path d="M35.055858458402916,17.83713791167714 L35.18596613628105,17.92723887294862 L35.31350249474978,18.021451953082916 L35.438335819281974,18.119679852522108 L35.56033718693752,18.22182112536105 L35.67938059950977,18.32777028411671 L35.79534311365158,18.437417908671474 L35.90810496784635,18.550650759277946 L36.01754970609298,18.66735189350849 L36.123564298177065,18.787400787028766 L36.22603925640402,18.91067345807052 L36.324868748673694,19.037042595475054 L36.41995070777956,19.1663776901752 L36.51118693681973,19.298545169979917 L36.59848321061083,19.433408537522407 L36.68174937300006,19.57082851122922 L36.76089942997493,19.710663169164757 L36.83585163847448,19.852768095602677 L36.90652859081028,19.996996530172755 L36.97285729461009,20.143199519429217 L37.03476924820143,20.29122607068399 L37.09220051135746,20.440923307946008 L37.14509177133195,20.5921366298055 L37.19338840411507,20.744709869100248 L37.237040530847,20.89848545419888 L37.27600306933079,21.053304571734635 L37.310235780591505,21.209007330621567 L37.33970331043346,21.365432927183743 L37.36437522595261,21.522419811226953 L37.38422604696648,21.679805852881387 L37.39923527232911,21.837428510042983 L37.40938740110377,21.9951249962405 L37.41467194857178,22.152732448754975 L37.415083457060696,22.31008809681793 L37.41062150158074,22.4670294297146 L37.401290690263785,22.623394364618612 L37.38710065960419,22.77902141398473 L37.36806606450665,22.933749852326827 L37.34420656315116,23.087419882208856 L37.31554679669086,23.239872799277325 L37.28211636380358,23.390951156164917 L37.24394979012351,23.540498925095918 L37.20108649258449,23.68836165902557 L37.15357073871174,23.834386651146882 L37.101451600904134,23.97842309260021 L37.044782905754104,24.12032222822271 L36.98362317845771,24.259937510176808 L36.918035582372106,24.397124749299024 L36.8480878537829,24.531742264012884 L36.77385223194879,24.66365102665204 L36.69540538449571,24.7927148070426 L36.61282832823754,24.918800313196254 L36.5262063455051,25.041777328969015 L36.43562889606994,25.161518848543302 L36.341189524753815,25.277901207594567 L36.24298576481926,25.390804211006913 L36.14111903724108,25.50011125700589 L36.03569454596279,25.60570945758023 L35.9268211692461,25.707489755068092 L35.81461134722573,25.805347034787573 L35.69918096578569,25.899180233594972 L35.58064923687691,25.988892444258838 L35.45913857539979,26.07439101554195 L35.33477447277895,26.155587647887838 L35.207685367360654,26.232398484613114 "/>
			<path d="M-0.9202618974568664,1.5879932929453622 L-1.0207430716321397,1.5161108167971102 L-1.1170086015853586,1.4379668396086387 L-1.2086609130038433,1.3538840941175734 L-1.29532148405599,1.2642098400311372 L-1.376632408677296,1.169314429851946 L-1.4522578747137578,1.0695897793311215 L-1.5218855508179512,0.9654477488657097 L-1.5852278763699503,0.8573184425251926 L-1.6420232490957394,0.7456484317320733 L-1.6920371054782835,0.6308989109326913 L-1.7350628894991873,0.5135437928753039 L-1.7709229057100577,0.3940677513618855 L-1.799469053110415,0.2729642195570363 L-1.8205834368012441,0.15073335212093697 L-1.8341788548880795,0.027879959582684966 L-1.8401991586227235,-0.09508857651499147 L-1.8386194842962178,-0.21766439908924695 L-1.8294463559253624,-0.3393412729545974 L-1.812717658308682,-0.45961667556200647 L-1.7885024805631247,-0.5779938724048697 L-1.7569008307876788,-0.6939839685205251 L-1.7180432230323397,-0.8071079276146348 L-1.6720901382782363,-0.9168985504695073 L-1.6192313616550584,-1.0229024044655772 L-1.5596851986330549,-1.1246816962471669 L-1.4936975734267177,-1.2218160797984687 L-1.4215410133337172,-1.3139043924624334 L-1.3435135232037498,-1.4005663117328506 L-1.3023979716052172,-1.441749609956841 L-1.2599373546857056,-1.4814439259771088 L-1.216175524097761,-1.5196082650677065 L-1.1711576753361488,-1.5562032126025913 L-1.124930301061724,-1.5911909747614994 L-1.0775411430856463,-1.624535417561912 L-1.0290391430635197,-1.6562021041768102 L-0.9794743919503899,-1.686158330499664 "/>
			<path d="M-0.9794743919503757,-1.6861583304996721 L-0.9266924612148091,-1.7155516662424988 L-0.8728690614165768,-1.7430169686187287 L-0.8180646823169361,-1.7685233705781607 L-0.7623409161568075,-1.7920422065929598 L-0.7057603884359551,-1.813547044873591 L-0.6483866875309299,-1.8330137170743468 L-0.5902842932308783,-1.8504203454550936 L-0.5315185042715347,-1.865747367468705 "/>
			<path d="M17.70550084983574,12.340461094366841 L17.663074213269674,12.383915853203025 L17.61916974185082,12.425764106743824 L17.573836777891334,12.465958823570281 L17.527126269123567,12.504454830600915 L17.479090711442133,12.541208863859776 L17.42978408990607,12.576179617098918 L17.379261818067416,12.6093277882207 L17.32758067569432,12.640616123447677 "/>
			<path d="M17.327580675694314,12.640616123447682 L17.274205080558406,12.670325939955179 L17.219765379522297,12.698064189902519 L17.164324124883077,12.723799001489919 L17.107945019742814,12.74750080490804 L17.050692844812414,12.769142366314282 L16.992633383977306,12.788698819125017 L16.933833348710444,12.806147692587775 L16.8743603014195,12.821468937600597 L16.814282577816336,12.834644949748844 L16.753669208397877,12.845660589533017 L16.692589839128747,12.854503199764348 L16.631114651416624,12.86116262010816 L16.56931428147245,12.865631198758294 L16.507259739148008,12.867903801229177 L16.445022326344173,12.867977816255461 L16.38267355508365,12.865853158792415 L16.320285065342212,12.861532270113635 L16.25792854273296,12.85502011500598 L16.195675636138116,12.846324176064932 L16.133597875383053,12.835454445096948 L16.071766589047098,12.822423411638667 L16.010252822505574,12.807246048606192 L15.94912725629726,12.789939795090916 L15.888460124911045,12.770524536321645 L15.828321136085108,12.749022580816092 L15.768779390711343,12.725458634747937 L15.709903303437063,12.699859773558947 L15.651760524055211,12.672255410848752 L15.594417859773406,12.642677264578044 L15.537941198451136,12.611159320624001 L15.482395432893297,12.577737793729842 L15.427844386287088,12.542451085893383 "/>
			<path d="M15.42784438628707,12.542451085893372 L-0.9202618974568679,1.5879932929453595 "/>
			<path d="M25.879553991707706,17.817689990840854 L25.83712735514164,17.861144749677035 L25.793222883722784,17.902993003217833 L25.7478899197633,17.943187720044293 L25.701179410995536,17.981683727074927 L25.6531438533141,18.018437760333786 L25.60383723177804,18.05340851357293 L25.553314959939385,18.08655668469471 L25.50163381756629,18.11784501992169 "/>
			<path d="M25.501633817566283,18.117845019921692 L25.423994062916663,18.16022886514197 L25.344181709634395,18.19844850085853 L25.26238903266928,18.232411852621276 L25.17881307774432,18.262037099740983 L25.09365518665531,18.28725287240247 L25.007120512220848,18.30799842360075 L24.919417524051173,18.3242237754859 L24.830757506326673,18.335889839764054 L24.74135404879574,18.34296851186453 L24.65142253221838,18.34544273864623 L24.56117960949511,18.343306559480116 L24.470842683731107,18.336565120608906 L24.380629384493123,18.325234662749324 L24.290757043520767,18.30934248196678 L24.201442171155335,18.288926863916775 L24.112899934747414,18.26403699161138 L24.02534364029989,18.234732826933083 L23.938984218595117,18.201084966181334 L23.854029717044174,18.163174469999884 L23.77068479848243,18.121092668094605 L23.689150248118857,18.07494093921222 L23.609622489826855,18.02483046691001 L23.532293112941968,17.970881971704923 L23.457348410706363,17.913225420247233 L23.384968931472102,17.851999712219516 L23.315329043744356,17.787352345715153 L23.2485965161124,17.71943906190249 L23.184932113080368,17.64842346983074 L23.124489207771518,17.574476652281422 L23.067413412438906,17.497776753615003 L23.01384222767274,17.41850855060548 L22.9639047111494,17.336863007296984 L22.917721166720206,17.25303681495464 L22.875402854588884,17.167231918218118 L22.837051723276005,17.07965502859927 L22.802760164016068,16.99051712649602 L22.772610788178913,16.900032952922093 L22.746676228251705,16.80842049217711 L22.725018962860908,16.715900446703305 L22.707691166255803,16.622695705394023 L22.694734582616146,16.529030806634854 L22.686180425486786,16.435131397370977 L22.682049302581504,16.341223689503934 L22.682351166137224,16.247533914927313 L22.6870852889382,16.15428778051433 L22.696240266067942,16.06170992437018 L22.709794042384665,15.97002337465918 L22.72771396565405,15.879449012310369 L22.749956865211345,15.79020503889603 L22.776469155963266,15.702506450964965 L22.807186967479186,15.616564522096988 L22.842036297860606,15.532586293926368 L22.880933192018194,15.450774077360391 L22.923783943926956,15.371324965194667 L22.970485322372266,15.294430357299325 L23.02092481964289,15.220275499519955 L23.074980922571925,15.14903903740415 L23.132523405272657,15.08089258582872 L23.193413642864137,15.016000315564435 L23.257504945430654,14.954518557774255 L23.324642911410585,14.896595427397862 L23.394665799563292,14.8423704663298 L23.46740491861794,14.791974307250827 L23.542685033665517,14.745528358922355 "/>
			<path d="M23.54268503366553,14.745528358922346 L23.595466964401098,14.71613502317952 L23.64929036419933,14.68866972080329 L23.70409474329897,14.663163318843859 L23.759818509459098,14.639644482829059 L23.816399037179952,14.618139644548428 L23.873772738084977,14.598672972347673 L23.931875132385027,14.581266343966925 L23.990640921344372,14.565939321953314 "/>
			<path d="M34.05360713357968,23.294918887314847 L34.01118049701361,23.33837364615103 L33.96727602559476,23.38022189969183 L33.921943061635275,23.42041661651829 L33.87523255286751,23.458912623548922 L33.82719699518607,23.49566665680778 L33.77789037365001,23.53063741004693 L33.72736810181135,23.56378558116871 L33.67568695943826,23.595073916395688 "/>
			<path d="M33.67568695943825,23.59507391639569 L33.59804720478863,23.63745776161597 L33.518234851506364,23.675677397332528 L33.43644217454125,23.709640749095275 L33.35286621961629,23.739265996214982 L33.267708328527284,23.76448176887647 L33.18117365409282,23.785227320074753 L33.09347066592314,23.8014526719599 L33.00481064819864,23.813118736238053 L32.91540719066771,23.82019740833853 L32.82547567409035,23.82267163512023 L32.73523275136708,23.820535455954115 L32.64489582560308,23.813794017082905 L32.55468252636509,23.802463559223323 L32.464810185392736,23.78657137844078 L32.37549531302731,23.766155760390774 L32.28695307661938,23.74126588808538 L32.19939678217186,23.711961723407082 L32.11303736046709,23.678313862655333 L32.02808285891614,23.640403366473883 L31.9447379403544,23.598321564568607 L31.863203389990822,23.552169835686218 L31.783675631698827,23.502059363384014 L31.706346254813937,23.448110868178922 L31.631401552578332,23.390454316721232 L31.55902207334407,23.329228608693516 L31.48938218561633,23.264581242189152 L31.42264965798437,23.19666795837649 L31.358985254952337,23.125652366304735 L31.298542349643487,23.05170554875542 L31.241466554310875,22.975005650089003 L31.18789536954471,22.89573744707948 L31.13795785302137,22.814091903770983 L31.091774308592175,22.73026571142864 L31.049455996460853,22.644460814692117 L31.011104865147974,22.55688392507327 L30.976813305888037,22.46774602297002 L30.94666393005088,22.377261849396092 L30.920729370123674,22.28564938865111 L30.899072104732877,22.193129343177304 L30.88174430812777,22.09992460186802 L30.868787724488115,22.006259703108853 L30.860233567358755,21.912360293844976 L30.856102444453473,21.818452585977933 L30.856404308009193,21.724762811401312 L30.86113843081017,21.63151667698833 L30.87029340793991,21.53893882084418 L30.883847184256634,21.44725227113318 L30.90176710752602,21.35667790878437 L30.924010007083314,21.26743393537003 L30.950522297835235,21.179735347438964 L30.981240109351155,21.09379341857099 L31.016089439732575,21.009815190400367 L31.054986333890163,20.92800297383439 L31.097837085798925,20.848553861668666 L31.144538464244235,20.771659253773322 L31.19497796151486,20.697504395993956 L31.249034064443894,20.626267933878147 L31.306576547144626,20.55812148230272 L31.367466784736106,20.493229212038436 L31.431558087302623,20.431747454248253 L31.498696053282554,20.37382432387186 L31.568718941435264,20.3195993628038 L31.64145806048991,20.269203203724828 L31.716738175537486,20.222757255396353 "/>
			<path d="M31.7167381755375,20.222757255396345 L31.769520106273067,20.19336391965352 L31.8233435060713,20.16589861727729 L31.87814788517094,20.140392215317856 L31.93387165133107,20.11687337930306 L31.99045217905192,20.095368541022427 L32.047825879956946,20.07590186882167 L32.105928274256996,20.058495240440923 L32.164694063216345,20.04316821842731 "/>
			<path d="M-0.15359833013011037,-2.1659023965495434 L-0.9794743919503758,-1.6861583304996723 "/>
			<path d="M18.15345673751458,12.160872057397812 L17.327580675694314,12.640616123447684 "/>
			<path d="M26.327509879386547,17.638100953871817 L25.501633817566283,18.11784501992169 "/>
			<path d="M24.368561095485795,14.265784292872473 L23.54268503366553,14.745528358922344 "/>
			<path d="M34.50156302125853,23.115329850345823 L33.67568695943826,23.595073916395695 "/>
			<path d="M32.54261423735776,19.743013189346478 L31.716738175537497,20.22275725539635 "/>

       </g>

       <!-- solid lines -->
       <g stroke="rgb(0,0,0)" fill="none">
			<path d="M3.1855219527353085,-4.551521740268749 L35.88173452022318,17.35739384562728 "/>
			<path d="M-2.359645890915042,4.071777674218878 L-2.489753568793176,3.9816767129473973 L-2.617289927261897,3.8874636328131036 L-2.742123251794097,3.7892357333739133 L-2.864124619449638,3.687094460534971 L-2.9831680320218865,3.581145301779313 L-3.0991305461637007,3.471497677224547 L-3.2118924003584723,3.358264826618074 L-3.321337138605102,3.2415636923875315 L-3.427351730689183,3.1215147988672562 L-3.5298266889161436,2.998242127825503 L-3.62865618118582,2.871872990420966 L-3.723738140291687,2.742537895720824 L-3.8149743693318543,2.6103704159161096 L-3.9022706431229524,2.475507048373615 L-3.9855368055121825,2.3380870746668 L-4.0646868624870525,2.198252416731263 L-4.1396390709866,2.0561474902933443 L-4.210316023322409,1.9119190557232648 L-4.276644727122212,1.7657160664668008 L-4.338556680713548,1.6176895152120294 L-4.395987943869584,1.4679922779500156 L-4.448879203844069,1.316778956090523 L-4.497175836627195,1.1642057167957718 L-4.540827963359122,1.0104301316971422 L-4.579790501842911,0.855611014161386 L-4.6140232131036285,0.6999082552744524 L-4.643490742945579,0.5434826587122756 L-4.668162658464728,0.3864957746690689 L-4.688013479478604,0.22910973301463633 L-4.70302270484123,0.0714870758530386 L-4.713174833615892,-0.08620941034447904 L-4.718459381083907,-0.2438168628589532 L-4.718870889572817,-0.401172510921906 L-4.714408934092867,-0.5581138438185818 L-4.70507812277591,-0.714478778722597 L-4.690888092116314,-0.8701058280887106 L-4.6718534970187715,-1.024834266430807 L-4.6479939956632865,-1.1785042963128367 L-4.619334229202986,-1.3309572133813077 L-4.585903796315704,-1.4820355702688968 L-4.547737222635634,-1.6315833391998973 L-4.5048739250966126,-1.7794460731295514 L-4.457358171223866,-1.9254710652508655 L-4.405239033416256,-2.069507506704192 L-4.348570338266228,-2.2114066423266907 L-4.287410610969837,-2.351021924280788 L-4.221823014884231,-2.488209163403009 L-4.151875286295021,-2.6228266781168648 L-4.07763966446091,-2.7547354407560207 L-3.999192817007833,-2.883799221146581 L-3.9166157607496617,-3.0098847273002383 L-3.829993778017225,-3.132861743072997 L-3.7394163285820694,-3.252603262647284 L-3.644976957265942,-3.3689856216985468 L-3.5467731973313805,-3.481888625110894 L-3.4449064697532044,-3.5911956711098734 L-3.339481978474916,-3.696793871684208 L-3.2306086017582194,-3.798574169172074 L-3.118398779737849,-3.896431448891555 L-3.0029683982978175,-3.990264647698952 L-2.8844366693890358,-4.079976858362818 L-2.762926007911914,-4.165475429645929 L-2.6385619052910756,-4.246672061991821 L-2.5114727998727946,-4.323482898717087 "/>
			<path d="M-1.5337698290947768,3.592033608169007 L-1.6638775069729106,3.5019326468975263 L-1.7914138654416316,3.4077195667632325 L-1.9162471899738316,3.309491667324042 L-2.0382485576293727,3.2073503944851 L-2.157291970201621,3.101401235729442 L-2.2732544843434352,2.991753611174676 L-2.386016338538207,2.878520760568203 L-2.4954610767848364,2.7618196263376604 L-2.601475668868918,2.641770732817385 L-2.703950627095878,2.518498061775632 L-2.8027801193655546,2.392128924371095 L-2.8978620784714217,2.262793829670953 L-2.989098307511589,2.1306263498662386 L-3.076394581302687,1.9957629823237437 L-3.159660743691917,1.858343008616929 L-3.238810800666787,1.7185083506813918 L-3.313763009166334,1.5764034242434732 L-3.384439961502143,1.4321749896733937 L-3.450768665301947,1.2859720004169297 L-3.512680618893283,1.1379454491621583 L-3.5701118820493187,0.9882482119001446 L-3.623003142023804,0.8370348900406519 L-3.671299774806929,0.6844616507459007 L-3.714951901538857,0.5306860656472712 L-3.753914440022646,0.37586694811151483 L-3.788147151283363,0.2201641892245813 L-3.8176146811253133,0.0637385926624045 L-3.8422865966444624,-0.0932482913808022 L-3.8621374176583387,-0.2506343330352348 L-3.8771466430209642,-0.40825699019683254 L-3.887298771795627,-0.5659534763943501 L-3.8925833192636414,-0.7235609289088243 L-3.8929948277525517,-0.880916576971777 L-3.8885328722726014,-1.0378579098684528 L-3.8792020609556443,-1.194222844772468 L-3.8650120302960485,-1.3498498941385817 L-3.845977435198506,-1.504578332480678 L-3.822117933843021,-1.6582483623627078 L-3.7934581673827203,-1.8107012794311788 L-3.7600277344954387,-1.9617796363187678 L-3.7218611608153687,-2.1113274052497686 L-3.678997863276347,-2.2591901391794225 L-3.631482109403601,-2.4052151313007366 L-3.579362971595991,-2.549251572754063 L-3.5226942764459626,-2.691150708376562 L-3.4615345491495715,-2.8307659903306592 L-3.395946953063966,-2.96795322945288 L-3.3259992244747556,-3.102570744166736 L-3.2517636026406445,-3.234479506805892 L-3.1733167551875674,-3.363543287196452 L-3.0907396989293963,-3.4896287933501093 L-3.0041177161969594,-3.612605809122868 L-2.913540266761804,-3.732347328697155 L-2.8191008954456764,-3.848729687748418 L-2.720897135511115,-3.961632691160765 L-2.619030407932939,-4.070939737159745 L-2.5136059166546505,-4.176537937734079 L-2.404732539937954,-4.2783182352219455 L-2.2925227179175836,-4.376175514941426 L-2.177092336477552,-4.470008713748824 L-2.0585606075687704,-4.55972092441269 L-1.9370499460916486,-4.645219495695801 L-1.8126858434708102,-4.726416128041692 L-1.6855967380525292,-4.803226964766958 "/>
			<path d="M-1.6855967380524928,-4.80322696476698 L-1.5487362377040124,-4.879405981452872 L-1.4091472606883428,-4.950529699266564 L-1.266990197510856,-5.016516395644513 L-1.1224283894588993,-5.07729025056277 L-0.9756279409194151,-5.1327814336557 L-0.8267575285217008,-5.182926184452456 L-0.6759882073246146,-5.227666885639017 L-0.5234932142709203,-5.2669521292616395 L-0.36944776913459454,-5.300736775795602 L-0.21402887318983632,-5.3289820060114295 L-0.05741510583308407,-5.351655365578946 L0.10021358060825225,-5.368730802357953 L0.2586760676445905,-5.380188696332651 L0.41779027873291397,-5.386015882155429 L0.5773733884863328,-5.386205664274109 L0.7372420327440832,-5.38075782462527 L0.8972125192605889,-5.369678622884807 L1.0571010387714983,-5.352980789275436 L1.2167238761941745,-5.330683509939417 L1.3758976217199732,-5.302812404893302 L1.5344393815557544,-5.269399498590017 L1.6921669880724823,-5.230483183122137 L1.8488992091194425,-5.186108174108605 L2.004455956263585,-5.136325459315604 L2.1586584917147063,-5.081192240070596 L2.311329633698719,-5.020771865536865 L2.462293960043027,-4.955133759924067 L2.6113780097400836,-4.884353342718442 L2.7584104822575313,-4.808511942024317 L2.903222434365918,-4.727696701116513 L3.0456474742578132,-4.642000478310978 L3.1855219527352983,-4.551521740268755 "/>
			<path d="M35.20768536736063,26.232398484613128 L35.070824867012156,26.30857750129902 L34.931235889996486,26.37970121911271 L34.789078826819,26.44568791549066 L34.64451701876704,26.506461770408915 L34.49771657022756,26.561952953501848 L34.34884615782985,26.612097704298602 L34.19807683663276,26.656838405485164 L34.045581843579065,26.696123649107786 L33.89153639844274,26.72990829564175 L33.736117502497976,26.758153525857576 L33.57950373514123,26.780826885425093 L33.42187504869989,26.7979023222041 L33.26341256166355,26.809360216178796 L33.104298350575235,26.815187402001577 L32.944715240821814,26.815377184120255 L32.78484659656406,26.809929344471417 L32.62487611004755,26.798850142730956 L32.464987590536644,26.78215230912158 L32.30536475311397,26.759855029785566 L32.14619100758817,26.73198392473945 L31.98764924775239,26.698571018436166 L31.829921641235664,26.659654702968282 L31.673189420188702,26.615279693954754 L31.51763267304456,26.56549697916175 L31.36343013759344,26.510363759916743 L31.210758995609424,26.449943385383012 L31.05979466926512,26.384305279770217 L30.910710619568064,26.31352486256459 L30.763678147050612,26.237683461870468 L30.61886619494223,26.156868220962664 L30.476441155050335,26.071171998157126 L30.336566676572875,25.980693260114926 "/>
			<path d="M35.88173452022318,17.357393845627268 L36.01184219810132,17.44749480689875 L36.139378556570044,17.541707887033045 L36.26421188110224,17.639935786472236 L36.386213248757784,17.74207705931118 L36.50525666133004,17.84802621806684 L36.62121917547185,17.957673842621602 L36.733981029666616,18.070906693228075 L36.843425767913246,18.18760782745862 L36.94944035999733,18.307656720978898 L37.05191531822429,18.430929392020648 L37.15074481049396,18.557298529425182 L37.24582676959983,18.686633624125328 L37.33706299864,18.818801103930042 L37.4243592724311,18.953664471472536 L37.507625434820326,19.091084445179348 L37.586775491795194,19.230919103114886 L37.66172770029475,19.373024029552806 L37.73240465263055,19.517252464122883 L37.798733356430354,19.663455453379346 L37.860645310021695,19.81148200463412 L37.91807657317773,19.961179241896136 L37.970967833152216,20.112392563755627 L38.019264465935336,20.264965803050377 L38.062916592667264,20.41874138814901 L38.10187913115106,20.573560505684767 L38.13611184241177,20.729263264571696 L38.165579372253724,20.885688861133872 L38.190251287772874,21.042675745177082 L38.21010210878675,21.200061786831515 L38.225111334149375,21.35768444399311 L38.23526346292404,21.515380930190627 L38.24054801039205,21.672988382705103 L38.24095951888096,21.830344030768057 L38.23649756340101,21.98728536366473 L38.22716675208405,22.143650298568744 L38.212976721424454,22.299277347934858 L38.19394212632692,22.454005786276955 L38.17008262497143,22.607675816158984 L38.14142285851113,22.760128733227454 L38.10799242562385,22.911207090115045 L38.069825851943776,23.060754859046046 L38.026962554404754,23.2086175929757 L37.97944680053201,23.35464258509701 L37.9273276627244,23.49867902655034 L37.87065896757437,23.64057816217284 L37.80949924027798,23.780193444126937 L37.74391164419237,23.917380683249153 L37.67396391560317,24.051998197963012 L37.599728293769054,24.18390696060217 L37.521281446315975,24.31297074099273 L37.43870439005781,24.439056247146382 L37.35208240732537,24.562033262919144 L37.26150495789021,24.681774782493434 L37.16706558657408,24.798157141544696 L37.06886182663953,24.91106014495704 L36.96699509906135,25.02036719095602 L36.86157060778306,25.125965391530357 L36.752697231066364,25.22774568901822 L36.640487409045996,25.3256029687377 L36.52505702760596,25.4194361675451 L36.406525298697176,25.509148378208966 L36.28501463722006,25.594646949492077 L36.16065053459922,25.675843581837967 L36.03356142918092,25.752654418563246 "/>
			<path d="M36.0335614291809,25.752654418563253 L35.89670092883242,25.828833435249148 L35.75711195181675,25.89995715306284 L35.61495488863927,25.965943849440787 L35.47039308058731,26.026717704359044 L35.32359263204783,26.082208887451976 L35.174722219650114,26.13235363824873 L35.023952898453025,26.177094339435293 L34.87145790539933,26.216379583057915 L34.717412460263006,26.250164229591878 L34.56199356431824,26.278409459807705 L34.4053797969615,26.30108281937522 L34.247751110520156,26.318158256154227 L34.08928862348382,26.329616150128928 L33.9301744123955,26.3354433359517 L33.77059130264208,26.335633118070383 L33.610722658384326,26.330185278421546 L33.45075217186782,26.31910607668108 L33.29086365235691,26.30240824307171 L33.13124081493424,26.280110963735694 L32.97206706940844,26.252239858689578 L32.813525309572654,26.218826952386294 L32.65579770305593,26.179910636918414 L32.49906548200897,26.13553562790488 L32.34350873486483,26.085752913111882 L32.18930619941371,26.03061969386687 L32.03663505742969,25.97019931933314 L31.885670731085387,25.904561213720342 L31.73658668138833,25.83378079651472 L31.58955420887088,25.757939395820593 L31.444742256762495,25.67712415491279 L31.302317216870602,25.59142793210726 L31.162442738393143,25.50094919406505 "/>
			<path d="M30.336566676572833,25.980693260114897 L-2.3596458909150435,4.071777674218872 "/>
			<path d="M0.9202618974568669,-1.5879932929453622 L17.268368181200806,9.36646450000265 "/>
			<path d="M-0.5315185042715337,-1.8657473674687053 L-0.44093667548298093,-1.8850486817917007 L-0.3492066508356987,-1.8994413432167125 L-0.25656729463895733,-1.908887873359286 L-0.16325983909469133,-1.9133636735244335 L-0.0695272561306205,-1.912857088761455 L0.024386375296861496,-1.907369438213348 L0.1182365047824957,-1.8969150116817617 L0.21177874727961077,-1.8815210324164666 L0.30476951947698994,-1.8612275862262062 L0.396966674088018,-1.83608751709555 L0.48813013040043607,-1.8061662895795434 L0.5780224994447496,-1.7715418183344906 L0.6664097021533576,-1.7323042652287612 L0.7530615789007231,-1.6885558045619484 L0.8377524888373438,-1.6404103570037465 L0.9202618974568629,-1.5879932929453646 "/>
			<path d="M17.268368181200806,9.366464500002646 L17.355977238387254,9.428612112811019 L17.4404383220396,9.495525535960558 L17.521487627297926,9.566995772769518 L17.598872005615053,9.642799593852317 L17.67234975543805,9.722700234351851 L17.741691377136306,9.806448133448363 L17.80668028981828,9.893781713835079 L17.867113507797967,9.984428198726013 L17.922802274598254,10.078104463844111 L17.973572652510924,10.174517921728638 L18.019266065871843,10.27336743559978 L18.05973979635455,10.374344259926087 L18.09486742873515,10.477133004757013 L18.1245392457363,10.58141262080858 L18.14866257071702,10.686857402225328 L18.1671620571379,10.793138003886554 L18.17997992389773,10.899922470079398 L18.187076135806343,11.006877271325823 L18.18842852863014,11.113668346125085 L18.184032878319606,11.219962144357893 L18.173902914202664,11.325426669093359 L18.158070276102645,11.429732513544705 L18.136584415514783,11.53255388993496 L18.109512441149953,11.633569647059076 L18.076938909328003,11.73246427336422 L18.03896555987547,11.82892888241524 L17.995710998352443,11.922662177667307 L17.947310325601226,12.013371393532362 L17.89391471577378,12.100773209800089 L17.835690944155964,12.184594636557271 L17.772820866263377,12.26457386684161 L17.705500849835744,12.340461094366836 "/>
			<path d="M26.11609978828094,17.49974632423445 L26.06364650112782,17.584598341607773 L26.006622885555636,17.666032111126565 L25.945198009897783,17.743806191213398 L25.879553991707713,17.817689990840847 "/>
			<path d="M23.990640921344372,14.565939321953314 L24.05672621488466,14.55135075882938 L24.123459069583305,14.53937832297192 L24.190746639455764,14.530038671732093 L24.25849530673759,14.52334479944558 L24.32661081213561,14.519306019353444 L24.394998385971675,14.517927950644548 L24.463562880036537,14.519212510637532 L24.532208899970325,14.523157912113223 L24.600840937985534,14.529758665801218 L24.66936350574784,14.53900558801714 L24.73768126722978,14.550885813439988 L24.805699171352625,14.56538281301176 L24.87332258423171,14.582476416934472 L24.940457420841362,14.602142842732567 L25.007010275916222,14.62435472834168 L25.072888553906736,14.649081170177704 L25.138000597808162,14.676287766133207 L25.202255816683707,14.705936663441378 L25.265564811704483,14.737986611340899 L25.32783950053085,14.772393018468481 L25.3889932398621,14.8091080148992 L25.44894094598404,14.848080518748333 L25.50759921314667,14.889256307242007 L25.564886429607302,14.932578092157815 L25.62072289117768,14.977985599530395 L25.675030912117077,15.025415653511105 L25.727734933217135,15.074802264265129 L25.778761626928016,15.126076719783672 L25.828039999379662,15.179167681483573 L25.87550148915614,15.234001283461275 L25.921080062685746,15.290501235263077 L25.964712306114045,15.348588928028692 L26.00633751353213,15.408183543860412 L26.045897771437247,15.469202168265742 L26.083338039308334,15.531559905517021 L26.118606226184387,15.595169996767574 L26.15165326313904,15.659943940760028 L26.182433171550574,15.725791616958857 L26.21090312707237,15.79262141093584 L26.237023519214777,15.860340341834002 L26.26075800645553,15.92885419173265 L26.282073566801998,15.998067636733573 L26.300940543734995,16.067884379585983 L26.317332687470106,16.138207283665697 L26.331227191479268,16.208938508122134 L26.34260472422166,16.279979644005127 L26.351449456039852,16.351231851182124 L26.35774908118374,16.4225959958553 L26.36149483493164,16.493972788487234 L26.362681505784717,16.565262921943308 L26.361307442717784,16.636367209658545 L26.357374557476398,16.707186723636706 L26.35088832191702,16.777622932089667 L26.341857760393985,16.847577836525524 L26.330295437203837,16.91695410809471 L26.316217439104513,16.985655223004457 L26.29964335293371,17.05358559681316 L26.280596238357546,17.120650717417828 L26.259102595787454,17.186757276549546 L26.235192329509932,17.25181329959409 L26.208898706080458,17.315728273556967 L26.180258308039456,17.378413272994905 L26.149310983014693,17.439781083738588 L26.116099788280945,17.499746324234444 "/>
			<path d="M34.290152930152914,22.97697522070845 L34.23769964299979,23.061827238081772 L34.18067602742761,23.143261007600564 L34.11925115176976,23.221035087687394 L34.05360713357969,23.294918887314843 "/>
			<path d="M32.164694063216345,20.04316821842731 L32.23077935675663,20.02857965530338 L32.29751221145528,20.01660721944592 L32.36479978132773,20.007267568206093 L32.43254844860956,20.00057369591958 L32.50066395400758,19.996534915827443 L32.56905152784365,19.995156847118547 L32.63761602190851,19.996441407111533 L32.706262041842294,20.000386808587223 L32.77489407985751,20.006987562275217 L32.84341664761981,20.01623448449114 L32.911734409101754,20.02811470991399 L32.979752313224594,20.04261170948576 L33.04737572610368,20.05970531340847 L33.114510562713335,20.079371739206568 L33.181063417788195,20.10158362481568 L33.24694169577871,20.126310066651705 L33.31205373968013,20.153516662607206 L33.376308958555676,20.183165559915377 L33.43961795357645,20.2152155078149 L33.50189264240282,20.24962191494248 L33.56304638173407,20.2863369113732 L33.622994087856014,20.325309415222332 L33.68165235501864,20.366485203716007 L33.73893957147927,20.409806988631814 L33.79477603304965,20.455214496004395 L33.849084053989046,20.502644549985106 L33.9017880750891,20.55203116073913 L33.95281476879999,20.60330561625767 L34.00209314125163,20.656396577957572 L34.04955463102811,20.711230179935274 L34.09513320455771,20.76773013173708 L34.13876544798602,20.825817824502693 L34.1803906554041,20.885412440334413 L34.21995091330922,20.94643106473974 L34.2573911811803,21.00878880199102 L34.292659368056356,21.072398893241573 L34.32570640501101,21.13717283723403 L34.35648631342254,21.203020513432858 L34.384956268944336,21.26985030740984 L34.411076661086746,21.337569238308003 L34.4348111483275,21.40608308820665 L34.45612670867397,21.475296533207572 L34.47499368560696,21.545113276059986 L34.49138582934208,21.615436180139696 L34.50528033335124,21.686167404596134 L34.51665786609363,21.757208540479127 L34.52550259791182,21.828460747656127 L34.531802223055706,21.8998248923293 L34.53554797680361,21.971201684961237 L34.53673464765669,22.04249181841731 L34.53536058458975,22.113596106132544 L34.53142769934836,22.184415620110705 L34.52494146378899,22.25485182856367 L34.51591090226595,22.324806732999527 L34.5043485790758,22.39418300456871 L34.490270580976485,22.462884119478456 L34.47369649480568,22.53081449328716 L34.45464938022952,22.597879613891827 L34.433155737659426,22.663986173023545 L34.4092454713819,22.72904219606809 L34.38295184795243,22.792957170030967 L34.35431144991143,22.855642169468904 L34.323364124886666,22.917009980212587 L34.290152930152914,22.976975220708443 "/>
			<path d="M31.162442738393096,25.500949194065026 L-1.5337698290947799,3.5920336081690003 "/>
			<path d="M1.7461379592771324,-2.0677373589952333 L18.09424424302107,8.88672043395278 "/>
			<path d="M-0.09438583563660097,1.108249226895491 L-0.19486700981187433,1.0363667507472392 L-0.29113253976509323,0.9582227735587676 L-0.38278485118357786,0.8741400280677023 L-0.4694454222357245,0.7844657739812662 L-0.5507563468570307,0.6895703638020749 L-0.6263818128934924,0.5898457132812505 L-0.6960094889976858,0.4857036828158386 L-0.7593518145496849,0.3775743764753215 L-0.816147187275474,0.26590436568220216 L-0.866161043658018,0.15115484488282022 L-0.9091868276789219,0.03379972682543281 L-0.9450468438897923,-0.08567631468798564 L-0.9735929912901495,-0.20677984649283482 L-0.9947073749809787,-0.32901071392893416 L-1.0083027930678141,-0.45186410646718617 L-1.0143230968024581,-0.5748326425648627 L-1.0127434224759524,-0.6974084651391181 L-1.003570294105097,-0.8190853390044686 L-0.9868415964884165,-0.9393607416118777 L-0.9626264187428593,-1.0577379384547407 L-0.9310247689674134,-1.1737280345703962 L-0.8921671612120743,-1.286851993664506 L-0.8462140764579709,-1.3966426165193784 L-0.793355299834793,-1.5026464705154483 L-0.7338091368127895,-1.604425762297038 L-0.6678215116064523,-1.7015601458483398 L-0.5956649515134518,-1.7936484585123045 L-0.5176374613834844,-1.8803103777827217 L-0.4765219097849518,-1.921493676006712 L-0.43406129286544015,-1.96118799202698 L-0.39029946227749557,-1.9993523311175776 L-0.3452816135158834,-2.0359472786524626 L-0.2990542392414586,-2.0709350408113707 L-0.2516650812653809,-2.104279483611783 L-0.20316308124325433,-2.1359461702266813 L-0.15359833013012447,-2.165902396549535 "/>
			<path d="M-0.15359833013011026,-2.1659023965495434 L-0.10022273499420287,-2.1956122130570415 L-0.04578303395809169,-2.223350463004381 L0.009658220681128094,-2.249085274591781 L0.0660373258213911,-2.2727870780099013 L0.12328950075179002,-2.2944286394161444 L0.18134896158689862,-2.313985092226879 L0.24014899685376212,-2.331433965689638 L0.29962204414470306,-2.3467552107024603 L0.35969976774787005,-2.359931222850706 L0.4203131371663257,-2.3709468626348786 L0.48139250643545917,-2.37978947286621 L0.5428676941475804,-2.3864488932100225 L0.6046680640917523,-2.390917471860155 L0.6667226064161984,-2.3931900743310384 L0.7289600192200315,-2.3932640893573236 L0.7913087904805541,-2.3911394318942767 L0.8536972802219915,-2.386818543215496 L0.9160538028312463,-2.380306388107841 L0.9783067094260899,-2.371610449166794 L1.0403844701811513,-2.360740718198809 L1.102215756517106,-2.347709684740528 L1.16372952305863,-2.3325323217080545 L1.2248550892669445,-2.3152260681927768 L1.28552222065316,-2.295810809423507 L1.3456612094790974,-2.2743088539179537 L1.4052029548528622,-2.250744907849798 L1.4640790421271426,-2.2251460466608073 L1.5222218215089942,-2.1975416839506132 L1.579564485790799,-2.167963537679905 L1.6360411471130698,-2.1364455937258615 L1.6915869126709089,-2.103024066831703 L1.7461379592771284,-2.067737358995236 "/>
			<path d="M18.094244243021073,8.886720433952775 L18.194725417196345,8.958602910101028 L18.290990947149567,9.0367468872895 L18.38264325856805,9.120829632780566 L18.469303829620195,9.210503886867002 L18.5506147542415,9.305399297046193 L18.626240220277964,9.405123947567018 L18.695867896382158,9.50926597803243 L18.759210221934158,9.617395284372947 L18.816005594659945,9.729065295166066 L18.86601945104249,9.843814815965446 L18.90904523506339,9.961169934022834 L18.944905251274264,10.080645975536253 L18.97345139867462,10.201749507341102 L18.99456578236545,10.323980374777202 L19.008161200452285,10.446833767315454 L19.01418150418693,10.56980230341313 L19.012601829860422,10.692378125987386 L19.003428701489568,10.814054999852734 L18.986700003872887,10.934330402460144 L18.96248482612733,11.052707599303007 L18.930883176351884,11.168697695418663 L18.892025568596544,11.281821654512772 L18.84607248384244,11.391612277367646 L18.793213707219262,11.497616131363715 L18.73366754419726,11.599395423145305 L18.667679918990924,11.696529806696606 L18.59552335889792,11.78861811936057 L18.517495868767956,11.875280038630988 L18.476380317169422,11.91646333685498 L18.43391970024991,11.956157652875246 L18.390157869661966,11.994321991965844 L18.345140020900352,12.03091693950073 L18.29891264662593,12.065904701659637 L18.251523488649852,12.09924914446005 L18.203021488627726,12.130915831074947 L18.15345673751459,12.160872057397805 "/>
			<path d="M18.15345673751458,12.16087205739781 L18.100081142378674,12.190581873905307 L18.045641441342564,12.218320123852648 L17.990200186703344,12.244054935440047 L17.93382108156308,12.267756738858168 L17.87656890663268,12.289398300264411 L17.818509445797574,12.308954753075145 L17.75970941053071,12.326403626537903 L17.700236363239767,12.341724871550726 L17.640158639636603,12.354900883698972 L17.579545270218144,12.365916523483145 L17.518465900949014,12.374759133714477 L17.45699071323689,12.381418554058289 L17.395190343292718,12.385887132708422 L17.333135800968275,12.388159735179306 L17.27089838816444,12.38823375020559 L17.208549616903916,12.386109092742544 L17.14616112716248,12.381788204063763 L17.083804604553226,12.375276048956108 L17.021551697958383,12.366580110015061 L16.95947393720332,12.355710379047077 L16.897642650867365,12.342679345588795 L16.83612888432584,12.32750198255632 L16.775003318117527,12.310195729041045 L16.714336186731312,12.290780470271773 L16.654197197905376,12.26927851476622 L16.594655452531608,12.245714568698066 L16.53577936525733,12.220115707509075 L16.47763658587548,12.19251134479888 L16.42029392159367,12.162933198528172 L16.363817260271404,12.13141525457413 L16.308271494713566,12.09799372767997 L16.253720448107355,12.062707019843511 "/>
			<path d="M16.253720448107337,12.0627070198435 L-0.09438583563660075,1.108249226895488 "/>
			<path d="M26.941975850101205,17.02000225818458 L26.978777485951216,16.953211101103097 L27.012771912793816,16.884696329929326 L27.043900611585936,16.814575888079794 L27.07210999643618,16.742970483021498 L27.097351506849186,16.670003378482388 L27.11958169131917,16.59580018226142 L27.138762282128646,16.520488630003477 L27.154860261223664,16.444198365311316 L27.16784791705209,16.367060716573132 L27.177702892267103,16.289208470889857 L27.184408222213833,16.21077564549139 L27.187952364132823,16.131897257035266 L27.188329217030095,16.052709089184848 L27.185538132179573,15.973347458867206 L27.17958391423984,15.89394898161298 L27.170476812983235,15.814650336382252 L27.158232505651593,15.735588030281221 L27.142872069968956,15.656898163574695 L27.124421947857744,15.57871619539895 L27.10291389992081,15.501176710578246 L27.07838495076779,15.424413187946401 L27.050877325279785,15.348557770572254 L27.020438375922186,15.273741038284566 L26.987120501230685,15.200091782887908 L26.95098105561084,15.127736786456532 L26.912082250606446,15.056800603087837 L26.870491047806702,14.987405344491144 L26.826279043576474,14.91967046978088 L26.779522345808132,14.853712579836023 L26.730301442907113,14.789645216579771 L26.67870106523671,14.72757866752504 L26.62481003926065,14.667619775922153 L26.56872113463452,14.609871756835627 L26.51053090450922,14.554434019466601 L26.45033951932147,14.501401996026813 L26.388250594357324,14.45086697745868 L26.324371011385686,14.402915956284284 L26.258810734668753,14.357631476853788 L26.1916826216662,14.315091493251083 L26.12310222875889,14.275369235101245 L26.053187612326596,14.238533081510822 L25.982059125522174,14.20464644335796 L25.90983921109194,14.173767654134988 L25.836652190599015,14.145949869531352 L25.76262405041239,14.121240975929801 L25.687882224830155,14.099683507973307 L25.61255537671019,14.081314575344624 L25.536773175986017,14.066165798884562 L25.460666076449023,14.054263256158894 L25.38436509118132,14.04562743656765 L25.308001567025816,14.040273206074032 L25.231706958481784,14.038209781613693 L25.155612601415054,14.03944071522843 L25.079849486972453,14.043963887951575 L25.004548036089666,14.051771513455668 L24.92983787498063,14.06285015145606 L24.855847611995046,14.077180730847445 L24.782704616228028,14.094738582533434 L24.71053479826306,14.115493481892688 L24.639462393425678,14.139409700808507 L24.569609747920996,14.166446069172302 L24.50109710822322,14.196556045755067 L24.434042414079688,14.229687798324878 L24.368561095485802,14.265784292872471 "/>
			<path d="M24.368561095485795,14.265784292872475 L24.293280980438205,14.312230241200956 L24.220541861383555,14.362626400279929 L24.15051897323085,14.416851361347991 L24.083381007250917,14.474774491724384 L24.019289704684404,14.536256249514564 L23.958399467092924,14.601148519778846 L23.900856984392192,14.669294971354276 L23.846800881463157,14.740531433470082 L23.79636138419253,14.814686291249453 L23.74966000574722,14.891580899144795 L23.706809253838458,14.971030011310518 L23.66791235968087,15.052842227876496 L23.63306302929945,15.136820456047117 L23.60234521778353,15.222762384915093 L23.57583292703161,15.310460972846158 L23.553590027474314,15.399704946260497 L23.53567010420493,15.490279308609306 L23.522116327888206,15.58196585832031 L23.512961350758463,15.674543714464459 L23.508227227957487,15.767789848877442 L23.507925364401768,15.861479623454061 L23.51205648730705,15.955387331321106 L23.52061064443641,16.04928674058498 L23.533567228076066,16.14295163934415 L23.55089502468117,16.236156380653433 L23.572552290071968,16.328676426127238 L23.598486849999176,16.42028888687222 L23.62863622583633,16.510773060446148 L23.66292778509627,16.599910962549398 L23.701278916409148,16.687487852168246 L23.74359722854047,16.77329274890477 L23.789780772969664,16.85711894124711 L23.839718289493003,16.93876448455561 L23.89328947425917,17.01803268756513 L23.95036526959178,17.09473258623155 L24.01080817490063,17.168679403780864 L24.074472577932664,17.23969499585262 L24.14120510556462,17.30760827966528 L24.210844993292366,17.372255646169645 L24.283224472526626,17.43348135419736 L24.35816917476223,17.49113790565505 L24.435498551647118,17.54508640086014 L24.515026309939117,17.595196873162347 L24.596560860302695,17.641348602044733 L24.679905778864438,17.683430403950013 L24.76486028041538,17.721340900131462 L24.851219702120154,17.75498876088321 L24.938775996567678,17.78429292556151 L25.0273182329756,17.809182797866903 L25.11663310534103,17.82959841591691 L25.206505446313386,17.845490596699452 L25.29671874555137,17.856821054559035 L25.387055671315373,17.863562493430244 L25.477298594038643,17.86569867259636 L25.567230110616,17.86322444581466 L25.656633568146933,17.856145773714182 L25.745293585871437,17.84447970943603 L25.832996574041108,17.828254357550883 L25.919531248475575,17.807508806352597 L26.004689139564583,17.78229303369111 L26.088265094489547,17.752667786571404 L26.17005777145466,17.718704434808657 L26.249870124736923,17.6804847990921 L26.327509879386533,17.638100953871827 "/>
			<path d="M26.327509879386547,17.63810095387182 L26.420315170476414,17.5800305379766 L26.509163807650587,17.515952565914553 L26.593727944253253,17.44610348192973 L26.673695543203504,17.370741025356395 L26.748771528395242,17.290143279574863 L26.81867887351203,17.20460764589888 L26.883159624239184,17.114449746180906 L26.941975850101205,17.02000225818458 "/>
			<path d="M35.11602899197318,22.49723115465858 L35.15283062782319,22.430439997577096 L35.18682505466579,22.361925226403326 L35.21795375345791,22.291804784553793 L35.24616313830815,22.220199379495497 L35.27140464872116,22.147232274956387 L35.29363483319114,22.07302907873542 L35.31281542400062,21.997717526477476 L35.32891340309564,21.921427261785315 L35.34190105892406,21.84428961304713 L35.35175603413907,21.766437367363856 L35.358461364085805,21.688004541965388 L35.3620055060048,21.609126153509266 L35.36238235890207,21.529937985658847 L35.359591274051546,21.450576355341205 L35.353637056111815,21.37117787808698 L35.344529954855204,21.291879232856253 L35.33228564752356,21.21281692675522 L35.31692521184093,21.134127060048694 L35.29847508972972,21.05594509187295 L35.27696704179279,20.978405607052245 L35.252438092639764,20.9016420844204 L35.22493046715176,20.825786667046252 L35.19449151779416,20.750969934758565 L35.16117364310266,20.67732067936191 L35.12503419748281,20.604965682930533 L35.08613539247842,20.534029499561836 L35.044544189678675,20.464634240965143 L35.00033218544845,20.396899366254882 L34.953575487680105,20.33094147631002 L34.904354584779085,20.26687411305377 L34.85275420710868,20.20480756399904 L34.798863181132624,20.144848672396154 L34.742774276506495,20.087100653309626 L34.6845840463812,20.0316629159406 L34.62439266119344,19.978630892500814 L34.562303736229296,19.92809587393268 L34.49842415325766,19.880144852758285 L34.43286387654073,19.83486037332779 L34.36573576353817,19.792320389725084 L34.29715537063086,19.752598131575244 L34.22724075419857,19.71576197798482 L34.15611226739414,19.68187533983196 L34.08389235296391,19.650996550608987 L34.010705332470984,19.623178766005353 L33.936677192284364,19.5984698724038 L33.86193536670213,19.576912404447306 L33.78660851858216,19.558543471818624 L33.71082631785799,19.54339469535856 L33.634719218320996,19.531492152632893 L33.55841823305329,19.52285633304165 L33.48205470889779,19.51750210254803 L33.40576010035376,19.515438678087694 L33.32966574328702,19.51666961170243 L33.25390262884443,19.521192784425576 L33.17860117796164,19.529000409929665 L33.1038910168526,19.54007904793006 L33.02990075386702,19.554409627321444 L32.9567577581,19.571967479007434 L32.88458794013503,19.592722378366688 L32.81351553529765,19.616638597282506 L32.74366288979297,19.6436749656463 L32.67515025009519,19.673784942229066 L32.60809555595166,19.706916694798878 L32.542614237357775,19.74301318934647 "/>
			<path d="M32.54261423735777,19.743013189346474 L32.46733412231018,19.789459137674953 L32.39459500325553,19.839855296753928 L32.32457211510282,19.89408025782199 L32.257434149122886,19.95200338819838 L32.19334284655638,20.01348514598856 L32.1324526089649,20.078377416252845 L32.074910126264164,20.146523867828275 L32.020854023335126,20.21776032994408 L31.970414526064502,20.29191518772345 L31.923713147619193,20.368809795618795 L31.88086239571043,20.448258907784517 L31.841965501552842,20.530071124350496 L31.807116171171423,20.614049352521114 L31.776398359655502,20.699991281389092 L31.74988606890358,20.787689869320157 L31.727643169346287,20.876933842734495 L31.7097232460769,20.967508205083305 L31.69616946976018,21.05919475479431 L31.687014492630436,21.15177261093846 L31.68228036982946,21.24501874535144 L31.68197850627374,21.338708519928062 L31.686109629179022,21.432616227795105 L31.694663786308382,21.526515637058978 L31.70762036994804,21.62018053581815 L31.724948166553144,21.713385277127433 L31.74660543194394,21.805905322601237 L31.77253999187115,21.89751778334622 L31.802689367708304,21.988001956920147 L31.83698092696824,22.077139859023397 L31.87533205828112,22.164716748642245 L31.917650370412442,22.250521645378768 L31.963833914841636,22.334347837721108 L32.01377143136497,22.415993381029608 L32.06734261613114,22.49526158403913 L32.12441841146375,22.57196148270555 L32.184861316772604,22.645908300254863 L32.24852571980463,22.71692389232662 L32.315258247436596,22.78483717613928 L32.384898135164335,22.849484542643644 L32.4572776143986,22.91071025067136 L32.532222316634204,22.96836680212905 L32.609551693519094,23.02231529733414 L32.68907945181109,23.072425769636347 L32.77061400217467,23.118577498518732 L32.85395892073641,23.16065930042401 L32.93891342228736,23.19856979660546 L33.02527284399213,23.23221765735721 L33.11282913843965,23.261521822035508 L33.201371374847575,23.286411694340902 L33.290686247213,23.306827312390908 L33.38055858818536,23.32271949317345 L33.47077188742334,23.334049951033034 L33.561108813187346,23.340791389904243 L33.651351735910616,23.34292756907036 L33.741283252487975,23.340453342288658 L33.83068671001891,23.33337467018818 L33.91934672774341,23.32170860591003 L34.007049715913084,23.30548325402488 L34.093584390347544,23.284737702826597 L34.178742281436556,23.25952193016511 L34.262318236361516,23.229896683045403 L34.34411091332663,23.195933331282657 L34.423923266608895,23.1577136955661 L34.501563021258505,23.115329850345827 "/>
			<path d="M34.50156302125852,23.11532985034582 L34.59436831234839,23.0572594344506 L34.68321694952256,22.993181462388552 L34.767781086125225,22.923332378403728 L34.84774868507547,22.847969921830394 L34.92282467026721,22.767372176048863 L34.99273201538401,22.681836542372878 L35.05721276611116,22.591678642654905 L35.116028991973174,22.49723115465858 "/>
			<path d="M-2.359645890915043,4.071777674218877 L-1.5337698290947777,3.592033608169006 "/>
			<path d="M30.336566676572833,25.980693260114897 L31.162442738393096,25.500949194065026 "/>
			<path d="M0.9202618974568668,-1.5879932929453622 L1.7461379592771322,-2.0677373589952333 "/>
			<path d="M17.268368181200806,9.36646450000265 L18.094244243021073,8.886720433952778 "/>
			<path d="M-1.6855967380524932,-4.80322696476698 L-2.5114727998727586,-4.323482898717108 "/>
			<path d="M36.0335614291809,25.752654418563257 L35.20768536736063,26.232398484613128 "/>

       </g>
    </g>
    <g transform="translate(20,210.0)" stroke="rgb(0,0,255)">
        <line x1="30" y1="-30" x2="75" y2="-33" stroke-width="3" stroke="#000000"/>
         <text x="80" y="-30" style="stroke:#000000">X </text>

        <line x1="30" y1="-30" x2="30" y2="-75" stroke-width="3" stroke="#000000"/>
         <text x="25" y="-85" style="stroke:#000000">Y </text>

        <line x1="30" y1="-30" x2="58" y2="-15" stroke-width="3" stroke="#000000"/>
         <text x="65" y="-5" style="stroke:#000000">Z </text>
        <!--
            <line x1="0" y1="0" x2="5.589574475916859" y2="0" stroke-width="3" />
            <text x="0" y="20" style="stroke:#000000">1  mm </text>
        -->
    </g>
</svg>