<svg xmlns:svg="http://www.w3.org/2000/svg" xmlns="http://www.w3.org/2000/svg" width="800.0" height="240.0">
    <g transform="scale(12.495107675921624, -12.495107675921624)   translate(20.725556408537134,-9.19426797463001)" stroke-width="0.08003132313353524" fill="none">
       <!-- hidden lines -->
       <g stroke="rgb(160,160,160)" fill="none" stroke-dasharray="0.08003132313353524,0.08003132313353524">
			<path d="M0.0,-4.8955701285543665 L37.7543342546407,-2.2090033586750875 "/>
			<path d="M-2.511472799872758,-4.323482898717109 L-2.3698231112912294,-4.402209872750258 L-2.2252586134472363,-4.475522264550975 L-2.077957116209933,-4.543329902140743 L-1.9280997958732289,-4.605549384218779 L-1.7758709723145365,-4.662104182743052 L-1.6214578822870171,-4.712924737057414 L-1.4650504491241523,-4.75794853944906 L-1.3068410491399078,-4.797120212031084 L-1.1470242750118071,-4.830391574855571 L-0.9857966964379454,-4.857721705173448 L-0.8233566183623304,-4.8790769877681965 L-0.659903837065922,-4.8944311563015335 L-0.49563939442337746,-4.903765325620199 L-0.3307653306277507,-4.907068014984108 L-0.16548443568729043,-4.904335162187308 L-3.552713678800501e-15,-4.895570128554367 "/>
			<path d="M37.754334254640696,-2.2090033586750883 L37.94456080668243,-2.1914883222596218 L38.13447816101835,-2.166044406162776 L38.32377762251822,-2.132712967389661 L38.512151500386096,-2.091548183468539 L38.69929360828653,-2.042616964389697 L38.88489976202546,-1.9859988438487162 L39.0686682739767,-1.9217858499709632 L39.25030044345053,-1.850082355727388 L39.42950104220726,-1.7710049092848066 L39.605978794326546,-1.6846820445663684 L39.779446849652636,-1.5912540723301913 L39.94962325004581,-1.4908728521056847 L40.11623138768228,-1.3837015453583095 L40.279000454657606,-1.2699143502839552 L40.437665883162786,-1.149696218664015 L40.59196977551761,-1.0232425552413882 L40.74166132336225,-0.8907589001060532 L40.88649721532572,-0.7524605946064513 L41.02624203250863,-0.6085724313297365 L41.16066863113737,-0.4593282887198069 L41.289558511767716,-0.304970750927017 L41.41270217443784,-0.14575071350747404 L41.52989945919332,0.01807302438716807 L41.64095987143082,0.18623418066656905 L41.74570289153151,0.3584594231214724 L41.84395826828086,0.5344688137028544 L41.93556629559816,0.7139762635383349 L42.02037807212565,0.8966899979462499 L42.09825574325552,1.0823130306915334 L42.169072725201275,1.2705436467125597 L42.232713910749354,1.4610758925343106 L42.28907585635649,1.6536000735707246 L42.33806695028872,1.8478032575079244 L42.3796075615288,2.0433697829501116 L42.41363016920985,2.2399817725013467 L42.44007947236507,2.437319649449265 L42.4589124798149,2.635062657210897 L42.470098580045665,2.832889380696263 L42.47361959096612,3.030478268742317 L42.469469789460916,3.227508156768068 L42.457655920693085,3.4236587888013594 L42.4381971871403,3.618611338028747 L42.41112521738284,3.8120489250224256 L42.376484014693915,4.003657132801829 L42.33432988551594,4.1931245178927075 L42.28473134793903,4.380143116553047 L42.2277690203304,4.564408945342943 L42.163535490295864,4.745622495224824 L42.092135164186224,4.923489218390904 L42.01368409739328,5.097720007026561 L41.92830980571127,5.268031663231444 L41.83615105807042,5.434147359334505 L41.737357650979334,5.595797087854752 L41.68552271734428,5.674864810072533 L41.63209016504306,5.752718100376317 L41.57708170884306,5.829325319512225 L41.52051970395243,5.904655334624531 L41.462427136935084,5.978677531907914 L41.402827616369,6.051361829048794 L41.34174536325186,6.122678687450649 L41.27920520115765,6.192599124238378 L41.21523254614855,6.261094724036835 L41.14985339644589,6.328137650518702 L41.083094321864614,6.393700657717067 L41.014982453015385,6.457757101098069 L40.94554547027887,6.520280948389129 L40.8748115925565,6.581246790158346 L40.80280956580244,6.6406298501408 L40.72956865134136,6.6984059953075175 L40.65511861397675,6.754551745673028 L40.57948970989461,6.80904428383754 L40.502712674367515,6.861861464259839 L40.424818709263874,6.912981822257128 L40.345839470367615,6.9623845827282125 L40.26580705451347,7.010049668596377 "/>
			<path d="M1.3573945660917994,1.3860033014188344 L1.3149679295257317,1.429458060255017 L1.2710634581068774,1.4713063137958162 L1.2257304941473932,1.511501030622273 L1.1790199853796273,1.5499970376529077 L1.1309844276981926,1.586751070911767 L1.0816778061621333,1.6217218241509095 L1.0311555343234775,1.6548699952726917 L0.9794743919503828,1.6861583304996681 "/>
			<path d="M0.9794743919503759,1.6861583304996723 L0.9018346373007535,1.728542175719952 L0.8220222840184879,1.7667618114365093 L0.7402296070533733,1.8007251631992585 L0.6566536521284118,1.8303504103189638 L0.571495761039406,1.8555661829804495 L0.48496108660493964,1.8763117341787334 L0.3972580984352676,1.8925370860638828 L0.30859808071076444,1.9042031503420336 L0.2191946231798294,1.9112818224425125 L0.12926310660247342,1.913756049224212 L0.03902018387920125,1.9116198700580977 L-0.05131674188480029,1.9048784311868883 L-0.14153004112278555,1.8935479733273046 L-0.23140238209513964,1.8776557925447612 L-0.32071725446057153,1.857240174494754 L-0.4092594908684932,1.8323503021893626 L-0.496815785316016,1.8030461375110653 L-0.5831752070207888,1.7693982767593144 L-0.6681297085717329,1.731487780577866 L-0.7514746271334765,1.6894059786725872 L-0.8330091774970525,1.6432542497901994 L-0.9125369357890512,1.5931437774879937 L-0.9898663126739383,1.5391952822829054 L-1.0648110149095453,1.4815387308252133 L-1.1371904941438054,1.420313022797497 L-1.2068303818715496,1.3556656562931333 L-1.2735629095035086,1.2877523724804725 L-1.3372273125355383,1.2167367804087181 L-1.3976702178443905,1.1427899628594043 L-1.4547460131770023,1.0660900641929845 L-1.5083171979431687,0.9868218611834625 L-1.5582547144665069,0.9051763178749632 L-1.604438258895702,0.8213501255326215 L-1.6467565710270236,0.7355452287960975 L-1.6851077023399008,0.6479683391772507 L-1.7193992615998392,0.5588304370740008 L-1.749548637436995,0.46834626350007447 L-1.7754831973642025,0.3767338027550901 L-1.7971404627549985,0.28421375728128495 L-1.814468259360104,0.19100901597200404 L-1.8274248429997624,0.09734411721283309 L-1.835979000129122,0.0034447079489583476 L-1.8401101230344035,-0.09046299991808593 L-1.8398082594786835,-0.18415277449470469 L-1.8350741366777084,-0.2773989089076878 L-1.8259191595479654,-0.3699767650518374 L-1.8123653832312423,-0.4616633147628394 L-1.7944454599618553,-0.5522376771116495 L-1.7722025604045613,-0.6414816505259897 L-1.7456902696526422,-0.7291802384570544 L-1.7149724581367205,-0.8151221673250303 L-1.680123127755301,-0.8991003954956507 L-1.6412262335977141,-0.9809126120616287 L-1.59837548168895,-1.0603617242273524 L-1.55167410324364,-1.137256332122695 L-1.5012346059730164,-1.2114111899020636 L-1.4471785030439823,-1.2826476520178698 L-1.3896360203432492,-1.3507941035932995 L-1.3287457827517695,-1.4156863738575836 L-1.2646544801852542,-1.4771681316477636 L-1.197516514205323,-1.5350912620241572 L-1.1274936260526136,-1.589316223092219 L-1.0547545069979658,-1.6397123821711919 L-0.9794743919503899,-1.6861583304996641 "/>
			<path d="M-0.9794743919503757,-1.6861583304996723 L-0.9266924612148092,-1.715551666242499 L-0.8728690614165772,-1.743016968618729 L-0.8180646823169366,-1.7685233705781604 L-0.7623409161568082,-1.7920422065929598 L-0.7057603884359561,-1.813547044873591 L-0.648386687530931,-1.8330137170743468 L-0.5902842932308797,-1.8504203454550934 L-0.5315185042715361,-1.865747367468705 "/>
			<path d="M10.795978129751974,2.057644993888653 L10.753551493185906,2.101099752724836 L10.709647021767053,2.142948006265635 L10.664314057807568,2.1831427230920926 L10.617603549039801,2.221638730122727 L10.569567991358369,2.2583927633815857 L10.520261369822308,2.2933635166207287 L10.469739097983652,2.3265116877425114 L10.418057955610557,2.3578000229694878 "/>
			<path d="M10.41805795561055,2.357800022969492 L10.340418200960928,2.400183868189772 L10.260605847678661,2.438403503906329 L10.178813170713548,2.4723668556690783 L10.095237215788586,2.5019921027887837 L10.01007932469958,2.5272078754502694 L9.923544650265114,2.547953426648553 L9.835841662095442,2.5641787785337025 L9.747181644370938,2.575844842811853 L9.657778186840003,2.5829235149123324 L9.567846670262647,2.585397741694032 L9.477603747539375,2.5832615625279174 L9.387266821775373,2.576520123656708 L9.29705352253739,2.5651896657971243 L9.207181181565034,2.549297485014581 L9.117866309199602,2.5288818669645736 L9.029324072791681,2.503991994659182 L8.941767778344158,2.474687829980885 L8.855408356639385,2.4410399692291342 L8.77045385508844,2.4031294730476858 L8.687108936526698,2.361047671142407 L8.605574386163122,2.3148959422600193 L8.526046627871123,2.2647854699578134 L8.448717250986236,2.2108369747527252 L8.37377254875063,2.153180423295033 L8.301393069516369,2.091954715267317 L8.231753181788624,2.027307348762953 L8.165020654156665,1.9593940649502923 L8.101356251124635,1.888378472878538 L8.040913345815783,1.8144316553292241 L7.983837550483171,1.737731756662804 L7.930266365717006,1.6584635536532821 L7.880328849193667,1.576818010344783 L7.834145304764472,1.4929918180024413 L7.79182699263315,1.4071869212659172 L7.753475861320274,1.3196100316470705 L7.719184302060334,1.2304721295438206 L7.689034926223179,1.1399879559698942 L7.663100366295971,1.0483754952249098 L7.6414431009051755,0.9558554497511047 L7.62411530430007,0.8626507084418238 L7.611158720660412,0.7689858096826528 L7.602604563531052,0.6750864004187781 L7.598473440625771,0.5811786925517338 L7.5987753041814905,0.48748891797511507 L7.603509426982466,0.39424278356213194 L7.612664404112209,0.30166492741798234 L7.626218180428932,0.20997837770698036 L7.644138103698319,0.11940401535817025 L7.666381003255613,0.03016004194383004 L7.692893294007532,-0.057538545987234624 L7.723611105523453,-0.14348047485521054 L7.7584604359048726,-0.22745870302583093 L7.79735733006246,-0.30927091959180897 L7.840208081971224,-0.38872003175753267 L7.886909460416534,-0.4656146396528752 L7.937348957687158,-0.5397694974322439 L7.9914050606161915,-0.61100595954805 L8.048947543316924,-0.6791524111234798 L8.109837780908405,-0.7440446813877638 L8.17392908347492,-0.8055264391779439 L8.241067049454852,-0.8634495695543375 L8.31108993760756,-0.9176745306223993 L8.383829056662208,-0.9680706897013721 L8.459109171709784,-1.0145166380298445 "/>
			<path d="M8.459109171709798,-1.0145166380298525 L8.511891102445365,-1.0439099737726791 L8.565714502243598,-1.0713752761489093 L8.620518881343237,-1.0968816781083408 L8.676242647503365,-1.1204005141231401 L8.732823175224217,-1.1419053524037714 L8.790196876129244,-1.161372024604527 L8.848299270429294,-1.1787786529852737 L8.907065059388637,-1.1941056749988852 "/>
			<path d="M20.234561693412147,2.729286686358475 L20.19213505684608,2.7727414451946566 L20.148230585427225,2.8145896987354564 L20.10289762146774,2.854784415561913 L20.056187112699977,2.8932804225925475 L20.00815155501854,2.9300344558514064 L19.95884493348248,2.965005209090549 L19.908322661643826,2.9981533802123312 L19.85664151927073,3.0294417154393076 "/>
			<path d="M19.856641519270724,3.0294417154393116 L19.7790017646211,3.0718255606595912 L19.699189411338835,3.1100451963761486 L19.61739673437372,3.144008548138898 L19.53382077944876,3.1736337952586036 L19.448662888359753,3.198849567920089 L19.36212821392529,3.219595119118373 L19.274425225755614,3.2358204710035223 L19.185765208031114,3.247486535281673 L19.09636175050018,3.254565207382152 L19.00643023392282,3.2570394341638513 L18.91618731119955,3.2549032549977372 L18.825850385435547,3.2481618161265278 L18.735637086197563,3.236831358266944 L18.645764745225208,3.220939177484401 L18.556449872859776,3.2005235594343935 L18.467907636451855,3.175633687129002 L18.38035134200433,3.1463295224507046 L18.293991920299558,3.1126816616989537 L18.209037418748615,3.0747711655175056 L18.125692500186872,3.032689363612227 L18.044157949823294,2.9865376347298387 L17.964630191531295,2.9364271624276332 L17.88730081464641,2.8824786672225446 L17.812356112410804,2.824822115764853 L17.739976633176543,2.763596407737136 L17.6703367454488,2.6989490412327726 L17.60360421781684,2.631035757420112 L17.53993981478481,2.560020165348358 L17.47949690947596,2.486073347799044 L17.422421114143347,2.409373449132624 L17.36884992937718,2.330105246123102 L17.31891241285384,2.2484597028146025 L17.272728868424647,2.164633510472261 L17.230410556293325,2.078828613735737 L17.192059424980446,1.99125172411689 L17.15776786572051,1.9021138220136402 L17.127618489883353,1.8116296484397139 L17.101683929956145,1.7200171876947297 L17.08002666456535,1.6274971422209243 L17.062698867960243,1.5342924009116437 L17.049742284320587,1.4406275021524726 L17.041188127191226,1.3467280928885978 L17.037057004285945,1.2528203850215536 L17.037358867841665,1.1591306104449348 L17.04209299064264,1.0658844760319517 L17.051247967772383,0.9733066198878021 L17.064801744089106,0.8816200701768001 L17.08272166735849,0.79104570782799 L17.104964566915786,0.7018017344136498 L17.131476857667707,0.6141031464825851 L17.162194669183627,0.5281612176146092 L17.197043999565047,0.4441829894439888 L17.235940893722635,0.3623707728780108 L17.278791645631397,0.2829216607122871 L17.325493024076707,0.20602705281694456 L17.37593252134733,0.13187219503757586 L17.429988624276366,0.060635732921769714 L17.487531106977098,-0.007510718653660042 L17.548421344568577,-0.07240298891794406 L17.612512647135095,-0.1338847467081241 L17.679650613115026,-0.19180787708451774 L17.749673501267736,-0.2460328381525796 L17.822412620322382,-0.29642899723155236 L17.897692735369958,-0.3428749455600246 "/>
			<path d="M17.897692735369972,-0.34287494556003284 L17.95047466610554,-0.3722682813028595 L18.00429806590377,-0.3997335836790894 L18.05910244500341,-0.42523998563852095 L18.11482621116354,-0.44875882165332026 L18.171406738884393,-0.4702636599339516 L18.228780439789418,-0.4897303321347073 L18.286882834089468,-0.5071369605154539 L18.345648623048813,-0.5224639825290656 "/>
			<path d="M29.67314525707232,3.4009283788282945 L29.630718620506254,3.4443831376644765 L29.5868141490874,3.4862313912052763 L29.541481185127914,3.5264261080317327 L29.49477067636015,3.564922115062367 L29.446735118678713,3.601676148321226 L29.397428497142656,3.6366469015603684 L29.346906225304,3.6697950726821507 L29.295225082930905,3.7010834079091275 "/>
			<path d="M29.295225082930898,3.7010834079091315 L29.217585328281274,3.743467253129411 L29.13777297499901,3.7816868888459685 L29.055980298033894,3.8156502406087176 L28.972404343108934,3.845275487728423 L28.887246452019927,3.8704912603899086 L28.800711777585462,3.8912368115881923 L28.713008789415788,3.907462163473342 L28.624348771691288,3.919128227751493 L28.534945314160353,3.9262068998519717 L28.445013797582995,3.928681126633671 L28.354770874859724,3.9265449474675567 L28.26443394909572,3.919803508596347 L28.174220649857737,3.908473050736764 L28.08434830888538,3.8925808699542204 L27.99503343651995,3.872165251904213 L27.90649120011203,3.8472753795988215 L27.818934905664506,3.8179712149205245 L27.73257548395973,3.7843233541687735 L27.64762098240879,3.746412857987325 L27.564276063847046,3.7043310560820464 L27.482741513483468,3.6581793271996585 L27.40321375519147,3.6080688548974527 L27.325884378306583,3.5541203596923645 L27.250939676070978,3.4964638082346724 L27.178560196836717,3.435238100206956 L27.108920309108974,3.3705907337025924 L27.042187781477015,3.3026774498899316 L26.978523378444983,3.2316618578181773 L26.918080473136133,3.1577150402688634 L26.86100467780352,3.0810151416024434 L26.807433493037355,3.0017469385929214 L26.757495976514015,2.9201013952844224 L26.71131243208482,2.8362752029420806 L26.6689941199535,2.750470306205557 L26.63064298864062,2.66289341658671 L26.596351429380682,2.57375551448346 L26.566202053543527,2.4832713409095337 L26.54026749361632,2.3916588801645493 L26.518610228225523,2.299138834690744 L26.501282431620417,2.205934093381463 L26.48832584798076,2.112269194622292 L26.4797716908514,2.0183697853584173 L26.47564056794612,1.9244620774913732 L26.47594243150184,1.8307723029147545 L26.480676554302814,1.7375261685017713 L26.489831531432557,1.6449483123576218 L26.50338530774928,1.5532617626466196 L26.521305231018665,1.4626874002978096 L26.54354813057596,1.3734434268834694 L26.57006042132788,1.2857448389524047 L26.6007782328438,1.1998029100844287 L26.63562756322522,1.1158246819138085 L26.67452445738281,1.0340124653478304 L26.71737520929157,0.9545633531821067 L26.76407658773688,0.8776687452867642 L26.814516085007504,0.8035138875073955 L26.86857218793654,0.7322774253915894 L26.926114670637272,0.6641309738161596 L26.98700490822875,0.5992387035518756 L27.05109621079527,0.5377569457616955 L27.1182341767752,0.4798338153853019 L27.18825706492791,0.42560885431724005 L27.260996183982556,0.3752126952382673 L27.336276299030132,0.328766746909795 "/>
			<path d="M27.336276299030146,0.3287667469097868 L27.389058229765713,0.2993734111669599 L27.442881629563946,0.2719081087907298 L27.49768600866359,0.24640170683129803 L27.553409774823717,0.2228828708164987 L27.60999030254457,0.20137803253586717 L27.667364003449595,0.18191136033511124 L27.725466397749646,0.16450473195436466 L27.78423218670899,0.14917770994075297 "/>
			<path d="M39.111728820732495,4.072570071298115 L39.069302184166425,4.116024830134296 L39.025397712747576,4.157873083675096 L38.98006474878809,4.198067800501552 L38.93335424002032,4.236563807532187 L38.88531868233889,4.273317840791046 L38.83601206080283,4.308288594030189 L38.78548978896417,4.341436765151971 L38.73380864659108,4.372725100378947 "/>
			<path d="M38.73380864659107,4.372725100378951 L38.65616889194145,4.415108945599231 L38.576356538659184,4.453328581315788 L38.49456386169407,4.487291933078538 L38.41098790676911,4.516917180198243 L38.325830015680104,4.5421329528597285 L38.23929534124564,4.562878504058013 L38.15159235307596,4.579103855943162 L38.06293233535146,4.590769920221312 L37.97352887782053,4.5978485923217915 L37.88359736124317,4.600322819103491 L37.7933544385199,4.598186639937377 L37.7030175127559,4.5914452010661675 L37.61280421351791,4.580114743206583 L37.522931872545556,4.564222562424041 L37.43361700018013,4.543806944374033 L37.3450747637722,4.518917072068642 L37.25751846932468,4.489612907390344 L37.17115904761991,4.455965046638593 L37.08620454606896,4.4180545504571445 L37.00285962750722,4.375972748551867 L36.92132507714364,4.329821019669478 L36.84179731885165,4.279710547367273 L36.76446794196676,4.225762052162184 L36.68952323973115,4.168105500704492 L36.61714376049689,4.106879792676776 L36.54750387276915,4.042232426172412 L36.480771345137185,3.9743191423597515 L36.41710694210516,3.903303550287997 L36.3566640367963,3.8293567327386833 L36.299588241463695,3.7526568340722637 L36.246017056697525,3.6733886310627417 L36.19607954017419,3.5917430877542422 L36.14989599574499,3.5079168954119004 L36.10757768361367,3.4221119986753763 L36.0692265523008,3.33453510905653 L36.03493499304086,3.24539720695328 L36.0047856172037,3.1549130333793536 L35.97885105727649,3.063300572634369 L35.9571937918857,2.970780527160564 L35.93986599528059,2.877575785851283 L35.926909411640935,2.7839108870921123 L35.918355254511575,2.6900114778282376 L35.91422413160629,2.596103769961193 L35.91452599516201,2.5024139953845745 L35.919260117962985,2.409167860971591 L35.92841509509273,2.3165900048274417 L35.94196887140945,2.2249034551164395 L35.95988879467884,2.1343290927676293 L35.98213169423614,2.0450851193532893 L36.008643984988055,1.9573865314222245 L36.039361796503975,1.8714446025542486 L36.074211126885395,1.7874663743836283 L36.11310802104298,1.7056541578176503 L36.15595877295175,1.6262050456519266 L36.202660151397055,1.549310437756584 L36.25309964866768,1.4751555799772154 L36.30715575159672,1.4039191178614092 L36.36469823429745,1.3357726662859795 L36.42558847188893,1.2708803960216954 L36.48967977445544,1.2093986382315154 L36.55681774043537,1.1514755078551218 L36.626840628588084,1.09725054678706 L36.69957974764273,1.0468543877080871 L36.774859862690306,1.0004084393796149 "/>
			<path d="M36.77485986269032,1.0004084393796067 L36.82764179342589,0.9710151036367798 L36.881465193224116,0.9435498012605499 L36.93626957232376,0.9180433993011181 L36.99199333848389,0.8945245632863186 L37.04857386620474,0.8730197250056873 L37.105947567109766,0.8535530528049315 L37.164049961409816,0.8361464244241847 L37.222815750369165,0.820819402410573 "/>
			<path d="M1.8053504537706413,1.2064142644498013 L0.9794743919503758,1.6861583304996723 "/>
			<path d="M-0.15359833013011037,-2.1659023965495434 L-0.9794743919503758,-1.6861583304996723 "/>
			<path d="M11.243934017430815,1.8780559569196211 L10.41805795561055,2.357800022969492 "/>
			<path d="M9.284985233530064,-1.4942607040797236 L8.459109171709798,-1.0145166380298525 "/>
			<path d="M20.68251758109099,2.5496976493894405 L19.856641519270724,3.0294417154393116 "/>
			<path d="M18.72356879719024,-0.822619011609904 L17.897692735369972,-0.34287494556003284 "/>
			<path d="M30.121101144751165,3.2213393418592604 L29.295225082930898,3.7010834079091315 "/>
			<path d="M28.162152360850413,-0.15097731914008417 L27.336276299030146,0.328766746909787 "/>
			<path d="M39.559684708411346,3.8929810343290803 L38.73380864659108,4.372725100378951 "/>
			<path d="M37.60073592451059,0.520664373329735 L36.77485986269032,1.0004084393796062 "/>

       </g>

       <!-- solid lines -->
       <g stroke="rgb(0,0,0)" fill="none">
			<path d="M0.8258760618202654,-5.375314194604238 L38.58021031646097,-2.688747424724959 "/>
			<path d="M-8.881784197001252e-16,4.8955701285543665 L-0.19022655204173544,4.878055092138901 L-0.3801439063776524,4.852611176042056 L-0.5694433678775217,4.819279737268941 L-0.7578172457453964,4.778114953347819 L-0.9449593536458365,4.729183734268975 L-1.1305655073847636,4.672565613727995 L-1.3143340193360005,4.608352619850242 L-1.4959661888098326,4.536649125606669 L-1.675166787566557,4.4575716791640865 L-1.8516445396858454,4.37124881444565 L-2.0251125950119366,4.277820842209472 L-2.1952889954051127,4.177439621984964 L-2.361897133041585,4.070268315237588 L-2.52466620001691,3.9564811201632333 L-2.683331628522092,3.836262988543293 L-2.8376355208769186,3.709809325120667 L-2.987327068721554,3.577325669985333 L-3.1321629606850188,3.4390273644857308 L-3.271907777867929,3.2951392012090164 L-3.40633437649667,3.145895058599088 L-3.535224257127019,2.991537520806298 L-3.658367919797137,2.832317483386756 L-3.7755652045526156,2.668493745492115 L-3.8866256167901265,2.5003325892127104 L-3.9913686368908095,2.3281073467578044 L-4.08962401364016,2.1520979561764233 L-4.181232040957463,1.9725905063409428 L-4.266043817484958,1.7898767719330286 L-4.343921488614824,1.604253739187746 L-4.414738470560577,1.41602312316672 L-4.478379656108656,1.2254908773449698 L-4.534741601715791,1.0329666963085573 L-4.5837326956480275,0.8387635123713575 L-4.625273306888102,0.6431969869291709 L-4.659295914569154,0.4465849973779379 L-4.6857452177243735,0.2492471204300153 L-4.704578225174201,0.05150411266837862 L-4.715764325404968,-0.1463226108169855 L-4.719285336325424,-0.34391149886303696 L-4.715135534820222,-0.5409413868887887 L-4.703321666052388,-0.7370920189220795 L-4.6838629324996015,-0.9320445681494673 L-4.656790962742143,-1.1254821551431464 L-4.6221497600532215,-1.3170903629225474 L-4.579995630875249,-1.5065577480134242 L-4.5303970932983315,-1.6935763466737637 L-4.473434765689701,-1.8778421754636592 L-4.409201235655168,-2.0590557253455435 L-4.3378009095455266,-2.2369224485116286 L-4.259349842752579,-2.4111532371472837 L-4.173975551070577,-2.5814648933521642 L-4.081816803429725,-2.747580589455226 L-3.9830233963386403,-2.909230317975472 L-3.9311884627035805,-2.9882980401932526 L-3.8777559104023664,-3.066151330497037 L-3.8227474542023625,-3.142758549632947 L-3.7661854493117355,-3.2180885647452513 L-3.7080928822943857,-3.292110762028635 L-3.6484933617283097,-3.3647950591695133 L-3.587411108611164,-3.436111917571367 L-3.5248709465169594,-3.5060323543590965 L-3.460898291507859,-3.5745279541575528 L-3.395519141805199,-3.6415708806394194 L-3.3287600672239184,-3.7071338878377857 L-3.260648198374695,-3.7711903312187887 L-3.1912112156381784,-3.833714178509849 L-3.1204773379158053,-3.894680020279066 L-3.0484753111617438,-3.954063080261521 L-2.9752343967006585,-4.011839225428241 L-2.9007843593360447,-4.067984975793751 L-2.825155455253915,-4.1224775139582635 L-2.7483784197268233,-4.175294694380559 L-2.670484454623175,-4.226415052377849 L-2.591505215726917,-4.275817812848932 L-2.5114727998727946,-4.323482898717088 "/>
			<path d="M0.8258760618202645,4.415826062504495 L0.63564950977853,4.398311026089029 L0.445732155442613,4.3728671099921845 L0.2564326939427437,4.339535671219069 L0.06805881607486897,4.298370887297947 L-0.11908329182557109,4.249439668219104 L-0.3046894455644982,4.192821547678124 L-0.48845795751573506,4.128608553800371 L-0.6700901269895672,4.056905059556797 L-0.8492907257462916,3.9778276131142154 L-1.02576847786558,3.891504748395779 L-1.1992365331916712,3.798076776159601 L-1.3694129335848473,3.6976955559350926 L-1.5360210712213198,3.5905242491877165 L-1.6987901381966446,3.476737054113362 L-1.8574555667018267,3.356518922493422 L-2.011759459056653,3.230065259070796 L-2.1614510069012884,3.097581603935462 L-2.3062868988647534,2.9592832984358597 L-2.4460317160476635,2.8153951351591453 L-2.5804583146764046,2.666150992549217 L-2.7093481953067537,2.511793454756427 L-2.8324918579768714,2.352573417336885 L-2.94968914273235,2.188749679442244 L-3.060749554969861,2.0205885231628393 L-3.165492575070544,1.8483632807079333 L-3.2637479518198944,1.6723538901265522 L-3.3553559791371974,1.4928464402910717 L-3.4401677556646924,1.3101327058831576 L-3.5180454267945587,1.124509673137875 L-3.5888624087403116,0.9362790571168489 L-3.6525035942883903,0.7457468112950987 L-3.708865539895526,0.5532226302586862 L-3.757856633827762,0.35901944632148636 L-3.799397245067836,0.1634529208792998 L-3.8334198527488885,-0.033159068671933245 L-3.859869155904108,-0.23049694561985584 L-3.8787021633539354,-0.4282399533814925 L-3.8898882635847025,-0.6260666768668566 L-3.8934092745051583,-0.823655564912908 L-3.8892594729999566,-1.0206854529386598 L-3.877445604232123,-1.2168360849719506 L-3.857986870679336,-1.4117886341993384 L-3.8309149009218775,-1.6052262211930175 L-3.796273698232956,-1.7968344289724185 L-3.754119569054984,-1.9863018140632953 L-3.704521031478066,-2.1733204127236347 L-3.6475587038694357,-2.3575862415135305 L-3.5833251738349023,-2.5387997913954146 L-3.511924847725261,-2.7166665145614997 L-3.4334737809323137,-2.8908973031971548 L-3.3480994892503118,-3.0612089594020353 L-3.25594074160946,-3.227324655505097 L-3.157147334518375,-3.3889743840253432 L-3.105312400883315,-3.4680421062431237 L-3.051879848582101,-3.545895396546908 L-2.996871392382097,-3.622502615682818 L-2.94030938749147,-3.6978326307951224 L-2.8822168204741203,-3.771854828078506 L-2.8226172999080443,-3.8445391252193843 L-2.7615350467908986,-3.915855983621238 L-2.698994884696694,-3.9857764204089676 L-2.6350222296875936,-4.054272020207424 L-2.5696430799849335,-4.12131494668929 L-2.502884005403653,-4.186877953887657 L-2.4347721365544297,-4.25093439726866 L-2.365335153817913,-4.313458244559721 L-2.29460127609554,-4.374424086328937 L-2.2225992493414783,-4.433807146311392 L-2.149358334880393,-4.491583291478112 L-2.0749082975157793,-4.547729041843622 L-1.9992793934336497,-4.602221580008135 L-1.9225023579065579,-4.655038760430431 L-1.8446083928029098,-4.7061591184277205 L-1.7656291539066515,-4.755561878898804 L-1.6855967380525292,-4.803226964766959 "/>
			<path d="M-1.6855967380524928,-4.8032269647669805 L-1.543947049470964,-4.881953938800129 L-1.399382551626971,-4.955266330600846 L-1.2520810543896674,-5.023073968190615 L-1.1022237340529635,-5.085293450268651 L-0.9499949104942711,-5.141848248792924 L-0.7955818204667517,-5.192668803107286 L-0.6391743873038869,-5.237692605498932 L-0.48096498731964243,-5.276864278080955 L-0.32114821319154174,-5.310135640905442 L-0.15992063461768002,-5.33746577122332 L0.002519443457934978,-5.358821053818068 L0.16597222475434337,-5.374175222351405 L0.33023666739688795,-5.383509391670071 L0.4951107311925147,-5.3868120810339795 L0.660391626132975,-5.384079228237179 L0.8258760618202619,-5.375314194604239 "/>
			<path d="M40.26580705451345,7.010049668596388 L40.12415736593193,7.088776642629536 L39.979592868087934,7.162089034430254 L39.83229137085063,7.229896672020022 L39.682434050513926,7.292116154098057 L39.53020522695523,7.3486709526223315 L39.375792136927714,7.399491506936693 L39.21938470376485,7.444515309328338 L39.06117530378061,7.4836869819103615 L38.901358529652505,7.516958344734849 L38.74013095107865,7.544288475052728 L38.57769087300303,7.565643757647473 L38.41423809170662,7.580997926180812 L38.24997364906408,7.590332095499479 L38.08509958526845,7.593634784863388 L37.91981869032799,7.590901932066586 L37.75433425464072,7.582136898433648 "/>
			<path d="M38.58021031646096,-2.6887474247249594 L38.7704368685027,-2.671232388309493 L38.96035422283862,-2.6457884722126472 L39.14965368433849,-2.612457033439532 L39.33802756220636,-2.57129224951841 L39.5251696701068,-2.5223610304395683 L39.71077582384573,-2.4657429098985872 L39.894544335796965,-2.4015299160208343 L40.076176505270794,-2.329826421777259 L40.255377104027524,-2.2507489753346777 L40.43185485614681,-2.1644261106162395 L40.6053229114729,-2.0709981383800624 L40.77549931186608,-1.9706169181555557 L40.942107449502544,-1.8634456114081805 L41.10487651647787,-1.7496584163338262 L41.263541944983054,-1.629440284713886 L41.41784583733788,-1.5029866212912593 L41.56753738518252,-1.3705029661559243 L41.712373277145986,-1.2322046606563224 L41.852118094328894,-1.0883164973796076 L41.98654469295764,-0.939072354769678 L42.11543457358798,-0.784714816976888 L42.23857823625811,-0.6254947795573451 L42.355775521013584,-0.461671041662703 L42.46683593325109,-0.293509885383302 L42.571578953351775,-0.12128464292839869 L42.669834330101125,0.0547247476529833 L42.761442357418424,0.2342321974884638 L42.84625413394592,0.41694593189637885 L42.92413180507579,0.6025689646416623 L42.99494878702154,0.7907995806626886 L43.05858997256962,0.9813318264844395 L43.11495191817676,1.1738560075208535 L43.16394301210899,1.3680591914580533 L43.20548362334907,1.5636257169002405 L43.23950623103012,1.7602377064514754 L43.26595553418534,1.957575583399394 L43.284788541635166,2.1553185911610258 L43.29597464186593,2.353145314646392 L43.29949565278639,2.5507342026924453 L43.29534585128118,2.7477640907181975 L43.28353198251335,2.9439147227514884 L43.264073248960564,3.1388672719788753 L43.237001279203106,3.332304858972555 L43.20236007651418,3.523913066751957 L43.16020594733621,3.713380451842837 L43.1106074097593,3.900399050503176 L43.053645082150666,4.084664879293071 L42.98941155211613,4.265878429174952 L42.91801122600649,4.443745152341032 L42.83956015921355,4.61797594097669 L42.75418586753154,4.788287597181573 L42.66202711989069,4.954403293284634 L42.5632337127996,5.1160530218048805 L42.511398779164544,5.195120744022661 L42.45796622686333,5.272974034326445 L42.40295777066333,5.349581253462355 L42.3463957657727,5.424911268574659 L42.28830319875535,5.498933465858043 L42.22870367818927,5.571617762998923 L42.16762142507213,5.642934621400778 L42.10508126297792,5.712855058188508 L42.041108607968816,5.781350657986964 L41.97572945826616,5.848393584468831 L41.90897038368488,5.913956591667197 L41.84085851483565,5.978013035048199 L41.77142153209914,6.040536882339257 L41.700687654376765,6.1015027241084745 L41.62868562762271,6.1608857840909295 L41.55544471316163,6.218661929257647 L41.480994675797014,6.274807679623157 L41.40536577171488,6.32930021778767 L41.32858873618778,6.382117398209968 L41.25069477108414,6.433237756207258 L41.17171553218788,6.482640516678341 L41.09168311633374,6.530305602546506 "/>
			<path d="M41.09168311633372,6.530305602546517 L40.950033427752196,6.609032576579666 L40.8054689299082,6.682344968380383 L40.6581674326709,6.75015260597015 L40.50831011233419,6.812372088048186 L40.3560812887755,6.86892688657246 L40.20166819874798,6.919747440886821 L40.04526076558512,6.9647712432784665 L39.887051365600875,7.00394291586049 L39.72723459147277,7.037214278684978 L39.566007012898915,7.064544409002856 L39.403566934823296,7.085899691597603 L39.24011415352689,7.101253860130941 L39.07584971088435,7.110588029449607 L38.91097564708872,7.113890718813517 L38.74569475214826,7.111157866016716 L38.580210316460985,7.102392832383776 "/>
			<path d="M37.754334254640696,7.582136898433646 L-7.105427357601002e-15,4.8955701285543665 "/>
			<path d="M1.840523794913734,0.13097013003161517 L1.8385480427154068,0.21927220156700244 L1.8326250279528422,0.30710350762195926 L1.8227674670163099,0.39427547916358385 L1.808996523552532,0.4806009627142823 L1.7913417630274893,0.5658946221600982 L1.7698410892509708,0.6499733366572596 L1.7445406629991618,0.7326565937826622 L1.715494802909967,0.8137668770842155 L1.6827658688638532,0.8931300471990028 L1.6464241281005796,0.9705757157210135 L1.6065476043592608,1.0459376110157745 L1.5632219103656457,1.119053935196499 L1.5165400640262543,1.189767711495342 L1.4666022887239973,1.257927121283975 L1.4135157981440287,1.3233858300199177 L1.3573945660918052,1.3860033014188287 "/>
			<path d="M-0.5315185042715354,-1.8657473674687053 L-0.4280460888794407,-1.8873799777058395 L-0.3231220778136197,-1.9026120794895784 L-0.21710229079650423,-1.9113920175107726 L-0.11034626356072141,-1.9136900171251066 L-0.0032160285866644767,-1.9094982853252729 L0.10392511262694082,-1.8988310371687256 L0.2107138215959814,-1.8817244475713828 L0.31678795500932944,-1.858236528630766 L0.42178779283412515,-1.8284469328945914 L0.5253572582032084,-1.7924566832419742 L0.6271451249477955,-1.750387830293278 L0.7268062086804032,-1.7023830385104046 L0.824002537388804,-1.6486051023911439 L0.9184044975712716,-1.589236394398277 L1.0096919520263412,-1.524478246495618 L1.0975553255064046,-1.4545502673883421 L1.1816966545534693,-1.37968959778298 L1.2618305979568585,-1.300150106192653 L1.3376854044061761,-1.2162015280147465 L1.4090038340580182,-1.128128550800588 L1.4755440308912,-1.036229848819182 L1.5370803428921627,-0.9408170701889976 L1.5934040872891244,-0.8422137800126631 L1.6443242582399134,-0.740754363098622 L1.6896681745735582,-0.6367828899908595 L1.7292820653890042,-0.5306519501522277 L1.7630315915250698,-0.42272145625830243 L1.7908023011332226,-0.31335742365665886 L1.8125000178082327,-0.20293072913068666 L1.8280511599604674,-0.09181585317723451 L1.837402990346776,0.0196103899367035 L1.840523794913734,0.13097013003160818 "/>
			<path d="M11.279107358573908,0.8026118225014349 L11.277131606375582,0.8909138940368222 L11.271208591613016,0.978745200091779 L11.261351030676483,1.0659171716334037 L11.247580087212706,1.1522426551841012 L11.229925326687663,1.2375363146299163 L11.208424652911145,1.3216150291270774 L11.183124226659336,1.4042982862524804 L11.154078366570142,1.4854085695540342 L11.121349432524028,1.5647717396688225 L11.085007691760755,1.6422174081908332 L11.045131168019434,1.7175793034855942 L11.00180547402582,1.790695627666318 L10.95512362768643,1.86140940396516 L10.905185852384172,1.9295688137537934 L10.852099361804203,1.9950275224897362 L10.79597812975198,2.0576449938886476 "/>
			<path d="M8.90706505938864,-1.1941056749988856 L9.010537474780733,-1.2157382852360197 L9.115461485846554,-1.2309703870197586 L9.22148127286367,-1.2397503250409527 L9.328237300099453,-1.2420483246552867 L9.43536753507351,-1.237856592855453 L9.542508676287115,-1.227189344698906 L9.649297385256155,-1.210082755101563 L9.755371518669504,-1.1865948361609462 L9.8603713564943,-1.1568052404247715 L9.963940821863382,-1.1208149907721543 L10.065728688607969,-1.0787461378234582 L10.165389772340577,-1.030741346040585 L10.262586101048978,-0.9769634099213241 L10.356988061231446,-0.9175947019284573 L10.448275515686515,-0.8528365540257982 L10.536138889166578,-0.7829085749185224 L10.620280218213644,-0.7080479053131602 L10.700414161617033,-0.6285084137228333 L10.77626896806635,-0.5445598355449267 L10.847587397718192,-0.4564868583307683 L10.914127594551374,-0.36458815634936215 L10.975663906552336,-0.2691753777191779 L11.031987650949299,-0.17057208754284336 L11.082907821900088,-0.06911267062880222 L11.128251738233732,0.03485880247896023 L11.167865629049178,0.1409897423175921 L11.201615155185245,0.24892023621151732 L11.229385864793397,0.3582842688131609 L11.251083581468407,0.4687109633391331 L11.26663472362064,0.5798258392925852 L11.27598655400695,0.6912520824065232 L11.279107358573908,0.8026118225014279 "/>
			<path d="M20.717690922234084,1.4742535149712546 L20.715715170035754,1.562555586506642 L20.709792155273192,1.6503868925615988 L20.699934594336657,1.7375588641032234 L20.68616365087288,1.8238843476539217 L20.668508890347837,1.9091780070997377 L20.64700821657132,1.9932567215968993 L20.62170779031951,2.075939978722302 L20.592661930230314,2.157050262023856 L20.5599329961842,2.2364134321386437 L20.523591255420925,2.313859100660655 L20.48371473167961,2.389220995955416 L20.440389037685993,2.4623373201361396 L20.3937071913466,2.5330510964349826 L20.343769416044346,2.601210506223616 L20.290682925464374,2.6666692149595583 L20.234561693412154,2.729286686358469 "/>
			<path d="M18.345648623048813,-0.5224639825290658 L18.449121038440907,-0.5440965927662 L18.55404504950673,-0.5593286945499389 L18.660064836523844,-0.5681086325711331 L18.766820863759627,-0.570406632185467 L18.873951098733684,-0.5662149003856334 L18.981092239947287,-0.5555476522290861 L19.08788094891633,-0.5384410626317433 L19.193955082329676,-0.5149531436911265 L19.298954920154472,-0.48516354795495187 L19.402524385523556,-0.44917329830233466 L19.504312252268143,-0.40710444535363854 L19.603973336000752,-0.3590996535707651 L19.701169664709152,-0.3053217174515044 L19.79557162489162,-0.24595300945863752 L19.88685907934669,-0.18119486155597841 L19.974722452826754,-0.11126688244870264 L20.058863781873818,-0.036406212843340446 L20.138997725277207,0.04313327874698647 L20.214852531726525,0.12708185692489304 L20.286170961378367,0.21515483413905145 L20.352711158211548,0.3070535361204576 L20.414247470212512,0.4024663147506419 L20.47057121460947,0.5010696049269764 L20.52149138556026,0.6025290218410175 L20.566835301893907,0.70650049494878 L20.606449192709352,0.8126314347874118 L20.64019871884542,0.9205619286813371 L20.66796942845357,1.0299259612829808 L20.68966714512858,1.140352655808953 L20.705218287280815,1.251467531762405 L20.714570117667122,1.362893774876343 L20.717690922234084,1.4742535149712477 "/>
			<path d="M30.156274485894258,2.1458952074410744 L30.154298733695928,2.2341972789764615 L30.148375718933366,2.3220285850314184 L30.13851815799683,2.409200556573043 L30.124747214533055,2.4955260401237416 L30.10709245400801,2.5808196995695574 L30.085591780231493,2.6648984140667187 L30.060291353979682,2.7475816711921213 L30.031245493890488,2.8286919544936753 L29.998516559844376,2.9080551246084636 L29.9621748190811,2.9855007931304742 L29.922298295339782,3.0608626884252352 L29.878972601346167,3.1339790126059595 L29.832290755006774,3.2046927889048025 L29.78235297970452,3.2728521986934354 L29.729266489124548,3.338310907429378 L29.673145257072328,3.4009283788282882 "/>
			<path d="M27.78423218670899,0.14917770994075297 L27.887704602101085,0.12754509970361871 L27.992628613166907,0.11231299791988025 L28.09864840018402,0.10353305989868633 L28.205404427419804,0.1012350602843528 L28.312534662393862,0.10542679208418626 L28.41967580360747,0.116094040240734 L28.526464512576506,0.1332006298380768 L28.632538645989854,0.15668854877869376 L28.73753848381465,0.18647814451486888 L28.841107949183733,0.2224683941674861 L28.94289581592832,0.26453724711618243 L29.04255689966093,0.31254203889905563 L29.13975322836933,0.3663199750183166 L29.234155188551796,0.4256886830111837 L29.325442643006866,0.49044683091384256 L29.413306016486928,0.5603748100211188 L29.497447345533992,0.635235479626481 L29.57758128893738,0.7147749712168081 L29.6534360953867,0.7987235493947145 L29.72475452503854,0.8867965266088729 L29.791294721871722,0.9786952285902788 L29.852831033872686,1.074108007220463 L29.90915477826965,1.1727112973967975 L29.960074949220434,1.2741707143108383 L30.00541886555408,1.3781421874186006 L30.045032756369526,1.4842731272572323 L30.078782282505593,1.5922036211511574 L30.106552992113745,1.7015676537528006 L30.128250708788755,1.8119943482787724 L30.14380185094099,1.9231092242322245 L30.153153681327296,2.0345354673461626 L30.156274485894258,2.1458952074410673 "/>
			<path d="M39.59485804955443,2.8175368999108943 L39.592882297356105,2.9058389714462813 L39.58695928259354,2.9936702775012383 L39.57710172165701,3.080842249042863 L39.563330778193226,3.1671677325935614 L39.545676017668185,3.2524613920393772 L39.52417534389167,3.3365401065365385 L39.49887491763986,3.419223363661941 L39.46982905755066,3.5003336469634956 L39.43710012350455,3.5796968170782835 L39.40075838274127,3.657142485600294 L39.36088185899995,3.732504380895055 L39.31755616500634,3.8056207050757793 L39.27087431866695,3.876334481374622 L39.220936543364694,3.944493891163255 L39.16785005278472,4.009952599899198 L39.1117288207325,4.0725700712981086 "/>
			<path d="M37.222815750369165,0.8208194024105728 L37.326288165761255,0.7991867921734388 L37.43121217682708,0.7839546903897003 L37.53723196384419,0.7751747523685064 L37.643987991079975,0.7728767527541724 L37.75111822605403,0.7770684845540061 L37.85825936726764,0.7877357327105541 L37.96504807623668,0.8048423223078969 L38.07112220965003,0.8283302412485134 L38.17612204747482,0.8581198369846881 L38.279691512843904,0.8941100866373057 L38.38147937958849,0.9361789395860018 L38.481140463321104,0.9841837313688753 L38.5783367920295,1.0379616674881358 L38.67273875221197,1.097330375481003 L38.76402620666704,1.162088523383662 L38.8518895801471,1.232016502490938 L38.936030909194166,1.3068771720963004 L39.016164852597555,1.386416663686627 L39.092019659046876,1.4703652418645339 L39.163338088698715,1.558438219078692 L39.229878285531896,1.6503369210600978 L39.29141459753286,1.7457496996902822 L39.34773834192982,1.8443529898666167 L39.39865851288061,1.9458124067806577 L39.44400242921425,2.0497838798884205 L39.483616320029704,2.155914819727052 L39.51736584616577,2.2638453136209775 L39.54513655577392,2.3732093462226205 L39.56683427244893,2.4836360407485922 L39.58238541460116,2.5947509167020444 L39.59173724498747,2.7061771598159825 L39.59485804955443,2.817536899910887 "/>
			<path d="M38.58021031646096,7.102392832383774 L0.8258760618202601,4.415826062504495 "/>
			<path d="M2.6663998567339995,-0.34877393601825596 L2.662736709601025,-0.22863552890070543 L2.651761849536997,-0.10949667149880099 L2.6335189625048874,0.008168398185076031 L2.6080806652016557,0.1238913086320606 L2.5755482160039556,0.23721141918236616 L2.536051111904259,0.3476776536377722 L2.489746573041794,0.4548502957923222 L2.4368189168801493,0.5583027397440163 L2.3774788245226723,0.6576231880202998 L2.3119625020861108,0.7524162907578833 L2.240530740470706,0.842304719412059 L2.1634678772693645,0.926930668731275 L2.081080664948068,1.0059572810183035 L1.9936970498028033,1.0790699870086478 L1.9016648665534175,1.1459777580287607 L1.8053504537706482,1.206414264449797 "/>
			<path d="M1.8053504537706413,1.2064142644498013 L1.727710699121019,1.2487981096700809 L1.6478983458387533,1.2870177453866383 L1.5661056688736386,1.3209810971493874 L1.482529713948677,1.3506063442690928 L1.3973718228596714,1.3758221169305784 L1.310837148425205,1.3965676681288623 L1.223134160255533,1.4127930200140117 L1.1344741425310298,1.4244590842921625 L1.0450706850000948,1.4315377563926415 L0.9551391684227388,1.434011983174341 L0.8648962456994667,1.4318758040082267 L0.7745593199354651,1.4251343651370172 L0.6843460206974799,1.4138039072774335 L0.5944736797251258,1.3979117264948902 L0.5051588073596939,1.377496108444883 L0.4166165709517722,1.3526062361394915 L0.3290602765042494,1.3233020714611943 L0.24270085479947656,1.2896542107094433 L0.15774635324853248,1.2517437145279948 L0.07440143468678895,1.2096619126227162 L-0.007133115676787094,1.1635101837403283 L-0.08666087396878575,1.1133997114381227 L-0.16399025085367291,1.0594512162330343 L-0.23893495308927992,1.0017946647753422 L-0.31131443232353995,0.9405689567476259 L-0.38095432005128416,0.8759215902432622 L-0.4476868476832432,0.8080083064306014 L-0.5113512507152729,0.7369927143588471 L-0.5717941560241251,0.6630458968095332 L-0.6288699513567368,0.5863459981431134 L-0.6824411361229032,0.5070777951335914 L-0.7323786526462415,0.4254322518250921 L-0.7785621970754366,0.3416060594827504 L-0.8208805092067581,0.2558011627462264 L-0.8592316405196354,0.1682242731273796 L-0.8935231997795738,0.07908637102412969 L-0.9236725756167297,-0.011397802549796665 L-0.949607135543937,-0.10301026329478102 L-0.9712644009347331,-0.19553030876858618 L-0.9885921975398386,-0.2887350500778671 L-1.001548781179497,-0.38239994883703804 L-1.0101029383088567,-0.4762993581009128 L-1.014234061214138,-0.570207065967957 L-1.0139321976584181,-0.6638968405445758 L-1.009198074857443,-0.7571429749575589 L-1.0000430977277,-0.8497208311017086 L-0.9864893214109769,-0.9414073808127106 L-0.9685693981415899,-1.0319817431615206 L-0.9463264985842958,-1.1212257165758608 L-0.9198142078323768,-1.2089243045069256 L-0.8890963963164551,-1.2948662333749015 L-0.8542470659350356,-1.3788444615455218 L-0.8153501717774487,-1.4606566781114998 L-0.7724994198686845,-1.5401057902772235 L-0.7257980414233747,-1.617000398172566 L-0.675358544152751,-1.6911552559519347 L-0.6213024412237169,-1.7623917180677409 L-0.5637599585229838,-1.8305381696431706 L-0.5028697209315041,-1.8954304399074546 L-0.43877841836498876,-1.9569121976976347 L-0.3716404523850576,-2.0148353280740285 L-0.3016175642323482,-2.06906028914209 L-0.2288784451777004,-2.119456448221063 L-0.15359833013012447,-2.1659023965495354 "/>
			<path d="M-0.15359833013011026,-2.1659023965495434 L-0.10115614828879604,-2.195114474595045 L-0.04768535177925182,-2.2224232151465126 L0.006754729372001389,-2.2477983170226117 L0.062103689641400006,-2.271211624565197 L0.11830011503298643,-2.292637158880215 L0.17528165122203532,-2.3120511466633182 L0.23298507274204905,-2.329432046578203 L0.29134635313835333,-2.3447605731584042 L0.3503007360104498,-2.35801971820603 L0.40978280686430335,-2.3691947696636815 L0.4697265656948334,-2.3782733279386363 L0.5300655002180767,-2.3852453196611587 L0.590732659671763,-2.390103008861696 L0.6516607291024167,-2.392841005554538 L0.712782104056557,-2.3934562717184273 L0.7740289655931215,-2.391948124667484 L0.8353333555338806,-2.3883182378086953 L0.8966272518683449,-2.382570638785143 L0.9578426442295008,-2.3747117050070154 L1.0189116093566275,-2.3647501565753766 L1.0797663864614604,-2.35269704660653 L1.1403394524140815,-2.3385657489677207 L1.2005635966651056,-2.322371943437791 L1.260371995821039,-2.304133598309235 L1.3196982877900527,-2.283870950450974 L1.37847664541591,-2.2616064828539746 L1.4366418495183408,-2.2373648996846076 L1.4941293612588136,-2.21117309887345 L1.5508753937514248,-2.1830601422699254 L1.6068169828394279,-2.1530572233959138 L1.6618920569588878,-2.1211976328341025 L1.7160395060119291,-2.0875167212894805 L1.7691992491731647,-2.0520518603649727 L1.8213123015540686,-2.014842401094723 L1.8723208396513125,-1.975929630281052 L1.922168265506466,-1.9353567246835197 L1.9707992695058512,-1.8931687031109385 L2.018159891750881,-1.849412376469488 L2.0641975819307827,-1.804136295822358 L2.108861257631273,-1.7573906985185488 L2.152101361014488,-1.7092274524506068 L2.193869913807279,-1.6596999985031478 L2.2341205705368496,-1.608863291256018 L2.272808669954685,-1.5567737380078943 L2.3453272683895845,-1.4490686092252396 L2.4111039381902177,-1.3370625085750605 L2.4698468229207364,-1.2212524162393603 L2.4964978919963583,-1.162080856620886 L2.521295275621954,-1.102152191020764 L2.5442114591629164,-1.0415329149758379 L2.5652210153231128,-0.9802902903092008 L2.5843006323584605,-0.9184922704979441 L2.6014291399431246,-0.8562074252734677 L2.6165875326596515,-0.793504864538003 L2.6297589910869625,-0.730454161681777 L2.640928900462817,-0.6671252763859035 L2.6500848669000323,-0.6035884769966466 L2.6572167311384702,-0.5399142625572009 L2.662316579817529,-0.4761732845834979 L2.665378754256637,-0.4124362686708252 L2.6663998567339995,-0.34877393601826295 "/>
			<path d="M12.104983420394174,0.3228677564515638 L12.1013202732612,0.4430061635691143 L12.09034541319717,0.5621450209710188 L12.072102526165061,0.6798100906548958 L12.046664228861829,0.7955330011018804 L12.01413177966413,0.9088531116521859 L11.974634675564433,1.019319346107592 L11.928330136701968,1.126491988262142 L11.875402480540323,1.229944432213836 L11.816062388182846,1.3292648804901195 L11.750546065746285,1.424057983227703 L11.67911430413088,1.5139464118818786 L11.602051440929538,1.5985723612010947 L11.519664228608242,1.6775989734881231 L11.432280613462977,1.7507116794784674 L11.340248430213592,1.8176194504985803 L11.243934017430822,1.8780559569196167 "/>
			<path d="M11.243934017430815,1.878055956919621 L11.166294262781193,1.9204398021399005 L11.086481909498927,1.958659437856458 L11.004689232533813,1.992622789619207 L10.921113277608852,2.0222480367389126 L10.835955386519846,2.0474638094003983 L10.74942071208538,2.068209360598682 L10.661717723915707,2.0844347124838314 L10.573057706191204,2.096100776761982 L10.483654248660269,2.1031794488624613 L10.393722732082914,2.105653675644161 L10.30347980935964,2.1035174964780463 L10.213142883595639,2.096776057606837 L10.122929584357653,2.085445599747253 L10.0330572433853,2.06955341896471 L9.943742371019868,2.0491378009147025 L9.855200134611946,2.024247928609311 L9.767643840164423,1.994943763931014 L9.68128441845965,1.961295903179263 L9.596329916908706,1.9233854069978145 L9.512984998346964,1.8813036050925358 L9.431450447983387,1.835151876210148 L9.351922689691389,1.7850414039079423 L9.274593312806502,1.731092908702854 L9.199648610570893,1.6734363572451618 L9.127269131336634,1.6122106492174455 L9.05762924360889,1.5475632827130819 L8.99089671597693,1.479649998900421 L8.927232312944902,1.4086344068286667 L8.866789407636048,1.3346875892793528 L8.809713612303437,1.257987690612933 L8.75614242753727,1.178719487603411 L8.706204911013932,1.0970739442949118 L8.660021366584738,1.0132477519525702 L8.617703054453417,0.9274428552160461 L8.579351923140539,0.8398659655971994 L8.5450603638806,0.7507280634939495 L8.514910988043445,0.6602438899200231 L8.488976428116237,0.5686314291750387 L8.467319162725442,0.47611138370123357 L8.449991366120335,0.38290664239195266 L8.437034782480676,0.2892417436327817 L8.428480625351318,0.19534233436890697 L8.424349502446036,0.10143462650186269 L8.424651366001756,0.007744851925243934 L8.429385488802732,-0.0855012824877392 L8.438540465932475,-0.1780791386318888 L8.452094242249197,-0.2697656883428908 L8.470014165518585,-0.3603400506917009 L8.492257065075878,-0.4495840241060411 L8.518769355827796,-0.5372826120371057 L8.549487167343718,-0.6232245409050816 L8.584336497725138,-0.7072027690757021 L8.623233391882724,-0.7890149856416802 L8.66608414379149,-0.8684640978074039 L8.7127855222368,-0.9453587057027464 L8.763225019507423,-1.019513563482115 L8.817281122436457,-1.0907500255979212 L8.874823605137191,-1.158896477173351 L8.93571384272867,-1.223788747437635 L8.999805145295186,-1.285270505227815 L9.066943111275116,-1.3431936356042087 L9.136965999427826,-1.3974185966722705 L9.209705118482473,-1.4478147557512433 L9.28498523353005,-1.4942607040797156 "/>
			<path d="M9.284985233530064,-1.4942607040797238 L9.337427415371378,-1.5234727821252252 L9.390898211880922,-1.550781522676693 L9.445338293032176,-1.576156624552792 L9.500687253301574,-1.5995699320953773 L9.556883678693161,-1.6209954664103952 L9.613865214882209,-1.6404094541934984 L9.671568636402224,-1.6577903541083832 L9.729929916798527,-1.6731188806885846 L9.788884299670624,-1.68637802573621 L9.848366370524477,-1.6975530771938618 L9.908310129355007,-1.7066316354688167 L9.968649063878251,-1.713603627191339 L10.029316223331938,-1.7184613163918765 L10.090244292762591,-1.7211993130847183 L10.151365667716732,-1.7218145792486077 L10.212612529253295,-1.7203064321976642 L10.273916919194054,-1.7166765453388757 L10.33521081552852,-1.710928946315323 L10.396426207889675,-1.7030700125371958 L10.4574951730168,-1.693108464105557 L10.518349950121635,-1.68105535413671 L10.578923016074256,-1.666924056497901 L10.63914716032528,-1.6507302509679713 L10.698955559481213,-1.632491905839415 L10.758281851450226,-1.6122292579811544 L10.817060209076084,-1.5899647903841547 L10.875225413178516,-1.565723207214788 L10.932712924918988,-1.5395314064036303 L10.9894589574116,-1.5114184498001058 L11.045400546499602,-1.4814155309260941 L11.100475620619061,-1.4495559403642826 L11.154623069672104,-1.4158750288196609 L11.207782812833338,-1.3804101678951528 L11.259895865214244,-1.3432007086249034 L11.310904403311486,-1.3042879378112324 L11.36075182916664,-1.2637150322137 L11.409382833166026,-1.221527010641119 L11.456743455411056,-1.1777706839996684 L11.502781145590957,-1.1324946033525383 L11.547444821291446,-1.0857490060487291 L11.590684924674662,-1.0375857599807872 L11.632453477467452,-0.9880583060333281 L11.672704134197023,-0.9372215987861983 L11.711392233614859,-0.8851320455380747 L11.783910832049758,-0.77742691675542 L11.849687501850392,-0.6654208161052408 L11.90843038658091,-0.5496107237695405 L11.935081455656533,-0.4904391641510663 L11.959878839282128,-0.4305104985509441 L11.98279502282309,-0.3698912225060182 L12.003804578983287,-0.3086485978393811 L12.022884196018634,-0.24685057802812443 L12.0400127036033,-0.18456573280364802 L12.055171096319825,-0.12186317206818315 L12.068342554747137,-0.05881246921195732 L12.079512464122992,0.00451641608391623 L12.088668430560206,0.06805321547317306 L12.095800294798645,0.13172742991261893 L12.100900143477704,0.19546840788632186 L12.10396231791681,0.2592054237989945 L12.104983420394174,0.3228677564515568 "/>
			<path d="M21.54356698405435,0.9945094489213836 L21.539903836921376,1.1146478560389341 L21.528928976857348,1.2337867134408387 L21.51068608982524,1.3514517831247157 L21.485247792522006,1.4671746935717 L21.452715343324304,1.5804948041220057 L21.41321823922461,1.6909610385774116 L21.366913700362144,1.798133680731962 L21.313986044200497,1.9015861246836558 L21.25464595184302,2.0009065729599396 L21.18912962940646,2.0956996756975226 L21.117697867791055,2.1855881043516985 L21.040635004589713,2.2702140536709146 L20.958247792268416,2.349240665957943 L20.870864177123153,2.4223533719482875 L20.778831993873766,2.4892611429684 L20.682517581091,2.5496976493894365 "/>
			<path d="M20.68251758109099,2.549697649389441 L20.604877826441367,2.5920814946097206 L20.525065473159103,2.630301130326278 L20.443272796193988,2.6642644820890267 L20.359696841269027,2.693889729208732 L20.27453895018002,2.719105501870218 L20.188004275745556,2.739851053068502 L20.10030128757588,2.7560764049536512 L20.01164126985138,2.767742469231802 L19.922237812320446,2.774821141332281 L19.832306295743088,2.7772953681139807 L19.742063373019818,2.775159188947866 L19.651726447255815,2.7684177500766567 L19.56151314801783,2.757087292217073 L19.471640807045475,2.7411951114345294 L19.382325934680043,2.7207794933845224 L19.293783698272122,2.695889621079131 L19.2062274038246,2.666585456400834 L19.119867982119825,2.632937595649083 L19.034913480568882,2.595027099467634 L18.95156856200714,2.5529452975623554 L18.87003401164356,2.506793568679968 L18.790506253351563,2.456683096377762 L18.713176876466676,2.402734601172674 L18.63823217423107,2.3450780497149815 L18.56585269499681,2.2838523416872656 L18.496212807269067,2.219204975182902 L18.429480279637108,2.1512916913702407 L18.365815876605076,2.0802760992984863 L18.305372971296226,2.0063292817491725 L18.248297175963614,1.929629383082753 L18.194725991197448,1.850361180073231 L18.144788474674108,1.7687156367647316 L18.098604930244914,1.68488944442239 L18.056286618113592,1.599084547685866 L18.017935486800713,1.511507658067019 L17.983643927540776,1.4223697559637691 L17.95349455170362,1.3318855823898428 L17.927559991776413,1.2402731216448586 L17.905902726385616,1.1477530761710533 L17.88857492978051,1.0545483348617726 L17.875618346140854,0.9608834361026015 L17.867064189011494,0.8669840268387268 L17.862933066106212,0.7730763189716825 L17.86323492966193,0.6793865443950637 L17.867969052462907,0.5861404099820806 L17.87712402959265,0.493562553837931 L17.890677805909373,0.40187600412692903 L17.90859772917876,0.3113016417781189 L17.930840628736053,0.22205766836377872 L17.957352919487974,0.13435908043271405 L17.988070731003894,0.04841715156473814 L18.022920061385314,-0.03556107660588226 L18.061816955542902,-0.1173732931718603 L18.104667707451664,-0.196822405337584 L18.151369085896974,-0.2737170132329265 L18.201808583167598,-0.3478718710122952 L18.255864686096633,-0.41910833312810136 L18.313407168797365,-0.4872547847035311 L18.374297406388845,-0.5521470549678151 L18.43838870895536,-0.6136288127579952 L18.505526674935293,-0.6715519431343888 L18.575549563088003,-0.7257769042024507 L18.64828868214265,-0.7761730632814234 L18.723568797190225,-0.8226190116098957 "/>
			<path d="M18.72356879719024,-0.8226190116099039 L18.776010979031554,-0.8518310896554053 L18.829481775541097,-0.8791398302068731 L18.88392185669235,-0.9045149320829722 L18.93927081696175,-0.9279282396255575 L18.995467242353335,-0.9493537739405753 L19.052448778542384,-0.9687677617236785 L19.110152200062398,-0.9861486616385633 L19.168513480458703,-1.0014771882187647 L19.2274678633308,-1.0147363332663901 L19.286949934184655,-1.025911384724042 L19.346893693015183,-1.0349899429989968 L19.407232627538427,-1.0419619347215192 L19.467899786992113,-1.0468196239220566 L19.528827856422765,-1.0495576206148984 L19.589949231376906,-1.0501728867787878 L19.651196092913473,-1.0486647397278444 L19.71250048285423,-1.0450348528690558 L19.773794379188693,-1.0392872538455031 L19.83500977154985,-1.031428320067376 L19.896078736676976,-1.021466771635737 L19.95693351378181,-1.00941366166689 L20.01750657973443,-0.9952823640280812 L20.077730723985457,-0.9790885584981515 L20.137539123141387,-0.9608502133695951 L20.196865415110402,-0.9405875655113345 L20.25564377273626,-0.9183230979143349 L20.31380897683869,-0.8940815147449681 L20.371296488579162,-0.8678897139338104 L20.428042521071774,-0.8397767573302859 L20.483984110159778,-0.8097738384562743 L20.53905918427924,-0.7779142478944627 L20.59320663333228,-0.744233336349841 L20.646366376493514,-0.7087684754253329 L20.698479428874418,-0.6715590161550835 L20.749487966971664,-0.6326462453414126 L20.799335392826816,-0.5920733397438802 L20.8479663968262,-0.549885318171299 L20.89532701907123,-0.5061289915298486 L20.941364709251133,-0.4608529108827184 L20.986028384951624,-0.4141073135789093 L21.02926848833484,-0.3659440675109673 L21.071037041127628,-0.31641661356350825 L21.1112876978572,-0.2655799063163784 L21.149975797275037,-0.2134903530682548 L21.222494395709933,-0.10578522428560011 L21.288271065510568,0.00622087636457902 L21.347013950241085,0.1220309687002793 L21.373665019316707,0.1812025283187535 L21.398462402942304,0.24113119391887572 L21.421378586483264,0.3017504699638016 L21.442388142643463,0.3629930946304387 L21.46146775967881,0.42479111444169537 L21.478596267263473,0.4870759596661718 L21.493754659980002,0.5497785204016367 L21.506926118407314,0.6128292232578625 L21.518096027783166,0.676158108553736 L21.527251994220382,0.7396949079429929 L21.53438385845882,0.8033691223824387 L21.53948370713788,0.8671101003561417 L21.542545881576988,0.9308471162688143 L21.54356698405435,0.9945094489213766 "/>
			<path d="M30.982150547714525,1.6661511413912033 L30.97848740058155,1.7862895485087538 L30.96751254051752,1.905428405910658 L30.949269653485413,2.023093475594535 L30.92383135618218,2.13881638604152 L30.891298906984478,2.2521364965918256 L30.851801802884783,2.3626027310472315 L30.805497264022318,2.4697753732017813 L30.75256960786067,2.5732278171534757 L30.693229515503194,2.672548265429759 L30.627713193066633,2.7673413681673424 L30.55628143145123,2.8572297968215183 L30.479218568249888,2.9418557461407344 L30.39683135592859,3.0208823584277624 L30.309447740783327,3.093995064418107 L30.21741555753394,3.16090283543822 L30.121101144751172,3.221339341859256 "/>
			<path d="M30.121101144751165,3.2213393418592604 L30.04346139010154,3.26372318707954 L29.963649036819277,3.3019428227960974 L29.88185635985416,3.3359061745588465 L29.7982804049292,3.365531421678552 L29.713122513840194,3.3907471943400376 L29.62658783940573,3.4114927455383217 L29.538884851236055,3.4277180974234707 L29.450224833511555,3.4393841617016214 L29.36082137598062,3.4464628338021006 L29.270889859403262,3.4489370605838 L29.18064693667999,3.446800881417686 L29.09031001091599,3.4400594425464766 L29.000096711678005,3.4287289846868925 L28.91022437070565,3.4128368039043493 L28.820909498340217,3.3924211858543423 L28.732367261932296,3.367531313548951 L28.644810967484773,3.3382271488706534 L28.55845154578,3.3045792881189024 L28.473497044229056,3.266668791937454 L28.390152125667313,3.2245869900321753 L28.308617575303735,3.1784352611497875 L28.229089817011737,3.128324788847582 L28.15176044012685,3.0743762936424934 L28.076815737891245,3.0167197421848013 L28.004436258656984,2.955494034157085 L27.93479637092924,2.8908466676527214 L27.868063843297282,2.8229333838400605 L27.80439944026525,2.751917791768306 L27.7439565349564,2.6779709742189923 L27.68688073962379,2.6012710755525728 L27.63330955485762,2.5220028725430508 L27.583372038334282,2.4403573292345513 L27.537188493905088,2.3565311368922095 L27.494870181773766,2.2707262401556854 L27.456519050460887,2.183149350536839 L27.42222749120095,2.094011448433589 L27.392078115363795,2.0035272748596626 L27.366143555436587,1.9119148141146782 L27.34448629004579,1.8193947686408731 L27.327158493440685,1.726190027331592 L27.314201909801028,1.6325251285724212 L27.305647752671668,1.5386257193085464 L27.301516629766386,1.4447180114415021 L27.301818493322106,1.3510282368648834 L27.30655261612308,1.2577821024519003 L27.315707593252824,1.1652042463077508 L27.329261369569547,1.0735176965967486 L27.347181292838933,0.9829433342479386 L27.369424192396227,0.8936993608335984 L27.395936483148148,0.8060007729025337 L27.42665429466407,0.7200588440345578 L27.461503625045488,0.6360806158639374 L27.500400519203076,0.5542683992979593 L27.54325127111184,0.47481928713223565 L27.589952649557148,0.3979246792368931 L27.64039214682777,0.3237698214575244 L27.694448249756807,0.2525333593417183 L27.75199073245754,0.18438690776628852 L27.81288097004902,0.11949463750200451 L27.876972272615536,0.05801287971182445 L27.944110238595467,8.974933543082209e-05 L28.014133126748177,-0.05413521173263103 L28.086872245802823,-0.1045313708116038 L28.1621523608504,-0.15097731914007606 "/>
			<path d="M28.162152360850413,-0.15097731914008428 L28.214594542691728,-0.1801893971855857 L28.26806533920127,-0.2074981377370535 L28.322505420352524,-0.23287323961315254 L28.377854380621923,-0.25628654715573784 L28.43405080601351,-0.27771208147075566 L28.49103234220256,-0.29712606925385887 L28.548735763722572,-0.31450696916874366 L28.607097044118877,-0.3298354957489451 L28.666051426990975,-0.3430946407965705 L28.72553349784483,-0.35426969225422233 L28.785477256675357,-0.3633482505291772 L28.8458161911986,-0.37032024225169957 L28.906483350652287,-0.375177931452237 L28.96741142008294,-0.3779159281450788 L29.02853279503708,-0.3785311943089682 L29.089779656573647,-0.3770230472580247 L29.151084046514406,-0.3733931603992362 L29.212377942848867,-0.3676455613756835 L29.273593335210023,-0.3597866275975563 L29.33466230033715,-0.34982507916591743 L29.395517077441983,-0.3377719691970704 L29.456090143394604,-0.3236406715582616 L29.51631428764563,-0.3074468660283318 L29.57612268680156,-0.28920852089977545 L29.635448978770576,-0.26894587304151485 L29.694227336396434,-0.24668140544451522 L29.752392540498864,-0.22243982227514847 L29.809880052239336,-0.19624802146399078 L29.866626084731948,-0.16813506486046625 L29.92256767381995,-0.13813214598645462 L29.977642747939413,-0.10627255542464309 L30.031790196992453,-0.07259164388002137 L30.084949940153688,-0.037126782955513304 L30.13706299253459,8.26763147361298e-05 L30.188071530631838,0.03899544712840708 L30.23791895648699,0.07956835272593943 L30.286549960486376,0.1217563742985206 L30.333910582731406,0.16551270093997106 L30.379948272911307,0.21078878158710124 L30.424611948611798,0.25753437889091035 L30.467852051995013,0.30569762495885233 L30.509620604787802,0.3552250789063114 L30.549871261517374,0.40606178615344124 L30.58855936093521,0.4581513394015648 L30.661077959370107,0.5658564681842195 L30.72685462917074,0.6778625688343987 L30.78559751390126,0.7936726611700989 L30.81224858297688,0.8528442207885731 L30.837045966602478,0.9127728863886954 L30.85996215014344,0.9733921624336213 L30.880971706303637,1.0346347871002584 L30.900051323338985,1.096432806911515 L30.917179830923647,1.1587176521359914 L30.932338223640176,1.2214202128714562 L30.945509682067488,1.2844709157276821 L30.95667959144334,1.3477998010235557 L30.965835557880556,1.4113366004128125 L30.972967422118995,1.4750108148522583 L30.978067270798054,1.5387517928259613 L30.981129445237162,1.602488808738634 L30.982150547714525,1.6661511413911962 "/>
			<path d="M40.4207341113747,2.337792833861023 L40.417070964241724,2.4579312409785734 L40.40609610417769,2.577070098380478 L40.38785321714558,2.694735168064355 L40.36241491984235,2.8104580785113398 L40.329882470644655,2.923778189061645 L40.29038536654496,3.0342444235170514 L40.244080827682495,3.141417065671601 L40.191153171520845,3.244869509623295 L40.13181307916337,3.344189957899579 L40.06629675672681,3.4389830606371623 L39.994864995111406,3.5288714892913378 L39.917802131910065,3.613497438610554 L39.835414919588764,3.6925240508975827 L39.7480313044435,3.7656367568879268 L39.655999121194114,3.8325445279080395 L39.559684708411346,3.8929810343290763 "/>
			<path d="M39.55968470841134,3.8929810343290803 L39.482044953761715,3.93536487954936 L39.40223260047945,3.9735845152659173 L39.320439923514336,4.007547867028666 L39.236863968589375,4.037173114148372 L39.15170607750037,4.062388886809858 L39.065171403065904,4.083134438008141 L38.97746841489623,4.099359789893291 L38.88880839717173,4.111025854171442 L38.799404939640795,4.118104526271921 L38.709473423063436,4.1205787530536195 L38.619230500340166,4.1184425738875055 L38.528893574576166,4.111701135016296 L38.43868027533818,4.100370677156713 L38.34880793436582,4.084478496374169 L38.259493062000395,4.064062878324162 L38.17095082559247,4.03917300601877 L38.08339453114495,4.009868841340474 L37.997035109440176,3.9762209805887223 L37.91208060788923,3.938310484407274 L37.82873568932749,3.896228682501995 L37.74720113896391,3.8500769536196073 L37.667673380671914,3.7999664813174014 L37.590344003787024,3.7460179861123133 L37.51539930155142,3.688361434654621 L37.443019822317154,3.627135726626905 L37.373379934589416,3.562488360122541 L37.30664740695745,3.4945750763098804 L37.242983003925424,3.423559484238126 L37.18254009861657,3.349612666688812 L37.12546430328396,3.272912768022392 L37.07189311851779,3.19364456501287 L37.021955601994456,3.111999021704371 L36.97577205756526,3.0281728293620294 L36.93345374543394,2.9423679326255057 L36.895102614121065,2.8547910430066588 L36.860811054861124,2.765653140903409 L36.83066167902397,2.6751689673294825 L36.80472711909676,2.583556506584498 L36.78306985370597,2.491036461110693 L36.76574205710086,2.397831719801412 L36.7527854734612,2.304166821042241 L36.74423131633184,2.210267411778366 L36.74010019342656,2.116359703911322 L36.740402056982276,2.022669929334703 L36.74513617978325,1.9294237949217201 L36.754291156913,1.8368459387775706 L36.76784493322972,1.7451593890665684 L36.78576485649911,1.6545850267177584 L36.808007756056405,1.5653410533034182 L36.83452004680832,1.4776424653723534 L36.86523785832424,1.3917005365043775 L36.90008718870566,1.3077223083337572 L36.93898408286325,1.2259100917677792 L36.981834834772016,1.1464609796020555 L37.02853621321732,1.069566371706713 L37.078975710487946,0.9954115139273443 L37.133031813416984,0.9241750518115381 L37.19057429611772,0.8560286002361084 L37.251464533709196,0.7911363299718244 L37.315555836275706,0.7296545721816443 L37.38269380225564,0.6717314418052507 L37.45271669040835,0.6175064807371888 L37.525455809463,0.5671103216582161 L37.60073592451057,0.5206643733297438 "/>
			<path d="M37.60073592451059,0.5206643733297356 L37.6531781063519,0.4914522952842342 L37.706648902861446,0.46414355473276636 L37.7610889840127,0.4387684528566673 L37.8164379442821,0.415355145314082 L37.87263436967368,0.3939296109990642 L37.92961590586273,0.374515623215961 L37.98731932738275,0.3571347233010762 L38.045680607779055,0.34180619672087476 L38.10463499065115,0.3285470516732494 L38.164117061505,0.3173720002155975 L38.22406082033553,0.3082934419406427 L38.284399754858775,0.3013214502181203 L38.34506691431246,0.29646376101758287 L38.40599498374311,0.29372576432474107 L38.467116358697254,0.29311049816085166 L38.52836322023382,0.29461864521179515 L38.58966761017458,0.29824853207058366 L38.65096150650904,0.30399613109413637 L38.7121768988702,0.31185506487226355 L38.773245863997325,0.32181661330390243 L38.83410064110216,0.33386972327274944 L38.89467370705478,0.34800102091155827 L38.9548978513058,0.36419482644148804 L39.014706250461735,0.3824331715700444 L39.07403254243075,0.402695819428305 L39.13281090005661,0.42496028702530464 L39.19097610415904,0.4492018701946714 L39.24846361589951,0.4753936710058291 L39.30520964839212,0.5035066276093536 L39.36115123748012,0.5335095464833652 L39.41622631159959,0.5653691370451768 L39.47037376065263,0.5990500485897985 L39.523533503813866,0.6345149095143066 L39.57564655619477,0.671724368784556 L39.62665509429201,0.7106371395982269 L39.67650252014717,0.7512100451957593 L39.72513352414655,0.7933980667683405 L39.77249414639158,0.8371543934097909 L39.81853183657148,0.8824304740569211 L39.86319551227197,0.9291760713607302 L39.906435615655184,0.9773393174286722 L39.94820416844798,1.0268667713761312 L39.98845482517755,1.077703478623261 L40.02714292459538,1.1297930318713847 L40.099661523030285,1.2374981606540394 L40.16543819283092,1.3495042613042185 L40.22418107756143,1.465314353639919 L40.25083214663706,1.524485913258393 L40.27562953026265,1.584414578858515 L40.29854571380361,1.6450338549034411 L40.319555269963814,1.7062764795700782 L40.33863488699916,1.7680744993813349 L40.355763394583825,1.8303593446058113 L40.37092178730035,1.893061905341276 L40.38409324572766,1.956112608197502 L40.395263155103514,2.0194414934933755 L40.40441912154073,2.0829782928826326 L40.411550985779165,2.146652507322078 L40.416650834458224,2.210393485295781 L40.41971300889733,2.274130501208454 L40.4207341113747,2.337792833861016 "/>
			<path d="M1.4448663937151565e-16,4.8955701285543665 L0.8258760618202655,4.415826062504495 "/>
			<path d="M37.754334254640696,7.582136898433646 L38.58021031646096,7.102392832383774 "/>
			<path d="M-1.6855967380524932,-4.80322696476698 L-2.5114727998727586,-4.323482898717108 "/>
			<path d="M41.09168311633372,6.530305602546515 L40.26580705451345,7.010049668596387 "/>

       </g>
    </g>
    <g transform="translate(20,210.0)" stroke="rgb(0,0,255)">
        <line x1="30" y1="-30" x2="75" y2="-33" stroke-width="3" stroke="#000000"/>
         <text x="80" y="-30" style="stroke:#000000">X </text>

        <line x1="30" y1="-30" x2="30" y2="-75" stroke-width="3" stroke="#000000"/>
         <text x="25" y="-85" style="stroke:#000000">Y </text>

        <line x1="30" y1="-30" x2="58" y2="-15" stroke-width="3" stroke="#000000"/>
         <text x="65" y="-5" style="stroke:#000000">Z </text>
        <!--
            <line x1="0" y1="0" x2="12.495107675921624" y2="0" stroke-width="3" />
            <text x="0" y="20" style="stroke:#000000">1  mm </text>
        -->
    </g>
</svg>