<svg xmlns:svg="http://www.w3.org/2000/svg" xmlns="http://www.w3.org/2000/svg" width="800.0" height="240.0">
    <g transform="scale(4.252215748750775, -4.252215748750775)   translate(47.03430207151564,-46.55455800546577)" stroke-width="0.23517151035757822" fill="none">
       <!-- hidden lines -->
       <g stroke="rgb(160,160,160)" fill="none" stroke-dasharray="0.23517151035757822,0.23517151035757822">
			<path d="M0.0,0.0 L37.7543342546407,2.686566769879279 "/>
			<path d="M37.754334254640696,2.686566769879279 L38.58021031646096,2.206822703829408 "/>
			<path d="M37.754334254640696,2.686566769879279 L37.754334254640696,41.85112779831421 "/>
			<path d="M6.076686347921887,6.61739427620811 L6.03425971135582,6.660849035044293 L5.9903552399369655,6.7026972885850915 L5.945022275977481,6.742892005411549 L5.898311767209715,6.781388012442184 L5.850276209528281,6.818142045701042 L5.8009695879922205,6.853112798940185 L5.750447316153565,6.886260970061968 L5.69876617378047,6.9175493052889445 "/>
			<path d="M5.698766173780463,6.917549305288949 L5.6211264191308405,6.959933150509228 L5.541314065848574,6.998152786225786 L5.45952138888346,7.032116137988535 L5.375945433958499,7.06174138510824 L5.290787542869493,7.086957157769726 L5.204252868435026,7.107702708968009 L5.116549880265355,7.123928060853159 L5.027889862540851,7.13559412513131 L4.938486405009916,7.142672797231789 L4.84855488843256,7.145147024013488 L4.7583119657092885,7.143010844847374 L4.667975039945286,7.136269405976164 L4.5777617407073015,7.124938948116581 L4.487889399734947,7.109046767334037 L4.398574527369515,7.08863114928403 L4.310032290961594,7.0637412769786385 L4.222475996514071,7.034437112300342 L4.136116574809298,7.000789251548591 L4.051162073258354,6.962878755367142 L3.9678171546966103,6.920796953461863 L3.8862826043330347,6.874645224579476 L3.806754846041036,6.82453475227727 L3.7294254691561486,6.770586257072182 L3.6544807669205417,6.712929705614489 L3.5821012876862817,6.6517039975867736 L3.5124613999585375,6.58705663108241 L3.4457288723265784,6.519143347269749 L3.3820644692945487,6.448127755197994 L3.3216215639856967,6.37418093764868 L3.2645457686530848,6.29748103898226 L3.2109745838869186,6.218212835972738 L3.16103706736358,6.136567292664239 L3.1148535229343848,6.052741100321898 L3.0725352108030632,5.966936203585374 L3.034184079490186,5.879359313966527 L2.9998925202302478,5.790221411863277 L2.969743144393092,5.699737238289351 L2.9438085844658843,5.608124777544366 L2.9221513190750885,5.515604732070561 L2.904823522469983,5.4223999907612805 L2.891866938830325,5.328735092002109 L2.883312781700965,5.234835682738234 L2.8791816587956838,5.1409279748711905 L2.8794835223514035,5.047238200294571 L2.8842176451523787,4.953992065881589 L2.8933726222821217,4.861414209737439 L2.906926398598845,4.769727660026437 L2.9248463218682317,4.679153297677627 L2.947089221425526,4.589909324263287 L2.973601512177445,4.502210736332222 L3.0043193236933665,4.416268807464246 L3.039168654074786,4.332290579293625 L3.078065548232373,4.250478362727647 L3.120916300141137,4.171029250561924 L3.167617678586447,4.094134642666582 L3.2180571758570706,4.019979784887212 L3.2721132787861045,3.9487433227714064 L3.329655761486838,3.8805968711959764 L3.3905459990783173,3.8157046009316926 L3.4546373016448326,3.7542228431415126 L3.521775267624764,3.6962997127651187 L3.5917981557774734,3.642074751697057 L3.664537274832121,3.5916785926180843 L3.739817389879697,3.5452326442896123 "/>
			<path d="M3.739817389879711,3.545232644289604 L3.7925993206152775,3.515839308546777 L3.8464227204135093,3.4883740061705475 L3.90122709951315,3.462867604211116 L3.956950865673278,3.439348768196317 L4.01353139339413,3.4178439299156853 L4.070905094299155,3.39837725771493 L4.129007488599206,3.380970629334183 L4.1877732775585494,3.3656436073205716 "/>
			<path d="M15.515269911582063,7.289035968677927 L15.472843275015995,7.33249072751411 L15.42893880359714,7.37433898105491 L15.383605839637656,7.414533697881367 L15.33689533086989,7.4530297049120025 L15.288859773188456,7.489783738170861 L15.239553151652395,7.524754491410005 L15.189030879813739,7.557902662531787 L15.137349737440644,7.589190997758764 "/>
			<path d="M15.137349737440637,7.589190997758768 L15.059709982791015,7.631574842979047 L14.979897629508748,7.669794478695605 L14.898104952543635,7.703757830458354 L14.814528997618673,7.733383077578059 L14.729371106529667,7.7585988502395455 L14.642836432095201,7.779344401437829 L14.555133443925529,7.795569753322979 L14.466473426201025,7.807235817601129 L14.37706996867009,7.814314489701609 L14.287138452092734,7.816788716483307 L14.196895529369462,7.814652537317193 L14.10655860360546,7.807911098445984 L14.016345304367476,7.7965806405864 L13.92647296339512,7.780688459803857 L13.83715809102969,7.760272841753849 L13.748615854621768,7.735382969448458 L13.661059560174245,7.706078804770161 L13.574700138469472,7.67243094401841 L13.489745636918528,7.6345204478369615 L13.406400718356785,7.592438645931683 L13.324866167993209,7.546286917049295 L13.24533840970121,7.496176444747089 L13.168009032816324,7.442227949542001 L13.093064330580717,7.384571398084309 L13.020684851346456,7.323345690056593 L12.951044963618711,7.258698323552229 L12.884312435986752,7.190785039739568 L12.820648032954722,7.119769447667814 L12.76020512764587,7.0458226301185 L12.703129332313258,6.96912273145208 L12.649558147547092,6.889854528442558 L12.599620631023754,6.808208985134058 L12.55343708659456,6.724382792791717 L12.511118774463238,6.638577896055193 L12.47276764315036,6.551001006436346 L12.438476083890421,6.461863104333096 L12.408326708053266,6.37137893075917 L12.382392148126058,6.279766470014185 L12.360734882735262,6.187246424540381 L12.343407086130156,6.0940416832311 L12.330450502490498,6.0003767844719285 L12.32189634536114,5.906477375208054 L12.317765222455858,5.81256966734101 L12.318067086011578,5.718879892764391 L12.322801208812553,5.625633758351408 L12.331956185942296,5.533055902207258 L12.345509962259019,5.441369352496256 L12.363429885528406,5.350794990147446 L12.3856727850857,5.261551016733106 L12.41218507583762,5.173852428802041 L12.44290288735354,5.087910499934066 L12.47775221773496,5.0039322717634445 L12.516649111892548,4.922120055197467 L12.55949986380131,4.842670943031743 L12.606201242246621,4.765776335136401 L12.656640739517245,4.691621477357032 L12.710696842446279,4.620385015241226 L12.768239325147011,4.552238563665796 L12.829129562738492,4.487346293401512 L12.893220865305008,4.425864535611332 L12.960358831284939,4.367941405234938 L13.030381719437647,4.313716444166877 L13.103120838492295,4.263320285087904 L13.178400953539871,4.216874336759432 "/>
			<path d="M13.178400953539885,4.216874336759423 L13.231182884275452,4.187481001016597 L13.285006284073685,4.1600156986403665 L13.339810663173324,4.134509296680935 L13.395534429333452,4.110990460666136 L13.452114957054304,4.089485622385505 L13.50948865795933,4.070018950184749 L13.567591052259381,4.052612321804002 L13.626356841218724,4.0372852997903905 "/>
			<path d="M24.953853475242237,7.9606776611477486 L24.91142683867617,8.00413241998393 L24.867522367257315,8.045980673524731 L24.82218940329783,8.086175390351187 L24.775478894530064,8.124671397381823 L24.72744333684863,8.161425430640682 L24.67813671531257,8.196396183879825 L24.627614443473913,8.229544355001607 L24.575933301100818,8.260832690228584 "/>
			<path d="M24.57593330110081,8.260832690228588 L24.498293546451187,8.303216535448868 L24.418481193168923,8.341436171165425 L24.336688516203807,8.375399522928173 L24.253112561278847,8.40502477004788 L24.16795467018984,8.430240542709365 L24.081419995755375,8.45098609390765 L23.9937170075857,8.467211445792799 L23.9050569898612,8.47887751007095 L23.815653532330266,8.485956182171428 L23.725722015752908,8.488430408953128 L23.635479093029637,8.486294229787013 L23.545142167265634,8.479552790915804 L23.45492886802765,8.46822233305622 L23.365056527055295,8.452330152273678 L23.275741654689863,8.43191453422367 L23.187199418281942,8.407024661918278 L23.09964312383442,8.37772049723998 L23.013283702129645,8.34407263648823 L22.928329200578702,8.306162140306782 L22.84498428201696,8.264080338401502 L22.76344973165338,8.217928609519115 L22.683921973361382,8.16781813721691 L22.606592596476496,8.11386964201182 L22.53164789424089,8.05621309055413 L22.45926841500663,7.994987382526412 L22.389628527278887,7.930340016022049 L22.322895999646928,7.862426732209388 L22.259231596614896,7.791411140137634 L22.198788691306046,7.71746432258832 L22.141712895973434,7.6407644239219 L22.088141711207268,7.561496220912378 L22.038204194683928,7.47985067760388 L21.992020650254734,7.396024485261537 L21.949702338123412,7.310219588525014 L21.911351206810533,7.222642698906166 L21.877059647550595,7.133504796802916 L21.84691027171344,7.0430206232289905 L21.820975711786232,6.951408162484006 L21.799318446395436,6.858888117010201 L21.78199064979033,6.76568337570092 L21.769034066150674,6.672018476941749 L21.760479909021313,6.578119067677874 L21.756348786116032,6.48421135981083 L21.75665064967175,6.390521585234211 L21.761384772472727,6.297275450821228 L21.77053974960247,6.204697594677079 L21.784093525919193,6.113011044966076 L21.80201344918858,6.022436682617267 L21.824256348745873,5.933192709202926 L21.850768639497794,5.845494121271861 L21.881486451013714,5.759552192403886 L21.916335781395134,5.675573964233266 L21.955232675552722,5.593761747667287 L21.998083427461484,5.514312635501564 L22.044784805906794,5.4374180276062205 L22.095224303177417,5.363263169826852 L22.149280406106453,5.292026707711046 L22.206822888807185,5.223880256135616 L22.267713126398665,5.158987985871333 L22.33180442896518,5.097506228081152 L22.398942394945113,5.039583097704758 L22.468965283097823,4.985358136636696 L22.54170440215247,4.934961977557724 L22.616984517200045,4.888516029229252 "/>
			<path d="M22.61698451720006,4.888516029229244 L22.669766447935626,4.859122693486417 L22.72358984773386,4.831657391110187 L22.7783942268335,4.806150989150755 L22.83411799299363,4.782632153135955 L22.89069852071448,4.761127314855324 L22.948072221619505,4.741660642654568 L23.00617461591956,4.724254014273821 L23.064940404878904,4.70892699226021 "/>
			<path d="M34.392437038902415,8.632319353617566 L34.350010402336345,8.67577411245375 L34.30610593091749,8.717622365994549 L34.26077296695801,8.757817082821006 L34.21406245819024,8.79631308985164 L34.166026900508804,8.8330671231105 L34.11672027897274,8.868037876349645 L34.06619800713408,8.901186047471427 L34.01451686476099,8.932474382698404 "/>
			<path d="M34.014516864760985,8.932474382698407 L33.93687711011136,8.974858227918688 L33.8570647568291,9.013077863635244 L33.77527207986398,9.047041215397993 L33.69169612493902,9.0766664625177 L33.60653823385002,9.101882235179184 L33.52000355941555,9.12262778637747 L33.432300571245875,9.138853138262618 L33.343640553521375,9.15051920254077 L33.25423709599044,9.157597874641247 L33.16430557941308,9.160072101422948 L33.07406265668981,9.157935922256833 L32.98372573092581,9.151194483385623 L32.893512431687824,9.13986402552604 L32.80364009071547,9.123971844743497 L32.71432521835004,9.10355622669349 L32.625782981942116,9.078666354388098 L32.53822668749459,9.0493621897098 L32.45186726578982,9.01571432895805 L32.366912764238876,8.977803832776601 L32.28356784567713,8.935722030871322 L32.202033295313555,8.889570301988934 L32.12250553702156,8.83945982968673 L32.04517616013667,8.78551133448164 L31.970231457901065,8.727854783023949 L31.897851978666804,8.666629074996232 L31.82821209093906,8.601981708491868 L31.761479563307102,8.534068424679209 L31.69781516027507,8.463052832607453 L31.63737225496622,8.38910601505814 L31.580296459633608,8.31240611639172 L31.52672527486744,8.233137913382198 L31.476787758344102,8.151492370073699 L31.430604213914908,8.067666177731358 L31.388285901783586,7.981861280994833 L31.349934770470707,7.894284391375986 L31.31564321121077,7.805146489272736 L31.285493835373615,7.71466231569881 L31.259559275446406,7.623049854953825 L31.23790201005561,7.53052980948002 L31.220574213450504,7.43732506817074 L31.207617629810848,7.343660169411568 L31.199063472681487,7.249760760147693 L31.194932349776206,7.15585305228065 L31.195234213331926,7.06216327770403 L31.1999683361329,6.968917143291048 L31.209123313262644,6.876339287146898 L31.222677089579367,6.784652737435896 L31.240597012848752,6.694078375087086 L31.262839912406047,6.604834401672745 L31.289352203157968,6.517135813741681 L31.320070014673888,6.431193884873705 L31.354919345055308,6.347215656703085 L31.393816239212896,6.265403440137106 L31.43666699112166,6.185954327971383 L31.483368369566968,6.10905972007604 L31.53380786683759,6.0349048622966714 L31.587863969766627,5.9636684001808655 L31.64540645246736,5.8955219486054355 L31.70629669005884,5.830629678341152 L31.770387992625356,5.769147920550972 L31.837525958605287,5.711224790174578 L31.907548846757997,5.656999829106516 L31.980287965812643,5.6066036700275435 L32.05556808086022,5.560157721699071 "/>
			<path d="M32.05556808086023,5.560157721699063 L32.1083500115958,5.530764385956236 L32.162173411394036,5.503299083580006 L32.21697779049367,5.477792681620574 L32.2727015566538,5.454273845605774 L32.329282084374654,5.432769007325144 L32.38665578527968,5.413302335124388 L32.444758179579736,5.395895706743641 L32.50352396853908,5.380568684730029 "/>
			<path d="M6.076686347921886,16.408534533316846 L6.034259711355817,16.45198929215303 L5.990355239936963,16.49383754569383 L5.945022275977479,16.534032262520284 L5.898311767209713,16.57252826955092 L5.850276209528279,16.609282302809778 L5.80096958799222,16.64425305604892 L5.750447316153564,16.6774012271707 L5.69876617378047,16.70868956239768 "/>
			<path d="M5.698766173780463,16.708689562397684 L5.6211264191308405,16.751073407617962 L5.541314065848574,16.78929304333452 L5.45952138888346,16.823256395097268 L5.375945433958499,16.852881642216975 L5.290787542869493,16.87809741487846 L5.204252868435026,16.898842966076746 L5.116549880265355,16.915068317961893 L5.027889862540851,16.926734382240046 L4.938486405009916,16.933813054340522 L4.84855488843256,16.936287281122222 L4.7583119657092885,16.934151101956108 L4.667975039945286,16.927409663084898 L4.5777617407073015,16.916079205225316 L4.487889399734947,16.900187024442772 L4.398574527369515,16.879771406392766 L4.310032290961594,16.854881534087372 L4.222475996514071,16.825577369409075 L4.136116574809298,16.791929508657326 L4.051162073258354,16.754019012475876 L3.9678171546966103,16.711937210570596 L3.8862826043330347,16.66578548168821 L3.806754846041036,16.615675009386006 L3.7294254691561486,16.561726514180915 L3.6544807669205417,16.504069962723225 L3.5821012876862817,16.44284425469551 L3.5124613999585375,16.378196888191145 L3.4457288723265784,16.310283604378483 L3.3820644692945487,16.23926801230673 L3.3216215639856967,16.165321194757414 L3.2645457686530848,16.088621296090995 L3.2109745838869186,16.009353093081472 L3.16103706736358,15.927707549772974 L3.1148535229343848,15.843881357430632 L3.0725352108030632,15.758076460694108 L3.034184079490186,15.670499571075261 L2.9998925202302478,15.581361668972011 L2.969743144393092,15.490877495398085 L2.9438085844658843,15.399265034653101 L2.9221513190750885,15.306744989179295 L2.904823522469983,15.213540247870014 L2.891866938830325,15.119875349110844 L2.883312781700965,15.025975939846969 L2.8791816587956838,14.932068231979924 L2.8794835223514035,14.838378457403307 L2.8842176451523787,14.745132322990322 L2.8933726222821217,14.652554466846173 L2.906926398598845,14.560867917135171 L2.9248463218682317,14.47029355478636 L2.947089221425526,14.381049581372022 L2.973601512177445,14.293350993440956 L3.0043193236933665,14.20740906457298 L3.039168654074786,14.12343083640236 L3.078065548232373,14.041618619836383 L3.120916300141137,13.962169507670659 L3.167617678586447,13.885274899775316 L3.2180571758570706,13.811120041995947 L3.2721132787861045,13.739883579880141 L3.329655761486838,13.671737128304711 L3.3905459990783173,13.606844858040427 L3.4546373016448326,13.545363100250247 L3.521775267624764,13.487439969873854 L3.5917981557774734,13.433215008805792 L3.664537274832121,13.382818849726819 L3.739817389879697,13.336372901398347 "/>
			<path d="M3.739817389879711,13.336372901398338 L3.792599320615278,13.306979565655512 L3.8464227204135097,13.279514263279282 L3.90122709951315,13.25400786131985 L3.956950865673279,13.23048902530505 L4.013531393394131,13.20898418702442 L4.070905094299156,13.189517514823663 L4.129007488599207,13.172110886442917 L4.187773277558551,13.156783864429306 "/>
			<path d="M15.51526991158206,17.080176225786666 L15.472843275015991,17.12363098462285 L15.428938803597136,17.16547923816365 L15.383605839637653,17.205673954990104 L15.336895330869886,17.244169962020738 L15.288859773188452,17.280923995279597 L15.239553151652395,17.31589474851874 L15.189030879813737,17.34904291964052 L15.137349737440644,17.3803312548675 "/>
			<path d="M15.137349737440637,17.380331254867503 L15.059709982791015,17.422715100087782 L14.979897629508748,17.46093473580434 L14.898104952543635,17.494898087567087 L14.814528997618673,17.524523334686794 L14.729371106529667,17.54973910734828 L14.642836432095201,17.570484658546565 L14.555133443925529,17.586710010431712 L14.466473426201025,17.598376074709865 L14.37706996867009,17.60545474681034 L14.287138452092734,17.607928973592042 L14.196895529369462,17.605792794425927 L14.10655860360546,17.599051355554717 L14.016345304367476,17.587720897695135 L13.92647296339512,17.57182871691259 L13.83715809102969,17.551413098862586 L13.748615854621768,17.52652322655719 L13.661059560174245,17.497219061878894 L13.574700138469472,17.463571201127145 L13.489745636918528,17.425660704945695 L13.406400718356785,17.383578903040416 L13.324866167993209,17.33742717415803 L13.24533840970121,17.287316701855826 L13.168009032816324,17.233368206650734 L13.093064330580717,17.175711655193044 L13.020684851346456,17.114485947165328 L12.951044963618711,17.049838580660964 L12.884312435986752,16.981925296848303 L12.820648032954722,16.91090970477655 L12.76020512764587,16.836962887227234 L12.703129332313258,16.760262988560815 L12.649558147547092,16.68099478555129 L12.599620631023754,16.599349242242795 L12.55343708659456,16.51552304990045 L12.511118774463238,16.42971815316393 L12.47276764315036,16.34214126354508 L12.438476083890421,16.25300336144183 L12.408326708053266,16.162519187867904 L12.382392148126058,16.07090672712292 L12.360734882735262,15.978386681649114 L12.343407086130156,15.885181940339834 L12.330450502490498,15.791517041580663 L12.32189634536114,15.697617632316788 L12.317765222455858,15.603709924449744 L12.318067086011578,15.510020149873126 L12.322801208812553,15.416774015460142 L12.331956185942296,15.324196159315992 L12.345509962259019,15.23250960960499 L12.363429885528406,15.14193524725618 L12.3856727850857,15.052691273841841 L12.41218507583762,14.964992685910776 L12.44290288735354,14.8790507570428 L12.47775221773496,14.79507252887218 L12.516649111892548,14.713260312306202 L12.55949986380131,14.633811200140478 L12.606201242246621,14.556916592245136 L12.656640739517245,14.482761734465766 L12.710696842446279,14.41152527234996 L12.768239325147011,14.34337882077453 L12.829129562738492,14.278486550510246 L12.893220865305008,14.217004792720067 L12.960358831284939,14.159081662343674 L13.030381719437647,14.104856701275612 L13.103120838492295,14.054460542196638 L13.178400953539871,14.008014593868166 "/>
			<path d="M13.178400953539885,14.008014593868158 L13.231182884275452,13.978621258125331 L13.285006284073685,13.951155955749101 L13.339810663173324,13.92564955378967 L13.395534429333452,13.90213071777487 L13.452114957054304,13.88062587949424 L13.50948865795933,13.861159207293483 L13.567591052259381,13.843752578912737 L13.626356841218724,13.828425556899125 "/>
			<path d="M24.953853475242237,17.75181791825648 L24.911426838676167,17.795272677092665 L24.867522367257312,17.837120930633464 L24.822189403297827,17.877315647459923 L24.775478894530064,17.915811654490557 L24.72744333684863,17.952565687749416 L24.67813671531257,17.98753644098856 L24.627614443473913,18.02068461211034 L24.575933301100818,18.05197294733732 "/>
			<path d="M24.57593330110081,18.051972947337322 L24.498293546451187,18.0943567925576 L24.418481193168923,18.13257642827416 L24.336688516203807,18.166539780036906 L24.253112561278847,18.196165027156614 L24.16795467018984,18.2213807998181 L24.081419995755375,18.242126351016385 L23.9937170075857,18.258351702901532 L23.9050569898612,18.270017767179684 L23.815653532330266,18.27709643928016 L23.725722015752908,18.27957066606186 L23.635479093029637,18.277434486895746 L23.545142167265634,18.270693048024537 L23.45492886802765,18.259362590164955 L23.365056527055295,18.24347040938241 L23.275741654689863,18.223054791332405 L23.187199418281942,18.19816491902701 L23.09964312383442,18.168860754348714 L23.013283702129645,18.135212893596965 L22.928329200578702,18.097302397415515 L22.84498428201696,18.055220595510235 L22.76344973165338,18.00906886662785 L22.683921973361382,17.958958394325645 L22.606592596476496,17.905009899120554 L22.53164789424089,17.847353347662864 L22.45926841500663,17.786127639635147 L22.389628527278887,17.721480273130783 L22.322895999646928,17.653566989318122 L22.259231596614896,17.58255139724637 L22.198788691306046,17.508604579697053 L22.141712895973434,17.431904681030634 L22.088141711207268,17.35263647802111 L22.038204194683928,17.270990934712614 L21.992020650254734,17.18716474237027 L21.949702338123412,17.10135984563375 L21.911351206810533,17.0137829560149 L21.877059647550595,16.92464505391165 L21.84691027171344,16.834160880337723 L21.820975711786232,16.74254841959274 L21.799318446395436,16.650028374118936 L21.78199064979033,16.556823632809653 L21.769034066150674,16.463158734050484 L21.760479909021313,16.369259324786608 L21.756348786116032,16.275351616919565 L21.75665064967175,16.181661842342944 L21.761384772472727,16.08841570792996 L21.77053974960247,15.995837851785812 L21.784093525919193,15.90415130207481 L21.80201344918858,15.813576939726 L21.824256348745873,15.72433296631166 L21.850768639497794,15.636634378380595 L21.881486451013714,15.550692449512619 L21.916335781395134,15.466714221341999 L21.955232675552722,15.384902004776022 L21.998083427461484,15.305452892610298 L22.044784805906794,15.228558284714955 L22.095224303177417,15.154403426935586 L22.149280406106453,15.08316696481978 L22.206822888807185,15.01502051324435 L22.267713126398665,14.950128242980066 L22.33180442896518,14.888646485189886 L22.398942394945113,14.830723354813493 L22.468965283097823,14.776498393745431 L22.54170440215247,14.726102234666458 L22.616984517200045,14.679656286337986 "/>
			<path d="M22.61698451720006,14.679656286337977 L22.669766447935626,14.65026295059515 L22.72358984773386,14.62279764821892 L22.7783942268335,14.59729124625949 L22.834117992993626,14.57377241024469 L22.89069852071448,14.552267571964059 L22.948072221619505,14.532800899763302 L23.006174615919555,14.515394271382556 L23.0649404048789,14.500067249368945 "/>
			<path d="M34.39243703890241,18.423459610726308 L34.35001040233634,18.466914369562488 L34.30610593091748,18.508762623103287 L34.260772966958,18.548957339929746 L34.214062458190234,18.58745334696038 L34.166026900508804,18.624207380219236 L34.11672027897274,18.65917813345838 L34.06619800713408,18.692326304580163 L34.01451686476099,18.72361463980714 "/>
			<path d="M34.014516864760985,18.723614639807142 L33.93687711011136,18.76599848502742 L33.8570647568291,18.80421812074398 L33.77527207986398,18.838181472506726 L33.69169612493902,18.867806719626433 L33.60653823385002,18.89302249228792 L33.52000355941555,18.913768043486204 L33.432300571245875,18.92999339537135 L33.343640553521375,18.941659459649504 L33.25423709599044,18.94873813174998 L33.16430557941308,18.95121235853168 L33.07406265668981,18.949076179365566 L32.98372573092581,18.942334740494356 L32.893512431687824,18.931004282634774 L32.80364009071547,18.91511210185223 L32.71432521835004,18.894696483802225 L32.625782981942116,18.86980661149683 L32.53822668749459,18.840502446818533 L32.45186726578982,18.806854586066784 L32.366912764238876,18.768944089885334 L32.28356784567713,18.726862287980055 L32.202033295313555,18.68071055909767 L32.12250553702156,18.630600086795464 L32.04517616013667,18.576651591590373 L31.970231457901065,18.518995040132683 L31.897851978666804,18.457769332104967 L31.82821209093906,18.393121965600603 L31.761479563307102,18.32520868178794 L31.69781516027507,18.25419308971619 L31.63737225496622,18.180246272166873 L31.580296459633608,18.103546373500453 L31.52672527486744,18.02427817049093 L31.476787758344102,17.942632627182434 L31.430604213914908,17.85880643484009 L31.388285901783586,17.773001538103568 L31.349934770470707,17.68542464848472 L31.31564321121077,17.59628674638147 L31.285493835373615,17.505802572807543 L31.259559275446406,17.41419011206256 L31.23790201005561,17.321670066588755 L31.220574213450504,17.228465325279473 L31.207617629810848,17.134800426520304 L31.199063472681487,17.040901017256427 L31.194932349776206,16.946993309389384 L31.195234213331926,16.853303534812763 L31.1999683361329,16.76005740039978 L31.209123313262644,16.66747954425563 L31.222677089579367,16.57579299454463 L31.240597012848752,16.48521863219582 L31.262839912406047,16.39597465878148 L31.289352203157968,16.308276070850415 L31.320070014673888,16.22233414198244 L31.354919345055308,16.138355913811818 L31.393816239212896,16.05654369724584 L31.43666699112166,15.977094585080117 L31.483368369566968,15.900199977184775 L31.53380786683759,15.826045119405405 L31.587863969766627,15.7548086572896 L31.64540645246736,15.68666220571417 L31.70629669005884,15.621769935449885 L31.770387992625356,15.560288177659706 L31.837525958605287,15.502365047283313 L31.907548846757997,15.44814008621525 L31.980287965812643,15.397743927136277 L32.05556808086022,15.351297978807805 "/>
			<path d="M32.05556808086023,15.351297978807796 L32.1083500115958,15.32190464306497 L32.162173411394036,15.29443934068874 L32.21697779049367,15.268932938729307 L32.2727015566538,15.24541410271451 L32.329282084374654,15.223909264433876 L32.38665578527968,15.204442592233121 L32.444758179579736,15.187035963852374 L32.50352396853908,15.171708941838762 "/>
			<path d="M6.524642235600728,6.437805239239077 L5.698766173780463,6.917549305288949 "/>
			<path d="M4.5656934516999765,3.065488578239733 L3.7398173898797116,3.5452326442896043 "/>
			<path d="M15.963225799260902,7.109446931708897 L15.137349737440637,7.589190997758768 "/>
			<path d="M14.004277015360152,3.7371302707095535 L13.178400953539887,4.216874336759425 "/>
			<path d="M25.401809362921078,7.781088624178716 L24.57593330110081,8.260832690228588 "/>
			<path d="M23.442860579020326,4.4087719631793725 L22.61698451720006,4.888516029229244 "/>
			<path d="M34.84039292658126,8.452730316648537 L34.01451686476099,8.932474382698409 "/>
			<path d="M32.8814441426805,5.080413655649192 L32.05556808086023,5.560157721699063 "/>
			<path d="M6.524642235600728,16.228945496347812 L5.698766173780463,16.708689562397684 "/>
			<path d="M4.5656934516999765,12.856628835348467 L3.7398173898797116,13.336372901398338 "/>
			<path d="M15.963225799260902,16.90058718881763 L15.137349737440637,17.380331254867503 "/>
			<path d="M14.004277015360152,13.528270527818286 L13.178400953539887,14.008014593868158 "/>
			<path d="M25.401809362921078,17.57222888128745 L24.57593330110081,18.051972947337322 "/>
			<path d="M23.442860579020326,14.199912220288105 L22.61698451720006,14.679656286337977 "/>
			<path d="M34.84039292658126,18.24387057375727 L34.01451686476099,18.723614639807142 "/>
			<path d="M32.8814441426805,14.871553912757925 L32.05556808086023,15.351297978807796 "/>

       </g>

       <!-- solid lines -->
       <g stroke="rgb(0,0,0)" fill="none">
			<path d="M0.0,0.0 L0.8258760618202654,-0.4797440660498712 "/>
			<path d="M0.8258760618202654,-0.47974406604987113 L0.8258760618202654,38.684816962385064 "/>
			<path d="M0.0,39.16456102843493 L0.8258760618202654,38.684816962385064 "/>
			<path d="M0.0,0.0 L0.0,39.16456102843493 "/>
			<path d="M0.8258760618202654,-0.47974406604987113 L38.58021031646097,2.206822703829408 "/>
			<path d="M0.8258760618202654,38.684816962385064 L38.58021031646097,41.37138373226434 "/>
			<path d="M38.58021031646096,2.206822703829408 L38.58021031646096,41.37138373226434 "/>
			<path d="M7.3856916385640865,4.88261703877102 L7.384670536086724,4.818954706118448 L7.381608361647616,4.755217690205775 L7.376508512968557,4.691476712232072 L7.369376648730119,4.6278024977926275 L7.360220682292904,4.5642656984033705 L7.34905077291705,4.500936813107497 L7.335879314489738,4.437886110251272 L7.320720921773211,4.375183549515807 L7.303592414188547,4.31289870429133 L7.2845127971532,4.251100684480074 L7.2635032409930025,4.189858059813436 L7.240587057452041,4.1292387837685105 L7.215789673826444,4.069310118168389 L7.189138604750823,4.010138558549914 L7.130395720020304,3.8943284662142137 L7.064619050219671,3.782322365564035 L6.992100451784771,3.67461723678138 L6.953412352366936,3.6225276835332565 L6.913161695637365,3.571690976286127 L6.871393142844574,3.5221635223386674 L6.828153039461359,3.474000276270726 L6.783489363760869,3.4272546789669165 L6.737451673580967,3.3819785983197868 L6.690091051335937,3.3382222716783363 L6.641460047336552,3.296034250105755 L6.591612621481398,3.2554613445082223 L6.540604083384154,3.2165485736945514 L6.48849103100325,3.1793391144243026 L6.435331287842015,3.1438742534997948 L6.381183838788973,3.1101933419551724 L6.326108764669514,3.0783337513933615 L6.270167175581511,3.0483308325193503 L6.213421143088899,3.0202178759158254 L6.155933631348426,2.9940260751046672 L6.097768427245995,2.9697844919353007 L6.038990069620138,2.947520024338301 L5.979663777651124,2.927257376480041 L5.919855378495192,2.909019031351484 L5.859631234244167,2.8928252258215545 L5.7990581682915465,2.878693928182746 L5.738203391186714,2.8666408182138987 L5.677134426059587,2.8566792697822603 L5.6159190336984315,2.8488203360041333 L5.554625137363968,2.8430727369805804 L5.493320747423208,2.8394428501217917 L5.432073885886643,2.8379347030708484 L5.3709525109325025,2.8385499692347382 L5.31002444150185,2.84128796592758 L5.249357282048163,2.846145655128117 L5.18901834752492,2.85311764685064 L5.12907458869439,2.8621962051255943 L5.069592517840537,2.873371256583246 L5.01063813496844,2.886630401630871 L4.952276854572137,2.901958928211073 L4.894573433052123,2.919339828125957 L4.837591896863074,2.9387538159090605 L4.7813954714714875,2.9601793502240787 L4.726046511202088,2.983592657766664 L4.671606430050835,3.008967759642763 L4.618135633541291,3.036276500194231 L4.565693451699984,3.0654885782397283 "/>
			<path d="M4.5656934516999765,3.0654885782397323 L4.490413336652387,3.1119345265682123 L4.417674217597739,3.1623306856471856 L4.3476513294450285,3.216555646715248 L4.280513363465099,3.2744787770916406 L4.2164220608985845,3.3359605348818198 L4.155531823307105,3.400852805146103 L4.097989340606372,3.468999256721533 L4.0439332376773365,3.54023571883734 L3.993493740406713,3.6143905766167093 L3.9467923619614025,3.6912851845120516 L3.9039416100526387,3.7707342966777757 L3.8650447158950514,3.8525465132437535 L3.8301953855136324,3.936524741414374 L3.7994775739977102,4.02246667028235 L3.7729652832457905,4.110165258213416 L3.7507223836884966,4.1994092316277545 L3.7328024604191103,4.289983593976563 L3.719248684102387,4.3816701436875665 L3.710093706972644,4.474247999831716 L3.705359584171669,4.567494134244699 L3.705057720615949,4.661183908821318 L3.70918884352123,4.755091616688363 L3.7177430006505903,4.848991025952237 L3.730699584290248,4.942655924711408 L3.748027380895354,5.035860666020689 L3.7696846462861497,5.128380711494494 L3.7956192062133574,5.219993172239478 L3.825768582050513,5.310477345813405 L3.860060141310451,5.399615247916655 L3.8984112726233286,5.4871921375355015 L3.94072958475465,5.572997034272026 L3.9869131291838453,5.656823226614367 L4.036850645707183,5.738468769922867 L4.09042183047335,5.817736972932389 L4.147497625805961,5.894436871598808 L4.207940531114813,5.968383689148123 L4.271604934146843,6.039399281219877 L4.338337461778802,6.1073125650325375 L4.407977349506547,6.171959931536901 L4.480356828740807,6.233185639564617 L4.555301530976413,6.29084219102231 L4.632630907861301,6.344790686227398 L4.712158666153299,6.394901158529604 L4.793693216516875,6.441052887411992 L4.877038135078619,6.4831346893172705 L4.961992636629563,6.5210451854987195 L5.048352058334335,6.554693046250469 L5.1359083527818585,6.583997210928767 L5.224450589189782,6.608887083234158 L5.313765461555213,6.629302701284166 L5.403637802527566,6.6451948820667095 L5.493851101765552,6.656525339926293 L5.584188027529553,6.663266778797502 L5.674430950252825,6.665402957963616 L5.764362466830181,6.662928731181918 L5.853765924361116,6.6558500590814385 L5.942425942085618,6.644183994803288 L6.03012893025529,6.627958642918139 L6.116663604689756,6.607213091719855 L6.201821495778764,6.5819973190583685 L6.2853974507037265,6.552372071938663 L6.367190127668841,6.518408720175914 L6.447002480951105,6.480189084459357 L6.524642235600714,6.437805239239085 "/>
			<path d="M6.524642235600728,6.437805239239077 L6.620956648383505,6.377368732818036 L6.71298883163289,6.310460961797924 L6.800372446778155,6.2373482558075795 L6.8827596590994515,6.158321643520551 L6.959822522300793,6.0736956942013345 L7.031254283916197,5.983807265547159 L7.096770606352759,5.889014162809575 L7.156110698710236,5.789693714533293 L7.209038354871881,5.686241270581598 L7.255342893734346,5.579068628427048 L7.294839997834043,5.468602393971642 L7.327372447031742,5.355282283421337 L7.352810744334974,5.239559372974352 L7.371053631367084,5.121894303290476 L7.382028491431112,5.002755445888571 L7.3856916385640865,4.882617038771024 "/>
			<path d="M16.82427520222426,5.554258731240839 L16.823254099746897,5.490596398588267 L16.82019192530779,5.426859382675595 L16.81509207662873,5.363118404701892 L16.80796021239029,5.299444190262447 L16.79880424595308,5.23590739087319 L16.787634336577224,5.172578505577317 L16.77446287814991,5.109527802721091 L16.759304485433386,5.046825241985626 L16.74217597784872,4.984540396761149 L16.723096360813372,4.922742376949893 L16.702086804653177,4.8614997522832555 L16.679170621112213,4.80088047623833 L16.65437323748662,4.740951810638208 L16.627722168410997,4.681780251019734 L16.568979283680477,4.565970158684033 L16.503202613879843,4.453964058033854 L16.430684015444946,4.346258929251199 L16.39199591602711,4.294169376003076 L16.351745259297537,4.243332668755946 L16.30997670650475,4.193805214808487 L16.266736603121533,4.145641968740545 L16.222072927421042,4.0988963714367355 L16.17603523724114,4.053620290789606 L16.12867461499611,4.009863964148156 L16.080043610996725,3.9676759425755743 L16.030196185141573,3.9271030369780418 L15.979187647044327,3.888190266164371 L15.927074594663425,3.850980806894122 L15.873914851502189,3.815515945969614 L15.819767402449148,3.781835034424992 L15.764692328329687,3.749975443863181 L15.708750739241685,3.7199725249891697 L15.652004706749073,3.6918595683856448 L15.5945171950086,3.6656677675744866 L15.53635199090617,3.64142618440512 L15.477573633280311,3.6191617168081205 L15.418247341311298,3.5988990689498603 L15.358438942155367,3.5806607238213033 L15.298214797904341,3.564466918291374 L15.23764173195172,3.5503356206525654 L15.176786954846888,3.538282510683718 L15.115717989719762,3.5283209622520797 L15.054502597358606,3.5204620284739527 L14.993208701024141,3.5147144294504 L14.931904311083382,3.511084542591611 L14.870657449546817,3.509576395540668 L14.809536074592677,3.5101916617045577 L14.748608005162023,3.5129296583973995 L14.687940845708336,3.5177873475979364 L14.627601911185094,3.5247593393204593 L14.567658152354564,3.5338378975954137 L14.50817608150071,3.5450129490530653 L14.449221698628614,3.5582720941006905 L14.390860418232311,3.5736006206808923 L14.333156996712297,3.5909815205957765 L14.276175460523248,3.61039550837888 L14.219979035131662,3.631821042693898 L14.164630074862263,3.6552343502364835 L14.110189993711009,3.6806094521125825 L14.056719197201465,3.7079181926640503 L14.004277015360158,3.7371302707095477 "/>
			<path d="M14.00427701536015,3.7371302707095517 L13.928996900312562,3.7835762190380318 L13.856257781257913,3.833972378117005 L13.786234893105203,3.8881973391850675 L13.719096927125273,3.94612046956146 L13.65500562455876,4.007602227351639 L13.594115386967278,4.0724944976159225 L13.536572904266546,4.1406409491913525 L13.48251680133751,4.211877411307159 L13.432077304066887,4.286032269086529 L13.385375925621577,4.362926876981871 L13.342525173712813,4.442375989147595 L13.303628279555225,4.524188205713573 L13.268778949173807,4.608166433884193 L13.238061137657885,4.69410836275217 L13.211548846905965,4.781806950683236 L13.189305947348672,4.871050924097574 L13.171386024079284,4.961625286446383 L13.157832247762562,5.053311836157386 L13.148677270632819,5.145889692301536 L13.143943147831843,5.239135826714518 L13.143641284276123,5.3328256012911375 L13.147772407181405,5.426733309158182 L13.156326564310763,5.520632718422056 L13.169283147950422,5.6142976171812276 L13.186610944555529,5.707502358490508 L13.208268209946324,5.800022403964314 L13.234202769873532,5.891634864709298 L13.264352145710687,5.9821190382832246 L13.298643704970626,6.0712569403864745 L13.336994836283502,6.158833830005321 L13.379313148414823,6.2446387267418455 L13.42549669284402,6.328464919084187 L13.475434209367357,6.410110462392686 L13.529005394133524,6.489378665402208 L13.586081189466135,6.566078564068627 L13.646524094774987,6.640025381617942 L13.710188497807017,6.7110409736896965 L13.776921025438977,6.778954257502357 L13.846560913166721,6.843601624006721 L13.91894039240098,6.904827332034436 L13.993885094636587,6.962483883492129 L14.071214471521476,7.016432378697218 L14.150742229813474,7.066542850999423 L14.232276780177049,7.112694579881811 L14.315621698738793,7.15477638178709 L14.400576200289738,7.192686877968539 L14.486935621994508,7.226334738720288 L14.574491916442033,7.255638903398586 L14.663034152849956,7.280528775703978 L14.752349025215388,7.300944393753985 L14.84222136618774,7.316836574536529 L14.932434665425726,7.328167032396112 L15.022771591189727,7.334908471267322 L15.113014513912999,7.337044650433436 L15.202946030490356,7.334570423651737 L15.292349488021289,7.327491751551258 L15.381009505745793,7.315825687273107 L15.468712493915463,7.299600335387958 L15.555247168349931,7.278854784189674 L15.640405059438937,7.253639011528188 L15.7239810143639,7.2240137644084825 L15.805773691329014,7.190050412645734 L15.88558604461128,7.1518307769291765 L15.963225799260888,7.109446931708905 "/>
			<path d="M15.963225799260902,7.109446931708897 L16.05954021204368,7.049010425287856 L16.151572395293066,6.982102654267743 L16.23895601043833,6.908989948277399 L16.321343222759626,6.82996333599037 L16.398406085960968,6.745337386671154 L16.469837847576372,6.6554489580169784 L16.535354170012933,6.5606558552793945 L16.59469426237041,6.461335407003112 L16.647621918532053,6.357882963051417 L16.69392645739452,6.250710320896867 L16.733423561494217,6.140244086441461 L16.765956010691916,6.026923975891156 L16.791394307995148,5.911201065444171 L16.809637195027257,5.793535995760295 L16.820612055091285,5.67439713835839 L16.82427520222426,5.554258731240844 "/>
			<path d="M26.262858765884438,6.22590042371066 L26.261837663407075,6.162238091058088 L26.258775488967967,6.098501075145415 L26.253675640288908,6.034760097171713 L26.24654377605047,5.971085882732267 L26.237387809613253,5.90754908334301 L26.226217900237398,5.844220198047137 L26.21304644181009,5.781169495190912 L26.19788804909356,5.718466934455447 L26.1807595415089,5.6561820892309695 L26.16167992447355,5.594384069419713 L26.14067036831335,5.533141444753076 L26.11775418477239,5.47252216870815 L26.092956801146794,5.412593503108028 L26.06630573207117,5.353421943489554 L26.007562847340655,5.237611851153853 L25.94178617754002,5.1256057505036745 L25.86926757910512,5.01790062172102 L25.830579479687287,4.965811068472896 L25.790328822957715,4.914974361225767 L25.748560270164923,4.865446907278307 L25.705320166781707,4.817283661210366 L25.66065649108122,4.770538063906557 L25.61461880090132,4.7252619832594265 L25.56725817865629,4.681505656617976 L25.518627174656903,4.639317635045394 L25.468779748801747,4.598744729447862 L25.417771210704505,4.5598319586341916 L25.3656581583236,4.522622499363942 L25.312498415162363,4.4871576384394345 L25.258350966109322,4.453476726894812 L25.203275891989865,4.421617136333001 L25.14733430290186,4.39161421745899 L25.09058827040925,4.363501260855465 L25.033100758668777,4.337309460044307 L24.974935554566347,4.313067876874941 L24.91615719694049,4.290803409277941 L24.856830904971474,4.270540761419681 L24.79702250581554,4.252302416291124 L24.736798361564517,4.236108610761194 L24.676225295611896,4.221977313122386 L24.615370518507063,4.209924203153538 L24.554301553379936,4.1999626547219 L24.49308616101878,4.1921037209437735 L24.43179226468432,4.18635612192022 L24.370487874743556,4.182726235061431 L24.309241013206993,4.181218088010488 L24.248119638252852,4.181833354174378 L24.1871915688222,4.18457135086722 L24.126524409368514,4.189429040067757 L24.06618547484527,4.19640103179028 L24.00624171601474,4.205479590065234 L23.94675964516089,4.216654641522886 L23.88780526228879,4.229913786570511 L23.829443981892485,4.245242313150713 L23.77174056037247,4.262623213065597 L23.714759024183422,4.2820372008487 L23.658562598791836,4.303462735163718 L23.603213638522437,4.326876042706304 L23.548773557371184,4.352251144582403 L23.49530276086164,4.379559885133871 L23.442860579020333,4.408771963179368 "/>
			<path d="M23.442860579020326,4.4087719631793725 L23.367580463972736,4.455217911507852 L23.294841344918087,4.505614070586825 L23.22481845676538,4.559839031654888 L23.15768049078545,4.61776216203128 L23.093589188218935,4.6792439198214595 L23.032698950627456,4.744136190085743 L22.97515646792672,4.812282641661173 L22.921100364997688,4.88351910377698 L22.87066086772706,4.957673961556349 L22.82395948928175,5.034568569451691 L22.78110873737299,5.114017681617415 L22.7422118432154,5.195829898183393 L22.70736251283398,5.2798081263540135 L22.67664470131806,5.36575005522199 L22.65013241056614,5.453448643153056 L22.627889511008846,5.542692616567394 L22.60996958773946,5.633266978916203 L22.596415811422737,5.724953528627206 L22.587260834292994,5.817531384771356 L22.58252671149202,5.910777519184339 L22.5822248479363,6.004467293760958 L22.58635597084158,6.098375001628002 L22.59491012797094,6.192274410891876 L22.607866711610598,6.285939309651048 L22.625194508215703,6.3791440509603285 L22.6468517736065,6.471664096434134 L22.672786333533708,6.563276557179118 L22.702935709370863,6.653760730753045 L22.7372272686308,6.742898632856294 L22.77557839994368,6.830475522475141 L22.817896712075,6.916280419211665 L22.864080256504195,7.000106611554007 L22.914017773027535,7.081752154862507 L22.9675889577937,7.161020357872028 L23.02466475312631,7.237720256538448 L23.085107658435163,7.311667074087762 L23.14877206146719,7.382682666159516 L23.21550458909915,7.450595949972177 L23.285144476826897,7.515243316476541 L23.357523956061158,7.576469024504258 L23.432468658296763,7.634125575961949 L23.50979803518165,7.688074071167038 L23.589325793473648,7.738184543469243 L23.670860343837226,7.784336272351631 L23.75420526239897,7.82641807425691 L23.83915976394991,7.864328570438358 L23.925519185654686,7.897976431190109 L24.01307548010221,7.927280595868407 L24.10161771651013,7.952170468173799 L24.19093258887556,7.972586086223806 L24.280804929847918,7.988478267006348 L24.3710182290859,7.999808724865932 L24.461355154849905,8.006550163737142 L24.551598077573175,8.008686342903257 L24.64152959415053,8.006212116121556 L24.730933051681465,7.999133444021078 L24.81959306940597,7.987467379742927 L24.90729605757564,7.9712420278577785 L24.993830732010107,7.950496476659495 L25.078988623099114,7.925280703998008 L25.162564578024078,7.895655456878303 L25.24435725498919,7.861692105115553 L25.324169608271454,7.823472469398997 L25.401809362921064,7.781088624178725 "/>
			<path d="M25.401809362921078,7.781088624178716 L25.498123775703853,7.720652117757676 L25.59015595895324,7.653744346737563 L25.677539574098503,7.580631640747219 L25.7599267864198,7.50160502846019 L25.83698964962114,7.416979079140974 L25.908421411236546,7.327090650486799 L25.973937733673107,7.232297547749215 L26.033277826030584,7.132977099472932 L26.08620548219223,7.029524655521238 L26.132510021054696,6.922352013366687 L26.172007125154394,6.811885778911282 L26.204539574352093,6.698565668360977 L26.229977871655326,6.582842757913991 L26.248220758687435,6.465177688230115 L26.259195618751463,6.346038830828211 L26.262858765884438,6.225900423710664 "/>
			<path d="M35.70144232954461,6.897542116180479 L35.700421227067245,6.833879783527907 L35.69735905262814,6.770142767615234 L35.69225920394908,6.706401789641532 L35.68512733971064,6.642727575202087 L35.67597137327343,6.57919077581283 L35.664801463897575,6.515861890516956 L35.65163000547026,6.452811187660731 L35.63647161275374,6.390108626925266 L35.61934310516907,6.327823781700789 L35.60026348813372,6.266025761889533 L35.579253931973525,6.204783137222895 L35.55633774843256,6.14416386117797 L35.53154036480697,6.084235195577848 L35.504889295731346,6.025063635959373 L35.446146411000825,5.909253543623673 L35.3803697412002,5.797247442973494 L35.307851142765294,5.689542314190839 L35.26916304334746,5.637452760942716 L35.228912386617885,5.586616053695586 L35.1871438338251,5.5370885997481265 L35.143903730441885,5.488925353680186 L35.099240054741394,5.442179756376376 L35.05320236456149,5.396903675729246 L35.00584174231646,5.353147349087795 L34.95721073831707,5.310959327515214 L34.907363312461925,5.2703864219176815 L34.856354774364675,5.231473651104011 L34.80424172198377,5.194264191833762 L34.75108197882254,5.158799330909254 L34.6969345297695,5.1251184193646315 L34.641859455650035,5.093258828802821 L34.585917866562035,5.0632559099288095 L34.52917183406942,5.035142953325284 L34.47168432232895,5.008951152514126 L34.41351911822652,4.98470956934476 L34.35474076060066,4.96244510174776 L34.29541446863165,4.9421824538895 L34.235606069475715,4.923944108760943 L34.17538192522469,4.907750303231014 L34.114808859272074,4.893619005592205 L34.05395408216724,4.881565895623358 L33.99288511704011,4.871604347191719 L33.931669724678954,4.863745413413593 L33.87037582834449,4.857997814390039 L33.809071438403734,4.854367927531251 L33.74782457686717,4.8528597804803075 L33.686703201913026,4.853475046644197 L33.625775132482374,4.856213043337039 L33.56510797302869,4.861070732537576 L33.504769038505444,4.868042724260099 L33.444825279674916,4.877121282535054 L33.38534320882106,4.888296333992705 L33.32638882594897,4.90155547904033 L33.26802754555266,4.916884005620532 L33.210324124032645,4.934264905535416 L33.153342587843596,4.95367889331852 L33.09714616245201,4.975104427633537 L33.041797202182615,4.998517735176123 L32.98735712103136,5.023892837052222 L32.933886324521815,5.05120157760369 L32.88144414268051,5.0804136556491875 "/>
			<path d="M32.8814441426805,5.080413655649192 L32.80616402763291,5.126859603977671 L32.733424908578264,5.177255763056644 L32.66340202042555,5.231480724124707 L32.59626405444562,5.289403854501099 L32.53217275187911,5.350885612291279 L32.47128251428763,5.415777882555562 L32.4137400315869,5.483924334130992 L32.35968392865786,5.555160796246799 L32.309244431387235,5.629315654026168 L32.26254305294193,5.706210261921511 L32.21969230103316,5.785659374087235 L32.180795406875575,5.867471590653213 L32.145946076494155,5.951449818823833 L32.115228264978235,6.037391747691809 L32.08871597422632,6.125090335622875 L32.06647307466902,6.214334309037214 L32.04855315139963,6.3049086713860225 L32.03499937508291,6.396595221097026 L32.025844397953165,6.489173077241175 L32.021110275152196,6.582419211654158 L32.02080841159647,6.676108986230777 L32.024939534501755,6.770016694097821 L32.033493691631115,6.863916103361696 L32.04645027527077,6.957581002120867 L32.06377807187588,7.050785743430148 L32.085435337266674,7.1433057889039535 L32.11136989719388,7.2349182496489375 L32.14151927303104,7.325402423222864 L32.17581083229098,7.414540325326113 L32.21416196360385,7.502117214944961 L32.25648027573517,7.587922111681484 L32.30266382016437,7.671748304023827 L32.352601336687705,7.753393847332326 L32.406172521453875,7.832662050341847 L32.46324831678648,7.909361949008267 L32.52369122209534,7.983308766557581 L32.587355625127365,8.054324358629335 L32.65408815275933,8.122237642441997 L32.72372804048707,8.18688500894636 L32.79610751972133,8.248110716974077 L32.87105222195694,8.305767268431769 L32.94838159884183,8.359715763636856 L33.02790935713382,8.409826235939063 L33.1094439074974,8.45597796482145 L33.19278882605914,8.49805976672673 L33.27774332761009,8.535970262908178 L33.36410274931486,8.569618123659929 L33.45165904376238,8.598922288338226 L33.54020128017031,8.623812160643618 L33.629516152535736,8.644227778693626 L33.71938849350809,8.660119959476168 L33.80960179274607,8.671450417335752 L33.89993871851008,8.678191856206961 L33.99018164123335,8.680328035373076 L34.08011315781071,8.677853808591376 L34.16951661534164,8.670775136490898 L34.25817663306614,8.659109072212747 L34.34587962123582,8.642883720327598 L34.43241429567028,8.622138169129315 L34.51757218675929,8.596922396467829 L34.60114814168425,8.567297149348121 L34.682940818649364,8.533333797585373 L34.76275317193163,8.495114161868816 L34.84039292658124,8.452730316648545 "/>
			<path d="M34.84039292658125,8.452730316648536 L34.93670733936403,8.392293810227496 L35.028739522613414,8.325386039207382 L35.11612313775868,8.252273333217039 L35.19851035007998,8.17324672093001 L35.27557321328132,8.088620771610794 L35.34700497489672,7.998732342956618 L35.412521297333285,7.903939240219034 L35.47186138969076,7.804618791942751 L35.5247890458524,7.701166347991057 L35.57109358471487,7.593993705836507 L35.61059068881457,7.483527471381102 L35.643123138012264,7.370207360830796 L35.668561435315496,7.254484450383811 L35.686804322347605,7.136819380699935 L35.69777918241164,7.01768052329803 L35.70144232954461,6.8975421161804835 "/>
			<path d="M7.3856916385640865,14.673757295879755 L7.384670536086724,14.610094963227183 L7.381608361647616,14.54635794731451 L7.376508512968557,14.482616969340807 L7.369376648730119,14.418942754901362 L7.360220682292904,14.355405955512106 L7.34905077291705,14.292077070216232 L7.335879314489738,14.229026367360007 L7.320720921773211,14.166323806624542 L7.303592414188547,14.104038961400065 L7.2845127971532,14.042240941588808 L7.2635032409930025,13.980998316922172 L7.240587057452041,13.920379040877245 L7.215789673826444,13.860450375277123 L7.189138604750823,13.801278815658648 L7.130395720020304,13.685468723322948 L7.064619050219671,13.57346262267277 L6.992100451784771,13.465757493890115 L6.953412352366936,13.413667940641991 L6.913161695637365,13.36283123339486 L6.871393142844574,13.313303779447402 L6.828153039461359,13.26514053337946 L6.783489363760869,13.21839493607565 L6.737451673580967,13.173118855428521 L6.690091051335937,13.129362528787071 L6.641460047336552,13.08717450721449 L6.591612621481398,13.046601601616956 L6.540604083384154,13.007688830803286 L6.48849103100325,12.970479371533038 L6.435331287842015,12.935014510608529 L6.381183838788973,12.901333599063907 L6.326108764669514,12.869474008502095 L6.270167175581511,12.839471089628084 L6.213421143088899,12.81135813302456 L6.155933631348426,12.785166332213402 L6.097768427245995,12.760924749044035 L6.038990069620138,12.738660281447036 L5.979663777651124,12.718397633588776 L5.919855378495192,12.700159288460219 L5.859631234244167,12.68396548293029 L5.7990581682915465,12.669834185291482 L5.738203391186714,12.657781075322633 L5.677134426059587,12.647819526890995 L5.6159190336984315,12.639960593112868 L5.554625137363968,12.634212994089316 L5.493320747423208,12.630583107230526 L5.432073885886643,12.629074960179583 L5.3709525109325025,12.629690226343472 L5.31002444150185,12.632428223036314 L5.249357282048163,12.637285912236852 L5.18901834752492,12.644257903959375 L5.12907458869439,12.653336462234329 L5.069592517840537,12.66451151369198 L5.01063813496844,12.677770658739606 L4.952276854572137,12.693099185319808 L4.894573433052123,12.710480085234693 L4.837591896863074,12.729894073017796 L4.7813954714714875,12.751319607332814 L4.726046511202088,12.774732914875399 L4.671606430050835,12.800108016751498 L4.618135633541291,12.827416757302966 L4.565693451699984,12.856628835348463 "/>
			<path d="M4.5656934516999765,12.856628835348467 L4.490413336652387,12.903074783676947 L4.417674217597739,12.95347094275592 L4.3476513294450285,13.007695903823983 L4.280513363465099,13.065619034200376 L4.2164220608985845,13.127100791990554 L4.155531823307105,13.191993062254838 L4.097989340606372,13.260139513830268 L4.0439332376773365,13.331375975946074 L3.993493740406713,13.405530833725443 L3.9467923619614025,13.482425441620787 L3.9039416100526387,13.56187455378651 L3.8650447158950514,13.643686770352488 L3.8301953855136324,13.727664998523109 L3.7994775739977102,13.813606927391085 L3.7729652832457905,13.90130551532215 L3.7507223836884966,13.99054948873649 L3.7328024604191103,14.081123851085298 L3.719248684102387,14.172810400796301 L3.710093706972644,14.26538825694045 L3.705359584171669,14.358634391353434 L3.705057720615949,14.452324165930053 L3.70918884352123,14.546231873797097 L3.7177430006505903,14.640131283060972 L3.730699584290248,14.733796181820143 L3.748027380895354,14.827000923129424 L3.7696846462861497,14.919520968603228 L3.7956192062133574,15.011133429348213 L3.825768582050513,15.10161760292214 L3.860060141310451,15.19075550502539 L3.8984112726233286,15.278332394644236 L3.94072958475465,15.36413729138076 L3.9869131291838453,15.447963483723102 L4.036850645707183,15.5296090270316 L4.09042183047335,15.608877230041124 L4.147497625805961,15.685577128707543 L4.207940531114813,15.759523946256857 L4.271604934146843,15.830539538328612 L4.338337461778802,15.898452822141273 L4.407977349506547,15.963100188645637 L4.480356828740807,16.024325896673353 L4.555301530976413,16.081982448131043 L4.632630907861301,16.13593094333613 L4.712158666153299,16.18604141563834 L4.793693216516875,16.232193144520725 L4.877038135078619,16.274274946426004 L4.961992636629563,16.312185442607454 L5.048352058334335,16.345833303359203 L5.1359083527818585,16.3751374680375 L5.224450589189782,16.400027340342895 L5.313765461555213,16.4204429583929 L5.403637802527566,16.436335139175444 L5.493851101765552,16.447665597035027 L5.584188027529553,16.454407035906236 L5.674430950252825,16.45654321507235 L5.764362466830181,16.45406898829065 L5.853765924361116,16.446990316190174 L5.942425942085618,16.43532425191202 L6.03012893025529,16.419098900026874 L6.116663604689756,16.39835334882859 L6.201821495778764,16.373137576167103 L6.2853974507037265,16.343512329047396 L6.367190127668841,16.30954897728465 L6.447002480951105,16.27132934156809 L6.524642235600714,16.22894549634782 "/>
			<path d="M6.524642235600728,16.228945496347812 L6.620956648383505,16.16850898992677 L6.71298883163289,16.10160121890666 L6.800372446778155,16.028488512916315 L6.8827596590994515,15.949461900629284 L6.959822522300793,15.86483595131007 L7.031254283916197,15.774947522655895 L7.096770606352759,15.68015441991831 L7.156110698710236,15.580833971642027 L7.209038354871881,15.477381527690333 L7.255342893734346,15.370208885535783 L7.294839997834043,15.259742651080376 L7.327372447031742,15.146422540530072 L7.352810744334974,15.030699630083086 L7.371053631367084,14.91303456039921 L7.382028491431112,14.793895702997306 L7.3856916385640865,14.673757295879758 "/>
			<path d="M16.82427520222426,15.345398988349574 L16.823254099746897,15.281736655697003 L16.82019192530779,15.21799963978433 L16.81509207662873,15.154258661810626 L16.80796021239029,15.090584447371182 L16.79880424595308,15.027047647981925 L16.787634336577224,14.963718762686051 L16.77446287814991,14.900668059829826 L16.759304485433386,14.837965499094361 L16.74217597784872,14.775680653869884 L16.723096360813372,14.713882634058628 L16.702086804653177,14.652640009391991 L16.679170621112213,14.592020733347065 L16.65437323748662,14.532092067746943 L16.627722168410997,14.472920508128468 L16.568979283680477,14.357110415792768 L16.503202613879843,14.245104315142589 L16.430684015444946,14.137399186359934 L16.39199591602711,14.08530963311181 L16.351745259297537,14.03447292586468 L16.30997670650475,13.984945471917221 L16.266736603121533,13.93678222584928 L16.222072927421042,13.89003662854547 L16.17603523724114,13.84476054789834 L16.12867461499611,13.80100422125689 L16.080043610996725,13.75881619968431 L16.030196185141573,13.718243294086776 L15.979187647044327,13.679330523273105 L15.927074594663425,13.642121064002858 L15.873914851502189,13.606656203078348 L15.819767402449148,13.572975291533727 L15.764692328329687,13.541115700971915 L15.708750739241685,13.511112782097904 L15.652004706749073,13.48299982549438 L15.5945171950086,13.456808024683221 L15.53635199090617,13.432566441513854 L15.477573633280311,13.410301973916855 L15.418247341311298,13.390039326058595 L15.358438942155367,13.371800980930038 L15.298214797904341,13.35560717540011 L15.23764173195172,13.341475877761301 L15.176786954846888,13.329422767792453 L15.115717989719762,13.319461219360814 L15.054502597358606,13.311602285582687 L14.993208701024141,13.305854686559135 L14.931904311083382,13.302224799700346 L14.870657449546817,13.300716652649403 L14.809536074592677,13.301331918813291 L14.748608005162023,13.304069915506133 L14.687940845708336,13.308927604706671 L14.627601911185094,13.315899596429194 L14.567658152354564,13.324978154704148 L14.50817608150071,13.3361532061618 L14.449221698628614,13.349412351209425 L14.390860418232311,13.364740877789627 L14.333156996712297,13.382121777704512 L14.276175460523248,13.401535765487615 L14.219979035131662,13.422961299802633 L14.164630074862263,13.446374607345218 L14.110189993711009,13.471749709221317 L14.056719197201465,13.499058449772786 L14.004277015360158,13.528270527818282 "/>
			<path d="M14.00427701536015,13.528270527818286 L13.928996900312562,13.574716476146767 L13.856257781257913,13.62511263522574 L13.786234893105203,13.679337596293802 L13.719096927125273,13.737260726670195 L13.65500562455876,13.798742484460373 L13.594115386967278,13.863634754724657 L13.536572904266546,13.931781206300087 L13.48251680133751,14.003017668415893 L13.432077304066887,14.077172526195262 L13.385375925621577,14.154067134090607 L13.342525173712813,14.233516246256329 L13.303628279555225,14.315328462822308 L13.268778949173807,14.399306690992928 L13.238061137657885,14.485248619860904 L13.211548846905965,14.57294720779197 L13.189305947348672,14.662191181206309 L13.171386024079284,14.752765543555117 L13.157832247762562,14.84445209326612 L13.148677270632819,14.93702994941027 L13.143943147831843,15.030276083823253 L13.143641284276123,15.123965858399872 L13.147772407181405,15.217873566266917 L13.156326564310763,15.311772975530792 L13.169283147950422,15.405437874289962 L13.186610944555529,15.498642615599243 L13.208268209946324,15.591162661073048 L13.234202769873532,15.682775121818032 L13.264352145710687,15.77325929539196 L13.298643704970626,15.86239719749521 L13.336994836283502,15.949974087114056 L13.379313148414823,16.03577898385058 L13.42549669284402,16.11960517619292 L13.475434209367357,16.20125071950142 L13.529005394133524,16.280518922510943 L13.586081189466135,16.357218821177362 L13.646524094774987,16.431165638726675 L13.710188497807017,16.50218123079843 L13.776921025438977,16.570094514611093 L13.846560913166721,16.634741881115456 L13.91894039240098,16.695967589143173 L13.993885094636587,16.753624140600863 L14.071214471521476,16.80757263580595 L14.150742229813474,16.85768310810816 L14.232276780177049,16.903834836990544 L14.315621698738793,16.945916638895824 L14.400576200289738,16.983827135077274 L14.486935621994508,17.017474995829023 L14.574491916442033,17.04677916050732 L14.663034152849956,17.071669032812714 L14.752349025215388,17.09208465086272 L14.84222136618774,17.107976831645264 L14.932434665425726,17.119307289504846 L15.022771591189727,17.126048728376055 L15.113014513912999,17.12818490754217 L15.202946030490356,17.12571068076047 L15.292349488021289,17.118632008659993 L15.381009505745793,17.10696594438184 L15.468712493915463,17.090740592496694 L15.555247168349931,17.06999504129841 L15.640405059438937,17.044779268636923 L15.7239810143639,17.015154021517215 L15.805773691329014,16.98119066975447 L15.88558604461128,16.94297103403791 L15.963225799260888,16.90058718881764 "/>
			<path d="M15.963225799260902,16.90058718881763 L16.05954021204368,16.84015068239659 L16.151572395293066,16.773242911376478 L16.23895601043833,16.700130205386134 L16.321343222759626,16.621103593099104 L16.398406085960968,16.53647764377989 L16.469837847576372,16.446589215125712 L16.535354170012933,16.35179611238813 L16.59469426237041,16.252475664111845 L16.647621918532053,16.149023220160153 L16.69392645739452,16.0418505780056 L16.733423561494217,15.931384343550196 L16.765956010691916,15.818064232999891 L16.791394307995148,15.702341322552906 L16.809637195027257,15.584676252869029 L16.820612055091285,15.465537395467125 L16.82427520222426,15.345398988349578 "/>
			<path d="M26.262858765884438,16.01704068081939 L26.261837663407075,15.953378348166822 L26.258775488967967,15.889641332254149 L26.253675640288908,15.825900354280446 L26.24654377605047,15.762226139841001 L26.237387809613253,15.698689340451745 L26.226217900237398,15.63536045515587 L26.21304644181009,15.572309752299645 L26.19788804909356,15.50960719156418 L26.1807595415089,15.447322346339703 L26.16167992447355,15.385524326528447 L26.14067036831335,15.32428170186181 L26.11775418477239,15.263662425816884 L26.092956801146794,15.203733760216762 L26.06630573207117,15.144562200598287 L26.007562847340655,15.028752108262587 L25.94178617754002,14.916746007612408 L25.86926757910512,14.809040878829753 L25.830579479687287,14.75695132558163 L25.790328822957715,14.7061146183345 L25.748560270164923,14.656587164387041 L25.705320166781707,14.6084239183191 L25.66065649108122,14.56167832101529 L25.61461880090132,14.51640224036816 L25.56725817865629,14.47264591372671 L25.518627174656903,14.430457892154129 L25.468779748801747,14.389884986556595 L25.417771210704505,14.350972215742924 L25.3656581583236,14.313762756472677 L25.312498415162363,14.278297895548167 L25.258350966109322,14.244616984003546 L25.203275891989865,14.212757393441734 L25.14733430290186,14.182754474567723 L25.09058827040925,14.1546415179642 L25.033100758668777,14.12844971715304 L24.974935554566347,14.104208133983674 L24.91615719694049,14.081943666386675 L24.856830904971474,14.061681018528414 L24.79702250581554,14.043442673399857 L24.736798361564517,14.027248867869929 L24.676225295611896,14.01311757023112 L24.615370518507063,14.001064460262272 L24.554301553379936,13.991102911830634 L24.49308616101878,13.983243978052506 L24.43179226468432,13.977496379028954 L24.370487874743556,13.973866492170165 L24.309241013206993,13.972358345119222 L24.248119638252852,13.97297361128311 L24.1871915688222,13.975711607975953 L24.126524409368514,13.98056929717649 L24.06618547484527,13.987541288899013 L24.00624171601474,13.996619847173967 L23.94675964516089,14.00779489863162 L23.88780526228879,14.021054043679245 L23.829443981892485,14.036382570259446 L23.77174056037247,14.053763470174331 L23.714759024183422,14.073177457957435 L23.658562598791836,14.094602992272453 L23.603213638522437,14.118016299815038 L23.548773557371184,14.143391401691137 L23.49530276086164,14.170700142242605 L23.442860579020333,14.199912220288102 "/>
			<path d="M23.442860579020326,14.199912220288105 L23.367580463972736,14.246358168616586 L23.294841344918087,14.29675432769556 L23.22481845676538,14.350979288763622 L23.15768049078545,14.408902419140015 L23.093589188218935,14.470384176930192 L23.032698950627456,14.535276447194477 L22.97515646792672,14.603422898769907 L22.921100364997688,14.674659360885713 L22.87066086772706,14.748814218665082 L22.82395948928175,14.825708826560426 L22.78110873737299,14.905157938726148 L22.7422118432154,14.986970155292127 L22.70736251283398,15.070948383462747 L22.67664470131806,15.156890312330724 L22.65013241056614,15.244588900261789 L22.627889511008846,15.333832873676128 L22.60996958773946,15.424407236024937 L22.596415811422737,15.51609378573594 L22.587260834292994,15.60867164188009 L22.58252671149202,15.701917776293072 L22.5822248479363,15.795607550869692 L22.58635597084158,15.889515258736736 L22.59491012797094,15.983414668000611 L22.607866711610598,16.07707956675978 L22.625194508215703,16.170284308069064 L22.6468517736065,16.26280435354287 L22.672786333533708,16.354416814287852 L22.702935709370863,16.44490098786178 L22.7372272686308,16.53403888996503 L22.77557839994368,16.621615779583877 L22.817896712075,16.7074206763204 L22.864080256504195,16.79124686866274 L22.914017773027535,16.87289241197124 L22.9675889577937,16.952160614980762 L23.02466475312631,17.02886051364718 L23.085107658435163,17.102807331196495 L23.14877206146719,17.17382292326825 L23.21550458909915,17.241736207080912 L23.285144476826897,17.306383573585276 L23.357523956061158,17.367609281612992 L23.432468658296763,17.425265833070682 L23.50979803518165,17.47921432827577 L23.589325793473648,17.529324800577978 L23.670860343837226,17.575476529460364 L23.75420526239897,17.617558331365643 L23.83915976394991,17.655468827547093 L23.925519185654686,17.689116688298842 L24.01307548010221,17.71842085297714 L24.10161771651013,17.743310725282534 L24.19093258887556,17.76372634333254 L24.280804929847918,17.779618524115083 L24.3710182290859,17.790948981974665 L24.461355154849905,17.797690420845875 L24.551598077573175,17.79982660001199 L24.64152959415053,17.79735237323029 L24.730933051681465,17.790273701129813 L24.81959306940597,17.77860763685166 L24.90729605757564,17.762382284966513 L24.993830732010107,17.741636733768228 L25.078988623099114,17.716420961106742 L25.162564578024078,17.686795713987035 L25.24435725498919,17.652832362224288 L25.324169608271454,17.61461272650773 L25.401809362921064,17.572228881287458 "/>
			<path d="M25.401809362921078,17.57222888128745 L25.498123775703853,17.51179237486641 L25.59015595895324,17.444884603846297 L25.677539574098503,17.371771897855954 L25.7599267864198,17.292745285568923 L25.83698964962114,17.20811933624971 L25.908421411236546,17.11823090759553 L25.973937733673107,17.02343780485795 L26.033277826030584,16.924117356581664 L26.08620548219223,16.820664912629972 L26.132510021054696,16.71349227047542 L26.172007125154394,16.603026036020015 L26.204539574352093,16.48970592546971 L26.229977871655326,16.373983015022727 L26.248220758687435,16.25631794533885 L26.259195618751463,16.137179087936943 L26.262858765884438,16.0170406808194 "/>
			<path d="M35.70144232954461,16.68868237328921 L35.700421227067245,16.62502004063664 L35.69735905262814,16.56128302472397 L35.69225920394908,16.497542046750265 L35.68512733971064,16.43386783231082 L35.67597137327343,16.370331032921563 L35.664801463897575,16.307002147625692 L35.65163000547026,16.243951444769465 L35.63647161275374,16.181248884033998 L35.61934310516907,16.118964038809523 L35.60026348813372,16.057166018998267 L35.579253931973525,15.99592339433163 L35.55633774843256,15.935304118286703 L35.53154036480697,15.875375452686582 L35.504889295731346,15.816203893068106 L35.446146411000825,15.700393800732407 L35.3803697412002,15.588387700082228 L35.307851142765294,15.480682571299573 L35.26916304334746,15.42859301805145 L35.228912386617885,15.377756310804319 L35.1871438338251,15.32822885685686 L35.143903730441885,15.280065610788919 L35.099240054741394,15.233320013485109 L35.05320236456149,15.18804393283798 L35.00584174231646,15.14428760619653 L34.95721073831707,15.102099584623948 L34.907363312461925,15.061526679026414 L34.856354774364675,15.022613908212744 L34.80424172198377,14.985404448942496 L34.75108197882254,14.949939588017987 L34.6969345297695,14.916258676473365 L34.641859455650035,14.884399085911554 L34.585917866562035,14.854396167037542 L34.52917183406942,14.826283210434019 L34.47168432232895,14.80009140962286 L34.41351911822652,14.775849826453493 L34.35474076060066,14.753585358856494 L34.29541446863165,14.733322710998234 L34.235606069475715,14.715084365869677 L34.17538192522469,14.698890560339748 L34.114808859272074,14.68475926270094 L34.05395408216724,14.672706152732092 L33.99288511704011,14.662744604300453 L33.931669724678954,14.654885670522326 L33.87037582834449,14.649138071498774 L33.809071438403734,14.645508184639985 L33.74782457686717,14.644000037589041 L33.686703201913026,14.64461530375293 L33.625775132482374,14.647353300445772 L33.56510797302869,14.65221098964631 L33.504769038505444,14.659182981368833 L33.444825279674916,14.668261539643787 L33.38534320882106,14.679436591101439 L33.32638882594897,14.692695736149064 L33.26802754555266,14.708024262729266 L33.210324124032645,14.725405162644151 L33.153342587843596,14.744819150427254 L33.09714616245201,14.766244684742272 L33.041797202182615,14.789657992284857 L32.98735712103136,14.815033094160956 L32.933886324521815,14.842341834712425 L32.88144414268051,14.871553912757921 "/>
			<path d="M32.8814441426805,14.871553912757925 L32.80616402763291,14.917999861086406 L32.733424908578264,14.968396020165379 L32.66340202042555,15.022620981233441 L32.59626405444562,15.080544111609834 L32.53217275187911,15.142025869400012 L32.47128251428763,15.206918139664296 L32.4137400315869,15.275064591239726 L32.35968392865786,15.346301053355532 L32.309244431387235,15.420455911134901 L32.26254305294193,15.497350519030245 L32.21969230103316,15.576799631195968 L32.180795406875575,15.658611847761946 L32.145946076494155,15.742590075932567 L32.115228264978235,15.828532004800543 L32.08871597422632,15.916230592731608 L32.06647307466902,16.005474566145946 L32.04855315139963,16.096048928494756 L32.03499937508291,16.18773547820576 L32.025844397953165,16.28031333434991 L32.021110275152196,16.373559468762892 L32.02080841159647,16.46724924333951 L32.024939534501755,16.561156951206556 L32.033493691631115,16.65505636047043 L32.04645027527077,16.7487212592296 L32.06377807187588,16.841926000538884 L32.085435337266674,16.934446046012688 L32.11136989719388,17.02605850675767 L32.14151927303104,17.116542680331598 L32.17581083229098,17.205680582434848 L32.21416196360385,17.293257472053696 L32.25648027573517,17.37906236879022 L32.30266382016437,17.46288856113256 L32.352601336687705,17.54453410444106 L32.406172521453875,17.623802307450582 L32.46324831678648,17.700502206117 L32.52369122209534,17.774449023666314 L32.587355625127365,17.84546461573807 L32.65408815275933,17.91337789955073 L32.72372804048707,17.978025266055095 L32.79610751972133,18.03925097408281 L32.87105222195694,18.0969075255405 L32.94838159884183,18.15085602074559 L33.02790935713382,18.200966493047797 L33.1094439074974,18.247118221930183 L33.19278882605914,18.289200023835463 L33.27774332761009,18.327110520016912 L33.36410274931486,18.36075838076866 L33.45165904376238,18.39006254544696 L33.54020128017031,18.414952417752353 L33.629516152535736,18.43536803580236 L33.71938849350809,18.451260216584902 L33.80960179274607,18.462590674444485 L33.89993871851008,18.469332113315694 L33.99018164123335,18.47146829248181 L34.08011315781071,18.46899406570011 L34.16951661534164,18.461915393599632 L34.25817663306614,18.45024932932148 L34.34587962123582,18.434023977436333 L34.43241429567028,18.413278426238048 L34.51757218675929,18.38806265357656 L34.60114814168425,18.358437406456854 L34.682940818649364,18.324474054694107 L34.76275317193163,18.28625441897755 L34.84039292658124,18.243870573757277 "/>
			<path d="M34.84039292658125,18.24387057375727 L34.93670733936403,18.18343406733623 L35.028739522613414,18.116526296316117 L35.11612313775868,18.043413590325773 L35.19851035007998,17.964386978038743 L35.27557321328132,17.87976102871953 L35.34700497489672,17.78987260006535 L35.412521297333285,17.695079497327768 L35.47186138969076,17.595759049051484 L35.5247890458524,17.49230660509979 L35.57109358471487,17.38513396294524 L35.61059068881457,17.274667728489835 L35.643123138012264,17.16134761793953 L35.668561435315496,17.045624707492546 L35.686804322347605,16.92795963780867 L35.69777918241164,16.808820780406762 L35.70144232954461,16.688682373289218 "/>
			<path d="M0.0,39.16456102843493 L37.7543342546407,41.85112779831421 "/>
			<path d="M37.754334254640696,41.85112779831421 L38.58021031646096,41.37138373226434 "/>
			<path d="M6.559815576743821,5.3623611048208915 L6.557839824545494,5.4506631763562785 L6.551916809782929,5.538494482411235 L6.542059248846397,5.62566645395286 L6.5282883053826195,5.711991937503558 L6.510633544857576,5.797285596949373 L6.4891328710810585,5.881364311446534 L6.463832444829249,5.964047568571937 L6.4347865847400545,6.0451578518734905 L6.402057650693941,6.124521021988279 L6.365715909930667,6.2019666905102895 L6.325839386189347,6.2773285858050505 L6.282513692195733,6.350444909985774 L6.235831845856342,6.421158686284617 L6.1858940705540855,6.48931809607325 L6.132807579974116,6.554776804809193 L6.0766863479218935,6.617394276208104 "/>
			<path d="M4.18777327755855,3.365643607320571 L4.291245692950644,3.344010997083437 L4.396169704016466,3.328778895299698 L4.502189491033581,3.3199989572785036 L4.608945518269365,3.3177009576641696 L4.716075753243421,3.3218926894640033 L4.823216894457026,3.3325599376205504 L4.930005603426067,3.3496665272178934 L5.036079736839415,3.3731544461585097 L5.141079574664211,3.4029440418946844 L5.244649040033295,3.4389342915473016 L5.346436906777882,3.4810031444959977 L5.44609799051049,3.529007936278871 L5.54329431921889,3.582785872398132 L5.637696279401358,3.6421545803909985 L5.728983733856428,3.706912728293658 L5.816847107336491,3.7768407074009334 L5.900988436383556,3.851701377006296 L5.981122379786946,3.931240868596623 L6.056977186236264,4.01518944677453 L6.128295615888105,4.103262423988688 L6.194835812721287,4.195161125970094 L6.256372124722249,4.2905739046002775 L6.312695869119211,4.389177194776613 L6.36361604007,4.490636611690654 L6.4089599564036455,4.594608084798416 L6.448573847219091,4.700739024637048 L6.482323373355157,4.808669518530974 L6.51009408296331,4.918033551132616 L6.531791799638319,5.028460245658589 L6.547342941790554,5.139575121612042 L6.556694772176863,5.25100136472598 L6.559815576743821,5.362361104820884 "/>
			<path d="M15.998399140403995,6.034002797290711 L15.996423388205669,6.122304868826098 L15.990500373443103,6.210136174881054 L15.98064281250657,6.297308146422678 L15.966871869042794,6.383633629973376 L15.94921710851775,6.4689272894191925 L15.927716434741232,6.553006003916353 L15.902416008489423,6.635689261041756 L15.873370148400229,6.716799544343309 L15.840641214354115,6.796162714458097 L15.804299473590842,6.873608382980108 L15.764422949849523,6.948970278274869 L15.721097255855907,7.022086602455593 L15.674415409516516,7.092800378754436 L15.62447763421426,7.160959788543069 L15.571391143634292,7.226418497279011 L15.515269911582068,7.289035968677922 "/>
			<path d="M13.626356841218726,4.0372852997903905 L13.72982925661082,4.0156526895532565 L13.834753267676641,4.000420587769517 L13.940773054693757,3.991640649748323 L14.04752908192954,3.989342650133989 L14.154659316903597,3.9935343819338227 L14.261800458117202,4.00420163009037 L14.368589167086242,4.021308219687713 L14.474663300499591,4.04479613862833 L14.579663138324387,4.074585734364504 L14.683232603693469,4.110575984017121 L14.785020470438056,4.152644836965818 L14.884681554170664,4.200649628748691 L14.981877882879065,4.254427564867951 L15.076279843061533,4.313796272860818 L15.167567297516602,4.378554420763478 L15.255430670996665,4.448482399870754 L15.33957200004373,4.523343069476116 L15.41970594344712,4.602882561066442 L15.495560749896438,4.686831139244349 L15.566879179548279,4.774904116458508 L15.633419376381461,4.866802818439914 L15.694955688382423,4.962215597070098 L15.751279432779386,5.060818887246432 L15.802199603730175,5.162278304160473 L15.84754352006382,5.266249777268236 L15.887157410879265,5.372380717106868 L15.920906937015332,5.480311211000793 L15.948677646623484,5.589675243602437 L15.970375363298494,5.700101938128409 L15.985926505450728,5.811216814081861 L15.995278335837037,5.922643057195799 L15.998399140403995,6.034002797290704 "/>
			<path d="M25.43698270406417,6.705644489760531 L25.43500695186584,6.793946561295918 L25.42908393710328,6.881777867350874 L25.419226376166744,6.968949838892498 L25.40545543270297,7.0552753224431966 L25.387800672177924,7.140568981889013 L25.366299998401406,7.224647696386174 L25.3409995721496,7.307330953511577 L25.311953712060404,7.388441236813129 L25.27922477801429,7.467804406927917 L25.242883037251016,7.545250075449928 L25.203006513509695,7.620611970744689 L25.159680819516083,7.693728294925414 L25.11299897317669,7.764442071224256 L25.063061197874433,7.8326014810128886 L25.009974707294464,7.898060189748831 L24.95385347524224,7.960677661147742 "/>
			<path d="M23.064940404878904,4.70892699226021 L23.168412820270998,4.687294382023076 L23.273336831336817,4.672062280239337 L23.379356618353935,4.663282342218143 L23.486112645589717,4.660984342603809 L23.593242880563775,4.665176074403643 L23.700384021777378,4.6758433225601905 L23.80717273074642,4.692949912157534 L23.913246864159767,4.71643783109815 L24.018246701984562,4.746227426834325 L24.121816167353646,4.782217676486942 L24.223604034098233,4.824286529435639 L24.32326511783084,4.872291321218512 L24.42046144653924,4.9260692573377725 L24.51486340672171,4.9854379653306395 L24.60615086117678,5.050196113233299 L24.69401423465684,5.120124092340575 L24.778155563703905,5.194984761945937 L24.858289507107294,5.2745242535362635 L24.93414431355661,5.35847283171417 L25.005462743208454,5.446545808928329 L25.072002940041635,5.538444510909734 L25.1335392520426,5.633857289539919 L25.189862996439558,5.732460579716253 L25.240783167390347,5.833919996630295 L25.286127083723994,5.937891469738057 L25.32574097453944,6.044022409576689 L25.359490500675506,6.151952903470614 L25.387261210283658,6.261316936072257 L25.408958926958668,6.371743630598229 L25.4245100691109,6.482858506551682 L25.43386189949721,6.594284749665619 L25.43698270406417,6.705644489760524 "/>
			<path d="M34.875566267724345,7.377286182230351 L34.87359051552602,7.465588253765738 L34.86766750076345,7.553419559820694 L34.85780993982692,7.640591531362317 L34.84403899636314,7.726917014913016 L34.8263842358381,7.812210674358832 L34.80488356206158,7.896289388855992 L34.77958313580977,7.978972645981394 L34.750537275720575,8.060082929282949 L34.71780834167446,8.139446099397736 L34.68146660091119,8.216891767919748 L34.64159007716987,8.292253663214506 L34.59826438317626,8.365369987395232 L34.55158253683687,8.436083763694073 L34.50164476153461,8.504243173482706 L34.44855827095464,8.569701882218649 L34.392437038902415,8.63231935361756 "/>
			<path d="M32.50352396853908,5.380568684730029 L32.606996383931175,5.358936074492895 L32.711920394996994,5.343703972709156 L32.81794018201411,5.334924034687963 L32.924696209249895,5.332626035073629 L33.031826444223945,5.336817766873462 L33.138967585437555,5.34748501503001 L33.2457562944066,5.364591604627353 L33.35183042781994,5.38807952356797 L33.45683026564474,5.417869119304145 L33.560399731013824,5.4538593689567625 L33.66218759775841,5.495928221905459 L33.76184868149102,5.543933013688331 L33.85904501019942,5.597710949807593 L33.95344697038188,5.65707965780046 L34.04473442483695,5.721837805703119 L34.132597798317015,5.791765784810395 L34.21673912736408,5.866626454415757 L34.29687307076747,5.946165946006085 L34.37272787721679,6.030114524183991 L34.44404630686863,6.118187501398149 L34.51058650370181,6.210086203379555 L34.57212281570277,6.305498982009739 L34.62844656009973,6.404102272186074 L34.67936673105052,6.505561689100114 L34.72471064738417,6.609533162207876 L34.76432453819962,6.715664102046508 L34.79807406433568,6.823594595940434 L34.825844773943835,6.932958628542076 L34.84754249061884,7.0433853230680485 L34.863093632771076,7.154500199021501 L34.87244546315738,7.265926442135439 L34.875566267724345,7.3772861822303435 "/>
			<path d="M6.559815576743821,15.153501361929626 L6.557839824545494,15.241803433465014 L6.551916809782929,15.329634739519971 L6.542059248846397,15.416806711061595 L6.528288305382619,15.503132194612293 L6.510633544857576,15.588425854058109 L6.489132871081058,15.67250456855527 L6.463832444829249,15.755187825680673 L6.434786584740054,15.836298108982227 L6.40205765069394,15.915661279097016 L6.365715909930666,15.993106947619026 L6.325839386189347,16.068468842913788 L6.282513692195732,16.14158516709451 L6.235831845856341,16.212298943393353 L6.185894070554084,16.280458353181988 L6.132807579974115,16.34591706191793 L6.076686347921891,16.408534533316843 "/>
			<path d="M4.187773277558552,13.156783864429306 L4.291245692950646,13.135151254192172 L4.396169704016467,13.119919152408432 L4.502189491033583,13.111139214387238 L4.6089455182693655,13.108841214772905 L4.716075753243422,13.113032946572737 L4.823216894457028,13.123700194729285 L4.930005603426069,13.140806784326628 L5.036079736839416,13.164294703267245 L5.141079574664213,13.19408429900342 L5.244649040033296,13.230074548656036 L5.346436906777883,13.272143401604733 L5.4460979905104905,13.320148193387606 L5.543294319218891,13.373926129506867 L5.637696279401359,13.433294837499734 L5.7289837338564285,13.498052985402392 L5.816847107336492,13.567980964509669 L5.900988436383557,13.642841634115031 L5.981122379786946,13.722381125705358 L6.056977186236264,13.806329703883264 L6.1282956158881055,13.894402681097423 L6.194835812721287,13.986301383078828 L6.256372124722249,14.081714161709014 L6.312695869119212,14.180317451885347 L6.36361604007,14.281776868799389 L6.4089599564036455,14.385748341907151 L6.448573847219091,14.491879281745783 L6.482323373355157,14.599809775639708 L6.51009408296331,14.709173808241353 L6.53179179963832,14.819600502767324 L6.547342941790554,14.930715378720777 L6.556694772176863,15.042141621834714 L6.559815576743821,15.153501361929619 "/>
			<path d="M15.998399140403995,15.825143054399446 L15.996423388205669,15.913445125934834 L15.990500373443103,16.00127643198979 L15.98064281250657,16.088448403531416 L15.966871869042793,16.17477388708211 L15.94921710851775,16.260067546527928 L15.927716434741232,16.34414626102509 L15.902416008489423,16.42682951815049 L15.873370148400229,16.507939801452046 L15.840641214354113,16.587302971566835 L15.80429947359084,16.664748640088845 L15.764422949849521,16.740110535383607 L15.721097255855906,16.81322685956433 L15.674415409516515,16.883940635863173 L15.624477634214257,16.952100045651807 L15.571391143634289,17.01755875438775 L15.515269911582065,17.080176225786662 "/>
			<path d="M13.626356841218726,13.828425556899125 L13.72982925661082,13.806792946661991 L13.834753267676641,13.791560844878251 L13.940773054693757,13.782780906857058 L14.04752908192954,13.780482907242725 L14.154659316903597,13.784674639042557 L14.261800458117202,13.795341887199104 L14.368589167086242,13.812448476796447 L14.474663300499591,13.835936395737065 L14.579663138324387,13.865725991473239 L14.683232603693469,13.901716241125856 L14.785020470438056,13.943785094074553 L14.884681554170664,13.991789885857425 L14.981877882879065,14.045567821976686 L15.076279843061533,14.104936529969553 L15.167567297516602,14.169694677872211 L15.255430670996665,14.239622656979488 L15.33957200004373,14.31448332658485 L15.41970594344712,14.394022818175177 L15.495560749896438,14.477971396353084 L15.566879179548279,14.566044373567243 L15.633419376381461,14.657943075548648 L15.694955688382423,14.753355854178833 L15.751279432779386,14.851959144355167 L15.802199603730175,14.953418561269208 L15.84754352006382,15.05739003437697 L15.887157410879265,15.163520974215603 L15.920906937015332,15.271451468109527 L15.948677646623484,15.380815500711172 L15.970375363298494,15.491242195237144 L15.985926505450728,15.602357071190596 L15.995278335837037,15.713783314304534 L15.998399140403995,15.825143054399438 "/>
			<path d="M25.43698270406417,16.496784746869263 L25.43500695186584,16.58508681840465 L25.42908393710328,16.67291812445961 L25.419226376166744,16.760090096001235 L25.40545543270297,16.84641557955193 L25.387800672177924,16.931709238997747 L25.366299998401406,17.015787953494907 L25.3409995721496,17.09847121062031 L25.3119537120604,17.179581493921866 L25.27922477801429,17.25894466403665 L25.242883037251016,17.336390332558665 L25.203006513509695,17.411752227853423 L25.15968081951608,17.484868552034147 L25.11299897317669,17.55558232833299 L25.063061197874433,17.623741738121623 L25.009974707294464,17.689200446857566 L24.95385347524224,17.751817918256478 "/>
			<path d="M23.0649404048789,14.500067249368945 L23.168412820270994,14.47843463913181 L23.273336831336817,14.46320253734807 L23.37935661835393,14.454422599326877 L23.486112645589714,14.452124599712544 L23.59324288056377,14.456316331512376 L23.700384021777374,14.466983579668923 L23.807172730746416,14.484090169266267 L23.913246864159763,14.507578088206884 L24.01824670198456,14.537367683943058 L24.121816167353643,14.573357933595675 L24.22360403409823,14.615426786544372 L24.32326511783084,14.663431578327245 L24.42046144653924,14.717209514446505 L24.514863406721705,14.776578222439372 L24.606150861176776,14.841336370342031 L24.69401423465684,14.911264349449308 L24.778155563703905,14.98612501905467 L24.858289507107294,15.065664510644996 L24.93414431355661,15.149613088822903 L25.005462743208454,15.237686066037062 L25.072002940041635,15.329584768018467 L25.1335392520426,15.424997546648653 L25.189862996439558,15.523600836824986 L25.240783167390347,15.625060253739028 L25.286127083723994,15.72903172684679 L25.32574097453944,15.835162666685422 L25.359490500675506,15.943093160579346 L25.387261210283658,16.05245719318099 L25.408958926958668,16.162883887706965 L25.4245100691109,16.273998763660416 L25.43386189949721,16.385425006774355 L25.43698270406417,16.49678474686926 "/>
			<path d="M34.875566267724345,17.168426439339083 L34.87359051552602,17.25672851087447 L34.86766750076345,17.34455981692943 L34.85780993982692,17.431731788471055 L34.84403899636314,17.518057272021753 L34.8263842358381,17.60335093146757 L34.804883562061576,17.68742964596473 L34.77958313580977,17.770112903090133 L34.750537275720575,17.85122318639169 L34.71780834167446,17.930586356506478 L34.681466600911186,18.008032025028488 L34.641590077169866,18.08339392032325 L34.59826438317625,18.156510244503973 L34.55158253683686,18.227224020802815 L34.5016447615346,18.29538343059145 L34.448558270954635,18.360842139327392 L34.39243703890241,18.4234596107263 "/>
			<path d="M32.50352396853908,15.171708941838762 L32.606996383931175,15.150076331601628 L32.711920394996994,15.13484422981789 L32.81794018201411,15.126064291796697 L32.924696209249895,15.123766292182363 L33.031826444223945,15.127958023982195 L33.138967585437555,15.138625272138745 L33.2457562944066,15.155731861736086 L33.35183042781994,15.179219780676704 L33.45683026564474,15.20900937641288 L33.560399731013824,15.244999626065496 L33.66218759775841,15.287068479014192 L33.76184868149102,15.335073270797066 L33.85904501019942,15.388851206916327 L33.95344697038188,15.448219914909194 L34.04473442483695,15.512978062811852 L34.132597798317015,15.582906041919129 L34.21673912736408,15.657766711524491 L34.29687307076747,15.737306203114818 L34.37272787721679,15.821254781292724 L34.44404630686863,15.909327758506883 L34.51058650370181,16.00122646048829 L34.57212281570277,16.096639239118474 L34.62844656009973,16.19524252929481 L34.67936673105052,16.29670194620885 L34.72471064738417,16.40067341931661 L34.76432453819962,16.506804359155243 L34.79807406433568,16.614734853049168 L34.825844773943835,16.72409888565081 L34.84754249061884,16.834525580176784 L34.863093632771076,16.945640456130235 L34.87244546315738,17.057066699244174 L34.875566267724345,17.16842643933908 "/>

       </g>
    </g>
    <g transform="translate(20,210.0)" stroke="rgb(0,0,255)">
        <line x1="30" y1="-30" x2="75" y2="-33" stroke-width="3" stroke="#000000"/>
         <text x="80" y="-30" style="stroke:#000000">X </text>

        <line x1="30" y1="-30" x2="30" y2="-75" stroke-width="3" stroke="#000000"/>
         <text x="25" y="-85" style="stroke:#000000">Y </text>

        <line x1="30" y1="-30" x2="58" y2="-15" stroke-width="3" stroke="#000000"/>
         <text x="65" y="-5" style="stroke:#000000">Z </text>
        <!--
            <line x1="0" y1="0" x2="4.252215748750775" y2="0" stroke-width="3" />
            <text x="0" y="20" style="stroke:#000000">1  mm </text>
        -->
    </g>
</svg>