<?xml version="1.0" encoding="UTF-8" standalone="no"?>
<svg
   xmlns:svg="http://www.w3.org/2000/svg"
   xmlns="http://www.w3.org/2000/svg"
   width="800.0"
   height="240.0"

>
    <g transform="scale(12.343219517923803, -12.343219517923803)   translate(5.912581839813066,-5.226974607941265)" stroke-width="0.08101613995828906"  fill="none">
       <!-- hidden lines -->
       <g  stroke="rgb(160,160,160)" fill="none" stroke-dasharray="0.08101613995828906,0.08101613995828906" >
			<path d="M6.938893903907227e-17,-4.805540587590854 L38.313051408846064,-7.979842627100408 " />
			<path d="M-3.3864273073929816,3.6786016489616156 L-3.5087775969369774,3.561363962464024 L-3.6263726829294956,3.439299805751507 L-3.7390531968853313,3.3125746039316635 L-3.846666430698786,3.181360098904087 L-3.9490665435983994,3.0458341166104552 L-4.046114759794863,2.9061803260393324 L-4.137679556554239,2.7625879903122894 L-4.22363684244163,2.6152517101886943 L-4.303870125493715,2.4643711603367606 L-4.378270671092245,2.3101508187282853 L-4.446737649324557,2.1527996895237944 L-4.509178271631372,1.9925310198236683 L-4.565507916556713,1.8295620106690935 L-4.615650244429511,1.6641135226845198 L-4.659537300821482,1.496409776760532 L-4.697109608641058,1.3266780501827897 L-4.72831624873858,1.1551483686188417 L-4.753114928913498,0.9820531943802571 L-4.77147204123006,0.8076271113825264 L-4.783362707563827,0.6321065072297167 L-4.788770813317276,0.4557292528546997 L-4.787689029258793,0.27873438014913443 L-4.7801188214554795,0.10136175802007719 L-4.766070449286287,-0.07614823268775295 L-4.745562951538197,-0.25355502496350457 L-4.718624120604268,-0.4306181916540228 L-4.685290464818525,-0.6070977712981378 L-4.645607158978741,-0.7827545933298319 L-4.599627983124162,-0.9573506022095641 L-4.547415249651134,-1.1306491800444773 L-4.489039718865431,-1.3024154672602533 L-4.4245805030857,-1.4724166808900547 L-4.354124959428009,-1.640422430049171 L-4.2777685714167974,-1.8062050281678503 L-4.195614819582653,-1.969539801559157 L-4.107775041222312,-2.1302053939036703 L-4.014368279510921,-2.2879840662384034 L-3.9155211221710537,-2.4426619920433508 L-3.811367529917134,-2.5940295470257735 L-3.702048654907743,-2.7418815932095137 L-3.587712649451861,-2.8860177569442946 L-3.468514465228295,-3.0262427004582713 L-3.344615643290385,-3.162366386585797 L-3.2161840951405942,-3.2942043363116498 L-3.0833938751716574,-3.421577878782682 L-2.946424944782711,-3.5443143934480634 L-2.805462928490053,-3.662247543999974 L-2.6606988623630756,-3.7752175037976974 L-2.512328935126303,-3.8830711724696103 L-2.3605542222783757,-3.9856623833995184 L-2.2055804135883434,-4.082852101816174 L-2.0476175343385474,-4.174508613217468 L-1.8868796606918845,-4.260507701873994 L-1.7235846295691908,-4.340732819170029 L-1.5579537434299386,-4.415075241553812 L-1.3902114703563129,-4.4834342178830475 L-1.220585139847154,-4.545717105965965 L-1.0493046347340111,-4.601839498112871 L-0.8766020796368421,-4.651725335528051 L-0.7027115263815813,-4.695307011386992 L-0.5278686368058794,-4.73252546245924 L-0.35231036338292254,-4.763330249152707 L-0.17627462809614247,-4.787679623870961 L-2.1760371282653068e-14,-4.805540587590853 " />
			<path d="M38.313051408846064,-7.979842627100409 L38.43058257760038,-7.988132947089838 L38.54804294997342,-7.993523595341272 L38.665361772228984,-7.996011324729775 L38.782468375895384,-7.995594636740184 L38.89929222033346,-7.992273782369763 L39.01576293522765,-7.98605076197701 L39.13181036297442,-7.976929324076717 L39.247364600942596,-7.964914963082001 L39.36235604358007,-7.9500149159946805 L39.47671542434161,-7.932238158045971 L39.59037385741242,-7.911595397290148 L39.70326287920238,-7.888099068154404 L39.815314489585944,-7.8617633239488285 L39.9264611928629,-7.832604028340974 L40.03663603841525,-7.800638745800178 L40.145772661035735,-7.7658867310173845 L40.25380532090375,-7.7283689173068355 L40.36066894318461,-7.688107903996631 L40.466299157228136,-7.645127942815733 L40.570632335343156,-7.599454923285631 L40.67360563112444,-7.5511163571254665 L40.77515701730903,-7.500141361679998 L40.87522532313914,-7.446560642380406 L40.97375027120914,-7.390406474248483 L41.07067251377438,-7.331712682455372 L41.16593366850012,-7.270514621946547 L41.25947635362877,-7.206849156145317 L41.351244222544615,-7.140754634747672 L41.441181997714835,-7.072270870621871 L41.529235503986655,-7.001439115826653 L41.61535170122043,-6.928302036762533 L41.69947871623903,-6.852903688471184 " />
			<path d="M4.440892098500626e-16,1.8741608291604333 L-0.09164670103967143,1.8794964067743702 L-0.18307261714923406,1.8803041129199456 L-0.27405749528881673,1.876582001762308 L-0.3643821449176474,1.8683390401932543 L-0.4538289660432647,1.855595086229203 L-0.5421824734389613,1.8383808411714915 L-0.6292298157665674,1.816737775644254 L-0.7147612883539695,1.7907180296880543 L-0.7985708383920318,1.7603842871499609 L-0.8804565613338635,1.7258096246726706 L-0.9602211873005553,1.6870773356464743 L-1.0376725563215985,1.6442807295481823 L-1.1126240812650818,1.5975229071504267 L-1.1848951973424362,1.5469165121428656 L-1.2543117971048312,1.4925834597636687 L-1.320706649883251,1.4346546430950413 " />
			<path d="M-1.320706649883263,1.4346546430950302 L-1.3653858429465662,1.3919533782304978 L-1.408446709601878,1.347602297731564 L-1.449838211867503,1.301653968808564 L-1.4895112903793581,1.2541628518138461 L-1.5274189225386858,1.2051852356925283 L-1.563516178245687,1.1547791712659066 L-1.5977602731530154,1.1030044024266001 L-1.6301106193760129,1.0499222953269782 " />
			<path d="M20.068266609883185,-3.2983862399795774 L20.123838590528532,-3.270529284617642 L20.178264061565283,-3.2406771016687648 L20.231478515090785,-3.2088650734948283 L20.283418878563406,-3.175130905368337 L20.334023589559386,-3.1395145807821727 L20.38323266873985,-3.1020583140590725 L20.430987790941433,-3.062806500317013 L20.477232354306288,-3.021805662849813 " />
			<path d="M20.477232354306295,-3.0218056628498076 L20.524948967228454,-2.9760829651157463 L20.570811050765535,-2.928477943997865 L20.61475645120831,-2.8790551152881254 L20.656725612395558,-2.8278814583273713 L20.696661656426407,-2.7750263252328553 L20.734510460743028,-2.7205613469101166 L20.770220731479185,-2.66456033597657 L20.803744072975267,-2.6070991867283677 L20.83503505336558,-2.5482557722861143 L20.86405126614901,-2.488109839058809 L20.890753387659608,-2.426742898669057 L20.915105230359266,-2.364238117486008 L20.93707379188015,-2.300680203915724 L20.956629299750542,-2.2361552936017395 L20.97374525174341,-2.1707508326913847 L20.988398451793046,-2.1045554593260656 L21.000569041431078,-2.0376588835161265 L21.010240526699295,-1.9701517655630782 L21.017399800502755,-1.9021255931939622 L21.022037160372925,-1.833672557574367 L21.02414632161677,-1.7648854283681108 L21.02372442583396,-1.6958574280129395 L21.020772044790668,-1.6266821053826075 L21.015293179644683,-1.5574532090065543 L21.00729525552293,-1.488264560019012 L20.996789111458696,-1.4192099250097092 L20.983788985702258,-1.350382888948504 L20.96831249642474,-1.281876728356143 L20.950380617841454,-1.2137842848930465 L20.930017651786976,-1.1461978395374315 L20.90725119478055,-1.07920898752328 L20.882112100626454,-1.0129085142076568 L20.854634438599955,-0.9473862720356006 L20.824855447275585,-0.8827310587693167 L20.792815484060267,-0.8190304971467083 L20.758557970499734,-0.7563709161323473 L20.722129333432292,-0.6948372339218005 L20.683578942069744,-0.6345128428578711 L20.642959041090716,-0.5754794964147254 L20.60032467983705,-0.5178171984030675 L20.55573363770926,-0.46160409454650364 L20.509246345862067,-0.40691636657605246 L20.46092580530628,-0.353828128986317 L20.410837501527865,-0.3024113285932337 L20.359049315739977,-0.2527356470295308 L20.30563143288829,-0.204868406310033 L20.250656246534156,-0.15887447759478857 L20.194198260744635,-0.11481619327367576 L20.136333989122292,-0.07275326249162983 L20.077141851111598,-0.03274269022896492 L20.016702065722487,0.0051612999535308735 L19.955096542815067,0.04090733940003499 L19.892408772092868,0.07444698397607996 L19.828723709955018,0.105734779721534 L19.76412766436071,0.1347283244512094 L19.698708177861995,0.16138832521961133 L19.63255390896342,0.1856786515719493 L19.565754511969295,0.20756638450924236 L19.498400515481404,0.22702186110116207 L19.43058319971185,0.24401871468614988 L19.362394472777325,0.2585339106043265 L19.293926746142372,0.27054777741477887 L19.225272809380527,0.28004403355489793 L19.15652570442305,0.2870098094056548 " />
			<path d="M19.156525704423032,0.2870098094056561 L0.0,1.874160829160433 " />
			<path d="M30.60254981281579,-2.5354737540582564 L30.601284189003316,-2.466386239487205 L30.597489032778302,-2.397182636237044 L30.591169487453442,-2.3279567311639786 L30.582334117471344,-2.2588023413483374 L30.57099489679775,-2.189813186950764 L30.557167192694024,-2.121082764199774 L30.540869744890983,-2.0527042186827757 L30.52212464019224,-1.9847702191123047 L30.500957282541457,-1.9173728317385308 L30.477396358594174,-1.8506033955782328 L30.45147379884075,-1.7845523986293497 L30.423224734333182,-1.7193093552388579 L30.392687449074423,-1.6549626847901644 L30.359903328134713,-1.5915995918744368 L30.324916801565262,-1.5293059481082556 L30.28777528418528,-1.4681661757577482 L30.248529111323943,-1.4082631333269344 L30.207231470604412,-1.3496780032653266 L30.16393832986232,-1.29249018194697 L30.11870836129643,-1.2367771720700318 L30.07160286195429,-1.1826144776227572 L30.022685670660547,-1.1300755015581339 L29.972023081500637,-1.0792314463159498 L29.91968375397698,-1.030151217327052 L29.8657386199595,-0.9829013296305791 L29.81026078755659,-0.9375458177307341 L29.75332544203673,-0.8941461488152513 L29.695009743935103,-0.8527611394531665 L29.635392724483257,-0.8134468758847893 L29.57455517850355,-0.7762566380119038 L29.51257955491351,-0.7412408271912005 L29.449549844988514,-0.7084468979288059 L29.38555146853424,-0.6779192935684737 L29.320671158123098,-0.6496993860605962 L29.254996841551584,-0.6238254198936575 L29.18861752267781,-0.6003324602641271 L29.12162316080075,-0.5792523455550271 L29.054104548744604,-0.5606136441875691 L28.986153189813574,-0.544441615904353 L28.917861173783777,-0.5307581775365837 L28.84932105210032,-0.5195818733017061 L28.78062571244873,-0.5109278496717087 L28.711868252870733,-0.5048078348461618 L28.643141855594873,-0.5012301228577951 L28.574539660753118,-0.5001995623321729 L28.506154640154463,-0.5017175499166839 L28.43807947128667,-0.5057820283877648 L28.370406411716896,-0.5123874894389111 L28.303227174061377,-0.5215249811457039 L28.236632801693666,-0.5331821200977338 L28.170713545359856,-0.5473431081809825 L28.105558740867977,-0.5639887539879114 L28.041256688017366,-0.5830964988262486 L27.977894530932048,-0.6046404472912255 L27.915558139960332,-0.6285914023598267 L27.85433199530068,-0.6549169049594952 L27.794299072511524,-0.6835812779576695 L27.735540730060244,-0.7145456745125329 L27.678136599063652,-0.7477681307194484 L27.622164475369463,-0.7832036224817387 L27.56770021412495,-0.8208041265287289 L27.514817626975724,-0.8605186854983615 L27.4635883820339,-0.9022934769961881 L27.414081906751292,-0.946071886537124 " />
			<path d="M27.41408190675128,-0.9460718865371351 L27.36940271368798,-0.9887731514016678 L27.326341847032666,-1.0331242319006018 L27.28495034476704,-1.0790725608236018 L27.245277266255187,-1.12656367781832 L27.20736963409586,-1.175541293939638 L27.171272378388856,-1.2259473583662601 L27.137028283481527,-1.2777221272055665 L27.104677937258533,-1.3308042343051882 " />
			<path d="M29.646529462094698,-4.091961749856965 L29.702101442740044,-4.06410479449503 L29.756526913776796,-4.034252611546153 L29.8097413673023,-4.002440583372216 L29.86168173077492,-3.968706415245725 L29.9122864417709,-3.9330900906595616 L29.961495520951363,-3.8956338239364614 L30.009250643152946,-3.856382010194401 L30.0554952065178,-3.815381172727201 " />
			<path d="M30.055495206517808,-3.8153811727271956 L30.11870836129643,-3.753996147362436 L30.178587532048564,-3.689302795204351 L30.23498846460707,-3.621456968204759 L30.28777528418528,-3.5506221129034943 L30.336820822711246,-3.476968876671379 L30.38200692518678,-3.4006746966057566 L30.423224734333182,-3.3219233720689862 L30.460374952837967,-3.240904621899679 L30.49336808257078,-3.157813627363396 L30.52212464019224,-3.0728505619438877 L30.546575348636253,-2.986220109107636 L30.56666130400456,-2.898130969203454 L30.582334117471344,-2.808795356685068 L30.593556031856195,-2.71842848886791 L30.600300012584437,-2.6272480674517547 L30.60254981281579,-2.535473754058265 " />
			<path d="M40.18081266502731,-3.329049263935645 L40.17954704121484,-3.2599617493645936 L40.17575188498982,-3.1907581461144323 L40.16943233966496,-3.1215322410413675 L40.160596969682864,-3.052377851225726 L40.149257749009266,-2.983388696828153 L40.13543004490554,-2.914658274077163 L40.11913259710251,-2.846279728560164 L40.100387492403755,-2.7783457289896933 L40.07922013475297,-2.7109483416159192 L40.05565921080569,-2.6441789054556213 L40.02973665105227,-2.578127908506738 L40.001487586544705,-2.5128848651162463 L39.970950301285946,-2.448538194667553 L39.93816618034623,-2.385175101751825 L39.90317965377678,-2.322881457985644 L39.866038136396796,-2.261741685635137 L39.82679196353546,-2.201838643204323 L39.78549432281593,-2.143253513142715 L39.742201182073835,-2.0860656918243583 L39.69697121350795,-2.03035268194742 L39.649865714165806,-1.9761899875001456 L39.600948522872066,-1.9236510114355223 L39.55028593371216,-1.8728069561933383 L39.4979466061885,-1.8237267272044404 L39.444001472171024,-1.7764768395079675 L39.38852363976811,-1.7311213276081225 L39.33158829424825,-1.6877216586926398 L39.27327259614662,-1.646336649330555 L39.21365557669478,-1.6070223857621777 L39.152818030715075,-1.5698321478892923 L39.09084240712503,-1.534816337068589 L39.027812697200034,-1.5020224078061943 L38.96381432074576,-1.4714948034458621 L38.898934010334614,-1.4432748959379846 L38.833259693763104,-1.417400929771046 L38.76688037488933,-1.3939079701415156 L38.69988601301227,-1.3728278554324156 L38.63236740095612,-1.3541891540649575 L38.564416042025094,-1.3380171257817415 L38.4961240259953,-1.3243336874139722 L38.42758390431184,-1.3131573831790946 L38.35888856466025,-1.3045033595490971 L38.29013110508225,-1.2983833447235502 L38.22140470780639,-1.2948056327351836 L38.152802512964634,-1.2937750722095613 L38.08441749236598,-1.2952930597940724 L38.01634232349819,-1.2993575382651532 L37.948669263928416,-1.3059629993162996 L37.88149002627289,-1.3151004910230923 L37.81489565390518,-1.3267576299751223 L37.748976397571376,-1.340918618058371 L37.6838215930795,-1.3575642638652998 L37.619519540228886,-1.376672008703637 L37.556157383143564,-1.398215957168614 L37.49382099217185,-1.4221669122372151 L37.4325948475122,-1.4484924148368836 L37.372561924723044,-1.477156787835058 L37.31380358227177,-1.5081211843899214 L37.25639945127517,-1.5413436405968368 L37.20042732758098,-1.5767791323591271 L37.14596306633647,-1.6143796364061174 L37.09308047918724,-1.65409419537575 L37.04185123424542,-1.6958689868735766 L36.992344758962815,-1.7396473964145125 " />
			<path d="M36.9923447589628,-1.7396473964145236 L36.9476655658995,-1.782348661279056 L36.90460469924419,-1.82669974177799 L36.86321319697856,-1.87264807070099 L36.82354011846671,-1.9201391876957081 L36.78563248630738,-1.9691168038170261 L36.74953523060038,-2.019522868243648 L36.71529113569305,-2.0712976370829543 L36.68294078947005,-2.1243797441825762 " />
			<path d="M39.224792314306214,-4.885537259734355 L39.28036429495156,-4.85768030437242 L39.33478976598831,-4.8278281214235435 L39.38800421951382,-4.796016093249605 L39.439944582986435,-4.762281925123115 L39.49054929398242,-4.7266656005369505 L39.53975837316288,-4.689209333813849 L39.58751349536447,-4.64995752007179 L39.63375805872932,-4.60895668260459 " />
			<path d="M39.63375805872933,-4.6089566826045845 L39.69697121350795,-4.547571657239825 L39.75685038426008,-4.482878305081739 L39.813251316818594,-4.415032478082147 L39.866038136396796,-4.344197622780883 L39.91508367492277,-4.270544386548767 L39.9602697773983,-4.194250206483145 L40.001487586544705,-4.115498881946375 L40.03863780504949,-4.034480131777067 L40.0716309347823,-3.951389137240784 L40.100387492403755,-3.866426071821276 L40.124838200847776,-3.779795618985024 L40.14492415621608,-3.6917064790808425 L40.160596969682864,-3.6023708665624565 L40.17181888406772,-3.5120039987452984 L40.17856286479596,-3.420823577329143 L40.18081266502731,-3.3290492639356533 " />
			<path d="M-2.039076363799127,0.773341718197206 L-1.3207066498832631,1.43465464309503 " />
			<path d="M19.75886264039043,-3.6831185877476305 L20.47723235430629,-3.0218056628498067 " />
			<path d="M29.337125492601945,-4.476694097625019 L30.055495206517808,-3.8153811727271956 " />
			<path d="M26.695712192835423,-1.6073848114349596 L27.414081906751285,-0.9460718865371356 " />
			<path d="M38.915388344813465,-5.270269607502407 L39.63375805872933,-4.608956682604584 " />
			<path d="M36.27397504504693,-2.400960321312348 L36.992344758962794,-1.7396473964145236 " />

       </g>

       <!-- solid lines -->
       <g  stroke="rgb(0,0,0)" fill="none">
			<path d="M-0.7183697139158635,-5.466853512488678 L37.5946816949302,-8.641155551998231 " />
			<path d="M1.3322676295501878e-15,4.805540587590855 L-0.11753116875432035,4.813830907580284 L-0.23499154112736242,4.819221555831719 L-0.35231036338292476,4.821709285220221 L-0.46941696704931823,4.821292597230631 L-0.586240811487392,4.817971742860209 L-0.7027115263815817,4.811748722467456 L-0.8187589541283549,4.802627284567163 L-0.9343131920965317,4.790612923572447 L-1.049304634734009,4.775712876485127 L-1.1636640154955502,4.757936118536418 L-1.277322448566358,4.737293357780594 L-1.3902114703563107,4.71379702864485 L-1.5022630807398771,4.687461284439275 L-1.6134097840168402,4.658301988831421 L-1.7235846295691886,4.626336706290625 L-1.832721252189665,4.5915846915078316 L-1.9407539120576847,4.5540668777972835 L-2.047617534338543,4.513805864487079 L-2.153247748382067,4.470825903306181 L-2.257580926497086,4.425152883776079 L-2.360554222278371,4.376814317615915 L-2.462105608462962,4.325839322170447 L-2.562173914293078,4.272258602870853 L-2.660698862363073,4.216104434738929 L-2.7576211049283197,4.157410642945818 L-2.8528822596540557,4.0962125824369915 L-2.946424944782711,4.032547116635761 L-3.0381928136985548,3.9664525952381173 L-3.1281305888687725,3.8979688311123177 L-3.216184095140593,3.8271370763170993 L-3.3023002923743694,3.75399999725298 L-3.3864273073929505,3.678601648961644 " />
			<path d="M-0.7183697139158622,4.144227662693031 L-0.8359008826701839,4.15251798268246 L-0.953361255043226,4.157908630933895 L-1.0706800772987883,4.160396360322397 L-1.1877866809651818,4.159979672332807 L-1.3046105254032556,4.156658817962385 L-1.4210812402974453,4.150435797569632 L-1.5371286680442184,4.141314359669339 L-1.6526829060123953,4.1292999986746235 L-1.7676743486498725,4.114399951587303 L-1.8820337294114138,4.096623193638594 L-1.9956921624822215,4.07598043288277 L-2.1085811842721744,4.052484103747026 L-2.2206327946557405,4.026148359541451 L-2.331779497932704,3.996989063933597 L-2.441954343485052,3.9650237813928015 L-2.5510909661055283,3.9302717666100078 L-2.6591236259735482,3.8927539528994597 L-2.7659872482544063,3.852492939589255 L-2.8716174622979302,3.809512978408357 L-2.9759506404129494,3.763839958878255 L-3.0789239361942347,3.7155013927180915 L-3.1804753223788254,3.664526397272623 L-3.2805436282089415,3.610945677973029 L-3.3790685762789368,3.554791509841105 L-3.475990818844183,3.496097718047994 L-3.571251973569919,3.4348996575391677 L-3.6647946586985745,3.371234191737937 L-3.7565625276144186,3.3051396703402935 L-3.8465003027846363,3.236655906214494 L-3.9345538090564567,3.1658241514192755 L-4.020670006290233,3.0926870723551563 L-4.104797021308814,3.01728872406382 " />
			<path d="M-4.104797021308845,3.017288724063792 L-4.227147310852841,2.9000510375662003 L-4.344742396845359,2.777986880853683 L-4.457422910801195,2.6512616790338397 L-4.565036144614649,2.520047174006263 L-4.667436257514263,2.3845211917126314 L-4.764484473710726,2.2448674011415086 L-4.856049270470102,2.1012750654144656 L-4.9420065563574935,1.9539387852908705 L-5.022239839409578,1.8030582354389368 L-5.096640385008109,1.6488378938304615 L-5.165107363240421,1.4914867646259706 L-5.227547985547235,1.3312180949258443 L-5.283877630472577,1.1682490857712695 L-5.334019958345374,1.0028005977866958 L-5.377907014737345,0.8350968518627081 L-5.415479322556921,0.6653651252849658 L-5.446685962654444,0.49383544372101784 L-5.4714846428293615,0.32074026948243317 L-5.489841755145924,0.1463141864847025 L-5.501732421479691,-0.029206417668107165 L-5.5071405272331395,-0.20558367204312422 L-5.506058743174656,-0.38257854474868946 L-5.498488535371343,-0.5599511668777467 L-5.484440163202151,-0.7374611575855768 L-5.4639326654540605,-0.9148679498613285 L-5.436993834520131,-1.0919311165518466 L-5.4036601787343885,-1.2684106961959616 L-5.363976872894605,-1.4440675182276559 L-5.317997697040026,-1.6186635271073881 L-5.265784963566998,-1.7919621049423013 L-5.2074094327812945,-1.9637283921580773 L-5.142950217001563,-2.1337296057878787 L-5.072494673343872,-2.3017353549469948 L-4.996138285332661,-2.4675179530656743 L-4.913984533498517,-2.6308527264569808 L-4.826144755138175,-2.791518318801494 L-4.732737993426785,-2.9492969911362272 L-4.633890836086917,-3.1039749169411746 L-4.529737243832997,-3.2553424719235973 L-4.420418368823607,-3.4031945181073375 L-4.306082363367724,-3.5473306818421184 L-4.186884179144158,-3.687555625356095 L-4.062985357206249,-3.823679311483621 L-3.9345538090564576,-3.9555172612094736 L-3.801763589087521,-4.082890803680506 L-3.6647946586985745,-4.205627318345887 L-3.5238326424059165,-4.323560468897798 L-3.3790685762789394,-4.436530428695521 L-3.230698649042167,-4.544384097367434 L-3.078923936194239,-4.646975308297343 L-2.923950127504207,-4.744165026713998 L-2.765987248254411,-4.835821538115292 L-2.605249374607748,-4.921820626771818 L-2.4419543434850546,-5.0020457440678525 L-2.276323457345802,-5.076388166451636 L-2.1085811842721762,-5.144747142780871 L-1.9389548537630177,-5.2070300308637885 L-1.7676743486498747,-5.263152423010695 L-1.5949717935527057,-5.313038260425874 L-1.4210812402974449,-5.356619936284816 L-1.246238350721743,-5.3938383873570634 L-1.0706800772987861,-5.424643174050531 L-0.894644342012006,-5.448992548768785 L-0.7183697139158853,-5.466853512488677 " />
			<path d="M41.69947871623904,-6.852903688471169 L41.821829005783044,-6.735666001973579 L41.93942409177556,-6.613601845261062 L42.052104605731394,-6.486876643441217 L42.15971783954485,-6.355662138413641 L42.26211795244446,-6.220136156120011 L42.359166168640925,-6.080482365548886 L42.450730965400304,-5.9368900298218445 L42.53668825128769,-5.789553749698249 L42.61692153433978,-5.638673199846316 L42.69132207993831,-5.484452858237841 L42.759789058170625,-5.327101729033348 L42.822229680477434,-5.166833059333223 L42.878559325402776,-5.00386405017865 L42.928701653275574,-4.838415562194074 L42.97258870966755,-4.670711816270087 L43.01016101748712,-4.500980089692344 L43.041367657584644,-4.329450408128398 L43.06616633775956,-4.156355233889814 L43.08452345007613,-3.981929150892081 L43.09641411640989,-3.8064085467392714 L43.10182222216334,-3.6300312923642557 L43.10074043810486,-3.4530364196586887 L43.093170230301546,-3.2756637975296323 L43.07912185813235,-3.098153806821803 L43.05861436038426,-2.920747014546054 L43.03167552945033,-2.7436838478555345 L42.998341873664586,-2.5672042682114187 L42.958658567824806,-2.391547446179723 L42.91267939197023,-2.216951437299989 L42.8604666584972,-2.0436528594650785 L42.8020911277115,-1.871886572249305 L42.737631911931764,-1.7018853586195013 L42.66717636827407,-1.5338796094603833 L42.590819980262864,-1.3680970113417066 L42.50866622842872,-1.2047622379504035 L42.420826450068375,-1.0440966456058876 L42.32741968835698,-0.8863179732711526 L42.22857253101712,-0.7316400474662053 L42.1244189387632,-0.5802724924837808 L42.015100063753806,-0.4324204463000423 L41.90076405829793,-0.2882842825652632 L41.78156587407436,-0.14805933905128565 L41.65766705213645,-0.011935652923758866 L41.52923550398666,0.11990229680209552 L41.39644528401772,0.24727583927312846 L41.25947635362878,0.37001235393850784 L41.11851433733612,0.48794550449041685 L40.97375027120914,0.6009154642881418 L40.82538034397237,0.7087691329600543 L40.67360563112444,0.8113603438899646 L40.51863182243441,0.9085500623066203 L40.36066894318461,1.0002065737079127 L40.19993106953795,1.0862056623644385 L40.03663603841526,1.166430779660474 L39.871005152276005,1.2407732020442568 L39.70326287920238,1.3091321783734928 L39.53363654869322,1.3714150664564109 L39.36235604358008,1.4275374586033163 L39.18965348848291,1.477423296018495 L39.01576293522765,1.5210049718774368 L38.84092004565194,1.5582234229496859 L38.66536177222899,1.5890282096431534 L38.4893260369422,1.613377584361407 L38.31305140884611,1.6312385480812974 " />
			<path d="M37.5946816949302,-8.641155551998231 L37.71221286368452,-8.649445871987663 L37.82967323605756,-8.654836520239096 L37.94699205831312,-8.6573242496276 L38.06409866197952,-8.656907561638008 L38.180922506417595,-8.653586707267586 L38.297393221311786,-8.647363686874833 L38.41344064905856,-8.63824224897454 L38.528994887026734,-8.626227887979825 L38.64398632966421,-8.611327840892503 L38.75834571042575,-8.593551082943794 L38.87200414349656,-8.57290832218797 L38.984893165286515,-8.549411993052228 L39.09694477567008,-8.523076248846653 L39.20809147894704,-8.493916953238799 L39.31826632449939,-8.461951670698003 L39.42740294711987,-8.427199655915208 L39.53543560698789,-8.38968184220466 L39.64229922926875,-8.349420828894456 L39.74792944331227,-8.306440867713556 L39.85226262142729,-8.260767848183455 L39.955235917208576,-8.21242928202329 L40.056787303393165,-8.161454286577822 L40.15685560922328,-8.10787356727823 L40.25538055729328,-8.051719399146307 L40.35230279985852,-7.993025607353196 L40.447563954584254,-7.931827546844371 L40.54110663971291,-7.868162081043141 L40.63287450862875,-7.802067559645495 L40.72281228379897,-7.733583795519695 L40.81086579007079,-7.6627520407244765 L40.89698198730457,-7.589614961660358 L40.981109002323166,-7.514216613369007 " />
			<path d="M40.98110900232318,-7.514216613368994 L41.10345929186718,-7.396978926871403 L41.221054377859694,-7.274914770158886 L41.33373489181553,-7.148189568339042 L41.441348125628984,-7.016975063311465 L41.5437482385286,-6.881449081017834 L41.64079645472506,-6.74179529044671 L41.73236125148444,-6.5982029547196674 L41.81831853737183,-6.450866674596073 L41.89855182042392,-6.29998612474414 L41.97295236602245,-6.145765783135665 L42.04141934425476,-5.988414653931173 L42.10385996656157,-5.828145984231047 L42.16018961148691,-5.6651769750764736 L42.21033193935971,-5.499728487091898 L42.254218995751685,-5.332024741167911 L42.29179130357126,-5.162293014590168 L42.32299794366878,-4.990763333026222 L42.3477966238437,-4.817668158787637 L42.366153736160264,-4.643242075789905 L42.37804440249403,-4.467721471637095 L42.38345250824748,-4.291344217262079 L42.382370724188995,-4.114349344556512 L42.37480051638568,-3.936976722427456 L42.36075214421649,-3.759466731719627 L42.3402446464684,-3.582059939443878 L42.31330581553447,-3.4049967727533583 L42.27997215974872,-3.2285171931092425 L42.24028885390894,-3.052860371077547 L42.19430967805437,-2.878264362197813 L42.14209694458134,-2.7049657843629022 L42.08372141379564,-2.5331994971471286 L42.0192621980159,-2.363198283517325 L41.94880665435821,-2.195192534358207 L41.872450266347,-2.0294099362395306 L41.79029651451286,-1.8660751628482273 L41.70245673615251,-1.7054095705037113 L41.60904997444112,-1.5476308981689764 L41.51020281710126,-1.392952972364029 L41.40604922484734,-1.2415854173816046 L41.296730349837944,-1.093733371197866 L41.18239434438207,-0.949597207463087 L41.0631961601585,-0.8093722639491094 L40.93929733822059,-0.6732485778215826 L40.8108657900708,-0.5414106280957283 L40.67807557010186,-0.4140370856246953 L40.541106639712915,-0.29130057095931594 L40.40014462342026,-0.17336742040740694 L40.25538055729328,-0.060397460609681985 L40.10701063005651,0.0474562080622305 L39.955235917208576,0.1500474189921408 L39.800262108518545,0.2472371374087965 L39.64229922926875,0.3388936488100889 L39.48156135562209,0.4248927374666147 L39.3182663244994,0.5051178547626503 L39.15263543836014,0.579460277146433 L38.984893165286515,0.647819253475669 L38.815266834777354,0.7101021415585871 L38.643986329664216,0.7662245337054925 L38.47128377456705,0.8161103711206712 L38.297393221311786,0.859692046979613 L38.12255033173608,0.8969104980518621 L37.94699205831313,0.9277152847453296 L37.77095632302634,0.9520646594635833 L37.594681694930244,0.9699256231834736 " />
			<path d="M38.313051408846064,1.6312385480813 L0.0,4.805540587590854 " />
			<path d="M2.7061686225238184e-17,-1.874160829160433 L19.156525704423032,-3.46131184891521 " />
			<path d="M-1.6301106193760133,1.0499222953269776 L-1.658886361315335,0.9986527430671881 L-1.685908776671946,0.9463276848715199 L-1.7111493046473016,0.893002424658081 L-1.734581267772895,0.8387333234883892 L-1.7561799001064702,0.7835777399976832 L-1.7759223734078873,0.7275939697708657 L-1.7937878212669724,0.6708411837281557 L-1.8097573611578488,0.6133793655855765 L-1.8238141143964446,0.5552692484563722 L-1.835943223980077,0.4965722506603637 L-1.8543692846421618,0.3776663222353588 L-1.8649576635106473,0.257164148401009 L-1.8676636077172841,0.13557504394254793 L-1.8624756803116127,0.01341291766886632 L-1.8494158086004049,-0.10880589967572729 L-1.8285391914696576,-0.23056483773630354 L-1.7999340660808425,-0.35134926988485016 L-1.763721334927503,-0.4706486883424469 L-1.7200540548284757,-0.5879588618927032 L-1.6691167900175652,-0.7027839670666619 L-1.6111248320638936,-0.8146386837914961 L-1.546323289920027,-0.923050246645527 L-1.47498605394387,-1.0275604430497216 L-1.3974146382730035,-1.127727549950108 L-1.3139369064442878,-1.2231282008055269 L-1.2249056856450282,-1.313359174989699 L-1.1306972754527131,-1.3980391020445182 L-1.0317098573662946,-1.476810073581371 L-0.9283618118512806,-1.5493391560176142 L-0.8210899500118263,-1.6153197977544784 L-0.7103476673638448,-1.6744731248488094 L-0.5966030275124017,-1.7265491197023666 L-0.4803367838329259,-1.7713276777868194 L-0.36204034751780767,-1.8086195379380894 L-0.24221371057663732,-1.8382670822880542 L-0.12136333256875131,-1.860145002452617 L-8.43769498715119e-15,-1.8741608291604324 " />
			<path d="M19.156525704423032,-3.46131184891521 L19.275506610658823,-3.4673630850934667 L19.394004201803163,-3.465776668348644 L19.51153712605002,-3.4565590429008974 L19.627627950189073,-3.4397476518797774 L19.741805098998213,-3.4154107852256272 L19.853604770840153,-3.383647302287435 L19.96257282168179,-3.344586230243986 L20.068266609883178,-3.2983862399795805 " />
			<path d="M27.10467793725853,-1.3308042343051893 L27.069116062192123,-1.3948023679179455 L27.036283247827324,-1.460415853224074 L27.00623328789832,-1.5275371881877051 L26.97901541667235,-1.5960564002913724 L26.954674228283615,-1.6658612267164958 L26.933249603669616,-1.7368372982763258 L26.91477664522971,-1.8088683267999923 L26.89928561931282,-1.8818362956606394 L26.886801906628662,-1.9556216531354897 L26.87734596066363,-2.0301035082810284 L26.87093327416951,-2.105159829002388 L26.867574353779972,-2.180667641992408 L26.867274702796337,-2.256503234212791 L26.870034812170886,-2.3325423555872447 L26.875850159702505,-2.4086604225745156 L26.884711217445886,-2.4847327222877715 L26.896603467322272,-2.5606346168259124 L26.911507424906066,-2.6362417474820172 L26.929398671348377,-2.7114302384943603 L26.950247893385203,-2.78607690000616 L26.974020931364684,-2.8600594299015336 L27.000678835214757,-2.9332566141869645 L27.030177928259455,-3.0055485255899725 L27.06246987877942,-3.0768167200496093 L27.097501779199217,-3.1469444307768297 L27.13521623277185,-3.215816759566809 L27.175551447618385,-3.283320865049735 L27.2184413379686,-3.349346147571665 L27.26381563243683,-3.4137844304025107 L27.311599989155564,-3.4765301369742865 L27.361716117578187,-3.5374804638592052 L27.414081906751285,-3.596535549204227 L27.468611559846355,-3.653598636346092 L27.52521573473052,-3.7085762323387685 L27.583801690345897,-3.7613782611335767 L27.64427343865782,-3.811918211161028 L27.706531901922958,-3.860113277072567 L27.77047507501965,-3.9058844954099925 L27.835998192574507,-3.9491568739802747 L27.902993900611424,-3.989859514723791 L27.97135243244181,-4.027925729874685 L28.04096178850786,-4.063293151223013 L28.111707919884147,-4.095903832299683 L28.18347491513695,-4.125704343316741 L28.25614519023516,-4.15264585870747 L28.329599681201543,-4.176684237122872 L28.40371803918882,-4.19778009375346 L28.47837882766087,-4.2158988648578655 L28.553459721355992,-4.231010864392557 L28.628837706706335,-4.243091332649854 L28.704389283384987,-4.252120476824576 L28.779990666650626,-4.258083503442844 L28.85551799015813,-4.260970642599914 L28.930847508902897,-4.260777163967321 L29.005855801966373,-4.257503384543114 L29.08041997473057,-4.251154668132484 L29.15441786023031,-4.241741416559634 L29.227728219313235,-4.2292790526252775 L29.300230939279725,-4.2137879948377215 L29.371807230677188,-4.1952936239588965 L29.442339821926314,-4.1738262414201674 L29.511713151460476,-4.14942101967605 L29.579813557063353,-4.122117944577186 L29.64652946209469,-4.091961749856969 " />
			<path d="M36.68294078947005,-2.124379744182577 L36.647378914403646,-2.1883778777953333 L36.614546100038844,-2.2539913631014614 L36.58449614010984,-2.321112698065093 L36.55727826888387,-2.3896319101687604 L36.53293708049513,-2.459436736593883 L36.51151245588114,-2.5304128081537134 L36.49303949744123,-2.60244383667738 L36.477548471524344,-2.675411805538027 L36.465064758840185,-2.7491971630128766 L36.45560881287515,-2.8236790181584155 L36.449196126381025,-2.898735338879775 L36.445837205991495,-2.974243151869795 L36.44553755500785,-3.050078744090178 L36.44829766438241,-3.1261178654646318 L36.454113011914025,-3.2022359324519023 L36.462974069657406,-3.2783082321651587 L36.474866319533795,-3.3542101267032995 L36.489770277117586,-3.429817257359404 L36.5076615235599,-3.505005748371747 L36.52851074559672,-3.579652409883547 L36.55228378357621,-3.6536349397789203 L36.57894168742627,-3.726832124064351 L36.60844078047097,-3.7991240354673597 L36.64073273099094,-3.8703922299269955 L36.675764631410736,-3.940519940654217 L36.71347908498337,-4.009392269444195 L36.753814299829905,-4.076896374927122 L36.79670419018012,-4.142921657449051 L36.84207848464835,-4.207359940279897 L36.88986284136708,-4.270105646851673 L36.939978969789706,-4.331055973736591 L36.9923447589628,-4.3901110590816135 L37.046874412057875,-4.44717414622348 L37.10347858694204,-4.502151742216156 L37.16206454255742,-4.554953771010965 L37.222536290869336,-4.605493721038416 L37.284794754134474,-4.653688786949954 L37.34873792723117,-4.69946000528738 L37.41426104478602,-4.742732383857662 L37.481256752822944,-4.783435024601179 L37.54961528465333,-4.821501239752072 L37.61922464071938,-4.8568686611004 L37.68997077209566,-4.88947934217707 L37.76173776734847,-4.919279853194128 L37.834408042446675,-4.946221368584858 L37.90786253341306,-4.97025974700026 L37.98198089140034,-4.991355603630847 L38.056641679872385,-5.0094743747352535 L38.13172257356751,-5.024586374269945 L38.20710055891785,-5.036666842527243 L38.28265213559651,-5.045695986701964 L38.35825351886214,-5.051659013320233 L38.43378084236965,-5.054546152477302 L38.509110361114416,-5.054352673844709 L38.58411865417789,-5.0510788944205025 L38.65868282694209,-5.044730178009873 L38.73268071244183,-5.035316926437022 L38.80599107152475,-5.022854562502666 L38.878493791491245,-5.00736350471511 L38.9500700828887,-4.988869133836286 L39.020602674137834,-4.967401751297556 L39.08997600367199,-4.94299652955344 L39.15807640927487,-4.915693454454575 L39.22479231430621,-4.885537259734359 " />
			<path d="M37.5946816949302,0.9699256231834762 L-0.7183697139158625,4.14422766269303 " />
			<path d="M-0.7183697139158636,-2.535473754058257 L18.43815599050717,-4.122624773813033 " />
			<path d="M-0.7183697139158631,1.2128479042626092 L-0.810016414955535,1.2181834818765465 L-0.9014423310650976,1.2189911880221218 L-0.9924272092046803,1.2152690768644843 L-1.082751858833511,1.2070261152954305 L-1.1721986799591284,1.1942821613313792 L-1.2605521873548249,1.1770679162736677 L-1.347599529682431,1.1554248507464302 L-1.4331310022698331,1.1294051047902305 L-1.5169405523078954,1.099071362252137 L-1.598826275249727,1.0644966997748466 L-1.6785909012164189,1.0257644107486503 L-1.756042270237462,0.9829678046503584 L-1.8309937951809454,0.9362099822526028 L-1.9032649112582998,0.8856035872450417 L-1.9726815110206948,0.8312705348658448 L-2.0390763637991145,0.7733417181972174 " />
			<path d="M-2.0390763637991265,0.7733417181972063 L-2.0867929767212847,0.7276190204631453 L-2.132655060258367,0.680013999345264 L-2.1766004607011427,0.6305911706355246 L-2.21856962188839,0.57941751367477 L-2.2585056659192393,0.5265623805802538 L-2.29635447023586,0.47209740225751584 L-2.3320647409720165,0.4160963913239689 L-2.365588082468099,0.3586352420757669 L-2.396879062858412,0.29979182763351264 L-2.4258952756418393,0.2396458944062072 L-2.4525973971524415,0.1782789540164561 L-2.4769492398520985,0.11577417283340674 L-2.498917801372982,0.052216259263122455 L-2.5184733092433724,-0.012308651050861208 L-2.5355892612362414,-0.07771311196121633 L-2.550242461285876,-0.1439084853265361 L-2.56241305092391,-0.21080506113647546 L-2.5720845361921283,-0.27831217908952366 L-2.579243809995587,-0.34633835145863867 L-2.583881169865756,-0.4147913870782346 L-2.5859903311096013,-0.4835785162844908 L-2.585568435326793,-0.5526065166396614 L-2.5826160542835,-0.6217818392699938 L-2.577137189137515,-0.6910107356460475 L-2.5691392650157603,-0.7601993846335904 L-2.5586331209515283,-0.8292540196428928 L-2.545632995195088,-0.8980810557040975 L-2.5301565059175726,-0.9665872162964582 L-2.5122246273342865,-1.0346796597595538 L-2.491861661279806,-1.10226610511517 L-2.4690952042733816,-1.1692549571293227 L-2.443956110119286,-1.2355554304449452 L-2.416478448092787,-1.3010776726170006 L-2.3866994567684143,-1.3657328858832856 L-2.354659493553098,-1.429433447505895 L-2.3204019799925657,-1.4920930285202554 L-2.2839733429251226,-1.5536267107308013 L-2.245422951562574,-1.6139511017947306 L-2.204803050583546,-1.6729844482378757 L-2.1621686893298833,-1.7306467462495343 L-2.117577647202089,-1.7868598501060986 L-2.0710903553548983,-1.8415475780765496 L-2.0227698147991133,-1.8946358156662844 L-1.9726815110206952,-1.9460526160593674 L-1.92089332523281,-1.99572829762307 L-1.8674754423811208,-2.0435955383425686 L-1.812500256026984,-2.0895894670578135 L-1.756042270237463,-2.133647751378926 L-1.6981779986151215,-2.1757106821609713 L-1.6389858606044299,-2.2157212544236358 L-1.5785460752153173,-2.2536252446061313 L-1.5169405523078967,-2.289371284052636 L-1.4542527815856983,-2.3229109286286813 L-1.3905677194478478,-2.354198724374135 L-1.3259716738535396,-2.3831922691038105 L-1.2605521873548255,-2.409852269872212 L-1.1943979184562536,-2.4341425962245498 L-1.127598521462128,-2.4560303291618433 L-1.060244524974232,-2.475485805753763 L-0.9924272092046802,-2.4924826593387506 L-0.9242384822701566,-2.506997855256927 L-0.8557707556352034,-2.51901172206738 L-0.7871168188733592,-2.5285079782074984 L-0.718369713915872,-2.5354737540582564 " />
			<path d="M18.43815599050717,-4.122624773813033 L18.52980269154684,-4.127960351426971 L18.621228607656402,-4.128768057572547 L18.712213485795985,-4.125045946414908 L18.802538135424818,-4.116802984845855 L18.891984956550434,-4.104059030881803 L18.980338463946133,-4.086844785824092 L19.067385806273737,-4.065201720296855 L19.15291727886114,-4.0391819743406545 L19.236726828899204,-4.008848231802561 L19.318612551841035,-3.9742735693252706 L19.398377177807728,-3.9355412802990744 L19.47582854682877,-3.8927446742007827 L19.55078007177225,-3.845986851803028 L19.623051187849605,-3.795380456795467 L19.692467787612003,-3.7410474044162694 L19.758862640390426,-3.6831185877476367 " />
			<path d="M19.758862640390433,-3.6831185877476313 L19.80657925331259,-3.63739589001357 L19.852441336849672,-3.589790868895689 L19.89638673729245,-3.540368040185949 L19.938355898479696,-3.489194383225195 L19.978291942510545,-3.436339250130679 L20.016140746827165,-3.3818742718079404 L20.051851017563322,-3.3258732608743937 L20.085374359059404,-3.2684121116261915 L20.116665339449717,-3.209568697183938 L20.145681552233146,-3.1494227639566326 L20.172383673743745,-3.0880558235668807 L20.196735516443404,-3.0255510423838317 L20.218704077964286,-2.961993128813548 L20.23825958583468,-2.8974682184995633 L20.255375537827547,-2.8320637575892085 L20.270028737877183,-2.7658683842238894 L20.282199327515215,-2.6989718084139502 L20.291870812783433,-2.631464690460902 L20.299030086586892,-2.563438518091786 L20.303667446457062,-2.494985482472191 L20.305776607700906,-2.4261983532659346 L20.3053547119181,-2.3571703529107633 L20.302402330874806,-2.287995030280431 L20.29692346572882,-2.218766133904378 L20.288925541607068,-2.149577484916836 L20.278419397542834,-2.080522849907533 L20.265419271786396,-2.0116958138463277 L20.249942782508878,-1.9431896532539668 L20.23201090392559,-1.8750972097908702 L20.211647937871113,-1.8075107644352553 L20.188881480864687,-1.7405219124211038 L20.16374238671059,-1.6742214391054806 L20.136264724684093,-1.6086991969334243 L20.106485733359722,-1.5440439836671405 L20.074445770144404,-1.4803434220445322 L20.04018825658387,-1.417683841030171 L20.00375961951643,-1.3561501588196243 L19.96520922815388,-1.2958257677556948 L19.924589327174854,-1.2367924213125492 L19.88195496592119,-1.1791301233008913 L19.837363923793397,-1.1229170194443274 L19.790876631946205,-1.0682292914738762 L19.74255609139042,-1.0151410538841408 L19.692467787612003,-0.9637242534910575 L19.640679601824115,-0.9140485719273546 L19.587261718972428,-0.8661813312078568 L19.532286532618294,-0.8201874024926123 L19.475828546828772,-0.7761291181714995 L19.41796427520643,-0.7340661873894536 L19.358772137195736,-0.6940556151267887 L19.298332351806625,-0.6561516249442929 L19.236726828899204,-0.6204055854977888 L19.174039058177005,-0.5868659409217438 L19.110353996039155,-0.5555781451762898 L19.045757950444848,-0.5265846004466144 L18.980338463946133,-0.49992459967821246 L18.914184195047557,-0.4756342733258745 L18.847384798053433,-0.4537465403885814 L18.78003080156554,-0.4342910637966617 L18.71221348579599,-0.4172942102116739 L18.644024758861462,-0.4027790142934973 L18.57555703222651,-0.3907651474830449 L18.506903095464665,-0.38126889134292585 L18.438155990507187,-0.374303115492169 " />
			<path d="M18.43815599050717,-0.37430311549216777 L-0.7183697139158625,1.2128479042626092 " />
			<path d="M29.88418009889993,-3.1967866789560793 L29.881930298668575,-3.2885609923495793 L29.875186317940333,-3.379741413765734 L29.86396440355548,-3.470108281582891 L29.848291590088696,-3.559443894101277 L29.82820563472039,-3.647533034005459 L29.803754926276376,-3.734163486841711 L29.774998368654916,-3.8191265522612188 L29.742005238922104,-3.902217546797501 L29.70485502041732,-3.9832362969668083 L29.663637211270917,-4.061987621503579 L29.618451108795384,-4.1382818015692004 L29.569405570269417,-4.211935037801318 L29.516618750691208,-4.282769893102583 L29.4602178181327,-4.350615720102175 L29.40033864738057,-4.415309072260259 L29.337125492601956,-4.476694097625009 " />
			<path d="M29.337125492601945,-4.476694097625019 L29.270730639823512,-4.534622914293658 L29.201314040061117,-4.588955966672855 L29.129042923983764,-4.639562361680416 L29.05409139904028,-4.686320184078172 L28.97664003001924,-4.729116790176462 L28.896875404052548,-4.7678490792026595 L28.814989681110717,-4.80242374167995 L28.73118013107265,-4.8327574842180425 L28.64564865848525,-4.858777230174243 L28.558601316157645,-4.88042029570148 L28.470247808761947,-4.897634540759192 L28.38080098763633,-4.910378494723243 L28.290476338007498,-4.918621456292297 L28.199491459867915,-4.922343567449935 L28.108065543758354,-4.92153586130436 L28.016418842718682,-4.916200283690422 L27.92477214167901,-4.906349688481937 L27.83334622556945,-4.89200780662557 L27.742361347429867,-4.873209188970916 L27.652036697801034,-4.8499991230344675 L27.562589876675418,-4.822433523898027 L27.47423636927972,-4.790578799504377 L27.387189026952115,-4.754511690674725 L27.301657554364713,-4.714319086233348 L27.217848004326648,-4.6700978136848015 L27.135962281384817,-4.62195440594798 L27.056197655418124,-4.570004844708987 L26.978746286397083,-4.514374281011091 L26.9037947614536,-4.455196733754902 L26.831523645376244,-4.392614766835102 L26.762107045613853,-4.326779145691533 L26.69571219283542,-4.257848474102048 L26.632499038056796,-4.1859888120921225 L26.572619867304663,-4.1113732758817 L26.516218934746156,-4.03418162083306 L26.463432115167947,-3.954599808404405 L26.41438657664198,-3.872819558152421 L26.369200474166448,-3.7890378858630664 L26.327982665020045,-3.703456628923296 L26.29083244651526,-3.6162819600771106 L26.257839316782448,-3.527723890737358 L26.22908275916099,-3.4379957650498505 L26.204632050716974,-3.3473137459286235 L26.18454609534867,-3.2558962943005474 L26.168873281881883,-3.1639636428138176 L26.15765136749703,-3.071737265278213 L26.15090738676879,-2.9794393431152955 L26.148657586537436,-2.8872922301038986 L26.15090738676879,-2.7955179167104003 L26.15765136749703,-2.7043374952942454 L26.168873281881883,-2.6139706274770873 L26.18454609534867,-2.524635014958701 L26.204632050716974,-2.4365458750545193 L26.22908275916099,-2.349915422218267 L26.257839316782448,-2.2649523567987595 L26.29083244651526,-2.1818613622624765 L26.327982665020045,-2.1008426120931682 L26.369200474166448,-2.0220912875563983 L26.41438657664198,-1.945797107490776 L26.463432115167947,-1.8721438712586604 L26.516218934746156,-1.8013090159573961 L26.572619867304663,-1.7334631889578038 L26.632499038056796,-1.6687698367997188 L26.695712192835412,-1.6073848114349645 " />
			<path d="M26.69571219283542,-1.6073848114349591 L26.74521866811804,-1.5636064018940128 L26.79644791305986,-1.5218316103961858 L26.84933050020909,-1.482117051426552 L26.9037947614536,-1.4445165473795625 L26.95976688514779,-1.4090810556172724 L27.01717101614438,-1.375858599410357 L27.075929358595662,-1.344894202855494 L27.135962281384817,-1.3162298298573194 L27.19718842604447,-1.2899043272576505 L27.25952481701618,-1.2659533721890495 L27.322886974101504,-1.2444094237240724 L27.387189026952115,-1.2253016788857356 L27.45234383144399,-1.208656033078807 L27.518263087777804,-1.194495044995558 L27.584857460145514,-1.1828379060435275 L27.652036697801034,-1.1737004143367349 L27.719709757370808,-1.1670949532855888 L27.787784926238597,-1.1630304748145077 L27.856169946837255,-1.1615124872299964 L27.92477214167901,-1.162543047755619 L27.993498538954867,-1.1661207597439853 L28.06225599853287,-1.1722407745695325 L28.130951338184452,-1.1808947981995297 L28.199491459867915,-1.1920711024344075 L28.267783475897712,-1.2057545408021766 L28.335734834828738,-1.2219265690853929 L28.403253446884886,-1.2405652704528505 L28.470247808761947,-1.261645385161951 L28.536627127635718,-1.285138344791481 L28.602301444207235,-1.3110123109584197 L28.667181754618376,-1.3392322184662975 L28.73118013107265,-1.3697598228266292 L28.79420984099765,-1.402553752089024 L28.85618546458769,-1.4375695629097276 L28.917023010567394,-1.4747598007826124 L28.976640030019237,-1.5140740643509898 L29.034955728120867,-1.555459073713075 L29.091891073640728,-1.5988587426285576 L29.14736890604364,-1.6442142545284022 L29.201314040061117,-1.691464142224875 L29.253653367584775,-1.7405443712137731 L29.304315956744684,-1.7913884264559572 L29.353233148038427,-1.8439274025205805 L29.40033864738057,-1.898090096967855 L29.445568615946456,-1.9538031068447932 L29.48886175668855,-2.01099092816315 L29.53015939740808,-2.0695760582247575 L29.569405570269417,-2.1294791006555718 L29.6065470876494,-2.1906188730060787 L29.641533614218847,-2.25291251677226 L29.67431773515856,-2.3162756096879873 L29.70485502041732,-2.3806222801366808 L29.733104084924886,-2.4458653235271726 L29.759026644678308,-2.511916320476056 L29.78258756862559,-2.5786857566363537 L29.803754926276376,-2.646083144010128 L29.82250003097512,-2.714017143580599 L29.83879747877816,-2.782395689097597 L29.852625182881887,-2.8511261118485876 L29.86396440355548,-2.9201152662461607 L29.87279977353758,-2.989269656061802 L29.87911931886244,-3.0584955611348668 L29.882914475087457,-3.127699164385029 L29.88418009889993,-3.196786678956063 " />
			<path d="M39.46244295111145,-3.990362188833468 L39.460193150880094,-4.082136502226968 L39.453449170151856,-4.173316923643122 L39.442227255767,-4.263683791460279 L39.426554442300215,-4.353019403978665 L39.406468486931914,-4.441108543882848 L39.38201777848789,-4.5277389967190995 L39.353261220866436,-4.612702062138608 L39.32026809113363,-4.69579305667489 L39.28311787262884,-4.776811806844197 L39.24190006348244,-4.855563131380967 L39.19671396100691,-4.931857311446589 L39.14766842248094,-5.005510547678706 L39.09488160290273,-5.076345402979972 L39.03848067034422,-5.144191229979564 L38.97860149959209,-5.208884582137648 L38.91538834481348,-5.270269607502397 " />
			<path d="M38.915388344813465,-5.270269607502408 L38.848993492035035,-5.328198424171046 L38.77957689227264,-5.382531476550244 L38.707305776195284,-5.433137871557804 L38.6323542512518,-5.47989569395556 L38.554902882230756,-5.522692300053851 L38.47513825626407,-5.5614245890800476 L38.39325253332223,-5.595999251557338 L38.30944298328417,-5.626332994095431 L38.22391151069677,-5.652352740051631 L38.136864168369165,-5.673995805578869 L38.04851066097347,-5.691210050636581 L37.95906383984785,-5.703954004600632 L37.86873919021902,-5.712196966169685 L37.77775431207944,-5.715919077327323 L37.68632839596987,-5.715111371181748 L37.5946816949302,-5.709775793567811 L37.50303499389053,-5.699925198359326 L37.411609077780966,-5.685583316502958 L37.32062419964139,-5.666784698848304 L37.23029955001255,-5.6435746329118555 L37.140852728886934,-5.616009033775416 L37.05249922149124,-5.584154309381765 L36.96545187916363,-5.548087200552114 L36.87992040657623,-5.507894596110737 L36.79611085653817,-5.4636733235621895 L36.71422513359634,-5.415529915825369 L36.63446050762965,-5.363580354586375 L36.5570091386086,-5.307949790888479 L36.48205761366512,-5.248772243632291 L36.40978649758777,-5.18619027671249 L36.34036989782537,-5.120354655568921 L36.27397504504694,-5.051423983979437 L36.210761890268316,-4.9795643219695105 L36.15088271951618,-4.904948785759088 L36.09448178695767,-4.827757130710448 L36.04169496737947,-4.748175318281794 L35.9926494288535,-4.666395068029809 L35.947463326377964,-4.582613395740455 L35.90624551723156,-4.497032138800685 L35.869095298726776,-4.409857469954499 L35.83610216899397,-4.3212994006147465 L35.80734561137251,-4.231571274927239 L35.78289490292849,-4.1408892558060115 L35.76280894756019,-4.049471804177936 L35.7471361340934,-3.957539152691206 L35.73591421970855,-3.8653127751556013 L35.72917023898031,-3.773014852992684 L35.726920438748955,-3.680867739981287 L35.72917023898031,-3.5890934265877887 L35.73591421970855,-3.4979130051716334 L35.7471361340934,-3.4075461373544753 L35.76280894756019,-3.31821052483609 L35.78289490292849,-3.2301213849319073 L35.80734561137251,-3.1434909320956557 L35.83610216899397,-3.058527866676148 L35.869095298726776,-2.9754368721398645 L35.90624551723156,-2.894418121970557 L35.947463326377964,-2.815666797433787 L35.9926494288535,-2.7393726173681645 L36.04169496737946,-2.665719381136049 L36.09448178695767,-2.5948845258347846 L36.15088271951618,-2.5270386988351925 L36.210761890268316,-2.4623453466771075 L36.27397504504693,-2.400960321312353 " />
			<path d="M36.27397504504694,-2.400960321312348 L36.32348152032956,-2.3571819117714012 L36.37471076527138,-2.315407120273574 L36.42759335242061,-2.2756925613039405 L36.48205761366512,-2.238092057256951 L36.53802973735931,-2.202656565494661 L36.5954338683559,-2.1694341092877454 L36.65419221080718,-2.138469712732882 L36.71422513359634,-2.1098053397347076 L36.775451278255986,-2.083479837135039 L36.8377876692277,-2.059528882066438 L36.90114982631302,-2.037984933601461 L36.96545187916363,-2.018877188763124 L37.03060668365551,-2.0022315429561957 L37.09652593998932,-1.9880705548729465 L37.16312031235703,-1.976413415920916 L37.23029955001255,-1.9672759242141233 L37.29797260958233,-1.9606704631629772 L37.36604777845012,-1.9566059846918962 L37.43443279904878,-1.955087997107385 L37.50303499389053,-1.9561185576330073 L37.57176139116639,-1.9596962696213738 L37.640518850744385,-1.965816284446921 L37.709214190395976,-1.9744703080769181 L37.77775431207944,-1.985646612311796 L37.84604632810923,-1.999330050679565 L37.91399768704026,-2.0155020789627813 L37.981516299096405,-2.034140780330239 L38.04851066097347,-2.0552208950393394 L38.11488997984724,-2.0787138546688695 L38.18056429641875,-2.104587820835808 L38.24544460682989,-2.132807728343686 L38.30944298328417,-2.1633353327040177 L38.37247269320917,-2.1961292619664126 L38.434448316799205,-2.231145072787116 L38.495285862778914,-2.268335310660001 L38.554902882230756,-2.3076495742283782 L38.613218580332386,-2.3490345835904636 L38.67015392585225,-2.392434252505946 L38.72563175825516,-2.4377897644057906 L38.77957689227264,-2.4850396521022633 L38.8319162197963,-2.5341198810911614 L38.882578808956204,-2.5849639363333456 L38.93149600024994,-2.637502912397969 L38.97860149959209,-2.6916656068452434 L39.02383146815797,-2.7473786167221816 L39.067124608900066,-2.8045664380405384 L39.1084222496196,-2.863151568102146 L39.14766842248093,-2.92305461053296 L39.18480993986092,-2.984194382883467 L39.21979646643037,-3.0464880266496484 L39.25258058737008,-3.109851119565376 L39.28311787262884,-3.174197790014069 L39.311366937136405,-3.2394408334045615 L39.33728949688983,-3.3054918303534446 L39.36085042083711,-3.372261266513742 L39.38201777848789,-3.4396586538875162 L39.400762883186644,-3.507592653457987 L39.41706033098968,-3.575971198974986 L39.4308880350934,-3.644701621725976 L39.442227255767,-3.713690776123549 L39.451062625749096,-3.7828451659391904 L39.45738217107396,-3.852071071012255 L39.46117732729898,-3.921274674262418 L39.46244295111145,-3.9903621888334513 " />
			<path d="M7.723592275283811e-17,4.805540587590854 L-0.7183697139158636,4.14422766269303 " />
			<path d="M38.313051408846064,1.6312385480813 L37.5946816949302,0.9699256231834761 " />
			<path d="M-1.4448940207129693e-16,-1.874160829160433 L-0.7183697139158638,-2.5354737540582573 " />
			<path d="M19.156525704423032,-3.46131184891521 L18.43815599050717,-4.122624773813034 " />
			<path d="M-4.104797021308846,3.017288724063792 L-3.386427307392982,3.6786016489616156 " />
			<path d="M40.98110900232318,-7.514216613368993 L41.69947871623904,-6.852903688471169 " />

       </g>
    </g>
    
</svg>
