<?xml version="1.0" encoding="UTF-8" standalone="no"?>
<svg
   xmlns:svg="http://www.w3.org/2000/svg"
   xmlns="http://www.w3.org/2000/svg"
   width="800.0"
   height="240.0"

>
    <g transform="scale(4.25733814725463, -4.25733814725463)   translate(1.8928124823918144,-39.61876746920278)" stroke-width="0.23488855369519004"  fill="none">
       <!-- hidden lines -->
       <g  stroke="rgb(160,160,160)" fill="none" stroke-dasharray="0.23488855369519004,0.23488855369519004" >
			<path d="M0.0,0.0 L-0.7183697139158637,-0.661312924897824 " />
			<path d="M0.0,0.0 L-5.551115123125782e-16,38.44432470072683 " />
			<path d="M0.0,0.0 L38.313051408846064,-3.174302039509554 " />
			<path d="M6.656892682287003,4.254005608226068 L6.655627058474531,4.323093122797119 L6.651831902249516,4.392296726047281 L6.6455123569246535,4.461522631120346 L6.6366769869425575,4.530677020935987 L6.625337766268962,4.59966617533356 L6.6115100621652365,4.66839659808455 L6.5952126143621985,4.736775143601549 L6.576467509663451,4.80470914317202 L6.555300152012668,4.872106530545794 L6.531739228065385,4.938875966706092 L6.5058166683119625,5.004926963654976 L6.477567603804396,5.070170007045467 L6.447030318545637,5.13451667749416 L6.414246197605925,5.197879770409888 L6.379259671036475,5.260173414176069 L6.342118153656492,5.321313186526576 L6.302871980795157,5.38121622895739 L6.261574340075625,5.439801359018999 L6.218281199333531,5.496989180337355 L6.173051230767644,5.552702190214293 L6.125945731425502,5.606864884661568 L6.077028540131762,5.659403860726191 L6.026365950971853,5.710247915968375 L5.974026623448194,5.759328144957273 L5.920081489430715,5.8065780326537455 L5.8646036570278035,5.8519335445535905 L5.807668311507942,5.8953332134690735 L5.749352613406314,5.936718222831159 L5.68973559395447,5.976032486399536 L5.628898047974765,6.0132227242724205 L5.566922424384725,6.048238535093124 L5.503892714459728,6.081032464355519 L5.439894338005453,6.111560068715852 L5.375014027594311,6.139779976223728 L5.309339711022796,6.1656539423906676 L5.2429603921490235,6.189146902020198 L5.175966030271963,6.210227016729298 L5.108447418215816,6.228865718096756 L5.040496059284789,6.245037746379972 L4.972204043254991,6.258721184747741 L4.903663921571531,6.269897488982618 L4.834968581919944,6.278551512612616 L4.766211122341945,6.284671527438163 L4.6974847250660865,6.28824923942653 L4.628882530224331,6.289279799952152 L4.560497509625675,6.287761812367641 L4.492422340757885,6.28369733389656 L4.42474928118811,6.277091872845414 L4.357570043532589,6.267954381138621 L4.290975671164879,6.256297242186591 L4.2250564148310685,6.242136254103342 L4.15990161033919,6.225490608296413 L4.095599557488579,6.206382863458076 L4.032237400403259,6.184838914993099 L3.9699010094315446,6.160887959924498 L3.9086748647718927,6.134562457324829 L3.848641941982739,6.105898084326656 L3.789883599531458,6.074933687771792 L3.732479468534866,6.041711231564877 L3.676507344840676,6.006275739802586 L3.622043083596164,5.968675235755596 L3.569160496446937,5.928960676785963 L3.5179312515051144,5.887185885288137 L3.4684247762225073,5.843407475747201 " />
			<path d="M3.468424776222495,5.84340747574719 L3.423745583159192,5.800706210882657 L3.38068471650388,5.7563551303837235 L3.339293214238255,5.710406801460723 L3.2996201357264,5.662915684466006 L3.261712503567072,5.613938068344687 L3.225615247860071,5.563532003918066 L3.1913711529527427,5.511757235078759 L3.159020806729745,5.458675127979138 " />
			<path d="M5.700872331565908,2.697517612427358 L5.756444312211254,2.7253745677892933 L5.810869783248007,2.75522675073817 L5.864084236773511,2.7870387789121076 L5.916024600246129,2.8207729470385985 L5.9666293112421105,2.8563892716247623 L6.015838390422577,2.893845538347864 L6.063593512624159,2.9330973520899235 L6.109838075989015,2.9740981895571235 " />
			<path d="M6.109838075989021,2.974098189557129 L6.173051230767643,3.035483214921889 L6.232930401519777,3.100176567079974 L6.289331334078285,3.168022394079566 L6.342118153656493,3.23885724938083 L6.3911636921824595,3.312510485612946 L6.4363497946579935,3.3888046656785686 L6.477567603804396,3.467555990215338 L6.514717822309181,3.5485747403846464 L6.547710952041993,3.6316657349209294 L6.576467509663451,3.716628800340437 L6.600918218107466,3.803259253176689 L6.62100417347577,3.8913483930808708 L6.6366769869425575,3.9806840055992567 L6.64789890132741,4.071050873416415 L6.654642882055651,4.16223129483257 L6.656892682287003,4.25400560822606 " />
			<path d="M16.235155534498517,3.4604300983486804 L16.233889910686045,3.5295176129197317 L16.23009475446103,3.598721216169893 L16.223775209136168,3.6679471212429577 L16.21493983915407,3.7371015110585994 L16.203600618480476,3.806090665456172 L16.18977291437675,3.8748210882071623 L16.173475466573713,3.943199633724161 L16.154730361874964,4.011133633294632 L16.133563004224182,4.078531020668406 L16.1100020802769,4.145300456828704 L16.084079520523478,4.211351453777587 L16.05583045601591,4.2765944971680785 L16.025293170757152,4.340941167616773 L15.99250904981744,4.4043042605325 L15.957522523247988,4.466597904298681 L15.920381005868007,4.527737676649188 L15.881134833006671,4.587640719080002 L15.839837192287138,4.64622584914161 L15.796544051545045,4.703413670459967 L15.751314082979158,4.759126680336905 L15.704208583637016,4.81328937478418 L15.655291392343276,4.865828350848803 L15.604628803183367,4.916672406090987 L15.552289475659709,4.965752635079885 L15.49834434164223,5.0130025227763575 L15.442866509239318,5.0583580346762025 L15.385931163719455,5.1017577035916855 L15.327615465617829,5.14314271295377 L15.267998446165985,5.182456976522148 L15.20716090018628,5.219647214395033 L15.145185276596239,5.254663025215736 L15.082155566671243,5.287456954478131 L15.018157190216968,5.317984558838463 L14.953276879805825,5.34620446634634 L14.88760256323431,5.3720784325132795 L14.821223244360539,5.395571392142809 L14.754228882483478,5.41665150685191 L14.68671027042733,5.435290208219367 L14.618758911496302,5.451462236502584 L14.550466895466506,5.465145674870353 L14.481926773783044,5.476321979105231 L14.413231434131458,5.484976002735229 L14.344473974553459,5.491096017560775 L14.2757475772776,5.494673729549142 L14.207145382435845,5.495704290074764 L14.138760361837189,5.494186302490252 L14.0706851929694,5.490121824019172 L14.003012133399626,5.483516362968025 L13.935832895744102,5.474378871261233 L13.869238523376392,5.462721732309203 L13.803319267042582,5.448560744225954 L13.738164462550705,5.431915098419026 L13.673862409700094,5.412807353580688 L13.610500252614774,5.391263405115711 L13.548163861643058,5.36731245004711 L13.486937716983407,5.340986947447441 L13.426904794194254,5.312322574449267 L13.368146451742971,5.281358177894404 L13.31074232074638,5.248135721687488 L13.25477019705219,5.212700229925198 L13.200305935807679,5.175099725878208 L13.147423348658451,5.135385166908575 L13.096194103716629,5.093610375410749 L13.046687628434022,5.049831965869813 " />
			<path d="M13.04668762843401,5.049831965869801 L13.002008435370707,5.00713070100527 L12.958947568715395,4.9627796205063355 L12.91755606644977,4.916831291583335 L12.877882987937914,4.8693401745886185 L12.839975355778588,4.8203625584673 L12.803878100071586,4.769956494040679 L12.769634005164258,4.718181725201372 L12.73728365894126,4.665099618101751 " />
			<path d="M15.279135183777422,1.9039421025499699 L15.334707164422769,1.931799057911905 L15.389132635459521,1.9616512408607818 L15.442347088985025,1.9934632690347196 L15.494287452457645,2.0271974371612105 L15.544892163453625,2.0628137617473743 L15.594101242634093,2.100270028470476 L15.641856364835673,2.1395218422125355 L15.68810092820053,2.1805226796797355 " />
			<path d="M15.688100928200535,2.180522679679741 L15.751314082979158,2.241907705044501 L15.811193253731291,2.306601057202586 L15.867594186289798,2.374446884202178 L15.920381005868007,2.445281739503442 L15.969426544393974,2.518934975735558 L16.01461264686951,2.5952291558011806 L16.05583045601591,2.67398048033795 L16.092980674520696,2.7549992305072584 L16.12597380425351,2.8380902250435414 L16.154730361874964,2.923053290463049 L16.179181070318982,3.009683743299301 L16.199267025687284,3.0977728832034828 L16.21493983915407,3.1871084957218687 L16.226161753538925,3.277475363539027 L16.232905734267163,3.368655784955182 L16.235155534498517,3.460430098348672 " />
			<path d="M25.813418386710037,2.6668545884712915 L25.81215276289756,2.7359421030423428 L25.808357606672548,2.805145706292504 L25.802038061347687,2.874371611365569 L25.79320269136559,2.9435260011812105 L25.781863470691995,3.0125151555787832 L25.76803576658827,3.0812455783297734 L25.75173831878523,3.149624123846772 L25.732993214086484,3.217558123417243 L25.711825856435702,3.284955510791017 L25.68826493248842,3.351724946951315 L25.662342372734994,3.4177759439001982 L25.634093308227428,3.48301898729069 L25.603556022968668,3.5473656577393835 L25.57077190202896,3.6107287506551113 L25.535785375459508,3.6730223944212925 L25.498643858079525,3.7341621667717995 L25.45939768521819,3.7940652092026133 L25.418100044498658,3.8526503392642213 L25.374806903756564,3.909838160582578 L25.329576935190676,3.9655511704595163 L25.282471435848535,4.019713864906791 L25.233554244554792,4.072252840971414 L25.182891655394883,4.123096896213598 L25.130552327871225,4.172177125202496 L25.076607193853746,4.219427012898969 L25.021129361450836,4.264782524798814 L24.964194015930975,4.308182193714297 L24.905878317829348,4.349567203076381 L24.846261298377502,4.388881466644759 L24.785423752397797,4.4260717045176445 L24.723448128807757,4.461087515338347 L24.66041841888276,4.493881444600742 L24.596420042428484,4.524409048961074 L24.531539732017343,4.5526289564689515 L24.46586541544583,4.578502922635891 L24.399486096572055,4.60199588226542 L24.332491734694994,4.623075996974521 L24.26497312263885,4.641714698341978 L24.19702176370782,4.657886726625195 L24.128729747678022,4.671570164992964 L24.060189625994564,4.682746469227842 L23.991494286342977,4.69140049285784 L23.92273682676498,4.697520507683386 L23.85401042948912,4.701098219671753 L23.785408234647363,4.702128780197375 L23.71702321404871,4.7006107926128635 L23.648948045180916,4.696546314141783 L23.58127498561114,4.689940853090636 L23.514095747955622,4.680803361383844 L23.447501375587912,4.669146222431814 L23.3815821192541,4.654985234348565 L23.316427314762223,4.638339588541637 L23.252125261911612,4.619231843703299 L23.188763104826293,4.597687895238322 L23.126426713854578,4.573736940169721 L23.065200569194925,4.5474114375700525 L23.00516764640577,4.518747064571878 L22.94640930395449,4.487782668017015 L22.889005172957898,4.454560211810099 L22.833033049263708,4.419124720047809 L22.778568788019196,4.381524216000819 L22.72568620086997,4.341809657031186 L22.674456955928147,4.30003486553336 L22.624950480645538,4.256256455992424 " />
			<path d="M22.624950480645527,4.256256455992412 L22.580271287582224,4.21355519112788 L22.53721042092691,4.169204110628947 L22.495818918661286,4.123255781705946 L22.456145840149432,4.075764664711228 L22.418238207990104,4.0267870485899095 L22.382140952283102,3.9763809841632876 L22.347896857375773,3.9246062153239807 L22.315546511152775,3.8715241082243588 " />
			<path d="M24.857398035988943,1.110366592672583 L24.91297001663429,1.1382235480345178 L24.96739548767104,1.168075730983395 L25.020609941196547,1.1998877591573323 L25.072550304669164,1.2336219272838231 L25.123155015665144,1.2692382518699865 L25.17236409484561,1.3066945185930874 L25.22011921704719,1.3459463323351473 L25.266363780412046,1.3869471698023468 " />
			<path d="M25.266363780412053,1.386947169802352 L25.329576935190676,1.448332195167112 L25.38945610594281,1.513025547325197 L25.445857038501316,1.580871374324789 L25.498643858079525,1.6517062296260534 L25.54768939660549,1.725359465858169 L25.592875499081025,1.8016536459237915 L25.634093308227428,1.8804049704605614 L25.671243526732212,1.9614237206298692 L25.704236656465024,2.0445147151661525 L25.732993214086484,2.12947778058566 L25.7574439225305,2.216108233421912 L25.777529877898804,2.304197373326094 L25.79320269136559,2.39353298584448 L25.80442460575044,2.483899853661638 L25.811168586478683,2.5750802750777932 L25.813418386710037,2.666854588471283 " />
			<path d="M35.39168123892155,1.873279078593903 L35.39041561510908,1.9423665931649543 L35.38662045888406,2.0115701964151156 L35.380300913559196,2.080796101488181 L35.3714655435771,2.149950491303822 L35.360126322903504,2.2189396457013952 L35.34629861879978,2.2876700684523854 L35.330001170996745,2.3560486139693837 L35.31125606629799,2.423982613539855 L35.29008870864721,2.4913800009136287 L35.26652778469993,2.5581494370739266 L35.240605224946506,2.62420043402281 L35.212356160438944,2.6894434774133016 L35.181818875180184,2.753790147861995 L35.14903475424047,2.8171532407777224 L35.11404822767102,2.8794468845439036 L35.076906710291034,2.9405866568944115 L35.0376605374297,3.0004896993252252 L34.99636289671017,3.059074829386833 L34.95306975596807,3.116262650705189 L34.90783978740219,3.1719756605821274 L34.860734288060044,3.226138355029402 L34.811817096766305,3.2786773310940256 L34.7611545076064,3.32952138633621 L34.70881518008274,3.3786016153251075 L34.65487004606526,3.4258515030215806 L34.59939221366235,3.4712070149214256 L34.54245686814249,3.514606683836908 L34.48414117004086,3.555991693198993 L34.424524150589015,3.59530595676737 L34.36368660460931,3.6324961946402556 L34.30171098101927,3.667512005460959 L34.23868127109427,3.7003059347233536 L34.17468289464,3.7308335390836858 L34.10980258422885,3.7590534465915635 L34.04412826765734,3.7849274127585018 L33.97774894878357,3.8084203723880323 L33.910754586906506,3.8295004870971323 L33.84323597485036,3.8481391884645904 L33.77528461591933,3.864311216747806 L33.70699259988954,3.8779946551155757 L33.63845247820608,3.8891709593504533 L33.569757138554486,3.8978249829804508 L33.50099967897649,3.903944997805998 L33.43227328170063,3.9075227097943643 L33.36367108685887,3.9085532703199863 L33.29528606626022,3.9070352827354755 L33.22721089739243,3.9029708042643945 L33.159537837822654,3.8963653432132483 L33.09235860016713,3.887227851506456 L33.02576422779942,3.875570712554426 L32.959844971465614,3.861409724471177 L32.89469016697374,3.844764078664248 L32.830388114123124,3.825656333825911 L32.7670259570378,3.804112385360934 L32.70468956606609,3.780161430292333 L32.64346342140644,3.7538359276926645 L32.58343049861728,3.72517155469449 L32.524672156166005,3.6942071581396263 L32.46726802516941,3.660984701932711 L32.41129590147522,3.625549210170421 L32.35683164023071,3.5879487061234308 L32.30394905308148,3.548234147153798 L32.25271980813966,3.5064593556559713 L32.203213332857054,3.4626809461150354 " />
			<path d="M32.20321333285704,3.4626809461150243 L32.15853413979374,3.419979681250492 L32.11547327313843,3.3756286007515586 L32.0740817708728,3.3296802718285585 L32.03440869236095,3.2821891548338407 L31.996501060201616,3.2332115387125233 L31.960403804494618,3.1828054742859013 L31.92615970958729,3.1310307054465953 L31.89380936336429,3.077948598346974 " />
			<path d="M34.43566088820045,0.3167910827951925 L34.4912328688458,0.34464803815712775 L34.54565833988255,0.37450022110600445 L34.598872793408056,0.40631224927994225 L34.65081315688067,0.44004641740643335 L34.70141786787666,0.47566274199259695 L34.75062694705712,0.5131190087156983 L34.79838206925871,0.5523708224577584 L34.84462663262356,0.5933716599249583 " />
			<path d="M34.844626632623566,0.5933716599249637 L34.90783978740219,0.6547566852897235 L34.96771895815432,0.7194500374478086 L35.02411989071283,0.7872958644474006 L35.07690671029104,0.858130719748665 L35.125952248817,0.9317839559807806 L35.17113835129254,1.008078136046403 L35.212356160438944,1.086829460583173 L35.24950637894373,1.1678482107524808 L35.28249950867654,1.2509392052887638 L35.31125606629799,1.3359022707082717 L35.335706774742015,1.4225327235445235 L35.355792730110316,1.5106218634487054 L35.3714655435771,1.5999574759670914 L35.38268745796196,1.6903243437842495 L35.389431438690195,1.7815047652004048 L35.39168123892155,1.8732790785938946 " />
			<path d="M6.656892682287003,13.865086783407778 L6.655627058474531,13.934174297978828 L6.651831902249516,14.00337790122899 L6.6455123569246535,14.072603806302055 L6.6366769869425575,14.141758196117696 L6.625337766268962,14.21074735051527 L6.6115100621652365,14.27947777326626 L6.5952126143621985,14.347856318783258 L6.576467509663451,14.415790318353729 L6.555300152012668,14.483187705727502 L6.531739228065385,14.5499571418878 L6.5058166683119625,14.616008138836683 L6.477567603804396,14.681251182227175 L6.447030318545637,14.74559785267587 L6.414246197605925,14.808960945591597 L6.379259671036475,14.871254589357777 L6.342118153656492,14.932394361708285 L6.302871980795157,14.9922974041391 L6.261574340075625,15.050882534200706 L6.218281199333531,15.108070355519063 L6.173051230767644,15.163783365396002 L6.125945731425502,15.217946059843277 L6.077028540131762,15.2704850359079 L6.026365950971853,15.321329091150083 L5.974026623448194,15.370409320138982 L5.920081489430715,15.417659207835454 L5.8646036570278035,15.4630147197353 L5.807668311507942,15.506414388650782 L5.749352613406314,15.547799398012867 L5.68973559395447,15.587113661581244 L5.628898047974765,15.62430389945413 L5.566922424384725,15.659319710274833 L5.503892714459728,15.692113639537228 L5.439894338005453,15.72264124389756 L5.375014027594311,15.750861151405438 L5.309339711022796,15.776735117572375 L5.2429603921490235,15.800228077201906 L5.175966030271963,15.821308191911006 L5.108447418215816,15.839946893278464 L5.040496059284789,15.85611892156168 L4.972204043254991,15.86980235992945 L4.903663921571531,15.880978664164328 L4.834968581919944,15.889632687794325 L4.766211122341945,15.895752702619871 L4.6974847250660865,15.899330414608238 L4.628882530224331,15.90036097513386 L4.560497509625675,15.898842987549349 L4.492422340757885,15.894778509078268 L4.42474928118811,15.888173048027122 L4.357570043532589,15.87903555632033 L4.290975671164879,15.8673784173683 L4.2250564148310685,15.853217429285051 L4.15990161033919,15.836571783478123 L4.095599557488579,15.817464038639784 L4.032237400403259,15.795920090174809 L3.9699010094315446,15.771969135106207 L3.9086748647718927,15.745643632506539 L3.848641941982739,15.716979259508363 L3.789883599531458,15.6860148629535 L3.732479468534866,15.652792406746585 L3.676507344840676,15.617356914984295 L3.622043083596164,15.579756410937305 L3.569160496446937,15.540041851967672 L3.5179312515051144,15.498267060469846 L3.4684247762225073,15.454488650928909 " />
			<path d="M3.468424776222495,15.454488650928898 L3.4237455831591914,15.411787386064365 L3.38068471650388,15.367436305565432 L3.3392932142382543,15.32148797664243 L3.299620135726399,15.273996859647713 L3.2617125035670713,15.225019243526395 L3.2256152478600697,15.174613179099772 L3.1913711529527413,15.122838410260467 L3.1590208067297443,15.069756303160844 " />
			<path d="M5.700872331565909,12.308598787609068 L5.756444312211255,12.336455742971003 L5.810869783248009,12.366307925919878 L5.864084236773512,12.398119954093817 L5.91602460024613,12.431854122220308 L5.966629311242111,12.467470446806471 L6.015838390422577,12.504926713529573 L6.063593512624159,12.544178527271633 L6.109838075989015,12.585179364738833 " />
			<path d="M6.109838075989021,12.585179364738838 L6.173051230767643,12.646564390103597 L6.232930401519777,12.711257742261683 L6.289331334078285,12.779103569261274 L6.342118153656493,12.84993842456254 L6.3911636921824595,12.923591660794655 L6.4363497946579935,12.999885840860276 L6.477567603804396,13.078637165397048 L6.514717822309181,13.159655915566354 L6.547710952041993,13.242746910102637 L6.576467509663451,13.327709975522145 L6.600918218107466,13.414340428358397 L6.62100417347577,13.50242956826258 L6.6366769869425575,13.591765180780966 L6.64789890132741,13.682132048598124 L6.654642882055651,13.773312470014279 L6.656892682287003,13.865086783407769 " />
			<path d="M16.235155534498517,13.071511273530389 L16.233889910686045,13.140598788101439 L16.23009475446103,13.209802391351602 L16.223775209136168,13.279028296424666 L16.21493983915407,13.348182686240307 L16.203600618480476,13.41717184063788 L16.18977291437675,13.485902263388871 L16.173475466573713,13.554280808905869 L16.154730361874964,13.62221480847634 L16.133563004224182,13.689612195850113 L16.1100020802769,13.756381632010411 L16.084079520523478,13.822432628959294 L16.05583045601591,13.887675672349786 L16.025293170757152,13.95202234279848 L15.99250904981744,14.015385435714208 L15.957522523247988,14.077679079480388 L15.920381005868007,14.138818851830896 L15.881134833006671,14.19872189426171 L15.839837192287138,14.257307024323318 L15.796544051545045,14.314494845641674 L15.751314082979158,14.370207855518613 L15.704208583637016,14.424370549965888 L15.655291392343276,14.47690952603051 L15.604628803183367,14.527753581272695 L15.552289475659709,14.576833810261594 L15.49834434164223,14.624083697958065 L15.442866509239318,14.669439209857911 L15.385931163719455,14.712838878773393 L15.327615465617829,14.754223888135478 L15.267998446165985,14.793538151703855 L15.20716090018628,14.830728389576741 L15.145185276596239,14.865744200397444 L15.082155566671243,14.898538129659839 L15.018157190216968,14.92906573402017 L14.953276879805825,14.957285641528049 L14.88760256323431,14.983159607694986 L14.821223244360539,15.006652567324517 L14.754228882483478,15.027732682033617 L14.68671027042733,15.046371383401075 L14.618758911496302,15.062543411684292 L14.550466895466506,15.07622685005206 L14.481926773783044,15.087403154286939 L14.413231434131458,15.096057177916936 L14.344473974553459,15.102177192742483 L14.2757475772776,15.10575490473085 L14.207145382435845,15.106785465256472 L14.138760361837189,15.10526747767196 L14.0706851929694,15.10120299920088 L14.003012133399626,15.094597538149733 L13.935832895744102,15.085460046442941 L13.869238523376392,15.073802907490911 L13.803319267042582,15.059641919407662 L13.738164462550705,15.042996273600734 L13.673862409700094,15.023888528762395 L13.610500252614774,15.00234458029742 L13.548163861643058,14.978393625228819 L13.486937716983407,14.95206812262915 L13.426904794194254,14.923403749630975 L13.368146451742971,14.892439353076112 L13.31074232074638,14.859216896869196 L13.25477019705219,14.823781405106907 L13.200305935807679,14.786180901059916 L13.147423348658451,14.746466342090283 L13.096194103716629,14.704691550592457 L13.046687628434022,14.66091314105152 " />
			<path d="M13.04668762843401,14.660913141051509 L13.002008435370707,14.618211876186976 L12.958947568715393,14.573860795688043 L12.91755606644977,14.527912466765041 L12.877882987937914,14.480421349770324 L12.839975355778586,14.431443733649006 L12.803878100071584,14.381037669222383 L12.769634005164257,14.329262900383078 L12.737283658941259,14.276180793283455 " />
			<path d="M15.279135183777422,11.515023277731677 L15.334707164422769,11.542880233093612 L15.389132635459521,11.57273241604249 L15.442347088985025,11.604544444216428 L15.494287452457645,11.63827861234292 L15.544892163453625,11.673894936929083 L15.594101242634093,11.711351203652184 L15.641856364835673,11.750603017394244 L15.68810092820053,11.791603854861444 " />
			<path d="M15.688100928200535,11.79160385486145 L15.751314082979158,11.852988880226208 L15.811193253731291,11.917682232384294 L15.867594186289798,11.985528059383885 L15.920381005868007,12.05636291468515 L15.969426544393974,12.130016150917266 L16.01461264686951,12.206310330982888 L16.05583045601591,12.285061655519659 L16.092980674520696,12.366080405688965 L16.12597380425351,12.449171400225248 L16.154730361874964,12.534134465644756 L16.179181070318982,12.620764918481008 L16.199267025687284,12.70885405838519 L16.21493983915407,12.798189670903577 L16.226161753538925,12.888556538720735 L16.232905734267163,12.97973696013689 L16.235155534498517,13.07151127353038 " />
			<path d="M25.813418386710037,12.277935763653002 L25.81215276289756,12.347023278224052 L25.808357606672548,12.416226881474213 L25.802038061347687,12.48545278654728 L25.79320269136559,12.55460717636292 L25.781863470691995,12.623596330760494 L25.76803576658827,12.692326753511484 L25.75173831878523,12.760705299028482 L25.732993214086484,12.828639298598953 L25.711825856435702,12.896036685972726 L25.68826493248842,12.962806122133024 L25.662342372734994,13.028857119081907 L25.634093308227428,13.0941001624724 L25.603556022968668,13.158446832921094 L25.57077190202896,13.221809925836821 L25.535785375459508,13.284103569603001 L25.498643858079525,13.345243341953509 L25.45939768521819,13.405146384384324 L25.418100044498658,13.46373151444593 L25.374806903756564,13.520919335764287 L25.329576935190676,13.576632345641226 L25.282471435848535,13.6307950400885 L25.233554244554792,13.683334016153124 L25.182891655394883,13.734178071395307 L25.130552327871225,13.783258300384205 L25.076607193853746,13.830508188080678 L25.021129361450836,13.875863699980524 L24.964194015930975,13.919263368896006 L24.905878317829348,13.96064837825809 L24.846261298377502,13.999962641826468 L24.785423752397797,14.037152879699354 L24.723448128807757,14.072168690520057 L24.66041841888276,14.104962619782452 L24.596420042428484,14.135490224142783 L24.531539732017343,14.163710131650662 L24.46586541544583,14.1895840978176 L24.399486096572055,14.21307705744713 L24.332491734694994,14.23415717215623 L24.26497312263885,14.252795873523688 L24.19702176370782,14.268967901806905 L24.128729747678022,14.282651340174674 L24.060189625994564,14.293827644409552 L23.991494286342977,14.30248166803955 L23.92273682676498,14.308601682865095 L23.85401042948912,14.312179394853462 L23.785408234647363,14.313209955379085 L23.71702321404871,14.311691967794573 L23.648948045180916,14.307627489323492 L23.58127498561114,14.301022028272346 L23.514095747955622,14.291884536565554 L23.447501375587912,14.280227397613524 L23.3815821192541,14.266066409530275 L23.316427314762223,14.249420763723347 L23.252125261911612,14.23031301888501 L23.188763104826293,14.208769070420033 L23.126426713854578,14.184818115351431 L23.065200569194925,14.158492612751763 L23.00516764640577,14.129828239753587 L22.94640930395449,14.098863843198725 L22.889005172957898,14.065641386991809 L22.833033049263708,14.03020589522952 L22.778568788019196,13.99260539118253 L22.72568620086997,13.952890832212896 L22.674456955928147,13.911116040715068 L22.624950480645538,13.867337631174134 " />
			<path d="M22.624950480645527,13.867337631174122 L22.580271287582224,13.82463636630959 L22.53721042092691,13.780285285810656 L22.495818918661286,13.734336956887656 L22.456145840149432,13.686845839892937 L22.418238207990104,13.63786822377162 L22.382140952283102,13.587462159344998 L22.347896857375773,13.53568739050569 L22.315546511152775,13.482605283406068 " />
			<path d="M24.857398035988943,10.721447767854292 L24.91297001663429,10.749304723216227 L24.96739548767104,10.779156906165104 L25.020609941196547,10.81096893433904 L25.072550304669164,10.844703102465532 L25.123155015665144,10.880319427051695 L25.17236409484561,10.917775693774797 L25.22011921704719,10.957027507516857 L25.266363780412046,10.998028344984057 " />
			<path d="M25.266363780412053,10.998028344984062 L25.329576935190676,11.059413370348821 L25.38945610594281,11.124106722506907 L25.445857038501316,11.1919525495065 L25.498643858079525,11.262787404807764 L25.54768939660549,11.336440641039879 L25.592875499081025,11.4127348211055 L25.634093308227428,11.491486145642272 L25.671243526732212,11.572504895811578 L25.704236656465024,11.655595890347861 L25.732993214086484,11.74055895576737 L25.7574439225305,11.827189408603621 L25.777529877898804,11.915278548507803 L25.79320269136559,12.00461416102619 L25.80442460575044,12.094981028843348 L25.811168586478683,12.186161450259503 L25.813418386710037,12.277935763652993 " />
			<path d="M35.39168123892155,11.484360253775613 L35.39041561510908,11.553447768346663 L35.38662045888406,11.622651371596824 L35.380300913559196,11.69187727666989 L35.3714655435771,11.76103166648553 L35.360126322903504,11.830020820883105 L35.34629861879978,11.898751243634095 L35.330001170996745,11.967129789151093 L35.31125606629799,12.035063788721564 L35.29008870864721,12.102461176095337 L35.26652778469993,12.169230612255635 L35.240605224946506,12.235281609204518 L35.212356160438944,12.30052465259501 L35.181818875180184,12.364871323043705 L35.14903475424047,12.428234415959432 L35.11404822767102,12.490528059725612 L35.076906710291034,12.55166783207612 L35.0376605374297,12.611570874506935 L34.99636289671017,12.670156004568542 L34.95306975596807,12.727343825886898 L34.90783978740219,12.783056835763837 L34.860734288060044,12.837219530211112 L34.811817096766305,12.889758506275735 L34.7611545076064,12.940602561517919 L34.70881518008274,12.989682790506816 L34.65487004606526,13.03693267820329 L34.59939221366235,13.082288190103135 L34.54245686814249,13.125687859018617 L34.48414117004086,13.167072868380702 L34.424524150589015,13.206387131949079 L34.36368660460931,13.243577369821965 L34.30171098101927,13.278593180642668 L34.23868127109427,13.311387109905063 L34.17468289464,13.341914714265394 L34.10980258422885,13.370134621773273 L34.04412826765734,13.39600858794021 L33.97774894878357,13.419501547569741 L33.910754586906506,13.440581662278841 L33.84323597485036,13.459220363646299 L33.77528461591933,13.475392391929516 L33.70699259988954,13.489075830297285 L33.63845247820608,13.500252134532163 L33.569757138554486,13.50890615816216 L33.50099967897649,13.515026172987707 L33.43227328170063,13.518603884976073 L33.36367108685887,13.519634445501696 L33.29528606626022,13.518116457917184 L33.22721089739243,13.514051979446103 L33.159537837822654,13.507446518394957 L33.09235860016713,13.498309026688165 L33.02576422779942,13.486651887736135 L32.959844971465614,13.472490899652886 L32.89469016697374,13.455845253845958 L32.830388114123124,13.43673750900762 L32.7670259570378,13.415193560542644 L32.70468956606609,13.391242605474043 L32.64346342140644,13.364917102874374 L32.58343049861728,13.336252729876199 L32.524672156166005,13.305288333321336 L32.46726802516941,13.27206587711442 L32.41129590147522,13.23663038535213 L32.35683164023071,13.19902988130514 L32.30394905308148,13.159315322335507 L32.25271980813966,13.11754053083768 L32.203213332857054,13.073762121296745 " />
			<path d="M32.20321333285704,13.073762121296733 L32.15853413979374,13.031060856432202 L32.11547327313843,12.986709775933267 L32.0740817708728,12.940761447010267 L32.03440869236095,12.89327033001555 L31.996501060201616,12.844292713894232 L31.960403804494618,12.793886649467611 L31.92615970958729,12.742111880628304 L31.89380936336429,12.689029773528683 " />
			<path d="M34.43566088820046,9.927872257976905 L34.491232868845806,9.95572921333884 L34.54565833988256,9.985581396287717 L34.59887279340806,10.017393424461654 L34.65081315688068,10.051127592588145 L34.70141786787666,10.086743917174308 L34.75062694705712,10.124200183897408 L34.79838206925871,10.163451997639468 L34.84462663262356,10.204452835106668 " />
			<path d="M34.844626632623566,10.204452835106673 L34.90783978740219,10.265837860471432 L34.96771895815432,10.330531212629518 L35.02411989071283,10.39837703962911 L35.07690671029104,10.469211894930375 L35.125952248817,10.54286513116249 L35.17113835129254,10.619159311228112 L35.212356160438944,10.697910635764883 L35.24950637894373,10.77892938593419 L35.28249950867654,10.862020380470472 L35.31125606629799,10.94698344588998 L35.335706774742015,11.033613898726232 L35.355792730110316,11.121703038630415 L35.3714655435771,11.211038651148801 L35.38268745796196,11.301405518965959 L35.389431438690195,11.392585940382114 L35.39168123892155,11.484360253775604 " />
			<path d="M5.391468362073158,2.312785264659306 L6.109838075989021,2.9740981895571297 " />
			<path d="M2.7500550623066307,5.182094550849366 L3.4684247762224945,5.84340747574719 " />
			<path d="M14.969731214284671,1.5192097547819172 L15.688100928200535,2.1805226796797412 " />
			<path d="M12.328317914518147,4.388519040971977 L13.046687628434011,5.049831965869801 " />
			<path d="M24.547994066496187,0.7256342449045288 L25.26636378041205,1.3869471698023528 " />
			<path d="M21.906580766729665,3.5949435310945885 L22.624950480645527,4.256256455992412 " />
			<path d="M34.12625691870771,-0.06794126497286013 L34.84462663262357,0.5933716599249639 " />
			<path d="M31.484843618941177,2.8013680212172005 L32.20321333285704,3.4626809461150243 " />
			<path d="M5.391468362073158,11.923866439841014 L6.109838075989021,12.585179364738838 " />
			<path d="M2.75005506230663,14.793175726031071 L3.468424776222494,15.454488650928896 " />
			<path d="M14.969731214284671,11.130290929963625 L15.688100928200535,11.79160385486145 " />
			<path d="M12.328317914518147,13.999600216153684 L13.046687628434011,14.660913141051509 " />
			<path d="M24.547994066496187,10.336715420086236 L25.26636378041205,10.99802834498406 " />
			<path d="M21.906580766729665,13.206024706276295 L22.624950480645527,13.86733763117412 " />
			<path d="M34.12625691870771,9.543139910208847 L34.84462663262357,10.204452835106672 " />
			<path d="M31.484843618941177,12.412449196398907 L32.20321333285704,13.073762121296731 " />

       </g>

       <!-- solid lines -->
       <g  stroke="rgb(0,0,0)" fill="none">
			<path d="M-0.7183697139158636,-0.6613129248978239 L-0.7183697139158641,37.78301177582901 " />
			<path d="M-5.551115123125782e-16,38.44432470072683 L-0.7183697139158642,37.78301177582901 " />
			<path d="M38.313051408846064,-3.174302039509554 L37.5946816949302,-3.8356149644073776 " />
			<path d="M-0.7183697139158636,-0.6613129248978239 L37.5946816949302,-3.8356149644073776 " />
			<path d="M-0.7183697139158641,37.78301177582901 L37.5946816949302,34.608709736319454 " />
			<path d="M37.5946816949302,-3.8356149644073776 L37.5946816949302,34.608709736319454 " />
			<path d="M5.9385229683711405,3.592692683328245 L5.936273168139787,3.5009183699347455 L5.929529187411546,3.409737948518591 L5.918307273026694,3.319371080701434 L5.902634459559907,3.230035468183048 L5.882548504191604,3.1419463282788658 L5.858097795747588,3.0553158754426137 L5.82934123812613,2.970352810023106 L5.7963481083933175,2.887261815486824 L5.759197889888534,2.8062430653175165 L5.717980080742131,2.7274917407807466 L5.672793978266597,2.651197560715124 L5.62374843974063,2.577544324483007 L5.570961620162421,2.5067094691817413 L5.514560687603915,2.4388636421821497 L5.454681516851781,2.3741702900240655 L5.391468362073169,2.3127852646593166 " />
			<path d="M5.391468362073157,2.312785264659305 L5.325073509294725,2.254856447990667 L5.2556569095323304,2.2005233956114694 L5.183385793454976,2.149917000603909 L5.108434268511494,2.1031591782061536 L5.030982899490452,2.060362572107862 L4.951218273523759,2.0216302830816657 L4.869332550581928,1.9870556206043752 L4.785523000543865,1.9567218780662818 L4.699991527956462,1.9307021321100817 L4.612944185628856,1.9090590665828444 L4.524590678233159,1.8918448215251327 L4.435143857107541,1.8791008675610812 L4.344819207478711,1.8708579059920276 L4.253834329339128,1.86713579483439 L4.162408413229565,1.8679435009799654 L4.070761712189894,1.8732790785939024 L3.9791150111502236,1.883129673802388 L3.8876890950406606,1.8974715556587545 L3.796704216901078,1.9162701733134089 L3.706379567272247,1.9394802392498574 L3.616932746146629,1.9670458383862974 L3.528579238750932,1.9989005627799479 L3.441531896423326,2.0349676716095995 L3.3560004238359236,2.075160276050976 L3.272190873797861,2.1193815485995238 L3.1903051508560294,2.1675249563363446 L3.110540524889337,2.2194745175753376 L3.033089155868295,2.275105081273234 L2.9581376309248126,2.3342826285294223 L2.885866514847458,2.396864595449223 L2.8164499150850633,2.462700216592792 L2.7500550623066315,2.531630888182276 L2.6868419075280086,2.6034905501922023 L2.6269627367758748,2.678106086402625 L2.570561804217368,2.7552977414512654 L2.5177749846391597,2.8348795538799196 L2.4687294461131932,2.9166598041319043 L2.423543343637659,3.0004414764212584 L2.3823255344912564,3.0860227333610286 L2.345175315986472,3.1731974022072142 L2.3121821862536596,3.2617554715469668 L2.2834256286322017,3.3514835972344743 L2.2589749201881855,3.4421656163557013 L2.238888964819882,3.533583067983777 L2.2232161513530952,3.625515719470507 L2.211994236968243,3.717742097006112 L2.205250256240002,3.8100400191690293 L2.2030004560086494,3.9021871321804262 L2.205250256240002,3.9939614455739245 L2.211994236968243,4.08514186699008 L2.2232161513530952,4.175508734807238 L2.238888964819882,4.2648443473256235 L2.258974920188186,4.352933487229806 L2.2834256286322017,4.439563940066058 L2.3121821862536596,4.524527005485566 L2.345175315986472,4.607618000021849 L2.3823255344912564,4.688636750191156 L2.423543343637659,4.7673880747279265 L2.4687294461131932,4.843682254793549 L2.5177749846391597,4.917335491025664 L2.570561804217368,4.988170346326928 L2.626962736775875,5.056016173326521 L2.686841907528009,5.120709525484606 L2.7500550623066258,5.18209455084936 " />
			<path d="M2.7500550623066315,5.182094550849365 L2.79956153758925,5.225872960390312 L2.8507907825310728,5.2676477518881395 L2.903673369680301,5.307362310857773 L2.958137630924813,5.344962814904762 L3.0141097546190023,5.380398306667052 L3.0715138856155937,5.413620762873968 L3.1302722280668744,5.444585159428831 L3.1903051508560294,5.473249532427006 L3.251531295515681,5.499575035026674 L3.313867686487396,5.523525990095275 L3.377229843572715,5.545069938560252 L3.4415318964233257,5.564177683398589 L3.506686700915203,5.580823329205518 L3.5726059572490145,5.594984317288767 L3.6392003296167257,5.606641456240798 L3.7063795672722466,5.6157789479475895 L3.7740526268420203,5.622384408998736 L3.842127795709811,5.626448887469817 L3.9105128163084686,5.627966875054328 L3.9791150111502236,5.626936314528706 L4.047841408426081,5.623358602540339 L4.11659886800408,5.617238587714793 L4.185294207655666,5.608584564084795 L4.253834329339127,5.597408259849917 L4.322126345368925,5.583724821482148 L4.390077704299952,5.5675527931989315 L4.457596316356099,5.548914091831474 L4.524590678233159,5.5278339771223735 L4.590969997106932,5.504341017492844 L4.656644313678447,5.4784670513259055 L4.7215246240895885,5.450247143818027 L4.785523000543864,5.419719539457695 L4.84855271046886,5.3869256101953 L4.910528334058901,5.351909799374598 L4.971365880038606,5.314719561501713 L5.03098289949045,5.275405297933335 L5.0892985975920775,5.23402028857125 L5.146233943111939,5.190620619655768 L5.201711775514852,5.145265107755923 L5.2556569095323304,5.09801522005945 L5.307996237055988,5.048934991070552 L5.358658826215898,4.998090935828367 L5.407576017509638,4.945551959763744 L5.45468151685178,4.8913892653164694 L5.499911485417667,4.835676255439532 L5.543204626159762,4.778488434121175 L5.5845022668792925,4.719903304059567 L5.623748439740629,4.6600002616287535 L5.660889957120611,4.5988604892782465 L5.6958764836900615,4.5365668455120645 L5.7286606046297734,4.473203752596337 L5.759197889888533,4.408857082147644 L5.787446954396099,4.343614038757152 L5.813369514149522,4.277563041808269 L5.836930438096805,4.210793605647972 L5.858097795747588,4.143396218274197 L5.876842900446335,4.075462218703726 L5.893140348249373,4.007083673186727 L5.906968052353099,3.9383532504357373 L5.918307273026694,3.869364096038164 L5.92714264300879,3.800209706222523 L5.933462188333653,3.730983801149458 L5.9372573445586685,3.6617801978992954 L5.9385229683711405,3.592692683328262 " />
			<path d="M15.516785820582653,2.799117173450857 L15.5145360203513,2.7073428600573575 L15.507792039623059,2.616162438641203 L15.496570125238208,2.525795570824046 L15.48089731177142,2.43645995830566 L15.460811356403116,2.3483708184014778 L15.436360647959102,2.2617403655652257 L15.407604090337644,2.176777300145718 L15.374610960604832,2.093686305609436 L15.337460742100047,2.0126675554401285 L15.296242932953644,1.9339162309033584 L15.251056830478111,1.8576220508377361 L15.202011291952143,1.783968814605619 L15.149224472373934,1.7131339593043535 L15.092823539815427,1.645288132304762 L15.032944369063294,1.5805947801466775 L14.969731214284684,1.5192097547819285 " />
			<path d="M14.969731214284671,1.5192097547819172 L14.90333636150624,1.4612809381132787 L14.833919761743843,1.4069478857340816 L14.761648645666488,1.3563414907265208 L14.686697120723007,1.3095836683287656 L14.609245751701964,1.266787062230474 L14.529481125735273,1.2280547732042775 L14.447595402793441,1.1934801107269872 L14.36378585275538,1.1631463681888938 L14.278254380167976,1.1371266222326937 L14.19120703784037,1.1154835567054564 L14.102853530444673,1.0982693116477447 L14.013406709319055,1.0855253576836932 L13.923082059690223,1.0772823961146396 L13.83209718155064,1.073560284957002 L13.740671265441078,1.0743679911025774 L13.649024564401408,1.0797035687165144 L13.557377863361737,1.089554163925 L13.465951947252174,1.1038960457813665 L13.374967069112591,1.1226946634360209 L13.28464241948376,1.1459047293724693 L13.195195598358142,1.1734703285089094 L13.106842090962445,1.2053250529025599 L13.019794748634839,1.2413921617322115 L12.934263276047437,1.2815847661735884 L12.850453726009373,1.3258060387221355 L12.768568003067543,1.3739494464589566 L12.68880337710085,1.4258990076979496 L12.611352008079809,1.4815295713958458 L12.536400483136326,1.5407071186520345 L12.464129367058971,1.603289085571835 L12.394712767296577,1.669124706715404 L12.328317914518145,1.7380553783048882 L12.265104759739522,1.8099150403148143 L12.205225588987389,1.884530576525237 L12.148824656428882,1.9617222315738774 L12.096037836850673,2.0413040440025316 L12.046992298324707,2.1230842942545163 L12.001806195849172,2.2068659665438703 L11.960588386702769,2.2924472234836406 L11.923438168197986,2.3796218923298262 L11.890445038465172,2.4681799616695788 L11.861688480843714,2.5579080873570863 L11.8372377723997,2.6485901064783133 L11.817151817031395,2.740007558106389 L11.801479003564609,2.831940209593119 L11.790257089179757,2.924166587128724 L11.783513108451515,3.0164645092916413 L11.781263308220163,3.1086116223030382 L11.783513108451515,3.2003859356965365 L11.790257089179757,3.291566357112692 L11.801479003564609,3.38193322492985 L11.817151817031396,3.4712688374482354 L11.8372377723997,3.559357977352418 L11.861688480843714,3.6459884301886696 L11.890445038465174,3.7309514956081773 L11.923438168197986,3.8140424901444607 L11.96058838670277,3.895061240313768 L12.001806195849172,3.9738125648505385 L12.046992298324707,4.05010674491616 L12.096037836850673,4.123759981148276 L12.14882465642888,4.194594836449541 L12.205225588987389,4.262440663449133 L12.265104759739522,4.327134015607218 L12.32831791451814,4.388519040971972 " />
			<path d="M12.328317914518145,4.388519040971977 L12.377824389800763,4.432297450512924 L12.429053634742587,4.474072242010751 L12.481936221891814,4.513786800980385 L12.536400483136326,4.551387305027374 L12.592372606830516,4.586822796789664 L12.649776737827107,4.620045252996579 L12.708535080278388,4.651009649551443 L12.768568003067543,4.679674022549618 L12.829794147727194,4.705999525149286 L12.89213053869891,4.729950480217887 L12.955492695784228,4.751494428682864 L13.019794748634839,4.770602173521201 L13.084949553126716,4.78724781932813 L13.150868809460528,4.801408807411379 L13.21746318182824,4.813065946363409 L13.28464241948376,4.822203438070202 L13.352315479053534,4.8288088991213485 L13.420390647921325,4.8328733775924295 L13.488775668519983,4.83439136517694 L13.557377863361737,4.833360804651318 L13.626104260637595,4.829783092662952 L13.694861720215593,4.823663077837404 L13.76355705986718,4.815009054207407 L13.83209718155064,4.803832749972529 L13.900389197580438,4.79014931160476 L13.968340556511466,4.773977283321544 L14.035859168567612,4.755338581954087 L14.102853530444673,4.734258467244986 L14.169232849318446,4.710765507615456 L14.234907165889961,4.684891541448517 L14.299787476301102,4.65667163394064 L14.363785852755377,4.626144029580308 L14.426815562680375,4.593350100317913 L14.488791186270415,4.558334289497209 L14.54962873225012,4.521144051624324 L14.609245751701964,4.481829788055947 L14.667561449803591,4.440444778693862 L14.724496795323454,4.397045109778379 L14.779974627726364,4.351689597878535 L14.833919761743843,4.304439710182062 L14.8862590892675,4.255359481193164 L14.93692167842741,4.20451542595098 L14.985838869721151,4.151976449886356 L15.032944369063294,4.097813755439082 L15.07817433762918,4.042100745562143 L15.121467478371274,3.984912924243787 L15.162765119090807,3.9263277941821793 L15.202011291952143,3.8664247517513655 L15.239152809332124,3.805284979400858 L15.274139335901575,3.742991335634677 L15.306923456841286,3.679628242718949 L15.337460742100046,3.615281572270256 L15.365709806607612,3.550038528879764 L15.391632366361035,3.4839875319308806 L15.415193290308318,3.417218095770583 L15.436360647959102,3.349820708396809 L15.455105752657849,3.281886708826338 L15.471403200460887,3.2135081633093394 L15.485230904564611,3.1447777405583492 L15.496570125238208,3.075788586160776 L15.505405495220304,3.006634196345135 L15.511725040545166,2.93740829127207 L15.515520196770181,2.8682046880219074 L15.516785820582653,2.799117173450874 " />
			<path d="M25.095048672794174,2.005541663573468 L25.09279887256282,1.9137673501799686 L25.08605489183458,1.8225869287638141 L25.074832977449727,1.732220060946657 L25.05916016398294,1.642884448428271 L25.039074208614636,1.5547953085240889 L25.01462350017062,1.4681648556878368 L24.985866942549162,1.3832017902683291 L24.95287381281635,1.300110795732047 L24.915723594311565,1.2190920455627396 L24.874505785165162,1.1403407210259695 L24.82931968268963,1.0640465409603472 L24.780274144163663,0.9903933047282301 L24.727487324585454,0.9195584494269646 L24.671086392026947,0.851712622427373 L24.611207221274814,0.7870192702692886 L24.5479940664962,0.7256342449045396 " />
			<path d="M24.54799406649619,0.7256342449045283 L24.481599213717757,0.6677054282358899 L24.412182613955363,0.6133723758566927 L24.33991149787801,0.5627659808491319 L24.264959972934527,0.5160081584513767 L24.187508603913486,0.4732115523530851 L24.107743977946793,0.4344792633268886 L24.025858255004962,0.39990460084959834 L23.942048704966897,0.36957085831150494 L23.856517232379495,0.3435511123553048 L23.76946989005189,0.3219080468280675 L23.681116382656192,0.30469380177035577 L23.591669561530576,0.2919498478063043 L23.501344911901743,0.2837068862372507 L23.41036003376216,0.27998477507961317 L23.3189341176526,0.2807924812251885 L23.227287416612928,0.2861280588391255 L23.135640715573256,0.29597865404761103 L23.044214799463695,0.31032053590397757 L22.953229921324112,0.32911915355863197 L22.86290527169528,0.35232921949508045 L22.773458450569663,0.3798948186315205 L22.685104943173965,0.41174954302517097 L22.59805760084636,0.44781665185482256 L22.51252612825896,0.4880092562961995 L22.428716578220893,0.5322305288447466 L22.346830855279062,0.5803739365815677 L22.26706622931237,0.6323234978205607 L22.18961486029133,0.687954061518457 L22.114663335347846,0.7471316087746456 L22.04239221927049,0.809713575694446 L21.972975619508098,0.8755491968380151 L21.906580766729665,0.9444798684274993 L21.84336761195104,1.0163395304374254 L21.78348844119891,1.090955066647848 L21.727087508640402,1.1681467216964885 L21.674300689062193,1.2477285341251427 L21.625255150536226,1.3295087843771272 L21.580069048060693,1.4132904566664815 L21.53885123891429,1.4988717136062517 L21.501701020409506,1.5860463824524373 L21.468707890676693,1.6746044517921899 L21.439951333055234,1.7643325774796974 L21.41550062461122,1.8550145966009244 L21.395414669242914,1.9464320482290003 L21.37974185577613,2.0383646997157303 L21.368519941391277,2.130591077251335 L21.361775960663035,2.2228889994142524 L21.35952616043168,2.3150361124256493 L21.361775960663035,2.4068104258191476 L21.368519941391277,2.497990847235303 L21.37974185577613,2.588357715052461 L21.395414669242914,2.6776933275708465 L21.41550062461122,2.765782467475029 L21.439951333055234,2.8524129203112807 L21.468707890676693,2.9373759857307884 L21.501701020409506,3.020466980267072 L21.53885123891429,3.101485730436379 L21.580069048060693,3.1802370549731496 L21.625255150536226,3.256531235038772 L21.674300689062193,3.3301844712708872 L21.727087508640402,3.401019326572152 L21.78348844119891,3.468865153571744 L21.84336761195104,3.533558505729829 L21.906580766729657,3.594943531094583 " />
			<path d="M21.906580766729665,3.5949435310945885 L21.956087242012284,3.638721940635535 L22.007316486954107,3.680496732133362 L22.060199074103334,3.720211291102996 L22.114663335347846,3.757811795149985 L22.170635459042035,3.7932472869122753 L22.228039590038627,3.826469743119191 L22.286797932489907,3.857434139674054 L22.346830855279062,3.8860985126722287 L22.408056999938715,3.912424015271897 L22.470393390910427,3.9363749703404984 L22.53375554799575,3.9579189188054755 L22.59805760084636,3.9770266636438123 L22.663212405338236,3.9936723094507407 L22.72913166167205,4.00783329753399 L22.79572603403976,4.01949043648602 L22.86290527169528,4.0286279281928135 L22.930578331265053,4.03523338924396 L22.998653500132843,4.039297867715041 L23.0670385207315,4.0408158552995515 L23.135640715573256,4.039785294773929 L23.204367112849113,4.036207582785563 L23.273124572427115,4.030087567960015 L23.341819912078698,4.021433544330018 L23.41036003376216,4.01025724009514 L23.478652049791958,3.9965738017273713 L23.546603408722984,3.980401773444155 L23.61412202077913,3.9617630720766974 L23.681116382656192,3.940682957367597 L23.747495701529964,3.917189997738067 L23.81317001810148,3.891316031571128 L23.87805032851262,3.8630961240632504 L23.942048704966897,3.8325685197029187 L24.005078414891894,3.799774590440524 L24.067054038481935,3.7647587796198203 L24.12789158446164,3.7275685417469355 L24.187508603913482,3.688254278178558 L24.245824302015112,3.6468692688164728 L24.302759647534973,3.6034695999009903 L24.358237479937884,3.5581140880011457 L24.412182613955363,3.510864200304673 L24.46452194147902,3.461783971315775 L24.51518453063893,3.4109399160735907 L24.564101721932673,3.358400940008967 L24.611207221274814,3.304238245561693 L24.6564371898407,3.2485252356847547 L24.699730330582796,3.191337414366398 L24.741027971302326,3.1327522843047904 L24.780274144163663,3.0728492418739766 L24.817415661543645,3.011709469523469 L24.852402188113093,2.949415825757288 L24.885186309052806,2.88605273284156 L24.915723594311565,2.821706062392867 L24.94397265881913,2.756463019002375 L24.969895218572553,2.6904120220534917 L24.993456142519836,2.623642585893194 L25.01462350017062,2.55624519851942 L25.033368604869366,2.4883111989489493 L25.049666052672407,2.4199326534319505 L25.063493756776133,2.3512022306809603 L25.074832977449727,2.282213076283387 L25.083668347431825,2.213058686467746 L25.089987892756685,2.143832781394681 L25.093783048981702,2.0746291781445185 L25.095048672794174,2.005541663573485 " />
			<path d="M34.67331152500569,1.21196615369608 L34.67106172477433,1.1201918403025801 L34.664317744046095,1.0290114188864257 L34.65309582966124,0.9386445510692685 L34.637423016194454,0.8493089385508825 L34.61733706082615,0.7612197986467003 L34.59288635238213,0.6745893458104483 L34.564129794760674,0.5896262803909406 L34.531136665027866,0.5065352858546585 L34.49398644652308,0.4255165356853512 L34.45276863737668,0.34676521114858105 L34.407582534901145,0.2704710310829588 L34.35853699637518,0.1968177948508416 L34.30575017679697,0.12598293954957618 L34.24934924423846,0.05813711254998455 L34.189470073486326,-0.006556239608099812 L34.12625691870772,-0.0679412649728488 " />
			<path d="M34.1262569187077,-0.06794126497286013 L34.05986206592927,-0.1258700816414986 L33.990445466166875,-0.18020313402069577 L33.91817435008952,-0.23080952902825658 L33.84322282514604,-0.27756735142601174 L33.765771456124995,-0.32036395752430336 L33.686006830158306,-0.3590962465504999 L33.60412110721647,-0.3936709090277901 L33.52031155717841,-0.4240046515658835 L33.43478008459101,-0.4500243975220837 L33.3477327422634,-0.47166746304932095 L33.25937923486771,-0.4888817081070327 L33.16993241374209,-0.5016256620710842 L33.079607764113256,-0.5098686236401377 L32.988622885973676,-0.5135907347977753 L32.89719696986411,-0.5127830286521999 L32.80555026882444,-0.5074474510382629 L32.71390356778477,-0.4975968558297774 L32.622477651675204,-0.4832549739734109 L32.531492773535625,-0.4644563563187565 L32.44116812390679,-0.441246290382308 L32.35172130278117,-0.4136806912458679 L32.26336779538548,-0.3818259668522175 L32.17632045305787,-0.3457588580225659 L32.09078898047047,-0.30556625358118894 L32.00697943043241,-0.2613449810326418 L31.925093707490575,-0.2132015732958208 L31.845329081523882,-0.1612520120568277 L31.76787771250284,-0.1056214483589315 L31.692926187559358,-0.04644390110274288 L31.620655071482002,0.016138065817057567 L31.551238471719607,0.08197368696062668 L31.484843618941177,0.15090435855011086 L31.421630464162554,0.22276402056003697 L31.36175129341042,0.2973795567704596 L31.305350360851914,0.3745712118191 L31.252563541273705,0.4541530242477544 L31.20351800274774,0.5359332744997387 L31.158331900272206,0.6197149467890929 L31.117114091125803,0.7052962037288633 L31.07996387262102,0.792470872575049 L31.046970742888206,0.8810289419148014 L31.018214185266746,0.9707570676023091 L30.993763476822732,1.061439086723536 L30.973677521454427,1.1528565383516118 L30.95800470798764,1.2447891898383419 L30.94678279360279,1.3370155673739466 L30.940038812874548,1.429313489536864 L30.937789012643194,1.5214606025482609 L30.940038812874548,1.6132349159417592 L30.94678279360279,1.7044153373579143 L30.95800470798764,1.7947822051750724 L30.973677521454427,1.8841178176934583 L30.993763476822732,1.9722069575976404 L31.018214185266746,2.0588374104338922 L31.046970742888206,2.1438004758534 L31.07996387262102,2.226891470389683 L31.117114091125803,2.307910220558991 L31.158331900272206,2.386661545095761 L31.20351800274774,2.4629557251613834 L31.252563541273705,2.5366089613934992 L31.305350360851914,2.6074438166947633 L31.36175129341042,2.675289643694356 L31.421630464162554,2.739982995852441 L31.48484361894117,2.801368021217195 " />
			<path d="M31.484843618941177,2.8013680212172005 L31.534350094223797,2.8451464307581467 L31.58557933916562,2.8869212222559737 L31.638461926314847,2.9266357812256074 L31.692926187559358,2.964236285272597 L31.748898311253548,2.9996717770348873 L31.80630244225014,3.0328942332418025 L31.86506078470142,3.0638586297966652 L31.925093707490575,3.09252300279484 L31.986319852150228,3.118848505394509 L32.04865624312194,3.14279946046311 L32.11201840020726,3.164343408928087 L32.17632045305787,3.183451153766424 L32.24147525754975,3.2000967995733527 L32.30739451388356,3.214257787656601 L32.37398888625127,3.225914926608632 L32.44116812390679,3.2350524183154246 L32.50884118347657,3.2416578793665707 L32.576916352344355,3.2457223578376517 L32.64530137294302,3.247240345422163 L32.71390356778477,3.2462097848965406 L32.78262996506063,3.242632072908174 L32.851387424638624,3.236512058082627 L32.920082764290214,3.2278580344526295 L32.988622885973676,3.216681730217752 L33.05691490200347,3.202998291849983 L33.124866260934496,3.1868262635667666 L33.192384872990644,3.168187562199309 L33.25937923486771,3.1471074474902085 L33.32575855374148,3.1236144878606784 L33.39143287031299,3.0977405216937397 L33.45631318072414,3.069520614185862 L33.52031155717841,3.0389930098255302 L33.58334126710341,3.0061990805631353 L33.645316890693444,2.971183269742432 L33.70615443667315,2.933993031869547 L33.765771456124995,2.8946787683011697 L33.824087154226625,2.8532937589390848 L33.881022499746486,2.809894090023602 L33.9365003321494,2.7645385781237573 L33.990445466166875,2.717288690427284 L34.04278479369054,2.668208461438386 L34.09344738285044,2.6173644061962023 L34.14236457414418,2.564825430131579 L34.189470073486326,2.5106627356843045 L34.23470004205221,2.4549497258073663 L34.277993182794305,2.3977619044890095 L34.31929082351384,2.339176774427402 L34.35853699637517,2.2792737319965877 L34.39567851375516,2.2181339596460807 L34.430665040324605,2.1558403158798995 L34.46344916126432,2.092477222964172 L34.49398644652308,2.0281305525154787 L34.522235511030644,1.9628875091249867 L34.54815807078407,1.8968365121761033 L34.57171899473135,1.8300670760158058 L34.59288635238213,1.7626696886420317 L34.61163145708088,1.6947356890715606 L34.627928904883916,1.6263571435545623 L34.64175660898764,1.557626720803572 L34.65309582966124,1.4886375664059988 L34.661931199643334,1.4194831765903575 L34.6682507449682,1.3502572715172927 L34.672045901193215,1.2810536682671303 L34.67331152500569,1.2119661536960966 " />
			<path d="M5.9385229683711405,13.203773858509953 L5.936273168139787,13.111999545116454 L5.929529187411546,13.0208191237003 L5.918307273026694,12.930452255883141 L5.902634459559907,12.841116643364757 L5.882548504191604,12.753027503460574 L5.858097795747588,12.66639705062432 L5.82934123812613,12.581433985204814 L5.7963481083933175,12.498342990668531 L5.759197889888534,12.417324240499225 L5.717980080742131,12.338572915962454 L5.672793978266597,12.262278735896832 L5.62374843974063,12.188625499664715 L5.570961620162421,12.117790644363449 L5.514560687603915,12.049944817363858 L5.454681516851781,11.985251465205774 L5.391468362073169,11.923866439841024 " />
			<path d="M5.391468362073157,11.923866439841014 L5.325073509294725,11.865937623172375 L5.2556569095323304,11.811604570793177 L5.183385793454976,11.760998175785616 L5.108434268511494,11.714240353387861 L5.030982899490452,11.671443747289569 L4.951218273523759,11.632711458263373 L4.869332550581928,11.598136795786083 L4.785523000543865,11.567803053247989 L4.699991527956462,11.541783307291789 L4.612944185628856,11.520140241764553 L4.524590678233159,11.502925996706841 L4.435143857107541,11.49018204274279 L4.344819207478711,11.481939081173735 L4.253834329339128,11.478216970016097 L4.162408413229565,11.479024676161673 L4.070761712189894,11.48436025377561 L3.9791150111502236,11.494210848984096 L3.8876890950406606,11.508552730840462 L3.796704216901078,11.527351348495117 L3.706379567272247,11.550561414431565 L3.616932746146629,11.578127013568006 L3.528579238750932,11.609981737961656 L3.441531896423326,11.646048846791308 L3.3560004238359236,11.686241451232684 L3.272190873797861,11.730462723781232 L3.1903051508560294,11.778606131518053 L3.110540524889337,11.830555692757045 L3.033089155868295,11.886186256454941 L2.9581376309248126,11.94536380371113 L2.885866514847458,12.007945770630931 L2.8164499150850633,12.0737813917745 L2.7500550623066315,12.142712063363984 L2.6868419075280086,12.21457172537391 L2.6269627367758748,12.289187261584333 L2.570561804217368,12.366378916632973 L2.5177749846391597,12.445960729061628 L2.4687294461131932,12.527740979313611 L2.423543343637659,12.611522651602966 L2.3823255344912564,12.697103908542736 L2.345175315986472,12.784278577388923 L2.3121821862536596,12.872836646728675 L2.2834256286322017,12.962564772416183 L2.2589749201881855,13.05324679153741 L2.238888964819882,13.144664243165485 L2.2232161513530952,13.236596894652216 L2.211994236968243,13.328823272187819 L2.205250256240002,13.421121194350738 L2.2030004560086494,13.513268307362134 L2.205250256240002,13.605042620755633 L2.211994236968243,13.696223042171788 L2.2232161513530952,13.786589909988946 L2.238888964819882,13.875925522507332 L2.258974920188186,13.964014662411513 L2.2834256286322017,14.050645115247766 L2.3121821862536596,14.135608180667273 L2.345175315986472,14.218699175203556 L2.3823255344912564,14.299717925372864 L2.423543343637659,14.378469249909635 L2.4687294461131932,14.454763429975257 L2.5177749846391597,14.528416666207372 L2.570561804217368,14.599251521508636 L2.626962736775875,14.667097348508229 L2.686841907528009,14.731790700666314 L2.7500550623066258,14.793175726031068 " />
			<path d="M2.7500550623066315,14.793175726031073 L2.79956153758925,14.83695413557202 L2.8507907825310728,14.878728927069847 L2.903673369680301,14.91844348603948 L2.958137630924813,14.95604399008647 L3.0141097546190023,14.99147948184876 L3.0715138856155937,15.024701938055676 L3.1302722280668744,15.055666334610539 L3.1903051508560294,15.084330707608713 L3.251531295515681,15.110656210208383 L3.313867686487396,15.134607165276982 L3.377229843572715,15.15615111374196 L3.4415318964233257,15.175258858580296 L3.506686700915203,15.191904504387226 L3.5726059572490145,15.206065492470474 L3.6392003296167257,15.217722631422506 L3.7063795672722466,15.226860123129297 L3.7740526268420203,15.233465584180443 L3.842127795709811,15.237530062651524 L3.9105128163084686,15.239048050236036 L3.9791150111502236,15.238017489710414 L4.047841408426081,15.234439777722047 L4.11659886800408,15.2283197628965 L4.185294207655666,15.219665739266503 L4.253834329339127,15.208489435031625 L4.322126345368925,15.194805996663856 L4.390077704299952,15.17863396838064 L4.457596316356099,15.159995267013182 L4.524590678233159,15.138915152304081 L4.590969997106932,15.11542219267455 L4.656644313678447,15.089548226507613 L4.7215246240895885,15.061328318999735 L4.785523000543864,15.030800714639403 L4.84855271046886,14.998006785377008 L4.910528334058901,14.962990974556305 L4.971365880038606,14.92580073668342 L5.03098289949045,14.886486473115042 L5.0892985975920775,14.845101463752957 L5.146233943111939,14.801701794837475 L5.201711775514852,14.756346282937631 L5.2556569095323304,14.709096395241158 L5.307996237055988,14.660016166252259 L5.358658826215898,14.609172111010075 L5.407576017509638,14.556633134945452 L5.45468151685178,14.502470440498177 L5.499911485417667,14.44675743062124 L5.543204626159762,14.389569609302882 L5.5845022668792925,14.330984479241275 L5.623748439740629,14.27108143681046 L5.660889957120611,14.209941664459954 L5.6958764836900615,14.147648020693772 L5.7286606046297734,14.084284927778045 L5.759197889888533,14.019938257329352 L5.787446954396099,13.95469521393886 L5.813369514149522,13.888644216989977 L5.836930438096805,13.82187478082968 L5.858097795747588,13.754477393455904 L5.876842900446335,13.686543393885433 L5.893140348249373,13.618164848368435 L5.906968052353099,13.549434425617445 L5.918307273026694,13.480445271219873 L5.92714264300879,13.41129088140423 L5.933462188333653,13.342064976331166 L5.9372573445586685,13.272861373081003 L5.9385229683711405,13.203773858509969 " />
			<path d="M15.516785820582653,12.410198348632564 L15.5145360203513,12.318424035239065 L15.507792039623059,12.22724361382291 L15.496570125238208,12.136876746005752 L15.48089731177142,12.047541133487368 L15.460811356403116,11.959451993583185 L15.436360647959102,11.872821540746932 L15.407604090337644,11.787858475327425 L15.374610960604832,11.704767480791142 L15.337460742100047,11.623748730621836 L15.296242932953644,11.544997406085065 L15.251056830478111,11.468703226019443 L15.202011291952143,11.395049989787326 L15.149224472373934,11.32421513448606 L15.092823539815427,11.25636930748647 L15.032944369063294,11.191675955328385 L14.969731214284684,11.130290929963635 " />
			<path d="M14.969731214284671,11.130290929963625 L14.90333636150624,11.072362113294986 L14.833919761743843,11.018029060915788 L14.761648645666488,10.967422665908227 L14.686697120723007,10.920664843510473 L14.609245751701964,10.87786823741218 L14.529481125735273,10.839135948385984 L14.447595402793441,10.804561285908694 L14.36378585275538,10.7742275433706 L14.278254380167976,10.7482077974144 L14.19120703784037,10.726564731887164 L14.102853530444673,10.709350486829452 L14.013406709319055,10.6966065328654 L13.923082059690223,10.688363571296346 L13.83209718155064,10.684641460138709 L13.740671265441078,10.685449166284284 L13.649024564401408,10.690784743898222 L13.557377863361737,10.700635339106707 L13.465951947252174,10.714977220963073 L13.374967069112591,10.733775838617728 L13.28464241948376,10.756985904554176 L13.195195598358142,10.784551503690617 L13.106842090962445,10.816406228084267 L13.019794748634839,10.852473336913919 L12.934263276047437,10.892665941355295 L12.850453726009373,10.936887213903843 L12.768568003067543,10.985030621640664 L12.68880337710085,11.036980182879656 L12.611352008079809,11.092610746577552 L12.536400483136326,11.151788293833741 L12.464129367058971,11.214370260753542 L12.394712767296577,11.28020588189711 L12.328317914518145,11.349136553486595 L12.265104759739522,11.42099621549652 L12.205225588987389,11.495611751706944 L12.148824656428882,11.572803406755584 L12.096037836850673,11.65238521918424 L12.046992298324707,11.734165469436222 L12.001806195849172,11.817947141725577 L11.960588386702769,11.903528398665348 L11.923438168197986,11.990703067511534 L11.890445038465172,12.079261136851287 L11.861688480843714,12.168989262538794 L11.8372377723997,12.25967128166002 L11.817151817031395,12.351088733288096 L11.801479003564609,12.443021384774827 L11.790257089179757,12.53524776231043 L11.783513108451515,12.627545684473349 L11.781263308220163,12.719692797484745 L11.783513108451515,12.811467110878244 L11.790257089179757,12.902647532294399 L11.801479003564609,12.993014400111557 L11.817151817031396,13.082350012629943 L11.8372377723997,13.170439152534124 L11.861688480843714,13.257069605370377 L11.890445038465174,13.342032670789884 L11.923438168197986,13.425123665326167 L11.96058838670277,13.506142415495475 L12.001806195849172,13.584893740032246 L12.046992298324707,13.661187920097868 L12.096037836850673,13.734841156329983 L12.14882465642888,13.805676011631247 L12.205225588987389,13.87352183863084 L12.265104759739522,13.938215190788926 L12.32831791451814,13.999600216153679 " />
			<path d="M12.328317914518145,13.999600216153684 L12.377824389800763,14.043378625694631 L12.429053634742587,14.085153417192458 L12.481936221891814,14.124867976162092 L12.536400483136326,14.162468480209082 L12.592372606830516,14.197903971971371 L12.649776737827107,14.231126428178287 L12.708535080278388,14.26209082473315 L12.768568003067543,14.290755197731324 L12.829794147727194,14.317080700330994 L12.89213053869891,14.341031655399593 L12.955492695784228,14.36257560386457 L13.019794748634839,14.381683348702907 L13.084949553126716,14.398328994509837 L13.150868809460528,14.412489982593085 L13.21746318182824,14.424147121545117 L13.28464241948376,14.433284613251908 L13.352315479053534,14.439890074303054 L13.420390647921325,14.443954552774136 L13.488775668519983,14.445472540358647 L13.557377863361737,14.444441979833025 L13.626104260637595,14.440864267844658 L13.694861720215593,14.434744253019112 L13.76355705986718,14.426090229389114 L13.83209718155064,14.414913925154236 L13.900389197580438,14.401230486786467 L13.968340556511466,14.38505845850325 L14.035859168567612,14.366419757135793 L14.102853530444673,14.345339642426692 L14.169232849318446,14.321846682797162 L14.234907165889961,14.295972716630224 L14.299787476301102,14.267752809122346 L14.363785852755377,14.237225204762014 L14.426815562680375,14.20443127549962 L14.488791186270415,14.169415464678917 L14.54962873225012,14.132225226806032 L14.609245751701964,14.092910963237653 L14.667561449803591,14.051525953875569 L14.724496795323454,14.008126284960086 L14.779974627726364,13.962770773060242 L14.833919761743843,13.915520885363769 L14.8862590892675,13.86644065637487 L14.93692167842741,13.815596601132686 L14.985838869721151,13.763057625068063 L15.032944369063294,13.708894930620788 L15.07817433762918,13.653181920743851 L15.121467478371274,13.595994099425493 L15.162765119090807,13.537408969363886 L15.202011291952143,13.477505926933071 L15.239152809332124,13.416366154582565 L15.274139335901575,13.354072510816383 L15.306923456841286,13.290709417900656 L15.337460742100046,13.226362747451963 L15.365709806607612,13.161119704061472 L15.391632366361035,13.095068707112588 L15.415193290308318,13.02829927095229 L15.436360647959102,12.960901883578515 L15.455105752657849,12.892967884008044 L15.471403200460887,12.824589338491046 L15.485230904564611,12.755858915740056 L15.496570125238208,12.686869761342484 L15.505405495220304,12.617715371526842 L15.511725040545166,12.548489466453777 L15.515520196770181,12.479285863203614 L15.516785820582653,12.41019834863258 " />
			<path d="M25.095048672794174,11.616622838755177 L25.09279887256282,11.524848525361676 L25.08605489183458,11.433668103945523 L25.074832977449727,11.343301236128365 L25.05916016398294,11.253965623609979 L25.039074208614636,11.165876483705798 L25.01462350017062,11.079246030869545 L24.985866942549162,10.994282965450038 L24.95287381281635,10.911191970913755 L24.915723594311565,10.830173220744449 L24.874505785165162,10.751421896207678 L24.82931968268963,10.675127716142056 L24.780274144163663,10.601474479909939 L24.727487324585454,10.530639624608673 L24.671086392026947,10.462793797609082 L24.611207221274814,10.398100445450996 L24.5479940664962,10.336715420086248 " />
			<path d="M24.54799406649619,10.336715420086238 L24.481599213717757,10.278786603417599 L24.412182613955363,10.224453551038401 L24.33991149787801,10.17384715603084 L24.264959972934527,10.127089333633085 L24.187508603913486,10.084292727534795 L24.107743977946793,10.045560438508597 L24.025858255004962,10.010985776031307 L23.942048704966897,9.980652033493215 L23.856517232379495,9.954632287537013 L23.76946989005189,9.932989222009777 L23.681116382656192,9.915774976952065 L23.591669561530576,9.903031022988014 L23.501344911901743,9.894788061418959 L23.41036003376216,9.891065950261321 L23.3189341176526,9.891873656406897 L23.227287416612928,9.897209234020835 L23.135640715573256,9.90705982922932 L23.044214799463695,9.921401711085686 L22.953229921324112,9.94020032874034 L22.86290527169528,9.963410394676789 L22.773458450569663,9.99097599381323 L22.685104943173965,10.02283071820688 L22.59805760084636,10.058897827036532 L22.51252612825896,10.099090431477908 L22.428716578220893,10.143311704026456 L22.346830855279062,10.191455111763275 L22.26706622931237,10.243404673002269 L22.18961486029133,10.299035236700165 L22.114663335347846,10.358212783956354 L22.04239221927049,10.420794750876155 L21.972975619508098,10.486630372019723 L21.906580766729665,10.555561043609208 L21.84336761195104,10.627420705619134 L21.78348844119891,10.702036241829557 L21.727087508640402,10.779227896878197 L21.674300689062193,10.858809709306852 L21.625255150536226,10.940589959558835 L21.580069048060693,11.02437163184819 L21.53885123891429,11.10995288878796 L21.501701020409506,11.197127557634147 L21.468707890676693,11.285685626973898 L21.439951333055234,11.375413752661407 L21.41550062461122,11.466095771782634 L21.395414669242914,11.557513223410709 L21.37974185577613,11.64944587489744 L21.368519941391277,11.741672252433043 L21.361775960663035,11.833970174595962 L21.35952616043168,11.926117287607358 L21.361775960663035,12.017891601000857 L21.368519941391277,12.109072022417012 L21.37974185577613,12.19943889023417 L21.395414669242914,12.288774502752556 L21.41550062461122,12.376863642656737 L21.439951333055234,12.46349409549299 L21.468707890676693,12.548457160912497 L21.501701020409506,12.63154815544878 L21.53885123891429,12.712566905618088 L21.580069048060693,12.791318230154857 L21.625255150536226,12.867612410220481 L21.674300689062193,12.941265646452596 L21.727087508640402,13.01210050175386 L21.78348844119891,13.079946328753453 L21.84336761195104,13.144639680911538 L21.906580766729657,13.206024706276292 " />
			<path d="M21.906580766729665,13.206024706276297 L21.956087242012284,13.249803115817244 L22.007316486954107,13.291577907315071 L22.060199074103334,13.331292466284705 L22.114663335347846,13.368892970331695 L22.170635459042035,13.404328462093984 L22.228039590038627,13.4375509183009 L22.286797932489907,13.468515314855763 L22.346830855279062,13.497179687853937 L22.408056999938715,13.523505190453607 L22.470393390910427,13.547456145522208 L22.53375554799575,13.569000093987185 L22.59805760084636,13.588107838825522 L22.663212405338236,13.60475348463245 L22.72913166167205,13.618914472715698 L22.79572603403976,13.63057161166773 L22.86290527169528,13.639709103374521 L22.930578331265053,13.646314564425667 L22.998653500132843,13.650379042896748 L23.0670385207315,13.65189703048126 L23.135640715573256,13.650866469955638 L23.204367112849113,13.64728875796727 L23.273124572427115,13.641168743141725 L23.341819912078698,13.632514719511727 L23.41036003376216,13.621338415276849 L23.478652049791958,13.60765497690908 L23.546603408722984,13.591482948625863 L23.61412202077913,13.572844247258406 L23.681116382656192,13.551764132549305 L23.747495701529964,13.528271172919776 L23.81317001810148,13.502397206752837 L23.87805032851262,13.474177299244959 L23.942048704966897,13.443649694884627 L24.005078414891894,13.410855765622232 L24.067054038481935,13.37583995480153 L24.12789158446164,13.338649716928645 L24.187508603913482,13.299335453360268 L24.245824302015112,13.257950443998181 L24.302759647534973,13.2145507750827 L24.358237479937884,13.169195263182853 L24.412182613955363,13.121945375486382 L24.46452194147902,13.072865146497483 L24.51518453063893,13.022021091255299 L24.564101721932673,12.969482115190676 L24.611207221274814,12.915319420743401 L24.6564371898407,12.859606410866464 L24.699730330582796,12.802418589548108 L24.741027971302326,12.743833459486499 L24.780274144163663,12.683930417055684 L24.817415661543645,12.622790644705178 L24.852402188113093,12.560497000938996 L24.885186309052806,12.497133908023269 L24.915723594311565,12.432787237574576 L24.94397265881913,12.367544194184084 L24.969895218572553,12.301493197235201 L24.993456142519836,12.234723761074903 L25.01462350017062,12.16732637370113 L25.033368604869366,12.099392374130657 L25.049666052672407,12.03101382861366 L25.063493756776133,11.962283405862669 L25.074832977449727,11.893294251465097 L25.083668347431825,11.824139861649455 L25.089987892756685,11.75491395657639 L25.093783048981702,11.685710353326227 L25.095048672794174,11.616622838755193 " />
			<path d="M34.67331152500569,10.823047328877788 L34.67106172477433,10.731273015484287 L34.664317744046095,10.640092594068134 L34.65309582966124,10.549725726250976 L34.637423016194454,10.46039011373259 L34.61733706082615,10.372300973828409 L34.59288635238213,10.285670520992156 L34.564129794760674,10.20070745557265 L34.531136665027866,10.117616461036366 L34.49398644652308,10.03659771086706 L34.45276863737668,9.957846386330289 L34.407582534901145,9.881552206264667 L34.35853699637518,9.80789897003255 L34.30575017679697,9.737064114731284 L34.24934924423846,9.669218287731693 L34.189470073486326,9.604524935573608 L34.12625691870772,9.54313991020886 " />
			<path d="M34.1262569187077,9.543139910208849 L34.05986206592927,9.48521109354021 L33.990445466166875,9.430878041161012 L33.91817435008952,9.380271646153451 L33.84322282514604,9.333513823755696 L33.765771456124995,9.290717217657406 L33.686006830158306,9.251984928631208 L33.60412110721647,9.217410266153918 L33.52031155717841,9.187076523615826 L33.43478008459101,9.161056777659624 L33.3477327422634,9.139413712132388 L33.25937923486771,9.122199467074676 L33.16993241374209,9.109455513110625 L33.079607764113256,9.10121255154157 L32.988622885973676,9.097490440383933 L32.89719696986411,9.098298146529508 L32.80555026882444,9.103633724143446 L32.71390356778477,9.113484319351931 L32.622477651675204,9.127826201208297 L32.531492773535625,9.146624818862952 L32.44116812390679,9.1698348847994 L32.35172130278117,9.19740048393584 L32.26336779538548,9.22925520832949 L32.17632045305787,9.265322317159143 L32.09078898047047,9.305514921600519 L32.00697943043241,9.349736194149067 L31.925093707490575,9.397879601885887 L31.845329081523882,9.44982916312488 L31.76787771250284,9.505459726822776 L31.692926187559358,9.564637274078965 L31.620655071482002,9.627219240998766 L31.551238471719607,9.693054862142334 L31.484843618941177,9.761985533731819 L31.421630464162554,9.833845195741745 L31.36175129341042,9.908460731952168 L31.305350360851914,9.985652387000808 L31.252563541273705,10.065234199429463 L31.20351800274774,10.147014449681446 L31.158331900272206,10.230796121970801 L31.117114091125803,10.316377378910571 L31.07996387262102,10.403552047756758 L31.046970742888206,10.492110117096509 L31.018214185266746,10.581838242784018 L30.993763476822732,10.672520261905245 L30.973677521454427,10.76393771353332 L30.95800470798764,10.855870365020051 L30.94678279360279,10.948096742555654 L30.940038812874548,11.040394664718573 L30.937789012643194,11.13254177772997 L30.940038812874548,11.224316091123468 L30.94678279360279,11.315496512539623 L30.95800470798764,11.40586338035678 L30.973677521454427,11.495198992875167 L30.993763476822732,11.583288132779348 L31.018214185266746,11.669918585615601 L31.046970742888206,11.754881651035108 L31.07996387262102,11.83797264557139 L31.117114091125803,11.918991395740699 L31.158331900272206,11.997742720277468 L31.20351800274774,12.074036900343092 L31.252563541273705,12.147690136575207 L31.305350360851914,12.218524991876471 L31.36175129341042,12.286370818876064 L31.421630464162554,12.35106417103415 L31.48484361894117,12.412449196398903 " />
			<path d="M31.484843618941177,12.412449196398908 L31.534350094223797,12.456227605939855 L31.58557933916562,12.498002397437682 L31.638461926314847,12.537716956407316 L31.692926187559358,12.575317460454306 L31.748898311253548,12.610752952216595 L31.80630244225014,12.643975408423511 L31.86506078470142,12.674939804978374 L31.925093707490575,12.703604177976548 L31.986319852150228,12.729929680576218 L32.04865624312194,12.753880635644819 L32.11201840020726,12.775424584109796 L32.17632045305787,12.794532328948133 L32.24147525754975,12.811177974755061 L32.30739451388356,12.825338962838309 L32.37398888625127,12.83699610179034 L32.44116812390679,12.846133593497132 L32.50884118347657,12.852739054548278 L32.576916352344355,12.85680353301936 L32.64530137294302,12.858321520603871 L32.71390356778477,12.857290960078249 L32.78262996506063,12.853713248089882 L32.851387424638624,12.847593233264336 L32.920082764290214,12.838939209634338 L32.988622885973676,12.82776290539946 L33.05691490200347,12.814079467031691 L33.124866260934496,12.797907438748474 L33.192384872990644,12.779268737381017 L33.25937923486771,12.758188622671916 L33.32575855374148,12.734695663042388 L33.39143287031299,12.708821696875448 L33.45631318072414,12.68060178936757 L33.52031155717841,12.650074185007238 L33.58334126710341,12.617280255744843 L33.645316890693444,12.58226444492414 L33.70615443667315,12.545074207051256 L33.765771456124995,12.505759943482879 L33.824087154226625,12.464374934120793 L33.881022499746486,12.42097526520531 L33.9365003321494,12.375619753305465 L33.990445466166875,12.328369865608993 L34.04278479369054,12.279289636620094 L34.09344738285044,12.22844558137791 L34.14236457414418,12.175906605313287 L34.189470073486326,12.121743910866012 L34.23470004205221,12.066030900989075 L34.277993182794305,12.008843079670719 L34.31929082351384,11.95025794960911 L34.35853699637517,11.890354907178295 L34.39567851375516,11.82921513482779 L34.430665040324605,11.766921491061607 L34.46344916126432,11.70355839814588 L34.49398644652308,11.639211727697187 L34.522235511030644,11.573968684306696 L34.54815807078407,11.507917687357812 L34.57171899473135,11.441148251197514 L34.59288635238213,11.37375086382374 L34.61163145708088,11.305816864253268 L34.627928904883916,11.23743831873627 L34.64175660898764,11.16870789598528 L34.65309582966124,11.099718741587708 L34.661931199643334,11.030564351772066 L34.6682507449682,10.961338446699001 L34.672045901193215,10.892134843448838 L34.67331152500569,10.823047328877804 " />
			<path d="M-5.551115123125782e-16,38.44432470072683 L38.313051408846064,35.270022661217276 " />
			<path d="M38.313051408846064,35.270022661217276 L37.5946816949302,34.608709736319454 " />
			<path d="M38.313051408846064,-3.174302039509554 L38.313051408846064,35.270022661217276 " />
			<path d="M3.1590208067297447,5.458675127979137 L3.1234589316633365,5.394676994366381 L3.0906261172985374,5.329063509060252 L3.0605761573695327,5.261942174096621 L3.033358286143564,5.193422961992954 L3.0090170977548274,5.123618135567831 L2.9875924731408317,5.052642064008 L2.9691195147009237,4.980611035484334 L2.953628488784035,4.907643066623687 L2.941144776099877,4.8338577091488375 L2.9316888301348407,4.759375854003299 L2.925276143640722,4.684319533281939 L2.921917223251185,4.608811720291919 L2.9216175722675484,4.532976128071536 L2.9243776816421,4.456937006697082 L2.9301930291737173,4.380818939709811 L2.939054086917099,4.304746639996555 L2.950946336793487,4.228844745458415 L2.9658502943772795,4.15323761480231 L2.9837415408195898,4.078049123789967 L3.0045907628564152,4.003402462278167 L3.028363800835899,3.929419932382794 L3.0550217046859673,3.856222748097363 L3.084520797730668,3.7839308366943545 L3.1168127482506316,3.7126626422347178 L3.151844648670428,3.6425349315074964 L3.189559102243063,3.573662602717518 L3.229894317089598,3.5061584972345914 L3.272784207439813,3.4401332147126618 L3.3181585019080426,3.375694931881816 L3.3659428586267763,3.3129492253100405 L3.4160589870493987,3.251998898425122 L3.468424776222495,3.1929438130801 L3.5229544293175663,3.135880725938234 L3.5795586042017327,3.080903129945558 L3.6381445598171087,3.0281011011507495 L3.69861630812903,2.9775611511232984 L3.760874771394168,2.92936608521176 L3.8248179444908628,2.8835948668743336 L3.89034106204572,2.840322488304052 L3.9573367700826347,2.799619847560535 L4.025695301913023,2.7615536324096417 L4.0953046579790735,2.726186211061313 L4.166050789355358,2.693575529984643 L4.237817784608162,2.663775018967585 L4.31048805970637,2.6368335035768555 L4.383942550672754,2.612795125161453 L4.458060908660033,2.591699268530866 L4.532721697132079,2.57358049742646 L4.607802590827203,2.5584684978917682 L4.683180576177547,2.5463880296344708 L4.758732152856201,2.5373588854597493 L4.834333536121839,2.5313958588414804 L4.909860859629341,2.5285087196844107 L4.985190378374107,2.5287021983170046 L5.0601986714375835,2.531975977741211 L5.134762844201783,2.53832469415184 L5.20876072970152,2.547737945724691 L5.282071088784447,2.560200309659047 L5.354573808750937,2.5756913674466024 L5.426150100148396,2.594185738325427 L5.496682691397525,2.615653120864157 L5.566056020931685,2.6400583426082735 L5.634156426534564,2.667361417707138 L5.7008723315659005,2.6975176124273545 " />
			<path d="M12.73728365894126,4.665099618101751 L12.701721783874852,4.601101484488994 L12.668888969510052,4.535487999182866 L12.638839009581048,4.468366664219235 L12.61162113835508,4.3998474521155675 L12.58727994996634,4.330042625690444 L12.565855325352345,4.259066554130614 L12.547382366912439,4.187035525606948 L12.53189134099555,4.1140675567463 L12.519407628311392,4.04028219927145 L12.509951682346355,3.9658003441259115 L12.503538995852237,3.8907440234045523 L12.5001800754627,3.8152362104145325 L12.499880424479063,3.7394006181941495 L12.502640533853615,3.6633614968196953 L12.508455881385231,3.5872434298324243 L12.517316939128614,3.5111711301191684 L12.529209189005002,3.4352692355810275 L12.544113146588794,3.359662104924923 L12.562004393031103,3.28447361391258 L12.582853615067929,3.20982695240078 L12.606626653047412,3.1358444225054063 L12.63328455689748,3.062647238219976 L12.662783649942181,2.9903553268169674 L12.695075600462145,2.9190871323573306 L12.730107500881942,2.84895942163011 L12.767821954454575,2.780087092840131 L12.808157169301111,2.7125829873572043 L12.851047059651327,2.646557704835275 L12.896421354119557,2.5821194220044283 L12.94420571083829,2.519373715432653 L12.994321839260913,2.4584233885477342 L13.04668762843401,2.3993683032027127 L13.101217281529081,2.342305216060847 L13.157821456413245,2.2873276200681705 L13.216407412028623,2.2345255912733624 L13.276879160340544,2.183985641245911 L13.339137623605682,2.135790575334372 L13.403080796702376,2.0900193569969465 L13.468603914257233,2.0467469784266643 L13.535599622294148,2.0060443376831474 L13.603958154124538,1.9679781225322541 L13.673567510190587,1.9326107011839255 L13.74431364156687,1.9000000201072553 L13.816080636819676,1.8701995090901975 L13.888750911917883,1.8432579936994677 L13.962205402884267,1.8192196152840654 L14.036323760871547,1.7981237586534784 L14.110984549343593,1.7800049875490722 L14.186065443038716,1.7648929880143807 L14.26144342838906,1.7528125197570832 L14.336995005067713,1.7437833755823613 L14.412596388333352,1.7378203489640929 L14.488123711840853,1.7349332098070231 L14.56345323058562,1.7351266884396164 L14.638461523649097,1.7384004678638232 L14.713025696413297,1.7447491842744518 L14.787023581913035,1.754162435847303 L14.860333940995961,1.7666247997816589 L14.932836660962451,1.7821158575692144 L15.00441295235991,1.8006102284480392 L15.074945543609038,1.822077610986769 L15.144318873143199,1.8464828327308855 L15.21241927874608,1.8737859078297499 L15.279135183777415,1.9039421025499665 " />
			<path d="M22.315546511152775,3.871524108224358 L22.27998463608637,3.8075259746116017 L22.24715182172157,3.741912489305473 L22.217101861792564,3.674791154341842 L22.189883990566596,3.6062719422381746 L22.165542802177857,3.5364671158130516 L22.14411817756386,3.465491044253221 L22.125645219123957,3.3934600157295542 L22.110154193207066,3.3204920468689076 L22.097670480522908,3.2467066893940575 L22.088214534557874,3.1722248342485186 L22.081801848063755,3.0971685135271585 L22.078442927674217,3.0216607005371388 L22.078143276690582,2.945825108316756 L22.08090338606513,2.869785986942302 L22.08671873359675,2.7936679199550314 L22.095579791340132,2.7175956202417755 L22.107472041216518,2.6416937257036346 L22.12237599880031,2.56608659504753 L22.140267245242622,2.4908981040351867 L22.16111646727945,2.416251442523387 L22.18488950525893,2.3422689126280134 L22.211547409109002,2.269071728342583 L22.2410465021537,2.1967798169395745 L22.273338452673666,2.1255116224799377 L22.308370353093462,2.055383911752717 L22.346084806666095,1.9865115829627378 L22.38642002151263,1.9190074774798114 L22.42930991186285,1.852982194957882 L22.474684206331077,1.7885439121270363 L22.52246856304981,1.7257982055552605 L22.572584691472432,1.664847878670342 L22.62495048064553,1.60579279332532 L22.6794801337406,1.5487297061834544 L22.73608430862477,1.4937521101907782 L22.794670264240143,1.44095008139597 L22.855142012552065,1.3904101313685187 L22.917400475817203,1.3422150654569802 L22.9813436489139,1.2964438471195543 L23.046866766468757,1.2531714685492725 L23.11386247450567,1.212468827805756 L23.182221006336057,1.174402612654863 L23.25183036240211,1.1390351913065349 L23.322576493778396,1.1064245102298647 L23.394343489031197,1.0766239992128068 L23.467013764129405,1.0496824838220773 L23.54046825509579,1.025644105406675 L23.61458661308307,1.0045482487760882 L23.689247401555114,0.986429477671682 L23.764328295250237,0.9713174781369909 L23.83970628060058,0.9592370098796934 L23.915257857279236,0.9502078657049717 L23.990859240544875,0.9442448390867035 L24.066386564052376,0.9413576999296343 L24.141716082797142,0.9415511785622277 L24.21672437586062,0.9448249579864343 L24.29128854862482,0.9511736743970634 L24.365286434124556,0.9605869259699147 L24.438596793207484,0.9730492899042711 L24.511099513173974,0.9885403476918264 L24.582675804571434,1.0070347185706519 L24.653208395820563,1.0285021011093818 L24.722581725354722,1.0529073228534982 L24.790682130957602,1.080210397952363 L24.857398035988936,1.1103665926725794 " />
			<path d="M31.89380936336429,3.077948598346973 L31.85824748829788,3.013950464734217 L31.825414673933082,2.9483369794280883 L31.79536471400408,2.8812156444644574 L31.76814684277811,2.8126964323607897 L31.743805654389373,2.742891605935667 L31.722381029775377,2.6719155343758367 L31.70390807133547,2.5998845058521702 L31.68841704541858,2.526916536991523 L31.67593333273442,2.453131179516673 L31.666477386769387,2.3786493243711346 L31.660064700275267,2.303593003649775 L31.65670577988573,2.228085190659755 L31.65640612890209,2.152249598439372 L31.659166238276644,2.076210477064918 L31.664981585808263,2.000092410077647 L31.673842643551644,1.924020110364391 L31.68573489342803,1.8481182158262504 L31.700638851011824,1.7725110851701458 L31.718530097454135,1.6973225941578027 L31.73937931949096,1.622675932646003 L31.763152357470442,1.5486934027506292 L31.78981026132051,1.4754962184651985 L31.819309354365213,1.40320430706219 L31.851601304885175,1.3319361126025535 L31.88663320530497,1.2618084018753328 L31.924347658877608,1.1929360730853538 L31.96468287372414,1.1254319676024271 L32.007572764074354,1.0594066850804975 L32.052947058542586,0.9949684022496512 L32.10073141526132,0.9322226956778756 L32.150847543683945,0.8712723687929569 L32.20321333285704,0.8122172834479351 L32.25774298595211,0.7551541963060695 L32.31434716083628,0.7001766003133933 L32.372933116451655,0.6473745715185848 L32.433404864763574,0.5968346214911335 L32.49566332802871,0.5486395555795949 L32.55960650112541,0.502868337242169 L32.62512961868026,0.45959595867188696 L32.69212532671718,0.41889331792837003 L32.760483858547566,0.3808271027774768 L32.83009321461362,0.3454596814291482 L32.9008393459899,0.312849000352478 L32.97260634124271,0.28304848933542015 L33.045276616340914,0.2561069739446904 L33.1187311073073,0.23206859552928805 L33.19284946529458,0.21097273889870105 L33.26751025376662,0.19285396779429487 L33.34259114746175,0.1777419682596033 L33.41796913281209,0.16566150000230584 L33.493520709490745,0.15663235582758395 L33.56912209275638,0.15066932920931553 L33.64464941626388,0.1477821900522458 L33.71997893500865,0.14797566868483902 L33.79498722807213,0.15124944810904584 L33.86955140083633,0.15759816451967446 L33.943549286336065,0.16701141609252557 L34.01685964541899,0.17947378002688152 L34.08936236538548,0.19496483781443708 L34.16093865678294,0.21345920869326185 L34.23147124803207,0.23492659123199156 L34.30084457756623,0.2593318129761082 L34.36894498316911,0.2866348880749725 L34.435660888200445,0.3167910827951892 " />
			<path d="M3.1590208067297434,15.069756303160844 L3.123458931663335,15.005758169548088 L3.0906261172985365,14.94014468424196 L3.060576157369532,14.873023349278327 L3.0333582861435633,14.80450413717466 L3.0090170977548265,14.734699310749537 L2.9875924731408308,14.663723239189707 L2.969119514700923,14.591692210666041 L2.9536284887840343,14.518724241805394 L2.9411447760998763,14.444938884330544 L2.9316888301348403,14.370457029185005 L2.925276143640722,14.295400708463646 L2.921917223251185,14.219892895473626 L2.9216175722675484,14.144057303253243 L2.9243776816421003,14.068018181878788 L2.9301930291737173,13.991900114891518 L2.9390540869171,13.915827815178261 L2.950946336793487,13.839925920640122 L2.9658502943772804,13.764318789984015 L2.98374154081959,13.689130298971673 L3.0045907628564157,13.614483637459873 L3.0283638008358995,13.5405011075645 L3.0550217046859682,13.467303923279069 L3.084520797730669,13.39501201187606 L3.1168127482506325,13.323743817416425 L3.151844648670429,13.253616106689204 L3.189559102243064,13.184743777899225 L3.229894317089599,13.117239672416298 L3.2727842074398144,13.051214389894369 L3.3181585019080435,12.986776107063523 L3.3659428586267772,12.924030400491748 L3.4160589870493996,12.86308007360683 L3.4684247762224967,12.804024988261807 L3.5229544293175685,12.746961901119942 L3.5795586042017344,12.691984305127265 L3.6381445598171105,12.639182276332457 L3.6986163081290324,12.588642326305006 L3.76087477139417,12.540447260393467 L3.824817944490865,12.49467604205604 L3.8903410620457217,12.45140366348576 L3.9573367700826365,12.410701022742243 L4.025695301913025,12.37263480759135 L4.095304657979075,12.33726738624302 L4.16605078935536,12.304656705166352 L4.237817784608164,12.274856194149294 L4.310488059706372,12.247914678758564 L4.383942550672755,12.22387630034316 L4.458060908660035,12.202780443712575 L4.5327216971320805,12.184661672608168 L4.6078025908272044,12.169549673073476 L4.6831805761775485,12.157469204816179 L4.758732152856202,12.148440060641457 L4.834333536121841,12.14247703402319 L4.909860859629342,12.13958989486612 L4.985190378374109,12.139783373498712 L5.060198671437585,12.14305715292292 L5.134762844201784,12.149405869333549 L5.208760729701522,12.1588191209064 L5.282071088784448,12.171281484840756 L5.3545738087509385,12.186772542628312 L5.426150100148398,12.205266913507137 L5.496682691397526,12.226734296045866 L5.566056020931687,12.251139517789984 L5.634156426534566,12.278442592888847 L5.700872331565901,12.308598787609064 " />
			<path d="M12.737283658941259,14.276180793283455 L12.70172178387485,14.212182659670699 L12.66888896951005,14.14656917436457 L12.638839009581046,14.079447839400938 L12.611621138355078,14.010928627297272 L12.58727994996634,13.941123800872148 L12.565855325352345,13.870147729312318 L12.547382366912437,13.798116700788652 L12.531891340995548,13.725148731928005 L12.519407628311392,13.651363374453155 L12.509951682346355,13.576881519307616 L12.503538995852237,13.501825198586257 L12.5001800754627,13.426317385596237 L12.499880424479063,13.350481793375854 L12.502640533853615,13.274442672001399 L12.508455881385231,13.198324605014129 L12.517316939128614,13.122252305300874 L12.529209189005002,13.046350410762733 L12.544113146588794,12.970743280106628 L12.562004393031104,12.895554789094284 L12.58285361506793,12.820908127582484 L12.606626653047414,12.746925597687111 L12.633284556897483,12.673728413401681 L12.662783649942183,12.601436501998672 L12.695075600462147,12.530168307539036 L12.730107500881942,12.460040596811815 L12.767821954454577,12.391168268021836 L12.808157169301113,12.32366416253891 L12.851047059651329,12.25763888001698 L12.896421354119557,12.193200597186134 L12.944205710838292,12.13045489061436 L12.994321839260914,12.06950456372944 L13.046687628434011,12.01044947838442 L13.101217281529081,11.953386391242553 L13.157821456413249,11.898408795249876 L13.216407412028625,11.845606766455068 L13.276879160340545,11.795066816427617 L13.339137623605684,11.746871750516078 L13.403080796702378,11.701100532178653 L13.468603914257235,11.65782815360837 L13.53559962229415,11.617125512864854 L13.60395815412454,11.579059297713961 L13.673567510190589,11.543691876365633 L13.744313641566873,11.511081195288963 L13.816080636819677,11.481280684271905 L13.888750911917885,11.454339168881175 L13.962205402884269,11.430300790465772 L14.036323760871548,11.409204933835186 L14.110984549343595,11.39108616273078 L14.186065443038718,11.375974163196087 L14.261443428389061,11.36389369493879 L14.336995005067715,11.354864550764068 L14.412596388333354,11.3489015241458 L14.488123711840855,11.346014384988731 L14.563453230585623,11.346207863621323 L14.638461523649099,11.34948164304553 L14.713025696413297,11.35583035945616 L14.787023581913035,11.365243611029012 L14.860333940995961,11.377705974963366 L14.932836660962451,11.393197032750923 L15.00441295235991,11.411691403629748 L15.074945543609038,11.433158786168477 L15.144318873143199,11.457564007912593 L15.21241927874608,11.484867083011459 L15.279135183777415,11.515023277731675 " />
			<path d="M22.315546511152775,13.482605283406068 L22.27998463608637,13.418607149793312 L22.24715182172157,13.352993664487183 L22.217101861792564,13.285872329523551 L22.189883990566596,13.217353117419885 L22.16554280217786,13.147548290994761 L22.14411817756386,13.076572219434931 L22.125645219123953,13.004541190911265 L22.110154193207066,12.931573222050618 L22.097670480522908,12.857787864575768 L22.088214534557874,12.783306009430229 L22.081801848063755,12.708249688708868 L22.078442927674217,12.63274187571885 L22.078143276690582,12.556906283498465 L22.08090338606513,12.480867162124012 L22.08671873359675,12.404749095136742 L22.095579791340132,12.328676795423485 L22.107472041216518,12.252774900885345 L22.12237599880031,12.17716777022924 L22.140267245242622,12.101979279216897 L22.16111646727945,12.027332617705097 L22.18488950525893,11.953350087809723 L22.211547409109002,11.880152903524293 L22.2410465021537,11.807860992121284 L22.273338452673666,11.736592797661647 L22.308370353093462,11.666465086934426 L22.346084806666095,11.597592758144447 L22.38642002151263,11.530088652661522 L22.429309911862845,11.464063370139593 L22.474684206331077,11.399625087308747 L22.52246856304981,11.33687938073697 L22.572584691472432,11.275929053852053 L22.62495048064553,11.21687396850703 L22.6794801337406,11.159810881365164 L22.73608430862477,11.104833285372488 L22.794670264240143,11.05203125657768 L22.855142012552065,11.001491306550228 L22.917400475817203,10.95329624063869 L22.9813436489139,10.907525022301265 L23.046866766468753,10.864252643730982 L23.11386247450567,10.823550002987467 L23.182221006336057,10.785483787836572 L23.251830362402107,10.750116366488244 L23.322576493778392,10.717505685411574 L23.394343489031197,10.687705174394516 L23.467013764129405,10.660763659003788 L23.54046825509579,10.636725280588385 L23.61458661308307,10.615629423957799 L23.689247401555114,10.597510652853392 L23.764328295250237,10.5823986533187 L23.83970628060058,10.570318185061403 L23.915257857279236,10.561289040886681 L23.990859240544875,10.555326014268413 L24.066386564052376,10.552438875111344 L24.141716082797142,10.552632353743938 L24.21672437586062,10.555906133168143 L24.29128854862482,10.562254849578773 L24.365286434124556,10.571668101151625 L24.43859679320748,10.58413046508598 L24.51109951317397,10.599621522873536 L24.582675804571434,10.61811589375236 L24.65320839582056,10.639583276291091 L24.722581725354722,10.663988498035208 L24.7906821309576,10.691291573134071 L24.857398035988936,10.721447767854288 " />
			<path d="M31.89380936336429,12.68902977352868 L31.85824748829788,12.625031639915925 L31.825414673933082,12.559418154609796 L31.795364714004076,12.492296819646166 L31.76814684277811,12.423777607542497 L31.743805654389373,12.353972781117374 L31.722381029775377,12.282996709557544 L31.70390807133547,12.210965681033878 L31.68841704541858,12.137997712173231 L31.67593333273442,12.06421235469838 L31.666477386769387,11.989730499552842 L31.660064700275267,11.914674178831483 L31.65670577988573,11.839166365841463 L31.65640612890209,11.763330773621078 L31.659166238276644,11.687291652246625 L31.664981585808263,11.611173585259353 L31.673842643551644,11.535101285546098 L31.68573489342803,11.459199391007957 L31.700638851011824,11.383592260351852 L31.718530097454135,11.30840376933951 L31.73937931949096,11.233757107827708 L31.763152357470446,11.159774577932335 L31.789810261320515,11.086577393646904 L31.819309354365213,11.014285482243896 L31.85160130488518,10.94301728778426 L31.886633205304975,10.872889577057038 L31.924347658877608,10.804017248267058 L31.964682873724144,10.736513142784133 L32.00757276407436,10.670487860262202 L32.052947058542586,10.606049577431357 L32.10073141526132,10.543303870859582 L32.150847543683945,10.482353543974662 L32.20321333285704,10.42329845862964 L32.25774298595211,10.366235371487775 L32.31434716083628,10.311257775495099 L32.372933116451655,10.25845574670029 L32.43340486476358,10.20791579667284 L32.49566332802872,10.1597207307613 L32.55960650112541,10.113949512423876 L32.62512961868027,10.070677133853593 L32.69212532671718,10.029974493110076 L32.76048385854757,9.991908277959183 L32.83009321461362,9.956540856610856 L32.90083934598991,9.923930175534185 L32.97260634124271,9.894129664517127 L33.04527661634092,9.867188149126397 L33.118731107307305,9.843149770710994 L33.192849465294586,9.822053914080408 L33.26751025376663,9.803935142976002 L33.342591147461754,9.788823143441311 L33.4179691328121,9.776742675184014 L33.49352070949075,9.767713531009292 L33.56912209275639,9.761750504391024 L33.64464941626389,9.758863365233955 L33.71997893500866,9.75905684386655 L33.79498722807214,9.762330623290755 L33.869551400836336,9.768679339701384 L33.94354928633607,9.778092591274236 L34.016859645419,9.790554955208592 L34.08936236538549,9.806046012996148 L34.160938656782946,9.824540383874973 L34.23147124803208,9.846007766413702 L34.30084457756624,9.87041298815782 L34.368944983169115,9.897716063256684 L34.43566088820045,9.927872257976901 " />

       </g>
    </g>
    
</svg>
