<?xml version="1.0" encoding="UTF-8" standalone="no"?>
<svg
   xmlns:svg="http://www.w3.org/2000/svg"
   xmlns="http://www.w3.org/2000/svg"
   width="800.0"
   height="240.0"

>
    <g transform="scale(4.25733814725463, -4.25733814725463)   translate(1.8928124823918144,-39.61876746920278)" stroke-width="0.23488855369519004"  fill="none">
       <!-- hidden lines -->
       <g  stroke="rgb(160,160,160)" fill="none" stroke-dasharray="0.23488855369519004,0.23488855369519004" >
			<path d="M0.0,0.0 L-0.7183697139158637,-0.661312924897824 " />
			<path d="M0.0,0.0 L-5.551115123125782e-16,38.44432470072683 " />
			<path d="M0.0,0.0 L38.313051408846064,-3.174302039509554 " />
			<path d="M6.585055710895417,4.259957424550149 L6.583838764921886,4.326387727022313 L6.580189576243987,4.3929296532243916 L6.574113090354697,4.459493023486954 L6.565617542294988,4.525987629078917 L6.554714445493454,4.5923233544611985 L6.5414185761629495,4.658410299414074 L6.525747953275413,4.724158900872727 L6.507723814142002,4.789480054305872 L6.487370585631633,4.854285234472962 L6.464715851066939,4.918486615396326 L6.439790312842494,4.981997189385636 L6.412627750815988,5.044730884953417 L6.383264976528718,5.106602683461776 L6.351741783317458,5.167528734342284 L6.318100892385293,5.227426468732842 L6.2823878949045415,5.286214711377561 L6.244651190230179,5.343813790637959 L6.2049419203075535,5.400145646466427 L6.163313900363232,5.455133936195617 L6.119823545972956,5.508704138000365 L6.074529796605512,5.560783651891976 L6.027494035746146,5.611301898107959 L5.978780007707772,5.660190412763905 L5.9284537312427155,5.707382940637846 L5.8765834100720635,5.7528155249613775 L5.823239340453879,5.796426594095843 L5.7684938159155505,5.838157044976115 L5.71242102927937,5.877950323208889 L5.655096972114135,5.915752499716945 L5.596599331749035,5.951512343825488 L5.53700738598938,5.985181392691549 L5.476401895676883,6.016714016982313 L5.41486499524008,6.046067482713401 L5.352480081383213,6.073202009163284 L5.289331700064449,6.098080822785341 L5.225505431916591,6.120670207044504 L5.16108777626557,6.140939548110946 L5.096166033903891,6.158861376348886 L5.030828188777903,6.174411403544287 L4.965162788749252,6.187568555820988 L4.899258825592078,6.198315002200678 L4.833205614388629,6.206636178767983 L4.767092672486707,6.212520808407932 L4.701009598182997,6.215960916089054 L4.635045949296694,6.216951839671383 L4.569291121797987,6.215492236224738 L4.50383422865588,6.211584083848699 L4.4387639790695586,6.205232678991827 L4.374168558246941,6.1964466292737574 L4.310135507893374,6.185237841819882 L4.246751607572403,6.171621507124451 L4.184102757099443,6.155616078463942 L4.122273860127701,6.137243246888618 L4.061348709084125,6.11652791182614 L4.001409871611322,6.093498147337101 L3.9425385786693496,6.068185164068188 L3.884814614449009,6.040623266954559 L3.8283162082458535,6.010849808728729 L3.7731199284414387,5.978905139299003 L3.7193005787354867,5.944832551066032 L3.66693109676961,5.908678220251618 L3.616082455279968,5.870491144319279 L3.5668235659128316,5.830323075571369 L3.5192211858334015,5.788228451012776 " />
			<path d="M3.51922118583339,5.788228451012765 L3.4745272714402837,5.745447329905067 L3.43152222317866,5.7009489633006645 L3.390261289443433,5.654790518053925 L3.350797477973313,5.607031293714896 L3.313181487752002,5.557732646347427 L3.277461643875431,5.506957909705312 L3.243683835468728,5.454772313867693 L3.211891456732656,5.401242901438269 " />
			<path d="M5.648001681562996,2.7549498389682268 L5.703973369444302,2.7822137986302975 L5.758769763935365,2.8115673657809377 L5.812320468351027,2.8429728300225183 L5.8645566863386485,2.876389844894309 L5.915411310260479,2.9117754797054 L5.964819007406545,2.949084274687571 L6.012716303927284,2.9882682993972525 L6.05904166637812,3.0292772142915485 " />
			<path d="M6.059041666378126,3.0292772142915534 L6.119823545972956,3.0883012771422838 L6.177399671696161,3.1505064234481344 L6.231631337617803,3.215742795563127 L6.2823878949045415,3.2838532333528043 L6.329547066564125,3.3546736528067616 L6.372995242021369,3.4280334413313986 L6.412627750815987,3.5037558687706007 L6.4483491147628955,3.581658513164166 L6.480073277967523,3.661553700218284 L6.507723814142001,3.7432489554293493 L6.531234110722786,3.826547467771899 L6.550547529346154,3.9112485638336127 L6.565617542294989,3.9971481912551377 L6.576407844588116,4.084039410310098 L6.582892441442194,4.171712892441016 L6.585055710895417,4.259957424550141 " />
			<path d="M16.16331856310693,3.466381914672761 L16.162101617133402,3.5328122171449254 L16.1584524284555,3.5993541433470035 L16.15237594256621,3.665917513609566 L16.143880394506503,3.732412119201529 L16.13297729770497,3.798747844583811 L16.119681428374463,3.8648347895366864 L16.104010805486926,3.9305833909953387 L16.085986666353516,3.995904544428484 L16.065633437843147,4.060709724595574 L16.042978703278454,4.124911105518938 L16.018053165054006,4.188421679508249 L15.990890603027502,4.251155375076029 L15.961527828740232,4.313027173584388 L15.930004635528972,4.373953224464895 L15.896363744596808,4.433850958855454 L15.860650747116056,4.492639201500173 L15.822914042441694,4.550238280760571 L15.783204772519067,4.60657013658904 L15.741576752574746,4.661558426318228 L15.69808639818447,4.715128628122977 L15.652792648817027,4.767208142014587 L15.60575688795766,4.817726388230571 L15.557042859919287,4.866614902886518 L15.50671658345423,4.913807430760457 L15.454846262283578,4.9592400150839895 L15.401502192665394,5.002851084218456 L15.346756668127064,5.044581535098727 L15.290683881490883,5.084374813331501 L15.23335982432565,5.122176989839557 L15.174862183960549,5.1579368339481 L15.115270238200894,5.1916058828141605 L15.054664747888397,5.223138507104925 L14.993127847451595,5.2524919728360135 L14.930742933594727,5.279626499285896 L14.867594552275964,5.304505312907953 L14.803768284128104,5.327094697167116 L14.739350628477084,5.347364038233558 L14.674428886115406,5.365285866471499 L14.609091040989417,5.380835893666899 L14.543425640960766,5.3939930459436 L14.477521677803592,5.404739492323291 L14.411468466600144,5.413060668890595 L14.345355524698222,5.418945298530544 L14.279272450394512,5.422385406211666 L14.213308801508209,5.423376329793995 L14.1475539740095,5.42191672634735 L14.082097080867394,5.41800857397131 L14.017026831281072,5.41165716911444 L13.952431410458455,5.402871119396369 L13.888398360104889,5.391662331942494 L13.825014459783917,5.378045997247062 L13.762365609310958,5.362040568586554 L13.700536712339217,5.34366773701123 L13.63961156129564,5.322952401948752 L13.579672723822837,5.299922637459712 L13.520801430880864,5.2746096541908 L13.463077466660524,5.247047757077171 L13.406579060457368,5.217274298851342 L13.351382780652953,5.185329629421615 L13.297563430947001,5.151257041188643 L13.245193948981123,5.11510271037423 L13.194345307491483,5.076915634441891 L13.145086418124347,5.036747565693981 L13.097484038044916,4.994652941135388 " />
			<path d="M13.097484038044904,4.994652941135377 L13.052790123651798,4.951871820027679 L13.009785075390175,4.9073734534232765 L12.968524141654948,4.861215008176537 L12.929060330184829,4.813455783837508 L12.891444339963517,4.76415713647004 L12.855724496086946,4.713382399827925 L12.821946687680242,4.661196803990306 L12.790154308944171,4.607667391560882 " />
			<path d="M15.22626453377451,1.9613743290908388 L15.282236221655817,1.9886382887529095 L15.33703261614688,2.0179918559035497 L15.390583320562541,2.0493973201451303 L15.442819538550163,2.082814335016921 L15.493674162471994,2.118199969828012 L15.54308185961806,2.155508764810183 L15.590979156138799,2.1946927895198645 L15.637304518589634,2.2357017044141605 " />
			<path d="M15.63730451858964,2.2357017044141654 L15.69808639818447,2.2947257672648957 L15.755662523907676,2.3569309135707464 L15.809894189829317,2.422167285685739 L15.860650747116056,2.4902777234754163 L15.907809918775639,2.5610981429293735 L15.951258094232884,2.6344579314540106 L15.990890603027502,2.7101803588932127 L16.02661196697441,2.788083003286778 L16.058336130179036,2.867978190340896 L16.085986666353516,2.9496734455519613 L16.1094969629343,3.032971957894511 L16.12881038155767,3.1176730539562247 L16.143880394506503,3.2035726813777496 L16.15467069679963,3.290463900432709 L16.161155293653707,3.378137382563628 L16.16331856310693,3.466381914672753 " />
			<path d="M25.74158141531845,2.672806404795372 L25.740364469344918,2.7392367072675365 L25.73671528066702,2.8057786334696146 L25.73063879477773,2.872342003732177 L25.72214324671802,2.9388366093241403 L25.711240149916485,3.005172334706422 L25.697944280585983,3.0712592796592975 L25.682273657698445,3.13700788111795 L25.664249518565033,3.202329034551095 L25.643896290054666,3.267134214718185 L25.62124155548997,3.3313355956415487 L25.596316017265526,3.3948461696308594 L25.569153455239018,3.45757986519864 L25.53979068095175,3.519451663706999 L25.50826748774049,3.5803777145875064 L25.474626596808324,3.6402754489780653 L25.438913599327574,3.6990636916227837 L25.40117689465321,3.7566627708831817 L25.361467624730587,3.812994626711651 L25.319839604786264,3.8679829164408397 L25.276349250395988,3.921553118245588 L25.231055501028543,3.9736326321371984 L25.184019740169177,4.024150878353182 L25.135305712130805,4.073039393009129 L25.084979435665748,4.120231920883068 L25.033109114495097,4.165664505206601 L24.97976504487691,4.209275574341067 L24.925019520338584,4.251006025221338 L24.8689467337024,4.290799303454112 L24.811622676537166,4.328601479962168 L24.753125036172065,4.364361324070711 L24.693533090412412,4.398030372936772 L24.632927600099915,4.429562997227536 L24.571390699663112,4.458916462958625 L24.509005785806245,4.486050989408507 L24.44585740448748,4.510929803030564 L24.382031136339624,4.533519187289727 L24.317613480688603,4.553788528356169 L24.252691738326924,4.57171035659411 L24.187353893200935,4.58726038378951 L24.121688493172282,4.600417536066211 L24.05578453001511,4.611163982445902 L23.98973131881166,4.619485159013206 L23.92361837690974,4.625369788653155 L23.857535302606028,4.628809896334277 L23.791571653719725,4.629800819916606 L23.725816826221017,4.628341216469961 L23.66035993307891,4.624433064093921 L23.59528968349259,4.618081659237051 L23.530694262669975,4.6092956095189805 L23.466661212316406,4.598086822065105 L23.403277311995435,4.584470487369673 L23.340628461522474,4.568465058709165 L23.278799564550734,4.550092227133841 L23.217874413507158,4.5293768920713635 L23.157935576034355,4.506347127582323 L23.099064283092382,4.481034144313411 L23.04134031887204,4.453472247199782 L22.984841912668887,4.423698788973953 L22.92964563286447,4.391754119544226 L22.87582628315852,4.357681531311254 L22.82345680119264,4.321527200496841 L22.772608159703,4.283340124564502 L22.723349270335863,4.243172055816592 L22.675746890256434,4.201077431257999 " />
			<path d="M22.675746890256423,4.201077431257988 L22.631052975863316,4.158296310150291 L22.588047927601693,4.113797943545888 L22.546786993866466,4.067639498299148 L22.507323182396345,4.01988027396012 L22.469707192175036,3.9705816265926517 L22.433987348298466,3.9198068899505367 L22.400209539891762,3.8676212941129178 L22.36841716115569,3.814091881683494 " />
			<path d="M24.80452738598603,1.1677988192134512 L24.860499073867334,1.1950627788755215 L24.915295468358398,1.224416346026162 L24.96884617277406,1.2558218102677423 L25.02108239076168,1.2892388251395326 L25.071937014683513,1.3246244599506236 L25.12134471182958,1.361933254932795 L25.169242008350317,1.401117279642476 L25.215567370801153,1.4421261945367714 " />
			<path d="M25.215567370801157,1.4421261945367765 L25.276349250395988,1.5011502573875068 L25.333925376119193,1.5633554036933577 L25.388157042040834,1.6285917758083504 L25.438913599327574,1.6967022135980274 L25.486072770987157,1.7675226330519849 L25.5295209464444,1.8408824215766217 L25.569153455239018,1.9166048490158238 L25.604874819185927,1.994507493409389 L25.636598982390556,2.074402680463507 L25.664249518565033,2.1560979356745724 L25.687759815145817,2.2393964480171222 L25.707073233769187,2.324097544078836 L25.72214324671802,2.4099971715003607 L25.732933549011147,2.4968883905553203 L25.739418145865226,2.584561872686239 L25.74158141531845,2.672806404795364 " />
			<path d="M35.31984426752996,1.8792308949179835 L35.318627321556434,1.945661197390148 L35.31497813287853,2.0122031235922266 L35.30890164698924,2.078766493854789 L35.300406098929535,2.145261099446752 L35.289503002128,2.2115968248290336 L35.276207132797495,2.277683769781909 L35.260536509909954,2.3434323712405614 L35.242512370776545,2.4087535246737066 L35.22215914226618,2.473558704840797 L35.19950440770148,2.5377600857641602 L35.17457886947704,2.601270659753471 L35.147416307450534,2.664004355321252 L35.11805353316326,2.725876153829611 L35.086530339952,2.786802204710118 L35.05288944901984,2.8466999391006764 L35.017176451539086,2.9054881817453952 L34.97943974686473,2.9630872610057932 L34.939730476942096,3.0194191168342623 L34.898102456997776,3.0744074065634512 L34.854612102607504,3.1279776083682 L34.80931835324006,3.18005712225981 L34.76228259238069,3.230575368475794 L34.71356856434232,3.27946388313174 L34.66324228787726,3.32665641100568 L34.611371966706606,3.3720889953292117 L34.55802789708842,3.415700064463678 L34.503282372550096,3.45743051534395 L34.44720958591392,3.497223793576724 L34.38988552874868,3.535025970084779 L34.33138788838358,3.5707858141933224 L34.271795942623925,3.6044548630593836 L34.21119045231143,3.6359874873501474 L34.14965355187462,3.6653409530812358 L34.087268638017754,3.6924754795311183 L34.02412025669899,3.717354293153175 L33.960293988551136,3.7399436774123385 L33.895876332900116,3.760213018478781 L33.83095459053843,3.7781348467167213 L33.76561674541245,3.793684873912121 L33.699951345383795,3.8068420261888227 L33.634047382226626,3.817588472568513 L33.56799417102317,3.8259096491358178 L33.50188122912125,3.831794278775767 L33.43579815481754,3.835234386456889 L33.36983450593124,3.836225310039218 L33.30407967843253,3.8347657065925724 L33.238622785290424,3.830857554216533 L33.173552535704104,3.824506149359662 L33.108957114881484,3.815720099641592 L33.04492406452792,3.8045113121877168 L32.98154016420695,3.790894977492285 L32.91889131373399,3.774889548831777 L32.85706241676225,3.756516717256453 L32.79613726571867,3.735801382193975 L32.736198428245864,3.7127716177049352 L32.67732713530389,3.687458634436023 L32.619603171083554,3.659896737322394 L32.5631047648804,3.630123279096564 L32.50790848507599,3.5981786096668373 L32.45408913537003,3.564106021433866 L32.40171965340416,3.527951690619452 L32.35087101191451,3.489764614687113 L32.301612122547375,3.449596545939203 L32.25400974246794,3.407501921380611 " />
			<path d="M32.254009742467936,3.4075019213806 L32.20931582807483,3.3647208002729023 L32.1663107798132,3.3202224336684987 L32.12504984607798,3.27406398842176 L32.08558603460786,3.226304764082731 L32.047970044386545,3.1770061167152623 L32.012250200509975,3.126231380073148 L31.978472392103274,3.074045784235529 L31.946680013367203,3.0205163718061048 " />
			<path d="M34.38279023819754,0.37422330933606207 L34.43876192607885,0.4014872689981326 L34.49355832056991,0.4308408361487728 L34.54710902498557,0.46224630039035297 L34.59934524297319,0.4956633152621437 L34.65019986689502,0.5310489500732352 L34.69960756404109,0.568357745055406 L34.74750486056183,0.6075417697650869 L34.79383022301266,0.6485506846593829 " />
			<path d="M34.79383022301267,0.648550684659388 L34.8546121026075,0.7075747475101184 L34.912188228330706,0.7697798938159692 L34.96641989425235,0.8350162659309619 L35.017176451539086,0.903126703720639 L35.06433562319867,0.9739471231745964 L35.107783798655916,1.0473069116992333 L35.147416307450534,1.1230293391384354 L35.18313767139744,1.2009319835320005 L35.21486183460207,1.2808271705861187 L35.242512370776545,1.362522425797184 L35.26602266735733,1.4458209381397338 L35.2853360859807,1.5305220342014474 L35.300406098929535,1.6164216616229723 L35.31119640122266,1.7033128806779319 L35.31768099807674,1.7909863628088507 L35.31984426752996,1.8792308949179755 " />
			<path d="M6.585055710895417,13.871038599731857 L6.583838764921886,13.937468902204023 L6.580189576243987,14.0040108284061 L6.574113090354697,14.070574198668663 L6.565617542294988,14.137068804260625 L6.554714445493454,14.203404529642908 L6.5414185761629495,14.269491474595783 L6.525747953275413,14.335240076054435 L6.507723814142002,14.40056122948758 L6.487370585631633,14.46536640965467 L6.464715851066939,14.529567790578033 L6.439790312842494,14.593078364567345 L6.412627750815988,14.655812060135126 L6.383264976528718,14.717683858643484 L6.351741783317458,14.778609909523992 L6.318100892385293,14.83850764391455 L6.2823878949045415,14.89729588655927 L6.244651190230179,14.954894965819667 L6.2049419203075535,15.011226821648137 L6.163313900363232,15.066215111377325 L6.119823545972956,15.119785313182074 L6.074529796605512,15.171864827073684 L6.027494035746146,15.222383073289668 L5.978780007707772,15.271271587945614 L5.9284537312427155,15.318464115819554 L5.8765834100720635,15.363896700143085 L5.823239340453879,15.407507769277553 L5.7684938159155505,15.449238220157824 L5.71242102927937,15.489031498390599 L5.655096972114135,15.526833674898652 L5.596599331749035,15.562593519007196 L5.53700738598938,15.596262567873257 L5.476401895676883,15.627795192164022 L5.41486499524008,15.65714865789511 L5.352480081383213,15.684283184344991 L5.289331700064449,15.70916199796705 L5.225505431916591,15.731751382226212 L5.16108777626557,15.752020723292656 L5.096166033903891,15.769942551530596 L5.030828188777903,15.785492578725995 L4.965162788749252,15.798649731002698 L4.899258825592078,15.809396177382387 L4.833205614388629,15.817717353949693 L4.767092672486707,15.82360198358964 L4.701009598182997,15.827042091270762 L4.635045949296694,15.828033014853093 L4.569291121797987,15.826573411406446 L4.50383422865588,15.822665259030407 L4.4387639790695586,15.816313854173536 L4.374168558246941,15.807527804455466 L4.310135507893374,15.79631901700159 L4.246751607572403,15.782702682306159 L4.184102757099443,15.766697253645651 L4.122273860127701,15.748324422070327 L4.061348709084125,15.727609087007849 L4.001409871611322,15.704579322518809 L3.9425385786693496,15.679266339249898 L3.884814614449009,15.651704442136268 L3.8283162082458535,15.621930983910438 L3.7731199284414387,15.589986314480711 L3.7193005787354867,15.55591372624774 L3.66693109676961,15.519759395433326 L3.616082455279968,15.481572319500987 L3.5668235659128316,15.441404250753077 L3.5192211858334015,15.399309626194485 " />
			<path d="M3.51922118583339,15.399309626194475 L3.4745272714402833,15.356528505086775 L3.4315222231786597,15.312030138482372 L3.390261289443432,15.265871693235631 L3.3507974779733116,15.218112468896603 L3.313181487752,15.168813821529133 L3.277461643875429,15.118039084887018 L3.2436838354687256,15.065853489049399 L3.211891456732654,15.012324076619974 " />
			<path d="M5.648001681562999,12.366031014149936 L5.703973369444304,12.393294973812008 L5.758769763935366,12.422648540962648 L5.812320468351028,12.454054005204227 L5.864556686338649,12.487471020076018 L5.915411310260481,12.522856654887109 L5.964819007406547,12.560165449869281 L6.012716303927285,12.599349474578961 L6.05904166637812,12.640358389473256 " />
			<path d="M6.059041666378126,12.640358389473262 L6.119823545972956,12.699382452323992 L6.177399671696161,12.761587598629843 L6.231631337617803,12.826823970744837 L6.2823878949045415,12.894934408534514 L6.329547066564125,12.965754827988471 L6.372995242021369,13.039114616513107 L6.412627750815987,13.11483704395231 L6.4483491147628955,13.192739688345874 L6.480073277967523,13.272634875399993 L6.507723814142001,13.354330130611057 L6.531234110722786,13.437628642953609 L6.550547529346154,13.522329739015321 L6.565617542294989,13.608229366436847 L6.576407844588116,13.695120585491805 L6.582892441442194,13.782794067622724 L6.585055710895417,13.87103859973185 " />
			<path d="M16.16331856310693,13.077463089854469 L16.162101617133402,13.143893392326634 L16.1584524284555,13.210435318528711 L16.15237594256621,13.276998688791274 L16.143880394506503,13.343493294383237 L16.13297729770497,13.40982901976552 L16.119681428374463,13.475915964718395 L16.104010805486926,13.541664566177046 L16.085986666353516,13.606985719610192 L16.065633437843147,13.671790899777282 L16.042978703278454,13.735992280700644 L16.018053165054006,13.799502854689957 L15.990890603027502,13.862236550257737 L15.961527828740232,13.924108348766095 L15.930004635528972,13.985034399646603 L15.896363744596808,14.044932134037161 L15.860650747116056,14.103720376681881 L15.822914042441694,14.161319455942278 L15.783204772519067,14.217651311770748 L15.741576752574746,14.272639601499936 L15.69808639818447,14.326209803304685 L15.652792648817027,14.378289317196295 L15.60575688795766,14.42880756341228 L15.557042859919287,14.477696078068226 L15.50671658345423,14.524888605942165 L15.454846262283578,14.570321190265696 L15.401502192665394,14.613932259400164 L15.346756668127064,14.655662710280435 L15.290683881490883,14.69545598851321 L15.23335982432565,14.733258165021264 L15.174862183960549,14.769018009129807 L15.115270238200894,14.802687057995868 L15.054664747888397,14.834219682286633 L14.993127847451595,14.863573148017721 L14.930742933594727,14.890707674467603 L14.867594552275964,14.91558648808966 L14.803768284128104,14.938175872348824 L14.739350628477084,14.958445213415267 L14.674428886115406,14.976367041653207 L14.609091040989417,14.991917068848606 L14.543425640960766,15.005074221125309 L14.477521677803592,15.015820667504999 L14.411468466600144,15.024141844072304 L14.345355524698222,15.030026473712251 L14.279272450394512,15.033466581393373 L14.213308801508209,15.034457504975704 L14.1475539740095,15.032997901529058 L14.082097080867394,15.029089749153018 L14.017026831281072,15.022738344296148 L13.952431410458455,15.013952294578077 L13.888398360104889,15.002743507124201 L13.825014459783917,14.98912717242877 L13.762365609310958,14.973121743768262 L13.700536712339217,14.954748912192938 L13.63961156129564,14.93403357713046 L13.579672723822837,14.91100381264142 L13.520801430880864,14.885690829372509 L13.463077466660524,14.858128932258879 L13.406579060457368,14.82835547403305 L13.351382780652953,14.796410804603322 L13.297563430947001,14.76233821637035 L13.245193948981123,14.726183885555937 L13.194345307491483,14.687996809623598 L13.145086418124347,14.647828740875688 L13.097484038044916,14.605734116317096 " />
			<path d="M13.097484038044904,14.605734116317086 L13.052790123651798,14.562952995209386 L13.009785075390175,14.518454628604983 L12.968524141654948,14.472296183358244 L12.929060330184827,14.424536959019214 L12.891444339963515,14.375238311651746 L12.855724496086944,14.32446357500963 L12.821946687680242,14.272277979172012 L12.79015430894417,14.218748566742587 " />
			<path d="M15.226264533774511,11.572455504272547 L15.282236221655818,11.599719463934617 L15.33703261614688,11.629073031085259 L15.390583320562541,11.660478495326839 L15.442819538550163,11.69389551019863 L15.493674162471995,11.72928114500972 L15.543081859618061,11.766589939991892 L15.590979156138799,11.805773964701572 L15.637304518589634,11.846782879595867 " />
			<path d="M15.63730451858964,11.846782879595873 L15.69808639818447,11.905806942446603 L15.755662523907676,11.968012088752454 L15.809894189829317,12.033248460867448 L15.860650747116056,12.101358898657125 L15.907809918775639,12.172179318111082 L15.951258094232884,12.245539106635718 L15.990890603027502,12.321261534074921 L16.02661196697441,12.399164178468485 L16.058336130179036,12.479059365522604 L16.085986666353516,12.560754620733668 L16.1094969629343,12.64405313307622 L16.12881038155767,12.728754229137932 L16.143880394506503,12.814653856559458 L16.15467069679963,12.901545075614417 L16.161155293653707,12.989218557745335 L16.16331856310693,13.077463089854461 " />
			<path d="M25.74158141531845,12.283887579977081 L25.740364469344918,12.350317882449247 L25.73671528066702,12.416859808651324 L25.73063879477773,12.483423178913887 L25.72214324671802,12.54991778450585 L25.711240149916485,12.616253509888132 L25.697944280585983,12.682340454841007 L25.682273657698445,12.748089056299658 L25.664249518565033,12.813410209732805 L25.643896290054666,12.878215389899895 L25.62124155548997,12.942416770823257 L25.596316017265526,13.00592734481257 L25.569153455239018,13.06866104038035 L25.53979068095175,13.130532838888708 L25.50826748774049,13.191458889769216 L25.474626596808324,13.251356624159774 L25.438913599327574,13.310144866804492 L25.40117689465321,13.367743946064891 L25.361467624730587,13.42407580189336 L25.319839604786264,13.479064091622549 L25.276349250395988,13.532634293427298 L25.231055501028543,13.584713807318908 L25.184019740169177,13.635232053534892 L25.135305712130805,13.684120568190838 L25.084979435665748,13.731313096064778 L25.033109114495097,13.77674568038831 L24.97976504487691,13.820356749522777 L24.925019520338584,13.862087200403048 L24.8689467337024,13.901880478635821 L24.811622676537166,13.939682655143876 L24.753125036172065,13.97544249925242 L24.693533090412412,14.009111548118481 L24.632927600099915,14.040644172409245 L24.571390699663112,14.069997638140334 L24.509005785806245,14.097132164590217 L24.44585740448748,14.122010978212273 L24.382031136339624,14.144600362471436 L24.317613480688603,14.164869703537878 L24.252691738326924,14.18279153177582 L24.187353893200935,14.198341558971219 L24.121688493172282,14.21149871124792 L24.05578453001511,14.222245157627611 L23.98973131881166,14.230566334194915 L23.92361837690974,14.236450963834866 L23.857535302606028,14.239891071515988 L23.791571653719725,14.240881995098317 L23.725816826221017,14.23942239165167 L23.66035993307891,14.23551423927563 L23.59528968349259,14.22916283441876 L23.530694262669975,14.22037678470069 L23.466661212316406,14.209167997246816 L23.403277311995435,14.195551662551383 L23.340628461522474,14.179546233890875 L23.278799564550734,14.161173402315551 L23.217874413507158,14.140458067253073 L23.157935576034355,14.117428302764033 L23.099064283092382,14.092115319495122 L23.04134031887204,14.064553422381492 L22.984841912668887,14.034779964155662 L22.92964563286447,14.002835294725935 L22.87582628315852,13.968762706492964 L22.82345680119264,13.93260837567855 L22.772608159703,13.894421299746211 L22.723349270335863,13.854253230998301 L22.675746890256434,13.81215860643971 " />
			<path d="M22.675746890256423,13.812158606439699 L22.631052975863316,13.769377485332 L22.588047927601693,13.724879118727596 L22.546786993866466,13.678720673480857 L22.507323182396345,13.630961449141827 L22.469707192175033,13.581662801774359 L22.433987348298462,13.530888065132242 L22.40020953989176,13.478702469294623 L22.368417161155687,13.425173056865198 " />
			<path d="M24.804527385986027,10.778879994395158 L24.86049907386733,10.80614395405723 L24.915295468358394,10.83549752120787 L24.968846172774057,10.86690298544945 L25.02108239076168,10.90032000032124 L25.071937014683513,10.935705635132333 L25.12134471182958,10.973014430114503 L25.169242008350317,11.012198454824185 L25.215567370801153,11.05320736971848 " />
			<path d="M25.215567370801157,11.053207369718486 L25.276349250395988,11.112231432569217 L25.333925376119193,11.174436578875067 L25.388157042040834,11.23967295099006 L25.438913599327574,11.307783388779736 L25.486072770987157,11.378603808233695 L25.5295209464444,11.45196359675833 L25.569153455239018,11.527686024197534 L25.604874819185927,11.605588668591098 L25.636598982390556,11.685483855645217 L25.664249518565033,11.767179110856283 L25.687759815145817,11.850477623198833 L25.707073233769187,11.935178719260545 L25.72214324671802,12.02107834668207 L25.732933549011147,12.10796956573703 L25.739418145865226,12.195643047867948 L25.74158141531845,12.283887579977073 " />
			<path d="M35.31984426752996,11.490312070099693 L35.318627321556434,11.556742372571858 L35.31497813287853,11.623284298773935 L35.30890164698924,11.689847669036498 L35.300406098929535,11.75634227462846 L35.289503002128,11.822678000010743 L35.276207132797495,11.888764944963619 L35.260536509909954,11.95451354642227 L35.242512370776545,12.019834699855416 L35.22215914226618,12.084639880022506 L35.19950440770148,12.148841260945868 L35.17457886947704,12.21235183493518 L35.147416307450534,12.275085530502961 L35.11805353316326,12.33695732901132 L35.086530339952,12.397883379891827 L35.05288944901984,12.457781114282385 L35.017176451539086,12.516569356927103 L34.97943974686473,12.574168436187502 L34.939730476942096,12.630500292015972 L34.898102456997776,12.68548858174516 L34.854612102607504,12.73905878354991 L34.80931835324006,12.791138297441519 L34.76228259238069,12.841656543657503 L34.71356856434232,12.89054505831345 L34.66324228787726,12.937737586187389 L34.611371966706606,12.98317017051092 L34.55802789708842,13.026781239645388 L34.503282372550096,13.068511690525659 L34.44720958591392,13.108304968758432 L34.38988552874868,13.146107145266487 L34.33138788838358,13.181866989375031 L34.271795942623925,13.215536038241092 L34.21119045231143,13.247068662531856 L34.14965355187462,13.276422128262945 L34.087268638017754,13.303556654712828 L34.02412025669899,13.328435468334884 L33.960293988551136,13.351024852594048 L33.895876332900116,13.37129419366049 L33.83095459053843,13.38921602189843 L33.76561674541245,13.40476604909383 L33.699951345383795,13.417923201370531 L33.634047382226626,13.428669647750223 L33.56799417102317,13.436990824317526 L33.50188122912125,13.442875453957477 L33.43579815481754,13.446315561638599 L33.36983450593124,13.447306485220928 L33.30407967843253,13.445846881774282 L33.238622785290424,13.441938729398242 L33.173552535704104,13.435587324541372 L33.108957114881484,13.426801274823301 L33.04492406452792,13.415592487369427 L32.98154016420695,13.401976152673994 L32.91889131373399,13.385970724013486 L32.85706241676225,13.367597892438162 L32.79613726571867,13.346882557375684 L32.736198428245864,13.323852792886644 L32.67732713530389,13.298539809617733 L32.619603171083554,13.270977912504103 L32.5631047648804,13.241204454278273 L32.50790848507599,13.209259784848546 L32.45408913537003,13.175187196615575 L32.40171965340416,13.13903286580116 L32.35087101191451,13.100845789868822 L32.301612122547375,13.060677721120912 L32.25400974246794,13.01858309656232 " />
			<path d="M32.254009742467936,13.01858309656231 L32.20931582807483,12.975801975454612 L32.1663107798132,12.931303608850207 L32.12504984607798,12.885145163603468 L32.08558603460786,12.83738593926444 L32.047970044386545,12.788087291896971 L32.012250200509975,12.737312555254857 L31.97847239210327,12.685126959417238 L31.9466800133672,12.631597546987813 " />
			<path d="M34.38279023819754,9.985304484517771 L34.43876192607885,10.012568444179841 L34.49355832056991,10.041922011330481 L34.54710902498557,10.073327475572063 L34.59934524297319,10.106744490443852 L34.65019986689502,10.142130125254944 L34.69960756404109,10.179438920237114 L34.74750486056183,10.218622944946796 L34.79383022301266,10.259631859841091 " />
			<path d="M34.79383022301267,10.259631859841097 L34.8546121026075,10.318655922691828 L34.912188228330706,10.380861068997678 L34.96641989425235,10.446097441112672 L35.017176451539086,10.514207878902347 L35.06433562319867,10.585028298356306 L35.107783798655916,10.658388086880942 L35.147416307450534,10.734110514320145 L35.18313767139744,10.81201315871371 L35.21486183460207,10.891908345767828 L35.242512370776545,10.973603600978894 L35.26602266735733,11.056902113321444 L35.2853360859807,11.141603209383156 L35.300406098929535,11.227502836804682 L35.31119640122266,11.31439405585964 L35.31768099807674,11.40206753799056 L35.31984426752996,11.490312070099684 " />
			<path d="M5.340671952462262,2.36796428939373 L6.059041666378126,3.029277214291554 " />
			<path d="M2.8008514719175257,5.126915526114942 L3.5192211858333895,5.788228451012766 " />
			<path d="M14.918934804673777,1.5743887795163418 L15.63730451858964,2.235701704414166 " />
			<path d="M12.379114324129041,4.333340016237554 L13.097484038044906,4.994652941135378 " />
			<path d="M24.497197656885294,0.7808132696389529 L25.215567370801157,1.442126194536777 " />
			<path d="M21.957377176340557,3.5397645063601653 L22.67574689025642,4.201077431257989 " />
			<path d="M34.07546050909681,-0.012762240238435085 L34.79383022301267,0.6485506846593889 " />
			<path d="M31.535640028552073,2.7461889964827764 L32.254009742467936,3.4075019213806006 " />
			<path d="M5.340671952462262,11.979045464575439 L6.059041666378126,12.640358389473263 " />
			<path d="M2.8008514719175253,14.73799670129665 L3.519221185833389,15.399309626194475 " />
			<path d="M14.918934804673777,11.18546995469805 L15.63730451858964,11.846782879595875 " />
			<path d="M12.379114324129041,13.944421191419261 L13.097484038044906,14.605734116317086 " />
			<path d="M24.497197656885294,10.391894444820661 L25.215567370801157,11.053207369718486 " />
			<path d="M21.957377176340557,13.150845681541872 L22.67574689025642,13.812158606439697 " />
			<path d="M34.07546050909681,9.598318934943272 L34.79383022301267,10.259631859841097 " />
			<path d="M31.535640028552073,12.357270171664483 L32.254009742467936,13.018583096562308 " />

       </g>

       <!-- solid lines -->
       <g  stroke="rgb(0,0,0)" fill="none">
			<path d="M-0.7183697139158636,-0.6613129248978239 L-0.7183697139158641,37.78301177582901 " />
			<path d="M-5.551115123125782e-16,38.44432470072683 L-0.7183697139158642,37.78301177582901 " />
			<path d="M38.313051408846064,-3.174302039509554 L37.5946816949302,-3.8356149644073776 " />
			<path d="M-0.7183697139158636,-0.6613129248978239 L37.5946816949302,-3.8356149644073776 " />
			<path d="M-0.7183697139158641,37.78301177582901 L37.5946816949302,34.608709736319454 " />
			<path d="M37.5946816949302,-3.8356149644073776 L37.5946816949302,34.608709736319454 " />
			<path d="M5.8666859969795535,3.598644499652326 L5.86452272752633,3.5103999675431914 L5.858038130672252,3.4227264854122734 L5.847247828379125,3.3358352663573143 L5.832177815430292,3.24993563893579 L5.812864396806923,3.1652345428740762 L5.789354100226138,3.081936030531526 L5.761703564051659,3.000240775320461 L5.729979400847032,2.9203455882663434 L5.694258036900125,2.8424429438727787 L5.654625528105507,2.766720516433577 L5.611177352648263,2.6933607279089395 L5.564018180988679,2.6225403084549814 L5.513261623701939,2.554429870665303 L5.459029957780298,2.4891934985503106 L5.401453832057093,2.4269883522444604 L5.340671952462275,2.3679642893937407 " />
			<path d="M5.340671952462262,2.3679642893937296 L5.276830747867617,2.312263504135423 L5.210084017326852,2.2600201845400414 L5.140592559560165,2.2113601893404633 L5.068523785576048,2.1664007447272375 L4.994051315363507,2.1252501619404187 L4.917354559626303,2.0880075763383066 L4.838618287566849,2.054762708571681 L4.75803218176102,2.025595648438899 L4.67579038119621,2.000576661942553 L4.592091013573511,1.9797660220125168 L4.507135718000726,1.9632138633031788 L4.421129159226093,1.9509600614146678 L4.334278534582987,1.9430341368290394 L4.246793074833388,1.9394551837928495 L4.1588835401126545,1.940231824317441 L4.070761712189894,1.9453621874077653 L3.982639884267134,1.9548339135697705 L3.8947303495464007,1.9686241845855075 L3.8072448897968014,1.9866997784842138 L3.7203942651536948,2.0090171495769527 L3.634387706379062,2.0355225333619913 L3.5494324108062765,2.0661520760481933 L3.4657330431835787,2.100831988384397 L3.3834912426187684,2.1394787234241823 L3.3029051368129387,2.1819991777977856 L3.2241688647534854,2.2282909160062667 L3.147472109016282,2.278242417197607 L3.072999638803741,2.331733343830199 L3.0009308648196233,2.3886348315765344 L2.9314394070529364,2.44880979976865 L2.8646926765121723,2.5121132816374665 L2.800851471917526,2.5783927735504326 L2.7400695923226968,2.6474886024061304 L2.682493466599491,2.719234310300768 L2.6282618006778495,2.793457055539845 L2.5775052433911108,2.8699780290289354 L2.5303460717315276,2.948612885040459 L2.486897896274283,3.029172185318684 L2.447265387479665,3.1114618554530784 L2.4115440235327577,3.195283652420565 L2.37981986032813,3.280435642170327 L2.352169324153651,3.366712686100623 L2.3286590275728667,3.453906935255649 L2.309345608949498,3.5418083310518758 L2.2942755960006647,3.6302051113275775 L2.283485293707537,3.718884320496428 L2.2770006968534595,3.807632322576157 L2.274837427400236,3.8962353158563454 L2.2770006968534595,3.9844798479654786 L2.283485293707537,4.0721533300963975 L2.2942755960006647,4.159044549151357 L2.309345608949498,4.244944176572882 L2.3286590275728667,4.329645272634595 L2.3521693241536514,4.412943784977145 L2.37981986032813,4.49463904018821 L2.411544023532757,4.574534227242329 L2.4472653874796655,4.652436871635894 L2.486897896274283,4.728159299075096 L2.5303460717315276,4.801519087599733 L2.5775052433911108,4.87233950705369 L2.6282618006778495,4.940449944843367 L2.682493466599491,5.00568631695836 L2.7400695923226968,5.0678914632642105 L2.800851471917521,5.126915526114936 " />
			<path d="M2.800851471917526,5.126915526114941 L2.8484538519969673,5.169010150673544 L2.8977127413641046,5.209178219421454 L2.948561382853747,5.247365295353794 L3.000930864819624,5.283519626168207 L3.0547502145255754,5.317592214401179 L3.10994649432999,5.349536883830905 L3.1664449005331443,5.379310342056735 L3.2241688647534854,5.406872239170364 L3.2830401576954586,5.432185222439277 L3.342978995168261,5.455214986928317 L3.4039041462118376,5.475930321990794 L3.465733043183578,5.494303153566118 L3.5283818936565376,5.510308582226626 L3.59176579397751,5.5239249169220574 L3.6557988443310787,5.535133704375934 L3.7203942651536948,5.543919754094004 L3.7854645147400157,5.550271158950874 L3.8509214078821223,5.554179311326914 L3.916676235380831,5.555638914773559 L3.982639884267134,5.55464799119123 L4.048722958570844,5.551207883510108 L4.114835900472765,5.545323253870159 L4.180889111676214,5.537002077302854 L4.246793074833388,5.526255630923164 L4.312458474862039,5.513098478646463 L4.377796319988027,5.497548451451063 L4.442718062349706,5.479626623213123 L4.507135718000726,5.45935728214668 L4.570961986148585,5.436767897887517 L4.634110367467349,5.411889084265461 L4.696495281324216,5.384754557815578 L4.75803218176102,5.35540109208449 L4.818637672073516,5.323868467793726 L4.8782296178331706,5.290199418927664 L4.936727258198271,5.254439574819121 L4.994051315363506,5.216637398311066 L5.050124101999686,5.176844120078292 L5.104869626538015,5.13511366919802 L5.158213696156199,5.091502600063554 L5.210084017326851,5.046070015740022 L5.260410293791908,4.998877487866082 L5.309124321830282,4.949988973210136 L5.356160082689648,4.899470726994152 L5.401453832057092,4.847391213102542 L5.444944186447368,4.793821011297793 L5.486572206391689,4.738832721568604 L5.526281476314316,4.682500865740136 L5.564018180988677,4.624901786479738 L5.59973117846943,4.566113543835019 L5.633372069401593,4.50621580944446 L5.664895262612855,4.445289758563953 L5.694258036900123,4.383417960055594 L5.721420598926629,4.320684264487813 L5.746346137151075,4.257173690498503 L5.76900087171577,4.192972309575139 L5.789354100226138,4.128167129408048 L5.807378239359549,4.062845975974904 L5.823048862247086,3.997097374516251 L5.836344731577591,3.9310104295633757 L5.847247828379125,3.864674704181094 L5.8557433764388325,3.798180098589131 L5.861819862328124,3.7316167283265687 L5.8654690510060234,3.665074802124489 L5.8666859969795535,3.598644499652342 " />
			<path d="M15.444948849191068,2.805068989774938 L15.442785579737844,2.7168244576658034 L15.436300982883765,2.6291509755348854 L15.425510680590639,2.5422597564799263 L15.410440667641804,2.456360129058402 L15.391127249018435,2.3716590329966882 L15.367616952437652,2.288360520654138 L15.339966416263174,2.206665265443073 L15.308242253058545,2.1267700783889554 L15.272520889111638,2.0488674339953907 L15.23288838031702,1.9731450065561889 L15.189440204859777,1.8997852180315518 L15.142281033200192,1.8289647985775932 L15.091524475913452,1.7608543607879148 L15.037292809991811,1.6956179886729228 L14.979716684268606,1.6334128423670724 L14.918934804673787,1.5743887795163525 " />
			<path d="M14.918934804673777,1.5743887795163416 L14.85509360007913,1.5186879942580351 L14.788346869538366,1.4664446746626534 L14.718855411771678,1.4177846794630755 L14.64678663778756,1.3728252348498493 L14.572314167575021,1.3316746520630307 L14.495617411837816,1.2944320664609186 L14.416881139778363,1.261187198694293 L14.336295033972533,1.2320201385615113 L14.254053233407724,1.207001152065165 L14.170353865785025,1.1861905121351288 L14.08539857021224,1.1696383534257908 L13.999392011437607,1.1573845515372798 L13.9125413867945,1.1494586269516514 L13.825055927044902,1.1458796739154615 L13.737146392324167,1.146656314440053 L13.649024564401408,1.1517866775303773 L13.560902736478647,1.1612584036923825 L13.472993201757914,1.1750486747081195 L13.385507742008315,1.1931242686068257 L13.298657117365208,1.2154416396995646 L13.212650558590575,1.2419470234846033 L13.12769526301779,1.2725765661708053 L13.043995895395092,1.3072564785070089 L12.961754094830281,1.3459032135467945 L12.881167989024453,1.3884236679203976 L12.802431716965,1.434715406128879 L12.725734961227795,1.4846669073202188 L12.651262491015254,1.538157833952811 L12.579193717031137,1.5950593216991464 L12.50970225926445,1.6552342898912622 L12.442955528723685,1.7185377717600787 L12.37911432412904,1.7848172636730444 L12.31833244453421,1.8539130925287426 L12.260756318811005,1.92565880042338 L12.206524652889364,1.9998815456624568 L12.155768095602625,2.0764025191515474 L12.108608923943041,2.155037375163071 L12.065160748485797,2.235596675441296 L12.025528239691178,2.3178863455756904 L11.989806875744272,2.401708142543177 L11.958082712539643,2.486860132292939 L11.930432176365164,2.573137176223235 L11.906921879784381,2.660331425378261 L11.887608461161012,2.7482328211744877 L11.872538448212179,2.8366296014501895 L11.861748145919051,2.92530881061904 L11.855263549064972,3.014056812698769 L11.853100279611748,3.1026598059789574 L11.855263549064972,3.1909043380880906 L11.861748145919051,3.2785778202190095 L11.872538448212179,3.365469039273969 L11.887608461161012,3.451368666695494 L11.906921879784381,3.5360697627572075 L11.930432176365164,3.6193682750997573 L11.958082712539643,3.7010635303108224 L11.989806875744272,3.780958717364941 L12.025528239691178,3.858861361758506 L12.065160748485797,3.934583789197708 L12.108608923943041,4.0079435777223456 L12.155768095602625,4.078763997176303 L12.206524652889364,4.14687443496598 L12.260756318811005,4.212110807080972 L12.31833244453421,4.274315953386823 L12.379114324129034,4.333340016237548 " />
			<path d="M12.37911432412904,4.333340016237553 L12.42671670420848,4.375434640796156 L12.475975593575617,4.415602709544066 L12.526824235065261,4.453789785476406 L12.579193717031137,4.48994411629082 L12.633013066737089,4.52401670452379 L12.688209346541504,4.555961373953517 L12.744707752744658,4.585734832179347 L12.802431716965,4.613296729292976 L12.861303009906973,4.638609712561889 L12.921241847379774,4.661639477050928 L12.98216699842335,4.682354812113406 L13.043995895395092,4.7007276436887295 L13.106644745868051,4.716733072349238 L13.170028646189023,4.73034940704467 L13.234061696542591,4.741558194498546 L13.298657117365208,4.750344244216615 L13.36372736695153,4.756695649073487 L13.429184260093635,4.760603801449526 L13.494939087592345,4.762063404896171 L13.560902736478647,4.7610724813138425 L13.626985810782356,4.75763237363272 L13.693098752684278,4.751747743992771 L13.759151963887726,4.743426567425466 L13.8250559270449,4.732680121045776 L13.890721327073553,4.719522968769075 L13.95605917219954,4.703972941573675 L14.02098091456122,4.6860511133357345 L14.08539857021224,4.665781772269292 L14.149224838360098,4.643192388010129 L14.212373219678863,4.618313574388072 L14.274758133535729,4.59117904793819 L14.336295033972533,4.561825582207101 L14.39690052428503,4.530292957916338 L14.456492470044683,4.496623909050276 L14.514990110409784,4.460864064941733 L14.57231416757502,4.423061888433677 L14.6283869542112,4.383268610200904 L14.683132478749528,4.341538159320632 L14.736476548367714,4.297927090186166 L14.788346869538366,4.252494505862634 L14.838673146003421,4.205301977988694 L14.887387174041796,4.156413463332748 L14.934422934901162,4.105895217116764 L14.979716684268606,4.053815703225154 L15.023207038658882,4.000245501420405 L15.064835058603203,3.9452572116912163 L15.10454432852583,3.8889253558627472 L15.142281033200192,3.8313262766023493 L15.177994030680942,3.772538033957631 L15.211634921613108,3.712640299567072 L15.243158114824368,3.651714248686565 L15.272520889111638,3.589842450178206 L15.299683451138144,3.527108754610425 L15.324608989362588,3.4635981806211142 L15.347263723927284,3.399396799697751 L15.36761695243765,3.3345916195306606 L15.385641091571063,3.2692704660975154 L15.401311714458599,3.203521864638863 L15.414607583789104,3.1374349196859876 L15.425510680590639,3.071099194303706 L15.434006228650347,3.004604588711743 L15.440082714539637,2.9380412184491806 L15.443731903217536,2.871499292247101 L15.444948849191068,2.805068989774954 " />
			<path d="M25.023211701402587,2.011493479897549 L25.021048431949364,1.9232489477884145 L25.014563835095284,1.8355754656574965 L25.003773532802157,1.7486842466025376 L24.988703519853324,1.662784619181013 L24.969390101229955,1.5780835231192993 L24.94587980464917,1.494785010776749 L24.918229268474693,1.413089755565684 L24.886505105270064,1.3331945685115665 L24.85078374132316,1.2552919241180018 L24.81115123252854,1.1795694966788 L24.767703057071294,1.1062097081541629 L24.72054388541171,1.0353892887002043 L24.669787328124972,0.9672788509105259 L24.61555566220333,0.9020424787955339 L24.557979536480126,0.8398373324896835 L24.49719765688531,0.7808132696389636 " />
			<path d="M24.497197656885294,0.7808132696389527 L24.43335645229065,0.7251124843806462 L24.366609721749885,0.6728691647852645 L24.297118263983197,0.6242091695856866 L24.22504948999908,0.5792497249724604 L24.15057701978654,0.5380991421856418 L24.073880264049336,0.5008565565835297 L23.99514399198988,0.4676116888169042 L23.914557886184053,0.4384446286841224 L23.832316085619244,0.413425642187776 L23.748616717996544,0.39261500225773993 L23.663661422423758,0.3760628435484019 L23.577654863649126,0.3638090416598909 L23.49080423900602,0.35588311707426246 L23.40331877925642,0.35230416403807263 L23.315409244535687,0.3530808045626641 L23.227287416612928,0.35821116765298844 L23.13916558869017,0.36768289381499364 L23.051256053969432,0.38147316483073057 L22.963770594219834,0.39954875872943685 L22.87691996957673,0.42186612982217575 L22.790913410802094,0.4483715136072144 L22.70595811522931,0.4790010562934164 L22.62225874760661,0.51368096862962 L22.540016947041803,0.5523277036694056 L22.45943084123597,0.5948481580430087 L22.38069456917652,0.64113989625149 L22.303997813439313,0.6910913974428299 L22.229525343226776,0.7445823240754221 L22.157456569242658,0.8014838118217575 L22.08796511147597,0.8616587800138733 L22.021218380935206,0.9249622618826898 L21.957377176340557,0.9912417537956555 L21.89659529674573,1.0603375826513537 L21.839019171022525,1.132083290545991 L21.784787505100883,1.206306035785068 L21.734030947814144,1.2828270092741587 L21.68687177615456,1.361461865285682 L21.643423600697318,1.442021165563907 L21.6037910919027,1.5243108356983017 L21.56806972795579,1.608132632665788 L21.536345564751162,1.69328462241555 L21.508695028576685,1.779561666345846 L21.4851847319959,1.8667559155008717 L21.46587131337253,1.9546573112970989 L21.4508013004237,2.0430540915728006 L21.44001099813057,2.1317333007416512 L21.43352640127649,2.22048130282138 L21.431363131823268,2.3090842961015685 L21.43352640127649,2.3973288282107017 L21.44001099813057,2.4850023103416206 L21.4508013004237,2.57189352939658 L21.46587131337253,2.657793156818105 L21.4851847319959,2.7424942528798186 L21.508695028576685,2.8257927652223684 L21.536345564751162,2.9074880204334335 L21.56806972795579,2.987383207487552 L21.6037910919027,3.065285851881117 L21.643423600697318,3.141008279320319 L21.68687177615456,3.214368067844956 L21.734030947814144,3.2851884872989134 L21.784787505100883,3.3532989250885907 L21.839019171022525,3.418535297203583 L21.89659529674573,3.480740443509434 L21.957377176340554,3.539764506360159 " />
			<path d="M21.95737717634056,3.5397645063601644 L22.00497955642,3.581859130918767 L22.05423844578714,3.622027199666677 L22.10508708727678,3.6602142755990172 L22.157456569242658,3.6963686064134307 L22.21127591894861,3.7304411946464016 L22.26647219875302,3.762385864076128 L22.32297060495618,3.7921593223019583 L22.38069456917652,3.8197212194155874 L22.439565862118492,3.8450342026845004 L22.499504699591295,3.8680639671735393 L22.560429850634872,3.888779302236017 L22.62225874760661,3.907152133811341 L22.68490759807957,3.9231575624718493 L22.748291498400544,3.936773897167281 L22.812324548754113,3.9479826846211568 L22.87691996957673,3.9567687343392266 L22.94199021916305,3.9631201391960977 L23.007447112305154,3.967028291572137 L23.073201939803866,3.9684878950187823 L23.13916558869017,3.967496971436453 L23.205248662993878,3.9640568637553315 L23.271361604895798,3.9581722341153824 L23.337414816099248,3.949851057548077 L23.40331877925642,3.9391046111683874 L23.468984179285073,3.9259474588916863 L23.53432202441106,3.9103974316962864 L23.59924376677274,3.892475603458346 L23.66366142242376,3.872206262391903 L23.727487690571618,3.84961687813274 L23.790636071890383,3.8247380645106834 L23.85302098574725,3.797603538060801 L23.914557886184053,3.7682500723297125 L23.97516337649655,3.7367174480389487 L24.034755322256203,3.7030483991728875 L24.093252962621303,3.667288555064344 L24.15057701978654,3.629486378556289 L24.20664980642272,3.5896931003235153 L24.261395330961047,3.5479626494432432 L24.31473940057923,3.504351580308777 L24.366609721749885,3.458918995985245 L24.416935998214942,3.411726468111305 L24.465650026253314,3.362837953455359 L24.51268578711268,3.312319707239375 L24.557979536480126,3.260240193347765 L24.6014698908704,3.2066699915430164 L24.643097910814724,3.1516817018138275 L24.68280718073735,3.0953498459853583 L24.72054388541171,3.0377507667249604 L24.756256882892462,2.978962524080242 L24.789897773824627,2.919064789689683 L24.821420967035888,2.858138738809176 L24.850783741323156,2.796266940300817 L24.877946303349663,2.733533244733036 L24.902871841574107,2.6700226707437253 L24.925526576138804,2.605821289820362 L24.94587980464917,2.5410161096532717 L24.963903943782583,2.4756949562201265 L24.97957456667012,2.409946354761474 L24.992870436000622,2.3438594098085987 L25.003773532802157,2.277523684426317 L25.012269080861866,2.211029078834354 L25.018345566751158,2.1444657085717918 L25.021994755429056,2.0779237823697123 L25.023211701402587,2.011493479897565 " />
			<path d="M34.601474553614096,1.2179179700201606 L34.599311284160876,1.129673437911026 L34.5928266873068,1.041999955780108 L34.58203638501367,0.9551087367251492 L34.56696637206484,0.8692091093036244 L34.54765295344147,0.7845080132419108 L34.52414265686068,0.7012095008993606 L34.496492120686206,0.6195142456882956 L34.46476795748158,0.5396190586341781 L34.42904659353467,0.4617164142406135 L34.389414084740054,0.3859939868014115 L34.34596590928281,0.3126341982767744 L34.298806737623224,0.24181377882281585 L34.248050180336485,0.17370334103313745 L34.19381851441484,0.10846696891814545 L34.13624238869164,0.046261822612295056 L34.07546050909682,-0.012762240238424871 " />
			<path d="M34.07546050909681,-0.012762240238435751 L34.01161930450216,-0.06846302549674221 L33.9448725739614,-0.12070634509212397 L33.87538111619471,-0.16936634029170183 L33.803312342210596,-0.21432578490492804 L33.728839871998055,-0.25547636769174664 L33.65214311626085,-0.2927189532938588 L33.57340684420139,-0.32596382106048427 L33.492820738395565,-0.3551308811932661 L33.410578937830756,-0.38014986768961245 L33.32687957020806,-0.4009605076196485 L33.241924274635274,-0.41751266632898654 L33.15591771586064,-0.42976646821749753 L33.06906709121753,-0.437692392803126 L32.98158163146793,-0.4412713458393158 L32.8936720967472,-0.44049470531472434 L32.80555026882444,-0.4353643422244 L32.71742844090168,-0.4258926160623948 L32.62951890618095,-0.4121023450466579 L32.54203344643135,-0.3940267511479516 L32.45518282178824,-0.3717093800552127 L32.36917626301361,-0.34520399627017406 L32.284220967440824,-0.31457445358397207 L32.200521599818124,-0.27989454124776847 L32.118279799253315,-0.2412478062079828 L32.03769369344749,-0.19872735183437973 L31.958957421388032,-0.15243561362589841 L31.882260665650826,-0.10248411243455857 L31.807788195438288,-0.04899318580196632 L31.73571942145417,0.00790830194436909 L31.666227963687483,0.06808327013648485 L31.59948123314672,0.13138675200530137 L31.535640028552073,0.19766624391826704 L31.474858148957242,0.26676207277396524 L31.417282023234037,0.33850778066860254 L31.363050357312396,0.41273052590767945 L31.312293800025657,0.48925149939677026 L31.265134628366074,0.5678863554082937 L31.22168645290883,0.6484456556865186 L31.18205394411421,0.7307353258209133 L31.146332580167304,0.8145571227883998 L31.114608416962675,0.8997091125381615 L31.086957880788198,0.9859861564684576 L31.063447584207413,1.0731804056234833 L31.044134165584044,1.1610818014197104 L31.02906415263521,1.2494785816954121 L31.018273850342084,1.3381577908642628 L31.011789253488004,1.4269057929439912 L31.00962598403478,1.5155087862241803 L31.011789253488004,1.6037533183333132 L31.018273850342084,1.6914268004642319 L31.02906415263521,1.7783180195191917 L31.044134165584044,1.8642176469407166 L31.063447584207413,1.9489187430024302 L31.086957880788198,2.03221725534498 L31.114608416962675,2.113912510556045 L31.146332580167304,2.1938076976101635 L31.182053944114212,2.271710342003729 L31.22168645290883,2.3474327694429302 L31.265134628366074,2.4207925579675678 L31.312293800025657,2.491612977421525 L31.363050357312396,2.5597234152112023 L31.417282023234037,2.6249597873261945 L31.474858148957242,2.6871649336320456 L31.535640028552066,2.746188996482771 " />
			<path d="M31.535640028552073,2.746188996482776 L31.583242408631513,2.788283621041378 L31.63250129799865,2.828451689789289 L31.68334993948829,2.8666387657216292 L31.73571942145417,2.9027930965360422 L31.78953877116012,2.936865684769013 L31.844735050964534,2.9688103541987396 L31.90123345716769,2.9985838124245694 L31.958957421388032,3.026145709538199 L32.01782871433,3.0514586928071115 L32.07776755180281,3.074488457296151 L32.138692702846384,3.0952037923586286 L32.200521599818124,3.1135766239339526 L32.263170450291085,3.129582052594461 L32.32655435061206,3.1431983872898925 L32.39058740096562,3.1544071747437683 L32.45518282178824,3.163193224461838 L32.52025307137456,3.1695446293187093 L32.58570996451667,3.173452781694749 L32.651464792015375,3.1749123851413943 L32.71742844090168,3.1739214615590647 L32.78351151520539,3.1704813538779435 L32.84962445710731,3.164596724237994 L32.91567766831076,3.156275547670689 L32.98158163146793,3.145529101290999 L33.04724703149658,3.132371949014298 L33.11258487662257,3.116821921818898 L33.17750661898425,3.0989000935809576 L33.241924274635274,3.078630752514515 L33.30575054278313,3.0560413682553516 L33.36889892410189,3.031162554633295 L33.43128383795876,3.0040280281834124 L33.492820738395565,2.974674562452324 L33.55342622870806,2.94314193816156 L33.61301817446772,2.909472889295499 L33.671515814832816,2.873713045186956 L33.728839871998055,2.8359108686789005 L33.784912658634234,2.7961175904461264 L33.83965818317256,2.754387139565855 L33.893002252790744,2.710776070431389 L33.9448725739614,2.665343486107857 L33.995198850426455,2.6181509582339166 L34.04391287846483,2.56926244357797 L34.090948639324196,2.5187441973619866 L34.136242388691635,2.466664683470376 L34.179732743081914,2.413094481665628 L34.22136076302623,2.358106191936439 L34.26107003294886,2.30177433610797 L34.298806737623224,2.244175256847572 L34.334519735103974,2.1853870142028535 L34.368160626036136,2.125489279812295 L34.3996838192474,2.0645632289317875 L34.42904659353467,2.0026914304234285 L34.456209155561176,1.9399577348556476 L34.48113469378562,1.876447160866337 L34.503789428350316,1.8122457799429736 L34.52414265686068,1.7474405997758833 L34.54216679599409,1.682119446342738 L34.55783741888163,1.6163708448840857 L34.57113328821214,1.5502838999312103 L34.58203638501367,1.4839481745489285 L34.59053193307338,1.4174535689569656 L34.59660841896267,1.3508901986944035 L34.60025760764057,1.284348272492324 L34.601474553614096,1.2179179700201763 " />
			<path d="M5.8666859969795535,13.209725674834033 L5.86452272752633,13.1214811427249 L5.858038130672252,13.03380766059398 L5.847247828379125,12.946916441539022 L5.832177815430292,12.861016814117498 L5.812864396806923,12.776315718055784 L5.789354100226138,12.693017205713234 L5.761703564051659,12.61132195050217 L5.729979400847032,12.531426763448051 L5.694258036900125,12.453524119054487 L5.654625528105507,12.377801691615284 L5.611177352648263,12.304441903090648 L5.564018180988679,12.23362148363669 L5.513261623701939,12.16551104584701 L5.459029957780298,12.100274673732018 L5.401453832057093,12.038069527426169 L5.340671952462275,11.979045464575448 " />
			<path d="M5.340671952462262,11.979045464575437 L5.276830747867617,11.92334467931713 L5.210084017326852,11.871101359721749 L5.140592559560165,11.822441364522172 L5.068523785576048,11.777481919908945 L4.994051315363507,11.736331337122127 L4.917354559626303,11.699088751520014 L4.838618287566849,11.66584388375339 L4.75803218176102,11.636676823620608 L4.67579038119621,11.61165783712426 L4.592091013573511,11.590847197194226 L4.507135718000726,11.574295038484887 L4.421129159226093,11.562041236596375 L4.334278534582987,11.554115312010747 L4.246793074833388,11.550536358974558 L4.1588835401126545,11.55131299949915 L4.070761712189894,11.556443362589473 L3.982639884267134,11.565915088751478 L3.8947303495464007,11.579705359767216 L3.8072448897968014,11.597780953665922 L3.7203942651536948,11.620098324758661 L3.634387706379062,11.646603708543699 L3.5494324108062765,11.6772332512299 L3.4657330431835787,11.711913163566106 L3.3834912426187684,11.750559898605891 L3.3029051368129387,11.793080352979494 L3.2241688647534854,11.839372091187975 L3.147472109016282,11.889323592379315 L3.072999638803741,11.942814519011907 L3.0009308648196233,11.999716006758241 L2.9314394070529364,12.059890974950358 L2.8646926765121723,12.123194456819174 L2.800851471917526,12.18947394873214 L2.7400695923226968,12.258569777587839 L2.682493466599491,12.330315485482476 L2.6282618006778495,12.404538230721553 L2.5775052433911108,12.481059204210643 L2.5303460717315276,12.559694060222167 L2.486897896274283,12.640253360500392 L2.447265387479665,12.722543030634787 L2.4115440235327577,12.806364827602273 L2.37981986032813,12.891516817352034 L2.352169324153651,12.977793861282331 L2.3286590275728667,13.064988110437357 L2.309345608949498,13.152889506233583 L2.2942755960006647,13.241286286509286 L2.283485293707537,13.329965495678136 L2.2770006968534595,13.418713497757864 L2.274837427400236,13.507316491038054 L2.2770006968534595,13.595561023147187 L2.283485293707537,13.683234505278104 L2.2942755960006647,13.770125724333065 L2.309345608949498,13.856025351754589 L2.3286590275728667,13.940726447816303 L2.3521693241536514,14.024024960158853 L2.37981986032813,14.105720215369919 L2.411544023532757,14.185615402424038 L2.4472653874796655,14.263518046817602 L2.486897896274283,14.339240474256803 L2.5303460717315276,14.41260026278144 L2.5775052433911108,14.483420682235398 L2.6282618006778495,14.551531120025075 L2.682493466599491,14.616767492140067 L2.7400695923226968,14.678972638445918 L2.800851471917521,14.737996701296645 " />
			<path d="M2.800851471917526,14.737996701296648 L2.8484538519969673,14.78009132585525 L2.8977127413641046,14.820259394603163 L2.948561382853747,14.858446470535503 L3.000930864819624,14.894600801349915 L3.0547502145255754,14.928673389582887 L3.10994649432999,14.960618059012614 L3.1664449005331443,14.990391517238443 L3.2241688647534854,15.017953414352071 L3.2830401576954586,15.043266397620984 L3.342978995168261,15.066296162110024 L3.4039041462118376,15.087011497172501 L3.465733043183578,15.105384328747826 L3.5283818936565376,15.121389757408334 L3.59176579397751,15.135006092103765 L3.6557988443310787,15.146214879557641 L3.7203942651536948,15.155000929275712 L3.7854645147400157,15.161352334132582 L3.8509214078821223,15.165260486508622 L3.916676235380831,15.166720089955268 L3.982639884267134,15.165729166372937 L4.048722958570844,15.162289058691817 L4.114835900472765,15.156404429051868 L4.180889111676214,15.148083252484563 L4.246793074833388,15.137336806104873 L4.312458474862039,15.124179653828172 L4.377796319988027,15.108629626632771 L4.442718062349706,15.090707798394831 L4.507135718000726,15.070438457328388 L4.570961986148585,15.047849073069225 L4.634110367467349,15.022970259447169 L4.696495281324216,14.995835732997286 L4.75803218176102,14.966482267266198 L4.818637672073516,14.934949642975432 L4.8782296178331706,14.901280594109373 L4.936727258198271,14.86552075000083 L4.994051315363506,14.827718573492774 L5.050124101999686,14.787925295259999 L5.104869626538015,14.746194844379728 L5.158213696156199,14.702583775245262 L5.210084017326851,14.65715119092173 L5.260410293791908,14.60995866304779 L5.309124321830282,14.561070148391844 L5.356160082689648,14.510551902175859 L5.401453832057092,14.45847238828425 L5.444944186447368,14.4049021864795 L5.486572206391689,14.349913896750312 L5.526281476314316,14.293582040921843 L5.564018180988677,14.235982961661446 L5.59973117846943,14.177194719016727 L5.633372069401593,14.117296984626169 L5.664895262612855,14.05637093374566 L5.694258036900123,13.994499135237302 L5.721420598926629,13.93176543966952 L5.746346137151075,13.86825486568021 L5.76900087171577,13.804053484756846 L5.789354100226138,13.739248304589756 L5.807378239359549,13.673927151156612 L5.823048862247086,13.608178549697959 L5.836344731577591,13.542091604745083 L5.847247828379125,13.475755879362803 L5.8557433764388325,13.40926127377084 L5.861819862328124,13.342697903508277 L5.8654690510060234,13.276155977306198 L5.8666859969795535,13.209725674834049 " />
			<path d="M15.444948849191068,12.416150164956644 L15.442785579737844,12.32790563284751 L15.436300982883765,12.240232150716592 L15.425510680590639,12.153340931661633 L15.410440667641804,12.06744130424011 L15.391127249018435,11.982740208178395 L15.367616952437652,11.899441695835845 L15.339966416263174,11.81774644062478 L15.308242253058545,11.737851253570662 L15.272520889111638,11.659948609177098 L15.23288838031702,11.584226181737895 L15.189440204859777,11.51086639321326 L15.142281033200192,11.4400459737593 L15.091524475913452,11.371935535969621 L15.037292809991811,11.30669916385463 L14.979716684268606,11.24449401754878 L14.918934804673787,11.185469954698059 " />
			<path d="M14.918934804673777,11.185469954698048 L14.85509360007913,11.129769169439742 L14.788346869538366,11.07752584984436 L14.718855411771678,11.028865854644783 L14.64678663778756,10.983906410031556 L14.572314167575021,10.942755827244738 L14.495617411837816,10.905513241642625 L14.416881139778363,10.872268373876 L14.336295033972533,10.843101313743219 L14.254053233407724,10.818082327246872 L14.170353865785025,10.797271687316837 L14.08539857021224,10.780719528607499 L13.999392011437607,10.768465726718986 L13.9125413867945,10.760539802133358 L13.825055927044902,10.756960849097169 L13.737146392324167,10.75773748962176 L13.649024564401408,10.762867852712084 L13.560902736478647,10.772339578874089 L13.472993201757914,10.786129849889827 L13.385507742008315,10.804205443788533 L13.298657117365208,10.826522814881272 L13.212650558590575,10.85302819866631 L13.12769526301779,10.883657741352511 L13.043995895395092,10.918337653688717 L12.961754094830281,10.956984388728502 L12.881167989024453,10.999504843102105 L12.802431716965,11.045796581310587 L12.725734961227795,11.095748082501926 L12.651262491015254,11.149239009134519 L12.579193717031137,11.206140496880852 L12.50970225926445,11.266315465072969 L12.442955528723685,11.329618946941785 L12.37911432412904,11.39589843885475 L12.31833244453421,11.46499426771045 L12.260756318811005,11.536739975605087 L12.206524652889364,11.610962720844164 L12.155768095602625,11.687483694333254 L12.108608923943041,11.766118550344778 L12.065160748485797,11.846677850623003 L12.025528239691178,11.928967520757398 L11.989806875744272,12.012789317724884 L11.958082712539643,12.097941307474645 L11.930432176365164,12.184218351404942 L11.906921879784381,12.271412600559968 L11.887608461161012,12.359313996356194 L11.872538448212179,12.447710776631897 L11.861748145919051,12.536389985800747 L11.855263549064972,12.625137987880475 L11.853100279611748,12.713740981160665 L11.855263549064972,12.801985513269798 L11.861748145919051,12.889658995400715 L11.872538448212179,12.976550214455676 L11.887608461161012,13.0624498418772 L11.906921879784381,13.147150937938914 L11.930432176365164,13.230449450281464 L11.958082712539643,13.31214470549253 L11.989806875744272,13.392039892546649 L12.025528239691178,13.469942536940213 L12.065160748485797,13.545664964379414 L12.108608923943041,13.619024752904052 L12.155768095602625,13.689845172358009 L12.206524652889364,13.757955610147686 L12.260756318811005,13.823191982262678 L12.31833244453421,13.88539712856853 L12.379114324129034,13.944421191419256 " />
			<path d="M12.37911432412904,13.94442119141926 L12.42671670420848,13.986515815977862 L12.475975593575617,14.026683884725774 L12.526824235065261,14.064870960658114 L12.579193717031137,14.101025291472526 L12.633013066737089,14.135097879705498 L12.688209346541504,14.167042549135225 L12.744707752744658,14.196816007361054 L12.802431716965,14.224377904474682 L12.861303009906973,14.249690887743595 L12.921241847379774,14.272720652232636 L12.98216699842335,14.293435987295112 L13.043995895395092,14.311808818870437 L13.106644745868051,14.327814247530945 L13.170028646189023,14.341430582226376 L13.234061696542591,14.352639369680253 L13.298657117365208,14.361425419398323 L13.36372736695153,14.367776824255193 L13.429184260093635,14.371684976631233 L13.494939087592345,14.373144580077879 L13.560902736478647,14.372153656495549 L13.626985810782356,14.368713548814428 L13.693098752684278,14.36282891917448 L13.759151963887726,14.354507742607174 L13.8250559270449,14.343761296227484 L13.890721327073553,14.330604143950783 L13.95605917219954,14.315054116755382 L14.02098091456122,14.297132288517442 L14.08539857021224,14.276862947450999 L14.149224838360098,14.254273563191836 L14.212373219678863,14.22939474956978 L14.274758133535729,14.202260223119897 L14.336295033972533,14.172906757388809 L14.39690052428503,14.141374133098044 L14.456492470044683,14.107705084231984 L14.514990110409784,14.07194524012344 L14.57231416757502,14.034143063615385 L14.6283869542112,13.99434978538261 L14.683132478749528,13.952619334502339 L14.736476548367714,13.909008265367873 L14.788346869538366,13.863575681044342 L14.838673146003421,13.8163831531704 L14.887387174041796,13.767494638514455 L14.934422934901162,13.71697639229847 L14.979716684268606,13.66489687840686 L15.023207038658882,13.611326676602111 L15.064835058603203,13.556338386872923 L15.10454432852583,13.500006531044454 L15.142281033200192,13.442407451784057 L15.177994030680942,13.383619209139338 L15.211634921613108,13.32372147474878 L15.243158114824368,13.26279542386827 L15.272520889111638,13.200923625359913 L15.299683451138144,13.138189929792132 L15.324608989362588,13.074679355802822 L15.347263723927284,13.010477974879457 L15.36761695243765,12.945672794712367 L15.385641091571063,12.880351641279223 L15.401311714458599,12.81460303982057 L15.414607583789104,12.748516094867695 L15.425510680590639,12.682180369485414 L15.434006228650347,12.61568576389345 L15.440082714539637,12.549122393630888 L15.443731903217536,12.482580467428809 L15.444948849191068,12.41615016495666 " />
			<path d="M25.023211701402587,11.622574655079259 L25.021048431949364,11.534330122970124 L25.014563835095284,11.446656640839205 L25.003773532802157,11.359765421784246 L24.988703519853324,11.273865794362722 L24.969390101229955,11.189164698301008 L24.94587980464917,11.105866185958458 L24.918229268474693,11.024170930747392 L24.886505105270064,10.944275743693275 L24.85078374132316,10.866373099299711 L24.81115123252854,10.790650671860508 L24.767703057071294,10.717290883335872 L24.72054388541171,10.646470463881913 L24.669787328124972,10.578360026092234 L24.61555566220333,10.513123653977242 L24.557979536480126,10.450918507671393 L24.49719765688531,10.391894444820672 " />
			<path d="M24.497197656885294,10.391894444820661 L24.43335645229065,10.336193659562355 L24.366609721749885,10.283950339966973 L24.297118263983197,10.235290344767396 L24.22504948999908,10.19033090015417 L24.15057701978654,10.14918031736735 L24.073880264049336,10.111937731765238 L23.99514399198988,10.078692863998613 L23.914557886184053,10.049525803865832 L23.832316085619244,10.024506817369485 L23.748616717996544,10.003696177439448 L23.663661422423758,9.98714401873011 L23.577654863649126,9.9748902168416 L23.49080423900602,9.966964292255971 L23.40331877925642,9.963385339219782 L23.315409244535687,9.964161979744373 L23.227287416612928,9.969292342834697 L23.13916558869017,9.978764068996702 L23.051256053969432,9.99255434001244 L22.963770594219834,10.010629933911146 L22.87691996957673,10.032947305003884 L22.790913410802094,10.059452688788923 L22.70595811522931,10.090082231475126 L22.62225874760661,10.124762143811328 L22.540016947041803,10.163408878851115 L22.45943084123597,10.205929333224717 L22.38069456917652,10.2522210714332 L22.303997813439313,10.302172572624539 L22.229525343226776,10.355663499257131 L22.157456569242658,10.412564987003467 L22.08796511147597,10.472739955195582 L22.021218380935206,10.536043437064398 L21.957377176340557,10.602322928977364 L21.89659529674573,10.671418757833063 L21.839019171022525,10.7431644657277 L21.784787505100883,10.817387210966777 L21.734030947814144,10.893908184455867 L21.68687177615456,10.972543040467391 L21.643423600697318,11.053102340745616 L21.6037910919027,11.135392010880011 L21.56806972795579,11.219213807847497 L21.536345564751162,11.304365797597258 L21.508695028576685,11.390642841527555 L21.4851847319959,11.47783709068258 L21.46587131337253,11.565738486478807 L21.4508013004237,11.65413526675451 L21.44001099813057,11.74281447592336 L21.43352640127649,11.831562478003088 L21.431363131823268,11.920165471283278 L21.43352640127649,12.00841000339241 L21.44001099813057,12.096083485523328 L21.4508013004237,12.182974704578289 L21.46587131337253,12.268874331999813 L21.4851847319959,12.353575428061527 L21.508695028576685,12.436873940404077 L21.536345564751162,12.518569195615143 L21.56806972795579,12.59846438266926 L21.6037910919027,12.676367027062826 L21.643423600697318,12.752089454502027 L21.68687177615456,12.825449243026664 L21.734030947814144,12.896269662480622 L21.784787505100883,12.964380100270299 L21.839019171022525,13.029616472385293 L21.89659529674573,13.091821618691142 L21.957377176340554,13.150845681541869 " />
			<path d="M21.95737717634056,13.150845681541874 L22.00497955642,13.192940306100475 L22.05423844578714,13.233108374848387 L22.10508708727678,13.271295450780727 L22.157456569242658,13.307449781595139 L22.21127591894861,13.34152236982811 L22.26647219875302,13.373467039257836 L22.32297060495618,13.403240497483667 L22.38069456917652,13.430802394597297 L22.439565862118492,13.456115377866208 L22.499504699591295,13.479145142355248 L22.560429850634872,13.499860477417727 L22.62225874760661,13.51823330899305 L22.68490759807957,13.534238737653558 L22.748291498400544,13.54785507234899 L22.812324548754113,13.559063859802865 L22.87691996957673,13.567849909520936 L22.94199021916305,13.574201314377806 L23.007447112305154,13.578109466753846 L23.073201939803866,13.579569070200492 L23.13916558869017,13.578578146618161 L23.205248662993878,13.575138038937041 L23.271361604895798,13.56925340929709 L23.337414816099248,13.560932232729787 L23.40331877925642,13.550185786350095 L23.468984179285073,13.537028634073394 L23.53432202441106,13.521478606877995 L23.59924376677274,13.503556778640055 L23.66366142242376,13.483287437573612 L23.727487690571618,13.460698053314449 L23.790636071890383,13.435819239692393 L23.85302098574725,13.40868471324251 L23.914557886184053,13.379331247511422 L23.97516337649655,13.347798623220656 L24.034755322256203,13.314129574354595 L24.093252962621303,13.278369730246053 L24.15057701978654,13.240567553737998 L24.20664980642272,13.200774275505223 L24.261395330961047,13.159043824624952 L24.31473940057923,13.115432755490486 L24.366609721749885,13.070000171166955 L24.416935998214942,13.022807643293014 L24.465650026253314,12.973919128637068 L24.51268578711268,12.923400882421085 L24.557979536480126,12.871321368529474 L24.6014698908704,12.817751166724726 L24.643097910814724,12.762762876995536 L24.68280718073735,12.706431021167067 L24.72054388541171,12.64883194190667 L24.756256882892462,12.590043699261951 L24.789897773824627,12.530145964871393 L24.821420967035888,12.469219913990884 L24.850783741323156,12.407348115482526 L24.877946303349663,12.344614419914745 L24.902871841574107,12.281103845925434 L24.925526576138804,12.216902465002072 L24.94587980464917,12.15209728483498 L24.963903943782583,12.086776131401836 L24.97957456667012,12.021027529943183 L24.992870436000622,11.954940584990307 L25.003773532802157,11.888604859608026 L25.012269080861866,11.822110254016064 L25.018345566751158,11.755546883753501 L25.021994755429056,11.689004957551422 L25.023211701402587,11.622574655079273 " />
			<path d="M34.601474553614096,10.82899914520187 L34.599311284160876,10.740754613092735 L34.5928266873068,10.653081130961816 L34.58203638501367,10.566189911906857 L34.56696637206484,10.480290284485333 L34.54765295344147,10.39558918842362 L34.52414265686068,10.31229067608107 L34.496492120686206,10.230595420870003 L34.46476795748158,10.150700233815886 L34.42904659353467,10.072797589422322 L34.389414084740054,9.997075161983119 L34.34596590928281,9.923715373458483 L34.298806737623224,9.852894954004524 L34.248050180336485,9.784784516214845 L34.19381851441484,9.719548144099853 L34.13624238869164,9.657342997794004 L34.07546050909682,9.598318934943283 " />
			<path d="M34.07546050909681,9.598318934943272 L34.01161930450216,9.542618149684966 L33.9448725739614,9.490374830089584 L33.87538111619471,9.441714834890007 L33.803312342210596,9.39675539027678 L33.728839871998055,9.35560480748996 L33.65214311626085,9.318362221887849 L33.57340684420139,9.285117354121224 L33.492820738395565,9.255950293988443 L33.410578937830756,9.230931307492096 L33.32687957020806,9.210120667562059 L33.241924274635274,9.19356850885272 L33.15591771586064,9.18131470696421 L33.06906709121753,9.173388782378582 L32.98158163146793,9.169809829342393 L32.8936720967472,9.170586469866985 L32.80555026882444,9.175716832957308 L32.71742844090168,9.185188559119313 L32.62951890618095,9.19897883013505 L32.54203344643135,9.217054424033757 L32.45518282178824,9.239371795126495 L32.36917626301361,9.265877178911534 L32.284220967440824,9.296506721597737 L32.200521599818124,9.331186633933939 L32.118279799253315,9.369833368973726 L32.03769369344749,9.412353823347328 L31.958957421388032,9.45864556155581 L31.882260665650826,9.50859706274715 L31.807788195438288,9.562087989379743 L31.73571942145417,9.618989477126078 L31.666227963687483,9.679164445318193 L31.59948123314672,9.74246792718701 L31.535640028552073,9.808747419099975 L31.474858148957242,9.877843247955674 L31.417282023234037,9.949588955850311 L31.363050357312396,10.023811701089388 L31.312293800025657,10.100332674578478 L31.265134628366074,10.178967530590002 L31.22168645290883,10.259526830868227 L31.18205394411421,10.341816501002622 L31.146332580167304,10.425638297970108 L31.114608416962675,10.51079028771987 L31.086957880788198,10.597067331650166 L31.063447584207413,10.684261580805192 L31.044134165584044,10.772162976601418 L31.02906415263521,10.860559756877121 L31.018273850342084,10.949238966045971 L31.011789253488004,11.037986968125699 L31.00962598403478,11.12658996140589 L31.011789253488004,11.21483449351502 L31.018273850342084,11.30250797564594 L31.02906415263521,11.3893991947009 L31.044134165584044,11.475298822122424 L31.063447584207413,11.559999918184138 L31.086957880788198,11.643298430526688 L31.114608416962675,11.724993685737754 L31.146332580167304,11.80488887279187 L31.182053944114212,11.882791517185437 L31.22168645290883,11.958513944624638 L31.265134628366074,12.031873733149276 L31.312293800025657,12.102694152603233 L31.363050357312396,12.17080459039291 L31.417282023234037,12.236040962507904 L31.474858148957242,12.298246108813753 L31.535640028552066,12.35727017166448 " />
			<path d="M31.535640028552073,12.357270171664485 L31.583242408631513,12.399364796223086 L31.63250129799865,12.439532864970998 L31.68334993948829,12.477719940903338 L31.73571942145417,12.51387427171775 L31.78953877116012,12.547946859950722 L31.844735050964534,12.579891529380447 L31.90123345716769,12.609664987606278 L31.958957421388032,12.637226884719908 L32.01782871433,12.66253986798882 L32.07776755180281,12.68556963247786 L32.138692702846384,12.706284967540338 L32.200521599818124,12.724657799115661 L32.263170450291085,12.740663227776169 L32.32655435061206,12.7542795624716 L32.39058740096562,12.765488349925477 L32.45518282178824,12.774274399643547 L32.52025307137456,12.780625804500417 L32.58570996451667,12.784533956876457 L32.651464792015375,12.785993560323103 L32.71742844090168,12.785002636740773 L32.78351151520539,12.781562529059652 L32.84962445710731,12.775677899419701 L32.91567766831076,12.767356722852398 L32.98158163146793,12.756610276472706 L33.04724703149658,12.743453124196005 L33.11258487662257,12.727903097000606 L33.17750661898425,12.709981268762666 L33.241924274635274,12.689711927696223 L33.30575054278313,12.66712254343706 L33.36889892410189,12.642243729815004 L33.43128383795876,12.61510920336512 L33.492820738395565,12.585755737634033 L33.55342622870806,12.554223113343268 L33.61301817446772,12.520554064477206 L33.671515814832816,12.484794220368665 L33.728839871998055,12.44699204386061 L33.784912658634234,12.407198765627834 L33.83965818317256,12.365468314747563 L33.893002252790744,12.321857245613097 L33.9448725739614,12.276424661289566 L33.995198850426455,12.229232133415625 L34.04391287846483,12.180343618759679 L34.090948639324196,12.129825372543696 L34.136242388691635,12.077745858652085 L34.179732743081914,12.024175656847337 L34.22136076302623,11.969187367118147 L34.26107003294886,11.912855511289678 L34.298806737623224,11.85525643202928 L34.334519735103974,11.796468189384562 L34.368160626036136,11.736570454994004 L34.3996838192474,11.675644404113495 L34.42904659353467,11.613772605605137 L34.456209155561176,11.551038910037356 L34.48113469378562,11.487528336048046 L34.503789428350316,11.423326955124683 L34.52414265686068,11.358521774957591 L34.54216679599409,11.293200621524447 L34.55783741888163,11.227452020065794 L34.57113328821214,11.161365075112919 L34.58203638501367,11.095029349730638 L34.59053193307338,11.028534744138675 L34.59660841896267,10.961971373876112 L34.60025760764057,10.895429447674033 L34.601474553614096,10.828999145201884 " />
			<path d="M-5.551115123125782e-16,38.44432470072683 L38.313051408846064,35.270022661217276 " />
			<path d="M38.313051408846064,35.270022661217276 L37.5946816949302,34.608709736319454 " />
			<path d="M38.313051408846064,-3.174302039509554 L38.313051408846064,35.270022661217276 " />
			<path d="M3.2118914567326557,5.401242901438268 L3.17870706654567,5.339810047034615 L3.1481152974819926,5.276878284230399 L3.1201653992106344,5.212548926829403 L3.094902368254544,5.146925538622039 L3.0723668755507365,5.080113766658066 L3.052595200974179,5.012221171165478 L3.035619174930841,4.943357052389359 L3.0214661271139507,4.873632274629493 L3.0101588425059305,4.803159087759998 L3.001715524696878,4.7320509465183305 L2.996149766578612,4.6604223278545716 L2.9934705284614873,4.588388546635067 L2.993682123649196,4.516065569997096 L2.9967842114947842,4.443569830653451 L3.002771797949059,4.371018039447492 L3.0116352436005016,4.298526997460437 L3.0233602791937546,4.226213407973374 L3.0379280286016845,4.154193688586728 L3.0553150392140456,4.0825837837996435 L3.075493319693824,4.011498978351006 L3.09843038504047,3.941053711622621 L3.1240893088874837,3.8713613934033266 L3.1524287829501416,3.8025342213106486 L3.1834031835276844,3.7346830001639293 L3.2169626449528774,3.66791696359972 L3.253053139870719,3.6023435982166245 L3.2916165662170425,3.53806847053269 L3.332590840756991,3.4751950570339423 L3.375909999032779,3.413824577587657 L3.4215043015598274,3.3540558324885597 L3.4693003461003133,3.2959850434003 L3.519221185833389,3.2397056984482564 L3.571186453231813,3.185308401713062 L3.625112489445584,3.132880727367157 L3.6809124789842675,3.0825070786891855 L3.7384965894811946,3.034268552183213 L3.7977721163145346,2.988242807021514 L3.858643631852402,2.9445039400211273 L3.9210131390817393,2.903122366355432 L3.9847802293736447,2.864164706192812 L4.049842244131159,2.8276936774448855 L4.116094440059272,2.793767994796984 L4.183430157791085,2.7624422751834157 L4.251740993598654,2.7337669498597017 L4.320916973912087,2.707788183213328 L4.390846732365916,2.684547798443729 L4.461417689087735,2.664083210231148 L4.53251623194047,2.6464273645027645 L4.604027899426475,2.6316086853930716 L4.675837564959032,2.619651029483876 L4.74782962220456,2.6105736473976076 L4.819888171197179,2.6043911528057495 L4.891897204925988,2.6011134989023024 L4.96374079609468,2.6007459623801426 L5.035303283752813,2.603289134936076 L5.106469459498306,2.608738922318269 L5.177124752951365,2.617086550917578 L5.247155416201267,2.62831858189218 L5.316448706929041,2.642416932802754 L5.38489306991126,2.6593589067233903 L5.452378316612718,2.679117228781352 L5.518795802578884,2.701660090066879 L5.584038602342535,2.72695119884233 L5.648001681562989,2.7549498389682237 " />
			<path d="M12.790154308944171,4.607667391560881 L12.756969918757184,4.546234537157228 L12.726378149693508,4.483302774353012 L12.698428251422149,4.418973416952015 L12.673165220466059,4.353350028744652 L12.65062972776225,4.286538256780679 L12.630858053185692,4.2186456612880905 L12.613882027142356,4.149781542511971 L12.599728979325464,4.080056764752106 L12.588421694717445,4.009583577882611 L12.579978376908393,3.9384754366409425 L12.574412618790127,3.8668468179771835 L12.571733380673,3.79481303675768 L12.57194497586071,3.7224900601197084 L12.575047063706299,3.649994320776063 L12.581034650160573,3.5774425295701047 L12.589898095812016,3.5049514875830496 L12.601623131405269,3.4326378980959866 L12.616190880813198,3.360618178709341 L12.63357789142556,3.2890082739222564 L12.653756171905338,3.217923468473618 L12.676693237251985,3.1474782017452334 L12.702352161098998,3.077785883525939 L12.730691635161655,3.0089587114332614 L12.761666035739198,2.9411074902865417 L12.795225497164392,2.8743414537223324 L12.831315992082233,2.808768088339237 L12.869879418428557,2.7444929606553026 L12.910853692968505,2.6816195471565547 L12.954172851244293,2.6202490677102688 L12.99976715377134,2.560480322611172 L13.047563198311828,2.502409533522913 L13.097484038044904,2.4461301885708693 L13.149449305443326,2.3917328918356744 L13.203375341657098,2.339305217489769 L13.259175331195781,2.288931568811798 L13.316759441692708,2.240693042305825 L13.376034968526048,2.1946672971441266 L13.436906484063915,2.1509284301437397 L13.499275991293253,2.1095468564780444 L13.563043081585159,2.070589196315424 L13.628105096342674,2.0341181675674975 L13.694357292270787,2.000192484919596 L13.761693010002599,1.9688667653060279 L13.830003845810168,1.9401914399823137 L13.899179826123602,1.91421267333594 L13.96910958457743,1.890972288566341 L14.03968054129925,1.8705077003537598 L14.110779084151984,1.8528518546253765 L14.18229075163799,1.8380331755156836 L14.254100417170546,1.8260755196064882 L14.326092474416074,1.8169981375202195 L14.398151023408692,1.8108156429283615 L14.470160057137504,1.8075379890249144 L14.542003648306194,1.8071704525027545 L14.613566135964327,1.8097136250586878 L14.68473231170982,1.815163412440881 L14.755387605162879,1.8235110410401898 L14.82541826841278,1.834743072014792 L14.894711559140555,1.8488414229253662 L14.963155922122773,1.8657833968460023 L15.030641168824232,1.8855417189039636 L15.097058654790398,1.9080845801894906 L15.162301454554049,1.9333756889649418 L15.226264533774502,1.9613743290908354 " />
			<path d="M22.36841716115569,3.8140918816834932 L22.3352327709687,3.7526590272798406 L22.304641001905026,3.6897272644756245 L22.276691103633667,3.6253979070746283 L22.251428072677577,3.559774518867264 L22.22889257997377,3.4929627469032907 L22.20912090539721,3.425070151410703 L22.192144879353872,3.356206032634584 L22.177991831536982,3.2864812548747175 L22.166684546928963,3.216008068005223 L22.15824122911991,3.1448999267635545 L22.152675471001643,3.0732713080997955 L22.14999623288452,3.0012375268802916 L22.15020782807223,2.92891455024232 L22.153309915917816,2.856418810898675 L22.15929750237209,2.7838670196927167 L22.168160948023534,2.7113759777056607 L22.179885983616785,2.6390623882185977 L22.194453733024716,2.5670426688319523 L22.21184074363708,2.4954327640448675 L22.232019024116855,2.424347958596229 L22.2549560894635,2.353902691867844 L22.280615013310516,2.2842103736485497 L22.308954487373175,2.2153832015558717 L22.339928887950716,2.1475319804091524 L22.373488349375908,2.080765943844943 L22.40957884429375,2.0151925784618476 L22.448142270640073,1.9509174507779132 L22.489116545180025,1.8880440372791656 L22.53243570345581,1.8266735578328799 L22.57803000598286,1.766904812733783 L22.625826050523347,1.7088340236455235 L22.67574689025642,1.6525546786934795 L22.727712157654846,1.5981573819582842 L22.781638193868616,1.5457297076123793 L22.8374381834073,1.4953560589344081 L22.895022293904226,1.447117532428435 L22.95429782073757,1.4010917872667368 L23.015169336275434,1.3573529202663497 L23.077538843504772,1.3159713466006548 L23.14130593379668,1.2770136864380344 L23.206367948554192,1.240542657690108 L23.272620144482307,1.2066169750422064 L23.33995586221412,1.1752912554286383 L23.408266698021688,1.1466159301049241 L23.477442678335123,1.1206371634585501 L23.54737243678895,1.0973967786889516 L23.61794339351077,1.0769321904763705 L23.689041936363502,1.0592763447479872 L23.76055360384951,1.0444576656382942 L23.832363269382068,1.0325000097290988 L23.904355326627595,1.0234226276428298 L23.976413875620214,1.0172401330509722 L24.048422909349025,1.0139624791475255 L24.120266500517715,1.0135949426253656 L24.19182898817585,1.0161381151812996 L24.262995163921342,1.0215879025634922 L24.3336504573744,1.0299355311628011 L24.403681120624302,1.0411675621374035 L24.472974411352077,1.055265913047978 L24.541418774334296,1.0722078869686138 L24.60890402103575,1.0919662090265754 L24.675321507001918,1.1145090703121028 L24.74056430676557,1.139800179087554 L24.804527385986024,1.167798819213448 " />
			<path d="M31.9466800133672,3.020516371806104 L31.913495623180214,2.9590835174024512 L31.882903854116538,2.896151754598235 L31.85495395584518,2.8318223971972394 L31.82969092488909,2.766199008989875 L31.807155432185283,2.6993872370259018 L31.787383757608723,2.6314946415333136 L31.770407731565385,2.5626305227571944 L31.756254683748494,2.4929057449973286 L31.744947399140475,2.422432558127834 L31.73650408133142,2.3513244168861656 L31.730938323213156,2.2796957982224066 L31.72825908509603,2.2076620170029027 L31.728470680283742,2.1353390403649315 L31.73157276812933,2.062843301021286 L31.737560354583604,1.9902915098153273 L31.746423800235046,1.9178004678282723 L31.7581488358283,1.8454868783412088 L31.77271658523623,1.7734671589545634 L31.790103595848592,1.7018572541674781 L31.810281876328368,1.6307724487188406 L31.833218941675014,1.5603271819904556 L31.85887786552203,1.4906348637711613 L31.887217339584687,1.4218076916784834 L31.91819174016223,1.353956470531764 L31.95175120158742,1.2871904339675546 L31.987841696505264,1.2216170685844592 L32.026405122851585,1.1573419409005248 L32.067379397391534,1.0944685274017771 L32.11069855566733,1.0330980479554914 L32.15629285819437,0.9733293028563945 L32.20408890273486,0.915258513768135 L32.254009742467936,0.8589791688160913 L32.30597500986636,0.8045818720808964 L32.35990104608013,0.7521541977349915 L32.41570103561881,0.7017805490570199 L32.47328514611574,0.6535420225510473 L32.53256067294908,0.6075162773893488 L32.59343218848694,0.5637774103889619 L32.655801695716285,0.5223958367232666 L32.71956878600819,0.48343817656064614 L32.784630800765704,0.4469671478127195 L32.85088299669382,0.413041465164818 L32.91821871442563,0.3817157455512499 L32.9865295502332,0.3530404202275357 L33.05570553054663,0.3270616535811617 L33.12563528900046,0.3038212688115631 L33.19620624572228,0.283356680598982 L33.26730478857502,0.2657008348705989 L33.33881645606102,0.2508821557609058 L33.41062612159358,0.2389244998517106 L33.482618178839104,0.22984711776544176 L33.554676727831726,0.2236646231735837 L33.62668576156054,0.2203869692701368 L33.698529352729224,0.2200194327479772 L33.77009184038736,0.22256260530391092 L33.841258016132855,0.22801239268610352 L33.91191330958591,0.23636002128541267 L33.981943972835815,0.2475920522600148 L34.051237263563586,0.26169040317058934 L34.119681626545805,0.27863237709122535 L34.187166873247264,0.2983906991491865 L34.25358435921343,0.32093356043471366 L34.31882715897708,0.3462246692101649 L34.382790238197536,0.37422330933605874 " />
			<path d="M3.2118914567326535,15.012324076619972 L3.178707066545668,14.95089122221632 L3.1481152974819913,14.887959459412103 L3.1201653992106326,14.823630102011109 L3.0949023682545422,14.758006713803743 L3.072366875550735,14.69119494183977 L3.052595200974177,14.623302346347183 L3.0356191749308405,14.554438227571064 L3.02146612711395,14.484713449811197 L3.01015884250593,14.414240262941702 L3.0017155246968774,14.343132121700034 L2.9961497665786117,14.271503503036275 L2.993470528461487,14.19946972181677 L2.993682123649196,14.1271467451788 L2.9967842114947847,14.054651005835154 L3.002771797949059,13.982099214629196 L3.011635243600502,13.909608172642141 L3.023360279193755,13.837294583155078 L3.0379280286016854,13.765274863768433 L3.055315039214047,13.693664958981348 L3.0754933196938254,13.62258015353271 L3.098430385040472,13.552134886804325 L3.124089308887485,13.48244256858503 L3.1524287829501434,13.413615396492354 L3.183403183527686,13.345764175345634 L3.216962644952879,13.278998138781425 L3.2530531398707208,13.21342477339833 L3.2916165662170442,13.149149645714395 L3.3325908407569935,13.086276232215647 L3.375909999032782,13.024905752769362 L3.42150430155983,12.965137007670265 L3.4693003461003165,12.907066218582006 L3.519221185833392,12.850786873629962 L3.571186453231816,12.796389576894768 L3.6251124894455877,12.743961902548863 L3.6809124789842707,12.693588253870892 L3.7384965894811977,12.645349727364918 L3.7977721163145377,12.59932398220322 L3.8586436318524053,12.555585115202833 L3.921013139081743,12.514203541537139 L3.9847802293736483,12.47524588137452 L4.049842244131163,12.438774852626592 L4.116094440059276,12.404849169978691 L4.183430157791088,12.373523450365123 L4.251740993598658,12.344848125041409 L4.320916973912091,12.318869358395036 L4.39084673236592,12.295628973625437 L4.461417689087739,12.275164385412856 L4.532516231940473,12.257508539684473 L4.6040278994264785,12.24268986057478 L4.675837564959035,12.230732204665584 L4.747829622204563,12.221654822579316 L4.8198881711971815,12.215472327987458 L4.891897204925992,12.21219467408401 L4.963740796094683,12.211827137561851 L5.035303283752817,12.214370310117785 L5.106469459498309,12.219820097499978 L5.177124752951368,12.228167726099286 L5.247155416201269,12.239399757073889 L5.316448706929044,12.253498107984463 L5.3848930699112625,12.2704400819051 L5.452378316612721,12.29019840396306 L5.518795802578887,12.312741265248588 L5.584038602342537,12.33803237402404 L5.648001681562992,12.366031014149934 " />
			<path d="M12.79015430894417,14.218748566742587 L12.756969918757184,14.157315712338933 L12.726378149693506,14.094383949534718 L12.698428251422149,14.030054592133721 L12.673165220466057,13.964431203926358 L12.65062972776225,13.897619431962385 L12.630858053185692,13.829726836469796 L12.613882027142356,13.760862717693676 L12.599728979325464,13.69113793993381 L12.588421694717445,13.620664753064316 L12.579978376908393,13.549556611822648 L12.574412618790126,13.47792799315889 L12.571733380673,13.405894211939385 L12.57194497586071,13.333571235301413 L12.575047063706299,13.261075495957769 L12.581034650160573,13.18852370475181 L12.589898095812016,13.116032662764756 L12.601623131405269,13.043719073277693 L12.6161908808132,12.971699353891047 L12.63357789142556,12.900089449103962 L12.65375617190534,12.829004643655324 L12.676693237251985,12.75855937692694 L12.702352161098998,12.688867058707645 L12.730691635161657,12.620039886614967 L12.7616660357392,12.552188665468247 L12.795225497164392,12.485422628904038 L12.831315992082233,12.419849263520943 L12.869879418428557,12.355574135837008 L12.910853692968507,12.29270072233826 L12.954172851244294,12.231330242891975 L12.999767153771343,12.171561497792878 L13.04756319831183,12.113490708704619 L13.097484038044904,12.057211363752575 L13.149449305443328,12.00281406701738 L13.2033753416571,11.950386392671476 L13.259175331195783,11.900012743993504 L13.31675944169271,11.851774217487531 L13.37603496852605,11.805748472325833 L13.436906484063918,11.762009605325446 L13.499275991293255,11.72062803165975 L13.56304308158516,11.68167037149713 L13.628105096342676,11.645199342749205 L13.694357292270787,11.611273660101304 L13.7616930100026,11.579947940487735 L13.83000384581017,11.55127261516402 L13.899179826123603,11.525293848517647 L13.969109584577431,11.502053463748048 L14.039680541299251,11.481588875535467 L14.110779084151986,11.463933029807084 L14.182290751637991,11.449114350697391 L14.254100417170548,11.437156694788197 L14.326092474416075,11.428079312701927 L14.398151023408694,11.421896818110069 L14.470160057137505,11.418619164206621 L14.542003648306196,11.418251627684462 L14.613566135964328,11.420794800240396 L14.684732311709821,11.42624458762259 L14.75538760516288,11.434592216221898 L14.825418268412783,11.4458242471965 L14.894711559140557,11.459922598107074 L14.963155922122775,11.476864572027711 L15.030641168824234,11.496622894085672 L15.0970586547904,11.5191657553712 L15.16230145455405,11.54445686414665 L15.226264533774504,11.572455504272543 " />
			<path d="M22.368417161155687,13.425173056865198 L22.3352327709687,13.363740202461546 L22.304641001905026,13.30080843965733 L22.276691103633667,13.236479082256333 L22.251428072677577,13.170855694048969 L22.228892579973767,13.104043922084996 L22.20912090539721,13.036151326592408 L22.192144879353872,12.96728720781629 L22.177991831536982,12.897562430056423 L22.166684546928963,12.82708924318693 L22.15824122911991,12.75598110194526 L22.152675471001643,12.684352483281502 L22.14999623288452,12.612318702061998 L22.15020782807223,12.539995725424026 L22.153309915917816,12.467499986080382 L22.15929750237209,12.394948194874424 L22.168160948023534,12.322457152887367 L22.17988598361679,12.250143563400304 L22.194453733024716,12.178123844013658 L22.21184074363708,12.106513939226573 L22.232019024116855,12.035429133777937 L22.254956089463505,11.964983867049552 L22.280615013310516,11.895291548830258 L22.308954487373175,11.82646437673758 L22.339928887950716,11.75861315559086 L22.37348834937591,11.69184711902665 L22.40957884429375,11.626273753643556 L22.448142270640076,11.561998625959621 L22.489116545180025,11.499125212460875 L22.53243570345581,11.43775473301459 L22.57803000598286,11.377985987915492 L22.625826050523347,11.319915198827232 L22.675746890256423,11.263635853875188 L22.727712157654846,11.209238557139994 L22.781638193868616,11.156810882794089 L22.8374381834073,11.106437234116118 L22.895022293904226,11.058198707610146 L22.954297820737565,11.012172962448446 L23.015169336275434,10.96843409544806 L23.077538843504772,10.927052521782365 L23.141305933796676,10.888094861619745 L23.206367948554192,10.851623832871818 L23.272620144482303,10.817698150223917 L23.339955862214115,10.78637243061035 L23.408266698021688,10.757697105286635 L23.47744267833512,10.73171833864026 L23.547372436788947,10.708477953870661 L23.617943393510767,10.68801336565808 L23.689041936363502,10.670357519929697 L23.76055360384951,10.655538840820004 L23.832363269382064,10.64358118491081 L23.90435532662759,10.63450380282454 L23.97641387562021,10.628321308232682 L24.04842290934902,10.625043654329236 L24.12026650051771,10.624676117807075 L24.191828988175846,10.627219290363008 L24.26299516392134,10.632669077745202 L24.333650457374397,10.64101670634451 L24.4036811206243,10.652248737319113 L24.47297441135207,10.666347088229687 L24.54141877433429,10.683289062150322 L24.608904021035748,10.703047384208283 L24.675321507001915,10.72559024549381 L24.740564306765567,10.750881354269263 L24.80452738598602,10.778879994395156 " />
			<path d="M31.9466800133672,12.631597546987813 L31.913495623180214,12.57016469258416 L31.882903854116538,12.507232929779944 L31.85495395584518,12.442903572378947 L31.82969092488909,12.377280184171584 L31.807155432185283,12.31046841220761 L31.787383757608723,12.242575816715021 L31.770407731565385,12.173711697938904 L31.756254683748494,12.103986920179038 L31.744947399140475,12.033513733309542 L31.73650408133142,11.962405592067874 L31.730938323213156,11.890776973404115 L31.72825908509603,11.818743192184611 L31.728470680283742,11.74642021554664 L31.73157276812933,11.673924476202995 L31.737560354583604,11.601372684997036 L31.746423800235046,11.528881643009981 L31.758148835828298,11.456568053522918 L31.77271658523623,11.384548334136273 L31.790103595848592,11.312938429349188 L31.810281876328368,11.24185362390055 L31.833218941675014,11.171408357172165 L31.85887786552203,11.10171603895287 L31.887217339584687,11.032888866860192 L31.91819174016223,10.965037645713473 L31.95175120158742,10.898271609149264 L31.987841696505264,10.832698243766169 L32.026405122851585,10.768423116082234 L32.067379397391534,10.705549702583486 L32.11069855566733,10.6441792231372 L32.15629285819437,10.584410478038103 L32.20408890273486,10.526339688949845 L32.254009742467936,10.470060343997801 L32.30597500986636,10.415663047262607 L32.359901046080125,10.363235372916701 L32.41570103561881,10.31286172423873 L32.47328514611574,10.264623197732757 L32.53256067294908,10.218597452571059 L32.59343218848694,10.174858585570671 L32.655801695716285,10.133477011904976 L32.71956878600819,10.094519351742356 L32.784630800765704,10.058048322994429 L32.85088299669382,10.024122640346528 L32.91821871442563,9.99279692073296 L32.9865295502332,9.964121595409246 L33.05570553054663,9.93814282876287 L33.12563528900046,9.914902443993272 L33.19620624572228,9.89443785578069 L33.26730478857501,9.876782010052308 L33.33881645606102,9.861963330942615 L33.41062612159357,9.85000567503342 L33.482618178839104,9.84092829294715 L33.554676727831726,9.834745798355293 L33.62668576156053,9.831468144451847 L33.698529352729224,9.831100607929686 L33.77009184038736,9.83364378048562 L33.84125801613285,9.839093567867813 L33.91191330958591,9.847441196467122 L33.98194397283581,9.858673227441724 L34.051237263563586,9.872771578352298 L34.119681626545805,9.889713552272934 L34.187166873247264,9.909471874330896 L34.25358435921343,9.932014735616422 L34.31882715897708,9.957305844391874 L34.382790238197536,9.985304484517767 " />

       </g>
    </g>
    
</svg>
