<?xml version="1.0" encoding="UTF-8" standalone="no"?>
<svg
   xmlns:svg="http://www.w3.org/2000/svg"
   xmlns="http://www.w3.org/2000/svg"
   width="800.0"
   height="240.0"

>
    <g transform="scale(12.343219517923803, -12.343219517923803)   translate(5.912581839813066,-5.226974607941265)" stroke-width="0.08101613995828906"  fill="none">
       <!-- hidden lines -->
       <g  stroke="rgb(160,160,160)" fill="none" stroke-dasharray="0.08101613995828906,0.08101613995828906" >
			<path d="M6.938893903907227e-17,-4.805540587590854 L38.313051408846064,-7.979842627100408 " />
			<path d="M-3.3864273073929816,3.6786016489616156 L-3.5087775969369774,3.561363962464024 L-3.6263726829294956,3.439299805751507 L-3.7390531968853313,3.3125746039316635 L-3.846666430698786,3.181360098904087 L-3.9490665435983994,3.0458341166104552 L-4.046114759794863,2.9061803260393324 L-4.137679556554239,2.7625879903122894 L-4.22363684244163,2.6152517101886943 L-4.303870125493715,2.4643711603367606 L-4.378270671092245,2.3101508187282853 L-4.446737649324557,2.1527996895237944 L-4.509178271631372,1.9925310198236683 L-4.565507916556713,1.8295620106690935 L-4.615650244429511,1.6641135226845198 L-4.659537300821482,1.496409776760532 L-4.697109608641058,1.3266780501827897 L-4.72831624873858,1.1551483686188417 L-4.753114928913498,0.9820531943802571 L-4.77147204123006,0.8076271113825264 L-4.783362707563827,0.6321065072297167 L-4.788770813317276,0.4557292528546997 L-4.787689029258793,0.27873438014913443 L-4.7801188214554795,0.10136175802007719 L-4.766070449286287,-0.07614823268775295 L-4.745562951538197,-0.25355502496350457 L-4.718624120604268,-0.4306181916540228 L-4.685290464818525,-0.6070977712981378 L-4.645607158978741,-0.7827545933298319 L-4.599627983124162,-0.9573506022095641 L-4.547415249651134,-1.1306491800444773 L-4.489039718865431,-1.3024154672602533 L-4.4245805030857,-1.4724166808900547 L-4.354124959428009,-1.640422430049171 L-4.2777685714167974,-1.8062050281678503 L-4.195614819582653,-1.969539801559157 L-4.107775041222312,-2.1302053939036703 L-4.014368279510921,-2.2879840662384034 L-3.9155211221710537,-2.4426619920433508 L-3.811367529917134,-2.5940295470257735 L-3.702048654907743,-2.7418815932095137 L-3.587712649451861,-2.8860177569442946 L-3.468514465228295,-3.0262427004582713 L-3.344615643290385,-3.162366386585797 L-3.2161840951405942,-3.2942043363116498 L-3.0833938751716574,-3.421577878782682 L-2.946424944782711,-3.5443143934480634 L-2.805462928490053,-3.662247543999974 L-2.6606988623630756,-3.7752175037976974 L-2.512328935126303,-3.8830711724696103 L-2.3605542222783757,-3.9856623833995184 L-2.2055804135883434,-4.082852101816174 L-2.0476175343385474,-4.174508613217468 L-1.8868796606918845,-4.260507701873994 L-1.7235846295691908,-4.340732819170029 L-1.5579537434299386,-4.415075241553812 L-1.3902114703563129,-4.4834342178830475 L-1.220585139847154,-4.545717105965965 L-1.0493046347340111,-4.601839498112871 L-0.8766020796368421,-4.651725335528051 L-0.7027115263815813,-4.695307011386992 L-0.5278686368058794,-4.73252546245924 L-0.35231036338292254,-4.763330249152707 L-0.17627462809614247,-4.787679623870961 L-2.1760371282653068e-14,-4.805540587590853 " />
			<path d="M38.313051408846064,-7.979842627100409 L38.43058257760038,-7.988132947089838 L38.54804294997342,-7.993523595341272 L38.665361772228984,-7.996011324729775 L38.782468375895384,-7.995594636740184 L38.89929222033346,-7.992273782369763 L39.01576293522765,-7.98605076197701 L39.13181036297442,-7.976929324076717 L39.247364600942596,-7.964914963082001 L39.36235604358007,-7.9500149159946805 L39.47671542434161,-7.932238158045971 L39.59037385741242,-7.911595397290148 L39.70326287920238,-7.888099068154404 L39.815314489585944,-7.8617633239488285 L39.9264611928629,-7.832604028340974 L40.03663603841525,-7.800638745800178 L40.145772661035735,-7.7658867310173845 L40.25380532090375,-7.7283689173068355 L40.36066894318461,-7.688107903996631 L40.466299157228136,-7.645127942815733 L40.570632335343156,-7.599454923285631 L40.67360563112444,-7.5511163571254665 L40.77515701730903,-7.500141361679998 L40.87522532313914,-7.446560642380406 L40.97375027120914,-7.390406474248483 L41.07067251377438,-7.331712682455372 L41.16593366850012,-7.270514621946547 L41.25947635362877,-7.206849156145317 L41.351244222544615,-7.140754634747672 L41.441181997714835,-7.072270870621871 L41.529235503986655,-7.001439115826653 L41.61535170122043,-6.928302036762533 L41.69947871623903,-6.852903688471184 " />
			<path d="M5.551115123125783e-16,1.8020777203465703 L-0.0881218279227608,1.8072080834368949 L-0.1760313626434944,1.8079847239614861 L-0.26351682239309304,1.8044057709252963 L-0.3503674470361995,1.7964798463396678 L-0.4363740058108315,1.7842260444511568 L-0.5213293013836167,1.7676738857418188 L-0.6050286690063149,1.7468632458117828 L-0.6872704695711245,1.7218442593154366 L-0.7678565753769538,1.6926771991826546 L-0.8465928474364071,1.6594323314160297 L-0.9232896031736109,1.6221897458139176 L-0.9977620733861525,1.5810391630270983 L-1.0698308473702711,1.536079718413872 L-1.139322305136958,1.487419723214294 L-1.2060690356777224,1.4351764036189123 L-1.2699102402723565,1.3794756183606165 " />
			<path d="M-1.269910240272368,1.3794756183606058 L-1.3146041546654745,1.336694497252908 L-1.357609202927098,1.2921961306485046 L-1.398870136662325,1.2460376854017654 L-1.4383339481324453,1.1982784610627362 L-1.4759499383537564,1.1489798136952674 L-1.511669782230327,1.0982050770531522 L-1.5454475906370306,1.0460194812155328 L-1.5772399693731023,0.9924900687861088 " />
			<path d="M20.015395959880273,-3.2409540134387083 L20.071367647761576,-3.213690053776638 L20.12616404225264,-3.1843364866259973 L20.179714746668303,-3.152931022384417 L20.231950964655923,-3.1195140075126266 L20.282805588577755,-3.084128372701536 L20.33221328572382,-3.0468195777193645 L20.38011058224456,-3.0076355530096834 L20.426435944695395,-2.966626638115388 " />
			<path d="M20.4264359446954,-2.966626638115383 L20.472317303274398,-2.922662505678786 L20.516415460521593,-2.8768884469115923 L20.55867065325503,-2.8293664962291505 L20.599025615935076,-2.7801610568438098 L20.63742565827243,-2.729338813483698 L20.673818739346107,-2.6769686420195264 L20.70815553813087,-2.623121516121886 L20.740389520338642,-2.5678704110755377 L20.770477001483176,-2.511290204881063 L20.798377206082623,-2.4534575767778843 L20.82405232291974,-2.3944509033262 L20.847467556284798,-2.334350152188653 L20.8685911731318,-2.273236773755688 L20.8873945460841,-2.211193590761472 L20.90385219223109,-2.148304686039977 L20.91794180766343,-2.0846552885733236 L20.9296442977,-2.0203316579868438 L20.938943802765593,-1.9554209676473742 L20.945827719884306,-1.8900111865232245 L20.950286719759468,-1.8241909599659212 L20.95231475941701,-1.75804948957529 L20.95190909039508,-1.6916764123107024 L20.949070262468837,-1.6251616790123062 L20.94380212290539,-1.5585954324968703 L20.936111811249855,-1.4920678853934644 L20.926009749649634,-1.4256691978845195 L20.91350962872998,-1.3594893555179761 L20.89862838904006,-1.2936180472560903 L20.881386198094592,-1.2281445439261898 L20.861806423042207,-1.1631575772380986 L20.83991559899757,-1.0987452195321836 L20.81574339308017,-1.0349947644210071 L20.789322564208536,-0.9719926084863377 L20.760688918704332,-0.909824134191834 L20.72988126176653,-0.8485735941700956 L20.6969413448814,-0.7883239970409021 L20.66191380923963,-0.7291569949153762 L20.624846125237177,-0.6711527727385209 L20.585788528141958,-0.6143899396201118 L20.544793950013435,-0.5589454223012102 L20.50191794796748,-0.5048943609006677 L20.457218628883645,-0.45231000708292624 L20.41075657065693,-0.4012636247851038 L20.362594740100754,-0.3518243936379084 L20.312798407612405,-0.30405931521127094 L20.26143505871655,-0.2580331222117538 L20.208574302606802,-0.21380819075478774 L20.154287777809188,-0.17144445583064094 L20.098649055095397,-0.13099933007867381 L20.041733537777425,-0.09252762597995745 L19.983618359518662,-0.056081481573711844 L19.92438227979999,-0.021710289798226867 L19.864105577182492,0.010539368447969988 L19.80286994051148,0.04062378743398387 L19.74075835820926,0.0685021958279024 L19.67785500580665,0.09413681195136547 L19.614245131865715,0.11749289498246007 L19.550014942448286,0.13853879203754937 L19.48525148428685,0.1572459810682414 L19.420042526816125,0.173589109515345 L19.354476443225238,0.18754602866743797 L19.288642090691628,0.19909782367748852 L19.222628689959084,0.20822883919683366 L19.15652570442305,0.21492670059179209 " />
			<path d="M19.156525704423032,0.21492670059179342 L0.0,1.8020777203465703 " />
			<path d="M30.530712841424204,-2.529521937734176 L30.529495895450673,-2.4630916352620114 L30.525846706772775,-2.396549709059933 L30.519770220883483,-2.3299863387973705 L30.511274672823774,-2.2634917332054076 L30.50037157602224,-2.197156007823126 L30.487075706691737,-2.1310690628702504 L30.4714050838042,-2.065320461411598 L30.453380944670787,-1.9999993079784528 L30.43302771616042,-1.9351941278113627 L30.410372981595724,-1.8709927468879992 L30.38544744337128,-1.8074821728986885 L30.358284881344773,-1.7447484773309079 L30.328922107057505,-1.6828766788225489 L30.297398913846244,-1.6219506279420415 L30.26375802291408,-1.5620528935514828 L30.228045025433328,-1.5032646509067642 L30.190308320758966,-1.4456655716463662 L30.15059905083634,-1.389333715817897 L30.108971030892018,-1.3343454260887082 L30.065480676501743,-1.2807752242839598 L30.020186927134297,-1.2286957103923495 L29.97315116627493,-1.1781774641763658 L29.92443713823656,-1.1292889495204195 L29.874110861771502,-1.0820964216464795 L29.822240540600852,-1.0366638373229475 L29.768896470982664,-0.9930527681884813 L29.714150946444338,-0.9513223173082095 L29.658078159808156,-0.9115290390754356 L29.60075410264292,-0.8737268625673804 L29.54225646227782,-0.8379670184588368 L29.482664516518167,-0.8042979695927759 L29.42205902620567,-0.772765345302012 L29.360522125768867,-0.7434118795709237 L29.298137211912,-0.7162773531210411 L29.234988830593235,-0.6913985394989843 L29.171162562445378,-0.668809155239821 L29.106744906794358,-0.6485398141733785 L29.041823164432678,-0.6306179859354382 L28.97648531930669,-0.6150679587400381 L28.910819919278037,-0.6019108064633367 L28.844915956120865,-0.5911643600836465 L28.778862744917415,-0.5828431835163417 L28.712749803015495,-0.5769585538763926 L28.646666728711782,-0.5735184461952705 L28.58070307982548,-0.5725275226129416 L28.51494825232677,-0.573987126059587 L28.449491359184666,-0.5778952784356264 L28.384421109598346,-0.5842466832924975 L28.31982568877573,-0.5930327330105674 L28.25579263842216,-0.6042415204644427 L28.19240873810119,-0.6178578551598743 L28.12975988762823,-0.6338632838203826 L28.06793099065649,-0.6522361153957068 L28.007005839612912,-0.6729514504581844 L27.94706700214011,-0.6959812149472242 L27.888195709198136,-0.7212941982161365 L27.830471744977796,-0.7488560953297656 L27.773973338774642,-0.7786295535555956 L27.718777058970225,-0.8105742229853221 L27.664957709264275,-0.8446468112182934 L27.612588227298396,-0.8808011420327071 L27.561739585808755,-0.9189882179650464 L27.512480696441617,-0.9591562867129564 L27.46487831636219,-1.0012509112715489 " />
			<path d="M27.464878316362178,-1.0012509112715595 L27.42018440196907,-1.0440320323792576 L27.377179353707447,-1.0885303989836612 L27.33591841997222,-1.1346888442304002 L27.2964546085021,-1.1824480685694296 L27.258838618280787,-1.2317467159368984 L27.223118774404217,-1.2825214525790138 L27.189340965997513,-1.3347070484166332 L27.15754858726144,-1.3882364608460573 " />
			<path d="M29.593658812091785,-4.034529523316097 L29.64963049997309,-4.007265563654027 L29.704426894464152,-3.9779119965033862 L29.757977598879815,-3.9465065322618056 L29.810213816867435,-3.9130895173900155 L29.861068440789268,-3.877703882578924 L29.910476137935333,-3.840395087596753 L29.95837343445607,-3.801211062887072 L30.004698796906908,-3.7602021479927767 " />
			<path d="M30.00469879690691,-3.7602021479927714 L30.065480676501743,-3.701178085142041 L30.123056802224948,-3.63897293883619 L30.17728846814659,-3.5737365667211973 L30.228045025433328,-3.5056261289315205 L30.27520419709291,-3.434805709477563 L30.318652372550154,-3.361445920952926 L30.358284881344773,-3.285723493513724 L30.39400624529168,-3.207820849120159 L30.42573040849631,-3.1279256620660405 L30.453380944670787,-3.0462304068549755 L30.476891241251572,-2.9629318945124257 L30.49620465987494,-2.878230798450712 L30.511274672823774,-2.792331171029187 L30.5220649751169,-2.7054399519742276 L30.52854957197098,-2.6177664698433087 L30.530712841424204,-2.529521937734184 " />
			<path d="M40.10897569363572,-3.3230974476115644 L40.10775874766219,-3.2566671451394 L40.10410955898429,-3.1901252189373217 L40.098033073095,-3.1235618486747594 L40.0895375250353,-3.057067243082796 L40.07863442823376,-2.9907315177005143 L40.06533855890326,-2.924644572747639 L40.049667936015716,-2.8588959712889865 L40.03164379688231,-2.7935748178558413 L40.01129056837194,-2.7287696376887514 L39.988635833807244,-2.6645682567653877 L39.9637102955828,-2.601057682776077 L39.936547733556296,-2.5383239872082966 L39.907184959269024,-2.4764521886999376 L39.87566176605776,-2.41552613781943 L39.8420208751256,-2.355628403428871 L39.80630787764485,-2.2968401607841527 L39.76857117297049,-2.2392410815237547 L39.72886190304786,-2.1829092256952856 L39.68723388310354,-2.1279209359660967 L39.64374352871326,-2.0743507341613485 L39.59844977934582,-2.022271220269738 L39.551414018486454,-1.9717529740537543 L39.50269999044808,-1.922864459397808 L39.45237371398302,-1.875671931523868 L39.40050339281237,-1.830239347200336 L39.347159323194184,-1.7866282780658698 L39.29241379865586,-1.744897827185598 L39.23634101201968,-1.705104548952824 L39.17901695485444,-1.6673023724447689 L39.12051931448934,-1.6315425283362253 L39.060927368729686,-1.5978734794701643 L39.00032187841719,-1.5663408551794005 L38.93878497798038,-1.5369873894483121 L38.876400064123516,-1.5098528629984296 L38.813251682804754,-1.4849740493763728 L38.7494254146569,-1.4623846651172094 L38.68500775900588,-1.442115324050767 L38.620086016644194,-1.4241934958128266 L38.55474817151821,-1.4086434686174265 L38.48908277148956,-1.3954863163407252 L38.42317880833239,-1.384739869961035 L38.357125597128935,-1.3764186933937301 L38.291012655227014,-1.370534063753781 L38.2249295809233,-1.367093956072659 L38.158965932037,-1.36610303249033 L38.09321110453829,-1.3675626359369755 L38.027754211396186,-1.3714707883130148 L37.962683961809866,-1.377822193169886 L37.898088540987246,-1.3866082428879558 L37.83405549063368,-1.3978170303418311 L37.77067159031271,-1.4114333650372628 L37.70802273983975,-1.427438793697771 L37.64619384286801,-1.4458116252730953 L37.58526869182443,-1.4665269603355728 L37.525329854351625,-1.4895567248246127 L37.46645856140965,-1.514869708093525 L37.408734597189316,-1.542431605207154 L37.35223619098616,-1.572205063432984 L37.29703991118175,-1.6041497328627106 L37.243220561475795,-1.6382223210956819 L37.19085107950992,-1.6743766519100955 L37.140002438020275,-1.7125637278424348 L37.09074354865314,-1.7527317965903448 L37.043141168573705,-1.7948264211489373 " />
			<path d="M37.0431411685737,-1.794826421148948 L36.99844725418059,-1.837607542256646 L36.95544220591896,-1.8821059088610497 L36.91418127218374,-1.9282643541077886 L36.87471746071362,-1.976023578446818 L36.83710147049231,-2.025322225814287 L36.801381626615736,-2.0760969624564023 L36.76760381820903,-2.1282825582940217 L36.73581143947296,-2.181811970723446 " />
			<path d="M39.171921664303305,-4.828105033193484 L39.22789335218461,-4.800841073531414 L39.28268974667567,-4.771487506380774 L39.336240451091335,-4.740082042139194 L39.388476669078955,-4.7066650272674035 L39.43933129300079,-4.671279392456312 L39.48873899014686,-4.633970597474141 L39.536636286667594,-4.594786572764461 L39.582961649118424,-4.553777657870165 " />
			<path d="M39.58296164911843,-4.55377765787016 L39.64374352871326,-4.4947535950194295 L39.70131965443647,-4.432548448713579 L39.75555132035811,-4.367312076598586 L39.80630787764485,-4.299201638808909 L39.853467049304435,-4.228381219354952 L39.89691522476168,-4.155021430830315 L39.936547733556296,-4.079299003391113 L39.9722690975032,-4.001396358997548 L40.00399326070783,-3.9215011719434294 L40.03164379688231,-3.839805916732364 L40.055154093463095,-3.756507404389814 L40.074467512086464,-3.6718063083281005 L40.0895375250353,-3.5859066809065756 L40.10032782732842,-3.499015461851616 L40.1068124241825,-3.411341979720697 L40.10897569363572,-3.3230974476115724 " />
			<path d="M-1.988279954188232,0.7181626934627818 L-1.269910240272368,1.3794756183606058 " />
			<path d="M19.708066230779536,-3.6279395630132063 L20.4264359446954,-2.9666266381153825 " />
			<path d="M29.286329082991053,-4.421515072890595 L30.004698796906915,-3.7602021479927714 " />
			<path d="M26.746508602446315,-1.6625638361693835 L27.464878316362178,-1.0012509112715595 " />
			<path d="M38.86459193520256,-5.215090582767983 L39.582961649118424,-4.553777657870159 " />
			<path d="M36.324771454657835,-2.4561393460467724 L37.0431411685737,-1.7948264211489484 " />

       </g>

       <!-- solid lines -->
       <g  stroke="rgb(0,0,0)" fill="none">
			<path d="M-0.7183697139158635,-5.466853512488678 L37.5946816949302,-8.641155551998231 " />
			<path d="M1.3322676295501878e-15,4.805540587590855 L-0.11753116875432035,4.813830907580284 L-0.23499154112736242,4.819221555831719 L-0.35231036338292476,4.821709285220221 L-0.46941696704931823,4.821292597230631 L-0.586240811487392,4.817971742860209 L-0.7027115263815817,4.811748722467456 L-0.8187589541283549,4.802627284567163 L-0.9343131920965317,4.790612923572447 L-1.049304634734009,4.775712876485127 L-1.1636640154955502,4.757936118536418 L-1.277322448566358,4.737293357780594 L-1.3902114703563107,4.71379702864485 L-1.5022630807398771,4.687461284439275 L-1.6134097840168402,4.658301988831421 L-1.7235846295691886,4.626336706290625 L-1.832721252189665,4.5915846915078316 L-1.9407539120576847,4.5540668777972835 L-2.047617534338543,4.513805864487079 L-2.153247748382067,4.470825903306181 L-2.257580926497086,4.425152883776079 L-2.360554222278371,4.376814317615915 L-2.462105608462962,4.325839322170447 L-2.562173914293078,4.272258602870853 L-2.660698862363073,4.216104434738929 L-2.7576211049283197,4.157410642945818 L-2.8528822596540557,4.0962125824369915 L-2.946424944782711,4.032547116635761 L-3.0381928136985548,3.9664525952381173 L-3.1281305888687725,3.8979688311123177 L-3.216184095140593,3.8271370763170993 L-3.3023002923743694,3.75399999725298 L-3.3864273073929505,3.678601648961644 " />
			<path d="M-0.7183697139158622,4.144227662693031 L-0.8359008826701839,4.15251798268246 L-0.953361255043226,4.157908630933895 L-1.0706800772987883,4.160396360322397 L-1.1877866809651818,4.159979672332807 L-1.3046105254032556,4.156658817962385 L-1.4210812402974453,4.150435797569632 L-1.5371286680442184,4.141314359669339 L-1.6526829060123953,4.1292999986746235 L-1.7676743486498725,4.114399951587303 L-1.8820337294114138,4.096623193638594 L-1.9956921624822215,4.07598043288277 L-2.1085811842721744,4.052484103747026 L-2.2206327946557405,4.026148359541451 L-2.331779497932704,3.996989063933597 L-2.441954343485052,3.9650237813928015 L-2.5510909661055283,3.9302717666100078 L-2.6591236259735482,3.8927539528994597 L-2.7659872482544063,3.852492939589255 L-2.8716174622979302,3.809512978408357 L-2.9759506404129494,3.763839958878255 L-3.0789239361942347,3.7155013927180915 L-3.1804753223788254,3.664526397272623 L-3.2805436282089415,3.610945677973029 L-3.3790685762789368,3.554791509841105 L-3.475990818844183,3.496097718047994 L-3.571251973569919,3.4348996575391677 L-3.6647946586985745,3.371234191737937 L-3.7565625276144186,3.3051396703402935 L-3.8465003027846363,3.236655906214494 L-3.9345538090564567,3.1658241514192755 L-4.020670006290233,3.0926870723551563 L-4.104797021308814,3.01728872406382 " />
			<path d="M-4.104797021308845,3.017288724063792 L-4.227147310852841,2.9000510375662003 L-4.344742396845359,2.777986880853683 L-4.457422910801195,2.6512616790338397 L-4.565036144614649,2.520047174006263 L-4.667436257514263,2.3845211917126314 L-4.764484473710726,2.2448674011415086 L-4.856049270470102,2.1012750654144656 L-4.9420065563574935,1.9539387852908705 L-5.022239839409578,1.8030582354389368 L-5.096640385008109,1.6488378938304615 L-5.165107363240421,1.4914867646259706 L-5.227547985547235,1.3312180949258443 L-5.283877630472577,1.1682490857712695 L-5.334019958345374,1.0028005977866958 L-5.377907014737345,0.8350968518627081 L-5.415479322556921,0.6653651252849658 L-5.446685962654444,0.49383544372101784 L-5.4714846428293615,0.32074026948243317 L-5.489841755145924,0.1463141864847025 L-5.501732421479691,-0.029206417668107165 L-5.5071405272331395,-0.20558367204312422 L-5.506058743174656,-0.38257854474868946 L-5.498488535371343,-0.5599511668777467 L-5.484440163202151,-0.7374611575855768 L-5.4639326654540605,-0.9148679498613285 L-5.436993834520131,-1.0919311165518466 L-5.4036601787343885,-1.2684106961959616 L-5.363976872894605,-1.4440675182276559 L-5.317997697040026,-1.6186635271073881 L-5.265784963566998,-1.7919621049423013 L-5.2074094327812945,-1.9637283921580773 L-5.142950217001563,-2.1337296057878787 L-5.072494673343872,-2.3017353549469948 L-4.996138285332661,-2.4675179530656743 L-4.913984533498517,-2.6308527264569808 L-4.826144755138175,-2.791518318801494 L-4.732737993426785,-2.9492969911362272 L-4.633890836086917,-3.1039749169411746 L-4.529737243832997,-3.2553424719235973 L-4.420418368823607,-3.4031945181073375 L-4.306082363367724,-3.5473306818421184 L-4.186884179144158,-3.687555625356095 L-4.062985357206249,-3.823679311483621 L-3.9345538090564576,-3.9555172612094736 L-3.801763589087521,-4.082890803680506 L-3.6647946586985745,-4.205627318345887 L-3.5238326424059165,-4.323560468897798 L-3.3790685762789394,-4.436530428695521 L-3.230698649042167,-4.544384097367434 L-3.078923936194239,-4.646975308297343 L-2.923950127504207,-4.744165026713998 L-2.765987248254411,-4.835821538115292 L-2.605249374607748,-4.921820626771818 L-2.4419543434850546,-5.0020457440678525 L-2.276323457345802,-5.076388166451636 L-2.1085811842721762,-5.144747142780871 L-1.9389548537630177,-5.2070300308637885 L-1.7676743486498747,-5.263152423010695 L-1.5949717935527057,-5.313038260425874 L-1.4210812402974449,-5.356619936284816 L-1.246238350721743,-5.3938383873570634 L-1.0706800772987861,-5.424643174050531 L-0.894644342012006,-5.448992548768785 L-0.7183697139158853,-5.466853512488677 " />
			<path d="M41.69947871623904,-6.852903688471169 L41.821829005783044,-6.735666001973579 L41.93942409177556,-6.613601845261062 L42.052104605731394,-6.486876643441217 L42.15971783954485,-6.355662138413641 L42.26211795244446,-6.220136156120011 L42.359166168640925,-6.080482365548886 L42.450730965400304,-5.9368900298218445 L42.53668825128769,-5.789553749698249 L42.61692153433978,-5.638673199846316 L42.69132207993831,-5.484452858237841 L42.759789058170625,-5.327101729033348 L42.822229680477434,-5.166833059333223 L42.878559325402776,-5.00386405017865 L42.928701653275574,-4.838415562194074 L42.97258870966755,-4.670711816270087 L43.01016101748712,-4.500980089692344 L43.041367657584644,-4.329450408128398 L43.06616633775956,-4.156355233889814 L43.08452345007613,-3.981929150892081 L43.09641411640989,-3.8064085467392714 L43.10182222216334,-3.6300312923642557 L43.10074043810486,-3.4530364196586887 L43.093170230301546,-3.2756637975296323 L43.07912185813235,-3.098153806821803 L43.05861436038426,-2.920747014546054 L43.03167552945033,-2.7436838478555345 L42.998341873664586,-2.5672042682114187 L42.958658567824806,-2.391547446179723 L42.91267939197023,-2.216951437299989 L42.8604666584972,-2.0436528594650785 L42.8020911277115,-1.871886572249305 L42.737631911931764,-1.7018853586195013 L42.66717636827407,-1.5338796094603833 L42.590819980262864,-1.3680970113417066 L42.50866622842872,-1.2047622379504035 L42.420826450068375,-1.0440966456058876 L42.32741968835698,-0.8863179732711526 L42.22857253101712,-0.7316400474662053 L42.1244189387632,-0.5802724924837808 L42.015100063753806,-0.4324204463000423 L41.90076405829793,-0.2882842825652632 L41.78156587407436,-0.14805933905128565 L41.65766705213645,-0.011935652923758866 L41.52923550398666,0.11990229680209552 L41.39644528401772,0.24727583927312846 L41.25947635362878,0.37001235393850784 L41.11851433733612,0.48794550449041685 L40.97375027120914,0.6009154642881418 L40.82538034397237,0.7087691329600543 L40.67360563112444,0.8113603438899646 L40.51863182243441,0.9085500623066203 L40.36066894318461,1.0002065737079127 L40.19993106953795,1.0862056623644385 L40.03663603841526,1.166430779660474 L39.871005152276005,1.2407732020442568 L39.70326287920238,1.3091321783734928 L39.53363654869322,1.3714150664564109 L39.36235604358008,1.4275374586033163 L39.18965348848291,1.477423296018495 L39.01576293522765,1.5210049718774368 L38.84092004565194,1.5582234229496859 L38.66536177222899,1.5890282096431534 L38.4893260369422,1.613377584361407 L38.31305140884611,1.6312385480812974 " />
			<path d="M37.5946816949302,-8.641155551998231 L37.71221286368452,-8.649445871987663 L37.82967323605756,-8.654836520239096 L37.94699205831312,-8.6573242496276 L38.06409866197952,-8.656907561638008 L38.180922506417595,-8.653586707267586 L38.297393221311786,-8.647363686874833 L38.41344064905856,-8.63824224897454 L38.528994887026734,-8.626227887979825 L38.64398632966421,-8.611327840892503 L38.75834571042575,-8.593551082943794 L38.87200414349656,-8.57290832218797 L38.984893165286515,-8.549411993052228 L39.09694477567008,-8.523076248846653 L39.20809147894704,-8.493916953238799 L39.31826632449939,-8.461951670698003 L39.42740294711987,-8.427199655915208 L39.53543560698789,-8.38968184220466 L39.64229922926875,-8.349420828894456 L39.74792944331227,-8.306440867713556 L39.85226262142729,-8.260767848183455 L39.955235917208576,-8.21242928202329 L40.056787303393165,-8.161454286577822 L40.15685560922328,-8.10787356727823 L40.25538055729328,-8.051719399146307 L40.35230279985852,-7.993025607353196 L40.447563954584254,-7.931827546844371 L40.54110663971291,-7.868162081043141 L40.63287450862875,-7.802067559645495 L40.72281228379897,-7.733583795519695 L40.81086579007079,-7.6627520407244765 L40.89698198730457,-7.589614961660358 L40.981109002323166,-7.514216613369007 " />
			<path d="M40.98110900232318,-7.514216613368994 L41.10345929186718,-7.396978926871403 L41.221054377859694,-7.274914770158886 L41.33373489181553,-7.148189568339042 L41.441348125628984,-7.016975063311465 L41.5437482385286,-6.881449081017834 L41.64079645472506,-6.74179529044671 L41.73236125148444,-6.5982029547196674 L41.81831853737183,-6.450866674596073 L41.89855182042392,-6.29998612474414 L41.97295236602245,-6.145765783135665 L42.04141934425476,-5.988414653931173 L42.10385996656157,-5.828145984231047 L42.16018961148691,-5.6651769750764736 L42.21033193935971,-5.499728487091898 L42.254218995751685,-5.332024741167911 L42.29179130357126,-5.162293014590168 L42.32299794366878,-4.990763333026222 L42.3477966238437,-4.817668158787637 L42.366153736160264,-4.643242075789905 L42.37804440249403,-4.467721471637095 L42.38345250824748,-4.291344217262079 L42.382370724188995,-4.114349344556512 L42.37480051638568,-3.936976722427456 L42.36075214421649,-3.759466731719627 L42.3402446464684,-3.582059939443878 L42.31330581553447,-3.4049967727533583 L42.27997215974872,-3.2285171931092425 L42.24028885390894,-3.052860371077547 L42.19430967805437,-2.878264362197813 L42.14209694458134,-2.7049657843629022 L42.08372141379564,-2.5331994971471286 L42.0192621980159,-2.363198283517325 L41.94880665435821,-2.195192534358207 L41.872450266347,-2.0294099362395306 L41.79029651451286,-1.8660751628482273 L41.70245673615251,-1.7054095705037113 L41.60904997444112,-1.5476308981689764 L41.51020281710126,-1.392952972364029 L41.40604922484734,-1.2415854173816046 L41.296730349837944,-1.093733371197866 L41.18239434438207,-0.949597207463087 L41.0631961601585,-0.8093722639491094 L40.93929733822059,-0.6732485778215826 L40.8108657900708,-0.5414106280957283 L40.67807557010186,-0.4140370856246953 L40.541106639712915,-0.29130057095931594 L40.40014462342026,-0.17336742040740694 L40.25538055729328,-0.060397460609681985 L40.10701063005651,0.0474562080622305 L39.955235917208576,0.1500474189921408 L39.800262108518545,0.2472371374087965 L39.64229922926875,0.3388936488100889 L39.48156135562209,0.4248927374666147 L39.3182663244994,0.5051178547626503 L39.15263543836014,0.579460277146433 L38.984893165286515,0.647819253475669 L38.815266834777354,0.7101021415585871 L38.643986329664216,0.7662245337054925 L38.47128377456705,0.8161103711206712 L38.297393221311786,0.859692046979613 L38.12255033173608,0.8969104980518621 L37.94699205831313,0.9277152847453296 L37.77095632302634,0.9520646594635833 L37.594681694930244,0.9699256231834736 " />
			<path d="M38.313051408846064,1.6312385480813 L0.0,4.805540587590854 " />
			<path d="M2.60208521396521e-17,-1.8020777203465703 L19.156525704423032,-3.3892287401013474 " />
			<path d="M-1.5772399693731027,0.9924900687861078 L-1.6294473285183413,0.8927358614464973 L-1.6748423868219215,0.7892493547229963 L-1.713235359202438,0.6824631991250841 L-1.7444657345016081,0.5728238401468406 L-1.7684029465402047,0.46078965179298126 L-1.7849469199817232,0.34682902023485385 L-1.7940284887216653,0.23141838560813655 L-1.795609685053258,0.1150402501389789 L-1.7896838984006866,-0.0018188390738995697 L-1.7762759029562158,-0.11867032418768375 L-1.7554417541056515,-0.2350256791503461 L-1.7272685540751695,-0.350398452102614 L-1.6918740877792753,-0.4643062991082757 L-1.6494063303923217,-0.5762730007103124 L-1.6000428287023072,-0.685830452882155 L-1.5439899588333472,-0.7925206240504123 L-1.4814820634400967,-0.8958974700072563 L-1.4127804719812909,-0.9955287987067117 L-1.3381724081683841,-1.0909980771486167 L-1.2579697891569743,-1.181906172796129 L-1.1725079215012726,-1.2678730222463668 L-1.0821440993235079,-1.3485392201778972 L-0.9872561105589523,-1.4235675219320898 L-0.8882406575215827,-1.4926442534464301 L-0.785511698393573,-1.5554806226452267 L-0.6794987165724429,-1.6118139268051155 L-0.57064492511126,-1.6614086508476862 L-0.4594054137586845,-1.704057451967544 L-0.34624524634559295,-1.7395820264793358 L-0.2316375164726301,-1.7678338552596684 L-0.11606136962735514,-1.788694824667426 L-8.104628079763643e-15,-1.8020777203465697 " />
			<path d="M19.156525704423032,-3.3892287401013474 L19.268393558502236,-3.3949977322831963 L19.37982694061635,-3.3937454159735427 L19.490393066200927,-3.3854766549139184 L19.59966251893927,-3.370223563288474 L19.707210918527974,-3.348045380999026 L19.812620568883602,-3.3190282435893455 L19.915482080389214,-3.28328484771224 L20.015395959880266,-3.2409540134387114 " />
			<path d="M27.15754858726144,-1.3882364608460582 L27.124364197074456,-1.4496693152497109 L27.09377242801078,-1.512601078053927 L27.06582252973942,-1.5769304354549232 L27.04055949878333,-1.6425538236622876 L27.01802400607952,-1.7093655956262603 L26.998252331502965,-1.7772581911188485 L26.981276305459627,-1.8461223098949677 L26.967123257642736,-1.9158470876548335 L26.955815973034717,-1.9863202745243282 L26.947372655225664,-2.0574284157659966 L26.941806897107398,-2.1290570344297555 L26.939127658990273,-2.2010908156492595 L26.939339254177984,-2.273413792287231 L26.94244134202357,-2.345909531630876 L26.948428928477846,-2.4184613228368343 L26.95729237412929,-2.4909523648238903 L26.969017409722543,-2.5632659543109533 L26.98358515913047,-2.6352856736975983 L27.000972169742834,-2.7068955784846835 L27.02115045022261,-2.7779803839333215 L27.04408751556926,-2.848425650661706 L27.06974643941627,-2.918117968881 L27.09808591347893,-2.986945140973678 L27.12906031405647,-3.0547963621203977 L27.162619775481666,-3.121562398684607 L27.198710270399506,-3.1871357640677025 L27.23727369674583,-3.251410891751637 L27.27824797128578,-3.3142843052503843 L27.32156712956157,-3.3756547846966702 L27.367161432088615,-3.4354235297957674 L27.4149574766291,-3.493494318884026 L27.464878316362178,-3.5497736638360697 L27.5168435837606,-3.604170960571265 L27.570769619974374,-3.6565986349171697 L27.626569609513055,-3.7069722835951406 L27.684153720009984,-3.755210810101114 L27.743429246843323,-3.801236555262812 L27.80430076238119,-3.8449754222631993 L27.866670269610527,-3.886356995928894 L27.930437359902434,-3.925314656091514 L27.99549937465995,-3.9617856848394406 L28.06175157058806,-3.9957113674873423 L28.129087288319873,-4.02703708710091 L28.197398124127442,-4.055712412424624 L28.266574104440878,-4.081691179070998 L28.336503862894705,-4.104931563840596 L28.407074819616525,-4.1253961520531774 L28.47817336246926,-4.143051997781561 L28.549685029955263,-4.157870676891254 L28.621494695487822,-4.169828332800449 L28.69348675273335,-4.178905714886718 L28.765545301725968,-4.185088209478575 L28.83755433545478,-4.188365863382023 L28.90939792662347,-4.188733399904182 L28.980960414281604,-4.1861902273482485 L29.052126590027097,-4.180740439966056 L29.122781883480155,-4.172392811366747 L29.192812546730057,-4.161160780392144 L29.26210583745783,-4.14706242948157 L29.33055020044005,-4.1301204555609345 L29.398035447141506,-4.1103621335029725 L29.464452933107673,-4.087819272217445 L29.529695732871325,-4.062528163441994 L29.59365881209178,-4.0345295233161 " />
			<path d="M36.73581143947296,-2.1818119707234467 L36.70262704928597,-2.2432448251270993 L36.672035280222296,-2.3061765879313154 L36.64408538195094,-2.3705059453323116 L36.61882235099485,-2.436129333539676 L36.596286858291045,-2.5029411055036492 L36.576515183714484,-2.5708337009962374 L36.559539157671146,-2.639697819772356 L36.545386109854256,-2.7094225975322224 L36.53407882524623,-2.779895784401717 L36.52563550743719,-2.8510039256433855 L36.52006974931892,-2.922632544307144 L36.517390511201796,-2.9946663255266484 L36.5176021063895,-3.06698930216462 L36.520704194235094,-3.139485041508265 L36.52669178068936,-3.2120368327142232 L36.535555226340804,-3.2845278747012787 L36.54728026193406,-3.356841464188342 L36.56184801134199,-3.4288611835749876 L36.579235021954354,-3.5004710883620724 L36.59941330243413,-3.5715558938107104 L36.622350367780776,-3.6420011605390954 L36.648009291627794,-3.7116934787583893 L36.67634876569045,-3.7805206508510674 L36.70732316626799,-3.848371871997787 L36.74088262769318,-3.915137908561996 L36.776973122611025,-3.980711273945092 L36.81553654895735,-4.044986401629026 L36.8565108234973,-4.107859815127774 L36.89982998177309,-4.169230294574059 L36.94542428430014,-4.228999039673156 L36.99322032884062,-4.287069828761416 L37.0431411685737,-4.3433491737134595 L37.09510643597212,-4.397746470448654 L37.149032472185894,-4.450174144794559 L37.20483246172458,-4.5005477934725295 L37.262416572221504,-4.548786319978503 L37.32169209905484,-4.594812065140201 L37.38256361459271,-4.638550932140588 L37.44493312182205,-4.679932505806283 L37.50870021211396,-4.7188901659689035 L37.57376222687147,-4.75536119471683 L37.64001442279958,-4.789286877364731 L37.707350140531396,-4.820612596978299 L37.77566097633896,-4.849287922302013 L37.8448369566524,-4.875266688948387 L37.914766715106225,-4.898507073717986 L37.98533767182805,-4.918971661930566 L38.05643621468078,-4.936627507658949 L38.12794788216679,-4.951446186768643 L38.19975754769934,-4.963403842677838 L38.27174960494487,-4.972481224764106 L38.34380815393749,-4.978663719355964 L38.4158171876663,-4.981941373259411 L38.48766077883499,-4.982308909781571 L38.55922326649313,-4.9797657372256365 L38.63038944223862,-4.974315949843444 L38.701044735691674,-4.9659683212441355 L38.771075398941576,-4.954736290269532 L38.840368689669354,-4.9406379393589575 L38.90881305265157,-4.923695965438322 L38.976298299353026,-4.9039376433803605 L39.042715785319196,-4.881394782094834 L39.10795858508285,-4.856103673319382 L39.1719216643033,-4.828105033193488 " />
			<path d="M37.5946816949302,0.9699256231834762 L-0.7183697139158625,4.14422766269303 " />
			<path d="M-0.7183697139158636,-2.4633906452443943 L18.43815599050717,-4.050541664999171 " />
			<path d="M-0.718369713915863,1.1407647954487463 L-0.8064915418386244,1.145895158539071 L-0.894401076559358,1.1466717990636623 L-0.9818865363089566,1.1430928460274723 L-1.068737160952063,1.135166921441844 L-1.154743719726695,1.122913119553333 L-1.2396990152994802,1.106360960843995 L-1.3233983829221785,1.085550320913959 L-1.405640183486988,1.0605313344176128 L-1.4862262892928175,1.0313642742848308 L-1.5649625613522706,0.9981194065182059 L-1.6416593170894744,0.9608768209160937 L-1.716131787302016,0.9197262381292745 L-1.7882005612861347,0.874766793516048 L-1.8576920190528217,0.8261067983164702 L-1.924438749593586,0.7738634787210884 L-1.9882799541882201,0.7181626934627926 " />
			<path d="M-1.9882799541882317,0.7181626934627819 L-2.03416131276723,0.674198561026185 L-2.078259470014425,0.6284245022589913 L-2.120514662747863,0.5809025515765497 L-2.1608696254279085,0.5316971121912087 L-2.1992696677652637,0.480874868831097 L-2.235662748838937,0.42850469736692565 L-2.269999547623703,0.3746575714692847 L-2.302233529831475,0.31940646642293624 L-2.332321010976006,0.26282626022846123 L-2.3602212155754554,0.2049936321252831 L-2.385896332412573,0.145986958673599 L-2.409311565777628,0.0858862075360517 L-2.430435182624631,0.024772829103086202 L-2.4492385555769305,-0.03727035389112909 L-2.4656962017239192,-0.10015925861262442 L-2.4797858171562606,-0.16380865607927797 L-2.4914883071928315,-0.22813228666575813 L-2.5007878122584257,-0.2930429770052275 L-2.507671729377136,-0.3584527581293766 L-2.5121307292522985,-0.4242729846866802 L-2.514158768909842,-0.4904144550773115 L-2.5137530998879116,-0.5567875323418985 L-2.510914271961668,-0.623302265640295 L-2.505646132398221,-0.6898685121557313 L-2.4979558207426877,-0.7563960592591381 L-2.4878537591424643,-0.8227947467680827 L-2.4753536382228107,-0.8889745891346256 L-2.4604723985328913,-0.9548458973965109 L-2.4432302075874244,-1.0203194007264105 L-2.423650432535039,-1.0853063674145027 L-2.4017596084904005,-1.1497187251204193 L-2.377587402573001,-1.2134691802315942 L-2.351166573701367,-1.2764713361662632 L-2.3225329281971625,-1.338639810460768 L-2.2917252712593585,-1.3998903504825078 L-2.258785354374231,-1.4601399476117005 L-2.2237578187324587,-1.5193069497372254 L-2.186690134730009,-1.5773111719140802 L-2.147632537634789,-1.6340740050324891 L-2.1066379595062674,-1.6895185223513915 L-2.0637619574603114,-1.7435695837519343 L-2.0190626383764743,-1.7961539375696756 L-1.972600580149758,-1.8472003198674978 L-1.9244387495935864,-1.8966395510146925 L-1.8746424171052352,-1.9444046294413297 L-1.8232790682093805,-1.9904308224408478 L-1.7704183120996335,-2.0346557538978143 L-1.7161317873020172,-2.0770194888219606 L-1.6604930645882272,-2.1174646145739273 L-1.6035775472702545,-2.1559363186726435 L-1.5454623690114924,-2.192382463078889 L-1.4862262892928189,-2.2267536548543747 L-1.4259495866753202,-2.2590033131005716 L-1.3647139500043104,-2.289087732086585 L-1.3026023677020906,-2.3169661404805035 L-1.2396990152994811,-2.3426007566039666 L-1.1760891413585464,-2.3659568396350608 L-1.1118589519411177,-2.38700273669015 L-1.0470954937796795,-2.4057099257208425 L-0.9818865363089567,-2.422053054167946 L-0.9163204527180685,-2.436009973320039 L-0.8504861001844596,-2.447561768330089 L-0.7844726994519171,-2.456692783849434 L-0.7183697139158717,-2.4633906452443934 " />
			<path d="M18.43815599050717,-4.050541664999171 L18.52627781842993,-4.055672028089495 L18.614187353150662,-4.056448668614087 L18.701672812900263,-4.052869715577897 L18.78852343754337,-4.044943790992269 L18.874529996318003,-4.032689989103757 L18.959485291890786,-4.0161378303944195 L19.043184659513486,-3.9953271904643834 L19.125426460078295,-3.9703082039680373 L19.206012565884127,-3.941141143835255 L19.284748837943578,-3.9078962760686293 L19.36144559368078,-3.8706536904665176 L19.43591806389332,-3.8295031076796993 L19.50798683787744,-3.784543663066473 L19.577478295644127,-3.735883667866895 L19.64422502618489,-3.683640348271513 L19.708066230779533,-3.6279395630132116 " />
			<path d="M19.708066230779536,-3.6279395630132067 L19.753947589358535,-3.5839754305766096 L19.79804574660573,-3.538201371809416 L19.84030093933917,-3.4906794211269743 L19.880655902019214,-3.4414739817416335 L19.91905594435657,-3.390651738381522 L19.955449025430244,-3.3382815669173502 L19.98978582421501,-3.2844344410197097 L20.02201980642278,-3.2291833359733615 L20.052107287567313,-3.172603129778887 L20.08000749216676,-3.114770501675708 L20.10568260900388,-3.055763828224024 L20.129097842368935,-2.9956630770864767 L20.15022145921594,-2.9345496986535116 L20.169024832168237,-2.8725065156592957 L20.185482478315226,-2.8096176109378006 L20.199572093747566,-2.7459682134711474 L20.21127458378414,-2.6816445828846676 L20.22057408884973,-2.6167338925451977 L20.227458005968444,-2.5513241114210485 L20.231917005843606,-2.485503884863745 L20.233945045501148,-2.419362414473114 L20.233539376479218,-2.352989337208526 L20.230700548552974,-2.28647460391013 L20.225432408989526,-2.219908357394694 L20.217742097333993,-2.153380810291288 L20.20764003573377,-2.0869821227823433 L20.195139914814117,-2.0208022804157997 L20.180258675124197,-1.954930972153914 L20.16301648417873,-1.8894574688240136 L20.143436709126345,-1.8244705021359224 L20.12154588508171,-1.7600581444300074 L20.097373679164306,-1.696307689318831 L20.070952850292674,-1.6333055333841615 L20.04231920478847,-1.5711370590896578 L20.011511547850667,-1.5098865190679194 L19.978571630965536,-1.4496369219387257 L19.943544095323766,-1.3904699198132 L19.906476411321314,-1.3324656976363447 L19.867418814226095,-1.2757028645179356 L19.826424236097573,-1.220258347199034 L19.78354823405162,-1.1662072857984915 L19.738848914967782,-1.11362293198075 L19.692386856741066,-1.0625765496829276 L19.64422502618489,-1.0131373185357322 L19.594428693696543,-0.9653722401090947 L19.543065344800688,-0.9193460471095776 L19.49020458869094,-0.8751211156526115 L19.435918063893325,-0.8327573807284647 L19.380279341179534,-0.7923122549764976 L19.323363823861563,-0.7538405508777812 L19.2652486456028,-0.7173944064715356 L19.206012565884127,-0.6830232146960507 L19.14573586326663,-0.6507735564498538 L19.08450022659562,-0.6206891374638399 L19.022388644293397,-0.5928107290699214 L18.959485291890786,-0.5671761129464583 L18.895875417949853,-0.5438200299153637 L18.831645228532423,-0.5227741328602744 L18.766881770370986,-0.5040669438295824 L18.701672812900263,-0.4877238153824788 L18.636106729309375,-0.4737668962303858 L18.570272376775765,-0.46221510122033527 L18.50425897604322,-0.4530840857009901 L18.438155990507187,-0.4463862243060317 " />
			<path d="M18.43815599050717,-0.4463862243060305 L-0.7183697139158625,1.1407647954487463 " />
			<path d="M29.812343127508342,-3.190834862631999 L29.81017985805512,-3.2790793947411334 L29.80369526120104,-3.3667528768720514 L29.79290495890791,-3.45364409592701 L29.77783494595908,-3.539543723348535 L29.75852152733571,-3.6242448194102486 L29.735011230754925,-3.707543331752799 L29.707360694580448,-3.789238586963864 L29.67563653137582,-3.8691337740179814 L29.639915167428914,-3.947036418411546 L29.600282658634296,-4.022758845850748 L29.55683448317705,-4.096118634375385 L29.509675311517466,-4.166939053829344 L29.458918754230726,-4.235049491619022 L29.404687088309085,-4.300285863734014 L29.34711096258588,-4.362491010039864 L29.286329082991063,-4.4215150728905845 " />
			<path d="M29.28632908299105,-4.421515072890595 L29.222487878396404,-4.477215858148901 L29.15574114785564,-4.529459177744283 L29.086249690088952,-4.578119172943861 L29.014180916104834,-4.623078617557088 L28.939708445892293,-4.664229200343906 L28.86301169015509,-4.701471785946018 L28.784275418095636,-4.734716653712644 L28.703689312289807,-4.763883713845425 L28.621447511725,-4.788902700341772 L28.5377481441023,-4.8097133402718075 L28.452792848529512,-4.8262654989811455 L28.36678628975488,-4.838519300869657 L28.279935665111775,-4.846445225455286 L28.192450205362174,-4.850024178491475 L28.10454067064144,-4.849247537966884 L28.016418842718682,-4.844117174876559 L27.928297014795923,-4.8346454487145545 L27.840387480075186,-4.820855177698817 L27.75290202032559,-4.8027795838001115 L27.666051395682484,-4.780462212707372 L27.58004483690785,-4.753956828922334 L27.495089541335066,-4.723327286236131 L27.411390173712366,-4.6886473738999275 L27.329148373147557,-4.650000638860142 L27.248562267341725,-4.607480184486539 L27.169825995282274,-4.561188446278058 L27.093129239545068,-4.5112369450867185 L27.01865676933253,-4.4577460184541255 L26.946587995348413,-4.40084453070779 L26.877096537581725,-4.340669562515675 L26.81034980704096,-4.277366080646858 L26.746508602446312,-4.211086588733893 L26.685726722851484,-4.141990759878194 L26.62815059712828,-4.070245051983557 L26.573918931206638,-3.99602230674448 L26.5231623739199,-3.919501333255389 L26.476003202260316,-3.840866477243866 L26.432555026803072,-3.760307176965641 L26.392922518008454,-3.678017506831246 L26.357201154061546,-3.59419570986376 L26.325476990856917,-3.509043720113998 L26.29782645468244,-3.422766676183702 L26.274316158101655,-3.3355724270286764 L26.255002739478286,-3.247671031232449 L26.239932726529453,-3.1592742509567473 L26.229142424236326,-3.0705950417878967 L26.222657827382246,-2.9818470397081684 L26.220494557929023,-2.893244046427979 L26.222657827382246,-2.804999514318846 L26.229142424236326,-2.717326032187928 L26.239932726529453,-2.630434813132968 L26.255002739478286,-2.544535185711443 L26.274316158101655,-2.4598340896497293 L26.29782645468244,-2.3765355773071795 L26.325476990856917,-2.2948403220961144 L26.357201154061546,-2.214945135041996 L26.392922518008454,-2.1370424906484304 L26.432555026803072,-2.0613200632092292 L26.476003202260316,-1.9879602746845917 L26.5231623739199,-1.9171398552306345 L26.573918931206638,-1.8490294174409572 L26.62815059712828,-1.783793045325965 L26.685726722851484,-1.7215878990201139 L26.74650860244631,-1.6625638361693886 " />
			<path d="M26.746508602446315,-1.6625638361693835 L26.794110982525755,-1.620469211610781 L26.843369871892893,-1.5803011428628706 L26.894218513382533,-1.5421140669305304 L26.946587995348413,-1.5059597361161172 L27.000407345054363,-1.4718871478831463 L27.055603624858776,-1.4399424784534198 L27.112102031061934,-1.4101690202275898 L27.169825995282274,-1.3826071231139605 L27.228697288224247,-1.3572941398450478 L27.28863612569705,-1.3342643753560086 L27.349561276740626,-1.3135490402935308 L27.411390173712366,-1.2951762087182068 L27.474039024185323,-1.2791707800576986 L27.5374229245063,-1.265554445362267 L27.601455974859867,-1.2543456579083911 L27.666051395682484,-1.2455596081903213 L27.731121645268804,-1.2392082033334502 L27.79657853841091,-1.2353000509574106 L27.86233336590962,-1.2338404475107654 L27.928297014795923,-1.2348313710930947 L27.994380089099632,-1.2382714787742162 L28.060493031001553,-1.2441561084141655 L28.126546242205002,-1.2524772849814705 L28.192450205362174,-1.2632237313611605 L28.258115605390827,-1.2763808836378616 L28.323453450516816,-1.2919309108332615 L28.388375192878495,-1.3098527390712018 L28.452792848529516,-1.3301220801376445 L28.516619116677372,-1.352711464396808 L28.579767497996137,-1.3775902780188645 L28.642152411853004,-1.404724804468747 L28.703689312289807,-1.4340782701998354 L28.764294802602304,-1.4656108944905994 L28.823886748361957,-1.4992799433566604 L28.882384388727058,-1.5350397874652038 L28.939708445892293,-1.572841963973259 L28.995781232528476,-1.6126352422060328 L29.0505267570668,-1.6543656930863047 L29.103870826684986,-1.6979767622207709 L29.15574114785564,-1.7434093465443026 L29.206067424320697,-1.7906018744182428 L29.25478145235907,-1.8394903890741892 L29.301817213218435,-1.8900086352901728 L29.34711096258588,-1.9420881491817832 L29.390601316976156,-1.9956583509865315 L29.43222933692048,-2.0506466407157204 L29.471938606843104,-2.1069784965441896 L29.509675311517466,-2.1645775758045875 L29.545388308998216,-2.223365818449306 L29.579029199930382,-2.2832635528398644 L29.610552393141642,-2.344189603720372 L29.63991516742891,-2.406061402228731 L29.667077729455418,-2.468795097796512 L29.692003267679862,-2.5323056717858226 L29.71465800224456,-2.596507052709186 L29.735011230754925,-2.661312232876276 L29.753035369888337,-2.7266333863094214 L29.768705992775875,-2.792381987768074 L29.782001862106377,-2.858468932720949 L29.79290495890791,-2.924804658103231 L29.80140050696762,-2.991299263695194 L29.807476992856913,-3.0578626339577557 L29.81112618153481,-3.124404560159835 L29.812343127508342,-3.1908348626319833 " />
			<path d="M39.39060597971986,-3.9844103725093873 L39.38844271026664,-4.072654904618522 L39.38195811341256,-4.160328386749439 L39.371167811119435,-4.247219605804399 L39.3560977981706,-4.333119233225924 L39.33678437954723,-4.417820329287637 L39.313274082966444,-4.501118841630188 L39.28562354679197,-4.582814096841252 L39.25389938358734,-4.66270928389537 L39.21817801964043,-4.740611928288934 L39.178545510845815,-4.816334355728136 L39.13509733538857,-4.889694144252774 L39.087938163728985,-4.960514563706732 L39.037181606442246,-5.02862500149641 L38.982949940520605,-5.093861373611403 L38.925373814797396,-5.156066519917253 L38.86459193520258,-5.2150905827679725 " />
			<path d="M38.86459193520257,-5.215090582767983 L38.80075073060792,-5.27079136802629 L38.73400400006716,-5.323034687621671 L38.66451254230047,-5.37169468282125 L38.59244376831636,-5.416654127434476 L38.51797129810382,-5.4578047102212945 L38.441274542366614,-5.495047295823406 L38.362538270307155,-5.528292163590033 L38.28195216450133,-5.557459223722814 L38.19971036393652,-5.58247821021916 L38.11601099631382,-5.603288850149196 L38.031055700741035,-5.619841008858534 L37.9450491419664,-5.632094810747045 L37.858198517323295,-5.640020735332674 L37.770713057573694,-5.643599688368864 L37.682803522852964,-5.6428230478442725 L37.5946816949302,-5.637692684753948 L37.50655986700744,-5.6282209585919425 L37.41865033228671,-5.614430687576206 L37.33116487253711,-5.5963550936774995 L37.244314247894,-5.574037722584761 L37.15830768911937,-5.547532338799722 L37.073352393546585,-5.51690279611352 L36.989653025923886,-5.482222883777316 L36.90741122535908,-5.443576148737531 L36.82682511955325,-5.401055694363928 L36.74808884749379,-5.3547639561554465 L36.67139209175659,-5.3048124549641065 L36.596919621544046,-5.251321528331514 L36.52485084755993,-5.194420040585179 L36.455359389793244,-5.134245072393063 L36.38861265925248,-5.070941590524247 L36.324771454657835,-5.004662098611281 L36.263989575063,-4.935566269755583 L36.2064134493398,-4.863820561860946 L36.15218178341816,-4.7895978166218685 L36.10142522613142,-4.713076843132778 L36.05426605447183,-4.634441987121254 L36.01081787901459,-4.553882686843029 L35.97118537021997,-4.471593016708635 L35.935464006273065,-4.387771219741148 L35.903739843068436,-4.302619229991386 L35.87608930689396,-4.21634218606109 L35.85257901031317,-4.129147936906064 L35.8332655916898,-4.041246541109838 L35.81819557874097,-3.9528497608341358 L35.807405276447845,-3.864170551665285 L35.800920679593766,-3.7754225495855565 L35.798757410140546,-3.686819556305368 L35.800920679593766,-3.5985750241962347 L35.807405276447845,-3.510901542065316 L35.81819557874097,-3.4240103230103562 L35.8332655916898,-3.3381106955888313 L35.85257901031317,-3.2534095995271177 L35.87608930689396,-3.170111087184568 L35.903739843068436,-3.088415831973503 L35.935464006273065,-3.0085206449193844 L35.97118537021997,-2.9306180005258193 L36.01081787901459,-2.8548955730866172 L36.05426605447183,-2.78153578456198 L36.10142522613142,-2.710715365108023 L36.15218178341816,-2.6426049273183456 L36.2064134493398,-2.5773685552033534 L36.26398957506301,-2.5151634088975023 L36.32477145465783,-2.4561393460467773 " />
			<path d="M36.324771454657835,-2.456139346046772 L36.372373834737274,-2.4140447214881693 L36.42163272410441,-2.3738766527402593 L36.47248136559406,-2.335689576807919 L36.52485084755993,-2.2995352459935057 L36.57867019726588,-2.265462657760535 L36.6338664770703,-2.2335179883308083 L36.69036488327345,-2.203744530104978 L36.74808884749379,-2.176182632991349 L36.80696014043576,-2.150869649722436 L36.86689897790857,-2.127839885233397 L36.927824128952146,-2.1071245501709193 L36.989653025923886,-2.0887517185955953 L37.05230187639685,-2.072746289935087 L37.11568577671782,-2.0591299552396554 L37.17971882707138,-2.0479211677857796 L37.244314247894,-2.0391351180677098 L37.30938449748032,-2.0327837132108386 L37.37484139062243,-2.0288755608347993 L37.44059621812114,-2.027415957388154 L37.50655986700744,-2.028406880970483 L37.57264294131115,-2.031846988651605 L37.63875588321307,-2.037731618291554 L37.70480909441652,-2.046052794858859 L37.770713057573694,-2.056799241238549 L37.83637845760234,-2.06995639351525 L37.90171630272833,-2.08550642071065 L37.966638045090015,-2.1034282489485903 L38.031055700741035,-2.123697590015033 L38.09488196888889,-2.1462869742741963 L38.15803035020765,-2.171165787896253 L38.22041526406452,-2.1983003143461355 L38.28195216450133,-2.227653780077224 L38.342557654813824,-2.2591864043679877 L38.40214960057348,-2.292855453234049 L38.46064724093858,-2.3286152973425924 L38.51797129810382,-2.3664174738506474 L38.574044084739995,-2.406210752083421 L38.62878960927832,-2.447941202963693 L38.682133678896506,-2.4915522720981595 L38.73400400006716,-2.5369848564216912 L38.784330276532216,-2.5841773842956313 L38.83304430457059,-2.6330658989515774 L38.88008006542996,-2.6835841451675613 L38.925373814797396,-2.7356636590591714 L38.968864169187675,-2.78923386086392 L39.010492189131995,-2.844222150593109 L39.05020145905462,-2.900554006421578 L39.087938163728985,-2.958153085681976 L39.123651161209736,-3.0169413283266944 L39.1572920521419,-3.0768390627172533 L39.18881524535316,-3.1377651135977604 L39.21817801964043,-3.1996369121061194 L39.24534058166694,-3.2623706076739003 L39.27026611989138,-3.325881181663211 L39.29292085445608,-3.3900825625865743 L39.313274082966444,-3.4548877427536646 L39.33129822209985,-3.52020889618681 L39.346968844987394,-3.5859574976454622 L39.3602647143179,-3.6520444425983376 L39.371167811119435,-3.7183801679806194 L39.37966335917914,-3.7848747735725823 L39.38573984506843,-3.8514381438351446 L39.38938903374633,-3.917980070037224 L39.39060597971986,-3.9844103725093714 " />
			<path d="M7.723592275283811e-17,4.805540587590854 L-0.7183697139158636,4.14422766269303 " />
			<path d="M38.313051408846064,1.6312385480813 L37.5946816949302,0.9699256231834761 " />
			<path d="M-1.3893211737624704e-16,-1.8020777203465703 L-0.7183697139158638,-2.4633906452443943 " />
			<path d="M19.156525704423032,-3.3892287401013474 L18.43815599050717,-4.050541664999171 " />
			<path d="M-4.104797021308846,3.017288724063792 L-3.386427307392982,3.6786016489616156 " />
			<path d="M40.98110900232318,-7.514216613368993 L41.69947871623904,-6.852903688471169 " />

       </g>
    </g>
    
</svg>
