<?xml version="1.0" encoding="UTF-8" standalone="no"?>
<svg
   xmlns:svg="http://www.w3.org/2000/svg"
   xmlns="http://www.w3.org/2000/svg"
   width="800.0"
   height="240.0"

>
    <g transform="scale(10.311413835961035, -10.311413835961035)   translate(5.992400696914828,-5.306793465043027)" stroke-width="0.09697991137864159"  fill="none">
       <!-- hidden lines -->
       <g  stroke="rgb(160,160,160)" fill="none" stroke-dasharray="0.09697991137864159,0.09697991137864159" >
			<path d="M6.938893903907227e-17,-4.805540587590854 L47.89131426105758,-8.773418136977796 " />
			<path d="M-3.3864273073929816,3.6786016489616156 L-3.5087775969369774,3.561363962464024 L-3.6263726829294956,3.439299805751507 L-3.7390531968853313,3.3125746039316635 L-3.846666430698786,3.181360098904087 L-3.9490665435983994,3.0458341166104552 L-4.046114759794863,2.9061803260393324 L-4.137679556554239,2.7625879903122894 L-4.22363684244163,2.6152517101886943 L-4.303870125493715,2.4643711603367606 L-4.378270671092245,2.3101508187282853 L-4.446737649324557,2.1527996895237944 L-4.509178271631372,1.9925310198236683 L-4.565507916556713,1.8295620106690935 L-4.615650244429511,1.6641135226845198 L-4.659537300821482,1.496409776760532 L-4.697109608641058,1.3266780501827897 L-4.72831624873858,1.1551483686188417 L-4.753114928913498,0.9820531943802571 L-4.77147204123006,0.8076271113825264 L-4.783362707563827,0.6321065072297167 L-4.788770813317276,0.4557292528546997 L-4.787689029258793,0.27873438014913443 L-4.7801188214554795,0.10136175802007719 L-4.766070449286287,-0.07614823268775295 L-4.745562951538197,-0.25355502496350457 L-4.718624120604268,-0.4306181916540228 L-4.685290464818525,-0.6070977712981378 L-4.645607158978741,-0.7827545933298319 L-4.599627983124162,-0.9573506022095641 L-4.547415249651134,-1.1306491800444773 L-4.489039718865431,-1.3024154672602533 L-4.4245805030857,-1.4724166808900547 L-4.354124959428009,-1.640422430049171 L-4.2777685714167974,-1.8062050281678503 L-4.195614819582653,-1.969539801559157 L-4.107775041222312,-2.1302053939036703 L-4.014368279510921,-2.2879840662384034 L-3.9155211221710537,-2.4426619920433508 L-3.811367529917134,-2.5940295470257735 L-3.702048654907743,-2.7418815932095137 L-3.587712649451861,-2.8860177569442946 L-3.468514465228295,-3.0262427004582713 L-3.344615643290385,-3.162366386585797 L-3.2161840951405942,-3.2942043363116498 L-3.0833938751716574,-3.421577878782682 L-2.946424944782711,-3.5443143934480634 L-2.805462928490053,-3.662247543999974 L-2.6606988623630756,-3.7752175037976974 L-2.512328935126303,-3.8830711724696103 L-2.3605542222783757,-3.9856623833995184 L-2.2055804135883434,-4.082852101816174 L-2.0476175343385474,-4.174508613217468 L-1.8868796606918845,-4.260507701873994 L-1.7235846295691908,-4.340732819170029 L-1.5579537434299386,-4.415075241553812 L-1.3902114703563129,-4.4834342178830475 L-1.220585139847154,-4.545717105965965 L-1.0493046347340111,-4.601839498112871 L-0.8766020796368421,-4.651725335528051 L-0.7027115263815813,-4.695307011386992 L-0.5278686368058794,-4.73252546245924 L-0.35231036338292254,-4.763330249152707 L-0.17627462809614247,-4.787679623870961 L-2.1760371282653068e-14,-4.805540587590853 " />
			<path d="M47.89131426105758,-8.773418136977797 L48.0088454298119,-8.781708456967227 L48.12630580218494,-8.78709910521866 L48.2436246244405,-8.789586834607164 L48.3607312281069,-8.789170146617572 L48.47755507254497,-8.785849292247152 L48.594025787439165,-8.779626271854399 L48.710073215185936,-8.770504833954105 L48.82562745315411,-8.758490472959389 L48.94061889579159,-8.74359042587207 L49.05497827655313,-8.72581366792336 L49.16863670962394,-8.705170907167536 L49.28152573141389,-8.681674578031792 L49.39357734179746,-8.655338833826217 L49.50472404507442,-8.626179538218363 L49.61489889062677,-8.594214255677567 L49.72403551324725,-8.559462240894772 L49.83206817311527,-8.521944427184224 L49.93893179539613,-8.48168341387402 L50.04456200943965,-8.43870345269312 L50.14889518755467,-8.39303043316302 L50.251868483335954,-8.344691867002854 L50.35341986952055,-8.293716871557386 L50.45348817535066,-8.240136152257794 L50.55201312342066,-8.183981984125872 L50.6489353659859,-8.12528819233276 L50.74419652071163,-8.064090131823935 L50.837739205840286,-8.000424666022706 L50.92950707475613,-7.93433014462506 L51.01944484992635,-7.86584638049926 L51.10749835619817,-7.795014625704042 L51.19361455343195,-7.721877546639922 L51.277741568450544,-7.6464791983485725 " />
			<path d="M1.8677612561812453,-0.15474722442609112 L1.866495632368773,-0.0856597098550399 L1.862700476143758,-0.016456106604878507 L1.8563809308188957,0.052769798468186524 L1.8475455608367994,0.1219241882838279 L1.8362063401632038,0.19091334268140092 L1.8223786360594785,0.2596437654323911 L1.8060811882564405,0.3280223109493897 L1.787336083557693,0.3959563105198607 L1.76616872590691,0.46335369789363445 L1.7426078019596276,0.5301231340539326 L1.7166852422062044,0.5961741310028157 L1.6884361776986385,0.6614171743933075 L1.6578988924398788,0.725763844842001 L1.6251147715001668,0.7891269377577286 L1.5901282449307166,0.8514205815239098 L1.5529867275507343,0.9125603538744171 L1.5137405546893983,0.9724633963052309 L1.472442913969867,1.0310485263668387 L1.429149773227773,1.0882363476851953 L1.3839198046618857,1.1439493575621336 L1.336814305319744,1.1981120520094082 L1.2878971140260034,1.2506510280740315 L1.2372345248660943,1.3014950833162156 L1.1848951973424358,1.3505753123051134 L1.1309500633249574,1.3978252000015863 L1.0754722309220455,1.4431807119014313 L1.0185368854021837,1.486580380816914 L0.9602211873005562,1.527965390178999 L0.900604167848712,1.567279653747376 L0.8397666218690072,1.6044698916202615 L0.7777909982789664,1.6394857024409648 L0.7147612883539702,1.6722796317033595 L0.6507629118996947,1.7028072360636917 L0.5858826014885529,1.7310271435715692 L0.5202082849170382,1.7569011097385079 L0.4538289660432656,1.7803940693680382 L0.3868346041662045,1.8014741840771382 L0.319315992110058,1.8201128854445963 L0.25136463317903057,1.8362849137278123 L0.1830726171492334,1.8499683520955816 L0.11453249546577282,1.8611446563304592 L0.045837155814186015,1.8697986799604567 L-0.022920303763813044,1.8759186947860036 L-0.09164670103967143,1.8794964067743702 L-0.1602488958814271,1.8805269672999925 L-0.22863391648008302,1.8790089797154814 L-0.2967090853478729,1.8749445012444006 L-0.3643821449176474,1.8683390401932543 L-0.431561382573169,1.8592015484864615 L-0.4981557549408795,1.8475444095344316 L-0.5640750112746895,1.8333834214511828 L-0.6292298157665674,1.816737775644254 L-0.6935318686171789,1.7976300308059168 L-0.7568940257024985,1.77608608234094 L-0.8192304166742137,1.7521351272723387 L-0.8804565613338651,1.7258096246726702 L-0.9404894841230189,1.6971452516744958 L-0.9992478265743003,1.6661808551196324 L-1.056651957570892,1.632958398912717 L-1.1126240812650818,1.5975229071504267 L-1.1670883425095941,1.5599224031034364 L-1.2199709296588213,1.5202078441338038 L-1.2712001746006436,1.4784330526359772 L-1.320706649883251,1.4346546430950413 " />
			<path d="M-1.320706649883263,1.4346546430950302 L-1.3653858429465662,1.3919533782304978 L-1.4084467096018778,1.3476022977315643 L-1.4498382118675028,1.3016539688085642 L-1.4895112903793577,1.2541628518138466 L-1.5274189225386856,1.2051852356925286 L-1.5635161782456866,1.154779171265907 L-1.597760273153015,1.1030044024266006 L-1.6301106193760124,1.0499222953269791 " />
			<path d="M0.9117409054601495,-1.7112352202248016 L0.9673128861054958,-1.6833782648628663 L1.0217383571422491,-1.6535260819139896 L1.0749528106677535,-1.6217140537400518 L1.1268931741403714,-1.5879798856135607 L1.177497885136353,-1.5523635610273971 L1.2267069643168194,-1.5149072943042958 L1.2744620865184015,-1.4756554805622357 L1.320706649883257,-1.4346546430950358 " />
			<path d="M1.3207066498832627,-1.4346546430950304 L1.3839198046618855,-1.3732696177302706 L1.4437989754140195,-1.3085762655721855 L1.5001999079725266,-1.2407304385725935 L1.552986727550735,-1.1698955832713291 L1.6020322660767015,-1.0962423470392135 L1.6472183685522352,-1.019948166973591 L1.688436177698638,-0.9411968424368211 L1.7255863962034226,-0.8601780922675133 L1.7585795259362351,-0.7770870977312303 L1.787336083557693,-0.6921240323117225 L1.8117867920017088,-0.6054935794754706 L1.8318727473700123,-0.5174044395712886 L1.8475455608367994,-0.4280688270529026 L1.8587674752216516,-0.33770195923574453 L1.8655114559498926,-0.2465215378195893 L1.8677612561812453,-0.15474722442609945 " />
			<path d="M9.578262852211516,1.0805853192830448 L9.486616151171845,1.0859208968969818 L9.395190235062282,1.0867286030425571 L9.304205356922699,1.0830064918849196 L9.21388070729387,1.0747635303158658 L9.124433886168251,1.0620195763518145 L9.036080378772555,1.044805331294103 L8.949033036444948,1.0231622657668655 L8.863501563857547,0.9971425198106658 L8.779692013819485,0.9668087772725724 L8.697806290877653,0.9322341147952822 L8.618041664910962,0.8935018257690859 L8.540590295889917,0.8507052196707938 L8.465638770946434,0.8039473972730382 L8.39336765486908,0.7533410022654772 L8.323951055106685,0.6990079498862802 L8.257556202328265,0.6410791332176529 " />
			<path d="M8.257556202328253,0.6410791332176418 L8.21287700926495,0.5983778683531094 L8.169816142609639,0.5540267878541758 L8.128424640344013,0.5080784589311758 L8.088751561832158,0.4605873419364581 L8.05084392967283,0.4116097258151401 L8.01474667396583,0.36120366138851856 L7.980502579058501,0.30942889254921213 L7.948152232835504,0.25634678544959066 " />
			<path d="M39.224792314306214,-4.885537259734355 L39.28036429495156,-4.85768030437242 L39.33478976598831,-4.8278281214235435 L39.38800421951382,-4.796016093249605 L39.439944582986435,-4.762281925123115 L39.49054929398242,-4.7266656005369505 L39.53975837316288,-4.689209333813849 L39.58751349536447,-4.64995752007179 L39.63375805872932,-4.60895668260459 " />
			<path d="M39.63375805872933,-4.6089566826045845 L39.681474671651486,-4.563233984870523 L39.72733675518857,-4.515628963752642 L39.77128215563134,-4.466206135042903 L39.813251316818594,-4.415032478082148 L39.85318736084944,-4.362177344987632 L39.891036165166064,-4.3077123666648935 L39.92674643590222,-4.251711355731347 L39.9602697773983,-4.194250206483145 L39.99156075778861,-4.135406792040891 L40.02057697057204,-4.075260858813586 L40.04727909208264,-4.013893918423834 L40.0716309347823,-3.9513891372407848 L40.093599496303185,-3.887831223670501 L40.11315500417357,-3.8233063133565164 L40.13027095616644,-3.7579018524461616 L40.14492415621608,-3.6917064790808425 L40.15709474585411,-3.6248099032709034 L40.16676623112233,-3.557302785317855 L40.17392550492579,-3.489276612948739 L40.17856286479596,-3.420823577329144 L40.1806720260398,-3.3520364481228877 L40.180250130256994,-3.2830084477677164 L40.1772977492137,-3.213833125137384 L40.17181888406772,-3.144604228761331 L40.16382095994596,-3.075415579773789 L40.15331481588173,-3.006360944764486 L40.14031469012529,-2.937533908703281 L40.124838200847776,-2.86902774811092 L40.106906322264486,-2.8009353046478234 L40.08654335621001,-2.7333488592922084 L40.06377689920358,-2.666360007278057 L40.03863780504949,-2.6000595339624337 L40.01116014302299,-2.5345372917903775 L39.98138115169861,-2.4698820785240936 L39.9493411884833,-2.4061815169014853 L39.91508367492277,-2.343521935887124 L39.878655037855324,-2.2819882536765776 L39.840104646492776,-2.221663862612648 L39.799484745513745,-2.1626305161695023 L39.75685038426008,-2.104968218157844 L39.71225934213229,-2.0487551143012803 L39.6657720502851,-1.9940673863308294 L39.617451509729314,-1.940979148741094 L39.5673632059509,-1.8895623483480106 L39.51557502016301,-1.8398866667843077 L39.46215713731132,-1.79201942606481 L39.40718195095719,-1.7460254973495655 L39.35072396516767,-1.7019672130284527 L39.292859693545324,-1.6599042822464067 L39.23366755553463,-1.6198937099837418 L39.173227770145516,-1.581989719801246 L39.111622247238095,-1.546243680354742 L39.0489344765159,-1.512704035778697 L38.98524941437805,-1.481416240033243 L38.92065336878374,-1.4524226953035675 L38.85523388228503,-1.4257626945351656 L38.789079613386455,-1.4014723681828276 L38.72228021639233,-1.3795846352455345 L38.65492621990443,-1.3601291586536148 L38.58710890413488,-1.343132305068627 L38.51892017720036,-1.3286171091504504 L38.45045245056541,-1.316603242339998 L38.38179851380356,-1.307106986199879 L38.31305140884608,-1.3001412103491221 " />
			<path d="M38.313051408846064,-1.3001412103491208 L9.578262852211516,1.0805853192830446 " />
			<path d="M49.75907551723883,-4.122624773813033 L49.757809893426355,-4.053537259241982 L49.75401473720134,-3.9843336559918208 L49.747695191876474,-3.9151077509187555 L49.73885982189438,-3.8459533611031143 L49.72752060122078,-3.776964206705541 L49.713692897117056,-3.708233783954551 L49.69739544931402,-3.6398552384375527 L49.67865034461527,-3.5719212388670813 L49.65748298696449,-3.5045238514933077 L49.63392206301721,-3.4377544153330097 L49.607999503263784,-3.3717034183841266 L49.57975043875622,-3.3064603749936348 L49.54921315349746,-3.2421137045449413 L49.516429032557745,-3.178750611629214 L49.4814425059883,-3.1164569678630327 L49.44430098860831,-3.055317195512525 L49.40505481574698,-2.995414153081711 L49.363757175027445,-2.9368290230201035 L49.32046403428535,-2.879641201701747 L49.27523406571947,-2.823928191824809 L49.22812856637732,-2.7697654973775343 L49.17921137508358,-2.7172265213129108 L49.12854878592368,-2.6663824660707265 L49.076209458400015,-2.617302237081829 L49.02226432438254,-2.5700523493853558 L48.966786491979626,-2.5246968374855108 L48.909851146459765,-2.4812971685700282 L48.851535448358135,-2.4399121592079434 L48.79191842890629,-2.4005978956395664 L48.73108088292659,-2.3634076577666807 L48.66910525933655,-2.3283918469459772 L48.60607554941155,-2.295597917683583 L48.54207717295728,-2.2650703133232506 L48.47719686254613,-2.236850405815373 L48.41152254597462,-2.2109764396484346 L48.34514322710085,-2.187483480018904 L48.278148865223784,-2.166403365309804 L48.210630253167636,-2.147764663942346 L48.14267889423661,-2.13159263565913 L48.074386878206816,-2.1179091972913606 L48.005846756523354,-2.106732893056483 L47.937151416871764,-2.0980788694264856 L47.86839395729377,-2.0919588546009384 L47.79966756001791,-2.088381142612572 L47.73106536517615,-2.08735058208695 L47.662680344577495,-2.088868569671461 L47.59460517570971,-2.092933048142542 L47.52693211613993,-2.099538509193688 L47.45975287848441,-2.1086760009004806 L47.3931585061167,-2.1203331398525105 L47.32723924978289,-2.1344941279357594 L47.262084445291016,-2.1511397737426883 L47.1977823924404,-2.1702475185810255 L47.13442023535508,-2.191791467046002 L47.072083844383364,-2.2157424221146034 L47.010857699723715,-2.242067924714272 L46.95082477693456,-2.2707322977124464 L46.89206643448328,-2.30169669426731 L46.83466230348669,-2.3349191504742253 L46.7786901797925,-2.3703546422365154 L46.72422591854799,-2.4079551462835056 L46.67134333139876,-2.4476697052531384 L46.62011408645694,-2.489444496750965 L46.57060761117433,-2.533222906291901 " />
			<path d="M46.57060761117432,-2.533222906291912 L46.525928418111015,-2.5759241711564456 L46.4828675514557,-2.6202752516553804 L46.44147604919007,-2.6662235805783814 L46.40180297067822,-2.7137146975731006 L46.36389533851889,-2.76269231369442 L46.32779808281189,-2.813098378121043 L46.29355398790456,-2.864873146960351 L46.26120364168156,-2.9179552540599745 " />
			<path d="M48.80305516651774,-5.67911276961174 L48.858627147163084,-5.651255814249804 L48.913052618199835,-5.621403631300928 L48.96626707172534,-5.5895916031269905 L49.01820743519796,-5.555857435000501 L49.068812146193935,-5.520241110414338 L49.1180212253744,-5.4827848436912365 L49.165776347575985,-5.443533029949178 L49.212020910940836,-5.402532192481978 " />
			<path d="M49.21202091094084,-5.4025321924819725 L49.27523406571947,-5.341147167117213 L49.3351132364716,-5.276453814959128 L49.39151416903011,-5.208607987959535 L49.44430098860832,-5.137773132658271 L49.49334652713428,-5.064119896426156 L49.53853262960982,-4.9878257163605335 L49.57975043875622,-4.909074391823763 L49.616900657261006,-4.828055641654456 L49.649893786993815,-4.744964647118173 L49.67865034461527,-4.660001581698665 L49.70310105305929,-4.573371128862413 L49.723187008427594,-4.4852819889582305 L49.73885982189438,-4.395946376439845 L49.750081736279235,-4.305579508622687 L49.75682571700747,-4.214399087206532 L49.75907551723883,-4.122624773813042 " />
			<path d="M0.6023369359673995,-2.095967567992854 L1.3207066498832631,-1.43465464309503 " />
			<path d="M-2.039076363799127,0.773341718197206 L-1.3207066498832631,1.43465464309503 " />
			<path d="M7.53918648841239,-0.020233791680182578 L8.257556202328253,0.6410791332176414 " />
			<path d="M38.915388344813465,-5.270269607502407 L39.63375805872933,-4.608956682604584 " />
			<path d="M48.49365119702498,-6.063845117379796 L49.21202091094084,-5.4025321924819725 " />
			<path d="M45.85223789725845,-3.194535831189736 L46.57060761117431,-2.533222906291912 " />

       </g>

       <!-- solid lines -->
       <g  stroke="rgb(0,0,0)" fill="none">
			<path d="M-0.7183697139158635,-5.466853512488678 L47.17294454714172,-9.43473106187562 " />
			<path d="M1.3322676295501878e-15,4.805540587590855 L-0.11753116875432035,4.813830907580284 L-0.23499154112736242,4.819221555831719 L-0.35231036338292476,4.821709285220221 L-0.46941696704931823,4.821292597230631 L-0.586240811487392,4.817971742860209 L-0.7027115263815817,4.811748722467456 L-0.8187589541283549,4.802627284567163 L-0.9343131920965317,4.790612923572447 L-1.049304634734009,4.775712876485127 L-1.1636640154955502,4.757936118536418 L-1.277322448566358,4.737293357780594 L-1.3902114703563107,4.71379702864485 L-1.5022630807398771,4.687461284439275 L-1.6134097840168402,4.658301988831421 L-1.7235846295691886,4.626336706290625 L-1.832721252189665,4.5915846915078316 L-1.9407539120576847,4.5540668777972835 L-2.047617534338543,4.513805864487079 L-2.153247748382067,4.470825903306181 L-2.257580926497086,4.425152883776079 L-2.360554222278371,4.376814317615915 L-2.462105608462962,4.325839322170447 L-2.562173914293078,4.272258602870853 L-2.660698862363073,4.216104434738929 L-2.7576211049283197,4.157410642945818 L-2.8528822596540557,4.0962125824369915 L-2.946424944782711,4.032547116635761 L-3.0381928136985548,3.9664525952381173 L-3.1281305888687725,3.8979688311123177 L-3.216184095140593,3.8271370763170993 L-3.3023002923743694,3.75399999725298 L-3.3864273073929505,3.678601648961644 " />
			<path d="M-0.7183697139158622,4.144227662693031 L-0.8359008826701839,4.15251798268246 L-0.953361255043226,4.157908630933895 L-1.0706800772987883,4.160396360322397 L-1.1877866809651818,4.159979672332807 L-1.3046105254032556,4.156658817962385 L-1.4210812402974453,4.150435797569632 L-1.5371286680442184,4.141314359669339 L-1.6526829060123953,4.1292999986746235 L-1.7676743486498725,4.114399951587303 L-1.8820337294114138,4.096623193638594 L-1.9956921624822215,4.07598043288277 L-2.1085811842721744,4.052484103747026 L-2.2206327946557405,4.026148359541451 L-2.331779497932704,3.996989063933597 L-2.441954343485052,3.9650237813928015 L-2.5510909661055283,3.9302717666100078 L-2.6591236259735482,3.8927539528994597 L-2.7659872482544063,3.852492939589255 L-2.8716174622979302,3.809512978408357 L-2.9759506404129494,3.763839958878255 L-3.0789239361942347,3.7155013927180915 L-3.1804753223788254,3.664526397272623 L-3.2805436282089415,3.610945677973029 L-3.3790685762789368,3.554791509841105 L-3.475990818844183,3.496097718047994 L-3.571251973569919,3.4348996575391677 L-3.6647946586985745,3.371234191737937 L-3.7565625276144186,3.3051396703402935 L-3.8465003027846363,3.236655906214494 L-3.9345538090564567,3.1658241514192755 L-4.020670006290233,3.0926870723551563 L-4.104797021308814,3.01728872406382 " />
			<path d="M-4.104797021308845,3.017288724063792 L-4.227147310852841,2.9000510375662003 L-4.344742396845359,2.777986880853683 L-4.457422910801195,2.6512616790338397 L-4.565036144614649,2.520047174006263 L-4.667436257514263,2.3845211917126314 L-4.764484473710726,2.2448674011415086 L-4.856049270470102,2.1012750654144656 L-4.9420065563574935,1.9539387852908705 L-5.022239839409578,1.8030582354389368 L-5.096640385008109,1.6488378938304615 L-5.165107363240421,1.4914867646259706 L-5.227547985547235,1.3312180949258443 L-5.283877630472577,1.1682490857712695 L-5.334019958345374,1.0028005977866958 L-5.377907014737345,0.8350968518627081 L-5.415479322556921,0.6653651252849658 L-5.446685962654444,0.49383544372101784 L-5.4714846428293615,0.32074026948243317 L-5.489841755145924,0.1463141864847025 L-5.501732421479691,-0.029206417668107165 L-5.5071405272331395,-0.20558367204312422 L-5.506058743174656,-0.38257854474868946 L-5.498488535371343,-0.5599511668777467 L-5.484440163202151,-0.7374611575855768 L-5.4639326654540605,-0.9148679498613285 L-5.436993834520131,-1.0919311165518466 L-5.4036601787343885,-1.2684106961959616 L-5.363976872894605,-1.4440675182276559 L-5.317997697040026,-1.6186635271073881 L-5.265784963566998,-1.7919621049423013 L-5.2074094327812945,-1.9637283921580773 L-5.142950217001563,-2.1337296057878787 L-5.072494673343872,-2.3017353549469948 L-4.996138285332661,-2.4675179530656743 L-4.913984533498517,-2.6308527264569808 L-4.826144755138175,-2.791518318801494 L-4.732737993426785,-2.9492969911362272 L-4.633890836086917,-3.1039749169411746 L-4.529737243832997,-3.2553424719235973 L-4.420418368823607,-3.4031945181073375 L-4.306082363367724,-3.5473306818421184 L-4.186884179144158,-3.687555625356095 L-4.062985357206249,-3.823679311483621 L-3.9345538090564576,-3.9555172612094736 L-3.801763589087521,-4.082890803680506 L-3.6647946586985745,-4.205627318345887 L-3.5238326424059165,-4.323560468897798 L-3.3790685762789394,-4.436530428695521 L-3.230698649042167,-4.544384097367434 L-3.078923936194239,-4.646975308297343 L-2.923950127504207,-4.744165026713998 L-2.765987248254411,-4.835821538115292 L-2.605249374607748,-4.921820626771818 L-2.4419543434850546,-5.0020457440678525 L-2.276323457345802,-5.076388166451636 L-2.1085811842721762,-5.144747142780871 L-1.9389548537630177,-5.2070300308637885 L-1.7676743486498747,-5.263152423010695 L-1.5949717935527057,-5.313038260425874 L-1.4210812402974449,-5.356619936284816 L-1.246238350721743,-5.3938383873570634 L-1.0706800772987861,-5.424643174050531 L-0.894644342012006,-5.448992548768785 L-0.7183697139158853,-5.466853512488677 " />
			<path d="M51.27774156845056,-7.646479198348558 L51.40009185799455,-7.529241511850968 L51.51768694398707,-7.407177355138451 L51.63036745794291,-7.280452153318606 L51.73798069175636,-7.149237648291029 L51.84038080465598,-7.013711665997399 L51.93742902085244,-6.874057875426274 L52.02899381761182,-6.730465539699233 L52.11495110349921,-6.583129259575637 L52.1951843865513,-6.432248709723705 L52.269584932149826,-6.27802836811523 L52.338051910382134,-6.120677238910737 L52.40049253268895,-5.960408569210611 L52.45682217761429,-5.797439560056038 L52.50696450548709,-5.631991072071463 L52.550851561879064,-5.464287326147476 L52.58842386969864,-5.294555599569733 L52.61963050979616,-5.123025918005787 L52.64442918997108,-4.949930743767202 L52.66278630228764,-4.775504660769469 L52.674676968621405,-4.59998405661666 L52.68008507437486,-4.423606802241644 L52.67900329031637,-4.246611929536077 L52.67143308251306,-4.06923930740702 L52.65738471034387,-3.8917293166991915 L52.63687721259578,-3.7143225244234426 L52.60993838166185,-3.537259357732923 L52.57660472587611,-3.360779778088807 L52.53692142003632,-3.1851229560571115 L52.49094224418174,-3.010526947177377 L52.43872951070872,-2.837228369342467 L52.380353979923015,-2.6654620821266937 L52.31589476414328,-2.49546086849689 L52.24543922048559,-2.3274551193377717 L52.16908283247438,-2.161672521219095 L52.08692908064024,-1.998337747827792 L51.9990893022799,-1.837672155483276 L51.905682540568506,-1.679893483148541 L51.80683538322864,-1.5252155573435937 L51.702681790974715,-1.3738480023611692 L51.59336291596532,-1.2259959561774307 L51.47902691050945,-1.0818597924426516 L51.359828726285876,-0.9416348489286741 L51.23592990434797,-0.8055111628011473 L51.10749835619818,-0.6736732130752929 L50.97470813622924,-0.54629967060426 L50.83773920584029,-0.4235631559388806 L50.69677718954764,-0.3056300053869716 L50.55201312342066,-0.19266004558924665 L50.403643196183886,-0.08480637691733417 L50.251868483335954,0.017784834012576134 L50.096894674645924,0.11497455242923182 L49.93893179539613,0.2066310638305242 L49.77819392174947,0.29263015248705004 L49.614898890626776,0.3728552697830856 L49.44926800448752,0.44719769216686833 L49.28152573141389,0.5155566684961044 L49.11189940090473,0.5778395565790224 L48.940618895791594,0.6339619487259278 L48.76791634069443,0.6838477861411065 L48.594025787439165,0.7274294620000483 L48.41918289786346,0.7646479130722974 L48.24362462444051,0.7954526997657649 L48.06758888915372,0.8198020744840187 L47.89131426105762,0.837663038203909 " />
			<path d="M47.17294454714172,-9.43473106187562 L47.29047571589604,-9.443021381865051 L47.407936088269075,-9.448412030116485 L47.52525491052464,-9.450899759504988 L47.64236151419104,-9.450483071515396 L47.75918535862911,-9.447162217144975 L47.8756560735233,-9.440939196752222 L47.991703501270074,-9.43181775885193 L48.10725773923825,-9.419803397857214 L48.222249181875725,-9.404903350769892 L48.33660856263727,-9.387126592821183 L48.45026699570808,-9.36648383206536 L48.56315601749803,-9.342987502929617 L48.6752076278816,-9.316651758724042 L48.786354331158556,-9.287492463116187 L48.89652917671091,-9.255527180575392 L49.00566579933139,-9.220775165792597 L49.113698459199405,-9.183257352082048 L49.22056208148027,-9.142996338771844 L49.32619229552379,-9.100016377590945 L49.43052547363881,-9.054343358060844 L49.53349876942009,-9.00600479190068 L49.63505015560469,-8.95502979645521 L49.735118461434794,-8.901449077155618 L49.833643409504795,-8.845294909023696 L49.93056565207004,-8.786601117230585 L50.02582680679577,-8.72540305672176 L50.119369491924424,-8.66173759092053 L50.21113736084027,-8.595643069522884 L50.30107513601049,-8.527159305397085 L50.38912864228231,-8.456327550601866 L50.47524483951609,-8.383190471537747 L50.55937185453468,-8.307792123246397 " />
			<path d="M50.559371854534696,-8.307792123246383 L50.68172214407869,-8.19055443674879 L50.79931723007121,-8.068490280036276 L50.91199774402705,-7.941765078216431 L51.0196109778405,-7.810550573188854 L51.122011090740116,-7.675024590895223 L51.21905930693658,-7.535370800324099 L51.31062410369596,-7.391778464597056 L51.396581389583346,-7.244442184473462 L51.476814672635435,-7.093561634621529 L51.55121521823396,-6.939341293013054 L51.61968219646627,-6.781990163808562 L51.68212281877309,-6.621721494108436 L51.73845246369843,-6.4587524849538624 L51.78859479157123,-6.2933039969692866 L51.8324818479632,-6.1256002510453 L51.870054155782775,-5.955868524467557 L51.9012607958803,-5.784338842903611 L51.926059476055215,-5.6112436686650256 L51.94441658837178,-5.436817585667294 L51.95630725470554,-5.261296981514484 L51.961715360458996,-5.084919727139468 L51.96063357640051,-4.907924854433901 L51.9530633685972,-4.730552232304845 L51.93901499642801,-4.553042241597016 L51.918507498679915,-4.375635449321267 L51.891568667745986,-4.198572282630748 L51.85823501196025,-4.022092702986631 L51.81855170612046,-3.8464358809549357 L51.772572530265876,-3.6718398720752017 L51.720359796792856,-3.498541294240291 L51.66198426600715,-3.3267750070245174 L51.59752505022742,-3.1567737933947138 L51.52706950656973,-2.988768044235596 L51.45071311855852,-2.8229854461169195 L51.36855936672438,-2.659650672725616 L51.280719588364036,-2.4989850803811002 L51.187312826652644,-2.3412064080463653 L51.088465669312775,-2.186528482241418 L50.98431207705885,-2.0351609272589934 L50.87499320204946,-1.887308881075255 L50.760657196593584,-1.7431727173404759 L50.641459012370014,-1.6029477738264983 L50.51756019043211,-1.4668240876989715 L50.389128642282316,-1.3349861379731172 L50.25633842231338,-1.2076125955020842 L50.11936949192443,-1.0848760808367048 L49.978407475631776,-0.9669429302847958 L49.833643409504795,-0.8539729704870709 L49.68527348226802,-0.7461193018151584 L49.53349876942009,-0.6435280908852481 L49.37852496073006,-0.5463383724685924 L49.22056208148027,-0.4546818610673 L49.05982420783361,-0.3686827724107742 L48.896529176710914,-0.28845765511473864 L48.73089829057166,-0.2141152327309559 L48.56315601749803,-0.14575625640171985 L48.39352968698887,-0.08347336831880181 L48.22224918187573,-0.027350976171896413 L48.049546626778564,0.0225348612432823 L47.8756560735233,0.0661165371022241 L47.700813183947595,0.10333498817447317 L47.525254910524644,0.1341397748679407 L47.349219175237856,0.15848914958619442 L47.17294454714176,0.17635011330608474 " />
			<path d="M47.89131426105758,0.8376630382039116 L0.0,4.805540587590855 " />
			<path d="M-1.6301106193760129,1.0499222953269782 L-1.665672494442421,0.9859241617142221 L-1.6985053088072202,0.9203106764080935 L-1.728555268736225,0.8531893414444627 L-1.7557731399621934,0.7846701293407953 L-1.7801143283509309,0.7148653029156722 L-1.8015389529649266,0.643889231355842 L-1.820011911404834,0.5718582028321755 L-1.8355029373217229,0.49889023397152854 L-1.8479866500058812,0.4251048764966785 L-1.8574425959709173,0.3506230213511399 L-1.8638552824650358,0.27556670062978006 L-1.8672142028545728,0.2000588876397601 L-1.8675138538382097,0.12422329541937727 L-1.8647537444636582,0.048184174044923145 L-1.8589383969320408,-0.027933892942347383 L-1.8500773391886587,-0.10400619265560351 L-1.8381850893122715,-0.17990808719374418 L-1.8232811317284785,-0.255515217849849 L-1.8053898852861685,-0.3307037088621917 L-1.7845406632493428,-0.4053503703739916 L-1.760767625269859,-0.4793329002693657 L-1.7341097214197905,-0.5525300845547965 L-1.70461062837509,-0.6248219959578049 L-1.6723186778551267,-0.6960901904174415 L-1.6372867774353304,-0.7662179011446619 L-1.5995723238626958,-0.835090229934641 L-1.559237109016161,-0.9025943354175676 L-1.5163472186659455,-0.9686196179394969 L-1.470972924197716,-1.0330579007703429 L-1.4231885674789821,-1.0958036073421185 L-1.37307243905636,-1.1567539342270372 L-1.3207066498832634,-1.2158090195720592 L-1.2661769967881917,-1.2728721067139253 L-1.2095728219040256,-1.3278497027066014 L-1.1509868662886495,-1.38065173150141 L-1.0905151179767278,-1.4311916815288612 L-1.0282566547115901,-1.4793867474403997 L-0.9643134816148953,-1.5251579657778258 L-0.8987903640600382,-1.5684303443481076 L-0.8317946560231237,-1.609132985091624 L-0.7634361241927352,-1.6471992002425173 L-0.6938267681266854,-1.682566621590846 L-0.623080636750401,-1.7151773026675161 L-0.5513136414975965,-1.744977813684574 L-0.478643366399389,-1.7719193290753037 L-0.4051888754330052,-1.795957707490706 L-0.33107051744572513,-1.8170535641212933 L-0.2564097289736792,-1.8351723352256994 L-0.18132883527855537,-1.850284334760391 L-0.10595084992821169,-1.8623648030176887 L-0.0303992732495576,-1.8713939471924104 L0.0452021100160811,-1.877356973810679 L0.12072943352358279,-1.8802441129677487 L0.19605895226834935,-1.880050634335155 L0.27106724533182547,-1.8767768549109483 L0.34563141809602504,-1.8704281385003196 L0.4196293035957628,-1.8610148869274683 L0.4929396626786883,-1.8485525229931126 L0.5654423826451789,-1.833061465205557 L0.6370186740426385,-1.8145670943267322 L0.7075512652917666,-1.7930997117880025 L0.7769245948259272,-1.768694490043886 L0.8450250004288063,-1.7413914149450216 L0.9117409054601421,-1.711235220224805 " />
			<path d="M9.578262852211516,-2.6677363390378215 L38.313051408846064,-5.048462868669986 " />
			<path d="M7.948152232835503,0.2563467854495898 L7.919376490896181,0.20507723318980042 L7.89235407553957,0.1527521749941324 L7.867113547564214,0.09942691478069343 L7.843681584438622,0.04515781361100135 L7.822082952105046,-0.009997769879704244 L7.802340478803629,-0.06598154010652213 L7.784475030944543,-0.12273432614923185 L7.768505491053667,-0.18019614429181097 L7.754448737815071,-0.2383062614210154 L7.7423196282314395,-0.29700325921702375 L7.7238935675693545,-0.415909187642029 L7.713305188700869,-0.5364113614763789 L7.710599244494232,-0.65800046593484 L7.715787171899904,-0.7801625922085216 L7.728847043611111,-0.9023814095531153 L7.749723660741859,-1.0241403476136914 L7.778328786130674,-1.1449247797622384 L7.814541517284013,-1.2642241982198352 L7.85820879738304,-1.381534371770091 L7.90914606219395,-1.4963594769440496 L7.9671380201476225,-1.6082141936688843 L8.03193956229149,-1.7166257565229155 L8.103276798267647,-1.8211359529271096 L8.180848213938512,-1.9213030598274963 L8.264325945767228,-2.0167037106829153 L8.353357166566488,-2.1069346848670873 L8.447565576758803,-2.1916146119219064 L8.546552994845221,-2.2703855834587596 L8.649901040360236,-2.3429146658950026 L8.75717290219969,-2.408895307631867 L8.867915184847671,-2.468048634726198 L8.981659824699115,-2.520124629579755 L9.097926068378591,-2.564903187664208 L9.21622250469371,-2.602195047815478 L9.336049141634879,-2.6318425921654427 L9.456899519642764,-2.6537205123300054 L9.578262852211507,-2.6677363390378206 " />
			<path d="M38.313051408846064,-5.048462868669986 L38.432032315081855,-5.054514104848243 L38.550529906226195,-5.052927688103421 L38.66806283047305,-5.043710062655674 L38.784153654612105,-5.026898671634555 L38.898330803421246,-5.002561804980404 L39.01013047526318,-4.970798322042212 L39.11909852610482,-4.931737249998764 L39.22479231430621,-4.885537259734359 " />
			<path d="M46.26120364168156,-2.917955254059975 L46.225641766615155,-2.9819533876727315 L46.19280895225035,-3.0475668729788605 L46.16275899232135,-3.114688207942492 L46.13554112109538,-3.183207420046159 L46.11119993270665,-3.253012246471282 L46.08977530809265,-3.3239883180311125 L46.07130234965274,-3.3960193465547794 L46.05581132373585,-3.4689873154154265 L46.043327611051694,-3.542772672890276 L46.033871665086664,-3.617254528035815 L46.02745897859254,-3.6923108487571747 L46.024100058203004,-3.767818661747195 L46.02380040721937,-3.8436542539675775 L46.026560516593925,-3.9196933753420318 L46.03237586412554,-3.9958114423293023 L46.04123692186892,-4.071883742042559 L46.05312917174531,-4.147785636580699 L46.0680331293291,-4.2233927672368035 L46.08592437577141,-4.298581258249146 L46.10677359780824,-4.3732279197609465 L46.130546635787724,-4.447210449656319 L46.157204539637796,-4.52040763394175 L46.186703632682494,-4.592699545344758 L46.21899558320246,-4.663967739804395 L46.25402748362225,-4.7340954505316155 L46.29174193719489,-4.802967779321595 L46.33207715204143,-4.8704718848045205 L46.37496704239164,-4.93649716732645 L46.42034133685987,-5.000935450157295 L46.46812569357861,-5.0636811567290705 L46.51824182200123,-5.124631483613989 L46.570607611174324,-5.18368656895901 L46.6251372642694,-5.240749656100876 L46.68174143915356,-5.2957272520935526 L46.74032739476894,-5.34852928088836 L46.80079914308086,-5.399069230915811 L46.863057606346,-5.447264296827349 L46.92700077944269,-5.493035515164775 L46.992523896997554,-5.5363078937350565 L47.05951960503447,-5.577010534478572 L47.12787813686486,-5.615076749629465 L47.197487492930904,-5.650444170977794 L47.26823362430719,-5.683054852054463 L47.340000619559994,-5.712855363071521 L47.412670894658206,-5.73979687846225 L47.48612538562459,-5.763835256877652 L47.56024374361186,-5.784931113508238 L47.634904532083915,-5.803049884612644 L47.70998542577904,-5.818161884147335 L47.78536341112938,-5.830242352404632 L47.86091498780803,-5.839271496579354 L47.93651637107367,-5.845234523197622 L48.01204369458117,-5.848121662354691 L48.08737321332594,-5.847928183722097 L48.162381506389416,-5.84465440429789 L48.236945679153614,-5.838305687887261 L48.31094356465335,-5.828892436314409 L48.38425392373628,-5.816430072380053 L48.45675664370277,-5.8009390145924975 L48.52833293510023,-5.7824446437136725 L48.59886552634936,-5.760977261174942 L48.668238855883516,-5.7365720394308255 L48.73633926148639,-5.70926896433196 L48.80305516651773,-5.679112769611743 " />
			<path d="M47.17294454714172,0.17635011330608774 L-0.7183697139158625,4.14422766269303 " />
			<path d="M1.1493915422653818,-0.8160601493239142 L1.147141742034029,-0.9078344627174141 L1.140397761305788,-0.9990148841335684 L1.1291758469209359,-1.0893817519507256 L1.113503033454149,-1.1787173644691116 L1.0934170780858457,-1.266806504373294 L1.0689663696418295,-1.353436957209546 L1.0402098120203718,-1.4384000226290536 L1.0072166822875597,-1.5214910171653357 L0.9700664637827754,-1.602509767334643 L0.9288486546363728,-1.6812610918714133 L0.8836625521608392,-1.7575552719370355 L0.8346170136348716,-1.8312085081691527 L0.7818301940566625,-1.9020433634704181 L0.7254292614981559,-1.9698891904700098 L0.6655500907460223,-2.034582542628094 L0.6023369359674113,-2.095967567992843 " />
			<path d="M0.6023369359673991,-2.0959675679928544 L0.5359420831889674,-2.153896384661493 L0.4665254834265722,-2.20822943704069 L0.39425436734921737,-2.2588358320482507 L0.3193028424057356,-2.305593654446006 L0.24185147338469326,-2.3483902605442974 L0.16208684741800128,-2.387122549570494 L0.08020112447616945,-2.421697212047784 L-0.003608425561893225,-2.4520309545858776 L-0.08913989814929557,-2.4780507005420778 L-0.17618724047690215,-2.4996937660693153 L-0.26454074787259885,-2.516908011127027 L-0.3539875689982167,-2.5296519650910785 L-0.44431221862704773,-2.537894926660132 L-0.5352970967666305,-2.5416170378177694 L-0.6267230128761934,-2.540809331672194 L-0.718369713915864,-2.5354737540582573 L-0.8100164149555347,-2.5256231588497715 L-0.9014423310650975,-2.511281276993405 L-0.9924272092046803,-2.4924826593387506 L-1.0827518588335114,-2.469272593402302 L-1.1721986799591293,-2.441706994265862 L-1.260552187354826,-2.4098522698722116 L-1.3475995296824324,-2.37378516104256 L-1.4331310022698345,-2.3335925566011833 L-1.5169405523078974,-2.289371284052636 L-1.598826275249729,-2.241227876315815 L-1.678590901216421,-2.189278315076822 L-1.7560422702374632,-2.1336477513789256 L-1.8309937951809456,-2.074470204122737 L-1.9032649112583004,-2.0118882372029367 L-1.972681511020695,-1.9460526160593674 L-2.0390763637991265,-1.8771219444698835 L-2.1022895185777495,-1.8052622824599571 L-2.1621686893298833,-1.7306467462495347 L-2.21856962188839,-1.653455091200894 L-2.2713564414665983,-1.5738732787722398 L-2.3204019799925653,-1.4920930285202556 L-2.3655880824680993,-1.4083113562309013 L-2.406805891614502,-1.3227300992911308 L-2.443956110119286,-1.2355554304449452 L-2.476949239852099,-1.1469973611051927 L-2.5057057974735564,-1.0572692354176851 L-2.5301565059175726,-0.9665872162964582 L-2.550242461285876,-0.8751697646683824 L-2.565915274752663,-0.7832371131816522 L-2.577137189137515,-0.6910107356460478 L-2.583881169865756,-0.5987128134831301 L-2.586130970097109,-0.5065657004717333 L-2.583881169865756,-0.41479138707823493 L-2.577137189137515,-0.3236109656620799 L-2.565915274752663,-0.23324409784492184 L-2.550242461285876,-0.14390848532653588 L-2.5301565059175726,-0.05581934542235378 L-2.5057057974735564,0.030811107413898142 L-2.4769492398520985,0.11577417283340585 L-2.443956110119286,0.19886516736968896 L-2.4068058916145016,0.2798839175389968 L-2.3655880824680993,0.3586352420757669 L-2.3204019799925653,0.4349294221413892 L-2.2713564414665988,0.5085826583735048 L-2.2185696218883906,0.5794175136747691 L-2.1621686893298833,0.6472633406743614 L-2.1022895185777495,0.7119566928324464 L-2.0390763637991327,0.7733417181972008 " />
			<path d="M-2.0390763637991265,0.7733417181972061 L-1.9895698885165083,0.8171201277381525 L-1.9383406435746853,0.8588949192359795 L-1.885458056425457,0.8986094782056132 L-1.8309937951809452,0.9362099822526028 L-1.775021671486756,0.9716454740148929 L-1.7176175404901646,1.0048679302218084 L-1.658859198038884,1.0358323267766711 L-1.598826275249729,1.0644966997748457 L-1.5376001305900773,1.0908222023745147 L-1.4752637396183625,1.114773157443116 L-1.411901582533043,1.136317105908093 L-1.3475995296824324,1.1554248507464298 L-1.2824447251905553,1.1720704965533582 L-1.2165254688567437,1.186231484636607 L-1.1499310964890324,1.197888623588638 L-1.0827518588335114,1.2070261152954305 L-1.0150787992637378,1.2136315763465766 L-0.9470036303959471,1.2176960548176576 L-0.8786186097972896,1.219214042402169 L-0.8100164149555348,1.2181834818765465 L-0.741290017679677,1.21460576988818 L-0.6725325581016782,1.208485755062633 L-0.6038372184500921,1.1998317314326354 L-0.5352970967666311,1.1886554271977579 L-0.46700508073683333,1.1749719888299888 L-0.3990537218058062,1.1587999605467725 L-0.3315351097496595,1.1401612591793149 L-0.26454074787259874,1.1190811444702145 L-0.19816142899882605,1.0955881848406843 L-0.13248711242731115,1.0697142186737456 L-0.06760680201616975,1.0414943111658679 L-0.003608425561894002,1.0109667068055361 L0.059421284363102345,0.9781727775431411 L0.12139690795314295,0.9431569667224377 L0.18223445393284776,0.9059667288495529 L0.24185147338469204,0.8666524652811755 L0.30016717148631944,0.8252674559190903 L0.35710251700618123,0.7818677870036076 L0.41258034940909316,0.736512275103763 L0.46652548342657174,0.6892623874072902 L0.5188648109502301,0.6401821584183921 L0.5695274001101394,0.589338103176208 L0.6184445914038799,0.5367991271115847 L0.6655500907460217,0.48263643266431033 L0.7107800593119089,0.42692342278737205 L0.7540732000540029,0.3697356014690153 L0.7953708407735343,0.3111504714074076 L0.8346170136348705,0.2512474289765937 L0.8717585310148526,0.19010765662608653 L0.906745057584303,0.12781401285990535 L0.9395291785240147,0.06445091994417773 L0.9700664637827747,0.00010424949548437645 L0.9983155282903406,-0.06513879389500754 L1.0242380880437636,-0.13118979084389082 L1.0477990119910463,-0.19795922700418844 L1.0689663696418295,-0.26535661437796254 L1.087711474340577,-0.3332906139484336 L1.104008922143615,-0.4016691594654319 L1.11783662624734,-0.4703995822164222 L1.1291758469209359,-0.5393887366139953 L1.1380112169030319,-0.6085431264296367 L1.1443307622278944,-0.6777690315027014 L1.1481259184529098,-0.7469726347528639 L1.1493915422653818,-0.8160601493238977 " />
			<path d="M8.859893138295652,-3.3290492639356453 L37.5946816949302,-5.709775793567811 " />
			<path d="M8.859893138295652,0.419272394385221 L8.76824643725598,0.424607971999158 L8.676820521146418,0.42541567814473336 L8.585835643006835,0.4216935669870958 L8.495510993378005,0.413450605418042 L8.406064172252387,0.40070665145399076 L8.31771066485669,0.38349240639627924 L8.230663322529084,0.36184934086904175 L8.145131849941682,0.33582959491284203 L8.06132229990362,0.30549585237474863 L7.979436576961788,0.2709211898974584 L7.899671950995097,0.2321889008712621 L7.822220581974054,0.18939229477297004 L7.74726905703057,0.14263447237521443 L7.674997940953215,0.0920280773676534 L7.60558134119082,0.03769502498845645 L7.539186488412401,-0.02023379168017092 " />
			<path d="M7.539186488412389,-0.020233791680182023 L7.491469875490231,-0.06595648941424304 L7.445607791953148,-0.11356151053212438 L7.4016623915103725,-0.16298433924186373 L7.359693230323125,-0.21415799620261833 L7.319757186292276,-0.2670131292971345 L7.281908381975655,-0.3214781076198725 L7.246198111239499,-0.3774791185534194 L7.212674769743416,-0.4349402678016214 L7.181383789353103,-0.4937836822438757 L7.152367576569676,-0.5539296154711811 L7.125665455059075,-0.6152965558609322 L7.101313612359417,-0.6778013370439816 L7.079345050838533,-0.7413592506142659 L7.059789542968143,-0.8058841609282495 L7.042673590975275,-0.8712886218386047 L7.028020390925639,-0.9374839952039244 L7.015849801287605,-1.0043805710138638 L7.006178316019387,-1.071887688966912 L6.999019042215929,-1.139913861336027 L6.994381682345759,-1.208366896955623 L6.992272521101914,-1.2771540261618792 L6.9926944168847225,-1.3461820265170497 L6.995646797928016,-1.415357349147382 L7.001125663074,-1.484586245523436 L7.009123587195755,-1.5537748945109788 L7.019629731259987,-1.6228295295202813 L7.032629857016428,-1.6916565655814857 L7.048106346293943,-1.7601627261738466 L7.066038224877229,-1.828255169636942 L7.08640119093171,-1.8958416149925583 L7.109167647938134,-1.962830467006711 L7.134306742092229,-2.029130940322333 L7.161784404118729,-2.0946531824943886 L7.191563395443101,-2.159308395760674 L7.223603358658417,-2.2230089573832834 L7.25786087221895,-2.2856685383976436 L7.2942895092863935,-2.3472022206081897 L7.332839900648941,-2.407526611672119 L7.37345980162797,-2.4665599581152637 L7.416094162881632,-2.5242222561269223 L7.460685205009426,-2.580435359983487 L7.507172496856617,-2.6351230879539376 L7.555493037412402,-2.688211325543673 L7.60558134119082,-2.739628125936756 L7.657369526978705,-2.7893038075004584 L7.710787409830394,-2.8371710482199566 L7.765762596184532,-2.883164976935202 L7.822220581974053,-2.927223261256314 L7.880084853596394,-2.9692861920383598 L7.939276991607086,-3.009296764301024 L7.999716776996198,-3.04720075448352 L8.061322299903619,-3.0829467939300246 L8.124010070625816,-3.1164864385060698 L8.187695132763668,-3.1477742342515236 L8.252291178357975,-3.176767778981199 L8.31771066485669,-3.2034277797496005 L8.383864933755262,-3.227718106101938 L8.450664330749387,-3.2496058390392317 L8.518018327237284,-3.2690613156311517 L8.585835643006835,-3.286058169216139 L8.654024369941359,-3.3005733651343157 L8.722492096576312,-3.312587231944768 L8.791146033338157,-3.322083488084887 L8.859893138295643,-3.3290492639356444 " />
			<path d="M37.5946816949302,-5.709775793567811 L37.68632839596987,-5.715111371181748 L37.77775431207944,-5.715919077327324 L37.86873919021902,-5.712196966169685 L37.95906383984785,-5.703954004600632 L38.04851066097347,-5.69121005063658 L38.136864168369165,-5.673995805578869 L38.223911510696766,-5.652352740051631 L38.30944298328417,-5.626332994095431 L38.39325253332223,-5.595999251557338 L38.47513825626407,-5.5614245890800476 L38.554902882230756,-5.522692300053851 L38.6323542512518,-5.47989569395556 L38.707305776195284,-5.433137871557805 L38.77957689227264,-5.382531476550244 L38.848993492035035,-5.328198424171046 L38.91538834481346,-5.270269607502414 " />
			<path d="M38.915388344813465,-5.270269607502408 L38.963104957735624,-5.224546909768347 L39.008967041272705,-5.176941888650466 L39.05291244171548,-5.127519059940726 L39.09488160290273,-5.076345402979972 L39.13481764693358,-5.023490269885456 L39.1726664512502,-4.969025291562717 L39.208376721986355,-4.913024280629171 L39.24190006348244,-4.855563131380968 L39.27319104387275,-4.796719716938715 L39.302207256656175,-4.7365737837114095 L39.32890937816678,-4.675206843321657 L39.353261220866436,-4.612702062138609 L39.37522978238732,-4.549144148568325 L39.39478529025771,-4.48461923825434 L39.41190124225058,-4.419214777343985 L39.426554442300215,-4.353019403978666 L39.43872503193825,-4.286122828168727 L39.44839651720647,-4.218615710215679 L39.45555579100993,-4.150589537846563 L39.460193150880094,-4.082136502226968 L39.46230231212394,-4.013349373020711 L39.46188041634113,-3.94432137266554 L39.45892803529784,-3.875146050035208 L39.453449170151856,-3.8059171536591547 L39.445451246030096,-3.7367285046716128 L39.434945101965866,-3.66767386966231 L39.421944976209424,-3.5988468336011046 L39.406468486931914,-3.5303406730087437 L39.38853660834862,-3.462248229545647 L39.368173642294146,-3.394661784190032 L39.34540718528772,-3.3276729321758807 L39.32026809113363,-3.2613724588602575 L39.29279042910713,-3.1958502166882012 L39.26301143778275,-3.1311950034219174 L39.23097147456744,-3.067494441799309 L39.19671396100691,-3.004834860784948 L39.16028532393946,-2.9433011785744014 L39.12173493257691,-2.8829767875104717 L39.08111503159788,-2.823943441067326 L39.03848067034422,-2.766281143055668 L38.99388962821643,-2.710068039199104 L38.94740233636924,-2.655380311228653 L38.89908179581345,-2.6022920736389175 L38.848993492035035,-2.5508752732458344 L38.79720530624715,-2.5011995916821315 L38.74378742339546,-2.4533323509626337 L38.688812237041326,-2.4073384222473893 L38.632354251251805,-2.3632801379262762 L38.57448997962946,-2.3212172071442305 L38.51529784161877,-2.2812066348815656 L38.454858056229654,-2.24330264469907 L38.39325253332223,-2.2075566052525657 L38.33056476260004,-2.1740169606765205 L38.26687970046219,-2.1427291649310667 L38.20228365486788,-2.1137356202013913 L38.136864168369165,-2.0870756194329894 L38.07070989947059,-2.062785293080651 L38.003910502476465,-2.0408975601433585 L37.93655650598857,-2.0214420835514386 L37.86873919021902,-2.004445229966451 L37.800550463284495,-1.9899300340482742 L37.732082736649545,-1.9779161672378218 L37.6634287998877,-1.9684199110977028 L37.594681694930216,-1.961454135246946 " />
			<path d="M37.5946816949302,-1.9614541352469446 L8.859893138295654,0.4192723943852208 " />
			<path d="M49.040705803322965,-4.783937698710857 L49.03845600309161,-4.875712012104357 L49.03171202236337,-4.966892433520511 L49.02049010797852,-5.057259301337668 L49.00481729451173,-5.146594913856054 L48.98473133914343,-5.234684053760237 L48.96028063069941,-5.321314506596488 L48.93152407307795,-5.406277572015997 L48.89853094334514,-5.489368566552279 L48.86138072484036,-5.570387316721586 L48.820162915693956,-5.6491386412583555 L48.77497681321842,-5.725432821323978 L48.725931274692456,-5.799086057556095 L48.67314445511425,-5.869920912857361 L48.61674352255574,-5.9377667398569525 L48.556864351803604,-6.002460092015037 L48.493651197024995,-6.063845117379786 " />
			<path d="M48.49365119702498,-6.063845117379797 L48.42725634424655,-6.121773934048435 L48.35783974448415,-6.176106986427633 L48.2855686284068,-6.226713381435193 L48.21061710346332,-6.2734712038329485 L48.13316573444227,-6.31626780993124 L48.05340110847558,-6.3550000989574364 L47.97151538553375,-6.3895747614347265 L47.88770583549569,-6.41990850397282 L47.80217436290829,-6.44592824992902 L47.71512702058068,-6.467571315456258 L47.626773513184986,-6.48478556051397 L47.53732669205937,-6.497529514478021 L47.44700204243053,-6.505772476047074 L47.356017164290954,-6.509494587204712 L47.26459124818139,-6.508686881059137 L47.17294454714172,-6.5033513034452 L47.081297846102046,-6.493500708236715 L46.98987192999248,-6.479158826380347 L46.8988870518529,-6.460360208725693 L46.80856240222407,-6.437150142789244 L46.71911558109845,-6.409584543652805 L46.630762073702755,-6.377729819259154 L46.54371473137515,-6.341662710429503 L46.45818325878775,-6.301470105988126 L46.37437370874969,-6.257248833439578 L46.29248798580785,-6.209105425702758 L46.21272335984116,-6.157155864463764 L46.135271990820115,-6.101525300765868 L46.060320465876636,-6.04234775350968 L45.98804934979928,-5.979765786589879 L45.918632750036885,-5.91393016544631 L45.852237897258455,-5.844999493856826 L45.78902474247983,-5.773139831846899 L45.7291455717277,-5.698524295636477 L45.67274463916919,-5.621332640587837 L45.61995781959098,-5.5417508281591825 L45.57091228106501,-5.459970577907198 L45.52572617858948,-5.376188905617844 L45.48450836944308,-5.2906076486780735 L45.44735815093829,-5.203432979831888 L45.414365021205484,-5.114874910492135 L45.38560846358403,-5.025146784804628 L45.361157755140006,-4.9344647656834 L45.341071799771704,-4.843047314055325 L45.32539898630492,-4.751114662568595 L45.314177071920064,-4.65888828503299 L45.307433091191825,-4.566590362870072 L45.30518329096047,-4.474443249858676 L45.307433091191825,-4.382668936465177 L45.314177071920064,-4.291488515049022 L45.32539898630492,-4.201121647231864 L45.341071799771704,-4.111786034713479 L45.361157755140006,-4.023696894809296 L45.38560846358403,-3.9370664419730446 L45.414365021205484,-3.852103376553537 L45.44735815093829,-3.7690123820172534 L45.48450836944308,-3.687993631847946 L45.52572617858948,-3.6092423073111757 L45.57091228106501,-3.5329481272455534 L45.61995781959098,-3.459294891013438 L45.67274463916919,-3.3884600357121735 L45.7291455717277,-3.3206142087125814 L45.78902474247983,-3.2559208565544964 L45.85223789725845,-3.194535831189742 " />
			<path d="M45.852237897258455,-3.1945358311897367 L45.901744372541074,-3.15075742164879 L45.9529736174829,-3.108982630150963 L46.005856204632124,-3.0692680711813294 L46.060320465876636,-3.03166756713434 L46.116292589570826,-2.99623207537205 L46.17369672056742,-2.9630096191651343 L46.2324550630187,-2.932045222610271 L46.29248798580785,-2.9033808496120965 L46.3537141304675,-2.877055347012428 L46.41605052143922,-2.853104391943827 L46.47941267852454,-2.8315604434788497 L46.54371473137515,-2.812452698640513 L46.60886953586703,-2.7958070528335845 L46.674788792200836,-2.781646064750335 L46.741383164568546,-2.769988925798305 L46.80856240222407,-2.7608514340915122 L46.87623546179385,-2.754245973040366 L46.94431063066163,-2.750181494569285 L47.012695651260294,-2.748663506984774 L47.081297846102046,-2.7496940675103962 L47.150024243377906,-2.7532717794987627 L47.2187817029559,-2.75939179432431 L47.28747704260749,-2.768045817954307 L47.356017164290954,-2.779222122189185 L47.42430918032075,-2.792905560556954 L47.492260539251774,-2.8090775888401702 L47.55977915130792,-2.827716290207628 L47.626773513184986,-2.8487964049167283 L47.69315283205876,-2.8722893645462584 L47.75882714863027,-2.898163330713197 L47.823707459041415,-2.926383238221075 L47.88770583549569,-2.9569108425814066 L47.950735545420685,-2.9897047718438015 L48.01271116901072,-3.024720582664505 L48.07354871499043,-3.0619108205373897 L48.13316573444227,-3.101225084105767 L48.1914814325439,-3.1426100934678525 L48.24841677806376,-3.186009762383335 L48.30389461046668,-3.2313652742831795 L48.35783974448415,-3.278615161979652 L48.410179072007814,-3.3276953909685503 L48.46084166116772,-3.3785394462107345 L48.50975885246146,-3.431078422275358 L48.556864351803604,-3.4852411167226323 L48.60209432036949,-3.5409541265995705 L48.64538746111158,-3.5981419479179273 L48.68668510183112,-3.656727077979535 L48.72593127469245,-3.7166301204103487 L48.763072792072435,-3.777769892760856 L48.79805931864188,-3.8400635365270372 L48.8308434395816,-3.903426629442765 L48.86138072484036,-3.967773299891458 L48.88962978934792,-4.03301634328195 L48.91555234910135,-4.0990673402308335 L48.939113273048626,-4.1658367763911315 L48.96028063069941,-4.233234163764905 L48.97902573539816,-4.301168163335376 L48.995323183201194,-4.369546708852375 L49.00915088730492,-4.438277131603365 L49.02049010797852,-4.507266286000938 L49.02932547796061,-4.576420675816579 L49.035645023285475,-4.645646580889644 L49.03944017951049,-4.714850184139807 L49.040705803322965,-4.78393769871084 " />
			<path d="M7.723592275283811e-17,4.805540587590854 L-0.7183697139158636,4.14422766269303 " />
			<path d="M47.89131426105758,0.8376630382039116 L47.17294454714172,0.17635011330608763 " />
			<path d="M9.578262852211516,-2.6677363390378215 L8.859893138295652,-3.3290492639356453 " />
			<path d="M38.313051408846064,-5.048462868669986 L37.5946816949302,-5.70977579356781 " />
			<path d="M-4.104797021308846,3.017288724063792 L-3.386427307392982,3.6786016489616156 " />
			<path d="M50.559371854534696,-8.307792123246383 L51.27774156845056,-7.646479198348558 " />

       </g>
    </g>
    
</svg>
