<?xml version="1.0" encoding="UTF-8" standalone="no"?>
<svg
   xmlns:svg="http://www.w3.org/2000/svg"
   xmlns="http://www.w3.org/2000/svg"
   width="800.0"
   height="240.0"

>
    <g transform="scale(10.311413835961035, -10.311413835961035)   translate(5.992400696914828,-5.306793465043027)" stroke-width="0.09697991137864159"  fill="none">
       <!-- hidden lines -->
       <g  stroke="rgb(160,160,160)" fill="none" stroke-dasharray="0.09697991137864159,0.09697991137864159" >
			<path d="M6.938893903907227e-17,-4.805540587590854 L47.89131426105758,-8.773418136977796 " />
			<path d="M-3.3864273073929816,3.6786016489616156 L-3.5087775969369774,3.561363962464024 L-3.6263726829294956,3.439299805751507 L-3.7390531968853313,3.3125746039316635 L-3.846666430698786,3.181360098904087 L-3.9490665435983994,3.0458341166104552 L-4.046114759794863,2.9061803260393324 L-4.137679556554239,2.7625879903122894 L-4.22363684244163,2.6152517101886943 L-4.303870125493715,2.4643711603367606 L-4.378270671092245,2.3101508187282853 L-4.446737649324557,2.1527996895237944 L-4.509178271631372,1.9925310198236683 L-4.565507916556713,1.8295620106690935 L-4.615650244429511,1.6641135226845198 L-4.659537300821482,1.496409776760532 L-4.697109608641058,1.3266780501827897 L-4.72831624873858,1.1551483686188417 L-4.753114928913498,0.9820531943802571 L-4.77147204123006,0.8076271113825264 L-4.783362707563827,0.6321065072297167 L-4.788770813317276,0.4557292528546997 L-4.787689029258793,0.27873438014913443 L-4.7801188214554795,0.10136175802007719 L-4.766070449286287,-0.07614823268775295 L-4.745562951538197,-0.25355502496350457 L-4.718624120604268,-0.4306181916540228 L-4.685290464818525,-0.6070977712981378 L-4.645607158978741,-0.7827545933298319 L-4.599627983124162,-0.9573506022095641 L-4.547415249651134,-1.1306491800444773 L-4.489039718865431,-1.3024154672602533 L-4.4245805030857,-1.4724166808900547 L-4.354124959428009,-1.640422430049171 L-4.2777685714167974,-1.8062050281678503 L-4.195614819582653,-1.969539801559157 L-4.107775041222312,-2.1302053939036703 L-4.014368279510921,-2.2879840662384034 L-3.9155211221710537,-2.4426619920433508 L-3.811367529917134,-2.5940295470257735 L-3.702048654907743,-2.7418815932095137 L-3.587712649451861,-2.8860177569442946 L-3.468514465228295,-3.0262427004582713 L-3.344615643290385,-3.162366386585797 L-3.2161840951405942,-3.2942043363116498 L-3.0833938751716574,-3.421577878782682 L-2.946424944782711,-3.5443143934480634 L-2.805462928490053,-3.662247543999974 L-2.6606988623630756,-3.7752175037976974 L-2.512328935126303,-3.8830711724696103 L-2.3605542222783757,-3.9856623833995184 L-2.2055804135883434,-4.082852101816174 L-2.0476175343385474,-4.174508613217468 L-1.8868796606918845,-4.260507701873994 L-1.7235846295691908,-4.340732819170029 L-1.5579537434299386,-4.415075241553812 L-1.3902114703563129,-4.4834342178830475 L-1.220585139847154,-4.545717105965965 L-1.0493046347340111,-4.601839498112871 L-0.8766020796368421,-4.651725335528051 L-0.7027115263815813,-4.695307011386992 L-0.5278686368058794,-4.73252546245924 L-0.35231036338292254,-4.763330249152707 L-0.17627462809614247,-4.787679623870961 L-2.1760371282653068e-14,-4.805540587590853 " />
			<path d="M47.89131426105758,-8.773418136977797 L48.0088454298119,-8.781708456967227 L48.12630580218494,-8.78709910521866 L48.2436246244405,-8.789586834607164 L48.3607312281069,-8.789170146617572 L48.47755507254497,-8.785849292247152 L48.594025787439165,-8.779626271854399 L48.710073215185936,-8.770504833954105 L48.82562745315411,-8.758490472959389 L48.94061889579159,-8.74359042587207 L49.05497827655313,-8.72581366792336 L49.16863670962394,-8.705170907167536 L49.28152573141389,-8.681674578031792 L49.39357734179746,-8.655338833826217 L49.50472404507442,-8.626179538218363 L49.61489889062677,-8.594214255677567 L49.72403551324725,-8.559462240894772 L49.83206817311527,-8.521944427184224 L49.93893179539613,-8.48168341387402 L50.04456200943965,-8.43870345269312 L50.14889518755467,-8.39303043316302 L50.251868483335954,-8.344691867002854 L50.35341986952055,-8.293716871557386 L50.45348817535066,-8.240136152257794 L50.55201312342066,-8.183981984125872 L50.6489353659859,-8.12528819233276 L50.74419652071163,-8.064090131823935 L50.837739205840286,-8.000424666022706 L50.92950707475613,-7.93433014462506 L51.01944484992635,-7.86584638049926 L51.10749835619817,-7.795014625704042 L51.19361455343195,-7.721877546639922 L51.277741568450544,-7.6464791983485725 " />
			<path d="M1.795924284789659,-0.14879540810201053 L1.7947073388161279,-0.08236510562984611 L1.791058150138229,-0.015823179427767675 L1.7849816642489382,0.05074019083479464 L1.7764861161892302,0.1172347964267576 L1.7655830193876962,0.18357052180903954 L1.7522871500571913,0.2496574667619148 L1.7366165271696548,0.31540606822056716 L1.7185923880362437,0.3807272216537124 L1.6982391595258752,0.44553240182080267 L1.6755844249611807,0.509733782744166 L1.6506588867367353,0.5732443567334768 L1.6234963247102294,0.6359780523012575 L1.5941335504229603,0.6978498508096165 L1.5626103572116992,0.7587759016901239 L1.5289694662795352,0.8186736360806826 L1.493256468798783,0.8774618787254012 L1.4555197641244215,0.9350609579857991 L1.4158104942017953,0.9913928138142682 L1.374182474257474,1.0463811035434571 L1.330692119867198,1.0999513053482055 L1.2853983704997543,1.1520308192398159 L1.2383626096403881,1.2025490654557995 L1.189648581602014,1.2514375801117459 L1.1393223051369576,1.298630107985686 L1.0874519839663055,1.3440626923092178 L1.0341079143481209,1.387673761443684 L0.9793623898097923,1.4294042123239559 L0.9232896031736118,1.4691974905567298 L0.865965546008377,1.506999667064785 L0.8074679056432765,1.5427595111733285 L0.7478759598836215,1.5764285600393895 L0.6872704695711254,1.6079611843301533 L0.625733569134322,1.6373146500612417 L0.5633486552774548,1.6644491765111242 L0.5002002739586908,1.689327990133181 L0.4363740058108325,1.7119173743923444 L0.3719563501598122,1.7321867154587869 L0.30703460779813274,1.7501085436967272 L0.24169676267214524,1.7656585708921273 L0.17603136264349362,1.7788157231688286 L0.11012739948632011,1.7895621695485189 L0.04407418828287124,1.7978833461158237 L-0.022038753619050833,1.8037679757557727 L-0.0881218279227608,1.8072080834368949 L-0.15408547680906448,1.8081990070192238 L-0.2198403043077719,1.8067394035725783 L-0.2852971974498778,1.802831251196539 L-0.3503674470361995,1.7964798463396678 L-0.4149628678588164,1.787693796621598 L-0.4789959182123841,1.7764850091677227 L-0.5423798185333553,1.762868674472291 L-0.6050286690063149,1.7468632458117828 L-0.6668575659780565,1.7284904142364585 L-0.7277827170216331,1.707775079173981 L-0.7877215544944363,1.6847453146849412 L-0.8465928474364086,1.6594323314160289 L-0.904316811656749,1.6318704343023998 L-0.9608152178599043,1.6020969760765698 L-1.016011497664319,1.5701523066468432 L-1.0698308473702711,1.536079718413872 L-1.1222003293361482,1.4999253875994583 L-1.1730489708257898,1.461738311667119 L-1.2223078601929265,1.421570242919209 L-1.2699102402723565,1.3794756183606165 " />
			<path d="M-1.269910240272368,1.3794756183606058 L-1.3146041546654745,1.336694497252908 L-1.3576092029270979,1.2921961306485048 L-1.3988701366623246,1.2460376854017658 L-1.4383339481324446,1.1982784610627366 L-1.475949938353756,1.148979813695268 L-1.5116697822303267,1.098205077053153 L-1.5454475906370302,1.0460194812155341 L-1.5772399693731014,0.99249006878611 " />
			<path d="M0.8588702554572377,-1.6538029936839327 L0.9148419433385437,-1.626539034021862 L0.9696383378296068,-1.5971854668712218 L1.0231890422452685,-1.5657800026296411 L1.07542526023289,-1.5323629877578508 L1.1262798841547215,-1.4969773529467596 L1.1756875813007872,-1.4596685579645885 L1.2235848778215264,-1.4204845332549072 L1.2699102402723623,-1.3794756183606112 " />
			<path d="M1.2699102402723679,-1.379475618360606 L1.3306921198671975,-1.3204515555098757 L1.3882682455904034,-1.2582464092040249 L1.442499911512045,-1.1930100370890322 L1.4932564687987837,-1.1248995992993551 L1.5404156404583669,-1.0540791798453977 L1.5838638159156109,-0.9807193913207608 L1.623496324710229,-0.9049969638815588 L1.6592176886571373,-0.8270943194879936 L1.6909418518617647,-0.7471991324338754 L1.7185923880362433,-0.6655038772228101 L1.742102684617028,-0.5822053648802602 L1.7614161032403968,-0.4975042688185467 L1.7764861161892305,-0.4116046413970217 L1.7872764184823573,-0.32471342234206213 L1.7937610153364356,-0.2370399402111435 L1.7959242847896588,-0.14879540810201863 " />
			<path d="M9.578262852211516,1.0085022104691819 L9.490141024288755,1.0136325735595064 L9.402231489568022,1.0144092140840977 L9.314746029818423,1.0108302610479079 L9.227895405175317,1.0029043364622794 L9.141888846400684,0.9906505345737684 L9.0569335508279,0.9740983758644304 L8.973234183205202,0.9532877359343943 L8.890992382640391,0.9282687494380482 L8.810406276834563,0.8991016893052661 L8.73167000477511,0.8658568215386413 L8.654973249037905,0.8286142359365292 L8.580500778825364,0.7874636531497099 L8.508432004841245,0.7425042085364835 L8.438940547074559,0.6938442133369056 L8.372193816533795,0.6416008937415238 L8.30835261193916,0.585900108483228 " />
			<path d="M8.308352611939148,0.5859001084832174 L8.263658697546042,0.5431189873755196 L8.220653649284419,0.49862062077111635 L8.179392715549191,0.4524621755243774 L8.13992890407907,0.40470295118534816 L8.10231291385776,0.3554043038178796 L8.06659306998119,0.3046295671757646 L8.032815261574486,0.25244397133814567 L8.001022882838415,0.19891455890872156 " />
			<path d="M39.171921664303305,-4.828105033193484 L39.22789335218461,-4.800841073531414 L39.28268974667567,-4.771487506380774 L39.336240451091335,-4.740082042139194 L39.388476669078955,-4.7066650272674035 L39.43933129300079,-4.671279392456312 L39.48873899014686,-4.633970597474141 L39.536636286667594,-4.594786572764461 L39.582961649118424,-4.553777657870165 " />
			<path d="M39.58296164911843,-4.55377765787016 L39.628843007697434,-4.509813525433563 L39.672941164944625,-4.464039466666369 L39.71519635767806,-4.416517515983927 L39.75555132035811,-4.367312076598587 L39.793951362695466,-4.3164898332384745 L39.830344443769135,-4.264119661774304 L39.86468124255391,-4.210272535876663 L39.89691522476168,-4.155021430830315 L39.927002705906204,-4.09844122463584 L39.95490291050566,-4.040608596532661 L39.98057802734277,-3.981601923080977 L40.00399326070783,-3.92150117194343 L40.02511687755483,-3.8603877935104647 L40.04392025050713,-3.798344610516249 L40.06037789665412,-3.7354557057947537 L40.074467512086464,-3.6718063083281005 L40.08617000212303,-3.6074826777416207 L40.095469507188625,-3.542571987402151 L40.10235342430734,-3.4771622062780017 L40.1068124241825,-3.411341979720698 L40.108840463840046,-3.345200509330067 L40.10843479481811,-3.278827432065479 L40.10559596689187,-3.212312698767083 L40.10032782732842,-3.145746452251647 L40.09263751567289,-3.0792189051482413 L40.08253545407266,-3.0128202176392964 L40.07003533315301,-2.946640375272753 L40.055154093463095,-2.880769067010867 L40.03791190251763,-2.8152955636809667 L40.01833212746524,-2.7503085969928756 L39.9964413034206,-2.6858962392869605 L39.9722690975032,-2.622145784175784 L39.945848268631565,-2.559143628241115 L39.917214623127364,-2.496975153946611 L39.88640696618956,-2.4357246139248723 L39.853467049304435,-2.375475016795679 L39.81843951366266,-2.3163080146701533 L39.78137182966021,-2.258303792493298 L39.74231423256499,-2.2015409593748885 L39.70131965443647,-2.1460964420559874 L39.65844365239052,-2.0920453806554447 L39.61374433330668,-2.039461026837703 L39.56728227507996,-1.9884146445398807 L39.519120444523786,-1.9389754133926853 L39.46932411203544,-1.8912103349660478 L39.41796076313958,-1.8451841419665307 L39.36510000702984,-1.8009592105095646 L39.31081348223222,-1.7585954755854178 L39.255174759518425,-1.7181503498334507 L39.19825924220046,-1.6796786457347344 L39.14014406394169,-1.6432325013284887 L39.08090798422302,-1.6088613095530038 L39.020631281605525,-1.576611651306807 L38.95939564493451,-1.546527232320793 L38.897284062632295,-1.5186488239268745 L38.83438071022968,-1.4930142078034114 L38.77077083628875,-1.4696581247723168 L38.70654064687132,-1.4486122277172275 L38.64177718870988,-1.4299050386865355 L38.57656823123916,-1.413561910239432 L38.51100214764827,-1.399604991087339 L38.44516779511466,-1.3880531960772884 L38.37915439438212,-1.3789221805579432 L38.31305140884608,-1.3722243191629848 " />
			<path d="M38.313051408846064,-1.3722243191629835 L9.578262852211516,1.0085022104691819 " />
			<path d="M49.68723854584724,-4.1166729574889525 L49.68602159987371,-4.050242655016788 L49.68237241119581,-3.9837007288147097 L49.67629592530652,-3.9171373585521474 L49.66780037724681,-3.8506427529601845 L49.65689728044528,-3.7843070275779027 L49.64360141111477,-3.7182200826250273 L49.62793078822723,-3.652471481166375 L49.60990664909382,-3.5871503277332297 L49.58955342058346,-3.5223451475661394 L49.56689868601876,-3.458143766642776 L49.541973147794316,-3.3946331926534654 L49.51481058576781,-3.3318994970856846 L49.48544781148054,-3.2700276985773256 L49.453924618269276,-3.2091016476968184 L49.420283727337114,-3.14920391330626 L49.384570729856364,-3.090415670661541 L49.346834025182005,-3.032816591401143 L49.30712475525937,-2.976484735572674 L49.265496735315054,-2.921496445843485 L49.22200638092478,-2.8679262440387365 L49.176712631557336,-2.8158467301471264 L49.12967687069797,-2.7653284839311425 L49.080962842659595,-2.7164399692751964 L49.03063656619454,-2.6692474414012564 L48.978766245023884,-2.6238148570777247 L48.9254221754057,-2.580203787943258 L48.870676650867374,-2.538473337062986 L48.814603864231195,-2.4986800588302125 L48.757279807065956,-2.4608778823221575 L48.69878216670086,-2.425118038213614 L48.6391902209412,-2.391448989347553 L48.578584730628705,-2.359916365056789 L48.5170478301919,-2.3305628993257006 L48.45466291633503,-2.303428372875818 L48.39151453501627,-2.2785495592537615 L48.327688266868414,-2.255960174994598 L48.26327061121739,-2.2356908339281554 L48.19834886885571,-2.217769005690215 L48.13301102372973,-2.202218978494815 L48.06734562370107,-2.1890618262181136 L48.001441660543904,-2.1783153798384234 L47.93538844934045,-2.1699942032711186 L47.86927550743853,-2.1641095736311695 L47.80319243313482,-2.1606694659500474 L47.737228784248515,-2.1596785423677183 L47.67147395674981,-2.161138145814364 L47.6060170636077,-2.1650462981904033 L47.54094681402138,-2.1713977030472744 L47.47635139319876,-2.1801837527653443 L47.4123183428452,-2.1913925402192196 L47.348934442524225,-2.2050088749146513 L47.286285592051264,-2.2210143035751595 L47.224456695079525,-2.2393871351504835 L47.16353154403595,-2.2601024702129613 L47.10359270656314,-2.283132234702001 L47.04472141362117,-2.308445217970913 L46.98699744940083,-2.3360071150845423 L46.93049904319768,-2.3657805733103725 L46.875302763393265,-2.397725242740099 L46.82148341368731,-2.4317978309730703 L46.769113931721435,-2.4679521617874842 L46.71826529023179,-2.5061392377198235 L46.66900640086465,-2.5463073064677335 L46.62140402078522,-2.5884019310263255 " />
			<path d="M46.621404020785214,-2.588401931026336 L46.576710106392106,-2.6311830521340354 L46.53370505813048,-2.6756814187384403 L46.49244412439525,-2.721839863985181 L46.452980312925135,-2.7695990883242114 L46.415364322703816,-2.8188977356916816 L46.379644478827245,-2.8696724723337983 L46.34586667042054,-2.921858068171419 L46.31407429168447,-2.975387480600845 " />
			<path d="M48.75018451651482,-5.621680543070872 L48.80615620439613,-5.594416583408802 L48.86095259888719,-5.565063016258161 L48.91450330330285,-5.533657552016582 L48.96673952129047,-5.5002405371447916 L49.01759414521231,-5.4648549023337 L49.067001842358366,-5.42754610735153 L49.11489913887911,-5.388362082641849 L49.16122450132994,-5.347353167747554 " />
			<path d="M49.16122450132995,-5.347353167747548 L49.222006380924775,-5.2883291048968175 L49.279582506647984,-5.226123958590967 L49.333814172569625,-5.160887586475974 L49.384570729856364,-5.092777148686297 L49.43172990151595,-5.02195672923234 L49.475178076973194,-4.948596940707703 L49.51481058576781,-4.872874513268501 L49.55053194971472,-4.794971868874936 L49.582256112919346,-4.715076681820817 L49.60990664909382,-4.633381426609752 L49.63341694567461,-4.550082914267202 L49.65273036429798,-4.465381818205489 L49.66780037724681,-4.379482190783964 L49.67859067953994,-4.2925909717290045 L49.685075276394016,-4.204917489598086 L49.68723854584724,-4.1166729574889604 " />
			<path d="M0.5515405263565044,-2.04078854325843 L1.269910240272368,-1.3794756183606058 " />
			<path d="M-1.988279954188232,0.7181626934627818 L-1.269910240272368,1.3794756183606058 " />
			<path d="M7.589982898023284,-0.07541281641460662 L8.308352611939148,0.5859001084832174 " />
			<path d="M38.86459193520256,-5.215090582767983 L39.582961649118424,-4.553777657870159 " />
			<path d="M48.44285478741408,-6.008666092645371 L49.16122450132994,-5.347353167747547 " />
			<path d="M45.90303430686935,-3.249714855924161 L46.621404020785214,-2.588401931026337 " />

       </g>

       <!-- solid lines -->
       <g  stroke="rgb(0,0,0)" fill="none">
			<path d="M-0.7183697139158635,-5.466853512488678 L47.17294454714172,-9.43473106187562 " />
			<path d="M1.3322676295501878e-15,4.805540587590855 L-0.11753116875432035,4.813830907580284 L-0.23499154112736242,4.819221555831719 L-0.35231036338292476,4.821709285220221 L-0.46941696704931823,4.821292597230631 L-0.586240811487392,4.817971742860209 L-0.7027115263815817,4.811748722467456 L-0.8187589541283549,4.802627284567163 L-0.9343131920965317,4.790612923572447 L-1.049304634734009,4.775712876485127 L-1.1636640154955502,4.757936118536418 L-1.277322448566358,4.737293357780594 L-1.3902114703563107,4.71379702864485 L-1.5022630807398771,4.687461284439275 L-1.6134097840168402,4.658301988831421 L-1.7235846295691886,4.626336706290625 L-1.832721252189665,4.5915846915078316 L-1.9407539120576847,4.5540668777972835 L-2.047617534338543,4.513805864487079 L-2.153247748382067,4.470825903306181 L-2.257580926497086,4.425152883776079 L-2.360554222278371,4.376814317615915 L-2.462105608462962,4.325839322170447 L-2.562173914293078,4.272258602870853 L-2.660698862363073,4.216104434738929 L-2.7576211049283197,4.157410642945818 L-2.8528822596540557,4.0962125824369915 L-2.946424944782711,4.032547116635761 L-3.0381928136985548,3.9664525952381173 L-3.1281305888687725,3.8979688311123177 L-3.216184095140593,3.8271370763170993 L-3.3023002923743694,3.75399999725298 L-3.3864273073929505,3.678601648961644 " />
			<path d="M-0.7183697139158622,4.144227662693031 L-0.8359008826701839,4.15251798268246 L-0.953361255043226,4.157908630933895 L-1.0706800772987883,4.160396360322397 L-1.1877866809651818,4.159979672332807 L-1.3046105254032556,4.156658817962385 L-1.4210812402974453,4.150435797569632 L-1.5371286680442184,4.141314359669339 L-1.6526829060123953,4.1292999986746235 L-1.7676743486498725,4.114399951587303 L-1.8820337294114138,4.096623193638594 L-1.9956921624822215,4.07598043288277 L-2.1085811842721744,4.052484103747026 L-2.2206327946557405,4.026148359541451 L-2.331779497932704,3.996989063933597 L-2.441954343485052,3.9650237813928015 L-2.5510909661055283,3.9302717666100078 L-2.6591236259735482,3.8927539528994597 L-2.7659872482544063,3.852492939589255 L-2.8716174622979302,3.809512978408357 L-2.9759506404129494,3.763839958878255 L-3.0789239361942347,3.7155013927180915 L-3.1804753223788254,3.664526397272623 L-3.2805436282089415,3.610945677973029 L-3.3790685762789368,3.554791509841105 L-3.475990818844183,3.496097718047994 L-3.571251973569919,3.4348996575391677 L-3.6647946586985745,3.371234191737937 L-3.7565625276144186,3.3051396703402935 L-3.8465003027846363,3.236655906214494 L-3.9345538090564567,3.1658241514192755 L-4.020670006290233,3.0926870723551563 L-4.104797021308814,3.01728872406382 " />
			<path d="M-4.104797021308845,3.017288724063792 L-4.227147310852841,2.9000510375662003 L-4.344742396845359,2.777986880853683 L-4.457422910801195,2.6512616790338397 L-4.565036144614649,2.520047174006263 L-4.667436257514263,2.3845211917126314 L-4.764484473710726,2.2448674011415086 L-4.856049270470102,2.1012750654144656 L-4.9420065563574935,1.9539387852908705 L-5.022239839409578,1.8030582354389368 L-5.096640385008109,1.6488378938304615 L-5.165107363240421,1.4914867646259706 L-5.227547985547235,1.3312180949258443 L-5.283877630472577,1.1682490857712695 L-5.334019958345374,1.0028005977866958 L-5.377907014737345,0.8350968518627081 L-5.415479322556921,0.6653651252849658 L-5.446685962654444,0.49383544372101784 L-5.4714846428293615,0.32074026948243317 L-5.489841755145924,0.1463141864847025 L-5.501732421479691,-0.029206417668107165 L-5.5071405272331395,-0.20558367204312422 L-5.506058743174656,-0.38257854474868946 L-5.498488535371343,-0.5599511668777467 L-5.484440163202151,-0.7374611575855768 L-5.4639326654540605,-0.9148679498613285 L-5.436993834520131,-1.0919311165518466 L-5.4036601787343885,-1.2684106961959616 L-5.363976872894605,-1.4440675182276559 L-5.317997697040026,-1.6186635271073881 L-5.265784963566998,-1.7919621049423013 L-5.2074094327812945,-1.9637283921580773 L-5.142950217001563,-2.1337296057878787 L-5.072494673343872,-2.3017353549469948 L-4.996138285332661,-2.4675179530656743 L-4.913984533498517,-2.6308527264569808 L-4.826144755138175,-2.791518318801494 L-4.732737993426785,-2.9492969911362272 L-4.633890836086917,-3.1039749169411746 L-4.529737243832997,-3.2553424719235973 L-4.420418368823607,-3.4031945181073375 L-4.306082363367724,-3.5473306818421184 L-4.186884179144158,-3.687555625356095 L-4.062985357206249,-3.823679311483621 L-3.9345538090564576,-3.9555172612094736 L-3.801763589087521,-4.082890803680506 L-3.6647946586985745,-4.205627318345887 L-3.5238326424059165,-4.323560468897798 L-3.3790685762789394,-4.436530428695521 L-3.230698649042167,-4.544384097367434 L-3.078923936194239,-4.646975308297343 L-2.923950127504207,-4.744165026713998 L-2.765987248254411,-4.835821538115292 L-2.605249374607748,-4.921820626771818 L-2.4419543434850546,-5.0020457440678525 L-2.276323457345802,-5.076388166451636 L-2.1085811842721762,-5.144747142780871 L-1.9389548537630177,-5.2070300308637885 L-1.7676743486498747,-5.263152423010695 L-1.5949717935527057,-5.313038260425874 L-1.4210812402974449,-5.356619936284816 L-1.246238350721743,-5.3938383873570634 L-1.0706800772987861,-5.424643174050531 L-0.894644342012006,-5.448992548768785 L-0.7183697139158853,-5.466853512488677 " />
			<path d="M51.27774156845056,-7.646479198348558 L51.40009185799455,-7.529241511850968 L51.51768694398707,-7.407177355138451 L51.63036745794291,-7.280452153318606 L51.73798069175636,-7.149237648291029 L51.84038080465598,-7.013711665997399 L51.93742902085244,-6.874057875426274 L52.02899381761182,-6.730465539699233 L52.11495110349921,-6.583129259575637 L52.1951843865513,-6.432248709723705 L52.269584932149826,-6.27802836811523 L52.338051910382134,-6.120677238910737 L52.40049253268895,-5.960408569210611 L52.45682217761429,-5.797439560056038 L52.50696450548709,-5.631991072071463 L52.550851561879064,-5.464287326147476 L52.58842386969864,-5.294555599569733 L52.61963050979616,-5.123025918005787 L52.64442918997108,-4.949930743767202 L52.66278630228764,-4.775504660769469 L52.674676968621405,-4.59998405661666 L52.68008507437486,-4.423606802241644 L52.67900329031637,-4.246611929536077 L52.67143308251306,-4.06923930740702 L52.65738471034387,-3.8917293166991915 L52.63687721259578,-3.7143225244234426 L52.60993838166185,-3.537259357732923 L52.57660472587611,-3.360779778088807 L52.53692142003632,-3.1851229560571115 L52.49094224418174,-3.010526947177377 L52.43872951070872,-2.837228369342467 L52.380353979923015,-2.6654620821266937 L52.31589476414328,-2.49546086849689 L52.24543922048559,-2.3274551193377717 L52.16908283247438,-2.161672521219095 L52.08692908064024,-1.998337747827792 L51.9990893022799,-1.837672155483276 L51.905682540568506,-1.679893483148541 L51.80683538322864,-1.5252155573435937 L51.702681790974715,-1.3738480023611692 L51.59336291596532,-1.2259959561774307 L51.47902691050945,-1.0818597924426516 L51.359828726285876,-0.9416348489286741 L51.23592990434797,-0.8055111628011473 L51.10749835619818,-0.6736732130752929 L50.97470813622924,-0.54629967060426 L50.83773920584029,-0.4235631559388806 L50.69677718954764,-0.3056300053869716 L50.55201312342066,-0.19266004558924665 L50.403643196183886,-0.08480637691733417 L50.251868483335954,0.017784834012576134 L50.096894674645924,0.11497455242923182 L49.93893179539613,0.2066310638305242 L49.77819392174947,0.29263015248705004 L49.614898890626776,0.3728552697830856 L49.44926800448752,0.44719769216686833 L49.28152573141389,0.5155566684961044 L49.11189940090473,0.5778395565790224 L48.940618895791594,0.6339619487259278 L48.76791634069443,0.6838477861411065 L48.594025787439165,0.7274294620000483 L48.41918289786346,0.7646479130722974 L48.24362462444051,0.7954526997657649 L48.06758888915372,0.8198020744840187 L47.89131426105762,0.837663038203909 " />
			<path d="M47.17294454714172,-9.43473106187562 L47.29047571589604,-9.443021381865051 L47.407936088269075,-9.448412030116485 L47.52525491052464,-9.450899759504988 L47.64236151419104,-9.450483071515396 L47.75918535862911,-9.447162217144975 L47.8756560735233,-9.440939196752222 L47.991703501270074,-9.43181775885193 L48.10725773923825,-9.419803397857214 L48.222249181875725,-9.404903350769892 L48.33660856263727,-9.387126592821183 L48.45026699570808,-9.36648383206536 L48.56315601749803,-9.342987502929617 L48.6752076278816,-9.316651758724042 L48.786354331158556,-9.287492463116187 L48.89652917671091,-9.255527180575392 L49.00566579933139,-9.220775165792597 L49.113698459199405,-9.183257352082048 L49.22056208148027,-9.142996338771844 L49.32619229552379,-9.100016377590945 L49.43052547363881,-9.054343358060844 L49.53349876942009,-9.00600479190068 L49.63505015560469,-8.95502979645521 L49.735118461434794,-8.901449077155618 L49.833643409504795,-8.845294909023696 L49.93056565207004,-8.786601117230585 L50.02582680679577,-8.72540305672176 L50.119369491924424,-8.66173759092053 L50.21113736084027,-8.595643069522884 L50.30107513601049,-8.527159305397085 L50.38912864228231,-8.456327550601866 L50.47524483951609,-8.383190471537747 L50.55937185453468,-8.307792123246397 " />
			<path d="M50.559371854534696,-8.307792123246383 L50.68172214407869,-8.19055443674879 L50.79931723007121,-8.068490280036276 L50.91199774402705,-7.941765078216431 L51.0196109778405,-7.810550573188854 L51.122011090740116,-7.675024590895223 L51.21905930693658,-7.535370800324099 L51.31062410369596,-7.391778464597056 L51.396581389583346,-7.244442184473462 L51.476814672635435,-7.093561634621529 L51.55121521823396,-6.939341293013054 L51.61968219646627,-6.781990163808562 L51.68212281877309,-6.621721494108436 L51.73845246369843,-6.4587524849538624 L51.78859479157123,-6.2933039969692866 L51.8324818479632,-6.1256002510453 L51.870054155782775,-5.955868524467557 L51.9012607958803,-5.784338842903611 L51.926059476055215,-5.6112436686650256 L51.94441658837178,-5.436817585667294 L51.95630725470554,-5.261296981514484 L51.961715360458996,-5.084919727139468 L51.96063357640051,-4.907924854433901 L51.9530633685972,-4.730552232304845 L51.93901499642801,-4.553042241597016 L51.918507498679915,-4.375635449321267 L51.891568667745986,-4.198572282630748 L51.85823501196025,-4.022092702986631 L51.81855170612046,-3.8464358809549357 L51.772572530265876,-3.6718398720752017 L51.720359796792856,-3.498541294240291 L51.66198426600715,-3.3267750070245174 L51.59752505022742,-3.1567737933947138 L51.52706950656973,-2.988768044235596 L51.45071311855852,-2.8229854461169195 L51.36855936672438,-2.659650672725616 L51.280719588364036,-2.4989850803811002 L51.187312826652644,-2.3412064080463653 L51.088465669312775,-2.186528482241418 L50.98431207705885,-2.0351609272589934 L50.87499320204946,-1.887308881075255 L50.760657196593584,-1.7431727173404759 L50.641459012370014,-1.6029477738264983 L50.51756019043211,-1.4668240876989715 L50.389128642282316,-1.3349861379731172 L50.25633842231338,-1.2076125955020842 L50.11936949192443,-1.0848760808367048 L49.978407475631776,-0.9669429302847958 L49.833643409504795,-0.8539729704870709 L49.68527348226802,-0.7461193018151584 L49.53349876942009,-0.6435280908852481 L49.37852496073006,-0.5463383724685924 L49.22056208148027,-0.4546818610673 L49.05982420783361,-0.3686827724107742 L48.896529176710914,-0.28845765511473864 L48.73089829057166,-0.2141152327309559 L48.56315601749803,-0.14575625640171985 L48.39352968698887,-0.08347336831880181 L48.22224918187573,-0.027350976171896413 L48.049546626778564,0.0225348612432823 L47.8756560735233,0.0661165371022241 L47.700813183947595,0.10333498817447317 L47.525254910524644,0.1341397748679407 L47.349219175237856,0.15848914958619442 L47.17294454714176,0.17635011330608474 " />
			<path d="M47.89131426105758,0.8376630382039116 L0.0,4.805540587590855 " />
			<path d="M-1.5772399693731018,0.9924900687861091 L-1.6104243595600878,0.9310572143824567 L-1.6410161286237648,0.8681254515782404 L-1.6689660268951232,0.8037960941772444 L-1.694229057851214,0.7381727059698799 L-1.7167645505550215,0.6713609340059075 L-1.7365362251315795,0.603468338513319 L-1.7535122511749166,0.5346042197372001 L-1.7676652989918076,0.4648794419773341 L-1.7789725835998271,0.39440625510783944 L-1.7874159014088802,0.32329811386617113 L-1.792981659527146,0.25166949520241233 L-1.7956608976442712,0.17963571398290834 L-1.795449302456562,0.10731273734493707 L-1.7923472146109733,0.03481699800129179 L-1.7863596281566994,-0.03773479320466688 L-1.7774961825052569,-0.11022583519172202 L-1.7657711469120037,-0.18253942467878503 L-1.7512033975040737,-0.25455914406543045 L-1.7338163868917122,-0.3261690488525153 L-1.7136381064119341,-0.39725385430115323 L-1.6907010410652876,-0.46769912102953803 L-1.6650421172182746,-0.5373914392488321 L-1.6367026431556164,-0.6062186113415101 L-1.6057282425780741,-0.6740698324882297 L-1.572168781152881,-0.740835869052439 L-1.5360782862350395,-0.8064092344355347 L-1.497514859888716,-0.8706843621194689 L-1.4565405853487674,-0.9335577756182167 L-1.413221427072979,-0.9949282550645024 L-1.367627124545931,-1.0546970001635994 L-1.3198310800054447,-1.1127677892518586 L-1.2699102402723692,-1.1690471342039024 L-1.2179449728739455,-1.223444430939097 L-1.1640189366601743,-1.2758721052850024 L-1.1082189471214914,-1.3262457539629735 L-1.050634836624564,-1.3744842804689463 L-0.9913593097912243,-1.4205100256306449 L-0.9304877942533569,-1.464248892631032 L-0.8681182870240194,-1.505630466296727 L-0.8043511967321135,-1.5445881264593475 L-0.7392891819745989,-1.581059155207274 L-0.673036986046486,-1.6149848378551757 L-0.6057012683146737,-1.6463105574687436 L-0.5373904325071038,-1.6749858827924577 L-0.4682144521936705,-1.7009646494388315 L-0.3982846937398422,-1.7242050342084305 L-0.3277137370180231,-1.7446696224210116 L-0.2566151941652888,-1.762325468149395 L-0.1851035266792831,-1.7771441472590879 L-0.11329386114672624,-1.7891018031682833 L-0.0413018039011982,-1.798179185254552 L0.03075674509142068,-1.80436167984641 L0.10276577882023041,-1.807639333749857 L0.17460936998892207,-1.808006870272017 L0.24617185764705507,-1.8054636977160836 L0.31733803339254774,-1.8000139103338904 L0.38799332684560717,-1.7916662817345816 L0.4580239900955083,-1.7804342507599795 L0.5273172808232826,-1.7663358998494052 L0.5957616438055016,-1.7493939259287692 L0.6632468905069602,-1.7296356038708078 L0.7296643764731261,-1.7070927425852809 L0.7949071762367763,-1.6818016338098296 L0.8588702554572307,-1.653802993683936 " />
			<path d="M9.578262852211516,-2.5956532302239586 L38.313051408846064,-4.976379759856124 " />
			<path d="M8.001022882838415,0.19891455890872067 L7.948815523693176,0.09916035156911018 L7.903420465389595,-0.004326155154390943 L7.865027493009078,-0.11111231075230321 L7.833797117709908,-0.22075166973054672 L7.809859905671312,-0.3327858580844061 L7.793315932229793,-0.4467464896425335 L7.784234363489851,-0.5621571242692507 L7.782653167158259,-0.6785352597384083 L7.78857895381083,-0.7953943489512866 L7.8019869492553005,-0.912245834065071 L7.822821098105864,-1.0286011890277336 L7.850994298136346,-1.1439739619800013 L7.88638876443224,-1.2578818089856632 L7.928856521819195,-1.3698485105876999 L7.978220023509208,-1.4794059627595426 L8.03427289337817,-1.5860961339278 L8.096780788771419,-1.6894729798846442 L8.165482380230225,-1.7891043085840996 L8.240090444043132,-1.8845735870260045 L8.32029306305454,-1.9754816826735169 L8.405754930710243,-2.0614485321237543 L8.496118752888007,-2.142114730055285 L8.591006741652564,-2.217143031809478 L8.690022194689933,-2.286219763323818 L8.792751153817942,-2.3490561325226142 L8.898764135639073,-2.4053894366825035 L9.007617927100256,-2.454984160725074 L9.118857438452832,-2.497632961844932 L9.232017605865922,-2.533157536356724 L9.346625335738885,-2.561409365137057 L9.462201482584161,-2.5822703345448144 L9.578262852211507,-2.595653230223958 " />
			<path d="M38.313051408846064,-4.976379759856124 L38.42491926292527,-4.982148752037974 L38.536352645039386,-4.98089643572832 L38.64691877062396,-4.972627674668695 L38.7561882233623,-4.957374583043251 L38.86373662295101,-4.935196400753803 L38.969146273306634,-4.9061792633441215 L39.07200778481225,-4.870435867467016 L39.1719216643033,-4.828105033193488 " />
			<path d="M46.31407429168447,-2.975387480600846 L46.28088990149749,-3.0368203350044984 L46.25029813243381,-3.099752097808715 L46.22234823416245,-3.164081455209711 L46.19708520320636,-3.2297048434170756 L46.17454971050255,-3.2965166153810483 L46.154778035926,-3.364409210873637 L46.13780200988266,-3.433273329649756 L46.12364896206577,-3.502998107409622 L46.11234167745775,-3.5734712942791163 L46.103898359648696,-3.6445794355207846 L46.09833260153043,-3.716208054184543 L46.09565336341331,-3.7882418354040475 L46.09586495860102,-3.8605648120420186 L46.09896704644661,-3.9330605513856636 L46.104954632900885,-4.005612342591622 L46.11381807855233,-4.078103384578677 L46.12554311414558,-4.15041697406574 L46.14011086355351,-4.222436693452385 L46.15749787416587,-4.29404659823947 L46.17767615464565,-4.365131403688108 L46.2006132199923,-4.435576670416492 L46.22627214383931,-4.505268988635787 L46.25461161790197,-4.574096160728464 L46.28558601847951,-4.641947381875184 L46.319145479904705,-4.708713418439392 L46.35523597482255,-4.774286783822488 L46.39379940116887,-4.838561911506421 L46.43477367570882,-4.901435325005169 L46.47809283398461,-4.962805804451454 L46.523687136511654,-5.022574549550551 L46.571483181052145,-5.080645338638809 L46.62140402078522,-5.136924683590853 L46.67336928818364,-5.191321980326048 L46.72729532439742,-5.243749654671952 L46.783095313936094,-5.294123303349923 L46.84067942443303,-5.3423618298558955 L46.899954951266366,-5.388387575017593 L46.960826466804235,-5.432126442017981 L47.02319597403357,-5.4735080156836755 L47.086963064325474,-5.512465675846295 L47.15202507908299,-5.548936704594221 L47.218277275011104,-5.5828623872421215 L47.28561299274291,-5.61418810685569 L47.353923828550485,-5.642863432179404 L47.42309980886392,-5.668842198825777 L47.49302956731775,-5.692082583595376 L47.563600524039565,-5.712547171807957 L47.6346990668923,-5.730203017536339 L47.7062107343783,-5.745021696646032 L47.778020399910865,-5.756979352555227 L47.85001245715639,-5.766056734641495 L47.92207100614901,-5.772239229233353 L47.99408003987782,-5.775516883136799 L48.06592363104651,-5.77588441965896 L48.13748611870464,-5.7733412471030245 L48.20865229445013,-5.767891459720832 L48.2793075879032,-5.759543831121523 L48.3493382511531,-5.7483118001469204 L48.41863154188087,-5.734213449236346 L48.48707590486309,-5.71727147531571 L48.55456115156455,-5.6975131532577485 L48.62097863753071,-5.674970291972221 L48.686221437294364,-5.64967918319677 L48.750184516514814,-5.621680543070875 " />
			<path d="M47.17294454714172,0.17635011330608774 L-0.7183697139158625,4.14422766269303 " />
			<path d="M1.0775545708737952,-0.8101083329998336 L1.075391301420572,-0.8983528651089683 L1.068906704566494,-0.986026347239886 L1.0581164022733667,-1.0729175662948451 L1.0430463893245332,-1.1588171937163698 L1.0237329707011644,-1.2435182897780834 L1.00022267412038,-1.3268168021206335 L0.9725721379459014,-1.4085120573316985 L0.9408479747412739,-1.488407244385816 L0.9051266107943665,-1.5663098887793807 L0.8654941019997484,-1.6420323162185828 L0.8220459265425046,-1.71539210474322 L0.7748867548829204,-1.7862125241971785 L0.7241301975961809,-1.8543229619868566 L0.6698985316745398,-1.9195593341018489 L0.6123224059513344,-1.981764480407699 L0.5515405263565161,-2.040788543258419 " />
			<path d="M0.5515405263565043,-2.04078854325843 L0.4876993217618586,-2.0964893285167365 L0.42095259122109385,-2.148732648112118 L0.35146113345440666,-2.197392643311696 L0.2793923594702894,-2.2423520879249224 L0.20491988925774884,-2.2835026707117407 L0.12822313352054493,-2.320745256313853 L0.04948686146109105,-2.3539901240804784 L-0.03109924434473843,-2.3831571842132604 L-0.1133410449095481,-2.4081761707096065 L-0.1970404125322468,-2.4289868106396426 L-0.28199570810503205,-2.4455389693489806 L-0.36800226687966464,-2.4577927712374916 L-0.4548528915227714,-2.4657186958231203 L-0.5423383512723702,-2.46929764885931 L-0.6302478859931039,-2.4685210083347187 L-0.7183697139158641,-2.4633906452443943 L-0.8064915418386243,-2.453918919082389 L-0.8944010765593577,-2.440128648066652 L-0.9818865363089568,-2.4220530541679457 L-1.0687371609520633,-2.399735683075207 L-1.154743719726696,-2.373230299290168 L-1.2396990152994816,-2.342600756603966 L-1.3233983829221798,-2.3079208442677626 L-1.4056401834869896,-2.269274109227977 L-1.4862262892928193,-2.226753654854374 L-1.5649625613522729,-2.1804619166458927 L-1.6416593170894767,-2.1305104154545527 L-1.7161317873020172,-2.0770194888219606 L-1.7882005612861347,-2.020118001075625 L-1.8576920190528219,-1.9599430328835092 L-1.9244387495935862,-1.896639551014693 L-1.9882799541882321,-1.8303600591017273 L-2.0490618337830617,-1.761264230246029 L-2.1066379595062674,-1.6895185223513915 L-2.1608696254279085,-1.6152957771123146 L-2.2116261827146477,-1.538774803623224 L-2.258785354374231,-1.4601399476117005 L-2.302233529831475,-1.3795806473334755 L-2.341866038626093,-1.297290977199081 L-2.377587402573001,-1.2134691802315944 L-2.4093115657776285,-1.1283171904818325 L-2.4369621019521075,-1.0420401465515368 L-2.4604723985328913,-0.9548458973965109 L-2.4797858171562606,-0.8669445016002839 L-2.4948558301050934,-0.7785477213245819 L-2.505646132398221,-0.6898685121557315 L-2.512130729252299,-0.601120510076003 L-2.514293998705522,-0.5125175167958139 L-2.5121307292522985,-0.42427298468668095 L-2.505646132398221,-0.3365995025557623 L-2.4948558301050934,-0.24970828350080265 L-2.4797858171562606,-0.16380865607927775 L-2.4604723985328913,-0.07910756001756414 L-2.436962101952107,0.004190952324985786 L-2.409311565777628,0.08588620753605092 L-2.377587402573001,0.16578139459016927 L-2.341866038626093,0.24368403898373459 L-2.302233529831475,0.31940646642293624 L-2.258785354374231,0.39276625494757356 L-2.2116261827146477,0.4635866744015308 L-2.1608696254279085,0.5316971121912081 L-2.1066379595062674,0.5969334843062003 L-2.0490618337830613,0.6591386306120514 L-1.9882799541882374,0.7181626934627766 " />
			<path d="M-1.988279954188232,0.7181626934627817 L-1.9406775741087912,0.7602573180213842 L-1.8914186847416539,0.8004253867692946 L-1.8405700432520111,0.8386124627016348 L-1.7882005612861345,0.874766793516048 L-1.734381211580183,0.9088393817490189 L-1.6791849317757683,0.9407840511787454 L-1.6226865255726137,0.9705575094045754 L-1.5649625613522726,0.9981194065182047 L-1.5060912684102998,1.0234323897871174 L-1.4461524309374973,1.0464621542761567 L-1.3852272798939207,1.0671774893386345 L-1.3233983829221798,1.0855503209139585 L-1.2607495324492208,1.1015557495744668 L-1.1973656321282484,1.1151720842698984 L-1.1333325817746798,1.1263808717237742 L-1.0687371609520635,1.135166921441844 L-1.0036669113657428,1.1415183262987152 L-0.938210018223636,1.1454264786747546 L-0.8724551907249272,1.1468860821213998 L-0.8064915418386243,1.1458951585390706 L-0.7404084675349148,1.142455050857949 L-0.6742955256329929,1.136570421218 L-0.6082423144295449,1.1282492446506946 L-0.5423383512723706,1.1175027982710048 L-0.4766729512437191,1.1043456459943037 L-0.4113351061177315,1.0887956187989039 L-0.34641336375605203,1.0708737905609635 L-0.2819957081050316,1.0506044494945206 L-0.21816943995717364,1.0280150652353575 L-0.1550210586384092,1.0031362516133009 L-0.09263614478154247,0.9760017251634182 L-0.031099244344738763,0.9466482594323299 L0.029506245967757527,0.9151156351415658 L0.08909819172741207,0.8814465862755049 L0.1475958320925127,0.8456867421669615 L0.20491988925774773,0.8078845656589063 L0.26099267589392827,0.7680912874261324 L0.31573820043225664,0.7263608365458606 L0.36908227005044125,0.6827497674113944 L0.4209525912210934,0.6373171830878627 L0.4712788676861499,0.5901246552139224 L0.5199928957245241,0.5412361405579761 L0.5670286565838902,0.4907178943419924 L0.6123224059513339,0.43863838045038206 L0.65581276034161,0.3850681786456337 L0.6974407802859313,0.3300798889164448 L0.7371500502085575,0.2737480330879758 L0.774886754882919,0.21614895382757782 L0.8105997523636714,0.15736071118285933 L0.8442406432958354,0.09746297679230065 L0.8757638365070963,0.03653692591179314 L0.9051266107943656,-0.02533487259656586 L0.9322891728208715,-0.08806856816434672 L0.9572147110453166,-0.1515791421536572 L0.9798694456100117,-0.21578052307702056 L1.0002226741203797,-0.28058570324411103 L1.0182468132537912,-0.3459068566772562 L1.0339174361413275,-0.41165545813590854 L1.0472133054718327,-0.4777424030887838 L1.0581164022733667,-0.5440781284710656 L1.0666119503330747,-0.6105727340630285 L1.0726884362223654,-0.6771361043255907 L1.0763376249002647,-0.7436780305276701 L1.0775545708737952,-0.8101083329998179 " />
			<path d="M8.859893138295652,-3.2569661551217823 L37.5946816949302,-5.637692684753947 " />
			<path d="M8.859893138295652,0.3471892855713581 L8.771771310372891,0.35231964866168264 L8.683861775652158,0.3530962891862739 L8.596376315902559,0.34951733615008407 L8.509525691259451,0.3415914115644556 L8.42351913248482,0.3293376096759446 L8.338563836912035,0.3127854509666066 L8.254864469289338,0.2919748110365705 L8.172622668724527,0.2669558245402244 L8.092036562918699,0.23778876440744234 L8.013300290859245,0.2045438966408175 L7.936603535122041,0.16730131103870538 L7.8621310649095,0.1261507282518861 L7.7900622909253805,0.08119128363865968 L7.7205708331586935,0.03253128843908182 L7.6538241026179294,-0.019712031156299936 L7.589982898023296,-0.07541281641459574 " />
			<path d="M7.589982898023283,-0.0754128164146064 L7.544101539444285,-0.11937694885120331 L7.500003382197091,-0.16515100761839707 L7.457748189463652,-0.21267295830083865 L7.417393226783607,-0.2618783976861796 L7.3789931844462515,-0.31270064104629136 L7.342600103372578,-0.3650708125104627 L7.308263304587812,-0.41891793840810365 L7.27602932238004,-0.4741690434544521 L7.245941841235509,-0.5307492496489271 L7.21804163663606,-0.5885818777521052 L7.192366519798942,-0.6475885512037893 L7.168951286433887,-0.7076893023413366 L7.147827669586885,-0.7688026807743021 L7.129024296634585,-0.8308458637685174 L7.112566650487596,-0.8937347684900128 L7.0984770350552555,-0.9573841659566663 L7.0867745450186845,-1.0217077965431465 L7.0774750399530895,-1.0866184868826159 L7.070591122834379,-1.1520282680067648 L7.066132122959217,-1.2178484945640684 L7.0641040833016735,-1.2839899649546997 L7.064509752323604,-1.350363042219287 L7.067348580249847,-1.4168777755176833 L7.072616719813294,-1.4834440220331198 L7.080307031468828,-1.5499715691365266 L7.090409093069051,-1.616370256645471 L7.1029092139887045,-1.682550099012014 L7.117790453678624,-1.7484214072738993 L7.135032644624091,-1.8138949106037987 L7.154612419676477,-1.878881877291891 L7.176503243721115,-1.9432942349978075 L7.200675449638514,-2.0070446901089825 L7.227096278510149,-2.0700468460436516 L7.255729924014353,-2.1322153203381564 L7.286537580952157,-2.193465860359896 L7.319477497837285,-2.253715457489089 L7.3545050334790565,-2.3128824596146136 L7.391572717481507,-2.3708866817914687 L7.430630314576726,-2.4276495149098776 L7.471624892705249,-2.48309403222878 L7.514500894751204,-2.5371450936293227 L7.559200213835041,-2.589729447447064 L7.605662272061758,-2.6407758297448862 L7.653824102617929,-2.690215060892081 L7.703620435106281,-2.737980139318718 L7.754983784002135,-2.7840063323182362 L7.807844540111882,-2.8282312637752023 L7.862131064909498,-2.870594998699349 L7.917769787623288,-2.9110401244513158 L7.974685304941261,-2.9495118285500315 L8.032800483200024,-2.9859579729562773 L8.092036562918697,-3.0203291647317627 L8.152313265536195,-3.05257882297796 L8.213548902207204,-3.0826632419639735 L8.275660484509425,-3.110541650357892 L8.338563836912034,-3.136176266481355 L8.402173710852969,-3.1595323495124488 L8.466403900270398,-3.1805782465675385 L8.531167358431835,-3.199285435598231 L8.596376315902559,-3.2156285640453346 L8.661942399493446,-3.2295854831974276 L8.727776752027056,-3.2411372782074777 L8.793790152759598,-3.2502682937268226 L8.859893138295643,-3.256966155121782 " />
			<path d="M37.5946816949302,-5.637692684753948 L37.682803522852964,-5.6428230478442725 L37.770713057573694,-5.643599688368864 L37.858198517323295,-5.640020735332674 L37.9450491419664,-5.632094810747045 L38.031055700741035,-5.619841008858534 L38.11601099631382,-5.603288850149196 L38.19971036393652,-5.58247821021916 L38.28195216450133,-5.557459223722814 L38.362538270307155,-5.528292163590032 L38.441274542366614,-5.495047295823406 L38.51797129810382,-5.4578047102212945 L38.59244376831636,-5.416654127434477 L38.66451254230047,-5.37169468282125 L38.73400400006716,-5.323034687621671 L38.80075073060792,-5.2707913680262894 L38.86459193520256,-5.2150905827679885 " />
			<path d="M38.86459193520257,-5.215090582767983 L38.91047329378157,-5.1711264503313865 L38.95457145102876,-5.125352391564193 L38.9968266437622,-5.077830440881751 L39.037181606442246,-5.02862500149641 L39.075581648779604,-4.977802758136299 L39.11197472985327,-4.925432586672127 L39.146311528638044,-4.871585460774487 L39.178545510845815,-4.816334355728138 L39.20863299199034,-4.759754149533664 L39.2365331965898,-4.701921521430485 L39.26220831342691,-4.642914847978801 L39.28562354679197,-4.582814096841254 L39.30674716363897,-4.5217007184082885 L39.325550536591265,-4.459657535414072 L39.342008182738255,-4.396768630692577 L39.3560977981706,-4.333119233225924 L39.36780028820717,-4.268795602639444 L39.37709979327276,-4.203884912299975 L39.383983710391476,-4.138475131175825 L39.38844271026664,-4.072654904618521 L39.390470749924184,-4.006513434227891 L39.39006508090225,-3.940140356963303 L39.387226252976006,-3.873625623664907 L39.38195811341256,-3.807059377149471 L39.37426780175703,-3.740531830046065 L39.3641657401568,-3.67413314253712 L39.351665619237146,-3.6079533001705766 L39.33678437954723,-3.5420819919086908 L39.319542188601766,-3.4766084885787905 L39.29996241354938,-3.4116215218906993 L39.27807158950474,-3.3472091641847843 L39.25389938358734,-3.283458709073608 L39.2274785547157,-3.2204565531389386 L39.1988449092115,-3.1582880788444347 L39.1680372522737,-3.097037538822696 L39.13509733538857,-3.0367879416935026 L39.1000697997468,-2.977620939567977 L39.06300211574435,-2.9196167173911216 L39.02394451864913,-2.8628538842727123 L38.982949940520605,-2.807409366953811 L38.940073938474654,-2.7533583055532684 L38.895374619390815,-2.7007739517355267 L38.8489125611641,-2.6497275694377045 L38.80075073060792,-2.6002883382905093 L38.750954398119575,-2.5525232598638716 L38.69959104922372,-2.5064970668643545 L38.646730293113976,-2.4622721354073884 L38.59244376831636,-2.4199084004832416 L38.53680504560256,-2.3794632747312745 L38.479889528284595,-2.340991570632558 L38.42177435002583,-2.3045454262263125 L38.362538270307155,-2.2701742344508276 L38.30226156768966,-2.2379245762046307 L38.24102593101865,-2.207840157218617 L38.17891434871643,-2.1799617488246983 L38.11601099631382,-2.154327132701235 L38.052401122372885,-2.1309710496701406 L37.988170932955455,-2.1099251526150513 L37.92340747479402,-2.0912179635843593 L37.858198517323295,-2.0748748351372557 L37.79263243373241,-2.0609179159851627 L37.7267980811988,-2.049366120975112 L37.66078468046626,-2.040235105455767 L37.594681694930216,-2.033537244060809 " />
			<path d="M37.5946816949302,-2.0335372440608075 L8.859893138295654,0.34718928557135786 " />
			<path d="M48.968868831931374,-4.777985882386776 L48.966705562478154,-4.866230414495911 L48.960220965624075,-4.953903896626828 L48.94943066333095,-5.040795115681788 L48.93436065038212,-5.126694743103313 L48.91504723175875,-5.211395839165026 L48.89153693517796,-5.294694351507577 L48.86388639900348,-5.376389606718641 L48.832162235798855,-5.456284793772759 L48.79644087185195,-5.534187438166323 L48.75680836305733,-5.609909865605525 L48.71336018760009,-5.683269654130163 L48.6662010159405,-5.754090073584121 L48.61544445865376,-5.822200511373799 L48.56121279273212,-5.887436883488792 L48.50363666700892,-5.949642029794642 L48.4428547874141,-6.0086660926453614 " />
			<path d="M48.442854787414085,-6.008666092645372 L48.37901358281944,-6.064366877903679 L48.312266852278675,-6.11661019749906 L48.24277539451199,-6.165270192698639 L48.170706620527874,-6.210229637311865 L48.09623415031533,-6.251380220098683 L48.01953739457813,-6.288622805700795 L47.94080112251867,-6.3218676734674215 L47.86021501671284,-6.351034733600203 L47.777973216148034,-6.376053720096549 L47.694273848525334,-6.396864360026585 L47.60931855295255,-6.413416518735923 L47.52331199417792,-6.425670320624434 L47.43646136953481,-6.433596245210063 L47.34897590978521,-6.437175198246253 L47.26106637506448,-6.436398557721661 L47.17294454714172,-6.431268194631337 L47.084822719218955,-6.421796468469331 L46.996913184498226,-6.408006197453595 L46.909427724748625,-6.389930603554888 L46.82257710010552,-6.3676132324621495 L46.736570541330885,-6.341107848677111 L46.6516152457581,-6.310478305990909 L46.5679158781354,-6.275798393654705 L46.48567407757059,-6.23715165861492 L46.405087971764765,-6.1946312042413165 L46.326351699705306,-6.148339466032835 L46.2496549439681,-6.098387964841495 L46.17518247375556,-6.044897038208903 L46.10311369977145,-5.987995550462568 L46.03362224200476,-5.927820582270452 L45.966875511463996,-5.864517100401636 L45.90303430686935,-5.7982376084886695 L45.842252427274516,-5.729141779632972 L45.784676301551315,-5.657396071738335 L45.730444635629674,-5.583173326499257 L45.679688078342934,-5.506652353010167 L45.63252890668335,-5.428017496998643 L45.589080731226105,-5.347458196720418 L45.54944822243149,-5.265168526586024 L45.51372685848458,-5.181346729618537 L45.48200269527995,-5.096194739868775 L45.454352159105476,-5.009917695938479 L45.43084186252469,-4.922723446783453 L45.41152844390132,-4.834822050987227 L45.396458430952485,-4.746425270711525 L45.38566812865936,-4.6577460615426745 L45.37918353180528,-4.568998059462945 L45.37702026235206,-4.480395066182757 L45.37918353180528,-4.3921505340736235 L45.38566812865936,-4.304477051942705 L45.396458430952485,-4.217585832887745 L45.41152844390132,-4.13168620546622 L45.43084186252469,-4.046985109404507 L45.454352159105476,-3.963686597061957 L45.48200269527995,-3.881991341850892 L45.51372685848458,-3.8020961547967733 L45.54944822243149,-3.7241935104032082 L45.589080731226105,-3.648471082964006 L45.63252890668335,-3.575111294439369 L45.679688078342934,-3.504290874985412 L45.730444635629674,-3.4361804371957345 L45.784676301551315,-3.3709440650807423 L45.842252427274516,-3.3087389187748912 L45.903034306869344,-3.249714855924166 " />
			<path d="M45.90303430686935,-3.249714855924161 L45.95063668694879,-3.207620231365558 L45.99989557631593,-3.167452162617648 L46.05074421780557,-3.129265086685308 L46.10311369977145,-3.0931107558708946 L46.156933049477395,-3.0590381676379237 L46.212129329281815,-3.027093498208197 L46.26862773548497,-2.997320039982367 L46.326351699705306,-2.969758142868738 L46.38522299264728,-2.944445159599825 L46.445161830120085,-2.921415395110786 L46.50608698116366,-2.900700060048308 L46.5679158781354,-2.882327228472984 L46.63056472860836,-2.866321799812476 L46.693948628929334,-2.8527054651170443 L46.7579816792829,-2.8414966776631685 L46.82257710010552,-2.8327106279450986 L46.88764734969184,-2.8263592230882275 L46.953104242833945,-2.822451070712188 L47.01885907033265,-2.820991467265543 L47.084822719218955,-2.821982390847872 L47.15090579352267,-2.8254224985289937 L47.21701873542459,-2.831307128168943 L47.283071946628034,-2.839628304736248 L47.34897590978521,-2.850374751115938 L47.41464130981386,-2.863531903392639 L47.47997915493985,-2.879081930588039 L47.54490089730153,-2.897003758825979 L47.60931855295255,-2.917273099892422 L47.67314482110041,-2.9398624841515852 L47.73629320241917,-2.964741297773642 L47.79867811627604,-2.9918758242235244 L47.86021501671284,-3.0212292899546127 L47.92082050702534,-3.0527619142453766 L47.980412452784996,-3.0864309631114377 L48.03891009315009,-3.1221908072199813 L48.09623415031533,-3.1599929837280363 L48.15230693695151,-3.19978626196081 L48.20705246148984,-3.241516712841082 L48.26039653110802,-3.2851277819755484 L48.312266852278675,-3.33056036629908 L48.36259312874373,-3.37775289417302 L48.41130715678211,-3.4266414088289663 L48.458342917641474,-3.47715965504495 L48.50363666700891,-3.5292391689365603 L48.54712702139919,-3.582809370741309 L48.58875504134351,-3.637797660470498 L48.628464311266136,-3.694129516298967 L48.6662010159405,-3.751728595559365 L48.70191401342125,-3.8105168382040833 L48.735554904353414,-3.870414572594642 L48.76707809756468,-3.9313406234751493 L48.79644087185195,-3.9932124219835083 L48.82360343387845,-4.055946117551289 L48.8485289721029,-4.1194566915405995 L48.871183706667594,-4.183658072463963 L48.89153693517796,-4.248463252631054 L48.90956107431137,-4.313784406064199 L48.92523169719891,-4.379533007522851 L48.938527566529416,-4.4456199524757265 L48.94943066333095,-4.511955677858008 L48.95792621139066,-4.578450283449971 L48.964002697279945,-4.6450136537125335 L48.96765188595785,-4.711555579914613 L48.968868831931374,-4.77798588238676 " />
			<path d="M7.723592275283811e-17,4.805540587590854 L-0.7183697139158636,4.14422766269303 " />
			<path d="M47.89131426105758,0.8376630382039116 L47.17294454714172,0.17635011330608763 " />
			<path d="M9.578262852211516,-2.5956532302239586 L8.859893138295652,-3.2569661551217823 " />
			<path d="M38.313051408846064,-4.976379759856124 L37.5946816949302,-5.637692684753948 " />
			<path d="M-4.104797021308846,3.017288724063792 L-3.386427307392982,3.6786016489616156 " />
			<path d="M50.559371854534696,-8.307792123246383 L51.27774156845056,-7.646479198348558 " />

       </g>
    </g>
    
</svg>
