<?xml version="1.0" encoding="UTF-8" standalone="no"?>
<svg
   xmlns:svg="http://www.w3.org/2000/svg"
   xmlns="http://www.w3.org/2000/svg"
   width="800.0"
   height="240.0"

>
    <g transform="scale(12.343219517923803, -12.343219517923803)   translate(5.912581839813066,-5.226974607941265)" stroke-width="0.08101613995828906"  fill="none">
       <!-- hidden lines -->
       <g  stroke="rgb(160,160,160)" fill="none" stroke-dasharray="0.08101613995828906,0.08101613995828906" >
			<path d="M6.938893903907227e-17,-4.805540587590854 L38.313051408846064,-7.979842627100408 " />
			<path d="M-3.3864273073929816,3.6786016489616156 L-3.5087775969369774,3.561363962464024 L-3.6263726829294956,3.439299805751507 L-3.7390531968853313,3.3125746039316635 L-3.846666430698786,3.181360098904087 L-3.9490665435983994,3.0458341166104552 L-4.046114759794863,2.9061803260393324 L-4.137679556554239,2.7625879903122894 L-4.22363684244163,2.6152517101886943 L-4.303870125493715,2.4643711603367606 L-4.378270671092245,2.3101508187282853 L-4.446737649324557,2.1527996895237944 L-4.509178271631372,1.9925310198236683 L-4.565507916556713,1.8295620106690935 L-4.615650244429511,1.6641135226845198 L-4.659537300821482,1.496409776760532 L-4.697109608641058,1.3266780501827897 L-4.72831624873858,1.1551483686188417 L-4.753114928913498,0.9820531943802571 L-4.77147204123006,0.8076271113825264 L-4.783362707563827,0.6321065072297167 L-4.788770813317276,0.4557292528546997 L-4.787689029258793,0.27873438014913443 L-4.7801188214554795,0.10136175802007719 L-4.766070449286287,-0.07614823268775295 L-4.745562951538197,-0.25355502496350457 L-4.718624120604268,-0.4306181916540228 L-4.685290464818525,-0.6070977712981378 L-4.645607158978741,-0.7827545933298319 L-4.599627983124162,-0.9573506022095641 L-4.547415249651134,-1.1306491800444773 L-4.489039718865431,-1.3024154672602533 L-4.4245805030857,-1.4724166808900547 L-4.354124959428009,-1.640422430049171 L-4.2777685714167974,-1.8062050281678503 L-4.195614819582653,-1.969539801559157 L-4.107775041222312,-2.1302053939036703 L-4.014368279510921,-2.2879840662384034 L-3.9155211221710537,-2.4426619920433508 L-3.811367529917134,-2.5940295470257735 L-3.702048654907743,-2.7418815932095137 L-3.587712649451861,-2.8860177569442946 L-3.468514465228295,-3.0262427004582713 L-3.344615643290385,-3.162366386585797 L-3.2161840951405942,-3.2942043363116498 L-3.0833938751716574,-3.421577878782682 L-2.946424944782711,-3.5443143934480634 L-2.805462928490053,-3.662247543999974 L-2.6606988623630756,-3.7752175037976974 L-2.512328935126303,-3.8830711724696103 L-2.3605542222783757,-3.9856623833995184 L-2.2055804135883434,-4.082852101816174 L-2.0476175343385474,-4.174508613217468 L-1.8868796606918845,-4.260507701873994 L-1.7235846295691908,-4.340732819170029 L-1.5579537434299386,-4.415075241553812 L-1.3902114703563129,-4.4834342178830475 L-1.220585139847154,-4.545717105965965 L-1.0493046347340111,-4.601839498112871 L-0.8766020796368421,-4.651725335528051 L-0.7027115263815813,-4.695307011386992 L-0.5278686368058794,-4.73252546245924 L-0.35231036338292254,-4.763330249152707 L-0.17627462809614247,-4.787679623870961 L-2.1760371282653068e-14,-4.805540587590853 " />
			<path d="M38.313051408846064,-7.979842627100409 L38.43058257760038,-7.988132947089838 L38.54804294997342,-7.993523595341272 L38.665361772228984,-7.996011324729775 L38.782468375895384,-7.995594636740184 L38.89929222033346,-7.992273782369763 L39.01576293522765,-7.98605076197701 L39.13181036297442,-7.976929324076717 L39.247364600942596,-7.964914963082001 L39.36235604358007,-7.9500149159946805 L39.47671542434161,-7.932238158045971 L39.59037385741242,-7.911595397290148 L39.70326287920238,-7.888099068154404 L39.815314489585944,-7.8617633239488285 L39.9264611928629,-7.832604028340974 L40.03663603841525,-7.800638745800178 L40.145772661035735,-7.7658867310173845 L40.25380532090375,-7.7283689173068355 L40.36066894318461,-7.688107903996631 L40.466299157228136,-7.645127942815733 L40.570632335343156,-7.599454923285631 L40.67360563112444,-7.5511163571254665 L40.77515701730903,-7.500141361679998 L40.87522532313914,-7.446560642380406 L40.97375027120914,-7.390406474248483 L41.07067251377438,-7.331712682455372 L41.16593366850012,-7.270514621946547 L41.25947635362877,-7.206849156145317 L41.351244222544615,-7.140754634747672 L41.441181997714835,-7.072270870621871 L41.529235503986655,-7.001439115826653 L41.61535170122043,-6.928302036762533 L41.69947871623903,-6.852903688471184 " />
			<path d="M1.795924284789659,-0.14879540810201053 L1.7947073388161279,-0.08236510562984611 L1.791058150138229,-0.015823179427767675 L1.7849816642489382,0.05074019083479464 L1.7764861161892302,0.1172347964267576 L1.7655830193876962,0.18357052180903954 L1.7522871500571913,0.2496574667619148 L1.7366165271696548,0.31540606822056716 L1.7185923880362437,0.3807272216537124 L1.6982391595258752,0.44553240182080267 L1.6755844249611807,0.509733782744166 L1.6506588867367353,0.5732443567334768 L1.6234963247102294,0.6359780523012575 L1.5941335504229603,0.6978498508096165 L1.5626103572116992,0.7587759016901239 L1.5289694662795352,0.8186736360806826 L1.493256468798783,0.8774618787254012 L1.4555197641244215,0.9350609579857991 L1.4158104942017953,0.9913928138142682 L1.374182474257474,1.0463811035434571 L1.330692119867198,1.0999513053482055 L1.2853983704997543,1.1520308192398159 L1.2383626096403881,1.2025490654557995 L1.189648581602014,1.2514375801117459 L1.1393223051369576,1.298630107985686 L1.0874519839663055,1.3440626923092178 L1.0341079143481209,1.387673761443684 L0.9793623898097923,1.4294042123239559 L0.9232896031736118,1.4691974905567298 L0.865965546008377,1.506999667064785 L0.8074679056432765,1.5427595111733285 L0.7478759598836215,1.5764285600393895 L0.6872704695711254,1.6079611843301533 L0.625733569134322,1.6373146500612417 L0.5633486552774548,1.6644491765111242 L0.5002002739586908,1.689327990133181 L0.4363740058108325,1.7119173743923444 L0.3719563501598122,1.7321867154587869 L0.30703460779813274,1.7501085436967272 L0.24169676267214524,1.7656585708921273 L0.17603136264349362,1.7788157231688286 L0.11012739948632011,1.7895621695485189 L0.04407418828287124,1.7978833461158237 L-0.022038753619050833,1.8037679757557727 L-0.0881218279227608,1.8072080834368949 L-0.15408547680906448,1.8081990070192238 L-0.2198403043077719,1.8067394035725783 L-0.2852971974498778,1.802831251196539 L-0.3503674470361995,1.7964798463396678 L-0.4149628678588164,1.787693796621598 L-0.4789959182123841,1.7764850091677227 L-0.5423798185333553,1.762868674472291 L-0.6050286690063149,1.7468632458117828 L-0.6668575659780565,1.7284904142364585 L-0.7277827170216331,1.707775079173981 L-0.7877215544944363,1.6847453146849412 L-0.8465928474364086,1.6594323314160289 L-0.904316811656749,1.6318704343023998 L-0.9608152178599043,1.6020969760765698 L-1.016011497664319,1.5701523066468432 L-1.0698308473702711,1.536079718413872 L-1.1222003293361482,1.4999253875994583 L-1.1730489708257898,1.461738311667119 L-1.2223078601929265,1.421570242919209 L-1.2699102402723565,1.3794756183606165 " />
			<path d="M-1.269910240272368,1.3794756183606058 L-1.3146041546654745,1.336694497252908 L-1.3576092029270979,1.2921961306485046 L-1.398870136662325,1.2460376854017656 L-1.438333948132445,1.1982784610627364 L-1.475949938353756,1.1489798136952678 L-1.511669782230327,1.0982050770531526 L-1.5454475906370304,1.0460194812155335 L-1.5772399693731018,0.9924900687861093 " />
			<path d="M0.8588702554572377,-1.6538029936839327 L0.9148419433385437,-1.626539034021862 L0.9696383378296068,-1.5971854668712218 L1.0231890422452685,-1.5657800026296411 L1.07542526023289,-1.5323629877578508 L1.1262798841547215,-1.4969773529467596 L1.1756875813007872,-1.4596685579645885 L1.2235848778215264,-1.4204845332549072 L1.2699102402723623,-1.3794756183606112 " />
			<path d="M1.2699102402723679,-1.379475618360606 L1.3306921198671975,-1.3204515555098757 L1.3882682455904034,-1.2582464092040249 L1.442499911512045,-1.1930100370890322 L1.4932564687987837,-1.1248995992993551 L1.5404156404583669,-1.0540791798453977 L1.5838638159156109,-0.9807193913207608 L1.623496324710229,-0.9049969638815588 L1.6592176886571373,-0.8270943194879936 L1.6909418518617647,-0.7471991324338754 L1.7185923880362433,-0.6655038772228101 L1.742102684617028,-0.5822053648802602 L1.7614161032403968,-0.4975042688185467 L1.7764861161892305,-0.4116046413970217 L1.7872764184823573,-0.32471342234206213 L1.7937610153364356,-0.2370399402111435 L1.7959242847896588,-0.14879540810201863 " />
			<path d="M11.374187137001176,-0.942370917979399 L11.372970191027644,-0.8759406155072346 L11.369321002349745,-0.8093986893051561 L11.363244516460455,-0.7428353190425938 L11.354748968400747,-0.6763407134506308 L11.343845871599212,-0.6100049880683489 L11.330550002268707,-0.5439180431154736 L11.314879379381171,-0.4781694416568213 L11.29685524024776,-0.41284828822367603 L11.276502011737392,-0.3480431080565858 L11.253847277172696,-0.2838417271332224 L11.228921738948252,-0.2203311531439116 L11.201759176921746,-0.15759745757613097 L11.172396402634476,-0.09572565906777197 L11.140873209423216,-0.034799608187264575 L11.107232318491052,0.025098126203294102 L11.0715193210103,0.0838863688480127 L11.033782616335937,0.14148544810841068 L10.99407334641331,0.1978173039368798 L10.95244532646899,0.2528055936660687 L10.908954972078714,0.30637579547081706 L10.86366122271127,0.3584553093624274 L10.816625461851904,0.4089735555784111 L10.76791143381353,0.45786207023435743 L10.717585157348474,0.5050545981082974 L10.665714836177822,0.5504871824318294 L10.612370766559637,0.5940982515662956 L10.557625242021308,0.6358287024465674 L10.501552455385127,0.6756219806793413 L10.444228398219893,0.7134241571873965 L10.385730757854793,0.7491840012959401 L10.326138812095138,0.782853050162001 L10.265533321782641,0.8143856744527649 L10.203996421345838,0.8437391401838532 L10.141611507488971,0.8708736666337358 L10.078463126170206,0.8957524802557926 L10.01463685802235,0.9183418645149559 L9.95021920237133,0.9386112055813984 L9.88529746000965,0.9565330338193387 L9.819959614883661,0.9720830610147388 L9.75429421485501,0.9852402132914402 L9.688390251697836,0.9959866596711304 L9.622337040494386,1.0043078362384352 L9.556224098592466,1.0101924658783843 L9.490141024288755,1.0136325735595064 L9.42417737540245,1.0146234971418353 L9.358422547903745,1.0131638936951899 L9.292965654761637,1.0092557413191505 L9.227895405175317,1.0029043364622794 L9.1632999843527,0.9941182867442095 L9.099266933999132,0.9829094992903342 L9.03588303367816,0.9692931645949026 L8.973234183205202,0.9532877359343943 L8.91140528623346,0.9349149043590701 L8.850480135189883,0.9141995692965925 L8.79054129771708,0.8911698048075527 L8.731670004775108,0.8658568215386404 L8.673946040554767,0.8382949244250113 L8.617447634351612,0.8085214661991813 L8.562251354547197,0.7765767967694548 L8.508432004841245,0.7425042085364835 L8.456062522875367,0.7063498777220698 L8.405213881385727,0.6681628017897305 L8.355954992018589,0.6279947330418205 L8.30835261193916,0.585900108483228 " />
			<path d="M8.308352611939148,0.5859001084832174 L8.263658697546042,0.5431189873755196 L8.220653649284419,0.49862062077111613 L8.179392715549191,0.45246217552437695 L8.13992890407907,0.4047029511853477 L8.102312913857759,0.3554043038178789 L8.066593069981188,0.3046295671757637 L8.032815261574486,0.25244397133814434 L8.001022882838413,0.19891455890872034 " />
			<path d="M10.437133107668753,-2.447378503561321 L10.49310479555006,-2.4201145438992504 L10.547901190041124,-2.39076097674861 L10.601451894456785,-2.3593555125070296 L10.653688112444406,-2.3259384976352395 L10.704542736366237,-2.290552862824148 L10.753950433512303,-2.253244067841977 L10.801847730033042,-2.214060043132296 L10.84817309248388,-2.173051128238 " />
			<path d="M10.848173092483885,-2.1730511282379945 L10.908954972078714,-2.114027065387264 L10.96653109780192,-2.051821919081413 L11.02076276372356,-1.9865855469664206 L11.0715193210103,-1.9184751091767436 L11.118678492669883,-1.8476546897227861 L11.162126668127128,-1.7742949011981493 L11.201759176921746,-1.6985724737589472 L11.237480540868653,-1.620669829365382 L11.269204704073282,-1.5407746423112638 L11.296855240247758,-1.4590793871001986 L11.320365536828543,-1.3757808747576488 L11.339678955451912,-1.2910797786959352 L11.354748968400747,-1.2051801512744102 L11.365539270693873,-1.1182889322194507 L11.372023867547952,-1.0306154500885318 L11.374187137001176,-0.9423709179794071 " />
			<path d="M20.952449989212692,-1.7359464278567875 L20.95123304323916,-1.669516125384623 L20.947583854561262,-1.6029741991825446 L20.94150736867197,-1.5364108289199823 L20.93301182061226,-1.4699162233280192 L20.92210872381073,-1.4035804979457374 L20.908812854480225,-1.337493552992862 L20.893142231592687,-1.2717449515342096 L20.875118092459275,-1.2064237981010644 L20.85476486394891,-1.1416186179339742 L20.832110129384212,-1.0774172370106108 L20.807184591159768,-1.0139066630213 L20.78002202913326,-0.9511729674535194 L20.750659254845992,-0.8893011689451604 L20.71913606163473,-0.828375118064653 L20.685495170702566,-0.7684773836740943 L20.649782173221816,-0.7096891410293757 L20.612045468547453,-0.6520900617689778 L20.57233619862483,-0.5957582059405087 L20.530708178680506,-0.5407699162113198 L20.48721782429023,-0.4871997144065714 L20.441924074922788,-0.43512020051496103 L20.39488831406342,-0.38460195429897737 L20.346174286025047,-0.335713439643031 L20.29584800955999,-0.288520911769091 L20.243977688389336,-0.24308832744555908 L20.19063361877115,-0.19947725831109286 L20.135888094232826,-0.15774680743082103 L20.079815307596643,-0.11795352919804714 L20.022491250431408,-0.08015135268999196 L19.963993610066307,-0.04439150858144836 L19.904401664306654,-0.010722459715387433 L19.843796173994157,0.020810164575376433 L19.782259273557354,0.05016363030646476 L19.719874359700487,0.07729815675634732 L19.656725978381722,0.10217697037840412 L19.592899710233866,0.12476635463756747 L19.528482054582845,0.14503569570400998 L19.463560312221166,0.1629575239419503 L19.398222467095177,0.1785075511373504 L19.332557067066524,0.19166470341405173 L19.266653103909352,0.20241114979374197 L19.200599892705903,0.21073232636104677 L19.134486950803982,0.21661695600099584 L19.06840387650027,0.22005706368211797 L19.002440227613967,0.22104798726444685 L18.93668540011526,0.21958838381780144 L18.871228506973154,0.21568023144176207 L18.806158257386834,0.20932882658489094 L18.741562836564217,0.2005427768668211 L18.67752978621065,0.18933398941294577 L18.614145885889677,0.1757176547175141 L18.551497035416716,0.15971222605700586 L18.489668138444976,0.14133939448168165 L18.4287429874014,0.12062405941920407 L18.368804149928597,0.09759429493016425 L18.309932856986624,0.07228131166125196 L18.252208892766284,0.04471941454762285 L18.19571048656313,0.014945956321792853 L18.140514206758713,-0.01699871310793366 L18.086694857052763,-0.051071301340904984 L18.034325375086883,-0.08722563215531864 L17.983476733597243,-0.12541270808765792 L17.934217844230105,-0.16558077683556793 L17.886615464150676,-0.2076754013941604 " />
			<path d="M17.886615464150665,-0.20767540139417107 L17.841921549757558,-0.2504565225018691 L17.798916501495935,-0.29495488910627277 L17.757655567760708,-0.3411133343530117 L17.718191756290587,-0.3888725586920412 L17.680575766069275,-0.43817120605951 L17.644855922192704,-0.4889459427016254 L17.611078113786,-0.5411315385392448 L17.57928573504993,-0.5946609509686688 " />
			<path d="M20.015395959880273,-3.2409540134387083 L20.071367647761576,-3.213690053776638 L20.12616404225264,-3.1843364866259973 L20.179714746668303,-3.152931022384417 L20.231950964655923,-3.1195140075126266 L20.282805588577755,-3.084128372701536 L20.33221328572382,-3.0468195777193645 L20.38011058224456,-3.0076355530096834 L20.426435944695395,-2.966626638115388 " />
			<path d="M20.4264359446954,-2.966626638115383 L20.48721782429023,-2.9076025752646526 L20.544793950013435,-2.845397428958802 L20.599025615935076,-2.7801610568438093 L20.649782173221816,-2.712050619054132 L20.6969413448814,-2.641230199600175 L20.740389520338642,-2.5678704110755377 L20.78002202913326,-2.4921479836363356 L20.81574339308017,-2.4142453392427705 L20.847467556284798,-2.3343501521886525 L20.875118092459275,-2.252654896977587 L20.89862838904006,-2.169356384635037 L20.91794180766343,-2.0846552885733236 L20.93301182061226,-1.9987556611517987 L20.94380212290539,-1.9118644420968391 L20.950286719759468,-1.8241909599659203 L20.952449989212692,-1.7359464278567955 " />
			<path d="M30.530712841424204,-2.529521937734176 L30.529495895450673,-2.4630916352620114 L30.525846706772775,-2.396549709059933 L30.519770220883483,-2.3299863387973705 L30.511274672823774,-2.2634917332054076 L30.50037157602224,-2.197156007823126 L30.487075706691737,-2.1310690628702504 L30.4714050838042,-2.065320461411598 L30.453380944670787,-1.9999993079784528 L30.43302771616042,-1.9351941278113627 L30.410372981595724,-1.8709927468879992 L30.38544744337128,-1.8074821728986885 L30.358284881344773,-1.7447484773309079 L30.328922107057505,-1.6828766788225489 L30.297398913846244,-1.6219506279420415 L30.26375802291408,-1.5620528935514828 L30.228045025433328,-1.5032646509067642 L30.190308320758966,-1.4456655716463662 L30.15059905083634,-1.389333715817897 L30.108971030892018,-1.3343454260887082 L30.065480676501743,-1.2807752242839598 L30.020186927134297,-1.2286957103923495 L29.97315116627493,-1.1781774641763658 L29.92443713823656,-1.1292889495204195 L29.874110861771502,-1.0820964216464795 L29.822240540600852,-1.0366638373229475 L29.768896470982664,-0.9930527681884813 L29.714150946444338,-0.9513223173082095 L29.658078159808156,-0.9115290390754356 L29.60075410264292,-0.8737268625673804 L29.54225646227782,-0.8379670184588368 L29.482664516518167,-0.8042979695927759 L29.42205902620567,-0.772765345302012 L29.360522125768867,-0.7434118795709237 L29.298137211912,-0.7162773531210411 L29.234988830593235,-0.6913985394989843 L29.171162562445378,-0.668809155239821 L29.106744906794358,-0.6485398141733785 L29.041823164432678,-0.6306179859354382 L28.97648531930669,-0.6150679587400381 L28.910819919278037,-0.6019108064633367 L28.844915956120865,-0.5911643600836465 L28.778862744917415,-0.5828431835163417 L28.712749803015495,-0.5769585538763926 L28.646666728711782,-0.5735184461952705 L28.58070307982548,-0.5725275226129416 L28.51494825232677,-0.573987126059587 L28.449491359184666,-0.5778952784356264 L28.384421109598346,-0.5842466832924975 L28.31982568877573,-0.5930327330105674 L28.25579263842216,-0.6042415204644427 L28.19240873810119,-0.6178578551598743 L28.12975988762823,-0.6338632838203826 L28.06793099065649,-0.6522361153957068 L28.007005839612912,-0.6729514504581844 L27.94706700214011,-0.6959812149472242 L27.888195709198136,-0.7212941982161365 L27.830471744977796,-0.7488560953297656 L27.773973338774642,-0.7786295535555956 L27.718777058970225,-0.8105742229853221 L27.664957709264275,-0.8446468112182934 L27.612588227298396,-0.8808011420327071 L27.561739585808755,-0.9189882179650464 L27.512480696441617,-0.9591562867129564 L27.46487831636219,-1.0012509112715489 " />
			<path d="M27.464878316362178,-1.0012509112715595 L27.42018440196907,-1.0440320323792576 L27.377179353707447,-1.0885303989836612 L27.33591841997222,-1.1346888442304002 L27.2964546085021,-1.1824480685694296 L27.258838618280787,-1.2317467159368984 L27.223118774404217,-1.2825214525790138 L27.189340965997513,-1.3347070484166332 L27.15754858726144,-1.3882364608460573 " />
			<path d="M29.593658812091785,-4.034529523316097 L29.64963049997309,-4.007265563654027 L29.704426894464152,-3.9779119965033862 L29.757977598879815,-3.9465065322618056 L29.810213816867435,-3.9130895173900155 L29.861068440789268,-3.877703882578924 L29.910476137935333,-3.840395087596753 L29.95837343445607,-3.801211062887072 L30.004698796906908,-3.7602021479927767 " />
			<path d="M30.00469879690691,-3.7602021479927714 L30.065480676501743,-3.701178085142041 L30.123056802224948,-3.63897293883619 L30.17728846814659,-3.5737365667211973 L30.228045025433328,-3.5056261289315205 L30.27520419709291,-3.434805709477563 L30.318652372550154,-3.361445920952926 L30.358284881344773,-3.285723493513724 L30.39400624529168,-3.207820849120159 L30.42573040849631,-3.1279256620660405 L30.453380944670787,-3.0462304068549755 L30.476891241251572,-2.9629318945124257 L30.49620465987494,-2.878230798450712 L30.511274672823774,-2.792331171029187 L30.5220649751169,-2.7054399519742276 L30.52854957197098,-2.6177664698433087 L30.530712841424204,-2.529521937734184 " />
			<path d="M40.10897569363572,-3.3230974476115644 L40.10775874766219,-3.2566671451394 L40.10410955898429,-3.1901252189373217 L40.098033073095,-3.1235618486747594 L40.0895375250353,-3.057067243082796 L40.07863442823376,-2.9907315177005143 L40.06533855890326,-2.924644572747639 L40.049667936015716,-2.8588959712889865 L40.03164379688231,-2.7935748178558413 L40.01129056837194,-2.7287696376887514 L39.988635833807244,-2.6645682567653877 L39.9637102955828,-2.601057682776077 L39.936547733556296,-2.5383239872082966 L39.907184959269024,-2.4764521886999376 L39.87566176605776,-2.41552613781943 L39.8420208751256,-2.355628403428871 L39.80630787764485,-2.2968401607841527 L39.76857117297049,-2.2392410815237547 L39.72886190304786,-2.1829092256952856 L39.68723388310354,-2.1279209359660967 L39.64374352871326,-2.0743507341613485 L39.59844977934582,-2.022271220269738 L39.551414018486454,-1.9717529740537543 L39.50269999044808,-1.922864459397808 L39.45237371398302,-1.875671931523868 L39.40050339281237,-1.830239347200336 L39.347159323194184,-1.7866282780658698 L39.29241379865586,-1.744897827185598 L39.23634101201968,-1.705104548952824 L39.17901695485444,-1.6673023724447689 L39.12051931448934,-1.6315425283362253 L39.060927368729686,-1.5978734794701643 L39.00032187841719,-1.5663408551794005 L38.93878497798038,-1.5369873894483121 L38.876400064123516,-1.5098528629984296 L38.813251682804754,-1.4849740493763728 L38.7494254146569,-1.4623846651172094 L38.68500775900588,-1.442115324050767 L38.620086016644194,-1.4241934958128266 L38.55474817151821,-1.4086434686174265 L38.48908277148956,-1.3954863163407252 L38.42317880833239,-1.384739869961035 L38.357125597128935,-1.3764186933937301 L38.291012655227014,-1.370534063753781 L38.2249295809233,-1.367093956072659 L38.158965932037,-1.36610303249033 L38.09321110453829,-1.3675626359369755 L38.027754211396186,-1.3714707883130148 L37.962683961809866,-1.377822193169886 L37.898088540987246,-1.3866082428879558 L37.83405549063368,-1.3978170303418311 L37.77067159031271,-1.4114333650372628 L37.70802273983975,-1.427438793697771 L37.64619384286801,-1.4458116252730953 L37.58526869182443,-1.4665269603355728 L37.525329854351625,-1.4895567248246127 L37.46645856140965,-1.514869708093525 L37.408734597189316,-1.542431605207154 L37.35223619098616,-1.572205063432984 L37.29703991118175,-1.6041497328627106 L37.243220561475795,-1.6382223210956819 L37.19085107950992,-1.6743766519100955 L37.140002438020275,-1.7125637278424348 L37.09074354865314,-1.7527317965903448 L37.043141168573705,-1.7948264211489373 " />
			<path d="M37.0431411685737,-1.794826421148948 L36.99844725418059,-1.837607542256646 L36.95544220591896,-1.8821059088610497 L36.91418127218374,-1.9282643541077886 L36.87471746071362,-1.976023578446818 L36.83710147049231,-2.025322225814287 L36.801381626615736,-2.0760969624564023 L36.76760381820903,-2.1282825582940217 L36.73581143947296,-2.181811970723446 " />
			<path d="M39.171921664303305,-4.828105033193484 L39.22789335218461,-4.800841073531414 L39.28268974667567,-4.771487506380774 L39.336240451091335,-4.740082042139194 L39.388476669078955,-4.7066650272674035 L39.43933129300079,-4.671279392456312 L39.48873899014686,-4.633970597474141 L39.536636286667594,-4.594786572764461 L39.582961649118424,-4.553777657870165 " />
			<path d="M39.58296164911843,-4.55377765787016 L39.64374352871326,-4.4947535950194295 L39.70131965443647,-4.432548448713579 L39.75555132035811,-4.367312076598586 L39.80630787764485,-4.299201638808909 L39.853467049304435,-4.228381219354952 L39.89691522476168,-4.155021430830315 L39.936547733556296,-4.079299003391113 L39.9722690975032,-4.001396358997548 L40.00399326070783,-3.9215011719434294 L40.03164379688231,-3.839805916732364 L40.055154093463095,-3.756507404389814 L40.074467512086464,-3.6718063083281005 L40.0895375250353,-3.5859066809065756 L40.10032782732842,-3.499015461851616 L40.1068124241825,-3.411341979720697 L40.10897569363572,-3.3230974476115724 " />
			<path d="M0.5515405263565044,-2.04078854325843 L1.269910240272368,-1.3794756183606058 " />
			<path d="M-1.988279954188232,0.7181626934627818 L-1.269910240272368,1.3794756183606058 " />
			<path d="M10.12980337856802,-2.8343640531358183 L10.848173092483885,-2.1730511282379945 " />
			<path d="M7.589982898023284,-0.07541281641460662 L8.308352611939148,0.5859001084832174 " />
			<path d="M19.708066230779536,-3.6279395630132063 L20.4264359446954,-2.9666266381153825 " />
			<path d="M17.1682457502348,-0.8689883262919951 L17.886615464150662,-0.20767540139417107 " />
			<path d="M29.286329082991053,-4.421515072890595 L30.004698796906915,-3.7602021479927714 " />
			<path d="M26.746508602446315,-1.6625638361693835 L27.464878316362178,-1.0012509112715595 " />
			<path d="M38.86459193520256,-5.215090582767983 L39.582961649118424,-4.553777657870159 " />
			<path d="M36.324771454657835,-2.4561393460467724 L37.0431411685737,-1.7948264211489484 " />

       </g>

       <!-- solid lines -->
       <g  stroke="rgb(0,0,0)" fill="none">
			<path d="M-0.7183697139158635,-5.466853512488678 L37.5946816949302,-8.641155551998231 " />
			<path d="M1.3322676295501878e-15,4.805540587590855 L-0.11753116875432035,4.813830907580284 L-0.23499154112736242,4.819221555831719 L-0.35231036338292476,4.821709285220221 L-0.46941696704931823,4.821292597230631 L-0.586240811487392,4.817971742860209 L-0.7027115263815817,4.811748722467456 L-0.8187589541283549,4.802627284567163 L-0.9343131920965317,4.790612923572447 L-1.049304634734009,4.775712876485127 L-1.1636640154955502,4.757936118536418 L-1.277322448566358,4.737293357780594 L-1.3902114703563107,4.71379702864485 L-1.5022630807398771,4.687461284439275 L-1.6134097840168402,4.658301988831421 L-1.7235846295691886,4.626336706290625 L-1.832721252189665,4.5915846915078316 L-1.9407539120576847,4.5540668777972835 L-2.047617534338543,4.513805864487079 L-2.153247748382067,4.470825903306181 L-2.257580926497086,4.425152883776079 L-2.360554222278371,4.376814317615915 L-2.462105608462962,4.325839322170447 L-2.562173914293078,4.272258602870853 L-2.660698862363073,4.216104434738929 L-2.7576211049283197,4.157410642945818 L-2.8528822596540557,4.0962125824369915 L-2.946424944782711,4.032547116635761 L-3.0381928136985548,3.9664525952381173 L-3.1281305888687725,3.8979688311123177 L-3.216184095140593,3.8271370763170993 L-3.3023002923743694,3.75399999725298 L-3.3864273073929505,3.678601648961644 " />
			<path d="M-0.7183697139158622,4.144227662693031 L-0.8359008826701839,4.15251798268246 L-0.953361255043226,4.157908630933895 L-1.0706800772987883,4.160396360322397 L-1.1877866809651818,4.159979672332807 L-1.3046105254032556,4.156658817962385 L-1.4210812402974453,4.150435797569632 L-1.5371286680442184,4.141314359669339 L-1.6526829060123953,4.1292999986746235 L-1.7676743486498725,4.114399951587303 L-1.8820337294114138,4.096623193638594 L-1.9956921624822215,4.07598043288277 L-2.1085811842721744,4.052484103747026 L-2.2206327946557405,4.026148359541451 L-2.331779497932704,3.996989063933597 L-2.441954343485052,3.9650237813928015 L-2.5510909661055283,3.9302717666100078 L-2.6591236259735482,3.8927539528994597 L-2.7659872482544063,3.852492939589255 L-2.8716174622979302,3.809512978408357 L-2.9759506404129494,3.763839958878255 L-3.0789239361942347,3.7155013927180915 L-3.1804753223788254,3.664526397272623 L-3.2805436282089415,3.610945677973029 L-3.3790685762789368,3.554791509841105 L-3.475990818844183,3.496097718047994 L-3.571251973569919,3.4348996575391677 L-3.6647946586985745,3.371234191737937 L-3.7565625276144186,3.3051396703402935 L-3.8465003027846363,3.236655906214494 L-3.9345538090564567,3.1658241514192755 L-4.020670006290233,3.0926870723551563 L-4.104797021308814,3.01728872406382 " />
			<path d="M-4.104797021308845,3.017288724063792 L-4.227147310852841,2.9000510375662003 L-4.344742396845359,2.777986880853683 L-4.457422910801195,2.6512616790338397 L-4.565036144614649,2.520047174006263 L-4.667436257514263,2.3845211917126314 L-4.764484473710726,2.2448674011415086 L-4.856049270470102,2.1012750654144656 L-4.9420065563574935,1.9539387852908705 L-5.022239839409578,1.8030582354389368 L-5.096640385008109,1.6488378938304615 L-5.165107363240421,1.4914867646259706 L-5.227547985547235,1.3312180949258443 L-5.283877630472577,1.1682490857712695 L-5.334019958345374,1.0028005977866958 L-5.377907014737345,0.8350968518627081 L-5.415479322556921,0.6653651252849658 L-5.446685962654444,0.49383544372101784 L-5.4714846428293615,0.32074026948243317 L-5.489841755145924,0.1463141864847025 L-5.501732421479691,-0.029206417668107165 L-5.5071405272331395,-0.20558367204312422 L-5.506058743174656,-0.38257854474868946 L-5.498488535371343,-0.5599511668777467 L-5.484440163202151,-0.7374611575855768 L-5.4639326654540605,-0.9148679498613285 L-5.436993834520131,-1.0919311165518466 L-5.4036601787343885,-1.2684106961959616 L-5.363976872894605,-1.4440675182276559 L-5.317997697040026,-1.6186635271073881 L-5.265784963566998,-1.7919621049423013 L-5.2074094327812945,-1.9637283921580773 L-5.142950217001563,-2.1337296057878787 L-5.072494673343872,-2.3017353549469948 L-4.996138285332661,-2.4675179530656743 L-4.913984533498517,-2.6308527264569808 L-4.826144755138175,-2.791518318801494 L-4.732737993426785,-2.9492969911362272 L-4.633890836086917,-3.1039749169411746 L-4.529737243832997,-3.2553424719235973 L-4.420418368823607,-3.4031945181073375 L-4.306082363367724,-3.5473306818421184 L-4.186884179144158,-3.687555625356095 L-4.062985357206249,-3.823679311483621 L-3.9345538090564576,-3.9555172612094736 L-3.801763589087521,-4.082890803680506 L-3.6647946586985745,-4.205627318345887 L-3.5238326424059165,-4.323560468897798 L-3.3790685762789394,-4.436530428695521 L-3.230698649042167,-4.544384097367434 L-3.078923936194239,-4.646975308297343 L-2.923950127504207,-4.744165026713998 L-2.765987248254411,-4.835821538115292 L-2.605249374607748,-4.921820626771818 L-2.4419543434850546,-5.0020457440678525 L-2.276323457345802,-5.076388166451636 L-2.1085811842721762,-5.144747142780871 L-1.9389548537630177,-5.2070300308637885 L-1.7676743486498747,-5.263152423010695 L-1.5949717935527057,-5.313038260425874 L-1.4210812402974449,-5.356619936284816 L-1.246238350721743,-5.3938383873570634 L-1.0706800772987861,-5.424643174050531 L-0.894644342012006,-5.448992548768785 L-0.7183697139158853,-5.466853512488677 " />
			<path d="M41.69947871623904,-6.852903688471169 L41.821829005783044,-6.735666001973579 L41.93942409177556,-6.613601845261062 L42.052104605731394,-6.486876643441217 L42.15971783954485,-6.355662138413641 L42.26211795244446,-6.220136156120011 L42.359166168640925,-6.080482365548886 L42.450730965400304,-5.9368900298218445 L42.53668825128769,-5.789553749698249 L42.61692153433978,-5.638673199846316 L42.69132207993831,-5.484452858237841 L42.759789058170625,-5.327101729033348 L42.822229680477434,-5.166833059333223 L42.878559325402776,-5.00386405017865 L42.928701653275574,-4.838415562194074 L42.97258870966755,-4.670711816270087 L43.01016101748712,-4.500980089692344 L43.041367657584644,-4.329450408128398 L43.06616633775956,-4.156355233889814 L43.08452345007613,-3.981929150892081 L43.09641411640989,-3.8064085467392714 L43.10182222216334,-3.6300312923642557 L43.10074043810486,-3.4530364196586887 L43.093170230301546,-3.2756637975296323 L43.07912185813235,-3.098153806821803 L43.05861436038426,-2.920747014546054 L43.03167552945033,-2.7436838478555345 L42.998341873664586,-2.5672042682114187 L42.958658567824806,-2.391547446179723 L42.91267939197023,-2.216951437299989 L42.8604666584972,-2.0436528594650785 L42.8020911277115,-1.871886572249305 L42.737631911931764,-1.7018853586195013 L42.66717636827407,-1.5338796094603833 L42.590819980262864,-1.3680970113417066 L42.50866622842872,-1.2047622379504035 L42.420826450068375,-1.0440966456058876 L42.32741968835698,-0.8863179732711526 L42.22857253101712,-0.7316400474662053 L42.1244189387632,-0.5802724924837808 L42.015100063753806,-0.4324204463000423 L41.90076405829793,-0.2882842825652632 L41.78156587407436,-0.14805933905128565 L41.65766705213645,-0.011935652923758866 L41.52923550398666,0.11990229680209552 L41.39644528401772,0.24727583927312846 L41.25947635362878,0.37001235393850784 L41.11851433733612,0.48794550449041685 L40.97375027120914,0.6009154642881418 L40.82538034397237,0.7087691329600543 L40.67360563112444,0.8113603438899646 L40.51863182243441,0.9085500623066203 L40.36066894318461,1.0002065737079127 L40.19993106953795,1.0862056623644385 L40.03663603841526,1.166430779660474 L39.871005152276005,1.2407732020442568 L39.70326287920238,1.3091321783734928 L39.53363654869322,1.3714150664564109 L39.36235604358008,1.4275374586033163 L39.18965348848291,1.477423296018495 L39.01576293522765,1.5210049718774368 L38.84092004565194,1.5582234229496859 L38.66536177222899,1.5890282096431534 L38.4893260369422,1.613377584361407 L38.31305140884611,1.6312385480812974 " />
			<path d="M37.5946816949302,-8.641155551998231 L37.71221286368452,-8.649445871987663 L37.82967323605756,-8.654836520239096 L37.94699205831312,-8.6573242496276 L38.06409866197952,-8.656907561638008 L38.180922506417595,-8.653586707267586 L38.297393221311786,-8.647363686874833 L38.41344064905856,-8.63824224897454 L38.528994887026734,-8.626227887979825 L38.64398632966421,-8.611327840892503 L38.75834571042575,-8.593551082943794 L38.87200414349656,-8.57290832218797 L38.984893165286515,-8.549411993052228 L39.09694477567008,-8.523076248846653 L39.20809147894704,-8.493916953238799 L39.31826632449939,-8.461951670698003 L39.42740294711987,-8.427199655915208 L39.53543560698789,-8.38968184220466 L39.64229922926875,-8.349420828894456 L39.74792944331227,-8.306440867713556 L39.85226262142729,-8.260767848183455 L39.955235917208576,-8.21242928202329 L40.056787303393165,-8.161454286577822 L40.15685560922328,-8.10787356727823 L40.25538055729328,-8.051719399146307 L40.35230279985852,-7.993025607353196 L40.447563954584254,-7.931827546844371 L40.54110663971291,-7.868162081043141 L40.63287450862875,-7.802067559645495 L40.72281228379897,-7.733583795519695 L40.81086579007079,-7.6627520407244765 L40.89698198730457,-7.589614961660358 L40.981109002323166,-7.514216613369007 " />
			<path d="M40.98110900232318,-7.514216613368994 L41.10345929186718,-7.396978926871403 L41.221054377859694,-7.274914770158886 L41.33373489181553,-7.148189568339042 L41.441348125628984,-7.016975063311465 L41.5437482385286,-6.881449081017834 L41.64079645472506,-6.74179529044671 L41.73236125148444,-6.5982029547196674 L41.81831853737183,-6.450866674596073 L41.89855182042392,-6.29998612474414 L41.97295236602245,-6.145765783135665 L42.04141934425476,-5.988414653931173 L42.10385996656157,-5.828145984231047 L42.16018961148691,-5.6651769750764736 L42.21033193935971,-5.499728487091898 L42.254218995751685,-5.332024741167911 L42.29179130357126,-5.162293014590168 L42.32299794366878,-4.990763333026222 L42.3477966238437,-4.817668158787637 L42.366153736160264,-4.643242075789905 L42.37804440249403,-4.467721471637095 L42.38345250824748,-4.291344217262079 L42.382370724188995,-4.114349344556512 L42.37480051638568,-3.936976722427456 L42.36075214421649,-3.759466731719627 L42.3402446464684,-3.582059939443878 L42.31330581553447,-3.4049967727533583 L42.27997215974872,-3.2285171931092425 L42.24028885390894,-3.052860371077547 L42.19430967805437,-2.878264362197813 L42.14209694458134,-2.7049657843629022 L42.08372141379564,-2.5331994971471286 L42.0192621980159,-2.363198283517325 L41.94880665435821,-2.195192534358207 L41.872450266347,-2.0294099362395306 L41.79029651451286,-1.8660751628482273 L41.70245673615251,-1.7054095705037113 L41.60904997444112,-1.5476308981689764 L41.51020281710126,-1.392952972364029 L41.40604922484734,-1.2415854173816046 L41.296730349837944,-1.093733371197866 L41.18239434438207,-0.949597207463087 L41.0631961601585,-0.8093722639491094 L40.93929733822059,-0.6732485778215826 L40.8108657900708,-0.5414106280957283 L40.67807557010186,-0.4140370856246953 L40.541106639712915,-0.29130057095931594 L40.40014462342026,-0.17336742040740694 L40.25538055729328,-0.060397460609681985 L40.10701063005651,0.0474562080622305 L39.955235917208576,0.1500474189921408 L39.800262108518545,0.2472371374087965 L39.64229922926875,0.3388936488100889 L39.48156135562209,0.4248927374666147 L39.3182663244994,0.5051178547626503 L39.15263543836014,0.579460277146433 L38.984893165286515,0.647819253475669 L38.815266834777354,0.7101021415585871 L38.643986329664216,0.7662245337054925 L38.47128377456705,0.8161103711206712 L38.297393221311786,0.859692046979613 L38.12255033173608,0.8969104980518621 L37.94699205831313,0.9277152847453296 L37.77095632302634,0.9520646594635833 L37.594681694930244,0.9699256231834736 " />
			<path d="M38.313051408846064,1.6312385480813 L0.0,4.805540587590854 " />
			<path d="M-1.5772399693731023,0.9924900687861087 L-1.610424359560088,0.931057214382456 L-1.6410161286237652,0.8681254515782397 L-1.6689660268951236,0.8037960941772437 L-1.694229057851214,0.7381727059698793 L-1.7167645505550215,0.6713609340059067 L-1.7365362251315795,0.6034683385133184 L-1.753512251174917,0.5346042197371995 L-1.7676652989918076,0.46487944197733333 L-1.7789725835998276,0.3944062551078389 L-1.7874159014088802,0.3232981138661708 L-1.7929816595271462,0.2516694952024121 L-1.795660897644271,0.17963571398290779 L-1.795449302456562,0.10731273734493652 L-1.7923472146109736,0.034816998001291344 L-1.7863596281566991,-0.037734793204667216 L-1.7774961825052564,-0.11022583519172291 L-1.7657711469120032,-0.1825394246787857 L-1.7512033975040735,-0.2545591440654308 L-1.7338163868917122,-0.32616904885251585 L-1.713638106411934,-0.39725385430115345 L-1.6907010410652878,-0.4676991210295385 L-1.6650421172182743,-0.5373914392488327 L-1.6367026431556164,-0.6062186113415107 L-1.6057282425780737,-0.6740698324882303 L-1.5721687811528808,-0.7408358690524394 L-1.5360782862350393,-0.806409234435535 L-1.4975148598887158,-0.8706843621194692 L-1.4565405853487672,-0.933557775618217 L-1.4132214270729788,-0.9949282550645027 L-1.3676271245459308,-1.0546970001635996 L-1.3198310800054445,-1.112767789251859 L-1.269910240272369,-1.1690471342039028 L-1.2179449728739449,-1.2234444309390977 L-1.1640189366601736,-1.2758721052850026 L-1.1082189471214907,-1.3262457539629742 L-1.0506348366245635,-1.3744842804689468 L-0.9913593097912236,-1.4205100256306453 L-0.9304877942533561,-1.4642488926310322 L-0.8681182870240187,-1.5056304662967275 L-0.8043511967321132,-1.5445881264593475 L-0.7392891819745989,-1.581059155207274 L-0.673036986046486,-1.6149848378551757 L-0.6057012683146737,-1.6463105574687436 L-0.5373904325071038,-1.6749858827924577 L-0.4682144521936705,-1.7009646494388315 L-0.3982846937398422,-1.7242050342084305 L-0.3277137370180231,-1.7446696224210116 L-0.2566151941652888,-1.762325468149395 L-0.1851035266792831,-1.7771441472590879 L-0.11329386114672624,-1.7891018031682833 L-0.0413018039011982,-1.798179185254552 L0.03075674509142068,-1.80436167984641 L0.10276577882023041,-1.807639333749857 L0.17460936998892207,-1.808006870272017 L0.24617185764705507,-1.8054636977160836 L0.31733803339254774,-1.8000139103338904 L0.38799332684560717,-1.7916662817345816 L0.4580239900955083,-1.7804342507599795 L0.5273172808232826,-1.7663358998494052 L0.5957616438055016,-1.7493939259287692 L0.6632468905069602,-1.7296356038708078 L0.7296643764731261,-1.7070927425852809 L0.7949071762367763,-1.6818016338098296 L0.8588702554572307,-1.653802993683936 " />
			<path d="M8.001022882838413,0.19891455890871934 L7.967838492651428,0.1374817045050668 L7.937246723587751,0.07454994170085061 L7.909296825316392,0.010220584299854618 L7.884033794360302,-0.055402803907509734 L7.8614983016564945,-0.12221457587148243 L7.841726627079936,-0.19010717136407052 L7.824750601036599,-0.2589712901401897 L7.810597553219708,-0.32869606790005546 L7.7992902686116885,-0.39916925476955023 L7.790846950802636,-0.47027739601121876 L7.785281192684369,-0.5419060146749772 L7.7826019545672445,-0.6139397958944814 L7.7828135497549535,-0.6862627725324528 L7.785915637600542,-0.758758511876098 L7.791903224054817,-0.8313103030820567 L7.80076666970626,-0.9038013450691118 L7.812491705299513,-0.9761149345561744 L7.827059454707443,-1.04813465394282 L7.844446465319804,-1.119744558729905 L7.864624745799582,-1.1908293641785428 L7.887561811146229,-1.2612746309069278 L7.913220734993242,-1.3309669491262217 L7.9415602090559005,-1.3997941212188996 L7.972534609633443,-1.4676453423656195 L8.006094071058635,-1.5344113789298284 L8.042184565976477,-1.5999847443129243 L8.0807479923228,-1.6642598719968584 L8.121722266862749,-1.727133285495606 L8.165041425138538,-1.7885037649418918 L8.210635727665586,-1.8482725100409887 L8.258431772206073,-1.906343299129248 L8.308352611939148,-1.9626226440812915 L8.360317879337572,-2.0170199408164864 L8.414243915551342,-2.069447615162391 L8.470043905090025,-2.119821263840363 L8.527628015586952,-2.1680597903463354 L8.586903542420293,-2.2140855355080338 L8.64777505795816,-2.2578244025084206 L8.710144565187498,-2.299205976174116 L8.773911655479404,-2.338163636336736 L8.838973670236918,-2.3746346650846624 L8.905225866165031,-2.408560347732564 L8.972561583896843,-2.4398860673461322 L9.040872419704414,-2.468561392669846 L9.110048400017845,-2.4945401593162204 L9.179978158471675,-2.517780544085819 L9.250549115193493,-2.5382451322984005 L9.321647658046228,-2.5559009780267834 L9.393159325532233,-2.5707196571364768 L9.46496899106479,-2.5826773130456715 L9.536961048310317,-2.5917546951319403 L9.609019597302936,-2.5979371897237984 L9.681028631031747,-2.6012148436272455 L9.752872222200438,-2.6015823801494053 L9.824434709858572,-2.599039207593472 L9.895600885604065,-2.593589420211279 L9.966256179057122,-2.58524179161197 L10.036286842307025,-2.574009760637368 L10.105580133034799,-2.5599114097267934 L10.174024496017017,-2.5429694358061576 L10.241509742718476,-2.5232111137481965 L10.307927228684642,-2.5006682524626695 L10.373170028448293,-2.475377143687218 L10.437133107668746,-2.4473785035613247 " />
			<path d="M17.57928573504993,-0.5946609509686698 L17.546101344862944,-0.6560938053723223 L17.515509575799268,-0.7190255681765385 L17.48755967752791,-0.7833549255775347 L17.46229664657182,-0.8489783137848992 L17.43976115386801,-0.915790085748872 L17.419989479291452,-0.9836826812414602 L17.403013453248114,-1.0525468000175793 L17.388860405431224,-1.122271577777445 L17.377553120823205,-1.1927447646469398 L17.36910980301415,-1.263852905888608 L17.363544044895885,-1.335481524552367 L17.36086480677876,-1.407515305771871 L17.36107640196647,-1.4798382824098424 L17.36417848981206,-1.5523340217534876 L17.370166076266333,-1.6248858129594461 L17.379029521917776,-1.6973768549465016 L17.39075455751103,-1.7696904444335648 L17.405322306918958,-1.8417101638202098 L17.42270931753132,-1.913320068607295 L17.442887598011097,-1.984404874055933 L17.465824663357743,-2.0548501407843176 L17.49148358720476,-2.124542459003612 L17.519823061267417,-2.1933696310962896 L17.550797461844958,-2.2612208522430093 L17.584356923270153,-2.327986888807218 L17.620447418187993,-2.393560254190314 L17.65901084453432,-2.4578353818742484 L17.699985119074267,-2.520708795372996 L17.743304277350056,-2.582079274819282 L17.788898579877102,-2.6418480199183785 L17.83669462441759,-2.699918809006638 L17.886615464150665,-2.7561981539586817 L17.938580731549088,-2.810595450693876 L17.992506767762862,-2.8630231250397813 L18.048306757301543,-2.9133967737177526 L18.105890867798472,-2.9616353002237252 L18.16516639463181,-3.0076610453854236 L18.226037910169676,-3.051399912385811 L18.288407417399014,-3.092781486051506 L18.352174507690922,-3.1317391462141257 L18.417236522448437,-3.168210174962052 L18.48348871837655,-3.202135857609954 L18.55082443610836,-3.2334615772235216 L18.61913527191593,-3.262136902547236 L18.688311252229365,-3.2881156691936093 L18.758241010683193,-3.311356053963208 L18.828811967405013,-3.3318206421757894 L18.899910510257747,-3.3494764879041723 L18.97142217774375,-3.3642951670138657 L19.04323184327631,-3.3762528229230604 L19.115223900521837,-3.3853302050093297 L19.187282449514456,-3.3915126996011873 L19.259291483243267,-3.394790353504634 L19.331135074411957,-3.395157890026794 L19.40269756207009,-3.3926147174708596 L19.473863737815584,-3.3871649300886673 L19.544519031268642,-3.3788173014893585 L19.614549694518544,-3.367585270514756 L19.68384298524632,-3.3534869196041814 L19.752287348228535,-3.3365449456835456 L19.819772594929994,-3.316786623625584 L19.88619008089616,-3.2942437623400567 L19.951432880659812,-3.2689526535646056 L20.015395959880266,-3.2409540134387114 " />
			<path d="M27.15754858726144,-1.3882364608460582 L27.124364197074456,-1.4496693152497109 L27.09377242801078,-1.512601078053927 L27.06582252973942,-1.5769304354549232 L27.04055949878333,-1.6425538236622876 L27.01802400607952,-1.7093655956262603 L26.998252331502965,-1.7772581911188485 L26.981276305459627,-1.8461223098949677 L26.967123257642736,-1.9158470876548335 L26.955815973034717,-1.9863202745243282 L26.947372655225664,-2.0574284157659966 L26.941806897107398,-2.1290570344297555 L26.939127658990273,-2.2010908156492595 L26.939339254177984,-2.273413792287231 L26.94244134202357,-2.345909531630876 L26.948428928477846,-2.4184613228368343 L26.95729237412929,-2.4909523648238903 L26.969017409722543,-2.5632659543109533 L26.98358515913047,-2.6352856736975983 L27.000972169742834,-2.7068955784846835 L27.02115045022261,-2.7779803839333215 L27.04408751556926,-2.848425650661706 L27.06974643941627,-2.918117968881 L27.09808591347893,-2.986945140973678 L27.12906031405647,-3.0547963621203977 L27.162619775481666,-3.121562398684607 L27.198710270399506,-3.1871357640677025 L27.23727369674583,-3.251410891751637 L27.27824797128578,-3.3142843052503843 L27.32156712956157,-3.3756547846966702 L27.367161432088615,-3.4354235297957674 L27.4149574766291,-3.493494318884026 L27.464878316362178,-3.5497736638360697 L27.5168435837606,-3.604170960571265 L27.570769619974374,-3.6565986349171697 L27.626569609513055,-3.7069722835951406 L27.684153720009984,-3.755210810101114 L27.743429246843323,-3.801236555262812 L27.80430076238119,-3.8449754222631993 L27.866670269610527,-3.886356995928894 L27.930437359902434,-3.925314656091514 L27.99549937465995,-3.9617856848394406 L28.06175157058806,-3.9957113674873423 L28.129087288319873,-4.02703708710091 L28.197398124127442,-4.055712412424624 L28.266574104440878,-4.081691179070998 L28.336503862894705,-4.104931563840596 L28.407074819616525,-4.1253961520531774 L28.47817336246926,-4.143051997781561 L28.549685029955263,-4.157870676891254 L28.621494695487822,-4.169828332800449 L28.69348675273335,-4.178905714886718 L28.765545301725968,-4.185088209478575 L28.83755433545478,-4.188365863382023 L28.90939792662347,-4.188733399904182 L28.980960414281604,-4.1861902273482485 L29.052126590027097,-4.180740439966056 L29.122781883480155,-4.172392811366747 L29.192812546730057,-4.161160780392144 L29.26210583745783,-4.14706242948157 L29.33055020044005,-4.1301204555609345 L29.398035447141506,-4.1103621335029725 L29.464452933107673,-4.087819272217445 L29.529695732871325,-4.062528163441994 L29.59365881209178,-4.0345295233161 " />
			<path d="M36.73581143947296,-2.1818119707234467 L36.70262704928597,-2.2432448251270993 L36.672035280222296,-2.3061765879313154 L36.64408538195094,-2.3705059453323116 L36.61882235099485,-2.436129333539676 L36.596286858291045,-2.5029411055036492 L36.576515183714484,-2.5708337009962374 L36.559539157671146,-2.639697819772356 L36.545386109854256,-2.7094225975322224 L36.53407882524623,-2.779895784401717 L36.52563550743719,-2.8510039256433855 L36.52006974931892,-2.922632544307144 L36.517390511201796,-2.9946663255266484 L36.5176021063895,-3.06698930216462 L36.520704194235094,-3.139485041508265 L36.52669178068936,-3.2120368327142232 L36.535555226340804,-3.2845278747012787 L36.54728026193406,-3.356841464188342 L36.56184801134199,-3.4288611835749876 L36.579235021954354,-3.5004710883620724 L36.59941330243413,-3.5715558938107104 L36.622350367780776,-3.6420011605390954 L36.648009291627794,-3.7116934787583893 L36.67634876569045,-3.7805206508510674 L36.70732316626799,-3.848371871997787 L36.74088262769318,-3.915137908561996 L36.776973122611025,-3.980711273945092 L36.81553654895735,-4.044986401629026 L36.8565108234973,-4.107859815127774 L36.89982998177309,-4.169230294574059 L36.94542428430014,-4.228999039673156 L36.99322032884062,-4.287069828761416 L37.0431411685737,-4.3433491737134595 L37.09510643597212,-4.397746470448654 L37.149032472185894,-4.450174144794559 L37.20483246172458,-4.5005477934725295 L37.262416572221504,-4.548786319978503 L37.32169209905484,-4.594812065140201 L37.38256361459271,-4.638550932140588 L37.44493312182205,-4.679932505806283 L37.50870021211396,-4.7188901659689035 L37.57376222687147,-4.75536119471683 L37.64001442279958,-4.789286877364731 L37.707350140531396,-4.820612596978299 L37.77566097633896,-4.849287922302013 L37.8448369566524,-4.875266688948387 L37.914766715106225,-4.898507073717986 L37.98533767182805,-4.918971661930566 L38.05643621468078,-4.936627507658949 L38.12794788216679,-4.951446186768643 L38.19975754769934,-4.963403842677838 L38.27174960494487,-4.972481224764106 L38.34380815393749,-4.978663719355964 L38.4158171876663,-4.981941373259411 L38.48766077883499,-4.982308909781571 L38.55922326649313,-4.9797657372256365 L38.63038944223862,-4.974315949843444 L38.701044735691674,-4.9659683212441355 L38.771075398941576,-4.954736290269532 L38.840368689669354,-4.9406379393589575 L38.90881305265157,-4.923695965438322 L38.976298299353026,-4.9039376433803605 L39.042715785319196,-4.881394782094834 L39.10795858508285,-4.856103673319382 L39.1719216643033,-4.828105033193488 " />
			<path d="M37.5946816949302,0.9699256231834762 L-0.7183697139158625,4.14422766269303 " />
			<path d="M1.0775545708737955,-0.8101083329998344 L1.0763376249002643,-0.74367803052767 L1.0726884362223654,-0.6771361043255916 L1.0666119503330747,-0.6105727340630293 L1.0581164022733667,-0.5440781284710663 L1.0472133054718327,-0.47774240308878435 L1.0339174361413277,-0.4116554581359091 L1.0182468132537912,-0.34590685667725674 L1.0002226741203801,-0.2805857032441115 L0.9798694456100117,-0.21578052307702122 L0.9572147110453171,-0.15157914215365786 L0.9322891728208718,-0.08806856816434705 L0.9051266107943658,-0.025334872596566416 L0.8757638365070968,0.036536925911792584 L0.8442406432958356,0.09746297679229998 L0.8105997523636717,0.15736071118285866 L0.7748867548829195,0.21614895382757726 L0.737150050208558,0.27374803308797524 L0.6974407802859317,0.33007988891644435 L0.6558127603416104,0.38506817864563325 L0.6123224059513344,0.4386383804503816 L0.5670286565838907,0.490717894341992 L0.5199928957245246,0.5412361405579756 L0.47127886768615035,0.590124655213922 L0.4209525912210941,0.637317183087862 L0.3690822700504419,0.6827497674113939 L0.3157382004322573,0.7263608365458601 L0.2609926758939287,0.768091287426132 L0.20491988925774818,0.8078845656589059 L0.14759583209251348,0.845686742166961 L0.08909819172741296,0.8814465862755047 L0.02950624596775797,0.9151156351415656 L-0.03109924434473821,0.9466482594323294 L-0.09263614478154159,0.9760017251634178 L-0.15502105863840876,1.0031362516133004 L-0.21816943995717275,1.028015065235357 L-0.28199570810503105,1.0506044494945206 L-0.34641336375605136,1.070873790560963 L-0.41133510611773083,1.0887956187989034 L-0.47667295124371833,1.1043456459943033 L-0.54233835127237,1.1175027982710048 L-0.6082423144295435,1.128249244650695 L-0.6742955256329923,1.136570421218 L-0.7404084675349144,1.142455050857949 L-0.8064915418386244,1.145895158539071 L-0.872455190724928,1.1468860821213998 L-0.9382100182236355,1.1454264786747546 L-1.0036669113657415,1.1415183262987152 L-1.068737160952063,1.135166921441844 L-1.13333258177468,1.1263808717237742 L-1.1973656321282475,1.1151720842698989 L-1.2607495324492188,1.1015557495744672 L-1.3233983829221785,1.085550320913959 L-1.38522727989392,1.0671774893386345 L-1.4461524309374967,1.0464621542761572 L-1.5060912684102998,1.0234323897871174 L-1.5649625613522722,0.998119406518205 L-1.6226865255726126,0.9705575094045759 L-1.6791849317757679,0.9407840511787459 L-1.7343812115801827,0.9088393817490193 L-1.7882005612861347,0.874766793516048 L-1.8405700432520118,0.8386124627016344 L-1.8914186847416534,0.8004253867692951 L-1.94067757410879,0.7602573180213851 L-1.9882799541882201,0.7181626934627926 " />
			<path d="M-1.9882799541882317,0.7181626934627819 L-2.0490618337830613,0.6591386306120514 L-2.106637959506267,0.596933484306201 L-2.1608696254279085,0.5316971121912087 L-2.211626182714647,0.46358667440153123 L-2.2587853543742304,0.3927662549475738 L-2.302233529831475,0.31940646642293624 L-2.341866038626093,0.24368403898373447 L-2.377587402573001,0.16578139459016938 L-2.409311565777628,0.0858862075360517 L-2.4369621019521066,0.00419095232498623 L-2.4604723985328913,-0.07910756001756392 L-2.4797858171562606,-0.16380865607927797 L-2.4948558301050943,-0.2497082835008031 L-2.505646132398221,-0.3365995025557623 L-2.5121307292522985,-0.4242729846866802 L-2.514293998705522,-0.5125175167958135 L-2.512130729252299,-0.6011205100760034 L-2.505646132398221,-0.6898685121557313 L-2.4948558301050943,-0.7785477213245809 L-2.4797858171562606,-0.8669445016002836 L-2.4604723985328913,-0.9548458973965109 L-2.436962101952107,-1.0420401465515363 L-2.409311565777628,-1.1283171904818325 L-2.377587402573001,-1.2134691802315942 L-2.341866038626093,-1.297290977199081 L-2.302233529831475,-1.379580647333476 L-2.258785354374231,-1.4601399476117005 L-2.2116261827146477,-1.538774803623224 L-2.1608696254279085,-1.615295777112315 L-2.1066379595062674,-1.6895185223513915 L-2.0490618337830613,-1.761264230246029 L-1.988279954188232,-1.8303600591017273 L-1.924438749593586,-1.896639551014693 L-1.8576920190528214,-1.9599430328835097 L-1.7882005612861345,-2.0201180010756254 L-1.7161317873020172,-2.0770194888219606 L-1.6416593170894764,-2.1305104154545527 L-1.564962561352273,-2.1804619166458923 L-1.4862262892928193,-2.2267536548543743 L-1.4056401834869894,-2.2692741092279767 L-1.3233983829221794,-2.307920844267763 L-1.2396990152994811,-2.3426007566039666 L-1.1547437197266956,-2.3732302992901686 L-1.0687371609520637,-2.399735683075207 L-0.9818865363089573,-2.4220530541679453 L-0.8944010765593577,-2.440128648066652 L-0.8064915418386236,-2.453918919082389 L-0.7183697139158639,-2.4633906452443943 L-0.6302478859931041,-2.468521008334718 L-0.5423383512723698,-2.4692976488593104 L-0.4548528915227703,-2.46571869582312 L-0.3680022668796641,-2.4577927712374916 L-0.28199570810503194,-2.44553896934898 L-0.1970404125322469,-2.4289868106396426 L-0.11334104490954855,-2.4081761707096065 L-0.031099244344737986,-2.3831571842132604 L0.049486861461091824,-2.3539901240804784 L0.12822313352054504,-2.320745256313853 L0.20491988925774884,-2.2835026707117407 L0.2793923594702893,-2.2423520879249224 L0.35146113345440644,-2.197392643311696 L0.42095259122109385,-2.148732648112118 L0.4876993217618588,-2.096489328516736 L0.5515405263564988,-2.040788543258435 " />
			<path d="M0.5515405263565043,-2.04078854325843 L0.6123224059513339,-1.9817644804076995 L0.6698985316745398,-1.9195593341018489 L0.7241301975961814,-1.8543229619868562 L0.7748867548829201,-1.786212524197179 L0.8220459265425033,-1.7153921047432217 L0.8654941019997473,-1.6420323162185846 L0.9051266107943654,-1.5663098887793827 L0.9408479747412737,-1.4884072443858174 L0.9725721379459011,-1.4085120573316994 L1.0002226741203797,-1.326816802120634 L1.0237329707011644,-1.243518289778084 L1.0430463893245332,-1.1588171937163705 L1.058116402273367,-1.0729175662948456 L1.0689067045664937,-0.986026347239886 L1.075391301420572,-0.8983528651089674 L1.0775545708737952,-0.8101083329998425 " />
			<path d="M10.655817423085312,-1.6036838428772229 L10.65460047711178,-1.5372535404050582 L10.65095128843388,-1.47071161420298 L10.64487480254459,-1.4041482439404176 L10.636379254484883,-1.3376536383484545 L10.625476157683348,-1.2713179129661727 L10.612180288352842,-1.2052309680132973 L10.596509665465307,-1.139482366554645 L10.578485526331896,-1.0741612131214997 L10.558132297821526,-1.0093560329544096 L10.535477563256833,-0.9451546520310462 L10.510552025032387,-0.8816440780417354 L10.483389463005881,-0.8189103824739548 L10.454026688718612,-0.7570385839655958 L10.422503495507351,-0.6961125330850884 L10.388862604575188,-0.6362147986945297 L10.353149607094435,-0.5774265560498111 L10.315412902420073,-0.5198274767894131 L10.275703632497446,-0.463495620960944 L10.234075612553125,-0.4085073312317551 L10.19058525816285,-0.3549371294270067 L10.145291508795406,-0.30285761553539636 L10.09825574793604,-0.2523393693194127 L10.049541719897666,-0.20345085466346635 L9.99921544343261,-0.15625832678952634 L9.947345122261957,-0.11082574246599441 L9.894001052643773,-0.0672146733315282 L9.839255528105443,-0.025484222451256366 L9.783182741469263,0.014309055781517532 L9.725858684304029,0.052111232289572706 L9.667361043938929,0.08787107639811631 L9.607769098179274,0.12154012526417723 L9.547163607866777,0.1530727495549411 L9.485626707429974,0.18242621528602943 L9.423241793573107,0.209560741735912 L9.360093412254344,0.2344395553579688 L9.296267144106483,0.25702893961713213 L9.231849488455463,0.27729828068357465 L9.166927746093785,0.29522010892151496 L9.101589900967797,0.31077013611691506 L9.035924500939146,0.3239272883936164 L8.970020537781972,0.33467373477330664 L8.903967326578524,0.34299491134061144 L8.837854384676602,0.3488795409805605 L8.771771310372891,0.35231964866168264 L8.705807661486588,0.3533105722440115 L8.64005283398788,0.3518509687973661 L8.574595940845773,0.34794281642132674 L8.509525691259451,0.3415914115644556 L8.444930270436835,0.33280536184638576 L8.380897220083268,0.32159657439251044 L8.317513319762297,0.3079802396970788 L8.254864469289338,0.2919748110365705 L8.193035572317596,0.2736019794612463 L8.13211042127402,0.25288664439876873 L8.072171583801216,0.22985687990972892 L8.013300290859243,0.20454389664081662 L7.955576326638903,0.17698199952718752 L7.899077920435747,0.14720854130135752 L7.8438816406313325,0.11526387187163101 L7.7900622909253805,0.08119128363865968 L7.737692808959504,0.045036952824246024 L7.686844167469862,0.006849876891906748 L7.637585278102725,-0.033318191856003265 L7.589982898023296,-0.07541281641459574 " />
			<path d="M7.589982898023283,-0.0754128164146064 L7.529201018428454,-0.13443687926533698 L7.471624892705249,-0.19664202557118737 L7.417393226783607,-0.2618783976861796 L7.366636669496868,-0.3299888354758571 L7.319477497837285,-0.40080925492981456 L7.27602932238004,-0.4741690434544521 L7.236396813585422,-0.5498914708936539 L7.200675449638514,-0.627794115287219 L7.168951286433887,-0.7076893023413366 L7.141300750259409,-0.7893845575524021 L7.117790453678624,-0.8726830698949523 L7.0984770350552555,-0.9573841659566663 L7.083407022106421,-1.0432837933781913 L7.072616719813294,-1.1301750124331507 L7.066132122959217,-1.2178484945640684 L7.063968853505993,-1.3060930266732018 L7.066132122959217,-1.3946960199533918 L7.072616719813294,-1.4834440220331198 L7.083407022106421,-1.5721232312019693 L7.098477035055255,-1.660520011477672 L7.117790453678624,-1.7484214072738993 L7.141300750259409,-1.8356156564289248 L7.168951286433887,-1.921892700359221 L7.200675449638514,-2.0070446901089825 L7.236396813585422,-2.0908664870764695 L7.27602932238004,-2.1731561572108644 L7.319477497837285,-2.253715457489089 L7.366636669496868,-2.3323503135006125 L7.417393226783608,-2.4088712869897035 L7.471624892705249,-2.48309403222878 L7.529201018428454,-2.5548397401234175 L7.589982898023283,-2.6239355689791157 L7.6538241026179294,-2.690215060892081 L7.720570833158694,-2.753518542760898 L7.7900622909253805,-2.813693510953014 L7.862131064909498,-2.870594998699349 L7.936603535122039,-2.924085925331941 L8.013300290859242,-2.9740374265232807 L8.092036562918697,-3.0203291647317627 L8.172622668724525,-3.062849619105365 L8.254864469289336,-3.1014963541451515 L8.338563836912034,-3.136176266481355 L8.42351913248482,-3.166805809167557 L8.509525691259451,-3.1933111929525952 L8.596376315902559,-3.2156285640453337 L8.683861775652158,-3.2337041579440404 L8.771771310372891,-3.2474944289597776 L8.859893138295652,-3.2569661551217823 L8.94801496621841,-3.2620965182121067 L9.035924500939146,-3.2628731587366984 L9.123409960688745,-3.2592942057005083 L9.210260585331852,-3.25136828111488 L9.296267144106483,-3.2391144792263686 L9.381222439679268,-3.222562320517031 L9.464921807301966,-3.201751680586995 L9.547163607866777,-3.176732694090649 L9.627749713672607,-3.147565633957867 L9.70648598573206,-3.1143207661912413 L9.783182741469265,-3.077078180589129 L9.857655211681804,-3.035927597802311 L9.929723985665921,-2.9909681531890846 L9.99921544343261,-2.9423081579895065 L10.065962173973375,-2.8900648383941245 L10.129803378568013,-2.8343640531358236 " />
			<path d="M10.12980337856802,-2.8343640531358183 L10.19058525816285,-2.775339990285088 L10.248161383886055,-2.713134843979237 L10.302393049807696,-2.647898471864244 L10.353149607094435,-2.5797880340745674 L10.400308778754018,-2.5089676146206097 L10.443756954211263,-2.435607826095973 L10.483389463005881,-2.359885398656771 L10.519110826952788,-2.281982754263206 L10.550834990157416,-2.2020875672090874 L10.578485526331896,-2.1203923119980224 L10.60199582291268,-2.0370937996554725 L10.621309241536048,-1.952392703593759 L10.636379254484883,-1.866493076172234 L10.647169556778008,-1.7796018571172745 L10.653654153632088,-1.6919283749863556 L10.65581742308531,-1.6036838428772309 " />
			<path d="M20.23408027529683,-2.3972593527546113 L20.232863329323298,-2.3308290502824467 L20.2292141406454,-2.2642871240803686 L20.22313765475611,-2.1977237538178063 L20.2146421066964,-2.131229148225843 L20.203739009894868,-2.064893422843561 L20.190443140564362,-1.9988064778906858 L20.174772517676825,-1.9330578764320334 L20.156748378543412,-1.8677367229988882 L20.136395150033046,-1.802931542831798 L20.11374041546835,-1.7387301619084345 L20.088814877243905,-1.6752195879191238 L20.061652315217398,-1.6124858923513432 L20.03228954093013,-1.5506140938429842 L20.00076634771887,-1.4896880429624768 L19.967125456786704,-1.4297903085719181 L19.931412459305953,-1.3710020659271995 L19.89367575463159,-1.3134029866668016 L19.853966484708966,-1.2570711308383324 L19.812338464764643,-1.2020828411091435 L19.768848110374368,-1.1485126393043952 L19.723554361006926,-1.0964331254127848 L19.676518600147556,-1.0459148791968012 L19.627804572109184,-0.9970263645408548 L19.577478295644127,-0.9498338366669148 L19.525607974473473,-0.9044012523433829 L19.47226390485529,-0.8607901832089166 L19.417518380316963,-0.8190597323286448 L19.36144559368078,-0.7792664540958709 L19.304121536515545,-0.7414642775878157 L19.245623896150445,-0.7057044334792721 L19.18603195039079,-0.6720353846132112 L19.125426460078295,-0.6405027603224474 L19.063889559641492,-0.611149294591359 L19.001504645784625,-0.5840147681414765 L18.93835626446586,-0.5591359545194197 L18.874529996318003,-0.5365465702602563 L18.810112340666983,-0.5162772291938138 L18.745190598305303,-0.4983554009558735 L18.679852753179315,-0.4828053737604734 L18.614187353150662,-0.46964822148377205 L18.54828338999349,-0.4589017751040818 L18.48223017879004,-0.450580598536777 L18.41611723688812,-0.44469596889682794 L18.350034162584407,-0.4412558612157058 L18.284070513698104,-0.44026493763337693 L18.218315686199396,-0.44172454108002235 L18.15285879305729,-0.4456326934560617 L18.08778854347097,-0.45198409831293285 L18.023193122648355,-0.4607701480310027 L17.959160072294786,-0.471978935484878 L17.895776171973814,-0.4855952701803097 L17.833127321500854,-0.5016006988408179 L17.771298424529114,-0.5199735304161421 L17.710373273485537,-0.5406888654786197 L17.650434436012734,-0.5637186299676595 L17.59156314307076,-0.5890316132365718 L17.53383917885042,-0.6165935103502009 L17.477340772647267,-0.6463669685760309 L17.42214449284285,-0.6783116380057574 L17.3683251431369,-0.7123842262387288 L17.31595566117102,-0.7485385570531424 L17.26510701968138,-0.7867256329854817 L17.215848130314242,-0.8268937017333917 L17.168245750234814,-0.8689883262919842 " />
			<path d="M17.168245750234803,-0.8689883262919949 L17.10746387063997,-0.9280123891427254 L17.049887744916767,-0.9902175354485758 L16.995656078995125,-1.055453907563568 L16.944899521708386,-1.1235643453532456 L16.897740350048803,-1.194384764807203 L16.85429217459156,-1.2677445533318406 L16.814659665796942,-1.3434669807710424 L16.778938301850033,-1.4213696251646075 L16.747214138645404,-1.501264812218725 L16.719563602470927,-1.5829600674297906 L16.696053305890143,-1.6662585797723408 L16.676739887266773,-1.7509596758340549 L16.66166987431794,-1.8368593032555798 L16.650879572024813,-1.9237505223105391 L16.644394975170734,-2.011424004441457 L16.64223170571751,-2.09966853655059 L16.644394975170734,-2.1882715298307804 L16.650879572024813,-2.277019531910508 L16.66166987431794,-2.365698741079358 L16.676739887266773,-2.45409552135506 L16.696053305890143,-2.5419969171512875 L16.719563602470927,-2.629191166306313 L16.747214138645404,-2.7154682102366094 L16.778938301850033,-2.800620199986371 L16.81465966579694,-2.884441996953858 L16.854292174591556,-2.9667316670882524 L16.897740350048803,-3.047290967366477 L16.944899521708386,-3.125925823378001 L16.995656078995125,-3.2024467968670915 L17.049887744916767,-3.276669542106168 L17.10746387063997,-3.348415250000806 L17.168245750234803,-3.417511078856504 L17.232086954829448,-3.48379057076947 L17.298833685370212,-3.5470940526382866 L17.3683251431369,-3.607269020830402 L17.440393917121018,-3.6641705085767375 L17.514866387333555,-3.7176614352093296 L17.59156314307076,-3.767612936400669 L17.670299415130213,-3.8139046746091507 L17.750885520936045,-3.8564251289827536 L17.833127321500854,-3.89507186402254 L17.916826689123553,-3.929751776358743 L18.001781984696336,-3.960381319044945 L18.08778854347097,-3.9868867028299837 L18.174639168114076,-4.009204073922723 L18.262124627863674,-4.027279667821428 L18.35003416258441,-4.041069938837166 L18.43815599050717,-4.050541664999171 L18.52627781842993,-4.055672028089495 L18.614187353150662,-4.056448668614087 L18.701672812900263,-4.052869715577897 L18.78852343754337,-4.044943790992269 L18.874529996318003,-4.032689989103757 L18.959485291890786,-4.0161378303944195 L19.043184659513486,-3.9953271904643834 L19.125426460078295,-3.9703082039680373 L19.206012565884127,-3.941141143835255 L19.284748837943578,-3.9078962760686293 L19.36144559368078,-3.8706536904665176 L19.43591806389332,-3.8295031076796993 L19.50798683787744,-3.784543663066473 L19.577478295644127,-3.735883667866895 L19.64422502618489,-3.683640348271513 L19.708066230779533,-3.6279395630132116 " />
			<path d="M19.708066230779536,-3.6279395630132067 L19.768848110374368,-3.5689155001624764 L19.826424236097573,-3.5067103538566258 L19.880655902019214,-3.441473981741633 L19.931412459305953,-3.373363543951956 L19.978571630965536,-3.3025431244979986 L20.02201980642278,-3.2291833359733615 L20.061652315217398,-3.1534609085341594 L20.097373679164306,-3.0755582641405943 L20.129097842368935,-2.9956630770864763 L20.156748378543412,-2.913967821875411 L20.180258675124197,-2.830669309532861 L20.199572093747566,-2.7459682134711474 L20.2146421066964,-2.6600685860496225 L20.225432408989526,-2.573177366994663 L20.231917005843606,-2.485503884863744 L20.23408027529683,-2.3972593527546193 " />
			<path d="M29.812343127508342,-3.190834862632 L29.81112618153481,-3.124404560159835 L29.807476992856913,-3.0578626339577566 L29.80140050696762,-2.9912992636951943 L29.79290495890791,-2.9248046581032314 L29.782001862106377,-2.8584689327209496 L29.768705992775875,-2.7923819877680742 L29.753035369888337,-2.726633386309422 L29.735011230754925,-2.6613122328762766 L29.71465800224456,-2.5965070527091862 L29.692003267679862,-2.532305671785823 L29.667077729455418,-2.4687950977965123 L29.63991516742891,-2.4060614022287314 L29.610552393141642,-2.3441896037203724 L29.579029199930382,-2.2832635528398653 L29.545388308998216,-2.223365818449307 L29.509675311517466,-2.164577575804588 L29.471938606843104,-2.10697849654419 L29.43222933692048,-2.050646640715721 L29.390601316976156,-1.995658350986532 L29.34711096258588,-1.9420881491817836 L29.301817213218435,-1.8900086352901733 L29.25478145235907,-1.8394903890741896 L29.206067424320697,-1.7906018744182433 L29.15574114785564,-1.7434093465443032 L29.10387082668499,-1.6979767622207713 L29.0505267570668,-1.654365693086305 L28.995781232528476,-1.6126352422060333 L28.939708445892293,-1.5728419639732594 L28.882384388727058,-1.5350397874652042 L28.823886748361957,-1.4992799433566606 L28.764294802602304,-1.4656108944905997 L28.703689312289807,-1.4340782701998358 L28.642152411853004,-1.4047248044687475 L28.579767497996137,-1.377590278018865 L28.516619116677372,-1.3527114643968081 L28.452792848529516,-1.3301220801376448 L28.388375192878495,-1.3098527390712023 L28.323453450516816,-1.291930910833262 L28.258115605390827,-1.2763808836378618 L28.192450205362174,-1.2632237313611605 L28.126546242205002,-1.2524772849814703 L28.060493031001553,-1.2441561084141655 L27.994380089099632,-1.2382714787742164 L27.92829701479592,-1.2348313710930943 L27.862333365909617,-1.2338404475107654 L27.79657853841091,-1.2353000509574108 L27.731121645268804,-1.2392082033334502 L27.666051395682484,-1.2455596081903213 L27.601455974859867,-1.2543456579083911 L27.5374229245063,-1.2655544453622665 L27.474039024185327,-1.2791707800576981 L27.411390173712366,-1.2951762087182064 L27.349561276740626,-1.3135490402935306 L27.28863612569705,-1.3342643753560082 L27.228697288224247,-1.357294139845048 L27.169825995282274,-1.3826071231139603 L27.112102031061934,-1.4101690202275894 L27.05560362485878,-1.4399424784534194 L27.000407345054363,-1.471887147883146 L26.946587995348413,-1.5059597361161172 L26.894218513382533,-1.5421140669305309 L26.843369871892893,-1.5803011428628702 L26.794110982525755,-1.6204692116107802 L26.746508602446326,-1.6625638361693726 " />
			<path d="M26.746508602446315,-1.6625638361693833 L26.685726722851484,-1.7215878990201139 L26.62815059712828,-1.7837930453259643 L26.573918931206638,-1.8490294174409565 L26.5231623739199,-1.917139855230634 L26.476003202260316,-1.9879602746845915 L26.432555026803072,-2.0613200632092292 L26.392922518008454,-2.137042490648431 L26.357201154061546,-2.214945135041996 L26.325476990856917,-2.2948403220961135 L26.29782645468244,-2.376535577307179 L26.274316158101655,-2.4598340896497293 L26.255002739478286,-2.5445351857114433 L26.239932726529453,-2.6304348131329682 L26.229142424236326,-2.717326032187928 L26.222657827382246,-2.8049995143188453 L26.220494557929023,-2.893244046427979 L26.222657827382246,-2.9818470397081684 L26.229142424236326,-3.0705950417878967 L26.239932726529453,-3.159274250956746 L26.255002739478286,-3.247671031232449 L26.274316158101655,-3.3355724270286764 L26.29782645468244,-3.4227666761837017 L26.325476990856917,-3.509043720113998 L26.357201154061546,-3.5941957098637594 L26.392922518008454,-3.6780175068312464 L26.432555026803072,-3.7603071769656413 L26.476003202260316,-3.840866477243866 L26.5231623739199,-3.9195013332553894 L26.573918931206638,-3.9960223067444804 L26.62815059712828,-4.070245051983557 L26.685726722851484,-4.141990759878194 L26.746508602446315,-4.211086588733893 L26.81034980704096,-4.277366080646858 L26.877096537581725,-4.340669562515675 L26.946587995348413,-4.400844530707791 L27.01865676933253,-4.4577460184541255 L27.09312923954507,-4.5112369450867185 L27.169825995282274,-4.561188446278058 L27.248562267341725,-4.60748018448654 L27.329148373147557,-4.650000638860142 L27.411390173712366,-4.688647373899928 L27.495089541335066,-4.723327286236132 L27.58004483690785,-4.753956828922334 L27.666051395682484,-4.780462212707372 L27.75290202032559,-4.802779583800111 L27.840387480075186,-4.820855177698817 L27.928297014795923,-4.8346454487145545 L28.016418842718682,-4.844117174876559 L28.10454067064144,-4.849247537966884 L28.192450205362174,-4.850024178491475 L28.279935665111775,-4.846445225455286 L28.36678628975488,-4.838519300869657 L28.452792848529512,-4.8262654989811455 L28.5377481441023,-4.8097133402718075 L28.621447511725,-4.788902700341772 L28.703689312289807,-4.763883713845425 L28.78427541809564,-4.734716653712644 L28.86301169015509,-4.701471785946018 L28.939708445892293,-4.664229200343906 L29.014180916104834,-4.623078617557088 L29.086249690088952,-4.578119172943861 L29.15574114785564,-4.529459177744283 L29.222487878396404,-4.477215858148901 L29.286329082991045,-4.4215150728906005 " />
			<path d="M29.28632908299105,-4.421515072890595 L29.34711096258588,-4.362491010039864 L29.404687088309085,-4.300285863734014 L29.458918754230726,-4.235049491619021 L29.509675311517466,-4.166939053829344 L29.55683448317705,-4.096118634375387 L29.600282658634292,-4.02275884585075 L29.63991516742891,-3.947036418411548 L29.67563653137582,-3.8691337740179828 L29.707360694580448,-3.7892385869638643 L29.735011230754925,-3.7075433317527993 L29.75852152733571,-3.6242448194102495 L29.77783494595908,-3.539543723348536 L29.79290495890791,-3.453644095927011 L29.80369526120104,-3.3667528768720514 L29.81017985805512,-3.2790793947411325 L29.812343127508342,-3.1908348626320078 " />
			<path d="M39.39060597971986,-3.9844103725093882 L39.389389033746326,-3.9179800700372236 L39.38573984506843,-3.8514381438351455 L39.37966335917914,-3.784874773572583 L39.371167811119435,-3.71838016798062 L39.3602647143179,-3.652044442598338 L39.346968844987394,-3.5859574976454627 L39.33129822209985,-3.5202088961868103 L39.313274082966444,-3.454887742753665 L39.29292085445608,-3.390082562586575 L39.27026611989138,-3.3258811816632114 L39.24534058166694,-3.2623706076739007 L39.21817801964043,-3.1996369121061203 L39.18881524535316,-3.1377651135977613 L39.1572920521419,-3.0768390627172537 L39.123651161209736,-3.016941328326695 L39.087938163728985,-2.9581530856819764 L39.05020145905463,-2.9005540064215785 L39.010492189131995,-2.8442221505931093 L38.968864169187675,-2.7892338608639204 L38.925373814797396,-2.7356636590591723 L38.88008006542996,-2.6835841451675617 L38.83304430457059,-2.6330658989515783 L38.784330276532216,-2.5841773842956317 L38.73400400006716,-2.5369848564216917 L38.682133678896506,-2.4915522720981595 L38.62878960927832,-2.4479412029636936 L38.574044084739995,-2.406210752083422 L38.51797129810382,-2.366417473850648 L38.46064724093858,-2.3286152973425924 L38.40214960057348,-2.292855453234049 L38.342557654813824,-2.259186404367988 L38.28195216450133,-2.2276537800772243 L38.22041526406452,-2.198300314346136 L38.15803035020765,-2.1711657878962534 L38.09488196888889,-2.1462869742741963 L38.031055700741035,-2.123697590015033 L37.966638045090015,-2.1034282489485907 L37.90171630272833,-2.0855064207106504 L37.83637845760235,-2.06995639351525 L37.770713057573694,-2.056799241238549 L37.704809094416525,-2.0460527948588587 L37.63875588321307,-2.037731618291554 L37.57264294131115,-2.031846988651605 L37.50655986700744,-2.0284068809704827 L37.44059621812114,-2.027415957388154 L37.37484139062243,-2.0288755608347993 L37.30938449748032,-2.0327837132108386 L37.244314247894,-2.0391351180677098 L37.17971882707138,-2.0479211677857796 L37.11568577671782,-2.059129955239655 L37.05230187639685,-2.0727462899350866 L36.989653025923886,-2.088751718595595 L36.927824128952146,-2.1071245501709193 L36.86689897790857,-2.1278398852333966 L36.80696014043576,-2.1508696497224364 L36.74808884749379,-2.176182632991349 L36.69036488327345,-2.203744530104978 L36.6338664770703,-2.233517988330808 L36.578670197265886,-2.2654626577605343 L36.52485084755993,-2.2995352459935057 L36.47248136559406,-2.335689576807919 L36.42163272410441,-2.3738766527402584 L36.372373834737274,-2.4140447214881684 L36.32477145465784,-2.4561393460467613 " />
			<path d="M36.324771454657835,-2.456139346046772 L36.26398957506301,-2.5151634088975023 L36.2064134493398,-2.5773685552033525 L36.15218178341816,-2.642604927318345 L36.10142522613142,-2.7107153651080225 L36.05426605447183,-2.7815357845619797 L36.01081787901459,-2.8548955730866172 L35.97118537021997,-2.9306180005258193 L35.935464006273065,-3.0085206449193844 L35.903739843068436,-3.088415831973502 L35.87608930689396,-3.1701110871845675 L35.85257901031317,-3.2534095995271177 L35.8332655916898,-3.3381106955888318 L35.81819557874097,-3.4240103230103567 L35.807405276447845,-3.510901542065316 L35.800920679593766,-3.5985750241962338 L35.798757410140546,-3.686819556305367 L35.800920679593766,-3.7754225495855573 L35.807405276447845,-3.864170551665285 L35.81819557874097,-3.952849760834135 L35.8332655916898,-4.041246541109837 L35.85257901031317,-4.129147936906064 L35.87608930689396,-4.21634218606109 L35.903739843068436,-4.302619229991386 L35.935464006273065,-4.387771219741148 L35.97118537021997,-4.471593016708635 L36.01081787901459,-4.553882686843029 L36.05426605447183,-4.634441987121254 L36.10142522613142,-4.713076843132778 L36.15218178341816,-4.7895978166218685 L36.2064134493398,-4.863820561860945 L36.26398957506301,-4.935566269755583 L36.324771454657835,-5.004662098611281 L36.38861265925248,-5.070941590524247 L36.455359389793244,-5.134245072393064 L36.52485084755993,-5.194420040585179 L36.596919621544046,-5.251321528331514 L36.67139209175659,-5.3048124549641065 L36.74808884749379,-5.3547639561554465 L36.82682511955325,-5.401055694363928 L36.90741122535908,-5.443576148737531 L36.989653025923886,-5.482222883777316 L37.073352393546585,-5.51690279611352 L37.15830768911937,-5.547532338799722 L37.244314247894,-5.574037722584761 L37.33116487253711,-5.596355093677499 L37.41865033228671,-5.614430687576206 L37.50655986700744,-5.6282209585919425 L37.5946816949302,-5.637692684753948 L37.682803522852964,-5.6428230478442725 L37.770713057573694,-5.643599688368864 L37.858198517323295,-5.640020735332674 L37.9450491419664,-5.632094810747045 L38.031055700741035,-5.619841008858534 L38.11601099631382,-5.603288850149196 L38.19971036393652,-5.58247821021916 L38.28195216450133,-5.557459223722814 L38.362538270307155,-5.528292163590032 L38.441274542366614,-5.495047295823406 L38.51797129810382,-5.4578047102212945 L38.59244376831636,-5.416654127434477 L38.66451254230047,-5.37169468282125 L38.73400400006716,-5.323034687621671 L38.80075073060792,-5.2707913680262894 L38.86459193520256,-5.2150905827679885 " />
			<path d="M38.86459193520257,-5.215090582767983 L38.925373814797396,-5.156066519917253 L38.982949940520605,-5.093861373611403 L39.037181606442246,-5.02862500149641 L39.087938163728985,-4.960514563706733 L39.13509733538857,-4.8896941442527755 L39.178545510845815,-4.816334355728138 L39.21817801964043,-4.740611928288937 L39.25389938358734,-4.662709283895371 L39.28562354679197,-4.582814096841253 L39.313274082966444,-4.501118841630188 L39.33678437954723,-4.417820329287638 L39.3560977981706,-4.333119233225924 L39.371167811119435,-4.247219605804399 L39.38195811341256,-4.160328386749439 L39.38844271026664,-4.072654904618521 L39.39060597971986,-3.9844103725093962 " />
			<path d="M7.723592275283811e-17,4.805540587590854 L-0.7183697139158636,4.14422766269303 " />
			<path d="M38.313051408846064,1.6312385480813 L37.5946816949302,0.9699256231834761 " />
			<path d="M-4.104797021308846,3.017288724063792 L-3.386427307392982,3.6786016489616156 " />
			<path d="M40.98110900232318,-7.514216613368993 L41.69947871623904,-6.852903688471169 " />

       </g>
    </g>
    
</svg>
