<?xml version="1.0" encoding="UTF-8" standalone="no"?>
<svg
   xmlns:svg="http://www.w3.org/2000/svg"
   xmlns="http://www.w3.org/2000/svg"
   width="800.0"
   height="240.0"

>
    <g transform="scale(12.343219517923803, -12.343219517923803)   translate(5.912581839813066,-5.226974607941265)" stroke-width="0.08101613995828906"  fill="none">
       <!-- hidden lines -->
       <g  stroke="rgb(160,160,160)" fill="none" stroke-dasharray="0.08101613995828906,0.08101613995828906" >
			<path d="M6.938893903907227e-17,-4.805540587590854 L38.313051408846064,-7.979842627100408 " />
			<path d="M-3.3864273073929816,3.6786016489616156 L-3.5087775969369774,3.561363962464024 L-3.6263726829294956,3.439299805751507 L-3.7390531968853313,3.3125746039316635 L-3.846666430698786,3.181360098904087 L-3.9490665435983994,3.0458341166104552 L-4.046114759794863,2.9061803260393324 L-4.137679556554239,2.7625879903122894 L-4.22363684244163,2.6152517101886943 L-4.303870125493715,2.4643711603367606 L-4.378270671092245,2.3101508187282853 L-4.446737649324557,2.1527996895237944 L-4.509178271631372,1.9925310198236683 L-4.565507916556713,1.8295620106690935 L-4.615650244429511,1.6641135226845198 L-4.659537300821482,1.496409776760532 L-4.697109608641058,1.3266780501827897 L-4.72831624873858,1.1551483686188417 L-4.753114928913498,0.9820531943802571 L-4.77147204123006,0.8076271113825264 L-4.783362707563827,0.6321065072297167 L-4.788770813317276,0.4557292528546997 L-4.787689029258793,0.27873438014913443 L-4.7801188214554795,0.10136175802007719 L-4.766070449286287,-0.07614823268775295 L-4.745562951538197,-0.25355502496350457 L-4.718624120604268,-0.4306181916540228 L-4.685290464818525,-0.6070977712981378 L-4.645607158978741,-0.7827545933298319 L-4.599627983124162,-0.9573506022095641 L-4.547415249651134,-1.1306491800444773 L-4.489039718865431,-1.3024154672602533 L-4.4245805030857,-1.4724166808900547 L-4.354124959428009,-1.640422430049171 L-4.2777685714167974,-1.8062050281678503 L-4.195614819582653,-1.969539801559157 L-4.107775041222312,-2.1302053939036703 L-4.014368279510921,-2.2879840662384034 L-3.9155211221710537,-2.4426619920433508 L-3.811367529917134,-2.5940295470257735 L-3.702048654907743,-2.7418815932095137 L-3.587712649451861,-2.8860177569442946 L-3.468514465228295,-3.0262427004582713 L-3.344615643290385,-3.162366386585797 L-3.2161840951405942,-3.2942043363116498 L-3.0833938751716574,-3.421577878782682 L-2.946424944782711,-3.5443143934480634 L-2.805462928490053,-3.662247543999974 L-2.6606988623630756,-3.7752175037976974 L-2.512328935126303,-3.8830711724696103 L-2.3605542222783757,-3.9856623833995184 L-2.2055804135883434,-4.082852101816174 L-2.0476175343385474,-4.174508613217468 L-1.8868796606918845,-4.260507701873994 L-1.7235846295691908,-4.340732819170029 L-1.5579537434299386,-4.415075241553812 L-1.3902114703563129,-4.4834342178830475 L-1.220585139847154,-4.545717105965965 L-1.0493046347340111,-4.601839498112871 L-0.8766020796368421,-4.651725335528051 L-0.7027115263815813,-4.695307011386992 L-0.5278686368058794,-4.73252546245924 L-0.35231036338292254,-4.763330249152707 L-0.17627462809614247,-4.787679623870961 L-2.1760371282653068e-14,-4.805540587590853 " />
			<path d="M38.313051408846064,-7.979842627100409 L38.43058257760038,-7.988132947089838 L38.54804294997342,-7.993523595341272 L38.665361772228984,-7.996011324729775 L38.782468375895384,-7.995594636740184 L38.89929222033346,-7.992273782369763 L39.01576293522765,-7.98605076197701 L39.13181036297442,-7.976929324076717 L39.247364600942596,-7.964914963082001 L39.36235604358007,-7.9500149159946805 L39.47671542434161,-7.932238158045971 L39.59037385741242,-7.911595397290148 L39.70326287920238,-7.888099068154404 L39.815314489585944,-7.8617633239488285 L39.9264611928629,-7.832604028340974 L40.03663603841525,-7.800638745800178 L40.145772661035735,-7.7658867310173845 L40.25380532090375,-7.7283689173068355 L40.36066894318461,-7.688107903996631 L40.466299157228136,-7.645127942815733 L40.570632335343156,-7.599454923285631 L40.67360563112444,-7.5511163571254665 L40.77515701730903,-7.500141361679998 L40.87522532313914,-7.446560642380406 L40.97375027120914,-7.390406474248483 L41.07067251377438,-7.331712682455372 L41.16593366850012,-7.270514621946547 L41.25947635362877,-7.206849156145317 L41.351244222544615,-7.140754634747672 L41.441181997714835,-7.072270870621871 L41.529235503986655,-7.001439115826653 L41.61535170122043,-6.928302036762533 L41.69947871623903,-6.852903688471184 " />
			<path d="M1.8677612561812453,-0.15474722442609112 L1.866495632368773,-0.0856597098550399 L1.862700476143758,-0.016456106604878507 L1.8563809308188957,0.052769798468186524 L1.8475455608367994,0.1219241882838279 L1.8362063401632038,0.19091334268140092 L1.8223786360594785,0.2596437654323911 L1.8060811882564405,0.3280223109493897 L1.787336083557693,0.3959563105198607 L1.76616872590691,0.46335369789363445 L1.7426078019596276,0.5301231340539326 L1.7166852422062044,0.5961741310028157 L1.6884361776986385,0.6614171743933075 L1.6578988924398788,0.725763844842001 L1.6251147715001668,0.7891269377577286 L1.5901282449307166,0.8514205815239098 L1.5529867275507343,0.9125603538744171 L1.5137405546893983,0.9724633963052309 L1.472442913969867,1.0310485263668387 L1.429149773227773,1.0882363476851953 L1.3839198046618857,1.1439493575621336 L1.336814305319744,1.1981120520094082 L1.2878971140260034,1.2506510280740315 L1.2372345248660943,1.3014950833162156 L1.1848951973424358,1.3505753123051134 L1.1309500633249574,1.3978252000015863 L1.0754722309220455,1.4431807119014313 L1.0185368854021837,1.486580380816914 L0.9602211873005562,1.527965390178999 L0.900604167848712,1.567279653747376 L0.8397666218690072,1.6044698916202615 L0.7777909982789664,1.6394857024409648 L0.7147612883539702,1.6722796317033595 L0.6507629118996947,1.7028072360636917 L0.5858826014885529,1.7310271435715692 L0.5202082849170382,1.7569011097385079 L0.4538289660432656,1.7803940693680382 L0.3868346041662045,1.8014741840771382 L0.319315992110058,1.8201128854445963 L0.25136463317903057,1.8362849137278123 L0.1830726171492334,1.8499683520955816 L0.11453249546577282,1.8611446563304592 L0.045837155814186015,1.8697986799604567 L-0.022920303763813044,1.8759186947860036 L-0.09164670103967143,1.8794964067743702 L-0.1602488958814271,1.8805269672999925 L-0.22863391648008302,1.8790089797154814 L-0.2967090853478729,1.8749445012444006 L-0.3643821449176474,1.8683390401932543 L-0.431561382573169,1.8592015484864615 L-0.4981557549408795,1.8475444095344316 L-0.5640750112746895,1.8333834214511828 L-0.6292298157665674,1.816737775644254 L-0.6935318686171789,1.7976300308059168 L-0.7568940257024985,1.77608608234094 L-0.8192304166742137,1.7521351272723387 L-0.8804565613338651,1.7258096246726702 L-0.9404894841230189,1.6971452516744958 L-0.9992478265743003,1.6661808551196324 L-1.056651957570892,1.632958398912717 L-1.1126240812650818,1.5975229071504267 L-1.1670883425095941,1.5599224031034364 L-1.2199709296588213,1.5202078441338038 L-1.2712001746006436,1.4784330526359772 L-1.320706649883251,1.4346546430950413 " />
			<path d="M-1.320706649883263,1.4346546430950302 L-1.3653858429465662,1.3919533782304978 L-1.408446709601878,1.347602297731564 L-1.449838211867503,1.301653968808564 L-1.4895112903793581,1.2541628518138461 L-1.5274189225386858,1.2051852356925283 L-1.563516178245687,1.1547791712659066 L-1.5977602731530154,1.1030044024266001 L-1.6301106193760129,1.0499222953269782 " />
			<path d="M0.9117409054601495,-1.7112352202248016 L0.9673128861054958,-1.6833782648628663 L1.0217383571422491,-1.6535260819139896 L1.0749528106677535,-1.6217140537400518 L1.1268931741403714,-1.5879798856135607 L1.177497885136353,-1.5523635610273971 L1.2267069643168194,-1.5149072943042958 L1.2744620865184015,-1.4756554805622357 L1.320706649883257,-1.4346546430950358 " />
			<path d="M1.3207066498832627,-1.4346546430950304 L1.3839198046618855,-1.3732696177302706 L1.4437989754140195,-1.3085762655721855 L1.5001999079725266,-1.2407304385725935 L1.552986727550735,-1.1698955832713291 L1.6020322660767015,-1.0962423470392135 L1.6472183685522352,-1.019948166973591 L1.688436177698638,-0.9411968424368211 L1.7255863962034226,-0.8601780922675133 L1.7585795259362351,-0.7770870977312303 L1.787336083557693,-0.6921240323117225 L1.8117867920017088,-0.6054935794754706 L1.8318727473700123,-0.5174044395712886 L1.8475455608367994,-0.4280688270529026 L1.8587674752216516,-0.33770195923574453 L1.8655114559498926,-0.2465215378195893 L1.8677612561812453,-0.15474722442609945 " />
			<path d="M11.446024108392761,-0.9483227343034796 L11.444758484580289,-0.8792352197324284 L11.440963328355274,-0.810031616482267 L11.434643783030412,-0.7408057114092019 L11.425808413048316,-0.6716513215935606 L11.41446919237472,-0.6026621671959875 L11.400641488270995,-0.5339317444449974 L11.384344040467957,-0.46555319892799873 L11.36559893576921,-0.39761919935752776 L11.344431578118426,-0.330221811983754 L11.320870654171143,-0.2634523758234558 L11.29494809441772,-0.19740137887457276 L11.266699029910155,-0.13215833548408096 L11.236161744651394,-0.06781166503538749 L11.203377623711683,-0.004448572119659877 L11.168391097142234,0.05784507164652131 L11.131249579762251,0.11898484399702869 L11.092003406900915,0.17888788642784248 L11.050705766181384,0.2374730164894503 L11.007412625439288,0.29466083780780683 L10.962182656873402,0.3503738476847451 L10.915077157531261,0.4045365421320197 L10.86615996623752,0.45707551819664305 L10.81549737707761,0.5079195734388271 L10.763158049553951,0.556999802427725 L10.709212915536474,0.6042496901241978 L10.653735083133562,0.6496052020240428 L10.5967997376137,0.6930048709395256 L10.538484039512072,0.7343898803016105 L10.478867020060228,0.7737041438699876 L10.418029474080523,0.8108943817428731 L10.356053850490483,0.8459101925635764 L10.293024140565485,0.878704121825971 L10.22902576411121,0.9092317261863032 L10.164145453700069,0.9374516336941807 L10.098471137128554,0.9633255998611194 L10.032091818254782,0.9868185594906498 L9.96509745637772,1.0078986741997498 L9.897578844321574,1.0265373755672078 L9.829627485390546,1.0427094038504239 L9.76133546936075,1.0563928422181932 L9.692795347677288,1.0675691464530708 L9.624100008025701,1.0762231700830682 L9.555342548447703,1.0823431849086151 L9.486616151171845,1.0859208968969818 L9.418013956330089,1.086951457422604 L9.349628935731433,1.085433469838093 L9.281553766863643,1.0813689913670121 L9.21388070729387,1.0747635303158658 L9.146701469638348,1.065626038609073 L9.080107097270636,1.053968899657043 L9.014187840936827,1.0398079115737944 L8.949033036444948,1.0231622657668655 L8.884730983594338,1.0040545209285283 L8.821368826509017,0.9825105724635514 L8.759032435537302,0.9585596173949502 L8.69780629087765,0.9322341147952817 L8.637773368088498,0.9035697417971074 L8.579015025637215,0.872605345242244 L8.521610894640624,0.8393828890353285 L8.465638770946434,0.8039473972730382 L8.411174509701922,0.766346893226048 L8.358291922552695,0.7266323342564154 L8.307062677610872,0.6848575427585888 L8.257556202328265,0.6410791332176529 " />
			<path d="M8.257556202328253,0.6410791332176418 L8.21287700926495,0.5983778683531094 L8.169816142609639,0.5540267878541756 L8.128424640344013,0.5080784589311755 L8.088751561832158,0.4605873419364577 L8.05084392967283,0.4116097258151399 L8.01474667396583,0.3612036613885181 L7.9805025790585,0.3094288925492117 L7.948152232835503,0.2563467854495898 " />
			<path d="M10.490003757671662,-2.5048107301021916 L10.545575738317009,-2.476953774740256 L10.600001209353763,-2.447101591791379 L10.65321566287927,-2.415289563617441 L10.705156026351887,-2.38155539549095 L10.755760737347867,-2.3459390709047865 L10.804969816528335,-2.3084828041816854 L10.852724938729917,-2.269230990439625 L10.898969502094772,-2.228230152972424 " />
			<path d="M10.89896950209478,-2.2282301529724187 L10.962182656873402,-2.166845127607659 L11.022061827625535,-2.102151775449574 L11.078462760184042,-2.034305948449982 L11.131249579762251,-1.9634710931487176 L11.180295118288218,-1.889817856916602 L11.22548122076375,-1.8135236768509795 L11.266699029910153,-1.7347723523142096 L11.303849248414938,-1.6537536021449017 L11.33684237814775,-1.5706626076086188 L11.36559893576921,-1.4856995421891108 L11.390049644213224,-1.399069089352859 L11.410135599581528,-1.3109799494486771 L11.425808413048316,-1.2216443369302912 L11.437030327433167,-1.131277469113133 L11.443774308161409,-1.0400970476969778 L11.446024108392761,-0.9483227343034879 " />
			<path d="M21.02428696060428,-1.741898244180868 L21.023021336791807,-1.6728107296098167 L21.01922618056679,-1.6036071263596554 L21.01290663524193,-1.5343812212865904 L21.00407126525983,-1.465226831470949 L20.992732044586237,-1.396237677073376 L20.97890434048251,-1.3275072543223858 L20.962606892679474,-1.2591287088053873 L20.943861787980726,-1.1911947092349162 L20.92269443032994,-1.1237973218611423 L20.89913350638266,-1.0570278857008444 L20.873210946629236,-0.9909768887519612 L20.84496188212167,-0.9257338453614694 L20.81442459686291,-0.8613871749127759 L20.781640475923197,-0.7980240819970483 L20.74665394935375,-0.7357304382308671 L20.709512431973767,-0.6745906658803598 L20.67026625911243,-0.614687623449546 L20.6289686183929,-0.5561024933879382 L20.585675477650806,-0.4989146720695816 L20.54044550908492,-0.44320166219264334 L20.493340009742777,-0.3890389677453687 L20.444422818449034,-0.3364999916807454 L20.393760229289125,-0.28565593643856135 L20.341420901765467,-0.2365757074496635 L20.28747576774799,-0.18932581975319063 L20.231997935345078,-0.14397030785334564 L20.175062589825217,-0.10057063893786289 L20.116746891723587,-0.059185629575778 L20.057129872271744,-0.019871366007400804 L19.99629232629204,0.017318871865484642 L19.934316702702,0.052334682686187906 L19.871286992777,0.08512861194858257 L19.807288616322726,0.11565621630891476 L19.742408305911585,0.14387612381679227 L19.67673398934007,0.16975008998373098 L19.610354670466297,0.19324304961326133 L19.543360308589236,0.21432316432236131 L19.47584169653309,0.23296186568981936 L19.407890337602062,0.24913389397303543 L19.339598321572264,0.26281733234080473 L19.271058199888806,0.2739936365756823 L19.20236286023722,0.2826476602056798 L19.13360540065922,0.2887676750312267 L19.06487900338336,0.29234538701959334 L18.996276808541605,0.29337594754521557 L18.92789178794295,0.2918579599607045 L18.859816619075158,0.2877934814896237 L18.792143559505384,0.28118802043847735 L18.724964321849864,0.27205052873168456 L18.658369949482154,0.26039338977965465 L18.592450693148344,0.24623240169640592 L18.527295888656464,0.22958675588947708 L18.462993835805854,0.21047901105113986 L18.399631678720535,0.188935062586163 L18.33729528774882,0.16498410751756176 L18.276069143089167,0.13865860491789328 L18.216036220300012,0.10999423191971891 L18.15727787784873,0.07902983536485553 L18.09987374685214,0.04580737915794009 L18.04390162315795,0.01037188739564976 L17.98943736191344,-0.027228616651340465 L17.93655477476421,-0.06694317562097307 L17.88532552982239,-0.10871796711879966 L17.83581905453978,-0.1524963766597356 " />
			<path d="M17.83581905453977,-0.1524963766597467 L17.791139861476466,-0.19519764152427932 L17.748078994821153,-0.2395487220232133 L17.706687492555528,-0.2854970509462138 L17.667014414043674,-0.33298816794093167 L17.629106781884346,-0.3819657840622499 L17.593009526177344,-0.4323718484888719 L17.558765431270015,-0.48414661732817876 L17.526415085047017,-0.5372287244278007 " />
			<path d="M20.068266609883185,-3.2983862399795774 L20.123838590528532,-3.270529284617642 L20.178264061565283,-3.2406771016687648 L20.231478515090785,-3.2088650734948283 L20.283418878563406,-3.175130905368337 L20.334023589559386,-3.1395145807821727 L20.38323266873985,-3.1020583140590725 L20.430987790941433,-3.062806500317013 L20.477232354306288,-3.021805662849813 " />
			<path d="M20.477232354306295,-3.0218056628498076 L20.54044550908492,-2.9604206374850475 L20.60032467983705,-2.8957272853269624 L20.656725612395558,-2.8278814583273704 L20.709512431973767,-2.7570466030261063 L20.758557970499734,-2.6833933667939904 L20.803744072975267,-2.6070991867283677 L20.84496188212167,-2.5283478621915982 L20.882112100626454,-2.44732911202229 L20.915105230359266,-2.364238117486007 L20.943861787980726,-2.2792750520664993 L20.96831249642474,-2.1926445992302472 L20.988398451793046,-2.1045554593260656 L21.00407126525983,-2.0152198468076796 L21.015293179644683,-1.9248529789905215 L21.022037160372925,-1.8336725575743662 L21.02428696060428,-1.7418982441808764 " />
			<path d="M30.60254981281579,-2.5354737540582564 L30.601284189003316,-2.466386239487205 L30.597489032778302,-2.397182636237044 L30.591169487453442,-2.3279567311639786 L30.582334117471344,-2.2588023413483374 L30.57099489679775,-2.189813186950764 L30.557167192694024,-2.121082764199774 L30.540869744890983,-2.0527042186827757 L30.52212464019224,-1.9847702191123047 L30.500957282541457,-1.9173728317385308 L30.477396358594174,-1.8506033955782328 L30.45147379884075,-1.7845523986293497 L30.423224734333182,-1.7193093552388579 L30.392687449074423,-1.6549626847901644 L30.359903328134713,-1.5915995918744368 L30.324916801565262,-1.5293059481082556 L30.28777528418528,-1.4681661757577482 L30.248529111323943,-1.4082631333269344 L30.207231470604412,-1.3496780032653266 L30.16393832986232,-1.29249018194697 L30.11870836129643,-1.2367771720700318 L30.07160286195429,-1.1826144776227572 L30.022685670660547,-1.1300755015581339 L29.972023081500637,-1.0792314463159498 L29.91968375397698,-1.030151217327052 L29.8657386199595,-0.9829013296305791 L29.81026078755659,-0.9375458177307341 L29.75332544203673,-0.8941461488152513 L29.695009743935103,-0.8527611394531665 L29.635392724483257,-0.8134468758847893 L29.57455517850355,-0.7762566380119038 L29.51257955491351,-0.7412408271912005 L29.449549844988514,-0.7084468979288059 L29.38555146853424,-0.6779192935684737 L29.320671158123098,-0.6496993860605962 L29.254996841551584,-0.6238254198936575 L29.18861752267781,-0.6003324602641271 L29.12162316080075,-0.5792523455550271 L29.054104548744604,-0.5606136441875691 L28.986153189813574,-0.544441615904353 L28.917861173783777,-0.5307581775365837 L28.84932105210032,-0.5195818733017061 L28.78062571244873,-0.5109278496717087 L28.711868252870733,-0.5048078348461618 L28.643141855594873,-0.5012301228577951 L28.574539660753118,-0.5001995623321729 L28.506154640154463,-0.5017175499166839 L28.43807947128667,-0.5057820283877648 L28.370406411716896,-0.5123874894389111 L28.303227174061377,-0.5215249811457039 L28.236632801693666,-0.5331821200977338 L28.170713545359856,-0.5473431081809825 L28.105558740867977,-0.5639887539879114 L28.041256688017366,-0.5830964988262486 L27.977894530932048,-0.6046404472912255 L27.915558139960332,-0.6285914023598267 L27.85433199530068,-0.6549169049594952 L27.794299072511524,-0.6835812779576695 L27.735540730060244,-0.7145456745125329 L27.678136599063652,-0.7477681307194484 L27.622164475369463,-0.7832036224817387 L27.56770021412495,-0.8208041265287289 L27.514817626975724,-0.8605186854983615 L27.4635883820339,-0.9022934769961881 L27.414081906751292,-0.946071886537124 " />
			<path d="M27.41408190675128,-0.9460718865371351 L27.36940271368798,-0.9887731514016678 L27.326341847032666,-1.0331242319006018 L27.28495034476704,-1.0790725608236023 L27.245277266255187,-1.1265636778183201 L27.20736963409586,-1.1755412939396384 L27.171272378388856,-1.2259473583662603 L27.137028283481527,-1.2777221272055672 L27.10467793725853,-1.3308042343051891 " />
			<path d="M29.646529462094698,-4.091961749856965 L29.702101442740044,-4.06410479449503 L29.756526913776796,-4.034252611546153 L29.8097413673023,-4.002440583372216 L29.86168173077492,-3.968706415245725 L29.9122864417709,-3.9330900906595616 L29.961495520951363,-3.8956338239364614 L30.009250643152946,-3.856382010194401 L30.0554952065178,-3.815381172727201 " />
			<path d="M30.055495206517808,-3.8153811727271956 L30.11870836129643,-3.753996147362436 L30.178587532048564,-3.689302795204351 L30.23498846460707,-3.621456968204759 L30.28777528418528,-3.5506221129034943 L30.336820822711246,-3.476968876671379 L30.38200692518678,-3.4006746966057566 L30.423224734333182,-3.3219233720689862 L30.460374952837967,-3.240904621899679 L30.49336808257078,-3.157813627363396 L30.52212464019224,-3.0728505619438877 L30.546575348636253,-2.986220109107636 L30.56666130400456,-2.898130969203454 L30.582334117471344,-2.808795356685068 L30.593556031856195,-2.71842848886791 L30.600300012584437,-2.6272480674517547 L30.60254981281579,-2.535473754058265 " />
			<path d="M40.18081266502731,-3.329049263935645 L40.17954704121484,-3.2599617493645936 L40.17575188498982,-3.1907581461144323 L40.16943233966496,-3.1215322410413675 L40.160596969682864,-3.052377851225726 L40.149257749009266,-2.983388696828153 L40.13543004490554,-2.914658274077163 L40.11913259710251,-2.846279728560164 L40.100387492403755,-2.7783457289896933 L40.07922013475297,-2.7109483416159192 L40.05565921080569,-2.6441789054556213 L40.02973665105227,-2.578127908506738 L40.001487586544705,-2.5128848651162463 L39.970950301285946,-2.448538194667553 L39.93816618034623,-2.385175101751825 L39.90317965377678,-2.322881457985644 L39.866038136396796,-2.261741685635137 L39.82679196353546,-2.201838643204323 L39.78549432281593,-2.143253513142715 L39.742201182073835,-2.0860656918243583 L39.69697121350795,-2.03035268194742 L39.649865714165806,-1.9761899875001456 L39.600948522872066,-1.9236510114355223 L39.55028593371216,-1.8728069561933383 L39.4979466061885,-1.8237267272044404 L39.444001472171024,-1.7764768395079675 L39.38852363976811,-1.7311213276081225 L39.33158829424825,-1.6877216586926398 L39.27327259614662,-1.646336649330555 L39.21365557669478,-1.6070223857621777 L39.152818030715075,-1.5698321478892923 L39.09084240712503,-1.534816337068589 L39.027812697200034,-1.5020224078061943 L38.96381432074576,-1.4714948034458621 L38.898934010334614,-1.4432748959379846 L38.833259693763104,-1.417400929771046 L38.76688037488933,-1.3939079701415156 L38.69988601301227,-1.3728278554324156 L38.63236740095612,-1.3541891540649575 L38.564416042025094,-1.3380171257817415 L38.4961240259953,-1.3243336874139722 L38.42758390431184,-1.3131573831790946 L38.35888856466025,-1.3045033595490971 L38.29013110508225,-1.2983833447235502 L38.22140470780639,-1.2948056327351836 L38.152802512964634,-1.2937750722095613 L38.08441749236598,-1.2952930597940724 L38.01634232349819,-1.2993575382651532 L37.948669263928416,-1.3059629993162996 L37.88149002627289,-1.3151004910230923 L37.81489565390518,-1.3267576299751223 L37.748976397571376,-1.340918618058371 L37.6838215930795,-1.3575642638652998 L37.619519540228886,-1.376672008703637 L37.556157383143564,-1.398215957168614 L37.49382099217185,-1.4221669122372151 L37.4325948475122,-1.4484924148368836 L37.372561924723044,-1.477156787835058 L37.31380358227177,-1.5081211843899214 L37.25639945127517,-1.5413436405968368 L37.20042732758098,-1.5767791323591271 L37.14596306633647,-1.6143796364061174 L37.09308047918724,-1.65409419537575 L37.04185123424542,-1.6958689868735766 L36.992344758962815,-1.7396473964145125 " />
			<path d="M36.9923447589628,-1.7396473964145236 L36.9476655658995,-1.7823486612790564 L36.90460469924419,-1.8266997417779907 L36.86321319697856,-1.8726480707009916 L36.8235401184667,-1.92013918769571 L36.78563248630738,-1.9691168038170284 L36.74953523060037,-2.019522868243651 L36.71529113569304,-2.071297637082958 L36.68294078947005,-2.1243797441825807 " />
			<path d="M39.224792314306214,-4.885537259734355 L39.28036429495156,-4.85768030437242 L39.33478976598831,-4.8278281214235435 L39.38800421951382,-4.796016093249605 L39.439944582986435,-4.762281925123115 L39.49054929398242,-4.7266656005369505 L39.53975837316288,-4.689209333813849 L39.58751349536447,-4.64995752007179 L39.63375805872932,-4.60895668260459 " />
			<path d="M39.63375805872933,-4.6089566826045845 L39.69697121350795,-4.547571657239825 L39.75685038426008,-4.482878305081739 L39.813251316818594,-4.415032478082147 L39.866038136396796,-4.344197622780883 L39.91508367492277,-4.270544386548767 L39.9602697773983,-4.194250206483145 L40.001487586544705,-4.115498881946375 L40.03863780504949,-4.034480131777067 L40.0716309347823,-3.951389137240784 L40.100387492403755,-3.866426071821276 L40.124838200847776,-3.779795618985024 L40.14492415621608,-3.6917064790808425 L40.160596969682864,-3.6023708665624565 L40.17181888406772,-3.5120039987452984 L40.17856286479596,-3.420823577329143 L40.18081266502731,-3.3290492639356533 " />
			<path d="M0.6023369359673995,-2.095967567992854 L1.3207066498832631,-1.43465464309503 " />
			<path d="M-2.039076363799127,0.773341718197206 L-1.3207066498832631,1.43465464309503 " />
			<path d="M10.180599788178913,-2.8895430778702424 L10.898969502094777,-2.2282301529724187 " />
			<path d="M7.53918648841239,-0.020233791680182578 L8.257556202328253,0.6410791332176414 " />
			<path d="M19.75886264039043,-3.6831185877476305 L20.47723235430629,-3.0218056628498067 " />
			<path d="M17.117449340623907,-0.8138093015575709 L17.83581905453977,-0.1524963766597469 " />
			<path d="M29.337125492601945,-4.476694097625019 L30.055495206517808,-3.8153811727271956 " />
			<path d="M26.695712192835423,-1.6073848114349596 L27.414081906751285,-0.9460718865371356 " />
			<path d="M38.915388344813465,-5.270269607502407 L39.63375805872933,-4.608956682604584 " />
			<path d="M36.27397504504693,-2.400960321312348 L36.992344758962794,-1.7396473964145236 " />

       </g>

       <!-- solid lines -->
       <g  stroke="rgb(0,0,0)" fill="none">
			<path d="M-0.7183697139158635,-5.466853512488678 L37.5946816949302,-8.641155551998231 " />
			<path d="M1.3322676295501878e-15,4.805540587590855 L-0.11753116875432035,4.813830907580284 L-0.23499154112736242,4.819221555831719 L-0.35231036338292476,4.821709285220221 L-0.46941696704931823,4.821292597230631 L-0.586240811487392,4.817971742860209 L-0.7027115263815817,4.811748722467456 L-0.8187589541283549,4.802627284567163 L-0.9343131920965317,4.790612923572447 L-1.049304634734009,4.775712876485127 L-1.1636640154955502,4.757936118536418 L-1.277322448566358,4.737293357780594 L-1.3902114703563107,4.71379702864485 L-1.5022630807398771,4.687461284439275 L-1.6134097840168402,4.658301988831421 L-1.7235846295691886,4.626336706290625 L-1.832721252189665,4.5915846915078316 L-1.9407539120576847,4.5540668777972835 L-2.047617534338543,4.513805864487079 L-2.153247748382067,4.470825903306181 L-2.257580926497086,4.425152883776079 L-2.360554222278371,4.376814317615915 L-2.462105608462962,4.325839322170447 L-2.562173914293078,4.272258602870853 L-2.660698862363073,4.216104434738929 L-2.7576211049283197,4.157410642945818 L-2.8528822596540557,4.0962125824369915 L-2.946424944782711,4.032547116635761 L-3.0381928136985548,3.9664525952381173 L-3.1281305888687725,3.8979688311123177 L-3.216184095140593,3.8271370763170993 L-3.3023002923743694,3.75399999725298 L-3.3864273073929505,3.678601648961644 " />
			<path d="M-0.7183697139158622,4.144227662693031 L-0.8359008826701839,4.15251798268246 L-0.953361255043226,4.157908630933895 L-1.0706800772987883,4.160396360322397 L-1.1877866809651818,4.159979672332807 L-1.3046105254032556,4.156658817962385 L-1.4210812402974453,4.150435797569632 L-1.5371286680442184,4.141314359669339 L-1.6526829060123953,4.1292999986746235 L-1.7676743486498725,4.114399951587303 L-1.8820337294114138,4.096623193638594 L-1.9956921624822215,4.07598043288277 L-2.1085811842721744,4.052484103747026 L-2.2206327946557405,4.026148359541451 L-2.331779497932704,3.996989063933597 L-2.441954343485052,3.9650237813928015 L-2.5510909661055283,3.9302717666100078 L-2.6591236259735482,3.8927539528994597 L-2.7659872482544063,3.852492939589255 L-2.8716174622979302,3.809512978408357 L-2.9759506404129494,3.763839958878255 L-3.0789239361942347,3.7155013927180915 L-3.1804753223788254,3.664526397272623 L-3.2805436282089415,3.610945677973029 L-3.3790685762789368,3.554791509841105 L-3.475990818844183,3.496097718047994 L-3.571251973569919,3.4348996575391677 L-3.6647946586985745,3.371234191737937 L-3.7565625276144186,3.3051396703402935 L-3.8465003027846363,3.236655906214494 L-3.9345538090564567,3.1658241514192755 L-4.020670006290233,3.0926870723551563 L-4.104797021308814,3.01728872406382 " />
			<path d="M-4.104797021308845,3.017288724063792 L-4.227147310852841,2.9000510375662003 L-4.344742396845359,2.777986880853683 L-4.457422910801195,2.6512616790338397 L-4.565036144614649,2.520047174006263 L-4.667436257514263,2.3845211917126314 L-4.764484473710726,2.2448674011415086 L-4.856049270470102,2.1012750654144656 L-4.9420065563574935,1.9539387852908705 L-5.022239839409578,1.8030582354389368 L-5.096640385008109,1.6488378938304615 L-5.165107363240421,1.4914867646259706 L-5.227547985547235,1.3312180949258443 L-5.283877630472577,1.1682490857712695 L-5.334019958345374,1.0028005977866958 L-5.377907014737345,0.8350968518627081 L-5.415479322556921,0.6653651252849658 L-5.446685962654444,0.49383544372101784 L-5.4714846428293615,0.32074026948243317 L-5.489841755145924,0.1463141864847025 L-5.501732421479691,-0.029206417668107165 L-5.5071405272331395,-0.20558367204312422 L-5.506058743174656,-0.38257854474868946 L-5.498488535371343,-0.5599511668777467 L-5.484440163202151,-0.7374611575855768 L-5.4639326654540605,-0.9148679498613285 L-5.436993834520131,-1.0919311165518466 L-5.4036601787343885,-1.2684106961959616 L-5.363976872894605,-1.4440675182276559 L-5.317997697040026,-1.6186635271073881 L-5.265784963566998,-1.7919621049423013 L-5.2074094327812945,-1.9637283921580773 L-5.142950217001563,-2.1337296057878787 L-5.072494673343872,-2.3017353549469948 L-4.996138285332661,-2.4675179530656743 L-4.913984533498517,-2.6308527264569808 L-4.826144755138175,-2.791518318801494 L-4.732737993426785,-2.9492969911362272 L-4.633890836086917,-3.1039749169411746 L-4.529737243832997,-3.2553424719235973 L-4.420418368823607,-3.4031945181073375 L-4.306082363367724,-3.5473306818421184 L-4.186884179144158,-3.687555625356095 L-4.062985357206249,-3.823679311483621 L-3.9345538090564576,-3.9555172612094736 L-3.801763589087521,-4.082890803680506 L-3.6647946586985745,-4.205627318345887 L-3.5238326424059165,-4.323560468897798 L-3.3790685762789394,-4.436530428695521 L-3.230698649042167,-4.544384097367434 L-3.078923936194239,-4.646975308297343 L-2.923950127504207,-4.744165026713998 L-2.765987248254411,-4.835821538115292 L-2.605249374607748,-4.921820626771818 L-2.4419543434850546,-5.0020457440678525 L-2.276323457345802,-5.076388166451636 L-2.1085811842721762,-5.144747142780871 L-1.9389548537630177,-5.2070300308637885 L-1.7676743486498747,-5.263152423010695 L-1.5949717935527057,-5.313038260425874 L-1.4210812402974449,-5.356619936284816 L-1.246238350721743,-5.3938383873570634 L-1.0706800772987861,-5.424643174050531 L-0.894644342012006,-5.448992548768785 L-0.7183697139158853,-5.466853512488677 " />
			<path d="M41.69947871623904,-6.852903688471169 L41.821829005783044,-6.735666001973579 L41.93942409177556,-6.613601845261062 L42.052104605731394,-6.486876643441217 L42.15971783954485,-6.355662138413641 L42.26211795244446,-6.220136156120011 L42.359166168640925,-6.080482365548886 L42.450730965400304,-5.9368900298218445 L42.53668825128769,-5.789553749698249 L42.61692153433978,-5.638673199846316 L42.69132207993831,-5.484452858237841 L42.759789058170625,-5.327101729033348 L42.822229680477434,-5.166833059333223 L42.878559325402776,-5.00386405017865 L42.928701653275574,-4.838415562194074 L42.97258870966755,-4.670711816270087 L43.01016101748712,-4.500980089692344 L43.041367657584644,-4.329450408128398 L43.06616633775956,-4.156355233889814 L43.08452345007613,-3.981929150892081 L43.09641411640989,-3.8064085467392714 L43.10182222216334,-3.6300312923642557 L43.10074043810486,-3.4530364196586887 L43.093170230301546,-3.2756637975296323 L43.07912185813235,-3.098153806821803 L43.05861436038426,-2.920747014546054 L43.03167552945033,-2.7436838478555345 L42.998341873664586,-2.5672042682114187 L42.958658567824806,-2.391547446179723 L42.91267939197023,-2.216951437299989 L42.8604666584972,-2.0436528594650785 L42.8020911277115,-1.871886572249305 L42.737631911931764,-1.7018853586195013 L42.66717636827407,-1.5338796094603833 L42.590819980262864,-1.3680970113417066 L42.50866622842872,-1.2047622379504035 L42.420826450068375,-1.0440966456058876 L42.32741968835698,-0.8863179732711526 L42.22857253101712,-0.7316400474662053 L42.1244189387632,-0.5802724924837808 L42.015100063753806,-0.4324204463000423 L41.90076405829793,-0.2882842825652632 L41.78156587407436,-0.14805933905128565 L41.65766705213645,-0.011935652923758866 L41.52923550398666,0.11990229680209552 L41.39644528401772,0.24727583927312846 L41.25947635362878,0.37001235393850784 L41.11851433733612,0.48794550449041685 L40.97375027120914,0.6009154642881418 L40.82538034397237,0.7087691329600543 L40.67360563112444,0.8113603438899646 L40.51863182243441,0.9085500623066203 L40.36066894318461,1.0002065737079127 L40.19993106953795,1.0862056623644385 L40.03663603841526,1.166430779660474 L39.871005152276005,1.2407732020442568 L39.70326287920238,1.3091321783734928 L39.53363654869322,1.3714150664564109 L39.36235604358008,1.4275374586033163 L39.18965348848291,1.477423296018495 L39.01576293522765,1.5210049718774368 L38.84092004565194,1.5582234229496859 L38.66536177222899,1.5890282096431534 L38.4893260369422,1.613377584361407 L38.31305140884611,1.6312385480812974 " />
			<path d="M37.5946816949302,-8.641155551998231 L37.71221286368452,-8.649445871987663 L37.82967323605756,-8.654836520239096 L37.94699205831312,-8.6573242496276 L38.06409866197952,-8.656907561638008 L38.180922506417595,-8.653586707267586 L38.297393221311786,-8.647363686874833 L38.41344064905856,-8.63824224897454 L38.528994887026734,-8.626227887979825 L38.64398632966421,-8.611327840892503 L38.75834571042575,-8.593551082943794 L38.87200414349656,-8.57290832218797 L38.984893165286515,-8.549411993052228 L39.09694477567008,-8.523076248846653 L39.20809147894704,-8.493916953238799 L39.31826632449939,-8.461951670698003 L39.42740294711987,-8.427199655915208 L39.53543560698789,-8.38968184220466 L39.64229922926875,-8.349420828894456 L39.74792944331227,-8.306440867713556 L39.85226262142729,-8.260767848183455 L39.955235917208576,-8.21242928202329 L40.056787303393165,-8.161454286577822 L40.15685560922328,-8.10787356727823 L40.25538055729328,-8.051719399146307 L40.35230279985852,-7.993025607353196 L40.447563954584254,-7.931827546844371 L40.54110663971291,-7.868162081043141 L40.63287450862875,-7.802067559645495 L40.72281228379897,-7.733583795519695 L40.81086579007079,-7.6627520407244765 L40.89698198730457,-7.589614961660358 L40.981109002323166,-7.514216613369007 " />
			<path d="M40.98110900232318,-7.514216613368994 L41.10345929186718,-7.396978926871403 L41.221054377859694,-7.274914770158886 L41.33373489181553,-7.148189568339042 L41.441348125628984,-7.016975063311465 L41.5437482385286,-6.881449081017834 L41.64079645472506,-6.74179529044671 L41.73236125148444,-6.5982029547196674 L41.81831853737183,-6.450866674596073 L41.89855182042392,-6.29998612474414 L41.97295236602245,-6.145765783135665 L42.04141934425476,-5.988414653931173 L42.10385996656157,-5.828145984231047 L42.16018961148691,-5.6651769750764736 L42.21033193935971,-5.499728487091898 L42.254218995751685,-5.332024741167911 L42.29179130357126,-5.162293014590168 L42.32299794366878,-4.990763333026222 L42.3477966238437,-4.817668158787637 L42.366153736160264,-4.643242075789905 L42.37804440249403,-4.467721471637095 L42.38345250824748,-4.291344217262079 L42.382370724188995,-4.114349344556512 L42.37480051638568,-3.936976722427456 L42.36075214421649,-3.759466731719627 L42.3402446464684,-3.582059939443878 L42.31330581553447,-3.4049967727533583 L42.27997215974872,-3.2285171931092425 L42.24028885390894,-3.052860371077547 L42.19430967805437,-2.878264362197813 L42.14209694458134,-2.7049657843629022 L42.08372141379564,-2.5331994971471286 L42.0192621980159,-2.363198283517325 L41.94880665435821,-2.195192534358207 L41.872450266347,-2.0294099362395306 L41.79029651451286,-1.8660751628482273 L41.70245673615251,-1.7054095705037113 L41.60904997444112,-1.5476308981689764 L41.51020281710126,-1.392952972364029 L41.40604922484734,-1.2415854173816046 L41.296730349837944,-1.093733371197866 L41.18239434438207,-0.949597207463087 L41.0631961601585,-0.8093722639491094 L40.93929733822059,-0.6732485778215826 L40.8108657900708,-0.5414106280957283 L40.67807557010186,-0.4140370856246953 L40.541106639712915,-0.29130057095931594 L40.40014462342026,-0.17336742040740694 L40.25538055729328,-0.060397460609681985 L40.10701063005651,0.0474562080622305 L39.955235917208576,0.1500474189921408 L39.800262108518545,0.2472371374087965 L39.64229922926875,0.3388936488100889 L39.48156135562209,0.4248927374666147 L39.3182663244994,0.5051178547626503 L39.15263543836014,0.579460277146433 L38.984893165286515,0.647819253475669 L38.815266834777354,0.7101021415585871 L38.643986329664216,0.7662245337054925 L38.47128377456705,0.8161103711206712 L38.297393221311786,0.859692046979613 L38.12255033173608,0.8969104980518621 L37.94699205831313,0.9277152847453296 L37.77095632302634,0.9520646594635833 L37.594681694930244,0.9699256231834736 " />
			<path d="M38.313051408846064,1.6312385480813 L0.0,4.805540587590854 " />
			<path d="M-1.6301106193760133,1.0499222953269776 L-1.6656724944424215,0.9859241617142211 L-1.6985053088072206,0.9203106764080928 L-1.7285552687362251,0.8531893414444616 L-1.7557731399621939,0.7846701293407946 L-1.7801143283509309,0.7148653029156713 L-1.8015389529649266,0.643889231355841 L-1.8200119114048343,0.5718582028321747 L-1.8355029373217229,0.49889023397152765 L-1.8479866500058812,0.42510487649667783 L-1.8574425959709173,0.350623021351139 L-1.8638552824650358,0.2755667006297796 L-1.8672142028545726,0.20005888763975932 L-1.8675138538382097,0.12422329541937649 L-1.864753744463658,0.04818417404492237 L-1.8589383969320408,-0.02793389294234816 L-1.8500773391886591,-0.10400619265560418 L-1.838185089312271,-0.17990808719374463 L-1.8232811317284783,-0.2555152178498492 L-1.8053898852861683,-0.33070370886219225 L-1.7845406632493428,-0.40535037037399213 L-1.760767625269859,-0.4793329002693657 L-1.7341097214197905,-0.5525300845547965 L-1.70461062837509,-0.6248219959578049 L-1.6723186778551264,-0.6960901904174417 L-1.63728677743533,-0.7662179011446628 L-1.5995723238626953,-0.8350902299346417 L-1.5592371090161603,-0.9025943354175683 L-1.516347218665945,-0.9686196179394977 L-1.4709729241977154,-1.0330579007703435 L-1.4231885674789817,-1.0958036073421191 L-1.3730724390563593,-1.1567539342270377 L-1.320706649883263,-1.2158090195720597 L-1.2661769967881917,-1.2728721067139253 L-1.2095728219040256,-1.3278497027066014 L-1.1509868662886495,-1.38065173150141 L-1.0905151179767278,-1.4311916815288612 L-1.0282566547115901,-1.4793867474403997 L-0.9643134816148953,-1.5251579657778258 L-0.8987903640600382,-1.5684303443481076 L-0.8317946560231233,-1.6091329850916245 L-0.7634361241927343,-1.6471992002425178 L-0.6938267681266846,-1.6825666215908464 L-0.6230806367504002,-1.7151773026675166 L-0.5513136414975957,-1.7449778136845744 L-0.4786433663993881,-1.771919329075304 L-0.4051888754330044,-1.7959577074907065 L-0.33107051744572513,-1.8170535641212933 L-0.2564097289736792,-1.8351723352256994 L-0.18132883527855537,-1.850284334760391 L-0.10595084992821169,-1.8623648030176887 L-0.0303992732495576,-1.8713939471924104 L0.0452021100160811,-1.877356973810679 L0.12072943352358279,-1.8802441129677487 L0.19605895226834935,-1.880050634335155 L0.27106724533182547,-1.8767768549109483 L0.34563141809602504,-1.8704281385003196 L0.4196293035957628,-1.8610148869274683 L0.4929396626786883,-1.8485525229931126 L0.5654423826451789,-1.833061465205557 L0.6370186740426385,-1.8145670943267322 L0.7075512652917666,-1.7930997117880025 L0.7769245948259272,-1.768694490043886 L0.8450250004288063,-1.7413914149450216 L0.9117409054601421,-1.711235220224805 " />
			<path d="M7.948152232835502,0.2563467854495891 L7.912590357769094,0.1923486518368327 L7.8797575434042955,0.1267351665307045 L7.849707583475292,0.05961383156707334 L7.822489712249322,-0.008905380536593843 L7.798148523860585,-0.07871020696171704 L7.77672389924659,-0.14968627852154692 L7.758250940806682,-0.22171730704521342 L7.742759914889793,-0.29468527590586047 L7.730276202205635,-0.3684706333807104 L7.720820256240599,-0.4429524885262489 L7.714407569746481,-0.5180088092476084 L7.711048649356943,-0.5935166222376284 L7.710748998373306,-0.6693522144580112 L7.713509107747858,-0.7453913358324653 L7.719324455279475,-0.8215094028197358 L7.728185513022857,-0.8975817025329917 L7.740077762899244,-0.9734835970711323 L7.754981720483038,-1.0490907277272368 L7.772872966925347,-1.1242792187395798 L7.793722188962173,-1.1989258802513796 L7.817495226941657,-1.2729084101467534 L7.8441531307917245,-1.346105594432184 L7.873652223836426,-1.4183975058351925 L7.905944174356389,-1.489665700294829 L7.940976074776185,-1.5597934110220497 L7.97869052834882,-1.6286657398120288 L8.019025743195355,-1.6961698452949554 L8.06191563354557,-1.7621951278168848 L8.107289928013799,-1.8266334106477304 L8.155074284732533,-1.8893791172195065 L8.205190413155156,-1.950329444104425 L8.257556202328251,-2.009384529449447 L8.312085855423323,-2.0664476165913124 L8.368690030307489,-2.121425212583989 L8.427275985922865,-2.174227241378797 L8.487747734234787,-2.224767191406248 L8.550006197499926,-2.2729622573177872 L8.61394937059662,-2.318733475655213 L8.679472488151477,-2.362005854225495 L8.74646819618839,-2.4027084949690116 L8.81482672801878,-2.4407747101199053 L8.884436084084829,-2.4761421314682335 L8.955182215461114,-2.5087528125449037 L9.026949210713918,-2.538553323561962 L9.099619485812125,-2.5654948389526915 L9.17307397677851,-2.5895332173680945 L9.247192334765789,-2.6106290739986813 L9.321853123237835,-2.6287478451030872 L9.396934016932958,-2.6438598446377792 L9.472312002283301,-2.6559403128950767 L9.547863578961955,-2.6649694570697986 L9.623464962227594,-2.670932483688067 L9.698992285735095,-2.673819622845137 L9.774321804479863,-2.6736261442125437 L9.849330097543339,-2.670352364788337 L9.923894270307539,-2.6640036483777085 L9.997892155807275,-2.654590396804857 L10.071202514890201,-2.6421280328705015 L10.143705234856691,-2.6266369750829464 L10.21528152625415,-2.6081426042041214 L10.28581411750328,-2.5866752216653923 L10.35518744703744,-2.5622699999212757 L10.42328785264032,-2.5349669248224114 L10.490003757671655,-2.5048107301021947 " />
			<path d="M17.526415085047017,-0.5372287244278016 L17.49085320998061,-0.6012268580405578 L17.45802039561581,-0.6668403433466863 L17.427970435686806,-0.7339616783103174 L17.400752564460838,-0.8024808904139847 L17.3764113760721,-0.8722857168391079 L17.354986751458107,-0.9432617883989382 L17.3365137930182,-1.0152928169226048 L17.321022767101308,-1.0882607857832516 L17.30853905441715,-1.1620461432581015 L17.299083108452116,-1.2365279984036406 L17.292670421957997,-1.3115843191250003 L17.28931150156846,-1.3870921321150202 L17.289011850584824,-1.462927724335403 L17.291771959959373,-1.5389668457098569 L17.297587307490993,-1.6150849126971278 L17.306448365234374,-1.691157212410384 L17.31834061511076,-1.7670591069485244 L17.333244572694554,-1.8426662376046292 L17.351135819136864,-1.9178547286169723 L17.37198504117369,-1.9925013901287718 L17.395758079153175,-2.066483920024146 L17.422415983003244,-2.1396811043095765 L17.451915076047943,-2.211973015712585 L17.48420702656791,-2.2832412101722213 L17.519238926987704,-2.3533689208994417 L17.556953380560337,-2.422241249689421 L17.597288595406873,-2.4897453551723476 L17.64017848575709,-2.555770637694277 L17.68555278022532,-2.6202089205251227 L17.73333713694405,-2.6829546270968985 L17.783453265366674,-2.7439049539818168 L17.835819054539773,-2.802960039326839 L17.890348707634843,-2.8600231264687044 L17.94695288251901,-2.9150007224613805 L18.005538838134385,-2.9678027512561886 L18.066010586446307,-3.01834270128364 L18.128269049711445,-3.066537767195179 L18.19221222280814,-3.1123089855326045 L18.257735340363,-3.1555813641028867 L18.32473104839991,-3.1962840048464027 L18.3930895802303,-3.234350219997296 L18.46269893629635,-3.269717641345624 L18.533445067672634,-3.3023283224222943 L18.60521206292544,-3.332128833439352 L18.677882338023647,-3.3590703488300817 L18.75133682899003,-3.383108727245484 L18.82545518697731,-3.404204583876071 L18.900115975449356,-3.422323354980477 L18.97519686914448,-3.4374353545151686 L19.050574854494823,-3.449515822772466 L19.12612643117348,-3.458544966947188 L19.201727814439117,-3.464507993565456 L19.277255137946618,-3.467395132722525 L19.352584656691384,-3.4672016540899318 L19.42759294975486,-3.463927874665725 L19.502157122519062,-3.457579158255096 L19.576155008018798,-3.448165906682245 L19.649465367101723,-3.4357035427478886 L19.721968087068213,-3.4202124849603335 L19.793544378465675,-3.4017181140815085 L19.8640769697148,-3.3802507315427786 L19.93345029924896,-3.355845509798662 L20.00155070485184,-3.328542434699797 L20.068266609883178,-3.2983862399795805 " />
			<path d="M27.10467793725853,-1.33080423430519 L27.069116062192123,-1.3948023679179462 L27.036283247827324,-1.4604158532240747 L27.00623328789832,-1.527537188187706 L26.97901541667235,-1.5960564002913733 L26.954674228283615,-1.6658612267164963 L26.933249603669616,-1.7368372982763267 L26.914776645229708,-1.8088683267999932 L26.89928561931282,-1.88183629566064 L26.886801906628662,-1.95562165313549 L26.87734596066363,-2.0301035082810293 L26.87093327416951,-2.105159829002389 L26.867574353779972,-2.1806676419924087 L26.867274702796337,-2.2565032342127918 L26.870034812170886,-2.332542355587245 L26.875850159702505,-2.408660422574516 L26.884711217445886,-2.4847327222877724 L26.896603467322272,-2.560634616825913 L26.911507424906066,-2.6362417474820177 L26.929398671348377,-2.7114302384943607 L26.950247893385203,-2.7860769000061603 L26.974020931364684,-2.8600594299015345 L27.000678835214757,-2.933256614186965 L27.030177928259455,-3.0055485255899734 L27.06246987877942,-3.07681672004961 L27.097501779199217,-3.1469444307768306 L27.13521623277185,-3.2158167595668092 L27.175551447618385,-3.283320865049736 L27.2184413379686,-3.349346147571665 L27.26381563243683,-3.4137844304025107 L27.311599989155564,-3.4765301369742865 L27.361716117578187,-3.5374804638592052 L27.414081906751285,-3.5965355492042272 L27.468611559846355,-3.653598636346093 L27.525215734730523,-3.7085762323387694 L27.583801690345897,-3.7613782611335775 L27.64427343865782,-3.8119182111610286 L27.706531901922958,-3.8601132770725672 L27.770475075019654,-3.905884495409993 L27.835998192574507,-3.949156873980275 L27.902993900611424,-3.989859514723791 L27.97135243244181,-4.027925729874685 L28.04096178850786,-4.063293151223013 L28.111707919884147,-4.095903832299683 L28.18347491513695,-4.125704343316741 L28.25614519023516,-4.15264585870747 L28.329599681201543,-4.176684237122872 L28.403718039188824,-4.19778009375346 L28.47837882766087,-4.2158988648578655 L28.553459721355992,-4.231010864392557 L28.628837706706335,-4.243091332649854 L28.70438928338499,-4.252120476824576 L28.77999066665063,-4.258083503442844 L28.85551799015813,-4.260970642599913 L28.930847508902897,-4.260777163967321 L29.005855801966373,-4.257503384543114 L29.080419974730574,-4.251154668132484 L29.15441786023031,-4.241741416559633 L29.227728219313235,-4.2292790526252775 L29.300230939279725,-4.2137879948377215 L29.371807230677188,-4.1952936239588965 L29.442339821926314,-4.1738262414201674 L29.511713151460476,-4.14942101967605 L29.579813557063353,-4.122117944577186 L29.64652946209469,-4.091961749856969 " />
			<path d="M36.682940789470045,-2.124379744182581 L36.64737891440364,-2.1883778777953373 L36.614546100038844,-2.253991363101466 L36.584496140109835,-2.3211126980650967 L36.55727826888387,-2.389631910168764 L36.53293708049513,-2.4594367365938874 L36.51151245588114,-2.5304128081537174 L36.49303949744123,-2.602443836677384 L36.477548471524344,-2.675411805538031 L36.465064758840185,-2.749197163012881 L36.45560881287515,-2.8236790181584195 L36.449196126381025,-2.898735338879779 L36.445837205991495,-2.974243151869799 L36.44553755500785,-3.050078744090182 L36.44829766438241,-3.1261178654646358 L36.454113011914025,-3.2022359324519067 L36.462974069657406,-3.278308232165162 L36.474866319533795,-3.354210126703302 L36.489770277117586,-3.4298172573594075 L36.5076615235599,-3.50500574837175 L36.52851074559672,-3.5796524098835496 L36.55228378357621,-3.653634939778924 L36.57894168742627,-3.7268321240643543 L36.60844078047098,-3.7991240354673628 L36.64073273099094,-3.870392229926999 L36.675764631410736,-3.9405199406542195 L36.71347908498337,-4.009392269444199 L36.753814299829905,-4.076896374927125 L36.79670419018012,-4.142921657449055 L36.842078484648354,-4.2073599402799005 L36.88986284136708,-4.270105646851675 L36.939978969789706,-4.331055973736595 L36.9923447589628,-4.390111059081615 L37.046874412057875,-4.447174146223481 L37.10347858694204,-4.5021517422161565 L37.16206454255742,-4.5549537710109655 L37.222536290869336,-4.605493721038417 L37.284794754134474,-4.653688786949956 L37.34873792723117,-4.699460005287381 L37.41426104478603,-4.742732383857663 L37.481256752822944,-4.783435024601179 L37.54961528465333,-4.821501239752072 L37.61922464071938,-4.856868661100401 L37.68997077209566,-4.889479342177071 L37.76173776734847,-4.919279853194129 L37.834408042446675,-4.946221368584858 L37.90786253341306,-4.970259747000261 L37.98198089140034,-4.991355603630847 L38.056641679872385,-5.0094743747352535 L38.13172257356751,-5.024586374269945 L38.20710055891785,-5.036666842527243 L38.28265213559651,-5.045695986701964 L38.35825351886214,-5.051659013320233 L38.43378084236965,-5.054546152477302 L38.509110361114416,-5.054352673844709 L38.58411865417789,-5.0510788944205025 L38.65868282694209,-5.044730178009873 L38.73268071244183,-5.035316926437022 L38.80599107152475,-5.022854562502666 L38.878493791491245,-5.00736350471511 L38.9500700828887,-4.988869133836286 L39.020602674137834,-4.967401751297556 L39.08997600367199,-4.94299652955344 L39.15807640927487,-4.915693454454575 L39.22479231430621,-4.885537259734359 " />
			<path d="M37.5946816949302,0.9699256231834762 L-0.7183697139158625,4.14422766269303 " />
			<path d="M1.1493915422653818,-0.816060149323915 L1.1481259184529093,-0.7469726347528638 L1.1443307622278944,-0.6777690315027024 L1.138011216903032,-0.6085431264296374 L1.1291758469209359,-0.539388736613996 L1.1178366262473403,-0.470399582216423 L1.104008922143615,-0.4016691594654328 L1.087711474340577,-0.3332906139484342 L1.0689663696418295,-0.2653566143779632 L1.0477990119910465,-0.19795922700418944 L1.024238088043764,-0.13118979084389126 L0.9983155282903409,-0.0651387938950082 L0.970066463782775,0.0001042494954835993 L0.9395291785240152,0.06445091994417707 L0.9067450575843032,0.12781401285990468 L0.871758531014853,0.19010765662608586 L0.8346170136348707,0.25124742897659325 L0.7953708407735347,0.31115047140740704 L0.7540732000540034,0.36973560146901485 L0.7107800593119094,0.4269234227873714 L0.6655500907460221,0.48263643266430967 L0.6184445914038805,0.5367991271115843 L0.5695274001101398,0.5893381031762076 L0.5188648109502307,0.6401821584183917 L0.4665254834265722,0.6892623874072895 L0.4125803494090938,0.7365122751037624 L0.3571025170061819,0.7818677870036074 L0.3001671714863201,0.8252674559190901 L0.2418514733846926,0.866652465281175 L0.18223445393284843,0.9059667288495522 L0.12139690795314362,0.9431569667224377 L0.05942128436310279,0.9781727775431409 L-0.003608425561893336,1.0109667068055357 L-0.06760680201616887,1.0414943111658679 L-0.1324871124273107,1.0697142186737452 L-0.19816142899882538,1.0955881848406839 L-0.26454074787259796,1.1190811444702145 L-0.33153510974965905,1.1401612591793144 L-0.39905372180580556,1.1587999605467725 L-0.467005080736833,1.1749719888299883 L-0.5352970967666302,1.1886554271977579 L-0.6038372184500908,1.1998317314326354 L-0.6725325581016776,1.208485755062633 L-0.7412900176796766,1.2146057698881796 L-0.810016414955535,1.2181834818765465 L-0.8786186097972907,1.2192140424021685 L-0.9470036303959466,1.2176960548176576 L-1.0150787992637365,1.2136315763465766 L-1.082751858833511,1.2070261152954305 L-1.1499310964890326,1.1978886235886375 L-1.216525468856743,1.1862314846366075 L-1.282444725190553,1.172070496553359 L-1.347599529682431,1.1554248507464302 L-1.4119015825330425,1.136317105908093 L-1.475263739618362,1.114773157443116 L-1.5376001305900773,1.0908222023745147 L-1.5988262752497286,1.0644966997748462 L-1.6588591980388825,1.035832326776672 L-1.717617540490164,1.0048679302218084 L-1.7750216714867555,0.9716454740148931 L-1.8309937951809454,0.9362099822526028 L-1.8854580564254577,0.8986094782056125 L-1.9383406435746848,0.8588949192359799 L-1.9895698885165072,0.8171201277381533 L-2.0390763637991145,0.7733417181972174 " />
			<path d="M-2.0390763637991265,0.7733417181972063 L-2.1022895185777495,0.7119566928324462 L-2.1621686893298833,0.6472633406743616 L-2.21856962188839,0.57941751367477 L-2.2713564414665983,0.5085826583735052 L-2.320401979992565,0.43492942214138963 L-2.365588082468099,0.3586352420757669 L-2.4068058916145016,0.27988391753899655 L-2.443956110119286,0.19886516736968918 L-2.4769492398520985,0.11577417283340674 L-2.5057057974735564,0.030811107413898586 L-2.5301565059175726,-0.05581934542235345 L-2.550242461285876,-0.1439084853265361 L-2.565915274752663,-0.2332440978449224 L-2.577137189137515,-0.3236109656620799 L-2.583881169865756,-0.4147913870782346 L-2.586130970097109,-0.506565700471733 L-2.583881169865756,-0.5987128134831304 L-2.577137189137515,-0.6910107356460475 L-2.565915274752663,-0.783237113181651 L-2.550242461285876,-0.8751697646683817 L-2.5301565059175726,-0.9665872162964582 L-2.5057057974735564,-1.0572692354176847 L-2.4769492398520985,-1.146997361105193 L-2.443956110119286,-1.2355554304449452 L-2.4068058916145025,-1.3227300992911313 L-2.3655880824680993,-1.4083113562309015 L-2.3204019799925657,-1.4920930285202554 L-2.2713564414665983,-1.5738732787722398 L-2.21856962188839,-1.6534550912008945 L-2.1621686893298833,-1.7306467462495343 L-2.1022895185777495,-1.8052622824599576 L-2.0390763637991265,-1.8771219444698835 L-1.972681511020695,-1.9460526160593679 L-1.9032649112583,-2.011888237202937 L-1.8309937951809454,-2.074470204122737 L-1.756042270237463,-2.133647751378926 L-1.6785909012164208,-2.1892783150768222 L-1.5988262752497293,-2.241227876315815 L-1.5169405523078971,-2.289371284052636 L-1.4331310022698345,-2.333592556601183 L-1.347599529682432,-2.3737851610425604 L-1.2605521873548255,-2.409852269872212 L-1.1721986799591289,-2.441706994265862 L-1.0827518588335119,-2.469272593402302 L-0.9924272092046812,-2.49248265933875 L-0.9014423310650975,-2.511281276993405 L-0.810016414955534,-2.5256231588497715 L-0.7183697139158638,-2.535473754058257 L-0.6267230128761936,-2.540809331672194 L-0.5352970967666301,-2.54161703781777 L-0.44431221862704673,-2.537894926660132 L-0.35398756899821615,-2.5296519650910785 L-0.2645407478725986,-2.516908011127027 L-0.17618724047690215,-2.4996937660693153 L-0.08913989814929602,-2.4780507005420778 L-0.003608425561893225,-2.452030954585878 L0.08020112447617,-2.421697212047784 L0.1620868474180015,-2.3871225495704937 L0.24185147338469326,-2.3483902605442974 L0.31930284240573537,-2.3055936544460063 L0.3942543673492169,-2.258835832048251 L0.4665254834265722,-2.20822943704069 L0.5359420831889679,-2.1538963846614925 L0.6023369359673933,-2.0959675679928598 " />
			<path d="M0.6023369359673991,-2.0959675679928544 L0.6655500907460219,-2.0345825426280943 L0.7254292614981559,-1.9698891904700093 L0.781830194056663,-1.9020433634704172 L0.8346170136348714,-1.8312085081691531 L0.8836625521608379,-1.7575552719370373 L0.9288486546363717,-1.681261091871415 L0.9700664637827745,-1.6025097673346451 L1.007216682287559,-1.5214910171653373 L1.0402098120203715,-1.4384000226290543 L1.0689663696418295,-1.3534369572095464 L1.0934170780858452,-1.2668065043732946 L1.1135030334541487,-1.1787173644691125 L1.1291758469209359,-1.0893817519507265 L1.140397761305788,-0.9990148841335684 L1.147141742034029,-0.9078344627174132 L1.1493915422653818,-0.8160601493239233 " />
			<path d="M10.727654394476897,-1.6096356592013032 L10.726388770664425,-1.540548144630252 L10.72259361443941,-1.4713445413800907 L10.716274069114547,-1.4021186363070257 L10.707438699132451,-1.3329642464913842 L10.696099478458855,-1.2639750920938113 L10.68227177435513,-1.1952446693428211 L10.665974326552092,-1.1268661238258226 L10.647229221853344,-1.0589321242553515 L10.626061864202562,-0.9915347368815778 L10.602500940255279,-0.9247653007212796 L10.576578380501857,-0.8587143037723965 L10.548329315994291,-0.7934712603819047 L10.517792030735531,-0.7291245899332113 L10.485007909795819,-0.6657614970174837 L10.450021383226368,-0.6034678532513025 L10.412879865846387,-0.5423280809007951 L10.37363369298505,-0.4824250384699813 L10.332336052265518,-0.4238399084083735 L10.289042911523424,-0.36665208709001695 L10.243812942957538,-0.3109390772130787 L10.196707443615395,-0.25677638276580406 L10.147790252321656,-0.20423740670118073 L10.097127663161746,-0.15339335145899669 L10.044788335638088,-0.10431312247009883 L9.99084320162061,-0.05706323477362596 L9.935365369217697,-0.011707722873780968 L9.878430023697835,0.03169194604170178 L9.820114325596208,0.07307695540378667 L9.760497306144364,0.11239121897216386 L9.699659760164659,0.1495814568450493 L9.637684136574618,0.18459726766575257 L9.574654426649623,0.21739119692814723 L9.510656050195347,0.24791880128847943 L9.445775739784205,0.27613870879635694 L9.38010142321269,0.30201267496329565 L9.313722104338918,0.325505634592826 L9.246727742461857,0.346585749301926 L9.17920913040571,0.365224450669384 L9.111257771474682,0.3813964789526001 L9.042965755444886,0.3950799173203694 L8.974425633761424,0.406256221555247 L8.905730294109837,0.41491024518524444 L8.836972834531839,0.42103026001079136 L8.76824643725598,0.424607971999158 L8.699644242414225,0.42563853252478023 L8.631259221815569,0.4241205449402692 L8.56318405294778,0.42005606646918836 L8.495510993378005,0.413450605418042 L8.428331755722482,0.40431311371124923 L8.361737383354772,0.3926559747592193 L8.295818127020961,0.3784949866759706 L8.230663322529084,0.36184934086904175 L8.166361269678474,0.34274159603070453 L8.102999112593153,0.32119764756572766 L8.040662721621437,0.29724669249712643 L7.9794365769617865,0.27092118989745795 L7.919403654172633,0.24225681689928358 L7.860645311721352,0.2112924203444202 L7.8032411807247595,0.17806996413750475 L7.74726905703057,0.14263447237521443 L7.692804795786058,0.1050339683282242 L7.639922208636831,0.0653194093585916 L7.588692963695008,0.023544617860765005 L7.539186488412401,-0.02023379168017092 " />
			<path d="M7.539186488412389,-0.020233791680182023 L7.475973333633766,-0.08161881704494212 L7.416094162881633,-0.1463121692030267 L7.359693230323125,-0.21415799620261833 L7.306906410744917,-0.2849928515038831 L7.25786087221895,-0.3586460877359987 L7.212674769743416,-0.4349402678016214 L7.1714569605970135,-0.5136915923383918 L7.13430674209223,-0.5947103425076992 L7.101313612359417,-0.6778013370439816 L7.072557054737959,-0.7627644024634898 L7.048106346293943,-0.8493948552997418 L7.028020390925639,-0.9374839952039244 L7.012347577458852,-1.0268196077223108 L7.001125663074,-1.1171864755394683 L6.994381682345759,-1.208366896955623 L6.992131882114407,-1.3001412103491212 L6.994381682345759,-1.3922883233605188 L7.001125663074,-1.484586245523436 L7.012347577458852,-1.5768126230590394 L7.028020390925639,-1.66874527454577 L7.048106346293943,-1.7601627261738466 L7.072557054737959,-1.8508447452950731 L7.101313612359417,-1.9405728709825811 L7.134306742092229,-2.029130940322333 L7.171456960597013,-2.1163056091685197 L7.212674769743416,-2.20188686610829 L7.25786087221895,-2.2856685383976436 L7.306906410744917,-2.3674487886496283 L7.359693230323125,-2.447030601078283 L7.416094162881632,-2.5242222561269223 L7.475973333633766,-2.5988377923373456 L7.539186488412389,-2.670697454347272 L7.60558134119082,-2.739628125936756 L7.674997940953215,-2.805463747080325 L7.74726905703057,-2.8680457140001256 L7.822220581974053,-2.927223261256314 L7.899671950995095,-2.9828538249542103 L7.9794365769617865,-3.034803386193203 L8.061322299903619,-3.0829467939300246 L8.14513184994168,-3.1271680664785713 L8.230663322529084,-3.167360670919949 L8.31771066485669,-3.2034277797496005 L8.406064172252387,-3.2352825041432505 L8.495510993378003,-3.2628481032796905 L8.585835643006835,-3.2860581692161386 L8.676820521146418,-3.3048567868707934 L8.768246437255982,-3.31919866872716 L8.859893138295652,-3.3290492639356453 L8.951539839335322,-3.3343848415495825 L9.042965755444886,-3.335192547695158 L9.133950633584469,-3.3314704365375203 L9.224275283213299,-3.3232274749684665 L9.313722104338916,-3.3104835210044152 L9.402075611734613,-3.2932692759467037 L9.48912295406222,-3.271626210419466 L9.574654426649623,-3.2456064644632665 L9.658463976687685,-3.2152727219251727 L9.740349699629517,-3.180698059447882 L9.820114325596208,-3.141965770421686 L9.897565694617251,-3.0991691643233947 L9.972517219560732,-3.0524113419256396 L10.044788335638088,-3.001804946918078 L10.114204935400483,-2.9474718945388805 L10.18059978817891,-2.889543077870248 " />
			<path d="M10.180599788178915,-2.8895430778702424 L10.243812942957538,-2.828158052505483 L10.30369211370967,-2.7634647003473978 L10.360093046268178,-2.6956188733478057 L10.412879865846387,-2.624784018046541 L10.461925404372353,-2.5511307818144258 L10.507111506847886,-2.4748366017488035 L10.54832931599429,-2.396085277212033 L10.585479534499074,-2.3150665270427258 L10.618472664231888,-2.2319755325064428 L10.647229221853344,-2.1470124670869346 L10.67167993029736,-2.060382014250683 L10.691765885665664,-1.972292874346501 L10.707438699132451,-1.882957261828115 L10.718660613517304,-1.7925903940109569 L10.725404594245544,-1.7014099725948015 L10.727654394476897,-1.6096356592013117 " />
			<path d="M20.305917246688416,-2.4032111690786917 L20.304651622875944,-2.3341236545076405 L20.300856466650927,-2.264920051257479 L20.294536921326067,-2.1956941461844144 L20.28570155134397,-2.1265397563687727 L20.274362330670375,-2.0575506019712 L20.26053462656665,-1.9888201792202096 L20.244237178763612,-1.920441633703211 L20.225492074064864,-1.85250763413274 L20.204324716414078,-1.7851102467589661 L20.1807637924668,-1.7183408105986682 L20.154841232713373,-1.652289813649785 L20.126592168205807,-1.5870467702592932 L20.096054882947048,-1.5227000998105997 L20.063270762007335,-1.4593370068948721 L20.028284235437887,-1.397043363128691 L19.991142718057905,-1.3359035907781835 L19.95189654519657,-1.2760005483473698 L19.910598904477038,-1.217415418285762 L19.867305763734944,-1.1602275969674054 L19.822075795169056,-1.1045145870904671 L19.774970295826915,-1.0503518926431925 L19.72605310453317,-0.9978129165785692 L19.675390515373262,-0.9469688613363851 L19.623051187849605,-0.8978886323474873 L19.569106053832126,-0.8506387446510144 L19.513628221429215,-0.8052832327511694 L19.456692875909354,-0.7618835638356867 L19.398377177807724,-0.7204985544736018 L19.338760158355882,-0.6811842909052246 L19.277922612376177,-0.6439940530323391 L19.215946988786136,-0.6089782422116359 L19.15291727886114,-0.5761843129492412 L19.088918902406864,-0.545656708588909 L19.024038591995723,-0.5174368010810315 L18.95836427542421,-0.4915628349140928 L18.891984956550434,-0.46806987528456245 L18.824990594673373,-0.44698976057546247 L18.75747198261723,-0.4283510592080044 L18.6895206236862,-0.41217903092478836 L18.621228607656402,-0.39849559255701905 L18.552688485972944,-0.38731928832214146 L18.483993146321357,-0.378665264692144 L18.415235686743358,-0.3725452498665971 L18.346509289467498,-0.36896753787823044 L18.277907094625743,-0.3679369773526082 L18.209522074027088,-0.36945496493711927 L18.141446905159295,-0.3735194434082001 L18.07377384558952,-0.38012490445934644 L18.006594607934,-0.3892623961661392 L17.94000023556629,-0.40091953511816913 L17.87408097923248,-0.41508052320141786 L17.808926174740602,-0.4317261690083467 L17.74462412188999,-0.4508339138466839 L17.681261964804673,-0.4723778623116608 L17.618925573832957,-0.496328817380262 L17.557699429173304,-0.5226543199799305 L17.49766650638415,-0.5513186929781049 L17.43890816393287,-0.5822830895329683 L17.381504032936277,-0.6155055457398837 L17.325531909242088,-0.650941037502174 L17.271067647997576,-0.6885415415491642 L17.21818506084835,-0.7282561005187969 L17.166955815906526,-0.7700308920166234 L17.117449340623917,-0.8138093015575594 " />
			<path d="M17.117449340623907,-0.8138093015575705 L17.054236185845284,-0.8751943269223306 L16.99435701509315,-0.9398876790804152 L16.937956082534644,-1.0077335060800068 L16.885169262956435,-1.0785683613812715 L16.83612372443047,-1.1522215976133872 L16.790937621954935,-1.2285157776790099 L16.749719812808532,-1.3072671022157802 L16.712569594303748,-1.3882858523850876 L16.679576464570935,-1.4713768469213702 L16.650819906949476,-1.5563399123408783 L16.62636919850546,-1.6429703651771304 L16.606283243137156,-1.731059505081313 L16.59061042967037,-1.8203951175996993 L16.57938851528552,-1.9107619854168567 L16.572644534557277,-2.0019424068330114 L16.570394734325923,-2.0937167202265097 L16.572644534557277,-2.1858638332379074 L16.57938851528552,-2.2781617554008244 L16.59061042967037,-2.370388132936428 L16.606283243137156,-2.4623207844231585 L16.62636919850546,-2.553738236051235 L16.650819906949476,-2.6444202551724616 L16.679576464570935,-2.7341483808599696 L16.712569594303748,-2.822706450199722 L16.749719812808532,-2.909881119045908 L16.790937621954935,-2.9954623759856784 L16.83612372443047,-3.079244048275032 L16.885169262956435,-3.1610242985270167 L16.937956082534644,-3.2406061109556714 L16.99435701509315,-3.317797766004311 L17.054236185845284,-3.3924133022147345 L17.117449340623907,-3.4642729642246604 L17.183844193402336,-3.5332036358141448 L17.253260793164735,-3.599039256957714 L17.325531909242088,-3.661621223877514 L17.40048343418557,-3.720798771133703 L17.47793480320661,-3.776429334831599 L17.557699429173304,-3.828378896070592 L17.639585152115135,-3.876522303807413 L17.7233947021532,-3.9207435763559597 L17.808926174740602,-3.9609361807973373 L17.895973517068207,-3.997003289626989 L17.984327024463905,-4.0288580140206385 L18.07377384558952,-4.056423613157079 L18.16409849521835,-4.0796336790935275 L18.255083373357937,-4.098432296748182 L18.346509289467498,-4.112774178604548 L18.43815599050717,-4.122624773813033 L18.52980269154684,-4.127960351426971 L18.621228607656402,-4.128768057572547 L18.712213485795985,-4.125045946414908 L18.802538135424818,-4.116802984845855 L18.891984956550434,-4.104059030881803 L18.980338463946133,-4.086844785824092 L19.067385806273737,-4.065201720296855 L19.15291727886114,-4.0391819743406545 L19.236726828899204,-4.008848231802561 L19.318612551841035,-3.9742735693252706 L19.398377177807728,-3.9355412802990744 L19.47582854682877,-3.8927446742007827 L19.55078007177225,-3.845986851803028 L19.623051187849605,-3.795380456795467 L19.692467787612003,-3.7410474044162694 L19.758862640390426,-3.6831185877476367 " />
			<path d="M19.758862640390433,-3.6831185877476313 L19.822075795169056,-3.6217335623828713 L19.88195496592119,-3.5570402102247862 L19.938355898479696,-3.489194383225194 L19.991142718057905,-3.41835952792393 L20.04018825658387,-3.344706291691814 L20.085374359059404,-3.2684121116261915 L20.126592168205807,-3.189660787089422 L20.16374238671059,-3.1086420369201138 L20.196735516443404,-3.0255510423838308 L20.225492074064864,-2.940587976964323 L20.249942782508878,-2.853957524128071 L20.270028737877183,-2.7658683842238894 L20.28570155134397,-2.6765327717055034 L20.29692346572882,-2.5861659038883453 L20.303667446457062,-2.49498548247219 L20.305917246688416,-2.4032111690787 " />
			<path d="M29.88418009889993,-3.19678667895608 L29.882914475087453,-3.127699164385029 L29.87911931886244,-3.0584955611348676 L29.87279977353758,-2.9892696560618024 L29.86396440355548,-2.920115266246161 L29.852625182881887,-2.851126111848588 L29.83879747877816,-2.782395689097598 L29.82250003097512,-2.7140171435805995 L29.803754926276376,-2.6460831440101282 L29.782587568625594,-2.5786857566363546 L29.75902664467831,-2.5119163204760566 L29.733104084924886,-2.4458653235271735 L29.70485502041732,-2.3806222801366816 L29.67431773515856,-2.316275609687988 L29.64153361421885,-2.252912516772261 L29.6065470876494,-2.1906188730060796 L29.569405570269417,-2.1294791006555718 L29.53015939740808,-2.069576058224758 L29.48886175668855,-2.0109909281631504 L29.445568615946456,-1.9538031068447939 L29.40033864738057,-1.8980900969678556 L29.353233148038427,-1.843927402520581 L29.304315956744684,-1.7913884264559576 L29.253653367584775,-1.7405443712137736 L29.201314040061117,-1.6914641422248757 L29.14736890604364,-1.6442142545284029 L29.091891073640728,-1.5988587426285579 L29.034955728120867,-1.5554590737130751 L28.97664003001924,-1.5140740643509902 L28.917023010567394,-1.474759800782613 L28.85618546458769,-1.4375695629097276 L28.79420984099765,-1.4025537520890243 L28.73118013107265,-1.3697598228266297 L28.667181754618376,-1.3392322184662975 L28.602301444207235,-1.31101231095842 L28.53662712763572,-1.2851383447914813 L28.470247808761947,-1.261645385161951 L28.403253446884886,-1.240565270452851 L28.33573483482874,-1.2219265690853929 L28.267783475897712,-1.2057545408021768 L28.199491459867915,-1.1920711024344075 L28.130951338184456,-1.18089479819953 L28.06225599853287,-1.1722407745695325 L27.99349853895487,-1.1661207597439855 L27.92477214167901,-1.162543047755619 L27.856169946837255,-1.1615124872299967 L27.7877849262386,-1.1630304748145077 L27.719709757370808,-1.1670949532855885 L27.652036697801034,-1.1737004143367349 L27.584857460145514,-1.1828379060435277 L27.518263087777804,-1.1944950449955576 L27.452343831443994,-1.2086560330788063 L27.387189026952115,-1.2253016788857352 L27.322886974101504,-1.2444094237240724 L27.259524817016185,-1.2659533721890492 L27.19718842604447,-1.2899043272576505 L27.135962281384817,-1.316229829857319 L27.075929358595662,-1.3448942028554933 L27.01717101614438,-1.3758585994103567 L26.95976688514779,-1.4090810556172721 L26.9037947614536,-1.4445165473795625 L26.84933050020909,-1.4821170514265527 L26.79644791305986,-1.5218316103961853 L26.74521866811804,-1.563606401894012 L26.69571219283543,-1.6073848114349478 " />
			<path d="M26.69571219283542,-1.607384811434959 L26.632499038056796,-1.668769836799719 L26.572619867304663,-1.7334631889578036 L26.516218934746156,-1.8013090159573952 L26.463432115167947,-1.87214387125866 L26.41438657664198,-1.9457971074907756 L26.369200474166448,-2.0220912875563983 L26.327982665020045,-2.1008426120931687 L26.29083244651526,-2.181861362262476 L26.257839316782448,-2.2649523567987586 L26.22908275916099,-2.3499154222182668 L26.204632050716974,-2.436545875054519 L26.18454609534867,-2.5246350149587014 L26.168873281881883,-2.6139706274770877 L26.15765136749703,-2.7043374952942454 L26.15090738676879,-2.7955179167104 L26.148657586537436,-2.887292230103898 L26.15090738676879,-2.9794393431152955 L26.15765136749703,-3.071737265278213 L26.168873281881883,-3.1639636428138163 L26.18454609534867,-3.255896294300547 L26.204632050716974,-3.3473137459286235 L26.22908275916099,-3.43799576504985 L26.257839316782448,-3.527723890737358 L26.29083244651526,-3.61628196007711 L26.327982665020045,-3.7034566289232966 L26.369200474166448,-3.789037885863067 L26.41438657664198,-3.8728195581524205 L26.463432115167947,-3.954599808404405 L26.516218934746156,-4.03418162083306 L26.572619867304663,-4.111373275881699 L26.632499038056796,-4.1859888120921225 L26.69571219283542,-4.257848474102049 L26.762107045613853,-4.326779145691533 L26.831523645376247,-4.392614766835102 L26.9037947614536,-4.455196733754903 L26.978746286397083,-4.514374281011091 L27.056197655418124,-4.570004844708987 L27.135962281384817,-4.62195440594798 L27.217848004326648,-4.6700978136848015 L27.301657554364713,-4.714319086233348 L27.387189026952115,-4.754511690674725 L27.47423636927972,-4.790578799504377 L27.562589876675418,-4.822433523898027 L27.652036697801034,-4.8499991230344675 L27.742361347429863,-4.8732091889709155 L27.83334622556945,-4.89200780662557 L27.92477214167901,-4.906349688481937 L28.016418842718682,-4.916200283690422 L28.108065543758354,-4.92153586130436 L28.199491459867915,-4.922343567449935 L28.290476338007498,-4.918621456292297 L28.38080098763633,-4.910378494723243 L28.470247808761947,-4.897634540759192 L28.558601316157645,-4.88042029570148 L28.64564865848525,-4.858777230174243 L28.73118013107265,-4.832757484218043 L28.814989681110717,-4.80242374167995 L28.896875404052548,-4.767849079202659 L28.97664003001924,-4.729116790176462 L29.05409139904028,-4.686320184078172 L29.129042923983764,-4.639562361680417 L29.201314040061117,-4.588955966672855 L29.270730639823512,-4.534622914293657 L29.33712549260194,-4.476694097625025 " />
			<path d="M29.337125492601945,-4.476694097625019 L29.40033864738057,-4.41530907226026 L29.4602178181327,-4.350615720102175 L29.516618750691208,-4.282769893102582 L29.569405570269417,-4.211935037801318 L29.618451108795384,-4.138281801569203 L29.663637211270917,-4.06198762150358 L29.70485502041732,-3.98323629696681 L29.742005238922104,-3.9022175467975027 L29.774998368654916,-3.8191265522612197 L29.803754926276376,-3.7341634868417115 L29.82820563472039,-3.64753303400546 L29.848291590088696,-3.559443894101278 L29.86396440355548,-3.470108281582892 L29.875186317940333,-3.379741413765734 L29.881930298668575,-3.2885609923495784 L29.88418009889993,-3.1967866789560886 " />
			<path d="M39.46244295111145,-3.9903621888334686 L39.46117732729898,-3.9212746742624174 L39.45738217107396,-3.852071071012256 L39.451062625749096,-3.7828451659391913 L39.442227255767,-3.7136907761235496 L39.4308880350934,-3.644701621725977 L39.41706033098968,-3.5759711989749867 L39.400762883186644,-3.507592653457988 L39.38201777848789,-3.439658653887517 L39.36085042083711,-3.372261266513743 L39.33728949688983,-3.305491830353445 L39.311366937136405,-3.239440833404562 L39.28311787262884,-3.17419779001407 L39.25258058737008,-3.1098511195653766 L39.21979646643037,-3.046488026649649 L39.18480993986092,-2.9841943828834676 L39.14766842248093,-2.9230546105329607 L39.1084222496196,-2.863151568102147 L39.067124608900066,-2.804566438040539 L39.02383146815797,-2.747378616722182 L38.97860149959209,-2.691665606845244 L38.93149600024994,-2.637502912397969 L38.882578808956204,-2.584963936333346 L38.8319162197963,-2.5341198810911623 L38.77957689227264,-2.485039652102264 L38.72563175825516,-2.4377897644057915 L38.67015392585225,-2.3924342525059465 L38.613218580332386,-2.3490345835904636 L38.554902882230756,-2.3076495742283787 L38.495285862778914,-2.2683353106600013 L38.43444831679921,-2.231145072787116 L38.37247269320917,-2.196129261966413 L38.30944298328417,-2.163335332704018 L38.2454446068299,-2.132807728343686 L38.18056429641875,-2.1045878208358086 L38.11488997984724,-2.0787138546688695 L38.04851066097347,-2.0552208950393394 L37.981516299096405,-2.0341407803302394 L37.91399768704026,-2.0155020789627813 L37.84604632810923,-1.9993300506795653 L37.77775431207944,-1.985646612311796 L37.709214190395976,-1.9744703080769184 L37.640518850744385,-1.965816284446921 L37.57176139116639,-1.959696269621374 L37.50303499389053,-1.9561185576330073 L37.43443279904877,-1.9550879971073851 L37.36604777845012,-1.9566059846918962 L37.29797260958233,-1.960670463162977 L37.23029955001255,-1.9672759242141233 L37.16312031235703,-1.9764134159209161 L37.09652593998932,-1.988070554872946 L37.03060668365551,-2.0022315429561948 L36.96545187916364,-2.0188771887631236 L36.90114982631302,-2.037984933601461 L36.8377876692277,-2.059528882066438 L36.775451278255986,-2.083479837135039 L36.71422513359634,-2.1098053397347076 L36.65419221080718,-2.1384697127328818 L36.595433868355904,-2.169434109287745 L36.53802973735931,-2.2026565654946606 L36.48205761366512,-2.238092057256951 L36.42759335242061,-2.2756925613039414 L36.37471076527138,-2.3154071202735738 L36.32348152032956,-2.3571819117714004 L36.27397504504695,-2.4009603213123363 " />
			<path d="M36.27397504504694,-2.4009603213123474 L36.210761890268316,-2.4623453466771075 L36.15088271951618,-2.527038698835192 L36.09448178695767,-2.5948845258347837 L36.04169496737947,-2.6657193811360482 L35.9926494288535,-2.739372617368164 L35.947463326377964,-2.815666797433787 L35.90624551723156,-2.894418121970557 L35.869095298726776,-2.9754368721398645 L35.83610216899397,-3.058527866676147 L35.80734561137251,-3.143490932095655 L35.78289490292849,-3.2301213849319073 L35.76280894756019,-3.31821052483609 L35.7471361340934,-3.407546137354476 L35.73591421970855,-3.4979130051716334 L35.72917023898031,-3.5890934265877883 L35.726920438748955,-3.6808677399812866 L35.72917023898031,-3.7730148529926844 L35.73591421970855,-3.8653127751556013 L35.7471361340934,-3.9575391526912047 L35.76280894756019,-4.049471804177935 L35.78289490292849,-4.1408892558060115 L35.80734561137251,-4.231571274927238 L35.83610216899397,-4.3212994006147465 L35.869095298726776,-4.409857469954499 L35.90624551723156,-4.497032138800685 L35.947463326377964,-4.582613395740456 L35.9926494288535,-4.666395068029809 L36.04169496737947,-4.748175318281794 L36.09448178695767,-4.827757130710448 L36.15088271951618,-4.904948785759088 L36.210761890268316,-4.979564321969511 L36.27397504504694,-5.051423983979437 L36.34036989782537,-5.120354655568922 L36.40978649758777,-5.186190276712491 L36.48205761366512,-5.248772243632291 L36.5570091386086,-5.30794979088848 L36.63446050762965,-5.363580354586376 L36.71422513359634,-5.415529915825369 L36.79611085653817,-5.46367332356219 L36.87992040657623,-5.507894596110736 L36.96545187916363,-5.548087200552114 L37.05249922149124,-5.584154309381766 L37.140852728886934,-5.616009033775416 L37.23029955001255,-5.6435746329118555 L37.32062419964139,-5.6667846988483035 L37.411609077780966,-5.685583316502958 L37.50303499389053,-5.699925198359326 L37.5946816949302,-5.709775793567811 L37.68632839596987,-5.715111371181748 L37.77775431207944,-5.715919077327324 L37.86873919021902,-5.712196966169685 L37.95906383984785,-5.703954004600632 L38.04851066097347,-5.69121005063658 L38.136864168369165,-5.673995805578869 L38.223911510696766,-5.652352740051631 L38.30944298328417,-5.626332994095431 L38.39325253332223,-5.595999251557338 L38.47513825626407,-5.5614245890800476 L38.554902882230756,-5.522692300053851 L38.6323542512518,-5.47989569395556 L38.707305776195284,-5.433137871557805 L38.77957689227264,-5.382531476550244 L38.848993492035035,-5.328198424171046 L38.91538834481346,-5.270269607502414 " />
			<path d="M38.915388344813465,-5.270269607502408 L38.97860149959209,-5.208884582137648 L39.03848067034422,-5.144191229979564 L39.09488160290273,-5.076345402979971 L39.14766842248093,-5.005510547678707 L39.19671396100691,-4.931857311446591 L39.24190006348244,-4.855563131380968 L39.28311787262884,-4.776811806844199 L39.32026809113363,-4.695793056674891 L39.353261220866436,-4.612702062138608 L39.38201777848789,-4.5277389967191 L39.406468486931914,-4.441108543882848 L39.426554442300215,-4.353019403978666 L39.442227255767,-4.26368379146028 L39.453449170151856,-4.173316923643122 L39.460193150880094,-4.082136502226967 L39.46244295111145,-3.990362188833477 " />
			<path d="M7.723592275283811e-17,4.805540587590854 L-0.7183697139158636,4.14422766269303 " />
			<path d="M38.313051408846064,1.6312385480813 L37.5946816949302,0.9699256231834761 " />
			<path d="M-4.104797021308846,3.017288724063792 L-3.386427307392982,3.6786016489616156 " />
			<path d="M40.98110900232318,-7.514216613368993 L41.69947871623904,-6.852903688471169 " />

       </g>
    </g>
    
</svg>
