<?xml version="1.0" encoding="UTF-8" standalone="no"?>
<svg
   xmlns:svg="http://www.w3.org/2000/svg"
   xmlns="http://www.w3.org/2000/svg"
   width="800.0"
   height="240.0"

>
    <g transform="scale(6.093712363010731, -6.093712363010731)   translate(2.257257316130884,-24.804133297926903)" stroke-width="0.16410357765983039"  fill="none">
       <!-- hidden lines -->
       <g  stroke="rgb(160,160,160)" fill="none" stroke-dasharray="0.16410357765983039,0.16410357765983039" >
			<path d="M0.0,0.0 L-1.4367394278317274,-1.322625849795648 " />
			<path d="M0.0,0.0 L9.578262852211516,-0.7935755098773885 " />
			<path d="M9.578262852211516,8.817505665304319 L8.14152342437979,7.494879815508671 " />
			<path d="M9.578262852211516,7.375843489027064 L9.578262852211516,8.817505665304319 " />
			<path d="M19.156525704423032,8.023930155426932 L17.719786276591304,6.701304305631284 " />
			<path d="M9.578262852211516,8.817505665304319 L19.156525704423032,8.02393015542693 " />
			<path d="M19.156525704423032,-1.587151019754777 L17.719786276591304,-2.909776869550425 " />
			<path d="M19.156525704423032,8.023930155426932 L19.156525704423032,-1.587151019754776 " />
			<path d="M19.156525704423032,-1.587151019754777 L28.73478855663455,-2.3807265296321654 " />
			<path d="M-2.775557561562891e-16,19.222162350363416 L0.0,0.0 " />
			<path d="M48.313051408846064,-3.174302039509554 L48.31105353880337,-3.119099739422186 L48.30506072697223,-3.0639194967391443 L48.2950753679245,-3.0087833600511904 L48.2811014515501,-2.9537133603254757 L48.26314456146282,-2.898731502102541 L48.24121187276923,-2.843859754703873 L48.21531214920165,-2.7891200434535355 L48.185455739616444,-2.734534240917379 L48.151654573858885,-2.680124158163332 L48.11392215799626,-2.625911536046266 L48.072273568921226,-2.571918036520913 L48.02672544832747,-2.518165233986314 L47.97729599606012,-2.464674606665248 L47.92400496284357,-2.411467528022092 L47.86687364238956,-2.358565258222543 L47.80592486288883,-2.305988935638605 L47.741182977889515,-2.2537595684022476 L47.67267385656613,-2.2018980260111003 L47.6004248733829,-2.150425030989546 L47.524464897155646,-2.0993611506085363 L47.44482427951657,-2.048726788667447 L47.36153484278648,-1.998542177341249 L47.27462986725951,-1.948827369096256 L47.184144077905074,-1.8996022286776828 L47.090113630492745,-1.8508864251722073 L46.99257609714532,-1.8026994241487149 L46.78713705226551,-1.7079886276510798 L46.56815526287606,-1.6156211999537438 L46.33598069174002,-1.5257447568027525 L46.0909843854848,-1.4385029330111412 L45.83355788161913,-1.3540351529109123 L45.56411258280265,-1.2724764075339392 L45.28307909936841,-1.193957038877889 L44.99090656114882,-1.1186025316019355 L44.68806189970492,-1.046533312485158 L44.375029102106055,-0.9778645579681284 L44.05230843745257,-0.9127060100852504 L43.720415657377536,-0.8511618010820228 L43.379881171805316,-0.793330286997509 L43.03124920128416,-0.7393038904779763 L42.675076907247565,-0.6891689530728993 L42.31193350159432,-0.6430055972493922 L41.94239933701025,-0.6008875983455777 L41.567064979485494,-0.5628822666675366 L41.18653026450954,-0.52905033991826 " />
			<path d="M38.313051408846064,-3.174302039509554 L41.18653026450952,-0.5290503399182582 " />
			<path d="M47.89131426105758,5.643203625794765 L47.942065692786635,5.691518657507846 L47.9896220703534,5.740080978042246 L48.03396761382468,5.788874473677519 L48.07508760867113,5.837882953985785 L48.112968410649756,5.8870901572039624 L48.14759745033129,5.9364797556296685 L48.17896323727089,5.986035361039004 L48.20705536382089,6.0357405301244125 L48.231864508584195,6.085578769950825 L48.253382439507234,6.135533543428264 L48.27160201661154,6.185588274799105 L48.28651719436286,6.235726355138169 L48.29812302367717,6.2859311478638125 L48.30641565356285,6.336185994258202 L48.311392332398526,6.386474218994932 L48.313051408846064,6.436779135672129 " />
			<path d="M48.313051408846064,6.436779135672154 L48.31105353880337,6.491981435759522 L48.30506072697223,6.5471616784425635 L48.2950753679245,6.602297815130517 L48.2811014515501,6.657367814856232 L48.26314456146282,6.712349673079167 L48.24121187276923,6.767221420477835 L48.21531214920165,6.821961131728172 L48.185455739616444,6.876546934264329 L48.151654573858885,6.930957017018375 L48.11392215799626,6.985169639135442 L48.072273568921226,7.039163138660794 L48.02672544832747,7.092915941195393 L47.97729599606012,7.14640656851646 L47.92400496284357,7.199613647159616 L47.86687364238956,7.252515916959165 L47.80592486288883,7.305092239543103 L47.741182977889515,7.35732160677946 L47.67267385656613,7.409183149170607 L47.6004248733829,7.460656144192162 L47.524464897155646,7.5117200245731715 L47.44482427951657,7.562354386514261 L47.36153484278648,7.612538997840459 L47.27462986725951,7.6622538060854515 L47.184144077905074,7.711478946504025 L47.090113630492745,7.7601947500095 L46.99257609714532,7.808381751032993 L46.78713705226551,7.903092547530628 L46.56815526287606,7.9954599752279645 L46.33598069174002,8.085336418378954 L46.0909843854848,8.172578242170566 L45.83355788161913,8.257046022270796 L45.56411258280265,8.33860476764777 L45.28307909936841,8.41712413630382 L44.99090656114882,8.492478643579773 L44.68806189970492,8.56454786269655 L44.375029102106055,8.633216617213579 L44.05230843745257,8.698375165096458 L43.720415657377536,8.759919374099685 L43.379881171805316,8.817750888184198 L43.03124920128416,8.871777284703732 L42.675076907247565,8.921912222108809 L42.31193350159432,8.968075577932316 L41.94239933701025,9.01019357683613 L41.567064979485494,9.048198908514172 L41.18653026450954,9.082030835263447 " />
			<path d="M41.18653026450952,-0.5290503399182582 L41.18653026450952,9.08203083526345 " />
			<path d="M57.4695771132691,4.849628115917377 L57.571079976727205,4.946258179343537 L57.66619273186073,5.043382820412337 L57.75488381880329,5.140969811682885 L57.8371238084962,5.238986772299416 L57.912885412453456,5.337401178735771 L57.982143491816515,5.436180375587183 L58.04487506569572,5.535291586405854 L58.10105931879572,5.634701924576671 L58.15067760832232,5.734378404229496 L58.193713470168404,5.834287951184373 L58.23015262437701,5.934397413926057 L58.25998297987965,6.034673574604185 L58.28319463850828,6.135083160055472 L58.299779898279645,6.235592852844251 L58.309733255950995,6.336169302317711 L58.313051408846064,6.436779135672104 " />
			<path d="M58.313051408846064,6.436779135672154 L58.30905566876068,6.54718373584689 L58.2970700450984,6.657544221212973 L58.27709932700293,6.767816494588881 L58.249151494254136,6.87795649404031 L58.21323771407959,6.9879202104861795 L58.1693723366924,7.097663705283516 L58.11757288955723,7.207143127784191 L58.05786007038683,7.316314732856504 L57.990257738871705,7.425134898364598 L57.914792907146456,7.53356014259873 L57.83149572899639,7.641547141649435 L57.74039948780888,7.749052746718633 L57.641540583274185,7.856034001360766 L57.53495851684107,7.962448158647078 L57.42069587593305,8.068252698246177 L57.29879831693159,8.173405343414052 L57.169314546932966,8.277864077886766 L57.03229630428619,8.38158716266906 L56.88779833791973,8.48453315271217 L56.73587838546523,8.586660913474189 L56.57659715018707,8.687929637356367 L56.41001827672691,8.788298860008764 L56.23620832567296,8.887728476498749 L56.055236746964084,8.986178757335896 L55.867175852139425,9.083610364346846 L55.67210078544457,9.179984366393832 L55.47008949380589,9.275262254930531 L55.26122269568495,9.369405959389102 L55.04558384882553,9.46237786239217 L54.82325911690606,9.554140814783775 L54.59433733511088,9.644658150473191 L54.358909974633974,9.733893701085757 L54.11707110612949,9.821811810414808 L53.86891736212354,9.90837734866898 L53.61454789840235,9.993555726509147 L53.354064354392186,10.077312908869438 L53.08757081254689,10.159615428556751 L52.81517375675923,10.240430399623383 L52.53698202981269,10.319725530507396 L52.25310678989076,10.397469136935484 L51.96366146616097,10.473630154583187 L51.66876171345158,10.548178151487392 L51.368525366038895,10.621083340206145 L51.063072390563775,10.692316589720946 L50.75252483809602,10.761849437076748 L50.437006795366045,10.829654098755004 L50.116644335182926,10.895703481775254 L49.791565466059076,10.959971194520762 L49.461900081061316,11.022431557283923 L49.12777990590901,11.083059612527215 L48.789338446339876,11.141831134855579 L48.44671093476457,11.198722640696243 L48.10003427623132,11.25371139768217 L47.74944699372226,11.306775433735309 L47.39508917280318,11.35789354584606 L47.037102405649065,11.407045308545463 L46.67562973446746,11.454211082066665 L46.31081559434257,11.499372020192478 L45.942805755522734,11.54251007778582 L45.57174726517443,11.583608018000106 L45.19778838862605,11.622649419166617 L44.82107855012492,11.65961868135619 L44.44176827313129,11.69450103261254 L44.06000912017302,11.72728253485474 " />
			<path d="M41.18653026450952,9.08203083526345 L44.06000912017298,11.727282534854744 " />
			<path d="M57.4695771132691,-4.761453059264331 L57.571079976727205,-4.664822995838171 L57.66619273186073,-4.56769835476937 L57.75488381880329,-4.470111363498823 L57.8371238084962,-4.372094402882292 L57.912885412453456,-4.273679996445937 L57.982143491816515,-4.174900799594525 L58.04487506569572,-4.075789588775854 L58.10105931879572,-3.976379250605037 L58.15067760832232,-3.8767027709522126 L58.193713470168404,-3.776793223997335 L58.23015262437701,-3.6766837612556507 L58.25998297987965,-3.5764076005775225 L58.28319463850828,-3.475998015126236 L58.299779898279645,-3.375488322337457 L58.309733255950995,-3.274911872863997 L58.313051408846064,-3.174302039509604 " />
			<path d="M58.313051408846064,-3.1743020395095534 L58.309733255950995,-3.073692206155111 L58.299779898279645,-2.9731157566816506 L58.28319463850828,-2.8726060638928717 L58.25998297987965,-2.7721964784415847 L58.23015262437701,-2.671920317763456 L58.193713470168404,-2.5718108550217718 L58.15067760832232,-2.4719013080668937 L58.10105931879572,-2.372224828414069 L58.04487506569572,-2.2728144902432517 L57.982143491816515,-2.173703279424581 L57.912885412453456,-2.074924082573168 L57.8371238084962,-1.9765096761368135 L57.75488381880329,-1.878492715520281 L57.66619273186073,-1.7809057242497341 L57.571079976727205,-1.6837810831809332 L57.4695771132691,-1.587151019754776 " />
			<path d="M48.31305140884605,1.6091439915650527 L47.80630995488097,1.6872579908552696 L47.2915754563669,1.7612786995528191 L46.76928130461597,1.8311437943975362 L46.23986725594603,1.8967944510339265 L45.70377906141878,1.958175393539543 L45.161468091530466,2.015234940965688 L44.61339095617123,2.0679250508512474 L44.06000912017302,2.116201359673034 " />
			<path d="M44.06000912017297,11.727282534854744 L44.06000912017297,2.1162013596730365 " />
			<path d="M68.31305140884606,-3.1743020395095534 L68.311552968892,-3.091494453305313 L68.30705779871798,-3.00869513924745 L68.2995663473735,-2.9259123686559882 L68.28907936322457,-2.843154411198326 L68.27559789387891,-2.7604295340631264 L68.25912328608136,-2.677746001134464 L68.23965718557926,-2.59511207216629 L68.21720153695817,-2.51253600195732 L68.19175858344747,-2.4300260395264104 L68.16333086669636,-2.347590427288515 L68.13192122651995,-2.2652374002313027 L68.09753280061557,-2.182975185092511 L68.06016902424929,-2.1008119995381325 L68.01983362991282,-2.018756051341499 L67.97653064695058,-1.93681553756336 L67.93026440115722,-1.8549986437330293 L67.88103951434549,-1.7733135430306821 L67.82886090388453,-1.6917683954708886 L67.77373378220867,-1.6103713470874594 L67.71566365629666,-1.52913052911969 L67.65465632712163,-1.4480540572000842 L67.59071788907156,-1.367150030543632 L67.52385472934044,-1.2864265311387322 L67.45407352729029,-1.2058916229398347 L67.38138125378384,-1.1255533510618818 L67.30578517048825,-1.0454197409766355 L67.22729282914959,-0.9654987977109633 L67.14591207083856,-0.8857985050471684 L67.06165102516717,-0.8063268247254429 L66.97451810947655,-0.7270916956485212 L66.88452202799618,-0.6481010330886141 L66.79167177097435,-0.5693627278967073 L66.59744611597641,-0.4126746261876342 L66.39191875200625,-0.2570899990141937 L66.17517180245656,-0.10267101394953082 L65.94729187377482,0.05052062719349815 L65.70837002085757,0.20242371301676565 L65.45850171066733,0.3529775469953602 L65.19778678408642,0.5021219717303391 L64.9263294160231,0.6497973929860588 L64.64423807378611,0.7959448035024854 L64.35162547374382,0.9405058065729621 L64.0486085362858,1.0834226393780124 L63.73530833910439,1.2246381960658672 L63.411850068815255,1.3640960505704713 L63.078362970936055,1.501740479157876 L62.734980298243286,1.6375164826920008 L62.38183925752793,1.7713698086108494 L62.0190809547712,1.9032469726044265 L61.64685033876228,2.033095279985683 L61.26529614318049,2.1608628467459337 L60.87457082716525,2.2864986202863706 L60.474830514397304,2.4099523998173407 L60.06623493071581,2.531174856417289 L59.648947340296004,2.6501175527433087 L59.2231344804131,2.76673296238544 L58.78896649481842,2.880974488856995 L58.346616865754335,2.992796484213301 L57.89626234463532,3.1021542672914313 L57.43808288142262,3.209004141563633 L56.97226155272101,3.3133034125973353 L56.498984488626036,3.415010405114722 L56.018440798351364,3.5140844796450956 L55.530822494665586,3.610486048763356 L55.03632441716894,3.704176592908099 L54.53514415444049,3.795118675773039 L54.02748196508678,3.883275959265581 L53.51354069772381,3.9686132180265803 L52.993525709923944,4.051096353505471 L52.46764478616035,4.130692407585179 L51.93610805478174,4.207369575751307 L51.399127904050566,4.281097219800409 L50.85691889727816,4.351845880082212 L50.30969768709082,4.4195872872709305 L49.75768292886107,4.484294373660947 L49.20109519333862,4.545941283982374 L48.64015687851604,4.604503385732139 L48.07509212076435,4.659957279016497 L47.50612670527389,4.712280805901021 L46.9334879758365,4.761453059264327 " />
			<path d="M44.06000912017297,2.1162013596730374 L46.93348797583643,4.761453059264333 " />
			<path d="M46.93348797583643,4.761453059264333 L46.93348797583643,23.98361540962775 " />
			<path d="M48.313051408846064,5.608261979563663 L48.313051408846064,6.436779135672154 " />
			<path d="M58.31305140884607,6.436779135672154 L58.31305140884607,-3.174302039509554 " />

       </g>

       <!-- solid lines -->
       <g  stroke="rgb(0,0,0)" fill="none">
			<path d="M9.578262852211516,-0.7935755098773885 L8.14152342437979,-2.1162013596730365 " />
			<path d="M-1.4367394278317271,-1.3226258497956478 L8.14152342437979,-2.1162013596730365 " />
			<path d="M9.578262852211516,-0.7935755098773885 L9.578262852211516,7.375843489027064 " />
			<path d="M8.14152342437979,-2.1162013596730365 L8.14152342437979,7.494879815508671 " />
			<path d="M8.14152342437979,7.494879815508671 L17.719786276591307,6.701304305631282 " />
			<path d="M17.719786276591304,6.701304305631284 L17.719786276591304,-2.9097768695504236 " />
			<path d="M28.734788556634545,-2.3807265296321654 L27.298049128802816,-3.7033523794278134 " />
			<path d="M17.719786276591304,-2.9097768695504245 L27.29804912880282,-3.703352379427813 " />
			<path d="M28.734788556634545,16.84143582073125 L27.298049128802816,15.518809970935601 " />
			<path d="M28.734788556634545,-2.3807265296321654 L28.734788556634545,16.84143582073125 " />
			<path d="M27.298049128802816,-3.7033523794278134 L27.298049128802816,15.518809970935603 " />
			<path d="M-2.775557561562891e-16,19.222162350363416 L-1.4367394278317276,17.899536500567766 " />
			<path d="M28.734788556634545,16.84143582073125 L-3.552713678800501e-15,19.222162350363416 " />
			<path d="M27.298049128802816,15.518809970935601 L-1.436739427831732,17.899536500567766 " />
			<path d="M-1.4367394278317274,17.899536500567766 L-1.4367394278317271,-1.3226258497956493 " />
			<path d="M47.89131426105758,-3.9678775493869423 L47.942065692786635,-3.9195625176738624 L47.9896220703534,-3.871000197139462 L48.03396761382468,-3.8222067015041885 L48.07508760867113,-3.7731982211959227 L48.112968410649756,-3.7239910179777453 L48.14759745033129,-3.6746014195520393 L48.17896323727089,-3.625045814142704 L48.20705536382089,-3.5753406450572953 L48.231864508584195,-3.525502405230883 L48.253382439507234,-3.4755476317534444 L48.27160201661154,-3.4254929003826025 L48.28651719436286,-3.375354820043538 L48.29812302367717,-3.325150027317895 L48.30641565356285,-3.2748951809235054 L48.311392332398526,-3.224606956186775 L48.313051408846064,-3.1743020395095787 " />
			<path d="M38.313051408846064,-3.174302039509554 L47.89131426105758,-3.9678775493869423 " />
			<path d="M47.89131426105758,-3.9678775493869423 L47.89131426105758,5.643203625794765 " />
			<path d="M47.89131426105758,5.643203625794765 L57.4695771132691,4.849628115917376 " />
			<path d="M57.46957711326909,-1.5871510197547731 L57.32852230861201,-1.462659954166688 L57.17686196776279,-1.339123526104004 L57.01468067654327,-1.2166106357830648 L56.842068888645755,-1.095189612560485 L56.65912287518409,-0.9749281768236826 L56.465944671000166,-0.8558934022210547 L56.262642017755866,-0.7381516782528563 L56.04932830384205,-0.6217686732436576 L55.826122501138265,-0.5068092977170142 L55.59314909865828,-0.39333766819279514 L55.35053803311862,-0.2814170714273505 L55.09842461646868,-0.17110992911646017 L54.83694946042294,-0.06247776308076247 L54.56625839803731,0.04441883904693489 L54.28650240237336,0.14952025761331766 L53.99783750229583,0.2527678741963477 L53.70042469545034,0.35410410429863237 L53.39442985846984,0.453472429464143 L53.08002365445994,0.5508174288003636 L52.757381437814615,0.6460848098882939 L52.42668315641543,0.7392214390630665 L52.088113251268915,0.830175371048294 L51.741860553637856,0.9188958779276089 L51.388118179724096,1.0053334774372455 L51.02708342296143,1.0894399605638823 L50.65895764397878,1.1711684184323428 L50.28394615829491,1.2504732684681876 L49.90225812180739,1.3273102798205612 L49.51410641413968,1.4016365980311614 L49.11970751991136,1.473410768935537 L48.719281407997705,1.542592761783398 L48.31305140884609,1.6091439915650465 " />
			<path d="M57.46957711326909,4.849628115917377 L57.46957711326909,-4.761453059264331 " />
			<path d="M67.0478399654806,-5.555028569141719 L67.20009426066778,-5.410083474002479 L67.34276339336807,-5.264396512399278 L67.47580002378191,-5.118016025493458 L67.59916000832126,-4.97099058456866 L67.65719834110735,-4.8972512438346065 L67.71280241425715,-4.823368974914129 L67.76596761510464,-4.749349906750941 L67.81668953330174,-4.67520017963701 L67.86496396118416,-4.600925944703205 L67.91078689412055,-4.526533363409005 L67.95415453084462,-4.452028607031362 L67.99506327377055,-4.377417856152778 L68.03350972929135,-4.302707300148594 L68.06949070806044,-4.227903136673541 L68.1030032252562,-4.153011571147599 L68.13404450082957,-4.078038816241225 L68.16261195973469,-4.0029910913600055 L68.18870323214249,-3.9278746221286993 L68.21231615363732,-3.852695639874776 L68.23344876539645,-3.777460381111507 L68.2520993143526,-3.7021750870206267 L68.26826625333938,-3.626846002934577 L68.28194824121957,-3.551479377818409 L68.29314414299644,-3.4760814637514086 L68.30185302990787,-3.40065851540847 L68.30807417950345,-3.3252167895412184 L68.31180707570434,-3.2497625444589637 L68.31305140884606,-3.174302039509629 " />
			<path d="M57.46957711326909,-4.761453059264331 L67.0478399654806,-5.555028569141719 " />
			<path d="M67.0478399654806,13.667133781221699 L67.20009426066778,13.812078876360939 L67.34276339336807,13.95776583796414 L67.47580002378191,14.104146324869959 L67.59916000832126,14.251171765794757 L67.65719834110735,14.32491110652881 L67.71280241425715,14.398793375449289 L67.76596761510464,14.472812443612476 L67.81668953330174,14.546962170726408 L67.86496396118416,14.621236405660213 L67.91078689412055,14.695628986954413 L67.95415453084462,14.770133743332055 L67.99506327377055,14.844744494210639 L68.03350972929135,14.919455050214824 L68.06949070806044,14.994259213689876 L68.1030032252562,15.069150779215818 L68.13404450082957,15.144123534122192 L68.16261195973469,15.219171259003412 L68.18870323214249,15.294287728234718 L68.21231615363732,15.369466710488641 L68.23344876539645,15.444701969251911 L68.2520993143526,15.519987263342792 L68.26826625333938,15.59531634742884 L68.28194824121957,15.67068297254501 L68.29314414299644,15.746080886612008 L68.30185302990787,15.821503834954948 L68.30807417950345,15.896945560822198 L68.31180707570434,15.972399805904454 L68.31305140884606,16.04786031085379 " />
			<path d="M68.31305140884606,16.047860310853864 L68.311552968892,16.130667897058103 L68.30705779871798,16.21346721111597 L68.2995663473735,16.29624998170743 L68.28907936322457,16.379007939165092 L68.27559789387891,16.46173281630029 L68.25912328608136,16.544416349228953 L68.23965718557926,16.627050278197128 L68.21720153695817,16.709626348406097 L68.19175858344747,16.79213631083701 L68.16333086669636,16.874571923074903 L68.13192122651995,16.956924950132116 L68.09753280061557,17.039187165270906 L68.06016902424929,17.121350350825285 L68.01983362991282,17.203406299021918 L67.97653064695058,17.285346812800057 L67.93026440115722,17.36716370663039 L67.88103951434549,17.448848807332734 L67.82886090388453,17.530393954892528 L67.77373378220867,17.611791003275957 L67.71566365629666,17.69303182124373 L67.65465632712163,17.774108293163334 L67.59071788907156,17.855012319819785 L67.52385472934044,17.935735819224686 L67.45407352729029,18.01627072742358 L67.38138125378384,18.096608999301537 L67.30578517048825,18.176742609386782 L67.22729282914959,18.256663552652455 L67.14591207083856,18.33636384531625 L67.06165102516717,18.415835525637974 L66.97451810947655,18.495070654714898 L66.88452202799618,18.574061317274804 L66.79167177097435,18.65279962246671 L66.59744611597641,18.80948772417578 L66.39191875200625,18.965072351349225 L66.17517180245656,19.119491336413887 L65.94729187377482,19.272682977556915 L65.70837002085757,19.424586063380183 L65.45850171066733,19.575139897358778 L65.19778678408642,19.724284322093755 L64.9263294160231,19.871959743349475 L64.64423807378611,20.018107153865902 L64.35162547374382,20.16266815693638 L64.0486085362858,20.30558498974143 L63.73530833910439,20.446800546429284 L63.411850068815255,20.58625840093389 L63.078362970936055,20.723902829521293 L62.734980298243286,20.85967883305542 L62.38183925752793,20.99353215897427 L62.0190809547712,21.125409322967844 L61.64685033876228,21.2552576303491 L61.26529614318049,21.38302519710935 L60.87457082716525,21.50866097064979 L60.474830514397304,21.632114750180758 L60.06623493071581,21.753337206780706 L59.648947340296004,21.872279903106726 L59.2231344804131,21.98889531274886 L58.78896649481842,22.10313683922041 L58.346616865754335,22.21495883457672 L57.89626234463532,22.324316617654848 L57.43808288142262,22.43116649192705 L56.97226155272101,22.535465762960754 L56.498984488626036,22.63717275547814 L56.018440798351364,22.73624683000851 L55.530822494665586,22.832648399126775 L55.03632441716894,22.926338943271517 L54.53514415444049,23.017281026136455 L54.02748196508678,23.105438309628997 L53.51354069772381,23.19077556839 L52.993525709923944,23.27325870386889 L52.46764478616035,23.352854757948595 L51.93610805478174,23.429531926114723 L51.399127904050566,23.503259570163827 L50.85691889727816,23.574008230445628 L50.30969768709082,23.641749637634348 L49.75768292886107,23.706456724024363 L49.20109519333862,23.768103634345792 L48.64015687851604,23.826665736095556 L48.07509212076435,23.882119629379915 L47.50612670527389,23.93444315626444 L46.9334879758365,23.983615409627745 " />
			<path d="M67.0478399654806,-5.55502856914172 L67.0478399654806,13.667133781221697 " />
			<path d="M67.0478399654806,13.667133781221697 L38.31305140884606,16.047860310853864 " />
			<path d="M46.93348797583643,23.983615409627753 L38.313051408846064,16.047860310853867 " />
			<path d="M38.313051408846064,16.047860310853864 L38.313051408846064,-3.174302039509552 " />
			<path d="M48.313051408846064,-3.174302039509554 L48.313051408846064,5.608261979563663 " />
			<path d="M68.31305140884608,-3.1743020395095534 L68.31305140884608,16.047860310853864 " />

       </g>
    </g>
    
</svg>
