<?xml version="1.0" encoding="UTF-8" standalone="no"?>
<svg
   xmlns:svg="http://www.w3.org/2000/svg"
   xmlns="http://www.w3.org/2000/svg"
   width="800.0"
   height="240.0"

>
    <g transform="scale(6.997288050879331, -6.997288050879331)   translate(8.377172832809492,-10.96491288695655)" stroke-width="0.1429125102080559"  fill="none">
       <!-- hidden lines -->
       <g  stroke="rgb(160,160,160)" fill="none" stroke-dasharray="0.1429125102080559,0.1429125102080559" >
			<path d="M-1.9156525704423037,-4.166271426856291 L-7.662610281769213,-9.456774826038883 " />
			<path d="M-1.9156525704423037,-4.166271426856291 L-1.915652570442304,10.250350335916272 " />
			<path d="M-1.9156525704423037,-4.166271426856291 L7.662610281769212,-4.95984693673368 " />
			<path d="M20.55922982313581,6.500203461858998 L20.477142665300498,6.422589261486076 L20.397144810882928,6.342805960923716 L20.319284447599294,6.260901618648889 L20.24360847562105,6.176925570774782 L20.170162479324002,6.090928401332565 L20.098990699830004,6.002961911801469 L20.030136008357736,5.91307908990551 L19.963639880398702,5.821334077695663 L19.899542370733926,5.727782138936715 L19.83788208930648,5.632479625818442 L19.77869617796426,5.535483945011158 L19.72202028808716,5.436853523086077 L19.667888559111994,5.3366477713213385 L19.61633359796818,5.234927049914871 L19.567386459436545,5.131752631625668 L19.52107662744309,5.027186664865365 L19.477431997298975,4.921292136262366 L19.436478858897416,4.814132832721051 L19.398241880877656,4.705773302998927 L19.362744095765475,4.596278818824876 L19.33000688609928,4.485715335581903 L19.30004997155005,4.374149452578076 L19.272891397042947,4.261648372929601 L19.248547521887733,4.148279863080172 L19.227033009924522,4.034112211981 L19.208360820690842,3.919214189956105 L19.192542201615293,3.80365500727764 L19.179586681242505,3.6875042724762137 L19.16950206349351,3.570831950411316 L19.162294422964962,3.4537083201270993 L19.157968101269997,3.336203932518912 L19.156525704423032,3.218389567836077 L19.157968101269997,3.1003361930465165 L19.162294422964962,2.9821149190889042 L19.169502063493514,2.863796958038095 L19.179586681242505,2.7454535802096296 L19.192542201615293,2.62715607122917 L19.208360820690842,2.5089756890926975 L19.227033009924522,2.39098362124336 L19.248547521887733,2.273250941690824 L19.272891397042947,2.1558485681989423 L19.30004997155005,2.0388472195675504 L19.33000688609928,1.9223173730341026 L19.362744095765475,1.8063292218208162 L19.398241880877656,1.6909526328529068 L19.436478858897416,1.576257104673359 L19.477431997298975,1.4623117255796079 L19.52107662744309,1.3491851320073278 L19.567386459436545,1.2369454671864102 L19.61633359796818,1.1256603400940304 L19.667888559111994,1.0153967847295313 L19.72202028808716,0.9062212197356441 L19.77869617796426,0.7981994083903858 L19.83788208930648,0.6913964189937123 L19.899542370733926,0.5858765856728163 L19.963639880398702,0.48170346962964894 L20.030136008357736,0.37893982085403133 L20.098990699830004,0.2776475403254066 L20.170162479324002,0.17788764272600188 L20.24360847562105,0.0797202196878688 L20.319284447599294,-0.016795596404071578 L20.397144810882928,-0.11160166803116489 L20.477142665300498,-0.2046408875608896 L20.55922982313581,-0.2958572116463598 L20.643356838154418,-0.3851956949847466 L20.729473035388196,-0.4726025234142681 L20.81752654166002,-0.5580250463298295 L20.907464316830236,-0.6414118083977796 L20.99923218574608,-0.7227125805506809 L21.092774870874734,-0.801878390243421 L21.188036025600468,-0.8788615509524411 L21.284958268165713,-0.9536156909003148 L21.38348321623571,-1.0260957809883773 L21.483551522065824,-1.0962581619205611 L21.585102908250413,-1.1640605705021358 L21.6880762040317,-1.2294621650974662 L21.792409382146715,-1.2924235502314918 L21.89803959619024,-1.3529068003200848 L22.004903218471103,-1.4108754825150074 L22.112935878339123,-1.4662946786496924 L22.222072500959598,-1.5191310062726462 L22.33224734651195,-1.5693526387557881 L22.44339404978891,-1.616929324465615 L22.555445660172477,-1.661832404985665 L22.66833468196243,-1.7040348323792642 L22.781993115033238,-1.7435111854822027 L22.89635249579478,-1.7802376852154884 L23.01134393843226,-1.8141922089089721 L23.126898176400434,-1.8453543036272233 L23.242945604147206,-1.873705198489608 L23.359416319041397,-1.8992278159771718 L23.476240163479474,-1.9219067822194926 L23.593346767145867,-1.9417284362553247 L23.71066558940143,-1.9586808382614578 L23.828125961774468,-1.9727537767448133 L23.94565713052879,-1.9839387746934722 L24.063188299283112,-1.9922290946829015 L24.18064867165615,-1.9976197429343356 L24.297967493911713,-2.0001074723228385 L24.415074097578106,-1.9996907843332474 L24.531897942016183,-1.9963699299628264 L24.64836865691037,-1.9901469095700737 L24.764416084657146,-1.9810254716697804 L24.879970322625322,-1.9690111106750647 L24.9949617652628,-1.9541110635877441 L25.109321146024342,-1.9363343056390345 L25.22297957909515,-1.9156915448832113 L25.335868600885103,-1.892195215747468 L25.447920211268666,-1.8658594715418921 L25.55906691454563,-1.8367001759340376 L25.66924176009798,-1.804734893393242 L25.778378382718458,-1.7699828786104481 L25.886411042586477,-1.7324650648998992 L25.993274664867336,-1.6922040515896946 L26.09890487891086,-1.6492240904087963 L26.20323805702588,-1.6035510708786944 L26.306211352807164,-1.5552125047185301 L26.407762738991757,-1.5042375092730618 L26.50783104482187,-1.4506567899734693 L26.606355992891864,-1.3945026218415464 L26.703278235457113,-1.3358088300484354 L26.798539390182842,-1.2746107695396107 L26.8920820753115,-1.2109453037383808 L26.983849944227345,-1.1448507823407352 L27.073787719397565,-1.0763670182149347 L27.161841225669384,-1.0055352634197163 L27.24795742290316,-0.9323981843555971 L27.332084437921758,-0.8569998360642472 " />
			<path d="M25.813418386710037,2.6668545884712915 L25.81215276289756,2.7359421030423428 L25.808357606672548,2.805145706292504 L25.802038061347687,2.874371611365569 L25.79320269136559,2.9435260011812105 L25.781863470691995,3.0125151555787832 L25.76803576658827,3.0812455783297734 L25.75173831878523,3.149624123846772 L25.732993214086484,3.217558123417243 L25.711825856435702,3.284955510791017 L25.68826493248842,3.351724946951315 L25.662342372734994,3.4177759439001982 L25.634093308227428,3.48301898729069 L25.603556022968668,3.5473656577393835 L25.57077190202896,3.6107287506551113 L25.535785375459508,3.6730223944212925 L25.498643858079525,3.7341621667717995 L25.45939768521819,3.7940652092026133 L25.418100044498658,3.8526503392642213 L25.374806903756564,3.909838160582578 L25.329576935190676,3.9655511704595163 L25.282471435848535,4.019713864906791 L25.233554244554792,4.072252840971414 L25.182891655394883,4.123096896213598 L25.130552327871225,4.172177125202496 L25.076607193853746,4.219427012898969 L25.021129361450836,4.264782524798814 L24.964194015930975,4.308182193714297 L24.905878317829348,4.349567203076381 L24.846261298377502,4.388881466644759 L24.785423752397797,4.4260717045176445 L24.723448128807757,4.461087515338347 L24.66041841888276,4.493881444600742 L24.596420042428484,4.524409048961074 L24.531539732017343,4.5526289564689515 L24.46586541544583,4.578502922635891 L24.399486096572055,4.60199588226542 L24.332491734694994,4.623075996974521 L24.26497312263885,4.641714698341978 L24.19702176370782,4.657886726625195 L24.128729747678022,4.671570164992964 L24.060189625994564,4.682746469227842 L23.991494286342977,4.69140049285784 L23.92273682676498,4.697520507683386 L23.85401042948912,4.701098219671753 L23.785408234647363,4.702128780197375 L23.71702321404871,4.7006107926128635 L23.648948045180916,4.696546314141783 L23.58127498561114,4.689940853090636 L23.514095747955622,4.680803361383844 L23.447501375587912,4.669146222431814 L23.3815821192541,4.654985234348565 L23.316427314762223,4.638339588541637 L23.252125261911612,4.619231843703299 L23.188763104826293,4.597687895238322 L23.126426713854578,4.573736940169721 L23.065200569194925,4.5474114375700525 L23.00516764640577,4.518747064571878 L22.94640930395449,4.487782668017015 L22.889005172957898,4.454560211810099 L22.833033049263708,4.419124720047809 L22.778568788019196,4.381524216000819 L22.72568620086997,4.341809657031186 L22.674456955928147,4.30003486553336 L22.624950480645538,4.256256455992424 " />
			<path d="M22.624950480645527,4.256256455992412 L22.561737325866904,4.194871430627653 L22.50185815511477,4.130178078469568 L22.445457222556264,4.062332251469977 L22.392670402978055,3.991497396168712 L22.34362486445209,3.917844159936596 L22.298438761976556,3.8415499798709734 L22.257220952830153,3.762798655334203 L22.22007073432537,3.6817799051648956 L22.187077604592556,3.598688910628613 L22.158321046971096,3.513725845209105 L22.133870338527082,3.427095392372853 L22.113784383158777,3.3390062524686703 L22.09811156969199,3.249670639950284 L22.08688965530714,3.1593037721331267 L22.080145674578898,3.068123350716972 L22.077895874347544,2.9763490373234736 L22.080145674578898,2.884201924312076 L22.08688965530714,2.791904002149159 L22.09811156969199,2.6996776246135554 L22.113784383158777,2.6077449731268247 L22.133870338527082,2.516327521498748 L22.158321046971096,2.4256455023775216 L22.187077604592556,2.3359173766900136 L22.22007073432537,2.247359307350261 L22.257220952830153,2.160184638504075 L22.298438761976556,2.074603381564305 L22.34362486445209,1.9908217092749512 L22.392670402978055,1.9090414590229665 L22.445457222556264,1.8294596465943118 L22.50185815511477,1.7522679915456723 L22.561737325866904,1.677652455335249 L22.624950480645527,1.6057927933253229 L22.69134533342396,1.5368621217358387 L22.760761933186355,1.4710265005922694 L22.833033049263708,1.4084445336724691 L22.90798457420719,1.3492669864162805 L22.985435943228232,1.2936364227183843 L23.065200569194925,1.2416868614793917 L23.147086292136756,1.1935434537425702 L23.23089584217482,1.1493221811940235 L23.316427314762223,1.109129576752646 L23.403474657089827,1.0730624679229943 L23.491828164485526,1.0412077435293443 L23.58127498561114,1.0136421443929045 L23.67159963523997,0.9904320784564562 L23.762584513379558,0.9716334608018014 L23.85401042948912,0.9572915789454348 L23.94565713052879,0.9474409837369495 L24.03730383156846,0.9421054061230123 L24.128729747678022,0.9412976999774367 L24.219714625817605,0.9450198111350747 L24.31003927544644,0.9532627727041281 L24.399486096572055,0.9660067266681798 L24.487839603967753,0.9832209717258911 L24.574886946295358,1.0048640372531286 L24.66041841888276,1.0308837832093285 L24.744227968920825,1.0612175257474223 L24.826113691862655,1.0957921882247126 L24.905878317829348,1.1345244772509089 L24.98332968685039,1.1773210833492003 L25.058281211793872,1.2240789057469552 L25.130552327871225,1.2746853007545165 L25.19996892763362,1.329018353133714 L25.266363780412046,1.3869471698023468 " />
			<path d="M25.266363780412053,1.386947169802352 L25.329576935190676,1.448332195167112 L25.38945610594281,1.513025547325197 L25.445857038501316,1.580871374324789 L25.498643858079525,1.6517062296260534 L25.54768939660549,1.725359465858169 L25.592875499081025,1.8016536459237915 L25.634093308227428,1.8804049704605614 L25.671243526732212,1.9614237206298692 L25.704236656465024,2.0445147151661525 L25.732993214086484,2.12947778058566 L25.7574439225305,2.216108233421912 L25.777529877898804,2.304197373326094 L25.79320269136559,2.39353298584448 L25.80442460575044,2.483899853661638 L25.811168586478683,2.5750802750777932 L25.813418386710037,2.666854588471283 " />
			<path d="M42.811673299968106,6.3555655116463345 L42.71903430442836,6.268557339132677 L42.62814786565212,6.179708981899948 L42.53904477927385,6.089050545006398 L42.45175523666334,5.996612746831172 L42.36630881469567,5.902426908665802 L42.28273446572958,5.806524944101406 L42.20106050779731,5.708939348215214 L42.1213146150094,5.609703186560042 L42.04352380817777,5.508850083960484 L41.96771444565998,5.406414213119595 L41.89391221442817,5.302430283039939 L41.82214212136529,5.19693352726291 L41.75242848479189,5.0899596919303285 L41.684794926226225,4.981545023672346 L41.61926436238034,4.8717262573257685 L41.555858997395134,4.760540603486952 L41.49460031531675,4.648025735903509 L41.43550907281701,4.534219778709052 L41.37860529216027,4.41916129350537 L41.32390825441921,4.30288926629634 L41.27143649294163,4.18544309427805 L41.221207787070746,4.066862572489603 L41.17323915612083,3.9471878803291043 L41.127546853610525,3.826459567939414 L41.08414636175549,3.7047185424682905 L41.04305238622251,3.582006054207552 L41.004278851146665,3.4583636826159827 L40.96783889441331,3.333833322230691 L40.93374486320652,3.208457168471723 L40.902008309825355,3.0822777033447095 L40.872639987769595,2.9553376810464225 L40.845649848095995,2.8276801134780953 L40.821047036046544,2.6993482556714206 L40.79883988794971,2.5703855911321747 L40.7790359283958,2.4408358171064215 L40.76164186768733,2.310742829774297 L40.74666359956537,2.180150709376378 L40.73410619921249,2.049103705277701 L40.723973921533116,1.9176462209744587 L40.71627019971184,1.7858227990484865 L40.71099764405008,1.653678106074604 L40.70815804108167,1.5212569174859611 L40.70775235296747,1.3886041024024904 L40.70978071716939,1.2557646084276133 L40.71424244640379,1.1227834464183544 L40.72113602887436,0.9897056752340272 L40.730459128784375,0.8565763864686535 L40.74220858712815,0.723440689172282 L40.75638042276141,0.5903436945664113 L40.77296983375028,0.4573305007586548 L40.791971198998326,0.32444617746186655 L40.813378080151175,0.1917357507228763 L40.837183223778126,0.059244187666035675 L40.86337856382979,-0.07298361874329506 L40.891955224371245,-0.20490286491010723 L40.922903522589465,-0.3364688517908365 L40.95621297207424,-0.467637000039026 L40.99187228637133,-0.5983628651104342 L41.02986938280678,-0.7286021523224622 L41.07019138658088,-0.8583107318628036 L41.1128246351307,-0.987444653742235 L41.15775468275943,-1.1159601626864695 L41.20496630553111,-1.2438137129620381 L41.254443506429034,-1.3709619831311697 L41.30616952077616,-1.4973618907306756 L41.360126821915564,-1.6229706068698455 L41.416297127149136,-1.7477455707424463 L41.47466140393239,-1.871644504047865 L41.53519987632339,-1.9946254253165434 L41.5978920316836,-2.116646664134824 L41.662716627628264,-2.2376668752643996 L41.729651699224114,-2.3576450526515944 L41.7986745664319,-2.476540543321702 L41.8697618417912,-2.594313061153694 L41.942889438344956,-2.710922700530628 L42.018032577801,-2.826329949861114 L42.095165798927844,-2.9404957049672933 L42.17426296618188,-3.0533812823347497 L42.25529727856304,-3.1649484322198895 L42.33824127869597,-3.2751593516103585 L42.42306686213356,-3.383976697034069 L42.50974528687979,-3.4913635972125303 L42.598247183128535,-3.597283665554182 L42.68854256321514,-3.7017010124834955 L42.78060083177732,-3.8045802576016654 L42.874390796122,-3.9058865416747843 L42.969880676794524,-4.005585538445411 L43.06703811834669,-4.103643466263563 L43.16583020029995,-4.200027099533171 L43.266223448300096,-4.294703779970112 L43.368183845459534,-4.387641427668031 L43.471676843883515,-4.478808551968184 L43.57666737637615,-4.5681742621296095 L43.6831198683225,-4.65570827779605 L43.79099824974254,-4.741380939256027 L43.900265967512965,-4.825163217492635 L44.01088599775274,-4.9070267240196355 L44.12282085836813,-4.986943720500502 L44.23603262175298,-5.064887128147181 L44.350482927640016,-5.140830536895367 L44.46613299609865,-5.214748214353204 L44.58294364067507,-5.286615114520348 L44.70087528166999,-5.356406886274469 L44.81988795954976,-5.424099881622292 L44.93994134848605,-5.4896711637124 L45.060994770019754,-5.553098514607079 L45.183007206844295,-5.614360442810565 L45.30593731670379,-5.673436190551133 L45.42974344640136,-5.7303057408145985 L45.55438364591267,-5.784949824126807 L45.679815682600186,-5.837349925082828 L45.80599705552311,-5.887488288620659 L45.93288500983823,-5.935347926037277 L46.06043655128685,-5.980912620745036 L46.18860846076278,-6.0241669337664305 L46.317357308956566,-6.065096208965393 L46.4466394710709,-6.1036865780133205 L46.576411141602314,-6.139924965088163 L46.70662834918406,-6.173799091305003 L46.83724697148521,-6.205297478876577 L46.96822275016092,-6.234409455002368 L47.09951130584876,-6.261125155484949 L47.231068153206074,-6.28543552807232 L47.3628487159832,-6.30733233552515 L47.494808342127556,-6.326808158407845 L47.626902318913366,-6.343856397602529 L47.75908588809198,-6.3584712765450675 L47.891314261057545,-6.3706478431823665 " />
			<path d="M47.89131426105758,0.8376630382039116 L47.89131426105758,-4.928985666905113 " />
			<path d="M47.89131426105758,0.8376630382039116 L55.07501140021622,0.2424814057958703 " />
			<path d="M47.89131426105758,0.8376630382039116 L42.144356549730674,-4.45284036097868 " />
			<path d="M70.16077539244935,-13.501805549997236 L70.12408043165311,-13.530823923635095 L70.07818474512057,-13.558825852134524 L70.02345217743927,-13.585589346221672 L69.9603166288299,-13.610902234487767 L69.8892786153405,-13.634563845408156 L69.81090130093426,-13.65638659819438 L69.72580603292698,-13.67619748986757 L69.63466741616789,-13.693839466764198 L69.53820796501361,-13.709172669601328 L69.43719237549278,-13.722075542231014 L69.33242146306942,-13.732445795293945 L69.22472581406441,-13.740201217132908 L69.11495920106415,-13.745280325537404 L69.0039918145169,-13.747642855152618 L68.8927033641741,-13.747270076688753 L68.78197610506615,-13.744164945400142 L68.67268784330007,-13.738352077657046 L68.5657049771266,-13.729877555795873 L68.46187562844479,-13.718808562794909 L68.36202291919494,-13.705232849671676 L68.26693844594222,-13.689258039824265 L68.17737600438223,-13.671010775831526 L68.09404561351835,-13.650635715475998 L68.01760788688505,-13.62829438494874 L67.94866879544001,-13.604163898327476 L67.88777486364316,-13.578435553479522 L67.83540883680617,-13.55131331552072 L67.79198585406033,-13.523012199852941 L67.75785015728202,-13.493756567598902 L67.73327236206617,-13.463778346947413 L67.72463157251718,-13.448592361169094 L67.71844731238264,-13.433315194509653 L67.71473184439203,-13.41797713996433 L67.71349253592291,-13.402608611262567 " />
			<path d="M67.71349253592291,-13.402608611262563 L67.71499821566644,-13.385669690433142 L67.71951162758266,-13.368771576947674 L67.72702189846693,-13.351954979841643 L67.73751093541887,-13.335260411770442 L67.75095346942973,-13.31872809141082 L67.76731711625764,-13.302397846570589 L67.8086431202838,-13.270500365815495 L67.86109095548747,-13.239875159681771 L67.92415552054473,-13.210817165645924 L67.99722946921949,-13.183606228075234 L68.07960905943973,-13.158504403173518 L68.17050093071835,-13.135753435236634 L68.2690297446484,-13.115572428522757 L68.37424661489041,-13.098155737158603 L68.48513824546654,-13.083671093402941 L68.60063668935483,-13.072257992293249 L68.71962963340275,-13.064026348232249 L68.84097111051096,-13.059055436452123 L68.96349253592291,-13.057393129550691 L69.08601396133486,-13.059055436452123 L69.20735543844307,-13.064026348232249 L69.32634838249099,-13.072257992293249 L69.44184682637928,-13.083671093402941 L69.55273845695541,-13.098155737158603 L69.65795532719741,-13.115572428522757 L69.75648414112747,-13.135753435236634 L69.8473760124061,-13.158504403173518 L69.92975560262633,-13.183606228075234 L70.00282955130109,-13.210817165645924 L70.06589411635835,-13.239875159681771 L70.11834195156202,-13.270500365815497 L70.15966795558818,-13.302397846570589 L70.17603160241609,-13.31872809141082 L70.18947413642695,-13.335260411770442 L70.19996317337889,-13.351954979841643 L70.20747344426316,-13.368771576947674 L70.21198685617938,-13.385669690433142 L70.21349253592291,-13.402608611262561 " />
			<path d="M70.21349253592291,-13.402608611262563 L70.21017575911252,-13.427740208829311 L70.20024303029476,-13.45273843695603 L70.18374706090104,-13.47747063397336 L70.16077539244935,-13.501805549997234 " />
			<path d="M61.49379133742511,-13.21661435113505 L61.51137278111395,-13.16893492092013 L61.532943919350465,-13.121380594256815 L61.55849320344043,-13.073976830644417 L61.58800695488122,-13.026749008974244 L61.62146937268507,-12.979722413942298 L61.65886254183849,-12.93292222251245 L61.7001664428936,-12.886373490437252 L61.74535896268604,-12.84010113884367 L61.79441590617392,-12.794129940890874 L61.847311009391206,-12.748484508507264 L61.904015953508924,-12.703189279213802 L61.96450037999637,-12.658268503040718 L62.0287319068744,-12.613746229544605 L62.09667614605195,-12.569646294932832 L62.16829672173671,-12.525992309302186 L62.24355528990983,-12.482807643998564 L62.322411558854455,-12.44011541910449 L62.40482331072699,-12.39793849106115 L62.58013489788162,-12.31522055981153 L62.76911467035977,-12.234830967697611 L62.97135798052941,-12.156941846676487 L63.18643178058081,-12.081719974641734 L63.41387554977803,-12.00932641831492 L63.65320228053595,-11.93991618836601 L63.90389952121169,-11.873637907501122 L64.16543047337721,-11.810633492228334 L64.43723514122394,-11.751037848982934 L64.718731530638,-11.69497858526282 L65.00931689537886,-11.642575736392516 L65.30836902769273,-11.5939415085009 L65.61524759059748,-11.549180038262994 L65.92929548898617,-11.508387169920224 L66.24984027661361,-11.47165025005663 L66.5761955959529,-11.439047940570445 L66.9076626478392,-11.410650050241514 L67.24353168775397,-11.386517385255207 L67.5830835455453,-11.366701619002878 L67.92559116533097,-11.351245181437665 L68.27032116228634,-11.340181168222554 L68.61653539298405,-11.333533269865207 L68.96349253592291,-11.331315720991336 L69.31044967886177,-11.333533269865207 L69.65666390955948,-11.340181168222554 L70.00139390651485,-11.351245181437665 L70.34390152630051,-11.366701619002878 L70.68345338409186,-11.386517385255207 L71.01932242400662,-11.410650050241514 L71.35078947589294,-11.439047940570445 L71.67714479523221,-11.471650250056632 L71.99768958285965,-11.508387169920224 L72.31173748124834,-11.549180038262994 L72.61861604415309,-11.5939415085009 L72.91766817646696,-11.642575736392516 L73.20825354120782,-11.694978585262822 L73.48974993062188,-11.751037848982936 L73.7615545984686,-11.810633492228334 L74.02308555063414,-11.873637907501124 L74.27378279130987,-11.93991618836601 L74.5131095220678,-12.00932641831492 L74.740553291265,-12.081719974641736 L74.95562709131642,-12.156941846676489 L75.15787040148605,-12.234830967697611 L75.3468501739642,-12.315220559811532 L75.52216176111884,-12.39793849106115 L75.60457351299137,-12.440115419104492 L75.683429781936,-12.482807643998566 L75.75868835010911,-12.525992309302186 L75.83030892579387,-12.569646294932832 L75.89825316497142,-12.613746229544605 L75.96248469184944,-12.658268503040718 L76.02296911833689,-12.703189279213802 L76.07967406245461,-12.748484508507266 L76.13256916567191,-12.794129940890876 L76.18162610915978,-12.840101138843671 L76.22681862895223,-12.886373490437254 L76.26812253000733,-12.932922222512452 L76.30551569916075,-12.9797224139423 L76.3389781169646,-13.026749008974244 L76.3684918684054,-13.073976830644419 L76.39404115249535,-13.121380594256816 L76.41561229073187,-13.168934920920131 L76.43319373442071,-13.216614351135041 " />
			<path d="M19.51940606908514,-3.9035562293802393 L25.26636378041205,1.3869471698023528 " />
			<path d="M16.877992769318617,-1.0342469431901797 L22.624950480645527,4.256256455992412 " />
			<path d="M67.71349253592291,5.819553739100851 L67.71349253592291,-13.402608611262565 " />
			<path d="M70.21349253592291,5.819553739100852 L70.21349253592291,-13.402608611262565 " />

       </g>

       <!-- solid lines -->
       <g  stroke="rgb(0,0,0)" fill="none">
			<path d="M-7.662610281769212,-9.456774826038883 L-7.662610281769212,4.95984693673368 " />
			<path d="M-1.9156525704423037,10.250350335916272 L-7.662610281769213,4.95984693673368 " />
			<path d="M7.662610281769212,-4.95984693673368 L1.9156525704423029,-10.250350335916272 " />
			<path d="M1.9156525704423037,-10.250350335916272 L1.9156525704423035,4.166271426856291 " />
			<path d="M7.662610281769212,9.456774826038883 L1.9156525704423029,4.166271426856291 " />
			<path d="M7.662610281769212,-4.95984693673368 L7.662610281769212,9.456774826038883 " />
			<path d="M-7.662610281769212,-9.456774826038883 L1.9156525704423037,-10.250350335916272 " />
			<path d="M-1.9156525704423037,10.250350335916272 L7.662610281769212,9.456774826038883 " />
			<path d="M-7.662610281769212,4.95984693673368 L1.9156525704423037,4.166271426856291 " />
			<path d="M22.987830845307638,-2.865689341223904 L22.98458565604489,-2.6885418679647985 L22.974854486237156,-2.5110967314259227 L22.958650523865714,-2.3335944107257562 L22.935995729039828,-2.1562754624805214 L22.906920804235735,-1.9793801947944365 L22.871465152687723,-1.8031483415867695 L22.829676824987626,-1.6278187376970294 L22.781612453965195,-1.4536289952086423 L22.727337177937546,-1.280815181429735 L22.666924552431695,-1.1096114989674326 L22.60045645049984,-0.9402499683292709 L22.52802295176249,-0.772960113481856 L22.449722220329775,-0.6079686507928985 L22.36566037176641,-0.4454991817782119 L22.27595132928064,-0.28577189007005455 L22.180716669331968,-0.12900324301747235 L22.080085456867003,0.024594301676922115 L21.974194070406668,0.17481258388617293 L21.86318601722181,0.32144802316401 L21.747211738847742,0.46430189464333926 L21.626428407201225,0.6031805983542999 L21.50099971157625,0.7378959215969236 L21.37109563680725,0.8682652940127804 L21.236892232900434,0.9941120350099544 L21.09857137644536,1.1152655932060385 L20.956320524130202,1.2315617775646155 L20.81033245869466,1.3428429799120067 L20.660805027664846,1.4489583885327377 L20.507940875224218,1.5497641925542176 L20.35194716758395,1.6451237768436675 L20.193035312224872,1.7349079071531621 L20.031420671391547,1.8189949052618672 L19.867322270226737,1.8972708138781025 L19.70096249994176,1.96962955107779 L19.532566816425053,2.035973054069941 L19.362363434697432,2.0962114120943767 L19.190583019628047,2.1502629882715567 L19.017458373330236,2.1980545302393972 L18.84322411966093,2.239521269427131 L18.668116386251196,2.2746070088316674 L18.492372484498734,2.303264199177508 L18.316230587956202,2.3254540033569873 L18.13992940955108,2.3411463490635187 L17.963707878074516,2.3503199695465105 L17.787804814377708,2.3529624324327214 L17.612458607714487,2.3490701565750003 L17.437906892668874,2.3386484169055626 L17.264386227105348,2.3217113372872387 L17.09213177157837,2.298281871372386 L16.92137697063552,2.268391771495385 L16.752353236446265,2.2320815456409013 L16.58528963518504,2.1894004025462124 L16.42041257659373,2.140406185012014 L16.257945507144193,2.085165291512074 L16.098108607216716,2.0237525862079684 L15.94111849270479,1.9562512974908683 L15.787187921450549,1.882752905187858 L15.636525504908802,1.803357016585644 L15.489335425430362,1.7181712314397064 L15.345817159547824,1.6273109961517829 L15.206165207638819,1.530899447313347 L15.070568830333107,1.4290672448271091 L14.939211792020743,1.3219523948326826 L14.81227211180893,1.2097000626764354 " />
			<path d="M14.812272111808898,1.209700062676407 L14.730184953973588,1.1320858623034842 L14.65018709955602,1.0523025617411252 L14.572326736272384,0.9703982194662983 L14.496650764294138,0.8864221715921907 L14.423204767997092,0.8004250021499737 L14.352032988503094,0.7124585126188783 L14.283178297030826,0.6225756907229192 L14.216682169071792,0.5308306785130714 L14.152584659407017,0.4372787397541238 L14.090924377979569,0.3419762266358508 L14.03173846663735,0.24498054582856676 L13.97506257676025,0.14635012390348567 L13.920930847785083,0.04614437213874689 L13.869375886641269,-0.05557634926771993 L13.820428748109634,-0.1587507675569233 L13.77411891611618,-0.2633167343172267 L13.730474285972065,-0.3692112629202251 L13.689521147570508,-0.4763705664615403 L13.651284169550745,-0.5847300961836639 L13.615786384438564,-0.6942245803577147 L13.58304917477237,-0.8047880636006888 L13.553092260223139,-0.9163539466045147 L13.525933685716037,-1.0288550262529899 L13.501589810560823,-1.142223536102419 L13.480075298597612,-1.2563911872015912 L13.461403109363932,-1.3712892092264863 L13.445584490288383,-1.4868483919049515 L13.432628969915593,-1.6029991267063777 L13.422544352166602,-1.7196714487712752 L13.415336711638052,-1.8367950790554919 L13.411010389943087,-1.954299466663679 L13.409567993096122,-2.072113831346514 L13.411010389943087,-2.1901672061360746 L13.415336711638052,-2.308388480093687 L13.422544352166604,-2.4267064411444963 L13.432628969915593,-2.5450498189729616 L13.445584490288383,-2.663347327953421 L13.461403109363932,-2.7815277100898936 L13.480075298597612,-2.899519777939231 L13.501589810560823,-3.017252457491767 L13.525933685716037,-3.134654830983649 L13.553092260223139,-3.2516561796150407 L13.58304917477237,-3.3681860261484884 L13.615786384438564,-3.484174177361775 L13.651284169550745,-3.5995507663296844 L13.689521147570508,-3.7142462945092323 L13.730474285972065,-3.8281916736029835 L13.77411891611618,-3.941318267175263 L13.820428748109634,-4.053557931996181 L13.869375886641269,-4.164843059088561 L13.920930847785083,-4.27510661445306 L13.97506257676025,-4.384282179446947 L14.03173846663735,-4.492303990792205 L14.090924377979569,-4.599106980188878 L14.152584659407015,-4.704626813509774 L14.21668216907179,-4.808799929552942 L14.283178297030826,-4.911563578328559 L14.352032988503094,-5.0128558588571845 L14.423204767997092,-5.11261575645659 L14.496650764294136,-5.210783179494722 L14.572326736272384,-5.307298995586663 L14.650187099556018,-5.402105067213756 L14.730184953973586,-5.49514428674348 L14.812272111808898,-5.586360610828951 L14.896399126827509,-5.675699094167338 L14.982515324061286,-5.763105922596859 L15.070568830333107,-5.848528445512421 L15.160506605503326,-5.931915207580371 L15.252274474419169,-6.013215979733272 L15.345817159547824,-6.092381789426012 L15.441078314273556,-6.169364950135032 L15.538000556838805,-6.244119090082906 L15.6365255049088,-6.316599180170968 L15.736593810738913,-6.386761561103152 L15.838145196923504,-6.4545639696847275 L15.941118492704788,-6.519965564280057 L16.04545167081981,-6.582926949414083 L16.15108188486333,-6.643410199502676 L16.257945507144193,-6.7013788816975985 L16.365978167012212,-6.756798077832284 L16.475114789632688,-6.809634405455237 L16.58528963518504,-6.859856037938379 L16.696436338462,-6.907432723648206 L16.808487948845567,-6.952335804168256 L16.92137697063552,-6.994538231561855 L17.035035403706328,-7.034014584664794 L17.14939478446787,-7.07074108439808 L17.264386227105348,-7.104695608091563 L17.379940465073524,-7.1358577028098145 L17.495987892820295,-7.164208597672199 L17.612458607714487,-7.189731215159763 L17.72928245215256,-7.212410181402084 L17.846389055818957,-7.232231835437916 L17.96370787807452,-7.249184237444049 L18.081168250447558,-7.2632571759274045 L18.19869941920188,-7.274442173876063 L18.316230587956202,-7.282732493865493 L18.433690960329237,-7.288123142116927 L18.5510097825848,-7.29061087150543 L18.668116386251196,-7.290194183515839 L18.784940230689273,-7.2868733291454175 L18.90141094558346,-7.280650308752665 L19.017458373330236,-7.2715288708523715 L19.133012611298412,-7.259514509857656 L19.24800405393589,-7.244614462770335 L19.362363434697432,-7.226837704821626 L19.47602186776824,-7.206194944065802 L19.588910889558193,-7.182698614930059 L19.700962499941756,-7.156362870724483 L19.81210920321872,-7.127203575116629 L19.92228404877107,-7.095238292575833 L20.031420671391547,-7.060486277793039 L20.139453331259567,-7.02296846408249 L20.24631695354043,-6.982707450772286 L20.35194716758395,-6.939727489591387 L20.45628034569897,-6.894054470061286 L20.559253641480254,-6.845715903901121 L20.660805027664846,-6.794740908455653 L20.760873333494956,-6.74116018915606 L20.859398281564953,-6.6850060210241375 L20.9563205241302,-6.626312229231027 L21.051581678855932,-6.565114168722202 L21.14512436398459,-6.501448702920972 L21.236892232900434,-6.435354181523326 L21.32683000807065,-6.366870417397526 L21.414883514342474,-6.2960386626023075 L21.50099971157625,-6.222901583538189 L21.585126726594847,-6.147503235246838 " />
			<path d="M21.58512672659486,-6.147503235246825 L21.667213884430172,-6.069889034873903 L21.74721173884774,-5.990105734311543 L21.825072102131372,-5.908201392036717 L21.90074807410962,-5.824225344162608 L21.974194070406668,-5.73822817472039 L22.045365849900666,-5.650261685189294 L22.114220541372934,-5.5603788632933355 L22.180716669331968,-5.468633851083489 L22.24481417899674,-5.375081912324541 L22.30647446042419,-5.2797793992062685 L22.36566037176641,-5.182783718398984 L22.42233626164351,-5.084153296473904 L22.476467990618676,-4.9839475447091655 L22.52802295176249,-4.882226823302698 L22.576970090294125,-4.779052405013496 L22.62327992228758,-4.674486438253191 L22.666924552431695,-4.568591909650191 L22.70787769083325,-4.461432606108875 L22.746114668853014,-4.353073076386753 L22.781612453965195,-4.243578592212702 L22.81434966363139,-4.133015108969729 L22.84430657818062,-4.0214492259659025 L22.871465152687723,-3.908948146317429 L22.895809027842937,-3.7955796364679992 L22.917323539806148,-3.681411985368828 L22.935995729039824,-3.566513963343933 L22.951814348115377,-3.450954780665468 L22.964769868488165,-3.33480404586404 L22.974854486237156,-3.2181317237991407 L22.982062126765708,-3.101008093514925 L22.986388448460673,-2.983503705906738 L22.987830845307634,-2.865689341223925 " />
			<path d="M28.73478855663455,2.424814057958687 L28.7315433673718,2.6019615312177926 L28.72181219756407,2.7794066677566684 L28.705608235192628,2.956908988456835 L28.682953440366738,3.13422793670207 L28.653878515562646,3.3111232043881547 L28.618422864014633,3.4873550575958214 L28.576634536314536,3.662684661485562 L28.528570165292106,3.836874403973949 L28.474294889264456,4.009688217752856 L28.413882263758605,4.180891900215158 L28.34741416182675,4.3502534308533205 L28.2749806630894,4.517543285700735 L28.196679931656682,4.682534748389693 L28.11261808309332,4.845004217404379 L28.02290904060755,5.004731509112537 L27.92767438065888,5.161500156165118 L27.827043168193914,5.315097700859513 L27.721151781733578,5.4653159830687645 L27.61014372854872,5.611951422346602 L27.494169450174653,5.75480529382593 L27.373386118528135,5.8936839975368915 L27.24795742290316,6.028399320779515 L27.11805334813416,6.158768693195372 L26.983849944227345,6.2846154341925455 L26.84552908777227,6.40576899238863 L26.703278235457113,6.522065176747207 L26.55729017002157,6.633346379094598 L26.407762738991757,6.739461787715329 L26.25489858655113,6.840267591736809 L26.09890487891086,6.935627176026259 L25.939993023551782,7.025411306335753 L25.778378382718458,7.109498304444458 L25.614279981553647,7.187774213060694 L25.44792021126867,7.260132950260381 L25.279524527751963,7.326476453252532 L25.109321146024342,7.386714811276968 L24.937540730954957,7.440766387454148 L24.764416084657146,7.488557929421988 L24.590181830987845,7.530024668609722 L24.415074097578106,7.565110408014259 L24.239330195825644,7.593767598360099 L24.063188299283112,7.615957402539578 L23.886887120877986,7.63164974824611 L23.71066558940143,7.640823368729102 L23.53476252570462,7.643465831615313 L23.359416319041397,7.6395735557575914 L23.184864603995784,7.629151816088154 L23.01134393843226,7.61221473646983 L22.83908948290528,7.588785270554977 L22.66833468196243,7.558895170677976 L22.499310947773175,7.5225849448234925 L22.33224734651195,7.4799038017288035 L22.16737028792064,7.430909584194605 L22.004903218471103,7.375668690694665 L21.845066318543626,7.3142559853905595 L21.688076204031702,7.2467546966734595 L21.53414563277746,7.173256304370449 L21.38348321623571,7.093860415768235 L21.236293136757272,7.008674630622298 L21.092774870874734,6.917814395334374 L20.95312291896573,6.821402846495938 L20.81752654166002,6.7195706440097 L20.686169503347653,6.612455794015274 L20.55922982313584,6.5002034618590265 " />
			<path d="M27.332084437921772,-0.8569998360642335 L27.414171595757082,-0.7793856356913111 L27.49416945017465,-0.6996023351289522 L27.572029813458286,-0.6176979928541257 L27.647705785436532,-0.5337219449800168 L27.721151781733578,-0.44772477553779844 L27.792323561227576,-0.35975828600670345 L27.861178252699844,-0.2698754641107448 L27.92767438065888,-0.1781304519008975 L27.991771890323655,-0.08457851314194986 L28.0534321717511,0.010723999976322673 L28.11261808309332,0.10771968078360672 L28.16929397297042,0.20635010270868737 L28.223425701945587,0.30655585447342526 L28.2749806630894,0.4082765758798925 L28.323927801621036,0.5114509941690955 L28.37023763361449,0.6160169609294002 L28.413882263758605,0.7219114895323995 L28.454835402160164,0.8290707930737153 L28.493072380179925,0.937430322795838 L28.528570165292106,1.0469248069698887 L28.5613073749583,1.1574882902128625 L28.59126428950753,1.2690541732166882 L28.618422864014633,1.3815552528651622 L28.642766739169847,1.494923762714592 L28.66428125113306,1.609091413813763 L28.682953440366738,1.723989435838658 L28.698772059442287,1.839548618517123 L28.711727579815076,1.9556993533185512 L28.72181219756407,2.0723716753834505 L28.72901983809262,2.1894953056676663 L28.733346159787583,2.306999693275853 L28.73478855663455,2.4248140579586663 " />
			<path d="M20.066460675383126,-2.6236488107112996 L20.065195051570655,-2.5545612961402484 L20.061399895345637,-2.485357692890087 L20.055080350020777,-2.4161317878170223 L20.04624498003868,-2.3469773980013806 L20.034905759365085,-2.277988243603808 L20.02107805526136,-2.2092578208528177 L20.004780607458322,-2.140879275335819 L19.986035502759574,-2.072945275765348 L19.964868145108788,-2.005547888391574 L19.94130722116151,-1.938778452231276 L19.915384661408083,-1.872727455282393 L19.887135596900517,-1.8074844118919011 L19.856598311641758,-1.7431377414432077 L19.823814190702045,-1.67977464852748 L19.788827664132597,-1.6174810047612989 L19.751686146752615,-1.5563412324107915 L19.71243997389128,-1.4964381899799777 L19.671142333171748,-1.4378530599183699 L19.627849192429654,-1.3806652386000133 L19.582619223863766,-1.324952228723075 L19.535513724521625,-1.2707895342758004 L19.486596533227882,-1.2182505582111771 L19.435933944067973,-1.167406502968993 L19.383594616544315,-1.1183262739800952 L19.329649482526836,-1.0710763862836223 L19.274171650123925,-1.0257208743837773 L19.217236304604064,-0.9823212054682946 L19.158920606502434,-0.9409361961062097 L19.099303587050592,-0.9016219325378325 L19.038466041070887,-0.8644316946649471 L18.976490417480846,-0.8294158838442438 L18.91346070755585,-0.7966219545818491 L18.849462331101574,-0.766094350221517 L18.784582020690433,-0.7378744427136394 L18.71890770411892,-0.7120004765467007 L18.652528385245144,-0.6885075169171704 L18.585534023368083,-0.6674274022080704 L18.51801541131194,-0.6487887008406124 L18.45006405238091,-0.6326166725573963 L18.381772036351112,-0.618933234189627 L18.313231914667654,-0.6077569299547494 L18.244536575016067,-0.5991029063247519 L18.17577911543807,-0.592982891499205 L18.10705271816221,-0.5894051795108384 L18.038450523320453,-0.5883746189852161 L17.9700655027218,-0.5898926065697272 L17.901990333854005,-0.593957085040808 L17.83431727428423,-0.6005625460919544 L17.76713803662871,-0.6097000377987472 L17.700543664261,-0.6213571767507771 L17.63462440792719,-0.6355181648340258 L17.569469603435312,-0.6521638106409546 L17.5051675505847,-0.6712715554792918 L17.441805393499383,-0.6928155039442687 L17.379469002527667,-0.71676645901287 L17.318242857868015,-0.7430919616125384 L17.25820993507886,-0.7717563346107128 L17.19945159262758,-0.8027207311655762 L17.142047461630987,-0.8359431873724916 L17.086075337936798,-0.871378679134782 L17.031611076692286,-0.9089791831817722 L16.97872848954306,-0.9486937421514048 L16.927499244601236,-0.9904685336492314 L16.877992769318627,-1.0342469431901673 " />
			<path d="M16.877992769318617,-1.0342469431901784 L16.814779614539994,-1.0956319685549385 L16.75490044378786,-1.160325320713023 L16.698499511229354,-1.2281711477126147 L16.645712691651145,-1.2990060030138795 L16.59666715312518,-1.372659239245995 L16.551481050649645,-1.4489534193116178 L16.510263241503242,-1.5277047438483882 L16.473113022998458,-1.6087234940176955 L16.440119893265646,-1.691814488553978 L16.411363335644186,-1.7767775539734862 L16.38691262720017,-1.8634080068097383 L16.366826671831866,-1.9514971467139208 L16.35115385836508,-2.0408327592323072 L16.33993194398023,-2.1311996270494644 L16.333187963251987,-2.2223800484656193 L16.330938163020633,-2.3141543618591176 L16.333187963251987,-2.4063014748705154 L16.33993194398023,-2.4985993970334324 L16.35115385836508,-2.5908257745690357 L16.366826671831866,-2.6827584260557664 L16.38691262720017,-2.774175877683843 L16.411363335644186,-2.8648578968050695 L16.440119893265646,-2.9545860224925775 L16.473113022998458,-3.04314409183233 L16.510263241503242,-3.130318760678516 L16.551481050649645,-3.2159000176182864 L16.59666715312518,-3.29968168990764 L16.645712691651145,-3.3814619401596246 L16.698499511229354,-3.4610437525882793 L16.75490044378786,-3.538235407636919 L16.814779614539994,-3.6128509438473424 L16.877992769318617,-3.6847106058572683 L16.944387622097047,-3.7536412774467527 L17.013804221859445,-3.819476898590322 L17.086075337936798,-3.882058865510122 L17.16102686288028,-3.941236412766311 L17.238478231901322,-3.996866976464207 L17.318242857868015,-4.0488165377032 L17.400128580809845,-4.096959945440021 L17.48393813084791,-4.141181217988567 L17.569469603435312,-4.181373822429945 L17.656516945762917,-4.217440931259597 L17.744870453158615,-4.249295655653247 L17.83431727428423,-4.2768612547896865 L17.92464192391306,-4.3000713207261345 L18.015626802052648,-4.318869938380789 L18.10705271816221,-4.333211820237157 L18.19869941920188,-4.343062415445642 L18.29034612024155,-4.348397993059579 L18.381772036351112,-4.349205699205155 L18.472756914490695,-4.345483588047516 L18.56308156411953,-4.337240626478463 L18.652528385245144,-4.324496672514411 L18.740881892640843,-4.3072824274567 L18.827929234968448,-4.285639361929462 L18.91346070755585,-4.259619615973262 L18.997270257593915,-4.229285873435169 L19.079155980535745,-4.194711210957879 L19.158920606502438,-4.155978921931682 L19.23637197552348,-4.113182315833391 L19.311323500466962,-4.066424493435636 L19.383594616544315,-4.015818098428075 L19.453011216306713,-3.9614850460488773 L19.519406069085136,-3.9035562293802446 " />
			<path d="M19.519406069085143,-3.9035562293802393 L19.582619223863766,-3.842171204015479 L19.6424983946159,-3.777477851857394 L19.698899327174406,-3.709632024857802 L19.751686146752615,-3.638797169556538 L19.80073168527858,-3.565143933324422 L19.845917787754114,-3.4888497532587994 L19.887135596900517,-3.41009842872203 L19.9242858154053,-3.3290796785527217 L19.957278945138114,-3.2459886840164387 L19.986035502759574,-3.161025618596931 L20.010486211203588,-3.074395165760679 L20.030572166571893,-2.9863060258564973 L20.04624498003868,-2.8969704133381113 L20.05746689442353,-2.8066035455209533 L20.064210875151772,-2.715423124104798 L20.066460675383126,-2.623648810711308 " />
			<path d="M49.32805368888931,-5.0480219933867225 L49.32683663982064,-4.915239727312647 L49.323185904995185,-4.782300783498064 L49.31710272141481,-4.649250206497218 L49.30858915028359,-4.516133078689751 L49.29764807630939,-4.382994505005137 L49.28428320672643,-4.249879597639501 L49.2684990700391,-4.116833460769951 L49.2503010144876,-3.9839011752716496 L49.2296952062357,-3.8511277834427684 L49.20668862728146,-3.718558273742522 L49.18128907309147,-3.5862375655474317 L49.153505149959436,-3.4542104939310208 L49.123346272090096,-3.3225217944720344 L49.090822658409294,-3.1912160880964113 L49.055945329101476,-3.060337865958103 L49.01872610187565,-2.9299314743638303 L48.979177587961075,-2.8000410997469474 L48.93731318783418,-2.6707107536954693 L48.89314708667792,-2.541984258039343 L48.84669424957539,-2.413905230002016 L48.797970416439085,-2.286517067421334 L48.746992096677616,-2.1598629340447726 L48.69377656360175,-2.0339857449039895 L48.63834184857159,-1.90892815177365 L48.580706734886874,-1.7847325287194438 L48.52089075142251,-1.661440957740214 L48.45891416601151,-1.5390952145090555 L48.39479797857747,-1.4177367542181845 L48.32856391401906,-1.297406697532408 L48.26023441484882,-1.1781458166559498 L48.18983263358883,-1.0599945215173436 L48.11738242492581,-0.9429928460770753 L48.04290833762823,-0.8271804347626253 L47.96643560622836,-0.7125965290354834 L47.887990142471835,-0.599279954094722 L47.80759852653785,-0.487269105721607 L47.72528799803282,-0.37660193726969204 L47.64108644676057,-0.2673159468048514 L47.555022403272325,-0.15944816439958487 L47.467125029199465,-0.05303513958585793 L47.377424107372526,0.05188707102919832 L47.28595003172969,0.15528291598058352 L47.1927337970182,0.2571173609915549 L47.09780698829223,0.3573559008445182 L47.0012017702107,0.4559645710726521 L46.90295087613873,0.5529099594683036 L46.8030875970564,0.6481592174042614 L46.7016457702785,0.7416800709640636 L46.5986597679893,0.8334408318775921 L46.494164485595896,0.9234104082581913 L46.38819532990448,1.0115583151377363 L46.28078820712316,1.0978546847960562 L46.17197951069565,1.1822702768812023 L46.06180610896984,1.2647764883171435 L45.95030533270548,1.3453453629955296 L45.83751496242512,1.423949601248239 L45.72347321561272,1.5005625690975037 L45.60821873376418,1.5751583072804598 L45.49179056929417,1.6477115400451057 L45.37422817230378,1.7181976837146342 L45.25557137721335,1.7865928550172878 L45.13586038926516,1.852873879178878 L45.01513577090041,1.9170182977752308 L44.89343842801517,1.9790043763419334 L44.77080959610004,2.0388111117387586 L44.64729082626796,2.0964182392662867 L44.522923971175274,2.151806239532333 L44.39775117084049,2.204956345065817 L44.271814838365685,2.2558505466758803 L44.14515764556543,2.304471599554044 L44.01782250850804,2.3508030291173787 L43.88985257297401,2.3948291365906975 L43.761291199836656,2.4365350043258713 L43.632181950369926,2.4759065008564676 L43.50256857148818,2.5129302856860134 L43.37249498092321,2.547593813808229 L43.24200525234324,2.579885339957748 L43.111143600419254,2.6097939225898292 L42.97995436584337,2.6373094275877538 L42.84848200030465,2.6624225316966346 L42.71677105142723,2.6851247256824706 L42.58486614767595,2.7054083172153955 L42.45281198323467,2.7232664334761 L42.320653302862155,2.7386930234846147 L42.18843488673101,2.751682860150585 L42.05620153525447,2.762231542044411 L41.923998053906416,2.7703354948886076 L41.79186923803963,2.7759919727688995 L41.65985985770753,2.779199059064635 L41.52801464249441,2.779955667098215 L41.39637826635946,2.7782615405032915 L41.26499533249959,2.7741172533116334 L41.1339103582362,2.76752420975863 L41.00316775993116,2.758484643807476 L40.872811837936915,2.7470016183922334 L40.74288676158588,2.7330790243799914 L40.613436554224265,2.716721579252498 L40.484505078295406,2.697934825507712 L40.356136020477535,2.6767251287817952 L40.22837287688114,2.6530996756922107 L40.10125893831091,2.6270664714026273 L39.97483727559725,2.598634336910484 L39.84915072500229,2.5678129060581156 L39.72424187370542,2.534612622268451 L39.60015304537316,2.4990447350064056 L39.47692628581845,2.4611212959671542 L39.35460334875389,2.420855154992572 L39.23322568164414,2.378259955717244 L39.11283441166198,2.3333501309455054 L38.99347033175293,2.2861408977610846 L38.8751738868131,2.2366482523709923 L38.75798515998504,2.1848889646854355 L38.64194385907602,2.1308805726355526 L38.52708930310368,2.074641376230919 L38.41346040897323,2.0161904313588597 L38.301095678291055,1.955547543327599 L38.19003318431893,1.8927332601555094 L38.080310559073396,1.827768865608693 L37.971964980574725,1.7606763719892706 L37.86503316024959,1.6914785126768077 L37.75955133049193,1.6201987344254176 L37.65555523238608,1.546861189419153 L37.553080103596415,1.4714907270883604 L37.45216066642752,1.394112885689796 L37.35283111605901,1.3147538836533226 L37.255125108958964,1.233440610698156 L37.15907575147993,1.1502006187216596 L37.06471558864125,1.065062112463786 " />
			<path d="M37.0647155886412,1.0650621124637434 L36.972076593101455,0.9780539399500858 L36.88119015432521,0.8892055827173557 L36.792087067946945,0.7985471458238065 L36.70479752533643,0.7061093476485807 L36.619351103368764,0.6119235094832103 L36.535776754402676,0.5160215449188144 L36.4541027964704,0.4184359490326228 L36.3743569036825,0.3191997873774506 L36.29656609685085,0.21834668477789165 L36.22075673433307,0.11591081393700353 L36.14695450310126,0.01192688385734808 L36.07518441003838,-0.0935698719196818 L36.005470773464985,-0.20054370725226356 L35.93783721489932,-0.30895837551024563 L35.872306651053435,-0.4187771418568236 L35.80890128606823,-0.5299627956956394 L35.747642603989846,-0.6424776632790827 L35.6885513614901,-0.7562836204735395 L35.631647580833366,-0.8713421056772219 L35.57695054309231,-0.987614132886252 L35.524478781614725,-1.1050603049045415 L35.47425007574384,-1.2236408266929883 L35.42628144479392,-1.3433155188534873 L35.38058914228361,-1.4640438312431776 L35.33718865042858,-1.5857848567143011 L35.296094674895606,-1.7084973449750396 L35.25732113981976,-1.832139716566609 L35.220881183086405,-1.9566700769519008 L35.186787151879614,-2.0820462307108687 L35.15505059849845,-2.208225695837882 L35.12568227644269,-2.335165718136169 L35.09869213676909,-2.4628232857044963 L35.07408932471964,-2.591155143511171 L35.051882176622804,-2.720117808050417 L35.03207821706889,-2.84966758207617 L35.014684156360424,-2.9797605694082945 L34.999705888238466,-3.1103526898062137 L34.987148487885584,-3.241399693904891 L34.977016210206216,-3.372857178208133 L34.96931248838493,-3.504680600134105 L34.964039932723175,-3.6368252931079876 L34.96120032975476,-3.7692464816966305 L34.96079464164056,-3.901899296780101 L34.96282300584248,-4.034738790754979 L34.96728473507689,-4.167719952764237 L34.974178317547455,-4.300797723948564 L34.98350141745747,-4.433927012713938 L34.99525087580125,-4.56706271001031 L35.00942271143451,-4.70015970461618 L35.026012122423374,-4.833172898423937 L35.04501348767141,-4.966057221720725 L35.06642036882427,-5.098767648459715 L35.09022551245121,-5.231259211516556 L35.116420852502884,-5.363487017925887 L35.144997513044345,-5.495406264092699 L35.175945811262565,-5.626972250973428 L35.209255260747334,-5.758140399221618 L35.24491457504443,-5.888866264293026 L35.28291167147987,-6.019105551505054 L35.323233675253974,-6.148814131045395 L35.36586692380379,-6.277948052924827 L35.410796971432525,-6.406463561869061 L35.4580085942042,-6.534317112144629 L35.50748579510213,-6.661465382313761 L35.55921180944925,-6.787865289913267 L35.61316911058866,-6.913474006052438 L35.66933941582223,-7.0382489699250375 L35.72770369260547,-7.162147903230457 L35.78824216499648,-7.285128824499135 L35.85093432035669,-7.407150063317415 L35.91575891630136,-7.528170274446991 L35.98269398789721,-7.648148451834186 L36.05171685510499,-7.767043942504293 L36.12280413046429,-7.884816460336285 L36.19593172701805,-8.00142609971322 L36.271074866474095,-8.116833349043706 L36.34820808760094,-8.230999104149884 L36.42730525485497,-8.343884681517341 L36.508339567236135,-8.455451831402481 L36.59128356736906,-8.56566275079295 L36.67610915080665,-8.67448009621666 L36.762787575552885,-8.781866996395122 L36.85128947180163,-8.887787064736774 L36.94158485188823,-8.992204411666087 L37.033643120450414,-9.095083656784258 L37.12743308479509,-9.196389940857376 L37.22292296546762,-9.296088937628003 L37.32008040701978,-9.394146865446155 L37.418872488973044,-9.490530498715763 L37.51926573697319,-9.585207179152704 L37.62122613413263,-9.678144826850623 L37.72471913255661,-9.769311951150776 L37.82970966504924,-9.858677661312202 L37.93616215699559,-9.946211676978642 L38.044040538415636,-10.03188433843862 L38.15330825618606,-10.115666616675227 L38.26392828642583,-10.197530123202228 L38.375863147041215,-10.277447119683094 L38.489074910426076,-10.355390527329773 L38.60352521631311,-10.431333936077959 L38.719175284771744,-10.505251613535796 L38.835985929348155,-10.57711851370294 L38.95391757034308,-10.64691028545706 L39.07293024822285,-10.714603280804884 L39.192983637159145,-10.780174562894992 L39.31403705869285,-10.843601913789671 L39.43604949551738,-10.904863841993157 L39.558979605376884,-10.963939589733725 L39.682785735074454,-11.02080913999719 L39.807425934585766,-11.075453223309399 L39.93285797127328,-11.12785332426542 L40.0590393441962,-11.17799168780325 L40.185927298511324,-11.22585132521987 L40.31347883995994,-11.271416019927628 L40.44165074943587,-11.314670332949023 L40.57039959762966,-11.355599608147985 L40.699681759743996,-11.39418997719591 L40.82945343027541,-11.430428364270755 L40.95967063785716,-11.464302490487595 L41.0902892601583,-11.495800878059168 L41.22126503883401,-11.52491285418496 L41.35255359452185,-11.551628554667541 L41.48411044187917,-11.575938927254912 L41.61589100465629,-11.597835734707742 L41.74785063080065,-11.617311557590437 L41.87994460758646,-11.634359796785121 L42.012128176765074,-11.64897467572766 L42.14435654973064,-11.661151242364959 " />
			<path d="M47.89131426105758,-6.370647843182369 L42.144356549730674,-11.661151242364962 " />
			<path d="M55.07501140021622,0.24248140579586952 L55.073794351147555,0.375263671869944 L55.07014361632209,0.5082026156845272 L55.06406043274172,0.6412531926853733 L55.055546861610495,0.7743703204928409 L55.0446057876363,0.9075088941774543 L55.031240918053335,1.0406238015430902 L55.015456781366005,1.1736699384126408 L54.997258725814504,1.306602223910942 L54.9766529175626,1.4393756157398232 L54.953646338608365,1.5719451254400698 L54.92824678441838,1.70426583363516 L54.90046286128634,1.8362929052515709 L54.870303983417,1.9679816047105572 L54.8377803697362,2.0992873110861803 L54.80290304042838,2.2301655332244885 L54.76568381320256,2.3605719248187613 L54.72613529928798,2.4904622994356442 L54.68427089916108,2.6197926454871223 L54.64010479800483,2.7485191411432486 L54.59365196090231,2.8765981691805758 L54.54492812776599,3.0039863317612574 L54.49394980800452,3.130640465137819 L54.44073427492866,3.256517654278602 L54.3852995598985,3.3815752474089416 L54.32766444621378,3.505770870463148 L54.26784846274942,3.6290624414423776 L54.205871877338424,3.751408184673536 L54.14175568990438,3.872766644964407 L54.075521625345964,3.9930967016501837 L54.007192126175724,4.112357582526641 L53.936790344915735,4.2305088776652475 L53.864340136252714,4.347510553105517 L53.78986604895514,4.463322964419966 L53.713393317555266,4.577906870147109 L53.63494785379874,4.69122344508787 L53.55455623786476,4.803234293460985 L53.472245709359726,4.9139014619129 L53.388044158087475,5.023187452377741 L53.30198011459923,5.131055234783007 L53.21408274052637,5.237468259596733 L53.12438181869943,5.3423904702117895 L53.0329077430566,5.445786315163176 L52.939691508345106,5.547620760174146 L52.844764699619134,5.647859300027109 L52.7481594815376,5.746467970255244 L52.64990858746564,5.843413358650896 L52.550045308383304,5.9386626165868535 L52.44860348160541,6.032183470146656 L52.3456174793162,6.123944231060184 L52.2411221969228,6.2139138074407825 L52.13515304123138,6.3020617143203275 L52.027745918450066,6.388358083978648 L51.91893722202256,6.4727736760637935 L51.80876382029675,6.555279887499735 L51.69726304403239,6.635848762178121 L51.584472673752025,6.714453000430831 L51.47043092693963,6.791065968280096 L51.35517644509109,6.865661706463051 L51.23874828062108,6.938214939227697 L51.12118588363069,7.008701082897225 L51.00252908854026,7.07709625419988 L50.88281810059207,7.14337727836147 L50.762093482227314,7.207521696957823 L50.64039613934208,7.269507775524525 L50.51776730742694,7.32931451092135 L50.39424853759487,7.386921638448879 L50.26988168250219,7.442309638714924 L50.1447088821674,7.495459744248409 L50.01877254969259,7.546353945858472 L49.89211535689235,7.594974998736635 L49.76478021983495,7.64130642829997 L49.63681028430091,7.68533253577329 L49.50824891116356,7.7270384035084625 L49.379139661696826,7.76640990003906 L49.24952628281509,7.803433684868605 L49.119452692250114,7.838097212990821 L48.98896296367015,7.87038873914034 L48.85810131174616,7.90029732177242 L48.726912077170276,7.927812826770346 L48.595439711631556,7.952925930879227 L48.46372876275413,7.975628124865063 L48.33182385900286,7.995911716397988 L48.199769694561574,8.013769832658692 L48.06761101418907,8.029196422667207 L47.935392598057916,8.042186259333176 L47.80315924658138,8.052734941227003 L47.67095576523332,8.0608388940712 L47.53882694936654,8.066495371951492 L47.40681756903444,8.069702458247226 L47.274972353821326,8.070459066280806 L47.14333597768637,8.068764939685883 L47.011953043826495,8.064620652494225 L46.88086806956311,8.058027608941222 L46.750125471258066,8.048988042990068 L46.61976954926382,8.037505017574825 L46.48984447291278,8.023582423562583 L46.36039426555117,8.00722497843509 L46.23146278962231,7.988438224690304 L46.103093731804435,7.967228527964387 L45.975330588208045,7.943603074874803 L45.84821664963782,7.917569870585218 L45.72179498692416,7.889137736093076 L45.596108436329196,7.858316305240708 L45.47119958503232,7.825116021451043 L45.34711075670007,7.789548134188998 L45.22388399714536,7.751624695149745 L45.1015610600808,7.711358554175163 L44.98018339297105,7.668763354899836 L44.859792122988885,7.6238535301280965 L44.74042804307984,7.576644296943677 L44.62213159814001,7.527151651553584 L44.50494287131195,7.475392363868027 L44.38890157040293,7.421383971818145 L44.274047014430586,7.36514477541351 L44.160418120300136,7.306693830541452 L44.04805338961796,7.246050942510191 L43.936990895645835,7.183236659338101 L43.8272682704003,7.118272264791285 L43.71892269190163,7.051179771171862 L43.611990871576495,6.9819819118594 L43.50650904181883,6.910702133608009 L43.402512943712985,6.837364588601744 L43.30003781492332,6.761994126270952 L43.199118377754424,6.684616284872387 L43.099788827385915,6.605257282835915 L43.00208282028588,6.523944009880747 L42.90603346280684,6.440704017904251 L42.811673299968156,6.355565511646377 " />
			<path d="M55.07501140021621,0.2424814057958704 L49.328053688889305,-5.048021993386722 " />
			<path d="M42.144356549730674,-4.45284036097868 L49.32805368888931,-5.048021993386722 " />
			<path d="M42.144356549730674,-4.45284036097868 L42.144356549730674,-11.661151242364962 " />
			<path d="M47.89131426105758,-4.928985666905113 L47.89131426105758,-6.37064784318237 " />
			<path d="M70.16077539244935,5.7203568003661776 L70.12408043165311,5.691338426728319 L70.07818474512057,5.663336498228891 L70.02345217743927,5.636573004141743 L69.9603166288299,5.611260115875647 L69.8892786153405,5.587598504955258 L69.81090130093426,5.565775752169035 L69.72580603292698,5.545964860495843 L69.63466741616789,5.528322883599218 L69.53820796501361,5.512989680762087 L69.43719237549278,5.500086808132401 L69.33242146306942,5.48971655506947 L69.22472581406441,5.481961133230507 L69.11495920106415,5.47688202482601 L69.0039918145169,5.474519495210797 L68.8927033641741,5.474892273674661 L68.78197610506615,5.477997404963272 L68.67268784330007,5.483810272706369 L68.5657049771266,5.49228479456754 L68.46187562844479,5.503353787568506 L68.36202291919494,5.51692950069174 L68.26693844594222,5.53290431053915 L68.17737600438223,5.551151574531889 L68.09404561351835,5.571526634887418 L68.01760788688505,5.593867965414675 L67.94866879544001,5.617998452035938 L67.88777486364316,5.643726796883891 L67.83540883680617,5.670849034842696 L67.79198585406033,5.699150150510473 L67.75785015728202,5.728405782764512 L67.73327236206617,5.758384003416002 L67.72463157251718,5.77356998919432 L67.71844731238264,5.7888471558537615 L67.71473184439203,5.804185210399084 L67.71349253592291,5.819553739100848 " />
			<path d="M67.71349253592291,5.819553739100852 L67.71475562414224,5.83506893843054 L67.71854233617327,5.850552782455437 " />
			<path d="M67.71854233617327,5.850552782455437 L67.72506776649416,5.866425075268476 L67.73424493908263,5.882197006148905 L67.74605420357551,5.897834803892537 L67.76047027371676,5.913304984504 L67.79699384326848,5.9436104238044924 L67.84350299492073,5.972853900311518 L67.89959959624936,6.000785081009357 L67.96480344335733,6.027164866531864 L68.03855637156543,6.0517674379254585 L68.12022703347104,6.074382189727759 L68.20911630347308,6.094815532814123 L68.3044632624989,6.112892551579193 L68.405451711702,6.128458501267446 L68.51121715937136,6.141380132635174 L68.6208542212423,6.151546832604359 L68.73342437085998,6.158871571144132 L68.84796397365015,6.163291646274186 L68.96349253592291,6.1647692208127225 L69.07902109819567,6.163291646274186 L69.19356070098584,6.158871571144132 L69.30613085060352,6.151546832604359 L69.41576791247446,6.141380132635174 L69.52153336014382,6.128458501267446 L69.62252180934692,6.1128925515791925 L69.71786876837274,6.094815532814123 L69.80675803837478,6.074382189727758 L69.88842870028039,6.0517674379254585 L69.9621816284885,6.027164866531864 L70.02738547559646,6.000785081009357 L70.0834820769251,5.9728539003115175 L70.12999122857734,5.9436104238044924 L70.16651479812906,5.913304984504 L70.18093086827031,5.897834803892537 L70.19274013276319,5.882197006148905 L70.20191730535166,5.866425075268476 L70.20844273567255,5.850552782455439 " />
			<path d="M70.20844273567255,5.850552782455437 L70.21222944770358,5.835068938430539 L70.21349253592291,5.819553739100853 " />
			<path d="M70.21349253592291,5.819553739100852 L70.21017575911252,5.7944221415341035 L70.20024303029476,5.769423913407384 L70.18374706090104,5.744691716390055 L70.16077539244935,5.720356800366179 " />
			<path d="M76.14718967508155,-13.997790243670604 L76.09579805559758,-14.043198658162941 L76.04064372149986,-14.088269123373063 L75.98175576997419,-14.132977861954696 L75.91916526791123,-14.177301287393833 L75.85290523551687,-14.22121601645203 L75.78301062889213,-14.264698881502447 L75.70951832159173,-14.307726942752149 L75.63246708517107,-14.350277500344205 L75.55189756873199,-14.39232810633322 L75.46785227747787,-14.433856576527948 L75.28951353633472,-14.515259761615864 L75.09782714920301,-14.594315298211509 L74.8931975665321,-14.67085638236089 L74.67605654838536,-14.744721515501999 L74.44686225344421,-14.815754845220178 L74.2060982723118,-14.883806494090363 L73.9542726071568,-14.948732875912317 L73.69191659984939,-15.010396998671656 L73.41958381085172,-15.068668753587406 L73.13784885122789,-15.123425189636215 L72.8473061702381,-15.17455077297399 L72.54856880107496,-15.221937630707599 L72.24226706738851,-15.265485778502256 L71.92904725332903,-15.305103331544403 L71.6095702399139,-15.340706698414895 L71.28451011059559,-15.372220757463495 L70.9545527289732,-15.399579015312487 L70.62039429164817,-15.422723747154976 L70.28273985927795,-15.441606118551887 L69.94230186892675,-15.456186288470633 L69.59979863085248,-15.466433493348067 L69.25595281290137,-15.472326112000339 L68.91148991570844,-15.473851711242718 L68.56713674192063,-15.471007072123097 L68.22361986267302,-15.463798196713864 L67.88166408455336,-15.452240295447751 L67.54199092028976,-15.43635775502447 L67.2053170663883,-15.416184086955752 L66.87235289093267,-15.391761856857432 L66.54380093473655,-15.363142594637736 L66.22035442901111,-15.330386685771288 L65.90269583267555,-15.293563243888208 L65.59149539239657,-15.252749964947192 L65.28740972839533,-15.208032963300198 L64.9910804490056,-15.159506589994692 L64.70313279690627,-15.107273233696775 L64.42417432988502,-15.051443104655293 L64.15479363891599,-14.992134002162711 L63.89555910625701,-14.929471066003405 L63.64701770618618,-14.86358651241384 L63.40969385090849,-14.794619355111701 L63.18408828406748,-14.722715111982628 L62.97067702419662,-14.648025498043427 L62.76991036033961,-14.570708105329565 L62.5822119019589,-14.490926070382422 L62.40797768513703,-14.408847730037849 L62.326025682127636,-14.367001385362732 L62.24757533695667,-14.324646266242311 L62.17266803683891,-14.28180471751659 L62.10134329982247,-14.238499340646062 L62.03363875394075,-14.194752981788113 L61.9695901173614,-14.15058871974431 L61.90923117954284,-14.106029853784952 L61.852593783408345,-14.061099891357339 L61.799707808546984,-14.015822535684187 L61.750601155450404,-13.970221673258777 L61.70529973079361,-13.924321361243408 L61.663827433767715,-13.878145814777815 L61.62620614347165,-13.831719394204248 L61.59245570736964,-13.78506659221594 L61.56259393082055,-13.738212020935768 L61.53663656768442,-13.69118039893188 L61.51459731201142,-13.6439965381772 L61.49648779081741,-13.59668533095963 L61.48231755795001,-13.54927173674989 L61.472094089048355,-13.50178076903392 L61.46582277759926,-13.454237482116774 L61.463506932091846,-13.406666957904994 L61.465147774272126,-13.359094292674412 L61.47074443849843,-13.311544583830374 L61.48029397219808,-13.264042916667371 L61.49379133742511,-13.216614351135068 " />
			<path d="M76.43319373442071,-13.21661435113505 L76.44712315237963,-13.265834172183231 L76.45680095206811,-13.315131697855533 L76.46222163531125,-13.364478921122805 L76.46338212249744,-13.413847806721579 L76.46028175432788,-13.463210307081527 L76.4529222921912,-13.512538378259924 L76.4413079171628,-13.561803995874032 L76.42544522762942,-13.610979171022377 L76.40534323554049,-13.66003596618589 L76.3810133612882,-13.708946511099809 L76.3524694272194,-13.757683018587429 L76.31972764978272,-13.806217800346598 L76.28280663031573,-13.854523282680079 L76.24172734447701,-13.902572022160772 L76.19651313032949,-13.950336721222948 L76.14718967508155,-13.997790243670597 " />
			<path d="M20.559229823135805,6.500203461859 L14.812272111808895,1.2097000626764078 " />
			<path d="M27.332084437921772,-0.8569998360642326 L21.58512672659486,-6.147503235246825 " />
			<path d="M42.811673299968106,6.3555655116463345 L37.0647155886412,1.0650621124637425 " />
			<path d="M67.71854233617327,5.850552782455438 L61.49379133742511,-13.216614351135052 " />
			<path d="M70.20844273567255,5.850552782455436 L76.43319373442071,-13.216614351135055 " />

       </g>
    </g>
    
</svg>
