<?xml version="1.0" encoding="UTF-8" standalone="no"?>
<svg
   xmlns:svg="http://www.w3.org/2000/svg"
   xmlns="http://www.w3.org/2000/svg"
   width="800.0"
   height="240.0"

>
    <g transform="scale(8.206876262405801, -8.206876262405801)   translate(13.06098691154693,-10.2530330199716)" stroke-width="0.1218490407343921"  fill="none">
       <!-- hidden lines -->
       <g  stroke="rgb(160,160,160)" fill="none" stroke-dasharray="0.1218490407343921,0.1218490407343921" >
			<path d="M-8.055450741187318,5.867134963364879 L-8.163508965992644,5.70354073693778 L-8.267897021676257,5.537382299558706 L-8.368567977216188,5.368734353119788 L-8.465476572732884,5.19767271875236 L-8.558579239837272,5.024274302739123 L-8.647834121218306,4.848617061938435 L-8.7332010894613,4.670779968736304 L-8.814641765088489,4.490842975541782 L-8.892119533813759,4.308886978841787 L-8.965599563003794,4.124993782831474 L-9.035048817338206,3.9392460626365153 L-9.100436073661626,3.751727327143827 L-9.161731935021091,3.562521881457455 L-9.218908843882383,3.3717147889964885 L-9.271941094519416,3.179391833252056 L-9.320804844571077,2.985639479220582 L-9.365478125760317,2.7905448345306607 L-9.405940853770717,2.594195610281004 L-9.442174837276031,2.396680081607087 L-9.474163786118684,2.198087047994203 L-9.501893318633538,1.998505793354799 L-9.525350968113642,1.798026045887998 L-9.54452618841503,1.5967379377393947 L-9.559410358698097,1.3947319644792335 L-9.56999678730336,1.1920989444172099 L-9.576280714759914,0.9889299777721634 L-9.578259315925216,0.7853164057150215 L-9.575931701255204,0.5813497693034408 L-9.569298917204234,0.3771217683265595 L-9.5583639457546,0.17272422007840316 L-9.543131703075897,-0.031750981921559784 L-9.523609037314795,-0.236211909242102 L-9.49980472551623,-0.44056663986964306 L-9.471729469677406,-0.6447232995347525 L-9.439395891936368,-0.8485901030172007 L-9.402818528897296,-1.0520753954109683 L-9.362013825095133,-1.2550876933306623 L-9.317000125602384,-1.4575357260408373 L-9.267797667781513,-1.6593284764896965 L-9.214428572186584,-1.8603752222287482 L-9.15691683261824,-2.0605855762000114 L-9.095288305336528,-2.259869527372439 L-9.029570697436373,-2.45813748120928 L-8.959793554390963,-2.655300299948208 L-8.885988246768623,-2.8512693426760682 L-8.80818795612917,-3.045956505180265 L-8.726427660106063,-3.2392742595588717 L-8.640744116681084,-3.431135693571599 L-8.551175847658598,-3.6214545497140245 L-8.457763121346831,-3.810145263997426 L-8.360547934453955,-3.997123004416839 L-8.259573993207102,-4.182303709090032 L-8.15488669370283,-4.365604124050225 L-8.046533101497838,-4.546941840675613 L-7.934561930449116,-4.7262353327388205 L-7.8190235208130705,-4.903403993059644 L-7.699969816613426,-5.078368169744621 L-7.577454342288117,-5.25104920199711 L-7.451532178625652,-5.421369455481782 L-7.322259938001747,-5.589252357227665 L-7.189695738927432,-5.7546224300539714 L-7.053899179919974,-5.917405326503318 L-6.91493131270845,-6.0775278622670275 L-6.772854614785964,-6.234918049087485 L-6.627732961320883,-6.3895051271228 L-6.479631596439676,-6.541219596759165 L-6.328617103894326,-6.6899932498566645 L-6.174757377127438,-6.835759200414438 L-6.0181215887485635,-6.978451914641445 L-5.858780159435412,-7.1180072404192964 L-5.696804726273955,-7.254362436143913 L-5.532268110551679,-7.387456198933042 L-5.365244285018406,-7.51722869218694 L-5.195808340629459,-7.643621572489855 L-5.024036452786105,-7.766578015840194 L-4.850005847088431,-7.8860427431975895 L-4.673794764616092,-8.001962045335368 L-4.495482426752504,-8.114283806987276 L-4.315148999568304,-8.222957530277583 L-4.132875557780117,-8.327934357424025 L-3.9487440483007883,-8.429167092703404 L-3.762837253397508,-8.526610223669945 L-3.5752387534743693,-8.620219941616893 L-3.386032889496087,-8.709954161272128 L-3.1953047250698106,-8.795772539718955 L-3.003140008202024,-8.87763649453357 L-2.80962513274775,-8.955509221131035 L-2.614847099569417,-9.029355709311963 L-2.418893477422808,-9.09914275900249 L-2.2218523635876974,-9.164838995180437 L-2.0238123442608646,-9.226414881980965 L-1.8248624547293222,-9.283842735975377 L-1.625092139341617,-9.337096738617095 L-1.4245912112952333,-9.386152947849231 L-1.223449812258182,-9.430989308868499 L-1.0217583718428989,-9.47158566404067 L-0.8196075669506708,-9.507923761963095 L-0.617088281004925,-9.539987265670199 L-0.41429156309165993,-9.567761759978293 L-0.2113085870253677,-9.591234757966406 L-0.008230610358907597,-9.610395706590154 L0.1948510666442731,-9.62523599142622 L0.3978451420571183,-9.635748940545243 L0.6006603533367025,-9.6419298275114 L0.8032055183542415,-9.643775873507321 L1.0053895763889669,-9.641286248583409 L1.2071216290674247,-9.634462072030953 L1.4083109812297652,-9.623306411878934 L1.60886718170469,-9.607824283514681 L1.808700063974685,-9.588022647429042 L2.0077197867132957,-9.563910406087075 L2.205836874176196,-9.535498399925658 L2.402962256427909,-9.502799402479813 L2.599007309386071,-9.465828114639956 L2.793883894665228,-9.424601158042645 L2.9875043992023174,-9.379137067597767 L3.1797817746459467,-9.329456283155588 L3.3706295764917873,-9.275581140317351 L3.559962002946495,-9.217535860393586 L3.7476939335026747,-9.15534653951463 L3.933740967207554,-9.089041136898288 L4.118019460608154,-9.01864946227985 L4.30044656535592,-8.944203162510155 L4.480940265453862,-8.86573570732774 L4.659419414129489,-8.783282374311439 L4.835803770316977,-8.69688023302019 L5.010014034732114,-8.606568128327243 L5.181971885523826,-8.512386662956196 " />
			<path d="M5.746957711326909,-1.91780748220369 L5.744794116056463,-1.7407274200193499 L5.738304633514016,-1.5633955090829292 L5.727493172721191,-1.3859185675067118 L5.712366246097702,-1.208403500764015 L5.692932965538521,-1.0309572372933264 L5.669205036925193,-0.8536866640886174 L5.641196753074677,-0.676698562314612 L5.60892498512986,-0.500099542985809 L5.5724091723970375,-0.3239959827479886 L5.531671310636385,-0.1484939598009014 L5.48673593881254,0.026300809999272312 L5.437630124313248,0.2002830368192019 L5.384383446644977,0.37334792027106567 L5.327027979615334,0.545391212540385 L5.265598272012998,0.716309281181011 L5.200131326796823,0.8859991715394309 L5.130666578806643,1.054358668770807 L5.057245871009192,1.2212863594093755 L4.97991342929347,1.3866816924561236 L4.898715835830723,1.550445039946952 L4.8137020010150735,1.7124777569648424 L4.724923134001745,1.8726822410598516 L4.63243271186057,2.0309619910412007 L4.536286447363409,2.187221665105951 L4.436542255424854,2.3413671382693764 L4.33326021821645,2.4933055590623177 L4.2265025489754535,2.6429454054614254 L4.116333554529886,2.7901965400186253 L4.002819596562517,2.9349702641565356 L3.8860290516370646,3.0771793715971745 L3.7660322700107147,3.2167382008917595 L3.642901533257747,3.3535626870199655 L3.51671101072983,3.487570412027546 L3.387536714879164,3.6186806546718264 L3.255456455471435,3.746814439045168 L3.120549792716108,3.8718945821470925 L2.982897989342343,3.993845740376445 L2.84258396164936,4.1125944549155555 L2.6996922295607564,4.228069195979089 L2.554308865712887,4.3402004059009 L2.406521443607893,4.448920541032991 L2.25641898486272,4.5541641124312715 L2.104091905585832,4.655867725303633 L1.949631961913905,4.753970117196628 L1.793132194741379,4.848412194897667 L1.6346868736760913,4.939137070030556 L1.4743914402548035,5.026090093322939 L1.3123424504527743,5.109218887524966 L1.1486375165220593,5.188473378959397 L0.9833752481935365,5.263805827684109 L0.8166551932780921,5.335170856248849 L0.6485777777027435,5.402525477028922 L0.47924424501781315,5.465829118119323 L0.30875659541160294,5.52504364777373 L0.13721752426928413,5.58013339737366 L-0.035269639686931864,5.631065182913885 L-0.20860099663919618,5.677808324991261 L-0.38267213825936297,5.720334667284842 L-0.557378210600648,5.7586185935161875 L-0.7326139772577589,5.792637042879667 L-0.9082738827573489,5.822369523933414 L-1.084252116140692,5.847798126942614 L-1.2604426747002488,5.868907534667648 L-1.4367394278317316,5.885685031590635 L-1.6130361809632143,5.898120511574778 L-1.7892267395227703,5.906206483951932 L-1.9652049729061143,5.909938078034685 L-2.1408648784057047,5.909313046050297 L-2.3161006450628148,5.904331764494666 L-2.4908067174040993,5.894997233905538 L-2.6648778590242665,5.881315077055096 L-2.83820921597653,5.863293535563023 L-3.0106963799327473,5.840943464932041 L-3.1822354510750652,5.814278328008978 L-3.352723100681276,5.7833141868752405 L-3.522056633366206,5.748069693171625 L-3.6901340489415535,5.708566076863262 L-3.8568541038569983,5.66482713345148 L-4.022116372185522,5.616879209640286 L-4.185821306116237,5.564751187466095 L-4.347870295918266,5.508474466900274 L-4.508165729339554,5.448082946934968 L-4.666611050404841,5.383613005163619 L-4.823110817577367,5.315103475868465 L-4.977570761249295,5.242595626628219 L-5.12989784052618,5.166133133460017 L-5.28000029927135,5.085762054510628 L-5.427787721376342,5.001530802312743 L-5.573171085224212,4.913490114623077 L-5.716062817312812,4.82169302385984 L-5.856376845005794,4.726194825157993 L-5.99402864837956,4.627053043061529 L-6.128935311134887,4.524327396872828 L-6.261015570542616,4.418079764680002 L-6.3901898663932855,4.3083741460838185 L-6.516380388921203,4.195276623646773 L-6.63951112567417,4.07885532308739 L-6.7595079073005255,3.9591803722438463 L-6.876298452225976,3.836323858831607 L-6.9898124101933465,3.7103597870204448 L-7.099981404638914,3.5813640328571203 L-7.206739073879909,3.4494142985604777 L-7.310021111088311,3.314590065716539 L-7.409765303026864,3.1769725474017685 L-7.5059115675240236,3.036644639263346 L-7.598401989665199,2.8936908695859387 L-7.687180856678525,2.7481973483750117 L-7.772194691494173,2.6002517154873903 L-7.853392284956923,2.4499430878402837 L-7.930724726672645,2.2973620057305837 L-8.004145434470097,2.1426003782967777 L-8.073610182460277,1.9857514281563249 L-8.13907712767645,1.8269096352518266 L-8.200506835278786,1.6661706799398546 L-8.25786230230843,1.5036313853566698 L-8.3111089799767,1.3393896590955936 L-8.360214794475993,1.1735444342311332 L-8.405150166299839,1.0061956097253943 L-8.445888028060493,0.837443990252676 L-8.482403840793314,0.6673912254785337 L-8.51467560873813,0.4961397488297761 L-8.54268389258865,0.3237927157924274 L-8.566411821201976,0.15045394177473015 L-8.585845101761157,-0.023772160427408595 L-8.600972028384644,-0.19878064352475433 L-8.61178348917747,-0.3744660889510796 L-8.618272971719916,-0.5507226703633596 L-8.620436566990362,-0.7274442173876114 L-8.618272971719916,-0.904524279571951 L-8.61178348917747,-1.0818561905083686 L-8.600972028384644,-1.2593331320845824 L-8.585845101761157,-1.4368481988272788 L-8.566411821201974,-1.6142944622979682 L-8.542683892588649,-1.7915650355026773 L-8.514675608738129,-1.9685531372766893 L-8.482403840793314,-2.1451521566054916 L-8.44588802806049,-2.3212557168433126 L-8.405150166299837,-2.4967577397904055 L-8.360214794475992,-2.6715525095905788 L-8.311108979976698,-2.8455347364105092 L-8.257862302308427,-3.018599619862373 L-8.200506835278782,-3.1906429121316924 L-8.139077127676448,-3.3615609807723175 L-8.073610182460273,-3.5312508711307373 L-8.004145434470093,-3.699610368362114 L-7.930724726672642,-3.866538059000682 L-7.85339228495692,-4.031933392047429 L-7.772194691494169,-4.195696739538259 L-7.687180856678522,-4.3577294565561475 L-7.598401989665193,-4.517933940651158 L-7.50591156752402,-4.676213690632501 L-7.409765303026861,-4.832473364697251 L-7.310021111088307,-4.986618837860677 L-7.2067390738799055,-5.138557258653613 L-7.099981404638909,-5.28819710505272 L-6.989812410193341,-5.4354482396099195 L-6.8762984522259725,-5.58022196374783 L-6.75950790730052,-5.722431071188469 L-6.639511125674165,-5.861989900483059 L-6.516380388921197,-5.998814386611265 L-6.39018986639328,-6.132822111618845 L-6.261015570542611,-6.26393235426313 L-6.128935311134882,-6.392066138636472 L-5.994028648379553,-6.517146281738396 L-5.856376845005787,-6.639097439967748 L-5.716062817312805,-6.757846154506858 L-5.573171085224201,-6.873320895570391 L-5.427787721376337,-6.9854521054921985 L-5.280000299271348,-7.094172240624285 L-5.129897840526175,-7.199415812022567 L-4.977570761249282,-7.301119424894932 L-4.82311081757736,-7.399221816787923 L-4.666611050404839,-7.493663894488957 L-4.508165729339547,-7.584388769621851 L-4.347870295918252,-7.671341792914236 L-4.18582130611623,-7.754470587116261 L-4.02211637218552,-7.833725078550689 L-3.8568541038569917,-7.909057527275403 L-3.690134048941541,-7.980422555840146 L-3.522056633366199,-8.047777176620217 L-3.3527231006812745,-8.111080817710615 L-3.1822354510750572,-8.170295347365025 L-3.0106963799327393,-8.225385096964956 L-2.838209215976529,-8.27631688250518 L-2.664877859024272,-8.323060024582555 L-2.4908067174041046,-8.365586366876135 L-2.3161006450628143,-8.403870293107483 L-2.1408648784057096,-8.43788874247096 L-1.965204972906113,-8.46762122352471 L-1.7892267395227632,-8.493049826533909 L-1.6130361809632139,-8.514159234258942 L-1.4367394278317236,-8.53093673118193 L-1.2604426747002346,-8.543372211166075 L-1.0842521161406844,-8.551458183543225 L-0.9082738827573347,-8.55518977762598 L-0.7326139772577385,-8.554564745641592 L-0.5573782106006333,-8.549583464085961 L-0.3826721382593439,-8.540248933496832 L-0.2086009966391762,-8.52656677664639 L-0.035269639686918985,-8.508545235154317 L0.13721752426929257,-8.486195164523338 L0.3087565954116105,-8.459530027600273 L0.4792442450178269,-8.428565886466535 L0.6485777777027506,-8.393321392762921 L0.816655193278093,-8.353817776454559 L0.9833752481935436,-8.310078833042775 L1.148637516522073,-8.26213090923158 L1.3123424504527814,-8.210002887057392 L1.4743914402548035,-8.153726166491571 L1.6346868736760984,-8.093334646526262 L1.7931321947413905,-8.028864704754913 L1.9496319619139117,-7.960355175459762 L2.104091905585834,-7.887847326219517 L2.2564189848627256,-7.811384833051313 L2.406521443607899,-7.73101375410192 L2.5543088657128874,-7.646782501904038 L2.699692229560753,-7.558741814214375 L2.8425839616493564,-7.466944723451135 L2.982897989342344,-7.3714465247492855 L3.1205497927161043,-7.272304742652825 L3.255456455471426,-7.169579096464129 L3.3875367148791615,-7.063331464271298 L3.5167110107298307,-6.953625845675114 L3.6429015332577435,-6.840528323238073 L3.766032270010706,-6.724107022678694 L3.886029051637062,-6.604432071835151 L4.002819596562517,-6.4815755584229064 L4.1163335545298825,-6.35561148661175 L4.226502548975446,-6.22661573244843 L4.333260218216449,-6.094665998151783 L4.436542255424852,-5.959841765307839 L4.536286447363404,-5.822224246993073 L4.6324327118605595,-5.681896338854658 L4.724923134001736,-5.5389425691772445 L4.813702001015066,-5.393449047966313 L4.898715835830714,-5.245503415078697 L4.979913429293466,-5.095194787431585 L5.057245871009192,-4.942613705321879 L5.13066657880664,-4.787852077888079 L5.200131326796821,-4.63100312774762 L5.265598272012998,-4.4721613348431175 L5.32702797961533,-4.311422379531151 L5.384383446644977,-4.148883084947959 L5.437630124313248,-3.9846413586868783 L5.48673593881254,-3.818796133822424 L5.531671310636387,-3.651447309316678 L5.572409172397041,-3.4826956898439603 L5.608924985129862,-3.3126429250698237 L5.641196753074675,-3.141391448421073 L5.669205036925195,-2.969044415383723 L5.692932965538523,-2.795705641366019 L5.712366246097703,-2.6214795391638877 L5.727493172721189,-2.4464710560665486 L5.738304633514014,-2.2707856106402176 L5.744794116056463,-2.09452902922793 L5.746957711326909,-1.917807482203813 " />
			<path d="M1.9635438847033604,-0.16268297952486488 L1.9622133571056333,-0.09005251548863169 L1.9582235774844636,-0.017300009507692615 L1.9515799529121725,0.055475941979375554 L1.9422914870335584,0.12817671075992187 L1.9303707678638808,0.20070377051121657 L1.9158339507291957,0.27295883032636004 L1.8987007363721555,0.34484396792115346 L1.8789943442529595,0.41626176234139234 L1.8567414810816234,0.4871154259907441 L1.8319723046242238,0.5573089358002883 L1.8047203828321638,0.6267471633619345 L1.7750226483498506,0.6953360038493746 L1.7429193484624366,0.7629825035518473 L1.7084539905514577,0.8295949858478686 L1.6716732831322918,0.8950831754482129 L1.6326270725533363,0.9593583207397718 L1.5913682754427008,1.0223333140644737 L1.5479528069939628,1.0839228097702667 L1.5024395051881714,1.1440433398741796 L1.454890051054803,1.2026134271807045 L1.405368885079731,1.2595536957021987 L1.353943119873491,1.3147869782316741 L1.3006824492182019,1.3682384209221754 L1.2456590536164067,1.419835584731017 L1.1889475024698268,1.4695085435914113 L1.130624653020612,1.5171899791784278 L1.0707695461920395,1.5628152721408584 L1.0094632994698156,1.606322589675358 L0.9467889969691587,1.6476529693241646 L0.8828315768366488,1.6867503988828392 L0.8176777161394263,1.723561892309732 L0.7514157133977637,1.7580375615343011 L0.6841353689201918,1.7901306840669575 L0.6159278631033507,1.8197977663188292 L0.5468856328615018,1.8469986025456109 L0.4771022463531768,1.87169632933563 L0.406672276174728,1.8938574755682738 L0.33569117119262504,1.9134520077750883 L0.26425512718821187,1.9304533708420593 L0.19246095649021977,1.944838523997919 L0.12040595677171007,1.9565879720397135 L0.048187779189272306,1.9656857917533004 L-0.024095703956828807,1.9721196534929781 L-0.09634653186221864,1.9758808378910047 L-0.16846678797791037,1.9769642476743514 L-0.24035873270983066,1.9753684145726857 L-0.31192493587853265,1.9710955013082159 L-0.38306840875957804,1.9641512986647032 L-0.45369273552563916,1.9545452176396134 L-0.5237022039122066,1.9422902766900434 L-0.5930019349298016,1.927403084089705 L-0.6614980114469041,1.9099038154208823 L-0.7290976054693417,1.8898161862318614 L-0.7957091039436521,1.8671674198968855 L-0.8612422329139169,1.8419882107222023 L-0.9256081798638067,1.8143126823481914 L-0.9887197140780456,1.7841783415039572 L-1.050491304860162,1.7516260271770496 L-1.110839237446322,1.716699855267215 L-1.1696817264581627,1.6794471587991664 L-1.2269390267408555,1.6399184237754074 L-1.2825335414361967,1.5981672207560502 L-1.3363899271442663,1.554250132258335 L-1.3884351960311099,1.5082266760742742 " />
			<path d="M-1.3884351960311225,1.5082266760742624 L-1.454890051054803,1.443693700690797 L-1.517839948512174,1.3756827407297334 L-1.577133236586502,1.3043576405506756 L-1.6326270725533365,1.2298902285672948 L-1.6841877669011476,1.1524599032976344 L-1.731691105401068,1.0722532011773644 L-1.7750226483498506,0.9894633471771701 L-1.8140780062651365,0.9042897893068725 L-1.8487630913688626,0.8169377181277039 L-1.8789943442529595,0.7276175724302726 L-1.9046989351812837,0.6365445322690843 L-1.9258149395428337,0.5439380005749437 L-1.9422914870335584,0.4500210745940759 L-1.9540888842073776,0.3550200084273204 L-1.9611787101011693,0.25916366796418355 L-1.9635438847033604,0.16268297952486466 L-1.9611787101011693,0.06581037353852381 L-1.9540888842073774,-0.031220775401978984 L-1.9422914870335584,-0.12817671075992088 L-1.9258149395428341,-0.2248238571946889 L-1.9046989351812837,-0.320929383265231 L-1.8789943442529595,-0.41626176234139245 L-1.8487630913688629,-0.5105913303718496 L-1.8140780062651367,-0.6036908391649225 L-1.7750226483498506,-0.6953360038493743 L-1.7316911054010684,-0.7853060431963127 L-1.6841877669011478,-0.8733842115005048 L-1.632627072553337,-0.9593583207397707 L-1.5771332365865023,-1.04302125175451 L-1.5178399485121745,-1.1241714532159006 L-1.454890051054803,-1.2026134271807043 L-1.3884351960311228,-1.2781582000629346 L-1.318635479007643,-1.3506237778877765 L-1.2456590536164076,-1.4198355847310165 L-1.169681726458163,-1.4856268832877293 L-1.0908865335688611,-1.5478391765570558 L-1.0094632994698167,-1.6063225896753568 L-0.9256081798638076,-1.660936230977888 L-0.8395231890788044,-1.7115485314191614 L-0.7514157133977644,-1.7580375615343007 L-0.6614980114469051,-1.8002913251778 L-0.5699867028460883,-1.838208029332049 L-0.47710224635317633,-1.87169632933563 L-0.3830684087595788,-1.900675548940605 L-0.2881117258164493,-1.9250758746686663 L-0.19246095649022055,-1.9448385239979187 L-0.09634653186221764,-1.9599158869751245 L-3.3306690738754696e-16,-1.9702716409122503 L0.09634653186221709,-1.9758808378910047 L0.19246095649021966,-1.9767299648645582 L0.2881117258164485,-1.9728169762116572 L0.38306840875957804,-1.9641512986647034 L0.4771022463531759,-1.9507538085999312 L0.5699867028460877,-1.9326567817443885 L0.6614980114469042,-1.9099038154208823 L0.7514157133977638,-1.8825497235182105 L0.8395231890788045,-1.8506604044397017 L0.9256081798638068,-1.8143126823481914 L1.009463299469816,-1.773594122089882 L1.0908865335688605,-1.7286028182429607 L1.1696817264581616,-1.679447158799167 L1.2456590536164067,-1.6262455640476283 L1.3186354790076433,-1.5691262012900107 L1.388435196031116,-1.5082266760742682 " />
			<path d="M1.3884351960311223,-1.5082266760742626 L1.4548900510548026,-1.4436937006907973 L1.517839948512174,-1.3756827407297334 L1.5771332365865023,-1.304357640550675 L1.6326270725533367,-1.2298902285672946 L1.6841877669011476,-1.1524599032976344 L1.731691105401068,-1.072253201177365 L1.7750226483498501,-0.9894633471771709 L1.8140780062651363,-0.9042897893068726 L1.8487630913688626,-0.8169377181277035 L1.8789943442529595,-0.7276175724302726 L1.9046989351812835,-0.6365445322690844 L1.9258149395428334,-0.5439380005749442 L1.9422914870335584,-0.45002107459407714 L1.9540888842073771,-0.35502000842732084 L1.9611787101011693,-0.25916366796418355 L1.9635438847033604,-0.16268297952487332 " />
			<path d="M-1.4850436596323322,-4.153478375665559 L1.3884351960311225,-1.5082266760742624 " />
			<path d="M-4.2619140516945775,-1.1370250235170336 L-1.3884351960311225,1.5082266760742624 " />

       </g>

       <!-- solid lines -->
       <g  stroke="rgb(0,0,0)" fill="none">
			<path d="M9.578262852211516,-0.7935755098773907 L9.576332343413902,-0.6004597467926827 L9.570541595213164,-0.40710193714031107 L9.560892941871888,-0.213580023853849 L9.547390272782227,-0.01997201601737686 L9.530039030898056,0.17364404258012112 L9.50884621054092,0.36719010490438286 L9.483820354580601,0.5605881521367984 L9.454971550991473,0.753760225123937 L9.422311428786015,0.9466284558030615 L9.38585315332714,1.1391150985908967 L9.345611421021204,1.3311425617230266 L9.301602453393846,1.5226334385313351 L9.253843990551077,1.7135105386467315 L9.202355284028192,1.9036969191147906 L9.147157089029434,2.0931159154116274 L9.088271656061545,2.2816911723474824 L9.02572272196452,2.4693466748456867 L8.959535500343252,2.6560067785844916 L8.889736671403876,2.8415962404894453 L8.816354371198901,3.0260402490640517 L8.739418180285547,3.2092644545464144 L8.658959111801726,3.391194998879774 L8.575009598964597,3.5717585454848986 L8.487603481996672,3.7508823088221397 L8.396775994484743,3.928494083731476 L8.302563749177159,4.104522274538553 L8.205004723225152,4.278895923915041 L8.104138242874145,4.451544741481711 L8.000004967611297,4.622399132142586 L7.892646873775568,4.791390224138892 L7.782107237636941,4.958449896811428 L7.668430617951711,5.1235108080601 L7.551662838000733,5.286506421489694 L7.431850967117962,5.447371033230821 L7.309043301716729,5.606039798425283 L7.183289345821315,5.762448757365194 L7.05463979111182,5.916534861275224 L6.92314649649023,6.068235997727724 L6.788862467175957,6.217491015680384 L6.651841833339364,6.364239750126307 L6.5121398282817635,6.508423046346677 L6.369812766170761,6.6499827837561405 L6.224918019339899,6.7888618993313266 L6.077513995161736,6.9250044106131 L5.927660112503741,7.058355438273165 L5.775416777776416,7.1888612282360524 L5.620845360583317,7.316469173347527 L5.464008168982886,7.441127834580589 L5.304968424371914,7.562786961770692 L5.143790236000873,7.681397513871673 L4.980538575131353,7.796911678724295 L4.815279248845981,7.909282892329453 L4.648078873521488,8.01846585761818 L4.479004847975501,8.124416562711012 L4.308125326297907,8.227092298659283 L4.135509190377844,8.326451676661154 L3.96122602213724,8.422454644745546 L3.7853460754822086,8.515062503917175 L3.6079402479835547,8.604237923756186 L3.429080052297789,8.689944957466139 L3.248837587340274,8.772149056364217 L3.067285509221978,8.850817083807883 L2.8844970019616247,8.925917328552332 L2.700545747985111,8.997419517533352 L2.5155058984239314,9.06529482807046 L2.3294520432247197,9.129515899485387 L2.142459181081887,9.190056844131226 L1.954602689205469,9.246893257827793 L1.7659582929364537,9.300002229699 L1.576602035221728,9.349362351408278 L1.3866102459609735,9.394953725788334 L1.1960595112379808,9.436757974861713 L1.0050266424486045,9.474758247249028 L0.8135886453379406,9.508939224961772 L0.6218226889591598,9.539287129577025 L0.4298060745664678,9.565789727791582 L0.23761620445485754,9.588436336353201 L0.04533055075906578,9.60721782636707 L-0.14697337577563818,9.622126626975657 L-0.339218057038142,9.633156728410558 L-0.5313259987992298,9.640303684415038 L-0.7232197619496628,9.643564614036329 L-0.9148219937160382,9.642938202786944 L-1.1060554588418787,9.638424703174557 L-1.296843070721284,9.630025934600209 L-1.4871079224727164,9.617745282624911 L-1.6767733179403566,9.601587697604911 L-1.8657628026104263,9.581559692696192 L-2.0540001944302015,9.557669341229026 L-2.2414096145171403,9.529926273453565 L-2.427915517745828,9.4983416726579 L-2.61344272320036,9.462928270660031 L-2.7979164444799354,9.423700342675655 L-2.981262319845404,9.380673701563794 L-3.1634064421946344,9.333865691452607 L-3.344275388854645,9.283295180747915 L-3.5237962511783976,9.228982554527336 L-3.7018966639344364,9.170949706322997 L-3.878504834477498,9.10922002929621 L-4.053549571688218,9.043818406807647 L-4.226960314670456,8.9747712023868 L-4.398667161194529,8.902106249104788 L-4.568600895874946,8.825852838354793 L-4.736693018071275,8.746041708044629 L-4.902875769500883,8.662705030206238 L-5.067082161552461,8.575876398027074 L-5.22924600228924,8.485590812308617 L-5.389301923131143,8.391884667357475 L-5.547185405204948,8.294795736314775 L-5.702832805351999,8.194363155929725 L-5.856181381782918,8.090627410783496 L-6.007169319368907,7.983630316969828 L-6.155735754559581,7.873415005238862 L-6.301820799917191,7.760025903611046 L-6.44536556825736,7.643508719468114 L-6.5863121963866575,7.523910421128328 L-6.724603868427335,7.401279218913477 L-6.860184838719942,7.275664545715186 L-6.993000454294536,7.147117037068395 L-7.122997176901373,7.015688510740111 L-7.250122604592307,6.881431945841519 L-7.374325492844118,6.744401461472019 L-7.495555775215287,6.604652294903698 L-7.613764583527896,6.462240779315051 L-7.7289042675664605,6.317224321082995 L-7.840928414285851,6.169661376642223 L-7.949791866520501,6.019611428921275 L-8.05545074118727,5.867134963364947 " />
			<path d="M5.181971885523862,-8.512386662956176 L5.307095266504667,-8.440594609520407 L5.430925186794556,-8.366745389821908 L5.553431466205272,-8.290857002607247 L5.674584247150159,-8.212947943614832 L5.794354001921144,-8.133037201067081 L5.912711539885314,-8.051144251042535 L6.02962801459934,-7.9672890527291145 L6.145074930840028,-7.881492043559591 L6.259024151549239,-7.793774134230532 L6.371447904691546,-7.704156703605879 L6.482318790022919,-7.612661593506416 L6.591609785768781,-7.51931110338644 L6.69929425520984,-7.424127984898859 L6.805345953174067,-7.327135436350094 L6.909739032433243,-7.228357097046121 L7.0124480500025275,-7.127817041531036 L7.113447973341491,-7.025539773719531 L7.212714186455114,-6.921550220924727 L7.310222495893285,-6.815873727782829 L7.405949136647278,-6.708536050076039 L7.499870777941844,-6.599563348455297 L7.5919645289214515,-6.488982182064326 L7.682207944229313,-6.3768195020665575 L7.770579029477827,-6.263102645076521 L7.857056246609125,-6.147859326497281 L7.9416185191443756,-6.0311176337655565 L8.02424523732062,-5.9129060195061784 L8.104916263113834,-5.793253294597521 L8.183611935147022,-5.672188621149635 L8.260313073482163,-5.549741505396785 L8.335000984294773,-5.425941790506085 L8.40765746443005,-5.300819649304045 L8.478264805839377,-5.174405576922762 L8.54680579989618,-5.0467303833675645 L8.613263741590083,-4.917825186007885 L8.67762243359828,-4.787721401993274 L8.739866190233206,-4.6564507405962985 L8.79997984126549,-4.524045195484279 L8.857948735621305,-4.390537036921697 L8.913758744953146,-4.255958803905184 L8.967396267083247,-4.120343296233031 L9.018848229318742,-3.9837235665111312 L9.068102091637776,-3.846132912097283 L9.115145849745804,-3.707604866985889 L9.159968038001297,-3.5681731936349257 L9.202557732210193,-3.427871874737279 L9.242904552288376,-3.286735104938376 L9.280998664791529,-3.1447972825021617 L9.31683078531178,-3.0020930009274656 L9.350392180740517,-2.8586570405167633 L9.381674671396855,-2.7145243598994244 L9.410670633021201,-2.5697300875114966 L9.437372998633474,-2.4243095130340944 L9.461775260255479,-2.2782980787924965 L9.48387147049705,-2.131731371118053 L9.503656244005576,-1.9846451116749497 L9.521124758778527,-1.837075148754058 L9.536272757338683,-1.689057448535864 L9.549096547771786,-1.5406280863246815 L9.55959300462634,-1.391823237756289 L9.567759569675358,-1.2426791699810913 L9.573594252539863,-1.0932322328249873 L9.577095631173975,-0.9435188499300757 L9.578262852211513,-0.7935755098774324 " />
			<path d="M6.704783996548062,-3.4388272094686863 L6.701899202854132,-3.2027204598895653 L6.693246559464202,-2.966277911974338 L6.678831278407102,-2.729641989872714 L6.658662042909119,-2.4929552342157852 L6.632751002163542,-2.256360216254867 L6.60111376401244,-2.019999451981921 L6.563769385545084,-1.784015316283249 L6.520740361618661,-1.5485499571781776 L6.472052611308231,-1.3137452101944174 L6.417735462294028,-1.079742512931634 L6.357821633195569,-0.846682819864736 L6.292347213863178,-0.614706517438163 L6.221351643638816,-0.3839533395023449 L6.144877687599291,-0.15456228314325227 L6.062971410796178,0.073328475044248 L5.975682150507946,0.29958166218880944 L5.88306248652104,0.5240609918306447 L5.785168209457772,0.7466312460154021 L5.682058287170142,0.9671583567443989 L5.57379482921981,1.1855094867321716 L5.460443049465611,1.4015531094226898 L5.342071226781175,1.615159088216037 L5.218750663926275,1.826198754857836 L5.090555644596727,2.034544986944169 L4.957563388678654,2.2400722844954015 L4.819854005734116,2.442656845552658 L4.67751044674612,2.6421766407514675 L4.53061845415203,2.8385114868277346 L4.379266510195537,3.0315431190116153 L4.223545783628269,3.2211552622658 L4.063550074793135,3.407233701325248 L3.8993757591225107,3.5896663494961882 L3.731121729085289,3.768343316172962 L3.558889334617735,3.943156973032003 L3.3827823220740942,4.114002018863124 L3.202906771733659,4.2807755429990255 L3.0193710339019715,4.443377087304828 L2.8322856636446625,4.601708706690308 L2.6417633541931904,4.755675028108353 L2.447918869062696,4.9051833080041 L2.2508689729227065,5.050143488180224 L2.050732361262476,5.1904682500445976 L1.8476295888932919,5.326073067207746 L1.6416829973307214,5.456876256398406 L1.4330166411006866,5.582799026666457 L1.221756213013637,5.703765526843641 L1.0080289684519186,5.819702891233485 L0.7919636487158801,5.930541283502857 L0.5736904034749268,6.036213938748764 L0.3533407123702297,6.136657203715046 L0.13104730581630442,6.231810575134702 L-0.09305591495082721,6.321616736174798 L-0.31883395853073404,6.406021590961997 L-0.5461508246723481,6.484974297167875 L-0.7748695861954396,6.558427296634449 L-1.0048524714703944,6.626336344021414 L-1.235960947406746,6.688660533457917 L-1.4680558029003032,6.74536232318269 L-1.7009972326886826,6.796407558157817 L-1.9346449215648303,6.841765490642459 L-2.168858128897617,6.881408798714121 L-2.403495773408741,6.9153136027263855 L-2.6384165181548163,6.9434594796931 L-2.8734788556634596,6.965829475590414 L-3.108541193172104,6.982410115569273 L-3.343461937918179,6.993191412072143 L-3.578099582429304,6.998166870849147 L-3.8123127897620908,6.997333494869967 L-4.045960478638238,6.990691786129123 L-4.278901908426618,6.978245745343617 L-4.510996763920173,6.960002869543029 L-4.742105239856525,6.935974147553598 L-4.9720881251314815,6.906174053378956 L-5.200806886654572,6.870620537481539 L-5.428123752796186,6.829335015969889 L-5.653901796376093,6.7823423576984005 L-5.878005017143224,6.729670869287251 L-6.10029842369715,6.6713522780715415 L-6.320648114801847,6.60742171298995 L-6.538921360042801,6.537917683424361 L-6.754986679778838,6.4628820560032665 L-6.968713924340557,6.382360029382859 L-7.179974352427604,6.296400107021061 L-7.388640708657641,6.205054067960857 L-7.59458730022021,6.108376935640527 L-7.7976900725893925,6.00642694474959 L-7.997826684249617,5.899265506150405 L-8.194876580389609,5.786957169886559 L-8.388721065520102,5.669569586300337 L-8.579243374971565,5.547173465282688 L-8.766328745228876,5.419842533680226 L-8.949864483060564,5.287653490884939 L-9.129740033401,5.150685962633339 L-9.30584704594464,5.009022453042903 L-9.478079440412198,4.862748294914658 L-9.646333470449422,4.711951598331931 L-9.810507786120045,4.556723197586088 L-9.970503494955185,4.397156596461363 L-10.126224221522454,4.233347911911711 L-10.277576165478948,4.065395816163495 L-10.424468158073037,3.89340147727906 L-10.566811717061032,3.71746849821687 L-10.704521100005564,3.537702854424954 L-10.837513355923637,3.354212830005259 L-10.965708375253183,3.167108952487363 L-11.089028938108083,2.976503926250819 L-11.207400760792517,2.7825125646362507 L-11.320752540546717,2.5852517207860894 L-11.42901599849705,2.3848402172566128 L-11.532125920784676,2.1813987744436782 L-11.630020197847948,1.9750499378652733 L-11.722639861834853,1.7659180043446674 L-11.809929122123084,1.5541289471386714 L-11.891835398926197,1.339810340056041 L-11.968309354965722,1.1230912806117939 L-12.039304925190084,0.9041023122636931 L-12.104779344522477,0.6829753457777472 L-12.164693173620936,0.4598435797700935 L-12.219010322635143,0.23484142047313616 L-12.26769807294557,0.008104400774280318 L-12.31072709687199,-0.22023090142406376 L-12.34807147533935,-0.45002694547386124 L-12.379708713490452,-0.6811453108307921 L-12.405619754236028,-0.913446780433643 L-12.42578898973401,-1.1467914245634376 L-12.44020427079111,-1.381038685131871 L-12.44885691418104,-1.6160474603482444 L-12.45174170787497,-1.851676189713913 L-12.44885691418104,-2.087782939293033 L-12.44020427079111,-2.3242254872082566 L-12.42578898973401,-2.5608614093098754 L-12.405619754236024,-2.797548164966804 L-12.379708713490452,-3.0341431829277226 L-12.34807147533935,-3.2705039472006683 L-12.31072709687199,-3.50648808289935 L-12.267698072945567,-3.7419534420044216 L-12.219010322635139,-3.976758188988182 L-12.164693173620932,-4.210760886250973 L-12.104779344522473,-4.44382057931787 L-12.03930492519008,-4.675796881744444 L-11.968309354965722,-4.906550059680262 L-11.891835398926194,-5.135941116039355 L-11.80992912212308,-5.363831874226854 L-11.72263986183485,-5.590085061371416 L-11.63002019784794,-5.814564391013251 L-11.532125920784672,-6.037134645198008 L-11.429015998497043,-6.257661755927005 L-11.32075254054671,-6.476012885914777 L-11.207400760792513,-6.692056508605296 L-11.089028938108076,-6.905662487398642 L-10.965708375253179,-7.116702154040434 L-10.837513355923633,-7.325048386126767 L-10.704521100005561,-7.530575683678 L-10.566811717061025,-7.733160244735249 L-10.42446815807303,-7.932680039934057 L-10.27757616547894,-8.129014886010324 L-10.126224221522445,-8.322046518194206 L-9.970503494955178,-8.51165866144839 L-9.810507786120038,-8.697737100507844 L-9.646333470449415,-8.880169748678785 L-9.478079440412191,-9.058846715355559 L-9.305847045944631,-9.233660372214606 L-9.129740033400992,-9.404505418045726 L-8.949864483060555,-9.571278942181626 L-8.766328745228869,-9.733880486487429 L-8.579243374971558,-9.89221210587291 L-8.388721065520084,-10.046178427290954 L-8.1948765803896,-10.195686707186697 L-7.997826684249616,-10.340646887362814 L-7.7976900725893845,-10.480971649227188 L-7.594587300220193,-10.61657646639034 L-7.38864070865763,-10.747379655580996 L-7.179974352427602,-10.873302425849042 L-6.968713924340547,-10.994268926026232 L-6.754986679778822,-11.110206290416079 L-6.538921360042792,-11.221044682685447 L-6.320648114801846,-11.32671733793135 L-6.10029842369714,-11.427160602897636 L-5.878005017143206,-11.522313974317294 L-5.653901796376082,-11.612120135357387 L-5.428123752796186,-11.696524990144585 L-5.200806886654561,-11.775477696350464 L-4.972088125131471,-11.848930695817039 L-4.742105239856524,-11.916839743204001 L-4.51099676392018,-11.979163932640503 L-4.278901908426623,-12.035865722365276 L-4.045960478638237,-12.086910957340407 L-3.812312789762097,-12.132268889825045 L-3.578099582429301,-12.17191219789671 L-3.3434619379181694,-12.205817001908976 L-3.108541193172103,-12.233962878875687 L-2.873478855663449,-12.256332874773005 L-2.6384165181547967,-12.272913514751863 L-2.403495773408731,-12.283694811254733 L-2.1688581288975977,-12.288670270031737 L-1.9346449215648027,-12.287836894052555 L-1.700997232688663,-12.281195185311713 L-1.4680558029002766,-12.268749144526208 L-1.2359609474067201,-12.25050626872562 L-1.0048524714703753,-12.226477546736188 L-0.7748695861954285,-12.196677452561547 L-0.5461508246723388,-12.161123936664127 L-0.3188339585307163,-12.119838415152477 L-0.093055914950817,-12.072845756880993 L0.13104730581630575,-12.020174268469844 L0.3533407123702399,-11.961855677254132 L0.5736904034749455,-11.897925112172539 L0.7919636487158912,-11.828421082606953 L1.0080289684519212,-11.75338545518586 L1.221756213013646,-11.672863428565448 L1.4330166411007026,-11.58690350620365 L1.641682997330732,-11.495557467143449 L1.8476295888932919,-11.39888033482312 L2.050732361262483,-11.296930343932182 L2.2508689729227154,-11.189768905332993 L2.4479188690626996,-11.077460569069151 L2.641763354193185,-10.960072985482933 L2.8322856636446563,-10.837676864465278 L3.0193710339019733,-10.710345932862811 L3.2029067717336543,-10.57815689006753 L3.3827823220740836,-10.441189361815937 L3.5588893346177306,-10.299525852225495 L3.731121729085289,-10.15325169409725 L3.8993757591225062,-10.00245499751453 L4.063550074793123,-9.84722659676869 L4.223545783628264,-9.687659995643967 L4.379266510195539,-9.523851311094308 L4.530618454152026,-9.3558992153461 L4.677510446746112,-9.183904876461671 L4.819854005734112,-9.007971897399475 L4.957563388678651,-8.828206253607553 L5.090555644596718,-8.644716229187864 L5.218750663926261,-8.457612351669976 L5.342071226781164,-8.267007325433424 L5.460443049465604,-8.073015963818849 L5.573794829219799,-7.875755119968696 L5.682058287170135,-7.675343616439212 L5.785168209457768,-7.471902173626269 L5.883062486521033,-7.265553337047871 L5.975682150507946,-7.056421403527258 L6.062971410796179,-6.844632346321255 L6.14487768759929,-6.630313739238633 L6.221351643638816,-6.413594679794378 L6.29234721386318,-6.194605711446269 L6.357821633195569,-5.97347874496033 L6.41773546229403,-5.750346978952669 L6.472052611308237,-5.525344819655713 L6.520740361618663,-5.298607799956864 L6.563769385545084,-5.0702724977585305 L6.6011137640124415,-4.84047645370873 L6.632751002163544,-4.609358088351792 L6.65866204290912,-4.377056618748949 L6.678831278407102,-4.143711974619164 L6.693246559464202,-3.909464714050722 L6.701899202854132,-3.6744559388343387 L6.704783996548062,-3.4388272094688497 " />
			<path d="M-0.9099349709600939,-2.8079346791161597 L-0.912300145562285,-2.90441536755548 L-0.9193899714560769,-3.0002717080186168 L-0.9311873686298959,-3.095272774185372 L-0.9476639161206206,-3.1891897001662395 L-0.9687799204821701,-3.2817962318603793 L-0.994484511410495,-3.372869272021567 L-1.0247157642945917,-3.4621894177189985 L-1.0594008493983174,-3.549541488898167 L-1.0984562073136028,-3.6347150467684646 L-1.141787750262385,-3.7175049007686587 L-1.1892910887623054,-3.797711602888928 L-1.2408517831101176,-3.8751419281585893 L-1.2963456190769524,-3.9496093401419716 L-1.3556389071512802,-4.020934440321029 L-1.4185888046086512,-4.088945400282093 L-1.485043659632319,-4.1534783756655465 " />
			<path d="M-1.485043659632332,-4.153478375665558 L-1.5548433766558114,-4.214377900881306 L-1.6278198020470476,-4.271497263638924 L-1.7037971292052925,-4.324698858390462 L-1.7825923220945938,-4.373854517834256 L-1.8640155561936382,-4.4188458216811775 L-1.9478706757996478,-4.4595643819394875 L-2.0339556665846503,-4.495912104030998 L-2.1220631422656906,-4.527801423109506 L-2.2119808442165496,-4.555155515012178 L-2.3034921528173666,-4.577908481335684 L-2.3963766093102787,-4.596005508191227 L-2.490410446903877,-4.609402998255999 L-2.5853671298470067,-4.618068675802952 L-2.681017899173235,-4.621981664455854 L-2.777132323801237,-4.6211325374823 L-2.873478855663455,-4.615523340503546 L-2.9698253875256726,-4.60516758656642 L-3.0659398121536747,-4.590090223589215 L-3.161590581479903,-4.570327574259962 L-3.2565472644230327,-4.545927248531901 L-3.350581102016631,-4.516948028926926 L-3.4434655585095433,-4.483459728923345 L-3.53497686711036,-4.445543024769095 L-3.624894569061219,-4.403289261125597 L-3.713002044742259,-4.356800231010457 L-3.7990870355272617,-4.306187930569184 L-3.882942155133271,-4.251574289266652 L-3.9643653892323156,-4.193090876148352 L-4.043160582121617,-4.130878582879024 L-4.119137909279862,-4.065087284322312 L-4.192114334671098,-3.995875477479072 L-4.2619140516945775,-3.9234098996542297 L-4.328368906718257,-3.8478651267719997 L-4.391318804175629,-3.7694231528071964 L-4.450612092249957,-3.6882729513458052 L-4.506105928216791,-3.6046100203310663 L-4.557666622564602,-3.518635911091801 L-4.605169961064522,-3.4305577427876077 L-4.648501504013305,-3.34058770344067 L-4.687556861928591,-3.2489425387562183 L-4.722241947032317,-3.155843029963145 L-4.752473199916413,-3.0615134619326883 L-4.7781777908447385,-2.9661810828565267 L-4.799293795206288,-2.8700755567859852 L-4.815770342697013,-2.773428410351218 L-4.827567739870831,-2.676472474993275 L-4.834657565764624,-2.5794413260527715 L-4.837022740366814,-2.4825687200664315 L-4.834657565764624,-2.3860880316271125 L-4.827567739870831,-2.2902316911639753 L-4.815770342697013,-2.1952306249972193 L-4.799293795206288,-2.1013136990163517 L-4.7781777908447385,-2.008707167322212 L-4.752473199916414,-1.9176341271610235 L-4.722241947032317,-1.8283139814635927 L-4.6875568619285914,-1.7409619102844232 L-4.648501504013305,-1.6557883524141253 L-4.605169961064522,-1.5729984984139311 L-4.557666622564602,-1.4927917962936614 L-4.506105928216791,-1.4153614710240012 L-4.450612092249957,-1.340894059040621 L-4.391318804175629,-1.2695689588615624 L-4.328368906718257,-1.2015579989004985 L-4.261914051694584,-1.137025023517039 " />
			<path d="M-4.261914051694577,-1.1370250235170334 L-4.209868782807722,-1.0910015673329614 L-4.156012397099651,-1.0470844788352458 L-4.100417882404309,-1.0053332758158875 L-4.043160582121617,-0.965804540792129 L-3.9843180931097772,-0.9285518443240808 L-3.923970160523617,-0.8936256724142464 L-3.8621985697415013,-0.8610733580873393 L-3.7990870355272617,-0.8309390172431041 L-3.734721088577371,-0.803263488869093 L-3.669187959607107,-0.7780842796944103 L-3.602576461132797,-0.7554355133594346 L-3.53497686711036,-0.7353478841704137 L-3.466480790593258,-0.7178486155015913 L-3.3971810595756615,-0.7029614229012524 L-3.327171591189093,-0.6907064819516817 L-3.256547264423033,-0.6811004009265926 L-3.185403791541989,-0.6741561982830797 L-3.113837588373286,-0.66988328501861 L-3.041945643641364,-0.6682874519169442 L-2.9698253875256726,-0.6693708617002909 L-2.897574559620284,-0.6731320460983172 L-2.8252910764741825,-0.6795659078379952 L-2.753072898891746,-0.6886637275515819 L-2.681017899173235,-0.7004131755933765 L-2.609223728475243,-0.7147983287492363 L-2.5377876844708296,-0.7317996918162071 L-2.466806579488727,-0.7513942240230214 L-2.3963766093102783,-0.7735553702556657 L-2.3265932228019532,-0.7982530970456843 L-2.2575509925601045,-0.8254539332724662 L-2.1893434867432635,-0.8551210155243378 L-2.1220631422656915,-0.8872141380569945 L-2.0558011395240285,-0.9216898072815631 L-1.9906472788268061,-0.9585013007084564 L-1.9266898586942962,-0.9975987302671303 L-1.8640155561936393,-1.0389291099159372 L-1.8027093094714153,-1.082436427450437 L-1.7428542026428429,-1.1280617204128673 L-1.684531353193628,-1.1757431559998837 L-1.627819802047048,-1.225416114860278 L-1.572796406445253,-1.2770132786691197 L-1.5195357357899637,-1.3304647213596208 L-1.4681099705837237,-1.3856980038890965 L-1.4185888046086519,-1.4426382724105906 L-1.3710393504752834,-1.5012083597171153 L-1.325526048669492,-1.5613288898210285 L-1.282110580220754,-1.6229183855268214 L-1.2408517831101185,-1.6858933788515231 L-1.2018055725311627,-1.750168524143082 L-1.165024865111997,-1.8156567137434263 L-1.130559507201018,-1.8822691960394478 L-1.098456207313604,-1.9499156957419204 L-1.0687584728312909,-2.0185045362293605 L-1.0415065510392307,-2.0879427637910064 L-1.0167373745818313,-2.1581362736005505 L-0.9944845114104952,-2.228989937249903 L-0.9747781192912988,-2.3004077316701417 L-0.9576449049342588,-2.3722928692649345 L-0.9431080877995734,-2.4445479290800782 L-0.9311873686298959,-2.5170749888313733 L-0.9218989027512821,-2.5897757576119194 L-0.9152552781789907,-2.662551709098987 L-0.9112654985578206,-2.7353042150799274 L-0.9099349709600939,-2.8079346791161424 " />

       </g>
    </g>
    
</svg>
